<svg xmlns="http://www.w3.org/2000/svg" id="Layer_2" viewBox="0 0 752 83.9"><defs><style>.cls-1{fill:#f2721c}</style></defs><g id="Layer_1_copy"><path d="M690.3 32.8H689l-.1.8-.1.5-.2 3-.1 1.1-.2 1.5v2L688 43l-1-.4q-1-.1-2 .5l-1 .9-.1.3v.1q-.5.9-.3 1.6-.1.8.4 1.6t1.5 1.1l1 .2h.5l1-.2.3-.3.3-.1.4-.5.3-.6v-.4q.3-.2.3-.6v-1l.9-5.3.4-2.7.1-.6h1.3l1.7.1-.3 9.9q-1-.2-1.9.4l-1 1v.2l-.1.1q-.3.8-.2 1.7-.1.7.4 1.5t1.4 1.2l1 .1h.5v.1h.2l.9-.3.3-.2.2-.2q.3 0 .4-.5l.4-.6v-.3l.3-.7v-3l.1-5 .1-2.3.2-2.7v-4.3h-6.7ZM1758 19.1q-.2 0-.2.3l-2.7 7q-1 3-2.1 5.2l-2.9 7.3-1 2.8-1.5 3.5-1 3-.8 2-1.6 4.1-1-1q-1.2-.8-2.2-1.2a7 7 0 0 0-7.4 1.5l-.4.5-.2.3c-.7.8-1.2 2.2-1.4 3.4q-.4 1.5.1 3.7a7 7 0 0 0 2.5 3.3q.8.6 2 1h.2l1.2.4h2.2l.9-.3.8-.2q.5-.2 1.2-.8c.2-.2.9-.7 1-1l.4-.8V63h.1l.1-.2q.6-.4.9-1.3l.2-.7 6.3-14 3-6.6 1.8-4 1-2.1.3-.8 2.3-5.4 8.6 3-5.4 15.7-1.7-1a7 7 0 0 0-7.4 1.6l-.5.5-.1.3q-1.1 1.3-1.5 3.4-.4 1.5.2 3.6a7 7 0 0 0 2.4 3.4l2 1h.2l1.2.4h2.2l1-.3.7-.3q.6-.1 1.2-.8c.3-.1 1-.7 1-1l.4-.7.1-.2h.1q.6-.5.8-1.3l1.6-4.5.5-1.7 4.4-12.7 4.5-12.2zm-34.6 21.3v-7.5l-.1-1v-.7l-.1-.4v-1.3l-.2-.8v-.9l-.4.2h-.3l-1 .4-.7.3v4.1l-.1 2.3v.9l-.1.5v6.7l-.2 6.4a8 8 0 0 0-3.2-.6 6 6 0 0 0-5 3.5l-.2.5v.3q-.4 1.7 0 3 .3 1.5 1.3 2.7a6 6 0 0 0 4 1.8l.8-.1 1.2-.1q1-.3 1.6-.8l.6-.5.5-.4.6-1 .4-1v-1l.3-.6h.2v-6.1l.2-2.3V42zm-23.8 2.1.2.2.3.3.3.3-.2-.7v-.8l-.6-1.8-1-3.5-3-1.2-1-.3-.5-.3-.8-.3h-.2l-.2-.2-3.2-1 .4 1.6 1.5 6.9 2.4 9.7h-.4l-1.6.1a5 5 0 0 0-3.4 3.6v.7q0 1.3.6 2.3.5 1.3 1.5 2 1.1.7 2.5.7.7 0 1.5-.3l.8-.2h.1l1.1-1 .4-.4.3-.4q.3-.3.3-.8v-.2l.1-.8-.2-.6V56q.2-.5 0-1l-.2-1v-.8l-1.1-6.7-.8-4-.2-1-.2-1v-1l-.1-.3.5.5 1 .7.5.4.4.3 1.1.9.8.4.2.1Zm1.9 6.8a2 2 0 0 0 0 4.2 2 2 0 0 0 0-4.2M469 56.4q.3-.6.2-1v-.1L469 54v-5.7l-.3-5.2-.1-1.8-.1-1v-2l-.1-2.7-.1-1v-1.3l-.2-1.2v-.7l-.1-.4-.1-1.4h.2l-.1-2.1v-.4q0-.8-.3-1.4v-.3l-.2-.3v.2l-.2-.1-3.7-.2-2.2-.1-2.4-.1a73 73 0 0 0-9.1 0h-16.2l-9-.1V30h.8l.2.6.3 2v.8l.1.4V35l.2.5.2 1.7.1 1.8v.8l.2 4.8v.9h-.1l-1.7-.1a5 5 0 0 0-4.2 3.2v.7q-.2 1.5.1 2.6.4 1.3 1.3 2.2t2.6 1.3l1.5-.1 1-.1 1.4-.8.4-.5.4-.3q.3-.3.4-.9l.3-1V51q.3-.6.1-1v-.1l-.2-1.3v-4l-.2-4.3-.2-1.4V38q-.2-1 0-1.6s-.2-2.3-.2-2.3l-.1-.8v-1l-.1-1-.1-.6v-.4l-.1-.3 8.6-.1.4 4v1.2l.1.7.3 2v3.3l.2 5.8V49h-.1l-1.8-.2a5 5 0 0 0-4.1 3.3v.7c-.3.8 0 1.9.1 2.5q.4 1.4 1.3 2.3 1 1 2.6 1.2h1.5l1-.2q.9-.3 1.4-.8l.4-.4.4-.4q.3-.2.4-.8V56l.3-1-.1-.5v-.1q.3-.6.2-1.1 0-.7-.2-1.3v-5.7l-.3-5.1-.1-1.8-.1-1v-2l-.1-2.7-.1-1v-1.3l-.2-1.1v-.4h9.6v.2l.2.5v.4l.1.2v.2l.2.3.3 1 .1 1.2v.4l.3 2.1q-.9-.2-1.8-.1a5 5 0 0 0-4.1 3.2v.5l-.1.2q-.2 1.4.2 2.6t1.2 2.2q1.2 1 2.7 1.2h1.5l1-.2 1.3-.7.5-.5q-.1-.1.4-.4.3-.2.4-.8v-.1l.3-1-.1-.5v-.1q.3-.6.2-1.1t-.2-1.2v-1.3l-.4-3.6-.1-.5v-.8l-.1-1.5-.1-.6v-.5l-.2-.7v-.2l1.4.1h8.4l.2.4v.2l.2 1.3.3 2.4V36l.1.8v.4l.1.7.2 2 .1 2.3v1l.2 6V51h-.2q-.7-.3-1.7-.2a5 5 0 0 0-4.1 3.2v.7q-.3 1.5.1 2.6.4 1.4 1.3 2.2a5 5 0 0 0 3 1.3l1.1-.1 1-.1 1.4-.8.4-.5.4-.3q.3-.3.4-.9l.3-1zm279.3-16.9-4.3-.4h-1l-.4-.2h-.5l-.7-.1h-.7l-.6-.1h-1.2l-.1.6-.2.3.1.2v4.8l-.1 1-.1.5-.4 3v.3l-1-.2a3 3 0 0 0-2.9 1.6v.3l-.1.1q-.3.9-.1 1.6 0 .8.5 1.5.7.8 1.5 1 .4.2 1 .1h.6q.6 0 1-.3l.2-.2.3-.2.3-.5.3-.6v-.4l.3-.7v-1l.1-1 .2-1.2.3-2.6v-1.3l.2-1 .1-1.3v-.6l.1-.5.6.1 1.1.2 1.7.2h1.9l1 .2 1.3.1.8.2h.1v.2l-.1 1.6v.7l-.2.4v1.4l-.2 1.5q0 .8-.2 1.5v.8l-1 5.8-1-.2q-1 0-1.9.6l-.9 1v.3q-.4 1-.2 1.7 0 .8.5 1.5.7.7 1.5 1l1 .1h.6q.6 0 1-.3l.2-.3.3-.2.4-.4v-.1l.3-.5v-.4l.2-.8v-.7l.1-1.2.3-1.4.2-1.8.5-3.7.1-2q0-.8.3-1.4l.2-2V45l.2-1v-1.3l.1-.8.4-2-1.8-.3zm-225.8-7.7-.8-.2-.6-.2-3-1h-.4l-.5-.2-.2-.1-.3-.2-.5-.1-.3-.1-.3-.1-.6-.2h-.4l-.3.5-.2.2v.5h.2-.2v.3l-.1.2v.1l-.1.2-.2.7-.2.4v.3l-.2.3v.2l-.2.3-.6 1.8-.2.4-1 2.4-.3.4-.7-.5a3 3 0 0 0-3 .7l-.2.2v.1l-.6 1.4.1 1.5q.4.8 1 1.3l1 .3.4.2h1l.3-.2.2-.1q.2 0 .5-.3l.4-.5.1-.3.4-.6.2-.7V41l.5-.9.5-1 .9-2.2.3-.8.1-.4q0-.4.4-.7l.5-1.2.1-.5.3-.5.8.4 1.3.3 1.3.4.8.2.8.4h.1v.2l-.2.4-.3.7v.2l-.2.3-.3 1-.5 1-.1.4-1.2 2.7-.3.6-.8-.4a3 3 0 0 0-3 .6l-.1.3-.6 1.4v1.5q.5.8 1.1 1.3.4.3.9.3l.4.2h1l.3-.2h.3q.3 0 .5-.4l.4-.5v-.3q.4-.2.5-.6l.2-.7v-.3l.5-1 .6-1 1-2.4.3-.9.6-1.3.5-1.3q0-.4.2-.5l.2-.5.2-.6.1-.3.2-.6.8-1.5zM537.7 53v-.8l-.1-.6v-.4l-.2-1-.1-1.3-.4-2.5-.2-.9V45q-.3-.4-.2-.9s-.2-1.4-.2-1.4l-.1-.5v-.6l-.2-.7v-.3l-.2-.6-.1-1.6-1.5.3-.9.2-.5.2-3.1.8h-.4l-.4.2h-.7l-.5.2h-.3l-.3.1-.5.2-.5.1.1.7v.4l.2.2v.4l.1.1v.2l.1.2.2.7v.4l.1.3v.4l.1.1.1.4.4 1.8v.5l.4 2.6v.4a3 3 0 0 0-3.1 2.1v.3q0 1 .2 1.6t.9 1.2q.7.5 1.5.5h.1l.8-.1.5-.1h.1l.7-.6.2-.3.2-.2.2-.5.1-.6v-1l-.2-.7v-.2l-.1-.9-.1-1.1-.4-2.4-.2-.8v-.4l-.1-.8-.2-1.3-.1-.5v-.5l.8-.2 1.3-.3.8-.3.5-.1.8-.2.9-.2.1.2.1.5.1.6v.3l.1.3.2 1 .2 1.1v.5l.4 3 .1.5h-.9a3 3 0 0 0-2.2 2.2v.3q0 .9.3 1.5.3.8.8 1.2.7.6 1.6.6l.9-.1.4-.2h.1q.5-.2.7-.5l.3-.3.2-.2.2-.5.1-.6zm673.7 2.3v-.6l-.2-.5v-.4l-.2-.9-.2-1-.5-2.1-.4-1.2-.1-.8v-.2l-1.1-4.4-8 1.7-.6.1-.6.1h-.4l-.5.1-1.2.3-.8.2.2.6-1 .6 1.1-.2.1.2.8 2.1.2.5.1.4.3 1 .3.8.3 1 .2.5.7 2.8.2 1h-.5a2 2 0 0 0-1.6 1.8v.3q0 .7.4 1.1l.7 1 1.1.2h.2l.6-.2h.4V61q.3 0 .6-.4l.1-.3.1-.1.2-.5v-1.2l-.3-.6-.2-.7-.2-1-.3-1.1-.7-2.5-.4-1.3-.2-.9-.3-1h1.2l3-.6 1.1-.3 1.9-.4 1.2-.2.4 1.7.1.4.5 2.5.1.6-.6.1a2 2 0 0 0-1.5 1.8v.2q0 .8.3 1.2l.7.8q.7.4 1.3.4l.7-.2.3-.1.6-.5.1-.3.2-.1V56q.2-.1.1-.4zm-14.7-19.1h.4l.6-.4q.3 0 .2-.2l.2-.1.2-.4.2-.5v-3l-.1-1.8-.1-1v-.2h.4l.8.1h3.6l.1.5v.6l.1 2v4.5h-.6a2 2 0 0 0-1.9 1.4v1.5q.2.6.6 1a2 2 0 0 0 1.4.6h.5l.3-.1h.1l.6-.4.2-.2.1-.1.3-.4.1-.5v-6.9l-.1-1.4v-3.5l-.1-.6v-2.4h-8.6V26l.1 1v.7l.2.4v.1l.1.1v.1h.1v1.1l.1 2v.2h-.6a2 2 0 0 0-1.9 1.4v1.5q.2.6.6 1 .5.5 1.1.5zm191.1 1.6h-1.3l-.1.8-.1.5-.2 3-.1 1-.2 1.5v2l-.2 1.3-1-.3q-1-.2-2 .4l-1 1-.2.3q-.3 1-.2 1.7-.1.8.4 1.5.6.9 1.4 1.2l1 .1h.5v.1h.2l.9-.3.3-.2.3-.2.3-.4v-.1l.4-.5v-.4l.3-.7v-1l1.3-8 .1-.6h1.2l1.8.2-.3 9.8q-1-.1-1.9.4l-1 1-.1.3q-.4 1-.3 1.7 0 .7.5 1.6.5.8 1.4 1.1l1 .2h.6l1-.2.3-.3.2-.1q.3-.1.4-.5l.4-.6v-.4q.3-.3.2-.6v-.9l.1-.8V47l.2-2.3.1-2.7.1-4.2zm18-.3v-.1h-1.5q-.2 0-.3.2v1.7l-.2.4v.5l-.1.1v.3l-.1.7-.2.8v.4l-.5 2-.1.4-.7-.2a2 2 0 0 0-2.2 1v.2q-.4.7-.3 1.2 0 .6.3 1.1a2 2 0 0 0 1.8 1h.4l.7-.1.2-.2.2-.1.3-.3.3-.5v-.2l.2-.5v-.8l.3-.7.2-.9.4-1.9.1-1 .2-.6.2-1V40l.2-.4v-.8l.2-.6v-.4l.1-.2m10.8-9.2h-1.5q-.2 0-.3.2v1.7l-.1.4v.2l-.1.3v.3l-.3 1.6-.1.4-.5 2-.1.4-.7-.2a2 2 0 0 0-2.1 1l-.1.2q-.3.7-.2 1.2t.3 1.1a2 2 0 0 0 1.7 1h.4q.4 0 .7-.2l.3-.1.1-.1q.3 0 .4-.4l.2-.4v-.2q.3-.3.2-.5v-.6l.1-.2.2-.7.2-.9.4-1.9.2-1 .1-.6.3-1V31l.1-.4V30l.1-.3.1-.6v-.4h.2zm7.8 6.6h-.2v-.1h-1.3l-.3.2V37l-.1.3v.2l-.1.3v.4l-.3 1.6-.1.3-.5 2.1-.1.3-.7-.2q-.7 0-1.4.3-.5.3-.7.7l-.1.2v.1q-.3.6-.2 1.2t.3 1q.3.7 1 1h1.1v.1l.7-.2q.2 0 .3-.2h.1q.2-.1.3-.4l.3-.4v-.3q.3-.3.2-.5v-.5l.1-.2.2-.8.2-.9.4-1.8.2-1 .1-.7.3-1v-.4l.1-.4v-.5l.1-.2.1-.7v-.4l.1-.1zM383.7 37.7l-.1-.6v-2.4l-.1-2.2-.1-1.2v-.6h.1V28h-.2v-.3l-.1-.3v-1.9l-.1-.6v-.2h-.1l-.2-.4v.3l-1.7-.1h-1.9l-1.5-.1h-13.3V27h.4v.2l.2 1.1h-.3l.1 1.2v.8h.1l.2.4.1-.3v.6l.1 2.1v.2h-.6a2 2 0 0 0-2 1.5v.2l.1 1.3q.1.6.6 1t1.2.5h1.1l.6-.4.2-.2.2-.2.2-.4.2-.4v-.9l-.1-.5v-2.9l-.2-1.4h1l1 .1h1.4l.1 2V37h-.6a2 2 0 0 0-1.8 1.5V40a2 2 0 0 0 1.8 1.6h.7l.3-.1h.1l.6-.4.2-.2.2-.1.2-.5.1-.4v-4.5l-.1-2.7-.1-1.4v-.8h4.1v1.8h-.6a2 2 0 0 0-1.9 1.4v1.5q.2.6.6 1l1.2.6h1.1l.1-.1.6-.3.2-.3h.1l.3-.5.1-.5v-2.8l-.2-1.6v-.2h4.1l.1 1.4v.4l.1 2.6v.6h-.7a2 2 0 0 0-1.8 1.5v1.5q.1.5.6 1t1.2.5h1.1l.6-.4.2-.2.2-.2.2-.4.2-.4v-.9Zm-12-10.4V27h3.8l.2.8v.3H373l-.7.1h-.4v-.9m5.7 0V27h3.9l.2.7v.4h-4v-.4zm-10.7 1v-.9l-.1-.2v-.1h3.3l.1.3v.7h-2.7zm-23.3 21.1c0-.2-.5-.4-.7-.5l-.3-.2-.3-.2-.6-.4-.9-.4-.6-.3-.4-.2-.5-.2-.6-.4-.4-.2-1.2-.7-.6 2.5.3.2V50l-.1.5v.2l-.3 1.1-.6-.2a2 2 0 0 0-2.2 1v.2q-.4.8-.3 1.2 0 .7.3 1.2a2 2 0 0 0 1.8 1h.4l.7-.2.2-.2h.2l.3-.4.3-.4v-.3l.2-.5v-.8l.2-.5.2-1.3v-.5l.1-.2v-.4l.2-.7v-.3l.1-.2 2 1q.3 0 .3.2l.3.1.2.1.3.2v.6l-.1.3v.3l-.1.1v.2l-.1.8-.2.8v.3l-.6 2.1v.4l-.7-.2a2 2 0 0 0-2.2 1v.2q-.4.7-.3 1.2 0 .6.3 1.1.4.6 1 .8l.8.2h.4l.7-.2.2-.1.2-.1.3-.4.3-.4v-.3l.2-.5v-.7l.3-.7.2-1 .4-1.8.1-1 .2-.6.2-1v-.6h.2v-.4l.2-.9v-1Zm-292 4.9-.4-1.1-.4-1.1-2.5-8.8-2-7.7-3.1 1.1-8.9 3.4-5.5 2.3-1.8.7-2 .7q-.5 0-.8.3-.2.5.1 1.1l.1.5 1.1 3.9.6 2 .7 2.4q.1.8.7 2.3l.4 1 .7 2.3h-.1l-1.6.1a5 5 0 0 0-3.5 3.6v.7q0 1.3.6 2.4.5 1.2 1.5 1.9 1.2.8 2.5.8.7 0 1.6-.4l.8-.2h.1q.7-.4 1.1-1l.3-.4.4-.4.2-.8v-.1l.2-1-.2-.5v-1.1h.2V63l-.6-2.2-.3-1-1.2-4.6-1.8-7V48l3.1-1h.4l.5-.2 1.8-.7 3.2-1.2 6-2h.4l2.9 8.7-1 .1a5 5 0 0 0-3.4 3.6v.7q0 1.3.6 2.4.5 1.2 1.5 1.9 1.1.8 2.5.8.8 0 1.5-.4l.9-.2q.8-.4 1.2-1l.3-.4.3-.4q.3-.3.3-.8v-.2c0-.1.2-.7.1-.8v-.2l.3-.1zM16.8 24.2v-.4l-.6-2.2-.2-.7-.8-3.1-3-.3-3.5-.4-1.3-.2-.9-.2H5.3l-.4-.1-.6-.1-2.3-.1 1 4 .7 2.8L4 25l2 8.6 1.7 6.7.1.5h-.1l-2.5.2A7 7 0 0 0 0 46.4v1q.1 2.1 1 3.6a7 7 0 0 0 2 3q2 1 4 1 1 0 2.2-.5l1.3-.4h.1l1.7-1.3.5-.8.5-.6q.3-.4.3-1.2V50l.3-1.3q0-.5-.3-.8v-.3q.2-.8 0-1.5 0-.7-.5-1.5l-.1-1-.7-3.4-3.2-13.8-.6-2.5-.2-.6h.2l.2.2H9l.3.1 1.6.3h1l.7.2 1.9.3h1.8l.3.2v-.1h.3zm59.4 20.3V43l-.2-2.3v-1.9l-.1-.3v-.3l-.1-.5v-.5l-.1-1-.2-.6v-.1l-.1-.2L74 35h-.7l-.7-.1-1.2-.1h-1.8l-1.2.1h-7.3v2.6h.5V39l.2.4v2.2h-.2a2 2 0 0 0-1.8 1.3v.3l.1 1q.1.6.5 1l1 .5.7-.1h.4l.5-.4.2-.2.3-.5V44h.2v-2.3l-.1-1.4-.1-.5v-1.5l-.2-.3v-.5h.8l.8-.1h.7v.6l.2.4v.7l.1 1.1a2 2 0 0 0-1.3.5l-.5.8v.3l.1 1q.1.6.5 1t1.1.4h.7q0-.1.2 0l.1-.1q.3 0 .5-.3l.2-.3q.4-.1.3-.4v-.5h.3l-.1-1v-1.1l-.4-1.7v-.5l-.2-.8v-.1h2.3v4.9l.1 1V45l-.1 3.2v1.4h-.3a2 2 0 0 0-1.7 1.3v.3l.1 1q.1.6.5 1l1 .5h.2l.5-.1h.4l.5-.4.2-.2q.3-.3.2-.5l.1-.4h.2v-8.6l-.1-.5v-3.8l-.1-.7v-1.1h2.3l.4-.1v.5l.1.6v1.2l.1.6v3.1h-.2a2 2 0 0 0-1.2.5l-.5.8V46q.2.6.6 1 .5.4 1 .4h.7l.2-.1h.1l.6-.3.2-.3q.3-.2.2-.5l.1-.3h.2zm1193.5-6v-.1l-.1-.2-1.5-.5-.8-.3-.9-.2-1.3-.5-2.2-.5-1.4-.4-2.2-.5-1.5-.5-1-.3-3.6-1-.8 2.5.5.2-.1.8v.2l-.1.3v.2l-.1.1v.3l-.1.6-.2.7v.3l-.5 1.8h-.5q-.8-.2-1.4.2-.5.1-.8.6v.3q-.4.8-.3 1.1 0 .6.3 1.1t1 .9l.7.1h.4l.7-.1.2-.2h.1q.3-.1.4-.4l.2-.4v-.2h.1l.3-1 .2-.8.2-.7.4-2.2v-.4l.2-.4.2-1v-.4l.1-.3v-.6l3 .7-.1.7-.1.4v.2l-.2.3v.5l-.3 1.5-.1.4-.6 2.3-.2.4-.4-.1a2 2 0 0 0-2.2.8v.3q-.4.8-.3 1.2 0 .6.3 1 .3.7 1 1h1v.1h.1l.6-.2q.2 0 .3-.2h.1q.3 0 .3-.4s.3-.3.3-.4V47h.1l.3-1.4.3-.8.2-.9.5-2v-.7l.1-.4.2-.6.3-1.1v-.5l.2-.4V38l2.9.7.4.1v.9l-.1.4v.2l-.2.6-.4-.2a2 2 0 0 0-2.1.9l-.1.2v.1q-.4.8-.3 1.1 0 .6.3 1.1t1 .9l.7.1h.4l.7-.1.2-.2h.2l.3-.4.2-.4v-.2h.1v-.3l.3-.6.3-1.6v-.8h.1l.1-.7v-.4h.3l.9.2.8.3.8.1.6.2v.6l-.2 1v.3l-.2.2v.5l-.1.3-.3 1.5-.1.4-.6 2.3-.2.4h-.4q-.7-.2-1.5.1l-.7.7v.2h-.1l-.2 1.2q0 .5.3 1.1t1 .8l.7.2h.4l.6-.2.3-.1h.1q.3-.2.3-.4s.3-.3.3-.5v-.2h.1l.3-1.4.3-.8.2-1 .5-2v-.6l.2-.4q0-.4.2-.6l.2-1.2v-.4l.2-.4V41l.1-.2v-.3h.2l.2-1.2zm-1135.6.7v-.5h.1v-1.2l-.1-.8-.2-.4c-.1-.2-1.5-.4-1.6-.4l-.9-.2-.9-.2-1.4-.3-2.3-.2-1.5-.1-1-.1-1.4-.1-2.7-.5-4.3-.5v1l-.1.1-.2.6v.6l-.1 1.1h.2l.6.1v.8l-.1.2v1.4l-.1.6v.4l-.3 1.7h-.2q-1 0-1.7.5-.5.3-.7.8v.4q-.3.8-.1 1.4v.1q0 .6.5 1.2t1.3.7h1.4l.6-.3.3-.3h.1q.3-.2.3-.6l.1-.5h.4v-1.4l.1-.7.2-.8v-5.3h1l1.1.1 5.7.6h.4v.1l-.1.5V40l-.1.4v.4l-.1.2v1.3l-.1.8v.4l-.4 2.4v.2h-.2a3 3 0 0 0-2.5 1.3v.4q-.2.7 0 1.4 0 .7.4 1.3.6.6 1.4.7h1.3q.4 0 .7-.3l.3-.3h.1l.3-.6.1-.5h.4v-1l.2-1.5.1-1 .1-2.2V42h.1v-3.5l.3.1 1.4.1h1.8v1.8l-.1.3v.3l-.1.2v1.1l-.1 1.3-.4 2.4v.2h-.2a3 3 0 0 0-2.4 1.3v.4q-.3.8-.1 1.4 0 .7.5 1.3a2 2 0 0 0 1.6.8l.6-.1h.5l.6-.3.3-.3h.1l.3-.6.1-.5h.4V48l.2-.9.2-1v-4h.1v-3Zm17.4-5.4v-.9h-.3q-.4-.2-.9-.2h-.2l-.2.1h-.2v.6l-.1.2-.2.5v.4l-.2.7-.1.4-.1.2v.4l-.1.1v.4l-.5 2-.7 2.2-.1.3h-.2a3 3 0 0 0-2.6 1v.2q-.4.8-.3 1.4v.1q0 .6.3 1.3.4.6 1.2 1h1.1l.1.1h.1l.7-.2.3-.3h.2q.3-.1.3-.5l.2-.4h.4l.1-1 .2-.7q0-.4.3-.8l.3-1 .5-2.9v-.4l.2-.6.3-1.2v-.5l.1-.4v-.9l.1-.1zm6.6 10.2v-2.8l-.1-.2v-.8l-.3-.4v-.4h-1.2l-.2.1-.2.1-.2.3v.2h.1v2l-.1.3v.3l-.1.2v2.3l-.1.5-.2 1.8-.1.8h-.2a3 3 0 0 0-2.4 1.4v1.9q.1.5.5 1.1a3 3 0 0 0 1.6.8l.7-.1h.5l.6-.4.3-.3q.4-.2.3-.6l.2-.4h.3v-1.8l.1-.9.2-1v-3l-.1-.4z" class="cls-1"/><circle cx="119.8" cy="44" r="1" class="cls-1"/><path d="m1638.8 49.8-.2-.7-.2-.8-.3-1-.7-1.8q0-.4-.3-.7l-.2-.3-.1-.6-.4-1.1-.2-.4-.1-.4q0-.2-.3-.5l-.1-.2v-.2l-.2-.3h.1l-.6-1.4q0-.3-.4-.5-.1-.3-.2-.2c-.1-.2-.9 0-1.2 0h-.5l-.6.1-1 .2-1.5.4-1 .4-.5.2-.9.3-1 .2-.7.1-.9.2-1.8.5.3 1v.1l.2.7v.1l.3 1.3.8-.2.1.4v.2l.1.2v.2h.1v.3l.2.2.2.5.2.6.1.4.4 1.6h-.1q-.9.3-1.3 1l-.4 1 .1.4q.1.8.5 1.2v.1q.4.5 1 .9a2 2 0 0 0 1.4.1l.7-.3.3-.1h.1l.5-.6.1-.4h.1q.2-.3 0-.6V51h.3l-.3-1-.2-.4-.1-.6-.2-.8-1-2v-.4q-.3-.1-.2-.4l-.3-1-.2-.3V44l-.2-.3.7-.2 3.6-1.1.5-.2.4-.1h.8l.6-.3h.3l.3-.2h.1l.1.3.2.4.3 1v.2l.1.2v.3l.2.3.3.7.2.7.1.5.6 2.1v.2q-.8.4-1.4 1l-.3 1.1v.3q.2.8.6 1.3.2.6.9 1 .7.2 1.4 0 .4 0 .7-.3h.4v-.1l.6-.6V52l.1-.1q.2-.3.1-.6v-.4l.3-.1zm13-15.6v-.7l-.2-.4v-.4h-1.3l-.2.2h-.2v2.3l-.2.3v1.8l-.1.8-.1.4-.3 2.3v.2h-.2a3 3 0 0 0-2.3 1.3v.3q-.3.7 0 1.3-.1.7.4 1.2a2 2 0 0 0 1.5.8l.5-.1h.5l.7-.3.2-.3q.3-.2.4-.5l.1-.5h.3v-.9l.2-1.5.2-1v-3.2l.1-.6v-2.6zm-333.4 20.1v-.6q0-.5-.4-.9l-2.2-7.4-1.4-4.9-7.3 2.7v.3l.8 2.8.5 2.1.7 3 .3 1 .3 1.5.4 1.3.2.7.4 1.4h-.4l-1 .1a3 3 0 0 0-2.1 2.3v.3q0 .7.3 1.5.2.7.9 1.2t1.6.6l1-.2.4-.2h.1l.7-.5.3-.3.1-.3.3-.5v-2l-1.8-8.5-.3-1.7-.7-3.2 3.1-1 2.1 7.1a3 3 0 0 0-1.6 1.8v.3q0 .6.3 1.3l.7 1a2 2 0 0 0 2 .2h.5v-.1l.6-.5.2-.2.2-.2.2-.5zm25.6-26.7-.2-2.2-2.7.5-2.5.5h-.1q-.3 0-.5.3v.3l.4 4.4.3 1.8v1.3l.3 1.8v.7l.1.9.1.8v.4l.1.3-.2-.1a3 3 0 0 0-2.5.7q-.4.4-.6 1v1.7l.7 1.1a3 3 0 0 0 1.7.7h.5l.5-.1.7-.4.3-.2.2-.2.2-.5.2-.5v-1.2l-.1-4.3v-1.3l-.3-3v-2.3l3.6-.5zm-2.9-2.5q1.1 0 1.2-1.2c.1-1.2-.5-1.2-1.2-1.2s-1.2.6-1.2 1.2.5 1.2 1.2 1.2m-8.4 11.9-2.6.5-1.4.3h-.1l-.4.2v.3l.3 3.3.2 1.4v1l.2 1.3v.5l.1.7.1.6v.5l-.7-.1a2 2 0 0 0-1.7 1.3v1.3q.1.6.5 1t1 .5h1.1v-.1q.4 0 .6-.3l.2-.2.1-.1.2-.4.2-.4v-.8l-.1-2.7v-2l-.2-1.7v-2l2.7-.3zm-2.3-.8q1 0 1.2-1.2c.2-1.2-.6-1.2-1.2-1.2s-1.3.6-1.3 1.2.6 1.2 1.3 1.2m-4.9-7.5-2.6.5-1.5.3q-.3 0-.4.2v.3l.3 3.3.1 1.4.1 1 .2 1.3v1.2l.2.6v.5h-.8a2 2 0 0 0-1.7 1.3v1.3a2 2 0 0 0 1.6 1.4h1.1l.5-.3.2-.2.2-.2.2-.3.1-.4V41l-.3-8.2 2.7-.4zm-2.4-.3q1.1 0 1.2-1.2c.1-1.2-.5-1.2-1.2-1.2s-1.2.5-1.2 1.2.5 1.2 1.2 1.2m271.2 20.3-.1-.2c-.5-1-1-2.3-1.8-3l-.1-.3q0-.3-.2-.5l-.5-1.2-.4-.7-.5-1-.3-.6-.2-.4-.2-.6-.7-.5-.3-.3-.3-1v-.6l-.6-.7-.2-.2-.8-1.1-.6-1.2-.7-1.2v-.1l-1.7-2.7v-.3l-.2-.5-.8-1-.6-.7-.3-.6-.3-.8-.2-.2q-.4-.5-.6-1.2 0-.3-.6-.8l-.4-.6-.1-.1h-.2q-.5 0-1 .3-.7-.4-1.8.2l-12 7.2q-.3 0-.3.2l-.2-.4q-.4-.5-.6-.4t-.3-.3l-.2-.9v-.5q0-.3-.5-.6l-.2-.2-.7-1-.5-.9-.6-1.1-1.4-2.4v-.2l-.1-.5-.8-.8-.5-.6-.3-.6-.3-.6-.1-.3q-.4-.4-.5-.9l-.5-.8-.4-.4V17h-.3q-1.4.4-1.8 1.1-.1.3 0 .4l.8 1.4.6.9.2.5.1.5.3.4.2.6v.1l.1.4.4.3.3.3.2.4.2.3.4.7.7 1.4v1q.1.4.5.6.3.1.5.5.1.6.5.7l.3.1.1.1c.4 0 1 1.8 1.1 2.4l.3.8.1.2-2 1.1-2 1.2-3 1.7-.9.4-1 .4-1.5 1-1 .7-2.5 1-1 .3v-.4l-.2-1.1q0-.5-.2-.9l-.1-.6v-.2h-.2a1 1 0 0 0-1 0q-.3.3-.3.5l.3 1.9v1.2q-2.6.4-4.5-.3-1-.3-1.9-1l-.6-.3q-.5-.4-1.2-.6a7 7 0 0 1-2.6-1.4l-1.1-.9.8-1 1-1.2 1.9-2.5.2-.2.4-.3.6-1 .4-.9.5-.5.5-.6.2-.3.8-.9.6-.9.3-.6h.1v-.2q-.6-1-1.4-1.2l-.4.2-1.2 1.5-.6 1-.5.4-.5.4-.3.4-.5.5-.1.1-.3.2-.2.5-.2.4-.4.5-.3.3-.5.7-1.2 1.4-.5.2-.5.3q-.3.2-.4.6 0 .5-.5.9l-.3.3h-.1q-.8-.4-3-2.2t-5.5-4L1519 27l-3.1-1.8-3.7-1.8-.5-.2c-2.5-1-3.7-1.3-5.5-1.8l-2.3-.6-2.4-.6q-.6 0-1.1-.3a29 29 0 0 0-7.6-.9h-7.5l.1-.7V17l-.1-.5-.1-.3-.3-.7q-.6-.7-1.4-1a5 5 0 0 0-3.5.2q-2.7 1.2-3.6 3.7l-.3 1.4a51 51 0 0 0-17.2 5.7q-.6.3-.5.7l-.1.6-.1.3q-.6.4-.5.9 0 .3 1 1.6l.6 1 .2.7.2.6.2.5.3.6v.2l.2.4.3.3.3.4.3.6.2.3.4.8.8 1.7.1.5v.6q.2.4.5.6.4.3.6.8t.5.7l.3.2.1.1c.3.2 1 2 1.3 2.7l.4 1 .4.6.4.6.2.4q0 .4.4.8l.4.5.5.6.6 1.3.2.3c.2.6 1.1 2.4 1.7 3.2q.3.2.5.1h.2q.1.3.6.5.3 0 .5-.3l.3-.1 1-.5 1.1-.4 1-.3 1.6-.5q.6 0 1.1-.3l1.5-.3 1.3-.3 1.1-.3h3.1l.2.7.2 1.1q.3 1.6 0 3.2-.2 1.4-.7 2.2l-.3.3h-.7l-.3-.3-.2-.3-.8-1.7.7-.4.9-.5h.1v-.1q.5-.8.5-1.5s0-.6-.2-.7h-.2v-.1l-.4-.2h-.7l-1.4.7q-1.2.5-1.5 1.4v.7l.2.8.8 1.6.6 1 .5 1 .3.5.4.4.6.4.4.1h.7l.3-.2.2-.1q.8-.7 1.3-2.4t.7-3.6a17 17 0 0 0-.2-4h.5l1.5.2a33 33 0 0 1 5.2 1l1.6.5 1.5.6 1.1.4q1.4.6 1.7.5c.3 0 .5 0 1.5.6q1.4.9 2.8 2.2l1 1 1.6 1 1.8 1.2 6 4.5a49 49 0 0 0 18.4 8.8q4 .9 8.3.9 8 0 16.1-3.1l1.7-.6 3.4-1.3 1.8-1 1.5-.8 2.5-1.6 4.4-2.8 3.3-1.9 4.2-2.4c1.7-1 3.2-2 5.3-3l3.7-2.3 3-1.8v-.1q.7-1.2.3-1.6l.5-.4-.1-.4Zm-2.2.5-.3.1-2.8 1.7q-.7-1.5-1.6-2.5l-.1-.4-.2-.5-.4-.7.2-.1 2.9-1.8.1.2.7 1.3.2.3c.1.4.7 1.5 1.3 2.4m-56.7 21q-3.6-1-6.9-2.7l-2.2-1c-2.3-1-5-2-8.5-4.8l-2.7-2-.6-.3-1.7-1.1-3.6-2.6-3-2.3c-2-1.5-4.3-2.7-5.2-3.2h-.2l-.7-.3v-.3l.3-.5.5-.4.9-.8.3-1.5h.3l2 .7q.1-.2 1.9.7 2 1.2 4 3l.7.7 3.5 2.4 5.8 4.2q8.1 6 15.3 7.6v.3l.4 1.3.1.2h.1l.7.1.2.3a4 4 0 0 0 2 1.7q1.6.5 2.7.2h1.3q.8 0 1.7-.3l1.2-.5.4-.2.6-.3.8-.5.3-.2.8-.7q.4-.6.2-1V66q3.8-.7 7.5-2.2l1.6-.5 2.7-1 5.3-3 4.2-2.8 3.3-2q1.5-.6 3-1.6l1.3-.8a61 61 0 0 1 7-4l.7 1.4v.3c.3.4.8 1.6 1.4 2.4l-2.9 1.8-4.4 2.6-2.8 1.6-2.3 1.2-5.2 3-1 .5-1.2.6-2.3 1.4a40 40 0 0 1-10 4.3 36 36 0 0 1-19.6 1m-41.8-22a12 12 0 0 0-3.2-.2h-2.6l-.2-.5-.2-1-.2-1.2.9-2v-.1h1l1.1.1h.2q2.4.2 4.7.7h.3l-.2.2-.6.7-.4.8-.4 1c-.2.3-.2 1-.2 1.1zm-12-30.2h.2v1.1l-1.5.2q.2-.4.5-.6zm-1 3.4-.2.3-.2.2-.4.4v-.8zm50 18.9.2-.4q.2-.4.7-.6l1.2.8c2.2 1.6 4.6 3.2 7.3 3.9q2.6.6 5.4.1l.1.5v.9l.1.8q.2.7.1 1.6l-.1.5-.2.5q-3.5.5-6-.4-1.7-.5-3-1.4l-.6-.3-1.6-.8a14 14 0 0 1-4-2.3l-1.5-1v-.1l.5-.4.4-.5.3-.3q.3 0 .4-.4.4-.4.3-.7m15.7 15.4.1.5q-4.7.8-8.4-.4-2.2-.6-4.2-1.8l-.5-.3-1.8-.8c-1.5-.7-3.2-1.4-5.4-3.2l-2-1.5V48h.1l1.4-1.6h.2c.4-.3.6-1.1.7-1.4l.2-.1h.1l1.8 1.2c3 2.2 6.2 4.3 10 5.2a18 18 0 0 0 7.6.3q.3.1 0 2.9zm37.3-20.5.1.5q.1.4.5.6l.4.4h-.2l-2.5 1.6-.4-.7-.7-1.2-1.3-2.2 2.8-1.8.4.6.8 1.6zM1472 30.7l1.2-.3a13 13 0 0 0-.9 5.2l-1.5.5-.1-.3-.5-1.4-1-2.8zm7.3 10.3.2-.2.3-.6.1-.2v-.6q0-.4-.2-.7h-.3l-.4-.3q-.3-.3-.3-1.1v-.8l2.6-.5h.3l1 2.8.5 1.8v.3l-6 .9-.2-.3-.4-.6-.3-.3-.2-.3v-.1l-.4-.6-.3-.6-.2-.8V38l-.1-.5 1.4-.3.2 1.3.8 1.5q.5.6 1.1 1 .5.3.8.1Zm2.8-11.7-.2-.6h2.8-.2zm3.5-.7h4.1l1.5.2a59 59 0 0 1 12.2 2.4l1.8.6-.3.3q-.3 0-.4.3-.3.4-.1.8l-.1.7q-.3.5-.2.8v.4h.1l-.2.8-3.7-1-1.8-.5-1-.2q-1.3-.5-2.8-.6l-2.7-.1h-1.9v-.7a5 5 0 0 0-1.4-3 4 4 0 0 0-3.1-1.2m-.6 2.8q1.6-.3 2.5.9.3.5.4 1.2h-1.6l-2 .1h-.7l-.1-.3-.5-1.3zm33.2 8-.8.4-.9.7q-.5.5-.7 1l-.2.7a43 43 0 0 0-8.9-5.3V36l.4-1 .4-1 .5-1.1c1.6.7 2.1.8 2.5.9.5 0 .9.1 2.7 1q3 1.8 5.7 4.2zm-45.6-1.3.3.9v.3l.2.5.3.8 1 2-1.1.3-.2-.5-.1-.5-.5-.6-.2-.4-.1-1.1v-.6l-.4-.7zm7.3-4.2.7-.6.2.5h-.5zm101 13.5-7.6 4.4-2.4 1.3-5.1 3-1 .4-1.1.6-2.1 1.3a37 37 0 0 1-11.3 4.5q-.1-.4-.4-.6.1-1.7-.4-2.9v-.3l.1-.5v-.3a36 36 0 0 0 6.1-2q1.2-.2 2.2-.8l4.6-2.7 4.2-2.7 3.3-1.9 3-1.6 1.2-.8a57 57 0 0 1 7-4l1 2q0 .8.3.9l.4.6.4.5v.1zm-14.9-.2.3-.1q.3 0 .5-.3l.8-.8.5-.8.2-.3.2-.4.3-.6.1-.4.2-.6q0-.7-.2-.9l-.1-.4v-1.1h.2l.2-.2 1.3-.8a58 58 0 0 1 7-4l.2.4q.5.7.8 1.7l.1.5.1.6q.1.3.5.6l.3.4-2.8 1.7-7.2 4.1-2.3 1.3-5.1 3-1 .4-1 .5-2 1.2a27 27 0 0 1-8.7 3.7v-1.2q-.2-.6-.5-.7l-.1-.2.1-1 .2-.6-.3-.7-.1-.2 3.4-1.2 1.1-.3q1-.2 1.7-.6l4-2.4 1-.7v.1q.2.8.7 1.1l.8.8.3.1.4-.3h.2a3 3 0 0 0 2 .5q1.2-.2 1.7-1Zm22.1-4.1-2.5 1.5-.2-.5-.2-.4-.3-.5q-.3-.6-.6-.5l-.3-.3-.3-1v-.7l-.3-.3 2.7-1.7q.6 1 1 2.2l.4.8.4.6.4.6zm-7.4-12.6-2.4 1.4-.7-.8-.4-.7-.3-.7-.2-.3q-.5-.5-.6-1.1l-.2-.4 2.8-1.8.5.6.6 1 .3.6.2.6q0 .3.3.5l.3.7v.3zm-4.8 2.5v.3l-2.5 1.6-5.4 3.3h-.1q-.5-1.4-1.5-2.3v-.3l-.1-.5-.5-1-.1-.1 1.1-.7a58 58 0 0 1 7-4l.4.4.6 1 .3.6.5 1.1zm-12.9 4.5q-1.3.7-2.3 2.2l-.2.1-.4.4q-.2 1-.2 2.2v.3l-.3.1-3 1.6-1.8 1a21 21 0 0 1-6.6 2.9l-.1-.8-.5-3.6v-.2l2.2-.8.9-.3q.6 0 1.2-.4l3.4-2 4-2.6 3.3-2 .7-.3h.1l.5.5q.4.6.5 1.1v.2q-.8 0-1.4.4m-16 22.4-2-.2q-2 .1-3.6.8h-.9q-1 .7-1.8 1.6l-.7.4-.8.5h-.1l-.4-.1a27 27 0 0 1-5.4-2.2l-.4-.2-2-1c-2-.7-4-1.7-6.9-3.9-1.2-1-1.7-1.3-2.4-1.7l-.6-.4-1.7-1q-1.1-.7-3.3-2.5l-3.7-2.8c-2.6-2-5.6-3.4-6.6-3.8l-.2-.1.2-.3q0-.5.4-1l.3-.6.2-.5.2-.4.3-.5.2-.4c1.4.6 1.8.7 2.2.7l2.3 1q2.8 1.6 5.1 3.9l.5.4 3.7 2.5 5.3 4c3.3 2.3 7.7 5.2 12.8 6.4q4.5 1 8.7.5l1-.2zm-18.5-21.3-.6.5-.4.7-.4.5-.3.4-.4.4-.8-1q-1-.8-2.3-1.1l-.2-.2-4.8-3.6a52 52 0 0 0-8.9-5.1l.2-.3.2-1.1v-.8l.4-.5.4-.7v-.2l.1-.3c1.8.8 2.4 1 2.9 1 .6.2 1 .2 3 1.4q4 2.2 7.4 5.3l2.6 1.9q1 .5 1.4 1l1.4 1zm-20.6-13-.3.4-.3.5-.2.5-.3.5-.3.4V29l-2.3-.6-2-.6-3.3-.8q-1.5-.4-3.2-.6l-3.3-.2h-6.3l-2.2.1-2.8.2-.3-.8 1-.9 2.3-2.4.6-1 3.5-.1h1.7l1.8.2a66 66 0 0 1 13.8 2.7l2.5 1zm-30.2 6.8-.8 1.3-.2.6v.1l-1.7.4v-.7q.5-2 1.4-3.4l.4-.6.4-.7 1.3-.3h.4l.6 1.5q-1 .7-1.8 1.8m-.6-7.5-2 2-.3.5-6.5 1.8-.3-.6-.2-.7q0-.5-.2-.8l-.1-.3q-.3-.5-.4-1.2l-.3-.9 3-1 1.5-.4 3.6-.8 1.4-.3.2.5zm-13.2 8.7 2.3-1 .6-.2v.2l.4.9q.4.8.6 1.7v1.1q0 .4.4.7l-2.3 1.3-.2-.4-.6-1.4v-.1l-1.4-2.7zm3.2 6.6 1.9-.8.6-.2c.3.5.6 1.8.8 2.6l.3 1q0 .4.3.7l.2.3q-1.2.4-2 1l-.1-.2-.2-.4q0-.3-.2-.5-.2-.5-.5-.6l-.3-.4-.2-1-.1-.6q0-.3-.5-.7zm3.2 6.5 1.5-.6.4-.1.3.6q.4.6.5 1.3l.1.4.9 2.2-1.8.9q-.6-1.3-1.3-2.3l-.1-.4-.1-.5-.6-1.2zm3.7-1.3q.8-.4 1.8-.6 1.4 1.8 2.6 2.6l.3.1 2 1-3.4.8-1.8.6q-.4-1.4-1-2.4v-.4l-.1-.5zm5.3-1.5 1.5-.4 1.4-.2 1.6-.2.4 1.1.2.6-1.1.7q-1 .3-1.6 0h-.3q-.6 0-1.4-.6l-1.2-.9zm6-8h2.6v.5q0 1.4-.5 2.7l-.6 1.4v.3h-1v-.2l-1.5-4.7zm5.7 4.9h-2l.2-.2a16 16 0 0 0 1-4.6h.5a53 53 0 0 1 10.6 2.2l1.3.4v.3l-.1.6-.2.3-.3.7v.7l-.1.6q0 .4-.4 1l-.7-.3-.4-.2-1-.2h-.1l-.8-.2-1.5-.4-1-.2-2.3-.5zm-5.5 7.3h-.7q.3 0 .6-.4zm-19.7-17.8q-1.8.7-3 1.4l-.6-.6-.3-.8-.2-.7-.2-.3-.5-1.2q-.1-.5-.5-.9l.2-.1 2.9-1.2.6-.3.5 1.1.5 1.1.1.7.1.6.2.5zM307.9 34.9l.2-.7v-.1h-.1l-.3-.1c-.8-.4-1.8-1-2.6-1s-.1 0-.2-.1l-.3-.3-.9-.4-.6-.2-.4-.1-.3-.2-.5-.3-.3-.1-.4-.2h-.7q0 .2-.2 0-.4 0-.7-.4l-.3-.4h-.9l-1-.3-.9-.3-1-.4-2.3-.8-.2-.1-.3-.3h-.9l-.7-.2-.5-.2-.6-.3h-.2l-.9-.4-.8-.2h-.5l-.1-.2-.2.2-.4.6q-.5 0-1 .9v.2c-.3.6-1 2.2-1.8 3.3a7 7 0 0 1-2.3 2.2s0 0 0-.2l-.1-.3-.3-.4-1-1.7-.4-.9-.5-1q-.3-.3-.4-.1-.4 0-.1.5l.7 1.8.1.5.1.3.3.8v.3l.2.3.2.5-.5.2q-1.2.3-3 .2h-.5l-.7-.2h-.3l-2.7-.1a35 35 0 0 1-5.8-1.7l.4-1 .4-1q0-.5.3-.9l.3-1q.3-.9.1-1.1l.2-1 .7-2-1.3-1v-.2l-.6-.5-1-.6-.6-.3-2-1.3-5.3-3.7-1.7 5.1-1 2.9-.4.5-.3.6-.6 2.2-1.8-.6q-1.6-.3-4.3-1.3c-1.3-.6-2-.7-3-1l-1.6-.3h-.1l-3-.7-6.1-1.6a56 56 0 0 0-10.3-1.5c-2.9 0-3.9.1-6.3.5l-1.3.2c-2 .3-4.7.9-7.2 2a33 33 0 0 0-9.6 6.4l-.2-.4-.3-.3-.3-.3-.1-.1-.4-.3h-.2l-.6-.2q-.8 0-1.5.2-1.5 1-2.4 2.6-1.2 2.5-.5 4.5l.6 1-.8 1-.2.3q-1.2 1.8-2.4 4.2a52 52 0 0 0-3.5 8.3q-.2.5 0 .8.1-.1.3.4v.2q0 .5.3.8l2.2.6.4.3.4.2.4.2.5.2.4.3h.7l.4.1.3.1.7.3q.7.1 1.2.5l.3.3.3.3h.7l.6.2q.4.2.7.1h.4c.3-.2 1.6.6 2 .8l.7.4.6.1h.5l.3.2.6.3h1.1l1 .5h.3c.4.3 1.8.9 2.5 1h.1q.3 0 .3-.3l.2-.3q.2.1.6-.2l.2-.5.1-.4a47 47 0 0 1 4.7-9l.7-.7.4-.3.4-.3.4.2.7.5a11 11 0 0 1 2.3 3.3v.3h-.7l-1.1-.5h-.1l.1-.5.3-.8q-.2-.7-.6-1-.1-.4-.5-.4h-.2l-.3.1-.3.4-.5 1.1c-.1.4-.4 1.1-.1 1.7l.2.2.2.2.6.3 1.3.4.9.2.4.1.4.1.3.1h.9l.4-.1.2-.3h-.3.3v-.4q0-.6-.7-1.5a27 27 0 0 0-3.3-4.5l.6-.4h.1q.8-.6 2-.9l1-.2v.1l.2 1 .2.6.1.4h.3q.2.6.7 1 .5.3.9 0h.4l.5-.2.4-.4.1-.1.2-.1.4-.3.1-.2.4-.3.1-.6.1-.4.3-.4.3-.3h1.2v.3l-.2 1v.8l.1.3h.4v.1q.3.8.9 1.2t1.2.3h.1l.4.2h.8l.7-.2.2-.1.3-.1.6-.2h.2l.5-.3q.4-.4.3-.7l.2-.2.4-.4h.1l1.2.2a72 72 0 0 1 10.5 3.4l4.8 1.7 7.9 2.6q-.2.3-.1.7l.1.9v.2h.2l.4.1.1.2q.5.8 1.4 1.5.9.5 1.8.5h.4l.5.3h2.3l.4-.2h.5l.8-.2h.3l.7-.3q.4-.4.4-.7l.1-.2.2-.1q6.8.9 12.8 0a32 32 0 0 0 11.4-3.8 32 32 0 0 0 9.3-8.5q1.4-1.7 2.9-4.6l1.7-4 .4-.9q0-1.3-.3-1.6Zm-6 4-.4-.4 1.8-3.9 1 .5.2.1 1.8.9-.1.3-.2.5-1.6 3.4a4 4 0 0 0-2-1l-.1-.1zm-32.7 11.5-3.6-.8q-6.4-1.7-11.5-3.7l-2.3-1-4.2-1.5-4.1-1.3-2.8-.8-1.4-.3h-.1l-2-.5.1-.4.3-.8.3-.6.4-1.4.8.2a78 78 0 0 1 11.2 3.7l3.5 1.2-.1.3V44h.2l.4.1.1.2q.2.8 1 1.4.7.6 1.6.6l.2.1.5.2 1 .1h.9l.3-.1h.4l.6-.2h.3l.6-.2.1-.2.2.1q.5.3.8 0l.2-.3v-.2l5.2 1.3 1.1.3.6.2.1.2q.2.1-.6 2l-.2.4zm-17 .6-2.2-1-1.7-.7-2.5-.8-4-1.3-2.8-.8-1.3-.2h-.1l-1.9-.5.2-.5.9-2.7.8.2a77 77 0 0 1 10.8 3.5 237 237 0 0 0 18.7 6l1.3.3.8.2-.2.9-1.6-.6q-1.4-.3-3.2-.2h-.3q-.2-.2-.5-.1-1 .4-1.7 1l-.5.1-.2.1q-4.7-1.3-8.7-2.9m-37.9-3.8-.1.1v-.2zm-.7-4 1.3-.9a14 14 0 0 1 5.6-1.8l.9-.1h3.7l-.1.8v.4l-.7-.2a3 3 0 0 0-2 .7l-.5.1-.5 1.4h-.6l-.2.1q-1.3.1-2.5.6l-2 1.4-.4.3-.3-.2-.5-.4-.8-.7-.2-1zm7.4-5-1.3.1q-2 .3-3.7 1-1.5.6-3 1.9a13 13 0 0 0-1.4-3.3l.4-.2q2.5-1.5 4.5-2c1.6-.4 2-.5 3.3-.6l1-.1h4.6v.9l-.1 1.3-.1.7h-1c-1.5 0-2.2 0-3.2.2M206 40l-1-.6 1-1.4q1-1.2 2.2-1l.7.4zm-2 2.3V42h.3zm.2 4.8 1.4.4q.6 0 1.1-.3.5-.1.5-.4v-1h-.2l-.1-.1-.1-.2-.6-.3-.2.2-.4.1q-.4 0-.7-.4l-.3-.4 1.3-2 .1-.1 2 1q.7.2 1.3.6v.1a35 35 0 0 0-3.1 4.3h-1.5l-.5-.2-.5-.1-.5-.3-.2-.1-.2-.2.6-1.1zm6.7-4.4-1-.6-2.1-1.2.6-.6L210 39l.2.2 1 2 .2.8.1.4zm0 5-.2.1-1.1.6-1 .3 1.5-2.5 1-1 1 .5q0 .6-.3 1-.5.8-.9 1m-7.1-10.5-.9 1.3-.3-.2.4-.4zm-.6 14.4h-.3l-.6-.6-.3-.3q-.2-.2-.6-.2 0-.4.3-.8l.5.3.2.1.4.2.6.3q.9.4 1.5.4l-.4 1-.3-.2-.4-.2-.4-.1zM225.5 31l-.1.5-.2.7v.2h-.8c-2-.1-2.8 0-4.3.3l-1.3.2a20 20 0 0 0-5 1.3 19 19 0 0 0-3.4 2l-.3-.3q-1-1-2.4-1h-.1l-1.6.4-.3.1q1.7-1.5 3.5-2.5a25 25 0 0 1 10-3.3l1-.1 3.6-.1h1.8zm-23.6 10-.2 2a5 5 0 0 0 .4 2l-.7 1.2-.3-.4q-.7-1.2-1-2.7v-.5l-.1-.7.9-1.4zm-2.4 13.8 1-2.4 1.7 1 .7.4q.3.3.6.2h.1l-.8 2.1-.3-.1-.4-.2h-.9l-.7-.5-.3-.3zm5 1.9 1-2h.4l1 .5.2.2 1.5.7-.7 2.2-1.9-.6-.2-.2-.3-.2-.9-.4zm1.7-3.7.8-1.7a10 10 0 0 0 4.7-1.2 25 25 0 0 0-2.4 4.4l-1.7-.7-.2-.2-.3-.2zm13-25.7-1.3.2q-3 .4-6 1.6-2.9 1.3-6 3.7-2.9 2.3-5 4.8l-.5-.2.2-1.1.4-2.9-.2-1q2.6-2.4 5.6-4.1a30 30 0 0 1 12.1-4l1-.2 4.5-.2h3.4l2.9.2q3.7.6 7 1.7l-1.2-.1h-.5l-1.8-.3-.9-.2h-.2l-2.4-.5-1.6-.2-2.5-.2h-.3l-.2 2.6h-1.3c-2.4 0-3.3 0-5.2.4m40.8-5.8v-.2zl-.2 1 .5-.7.5.2h.1q.7.3 1.6 1l1.1.7.7.2 1.4.8 1.1 1h.2l-1 2.5-.4 1.3-.3 1.2-.3.9-.2.7q-3-1-5.4-2-1.2-.3-2.2-.9l.1-.2.3-.5.2-.9.2-.9.6-1.7.9-2.5zm21.5 16q.3.2.3.6t.3.5l.1.2h.1l.2.6q-.5.3-1 .3-2 .5-4.3.4h-.8l-.8-.1-1.8-.1.2-.5V38h-.1q-1.1-.6-1.7-.3-.2 0-.3.2l-.2 1.8a41 41 0 0 1-6.3-1.6l.3-.7.7-2.2V35l5.2 1.3q.7.4 1.4.4 3.7.5 6.5 0l.4-.1 1.4-.3v.7q0 .4.2.5M276.2 51v.2h-.2l-1.2-.2h-2.4l.2-.4q0-.6-.3-.7t0-.1l.3-.6.3-.4v-.6l-.1-.2v-.2q2.6.3 4.8.2-.4.2-.6.6l-.3.6-.5.8zm7.7-7.3.2.3q.3.4.2.8l-.3.1-1.1.1-1.5.5q-2 .3-4.2.3h-1l-1-.2h-2v-.1l.2-2v-.2q.3 0 .3-.4v-.4q3.6.3 6.5-.2l2.7-.6.2.4.2.3v.3q0 .3.2.5 0 .3.3.5Zm6.3-2.2a16 16 0 0 1-3.8 2.5v-.5l-.3-.8-.2-.5-.2-.3v-.3l-.2-.5-.1-.2v-.2l.3-.2a20 20 0 0 0 5.3-5.3l.2.2 1.1.8.2.3.3.4.6.3h.3l-.8 1.1q-1 1.5-2.8 3.2Zm8.2-1.5a25 25 0 0 1-7.3 7.7q-1.7 1-3.6 1.7l-.2-.5v-.2l.3-.4q.4-.6.5-1.3-.2-.7-.7-1v-.2l1-.6a24 24 0 0 0 7.3-7.2l1.3 1.2.4.4q.3.3.6.2zm-70-12.6.1-.1.1.1zm26 9.7v-.2l.4.2a71 71 0 0 0 7.8 2.6l-.2.7-1-.6q-1.3-.4-2.9-.3s0 0-.1 0l-.6-.2-1.5 1-.5.1-.5.3-1.8-.9h-.2l.2-.4.4-1 .2-.2q.3-.5.2-1m-22-9.1q.8.3 1.4.1h.8l1.9.3 1.4.5h.2v.1h-.1v.1l-.2.3zm6.5 7.4.3-.9.3-.8.4-1 .1-.5.6.2 5.6 1.6-.6.4-.4.5-.6.6q-.4.6-.3 1v.1l-2-.5-1.4-.3h-.1zm-2.4-4 .8.2-.2 1q0 .4-.3.8l-.3 1.3-3.8-1-4.8-.9v-.4l.2-1.1v-.6l.2-1.2 1.3.2q3.4.6 6.4 1.6zm-9.2 6.5.2-1 .3-2 1 .2q3 .4 5.9 1.5l.5.1 1 .3-.7 2.4-.2.6-8-1.7zm39.6 6.5-3-.8v-.2l.9-3 6.1 1.6.1.4v.6l-.1.2-.1.6q0 .6-.3 1.1l-.2.2zm34.2-10-.1.5-1.2 2.6-.3-.2-.2-.2-.4-.3h-.9l-.6-.6-.3-.4-.2-.1.8-2 .4-1 1.7 1 .4.3.6.1.5.1zm-5-2-.2.4-1 2.2-.4-.3-1-.5-1.5-.8.7-1.7.3-.9.4.2 1.3.6.2.3.3.3.6.1zm-5-2-.2.3-.7 1.7-.8-.3-.4-.2-.6-.4h-.2l-.8-.5-.2-.2.8-2 .5.2.8.2.5.3.4.2.3.2.5.2h.1zm-2.9 3.1.4.3.5.4-.6 1a13 13 0 0 1-4 3.7q0-.2-.3-.5l-.2-.1-.4-.8-.4-.7q0-.4-.4-.8s0-.1.1-.1a16 16 0 0 0 3.5-3.6l.4.3.7.3.4.4zM264 35.9l-.7 2a82 82 0 0 1-8.2-3.2l.1-.6.5-1.2.5-1 .4.2 1.8.6 5.8 2zm-10.3-4.2-.5 1.3-.3.8-1.8-.5q-1.7-.4-4.2-1.4c-1.4-.5-2-.6-3-.8l-1.6-.4-1.8-.4v-.6l.2-1 .3-.9v-.2l-2.1-.8-.8-.3-.6-.3h.2l4.4 1a91 91 0 0 1 11.9 4zM227 40.8v-.4h1.2q2.5.5 5 1.4l.7.2.7.2-.3 1.1-1-.4q-1-.3-2.4 0s0 0-.1 0h-.5q-.7.5-1.2 1.2l-2.4-.4zM271.3 54l.1-.1.3-.4v-.4q5.4.6 10.1-.2c2.7-.4 6.2-1.2 9.4-3a30 30 0 0 0 9.1-9.1q.5.2.9.6l.1.2 1.7 1.2-1.2 1.8A31 31 0 0 1 294 52a28 28 0 0 1-8.6 3.6 33 33 0 0 1-9.7.8l-1.2-.1q-1.8 0-3.4-.3.5-1 .2-2m-71.8-4-.2-.1-1-.5-2-.9 1.7-3.2a9 9 0 0 0 2.1 3.3zm-2-10.4-.1 2.7v.1a40 40 0 0 0-2.8 5.3l-.5-.1q-.2 0-.5-.3l-.7-.4-.8-.4q-.2-.3-.6-.3 2-4.2 4.2-7.6l.3.2zm-4.6 10 .4.1.3.2-1 2.7h-.5q-.3 0-.5-.3l-.6-.3h-.2l-.8-.4-.8-.2v-.1l1.2-3 .8.4.9.3.4.2zm1.5 3.5 1-2.5.7.3 1.2.6.3.3.3.3q.3.3.6.2l-.8 2.2h-.2l-1-.5h-.1l-2-.8m3.5-17.3v.5l-.4-.3.4-.5zm-1.2-1.5v-.6l.5-1 .4.6zm465.7 20.1-1.1.4-1 .2h-.8l-.4.1h-.4l-.3.2-.2.2h-.5l-.6.2-1 .2-.3-.1-.4-.2q-.4 0-.5.3-.3.3-.4.2-.5 0-.6.3l-.2.2v.1c-.2.2-1.4.2-1.8.2h-.7l-.5-1.6-1.5-5q-.2-1-.6-1.9l-1.6-3.4-.5-1.3-1.2-2.5-.7-1.4.2-.2.6-.2q.4 0 .7-.4l.2-.2.2-.1v-.2q-.4-1.4-1-1.8h-.2l-1 .6-.6.4h-.2l-.8-1.6-1.3-2-1.7-2.8-2.3-3.7-1.7-2-.3-.2-.5-.6-.7-.8-2.9-2.9.7-.6.7-.6 1.6-1.7.5-.1.4-.8.3-.6.4-.3.4-.3.2-.2q.2-.4.6-.5.3-.2.5-.6l.2-.4.2-.1-.1-.2q-1-1.3-1.7-1.6h-.3l-.8 1-.5.7-.4.2-.4.3-.3.2q0 .3-.3.4-.3 0-.4.2l-.1.3-.1.3-.3.3-.2.2-.4.4q-.4.6-1 .9h-.3l-.4.2q-.3.2-.4.5 0 .4-.2.5l-.3.2-3.5-2.6q-1.5-1.4-3.4-2.6l-1.6-1q-1.5-1.2-3-2l-2.9-1.6-2.6-1.2-.8-.3-2-.7-2.4-1-2.5-.8-3-.7-4.9-1 .2-.4.1-.4V1.4a2 2 0 0 0-.8-1q-.7-.5-2.4-.4-2 .3-3.1 1.7l-.5.9-4.4-.5h-.6l-3.3-.3H578c-.5 0-1-.2-1 .3l-.2.3-.2.1q-.6 0-.6.4v3l-.1.4v.5l-.2.4.1.4.1.3v1.3l-.1 1.2-.2.4-.1.4v.5q.2.3.1.7l.1.6.1.3h.1c.1.3-.1 1.6-.2 2.1l-.1.7v.6l.1.4v1.4l.1.5v1.2c0 .4-.2 1.9 0 2.6q0 .2.3.2l.3.1q0 .3.3.5h1l2.6.2 3 .2 3.3.4 3.7.5 1.3.4h.3v.5l.1.8a4 4 0 0 1-.5 2q-.5.9-1.2 1.3l-.3.1h-.7l-.4-.2-.2-.2-.2-.4q-.3-.3-.4-1.1h.8l1.2-.2q.7-.4.9-1l-.1-.5-.2-.1-.4-.3-.6-.1H588q-1.5 0-2 .5l-.2.3v1l.4 1.2.4.8.3.6.1.2.3.4.3.4.7.4.6.3h1.3a4 4 0 0 0 2-1.3 6 6 0 0 0 1.3-2.3 8 8 0 0 0 .4-2.7l1.4.5 2 .5h.1l1.8.6 1.3.6 1.9.8 1.2.6 2.8 1.2h.2q.3 0 1.2.7l2 1.4.3.3 1.4 1.1 1.6 1.2.6.4.8.6 2 2 .5.4.8.9 2.3 3 .2.2.4.4 1.8 2.8.3.6q.6.6.9 1.4l1 1.8 1.2 2.5.3.9q0 .6.3 1.1l1.3 2.9.8 2.1.4 1 1.2 4.6.3 1.3q.6 1.8.9 3.8c0 .7.3 2 .5 3.1l.5 2.3v.1q.6.7 1 .7l.1.4h.6q1.2 0 2.3-.3h2.1l.4-.1h1.6q.4 0 .5-.3l.2-.1.8.1.4.1.6-.2h.2l.9-.3h.9l1-.1 2.4-.3h.4l.8-.2.6-.2h1.3q.4-.3.8-.1l.8-.2.5-.1h.1V74q.2-.6.1-.9.4-.4.3-1.5l-1-5.8-1-4.4-.3-1.4v-.2h.1q.5-.2.5-.4l.1-.1h.6l.4.2.6-.3h.1q.4-.3.7-.3l.8-.2q.5 0 .8-.2l2-.4.4.1.7-.4.5-.3h.9l.2-.1q.3-.2.6-.1.4 0 .8-.3l.3-.1h.2v-.3q0-1.4-.5-2zm-81-34.2.1-.3.1-.3.1-.9 1.8.2a7 7 0 0 0 3.1 3.5l-1.4-.2-1.8-.2-2-.1zm.7-5.5.2-.4v-.6h.7l-.1.6V17h-1l.1-.3.1-.4q0-.5-.2-.6v-.2zm.6-9.6.1-.9v-.6l2.2.2 3.9.4.7.1v1.8l-1.8 1-.2.1h-.1l-2.9-.2-2-.2V6l.1-.6zm-.5 6.7.2-1.1v-2l2.2.2h.8a8 8 0 0 0-1.9 3zm8.7 6.2-1.6-.3-3.8-.5v-.2l-.2-.5-.1-.3-.1-.2V16l-.1-.4v-1.5l1.2.1-.1.8.2 1.3.7 1c.3 0 .6.3.9 0l.4-.3h.2v-.5q.2-.3 0-.6l-.2-.2-.3-.2v-.7l.2-.4 2.2.2h.2l.3 2.1zm-2.5-6.8-1.3 1v.1l-1.3-.1.2-.4q.7-1 1.9-1.8l.4-.4.4-.3 1.3.1.1 1zm-1.9 8h.7l2.4.3 1.5.3.1 1-1 .3q-1.1 0-1.6-.4-.4-.1-1.3-.8zm3.6-6.5.3-.1v.2zm-12.7 7.3.1-.2v-.3l.2-1h.2l2 .1v1.4l-.1.3-.1 1.6h-2.2zm2.5-4.5v1.3h-2V16q0-.4-.2-.5v-.3l.2-.7.2-.4-.1-.6 2.2.1c0 .5-.1 1.4-.3 1.9Zm.5-6.9v.6l-.1 1.3-.2.3-.2.4v.6h-2v-.3l.1-1v-2zm.4-3.5-.1.4-.1.5v.4l-.1.3H578l-.1-.5v-.5l.1-.6v-1q.2-.4 0-.7h.1l2.6.1zM600 23.5l-.4.6q-.3.4-.3.8v.2l-.9-.3-2-.4-2.2-.5h-.4V22l.6-.7.5-.5 1.8.5 2.1.6h.2l1.9.6.1.1-.6.4zm-7.5-18.7h-.1l-.3.2v-.3zm36.7 18.5v-.2l.6-.2L631 24l.6.5 1.3 1.4 3.4 4.3.3.3.6.7 2.5 3.9.5.7 1.2 2 .3.7-.2.1-.3.2h-.2q-.2.3-.5.3l-1 .5h-.6l-.5-1-1.1-1.7-1.7-2.7a31 31 0 0 0-3.7-5.3l-.3-.3-.4-.4-.7-.8L629 26l-1.2-1.2.2-.2.4-.3.2-.1q.3 0 .4-.3.3-.3.2-.6m-21-.2.4-.6.2-.5.2-.3.1-.2.3-.4.1-.2c1.1.6 1.4.7 1.8.7l.2.1q.4 0 1.5.8 1.4.8 2.4 1.7l.4.3 1.8 1.4 2.7 2 1 .7 2.5 2.5.5.5 1 1.1 3 3.6.2.4.4.5 2.2 3.3 1.5 2.4.2.6-.5.2q0-.6-.2-1.1-.7-1.1-1.7-1.7v-.1q-.1-.2-.4-.3l-1.2-.2h-.8l-.6-.1-.1-.2q-.9-1.7-1.8-3l-1.3-1.4-.2-.3-.4-.4-.6-.6-1.2-1.2q-1-1.1-1.8-1.7l-.9-.7-2-1.5-.8-.5q-1-1-2.5-2l-3.4-2.2zm24 10.2.4.4.4.6 2.4 3.6.4.6 1.2 2 .3.6c-.2.2-1.2.5-1.6.5l-.6.2-.4.3-.2.2-.5-1-1-1.5-1.6-2.7q-.9-1.8-2-3.2l-1.4-1.6-.2-.3-.4-.4-.7-.7-1.3-1.3-1.3-1.3v-.1h.1l1-1h.1q.6-.3.7-.9h.1l1.3 1.3.6.5 1.2 1.3 3.1 3.9Zm-28-20.3 5.2 2.3-.3.2-.2.6v.5q-.4.3-.2.6v.3l-.1.4-.5-.2-2.4-.9-2.2-.9-2-.7-2.7-.6-1-.2V14a4 4 0 0 0-.6-2.3 3 3 0 0 0-1.2-1l1 .2 2.2.6 2.5.7h.2zm15.6 8.2-.3.1-.6.4-.6.4-.6.7v.4l-1-.6-1.6-1L613 20l-2.2-1.2v-.5l.3-.7.4-.7.3-.6 2 .8h.2l1.7 1 2.6 1.7.2.2zm-26.7-11.1h.4-1.1V10zM640.4 56l-.7-2.3a10 10 0 0 0-1.2-3l-.8-1.7-.4-1.1-1-2.2-.7-1.3h.2l.2-.1.4-.1q.4-.3.3-.6h1.2q.3-.1.4-.5l1.8 3.9.4 1.3 1.6 3.6.4.8q-.6 0-.9.3l-.6.6-.2.1v.2l.2.3v.1q-.6.7-.6 1.5zM594 12.3q1.4 0 1.8 1 .2.2.1.7l-3.3-.6-.1-1.1zm42.2 47.6-1.3-4.5-.5-1.5-.6-1.3-.8-1.6-.4-1-1-2.1-.7-1.4q.3 0 .3-.3 1-.2 1.8-.9h.5l.1-.1L635 48l.4 1q.1.8.4 1.3l1.5 3.3 1 2.5.3 1q.8 2.2 1.4 5.2l.3 1.4a43 43 0 0 1 1.2 5.8h-2.1l-.6.2-.3.1-.2-1-1.2-5-.5-2.2q0-.9-.4-1.7m4.4-2.9.1.2v.2zm8.7.8-.4.3-.8.1-.1-1.3q-.4-1.1-1.3-2.3v-.1q0-.2-.3-.5l-1.5-.6h-.1l-.4-1.4q-.2-1-.6-1.7l-.7-1.5-.8-1.8-.5-1.2-1-2.3-.8-1.4.5-.2 1.7-.8h.6V41l1.4 2.7.4 1.3.5 1.4 1.7 3.7 1 3 .4.9q.7 2.1 1 3.8m-22-36.3-.5.4-.3.5-.2.4-.3.2-.2.2-.7-.8q-.7-.6-1.9-1l-.7-.7-3.2-2.3-1.5-1-2.6-1.8-2.3-1.2v-.2l.2-.8V13l.3-.3q.2-.1.3-.4V12l.1-.1 2.1.8.3.1q.4 0 1.8 1 1.7 1 2.9 2l.4.2 2.2 1.8 3.3 2.4 1.1.9zm-15.6-10.4-.2.3-.4.6-.3.3-.2.3v.6l-.6-.2-.7-.3-1.8-.6-2.4-1-2.3-.7-5.3-1.2-5.4-1.1v-.5l2.2-1 1.2-1.1 2.5.4 2.4.7 2.7.8q1.4.3 2.6.8l2 .9 2.4 1q.8.2 1.7.7zm-18.2 4.3 2 .4v.2q-.2.9-.8 1.8l-.8 1-.8-.2v-.1l-.2-2.3-.1-1zm2.5 3.8a9 9 0 0 0 1.4-3l.4.2 2.4.7h.1l2.1.7 1.7.7 2.1.9q.6 0 1 .4v.5l-.2.2-.3.5v.9l-.3.5-.4-.1-.2-.1-.4-.2-1-.2-.6-.3-2-.8-2-.7-2.1-.5q-.9 0-1.7-.3m9.2 8 .2-.1.3-.3q.4 0 .8-.5.3-.5.3-1h.2q1.5.8 1.8.8h.2l1.4.7q1.2.7 2.1 1.6l.4.3 1.6 1.3 1.7 1.3.8.5.8.6 2.3 2.2.5.5 1 1 2.5 3.3.3.3.4.5.4.7-.1.1-.5.7-.1.2v.1l.2.2v.1q-.4.7-.3 1.4.2.9.7 1.1v.1l.2.4.6.5.5.3.2.2.3.1.4.3h.2l.5.2.7-.1.2.3 1.6 3 .3 1q0 .6.3 1.1l1.5 3.1.8 2.3.4 1a40 40 0 0 1 1.6 6.3 36 36 0 0 1 1.1 5.4l-1 .1h-.2l-1.8.3-.2-1-1.1-4.8-.4-2-.4-1.6-1.3-4.2-.4-1.4-.6-1.2-.7-1.5-.5-1-.8-1.9-2-3.7q-.2-.6-.6-1l-1.5-2.5q-.7-1.5-1.6-2.7l-1.1-1.3-.3-.3-.3-.3-.5-.6-1.1-1q-.9-1-1.6-1.5l-.8-.7h-.1l-2.4-1.8L611 31l-1.4-1-1.7-1-2-1.2-.8-.4zM635.9 72h1.1v.1l.5 2.4h-.1l-1 .1h-.3l-1.8.2v-.1l-.4-2.3q1 0 2-.4m3.3-.2h.7q.4-.1.5-.4h.9l.5.1h.2l.4 2.3h-2.2l-.6.2h-.4l-.3-2.2zm2.9-9.3-1-4-.2-.7.5.8.5.5.2.2.2.2.4.4.2.2.4.3q.6.2.7 0h.3l.4.2.2.2v.2l.4 1.4a45 45 0 0 1 1.3 6h-.3l-1.2.2h-.4l-.4-.2-.6.2-.2.1-.2-1-1-3.9zm2.2 8.4q.6 0 1-.2l1.7-.2.4 2.5h-.3q-.6.2-1.3.1h-.3l-.4-.2-.6.2-.2.1-.4-2.3zm2.7-9.6-.2-.6v-.1q1 0 1.8-.5h1.3l.3 1a49 49 0 0 1 1.3 6.6h-.3l-.8.2h-1.3l-.5.1h-.1l-.2-1.2-1-4.1zm2.5 8.6h1.1l.3-.1h1.1l.5 2.5-.5.2-.8.1h-1.9v-.2l-.4-2.2zM593.2 3.2l.3-.2.7-.3-.2.6zm-1.5 20.2h-.3zm568.7.1q0-.7-1.2-1.4l-2.4-1.3-3-1.3-1.4-.6-4.5-1.6-1.3-.4-1.5-.5-1.5-.3.1-.2q.2 0 .3-.4v-1l-.1-.6.2-.4.2-.6v-.3q0-.4.3-.7t.1-1v-.4l.1-.2h-.2c-1-.5-2.2-.8-2.6-.6l-.2.2-.2 1.4-.1.9-.2.4-.3.4v.4l-.3.5-.2.4.1.4.1.3v.3h-.4l-1.2-.3h-.5l-3.3-.4-2.2-.1h-2.2q-.7-.2-1.5-.1l-3.4.5-1.6.2-2.2.4a41 41 0 0 0-6.5 1.7v-.3l-.4-1.1q0-.5-.3-1.4l-.2-.9q0-.5-.3-1c-.3-1-.5-1.1-.7-1.3q-.2 0-.5-1l-.6-2.2h-1.9l-.7.1h-1.4c-.8 0-2.8.8-2.8.8l-5.7 1.4-.9.2-2.2.6-2 .6-1 .3 3.1 5.2 1.7 2.9.2.6.3.8 1.5 2-2 1.4-3.8 2.6-2.6 2-1.2 1-2.7 2.1-3.9 2.8-.5.4-6 4.2-1 .7-2.6 1.9-1.7 1.2-2 1.2-2 1.1-1 .7-1 .6a12 12 0 0 1-3.4 1.6l-.1-.6-.4-1-.1-.4-.1-.2q0-.2-.3-.5-.4-.6-.8-.8h-.8q-.2 0-.5.3-.4.5-.6 1.2l-.5 2.6h-2.1l-.7-.1-.8-.2q-.8-.1-1.4-.5-.7 0-1-.3l-1-.4q-.4-.3-.6 0 0 .3-.4.4-.5 0-.7.3l-.8 1.5-.4.8-.4.4-.5.8-.4.5v.1l-.3.3-.1.4-.1.3-.3.5-.2.2-.4.7q-.3.8-.9 1.3l-.3.3-.4.3-.3.6q0 .4-.3.7l-.3.7v.4q0 .4-1.6 2.3l-.4.5-.3.6q0 .3-.2.5l-.2.3-.5.6-.1.7-.1.5-.7 1-.2.2a9 9 0 0 0-1.6 2.7q0 .4.3.5l.7.4v.3l.2.5 1 .5.7.3q2 1.1 4.8 2.1l1.8.6 1 .3.5.1 3.2.7 2.3.3h1l.8.1h2.3l3-.1 1.4-.2 1.3-.2 2.9-.5h.3l2.8-.7 1-.3.5.5.8.7q1 1.1.7 2.4t-1.7 2.4l-.8.5-1 .4-.8.2h-.2l-1.1.1h-1l-.8-.3-1.8-1 2.6-.7 2.5-.9q1-1 1-1.6.1-.3-.1-.5t-.4-.1h-1.2l-1.4.3-3.8 1.1-.8.2a11 11 0 0 0-3.4 1l-.4.3v.4q0 .5.4.8.5.7 1.5 1.3l.7.5.7.4 1.6.8.8.2h.1l2.2.3 2.7-.3q.8 0 1.4-.3l.4-.2 1.4-.6q2.6-1.4 3.5-3.2t.4-3.6q-.5-1.4-1.8-2.7l.6-.3a32 32 0 0 0 5.7-2.7l6-3.5v.1l.7 1 .8.5.3.1.5-.4h.2a3 3 0 0 0 2 .1q1-.3 1.5-1l.3-.2.5-.2.4-.5.3-.4.5-.8.1-.3.3-.4.3-.6v-.3l.2-.6q0-.6-.2-.8-.2 0-.2-.3v-.6l.1-.7 1.3-1 .4-.3v.4q.3.6.7.8l.8.6h.3q.3 0 .4-.3h.2q.8.4 1.8.2 1-.4 1.3-1l.2-.2q.3 0 .5-.2l.6-.8q.3-.4.3-.7l.2-.3.1-.4.3-.6v-.3l.2-.6q0-.5-.3-.7l-.1-.3v-.8l1-.9 3.9-2.9.3-.2a79 79 0 0 1 12.9-6.8l.2.6.5.8.2.2h.4q.5.6 1.2 1 .7.1 1-.4h.5l.4-.4q.3 0 .4-.4l.1-.2.2-.2.3-.4v-.2l.3-.5v-1.1l1-.2 1.4-.2h1.3l.6-.1h.7a18 18 0 0 1 3.9.8q.8 0 1.4.4l.7.2.4.1 1.7.8 2.2.9q1.4.5 2.4 1.2h.1q1-.1 1.3-.5l.3.1q.3 0 .3-.3l.2-.3q.8-1 1.4-2.3l.2-.3.3-.3.6-.9.3-.6.3-.4.3-.4.3-.4.3-.3.2-.4.2-.7v-.3l.8-.7.3-.3q.2-.1.3-.7v-.2l.6-1 .6-1 .7-1 1.4-2.3.1-.1q.3 0 .4-.3l.4-1 .2-.7q0-.3.4-.6l.4-.5.1-.2.6-.9q.3-.2.4-.8l.2-.5.1-.2v-.1l-1-.7Zm-117 47.4-2.1-1 1-2 .1-.2.4-.4.6-1 .4.2 3.3 1.5v.6l-.5 1.1-.2.2-.8 1.8zm104-27.3-1.6-1-.3-.1 1-2.2.2-.3.3-.3q0-.4.3-.6l2.3 1.1v.2l-.7 1-.2.3q-.5.6-1.1 2zm-18.9-11.7v-.2l.1-.8.1-.4-.1-.6-.1-.2v-.2h.3q1.1-.3 2.2-.3l1.3-.1-.6.8-.2.7-.3.8v1.3h-.8l-1.6.2v-.4q0-.5-.3-.5Zm-31 24.4-2.8 2-2-2.6-.3-.4 1.2-1 4.2-2.8 1.6-1 .7-.5.8 1.2q-.7 0-1 .4-1.2.7-2 2.2v.1q-.4.1-.4.4-.2 1 0 2M1045 63l.1-.3q.2-.4.6-.6l.5-.4.2-.7h.1q1.2.7 2.8 1.3a11 11 0 0 1-1.5 2.8l-.1.7v.1l-1.8-.6-1.4-.7.2-.3.3-.5q.2-.4 0-.7Zm54.5-49.3.7-.3.2-.1q1-.5 2.3-.7t1.8-.6q.4 0 1-.4h.1q.5-.3 2.2-.6l1.8-.2h.7v.1l.3 1.3.4 1.4.6 1.4.6 1.3.3 1 .3.8-6.6 2.8-2.1 1-.5.2-.1-.4q0-.3-.3-.5l-.6-.8-1.2-2-.4-.7q-.3-.9-.9-1.7l-.5-.9-.7-1.3v-.2h.2v.1l.6 1.1zm43.6 4.5.6.1a19 19 0 0 1 3.9 1.1l.5.2q1.5.4 3.2 1.3l2 .9-.1.3-.7 1.4-.3.5-.3.4q0 .3-.3.5v.1l-.1.1-1.4-.6-3.2-1.2-.9-.2-1.2-.4-1.3-.4q-.6 0-1-.3v-2l.3-.8zm3.5 17.5-.1.5-1-.4-3.2-1.1-1.9-.6-2-.6h-.1l.2-.5.1-.3.4-.4.8-.8c.2-.4.1-1.2 0-1.3l.2-.3.8.2q1.2.2 2.1.6l1 .3.4.1 2.4 1 1.6.7-1.4 2.2zm-91.9 24-1 1.6-1.5-.4v-.1l.4-1.3.7-2.4 2.9.6zm10.4 1.4-.7-1.2.6-.4 1-.5q1.3-.4 2.4 0 .4.3.7.8zm-2.3 2.4.4-.1 1.3 2.3.6 1.1.2.5-2.8.4-3.8.2h-1.6l-.9-.1-.1-.3-.5-1-.1-.2v-.2l-.2-.4v-1.5l.2-.4h1.1l.6.1q-.2.6-.1 1.1 0 .8.5 1.5t1.2 1q.7.4 1 0l.7-.5h.2l-.1-.3.1-.3q.1-.3-.2-.7l-.3-.1-.5-.2q-.2-.3-.1-1l.2-.5 2-.2zm-1.3-1.8.7-.5.1.4h-.8Zm-10.7 3.6V65l.5-.7.4-.4V63q.6 0 1.1.3l-.3.9v.5l-.2.7v1.8l-1.7-.4.1-.3.2-.5q.1-.6-.1-.7m13.6-8.2-1.1.6-.2-.4.5-.1 1.2-.2zm61-29.8-1 .1-2.2.5-2.8.8v-.1l-1.2-3.4a46 46 0 0 1 6.8-1.6l.1.4.2.2v.7l.2.7v1.6Zm-41.7 16h.2zm1.6-.9q.4-.7 1.4-1.3.7-.4 1-.9l.4-.5v-.1l1.4-1.1 1.2-.8.2-.1.3.6zm15-6.4.1 1c0 .4.5.8.6.9l.2.1-1.6 1.3-1.1 1h-.1q-.3.4-1.5 1.2l-.6-.8-.5-.9-.7-1-.2-.4.4-.4 4.5-3.3.2-.2h.2q-.2.3-.1.9zm-12.8 12.3-.4-.4-.7-1-.4-.6-.8-1 1-.8q2-1.5 4-2.7l1.9-1.1.6-.5.7.9.5.7.9 1.3c-2.6 2-5.9 4.2-7.3 5.2m11.7-3.5q-.4-.8-1-1.3l.7-.6 4.3-3.2.3-.1q4.1-2.8 8.2-5 0 .3.2.4l.7.6.2.2h.1l.3-.3.2.1q.7.5 1.6.5t1.4-.6h.2l.5-.2.3-.3.4-.3.5-.6.1-.2.3-.3.3-.5.2-.2.2-.6v-.1h.2q.5-.1.6-.5v-.5l-.2-.2 4.5-1.2 1.5-.2.1.2h.1c.2.3.1 1.7.1 2.2v.7l.2.6-1 .1-1.7.4c-2.7.6-5.5 1.9-8.2 3l-1 .5-1.7.7-2 .8-2 1.3-.3.2q-1.2 1-3.1 2.2l-2.3 1.8q-.5.3-1.1 1h-.1q-.3.4-1.6 1.3l-.3-.3-.5-.8zm-21 12.9 4.4-2.7 1.4-1 2.1-1.4.9-.7 1.6 2.1.4.7h-.1l-1 .7-2.4 1.8-.5.4-2 1.4-2.5 1.5-4.3 2.6-1.2.6-2.2 1.2v-.1l-.1-2.4-.6-1.6.6-.2 2.8-1.4zm12-5.7-1.3-1.9 1-.8 4.1-2.7 2.6-1.7 1.7 2.4.4.6-2.8 2-.6.4-4.3 3-.2-.3zm37.7-28.7 2.8-.3 3.5-.2 1.2.1 3.3.4v.9l-.1.3-.2.7.1.6v.5l-.2 1v-.1h-.2q-.6-.4-1-.4h-1.5l-1.2-.1h-1.5l-1-.1h-.8q-.6-.2-1.1-.1l-2 .3v-.3l-.1-2.3.1-.5zm13.9.8h.4l2.5.7 1 .3.5.2q1.4.4 2.8 1.2l1.7.7-.2.3-.7 1.4-.3.3q-.3 0-.4.3t-.2.7v.4h-.1l-1-.5-2.8-1q-.5 0-.8-.3l-2.2-.6-1.6-.4v-.2l.3-.4.2-.8.2-.6v-.4l.3-.4.2-.4v-.3zm-1.7-6.6-.3.2-.3.4q-.2.4 0 .7v.6q-.2.4 0 .7l.1.3.1.1s.1.1-.1.7h-.3l-1-.2h-.5l-3-.4h-1.8l-1-.1h-1q-.6-.2-1.3-.1-1.2 0-2.3.3v-.6q.2-.5 0-.9l-.2-.4v-.2h-.2c-.9-.2-2 0-2.3.2l-.1.3.2 1.4.2.6-1.7.3a30 30 0 0 0-5.9 1.6l-.2-1-.7-2.5v-.2q2.7-.9 5.4-1.4l2-.3 1.5-.1 5.3-.6 4-.2 1.3.1 3.9.5zM1115 27q-1.5.6-2.4 1.7l-.2.1-.4.3q-.4 1-.5 1.9l-.1.5-.2.6-1.3.5-.7.3-.1-.5-.6-1V31q-.2-.6-.8-1a91 91 0 0 1 8.3-4l.2.9q-.7 0-1.3.2Zm-5.9-.7-2 1-.7.3-.4-.7q-.4-.6-.6-1.3l-.5-1.1a64 64 0 0 1 9-4.2l.7 1.2.8 2.2zm-49.6 33.9-1 1-.3.4v.2h-.8l-.7-.1h-.3l.3-.5q.8-1.2 2-2.4l.6-.8.2-.2 1-.1h.2l.5 1.2zm.2-6.2-1.4 1.4-.2.2h-1.5l-1-.2-.9-.2-1-.2.1-.5.3-.6.2-.7V53l.4-1 .1-.8h.2l1.2.3.9.1h.4l.5.1h1.3v.4zm-6.6-2.3-.3.9-.3.5-.2.4-.2.4-.1.5-1.2-.4-.8-.4.2-.6q0-.3.3-.5l.4-.6v-.2q.2-.6.6-1l.3-.8 1.4.7h.2zm-1.8 4.8-.3.7-.6 1.5-.3.3-.3.3-.2.7-1.2-.4-1.2-.6.1-.2.7-1.1 1-2.3h.2q.9.6 2.1 1zm-2.4 14 .2-.2q0-.3.3-.4 0-.6.3-1h.7l.4.2 2.2.5c1 1.7 2 2.4 3.1 3q1 .7 2 1l1.6.4h-3l-.9-.1-1-.1q-1.1 0-2.2-.3l-4.2-1q.5-1 .5-2m9.2-.4h.8l2.5-.2 1.2-.1 1.1-.3 2.7-.4h.1l1 1-.5.3-1.5.7q-2 .5-3 .4c-1-.1-1.7-.2-3-.6zm11.3 2 .4.4-1.3.3zm.7-6.4v.3l-1.4.5-.2-.2q-1.3-1.6-2.3-3.4l1-.3 2.7-.9.2.4q.3 1 .2 2.3zm-1.5-9-1.4-.3h-.7q.6 0 1.3-.4l1-.4 1.3-.6 2.5-1.2.2-.1 2.2-1.3 1.6-1 2.6-1.5 1.3-.9 2-1.4.9-.6 1 1.5.3.5q0 .4.3.7l.2.2-.8.5-2.1 1.6-2.7 1.9-2.3 1.4-3.9 2.3-1.1.6-1.2.7q0-.3-.3-.5a5 5 0 0 0-2.2-1.7m3.6 11.5.3-1 .9-.3 2-.8 3-1.5 2.9-1.7 4.7-2.9 1.5-1 2.2-1.4 1-.7.4.8.3.4-1 .5q-1 .8-2 2.3l-.2.1q-.3 0-.4.4l-.3 2-1.1.7-2.7 1.7-2.8 1.6-2 1.1-1.2.7q-1.4.9-3.6 1.8l-.7.3-.1-.1-.3-.3-.6-.7-.6-.8zm30.3-20.4 4.1-3 .3-.2q4.5-3 8.6-5 5.4-2.9 10.2-3.8l1.3-.1h.1l.1 1h-1q-1 0-1.9 1-.3 0-.5.3l-.4 1.7-.1.4v.2q-2.4.8-4.7 1.9l-1.3.5-1.5.6-1.8.8-1.8 1.2-.3.2q-1 1-3 2l-2.2 1.7-1 1h-.1l-1.6 1.4-.3-.4-1.8-2.8zm26.4-11.5v-.8l.5-.1 1.8-.2 2.4-.2.9.1a22 22 0 0 1 4.8 1l1.8.4q.4 0 .8.3l.4.1q1 .2 2 .9l1.4.6-.6 1-.1.3-1 2-.9-.3-2-.7-.7-.2-.9-.3-.7-.2-1.7-.5-.8-.2-.6-.1h-.3l-1.7-.3h-1.7l-.5-.1-.7-.1h-.1l-1 .2h-.6q0-1.2-.3-2.3zm19.7.4.2-.3.2-.4q.3-.6.1-.7l.1-.3q.2-.5.7-.8l.3-.3.1-.3 2.4 1.3-1.2 1.5-.5.7-.2.6-.3.5v-.1l-2-1zm2.5-5.2q0-.3.3-.5l.5-1.1 1-1.8 2.7 1.4-.2.4-.9 1.3-.3.3-.4.3-.3.6v.4h-.2l-2-1.2zm2.8-5.5.2-.8q0-.3.3-.5l.4-.6.1-.3q.1-.5.5-.9l.2-.2 3 1.5h.1l-.3.6-.4.9-.4.4-.3.4-.3.4q0 .3-.3.5h-.1l-.1.1-.3-.1-2.2-1.2zm-90.2 25 .9-.3.6-.3.4-.1.8-.3 1.1-.5 2.2-1 2.1-1.3 1.5-.8 2.4-1.5 1.3-.9 2-1.3c1.3-1 1.5-1.3 1.8-1.6l1.8-1.5 5.8-3.8 2-1.7 1.3-1q2.3-1.9 4.8-3.6h.1l6-3.7.3.7.7 1.3.5.9-2 1.3-3.5 2.4-2.6 2-1.1 1-1.4 1.1-.3-.1-.3-.3-.7-1-.6-.7-.1-.2-.2.1-1.3.8-.5.2-1.3.7q-.3 0-1 .9l-.3.4q-.7.7-1.9 1.5l-2 1.4-3 2.3 1.8 2.4-1 .6-2 1.5-2.5 1.8-2.2 1.3-4.5 2.7-2.3 1.2c-1.8.8-3.2 1.1-5 1.4l-.1-.6.5-.7a6 6 0 0 0 1-2.3zm-2.3.3-.1.3zm-.1-2 .1-.4.1-.2.1.6zm2.9 30.8" class="cls-1"/></g></svg>