<svg xmlns="http://www.w3.org/2000/svg" id="Layer_2" viewBox="0 0 1205.1 910.8"><defs><style>.cls-1{fill:#f93e10}</style></defs><g id="Layer_1_copy"><path d="M5 481.9c.2 8.4-2 16.7-2 25 .2 14.5 7.1 28.3 6.7 42.6-.5 14.4-8.4 27.7-9.5 42-1.3 15.4 5.3 30.5 5.7 46 .5 15.9-6 31.4-5.7 47.3.2 14.8 6.4 29 7.3 43.9.9 16.5-4 32.8-5.3 49.2q-.8 14.2.7 28.4a53 53 0 0 0 1.6 13.8q2.1 14.9 3.2 29.4-.8 5.3-2.3 10.4l-1.5 4.5-.7 2.2-.4 1.3v.3l-.2.4-.1 1.3q-.8 5.2-1.4 13.9l-.2 4.8v1.2l.1 1.3q0 1.2.4 2.5 1.1 5 4 8.8l37-34c-.1 0-1 .7-1.7.5q-.4 0-.6-.4H40v-.6l-.1-.6-.3-2.5q-.3-5-1.7-9.8l-3.5-11.3a151 151 0 0 1-3.7-35.9c1.1-21.3 10.6-42.6 6.1-63.5-2.1-10-7.5-19.6-7.6-29.8-.1-10.8 5.4-20.7 7.6-31.3a100 100 0 0 0 1-24c-.6-15.4-1.2-30.9-3.6-46.1-1.8-11.1-4.5-22.3-3.6-33.5 1-11.5 5.6-22.5 7.4-34 2.8-17.5-1.5-35.5.1-53.3 1.7-18.4 4-35.1 4.2-55v-.4H.2c-.2 14.9 4.6 30.8 4.8 45m.3-459.7q-.4 2.6-.3 5.4L4.8 33l-.4 5.6-.2 2.8c0 1 0 1.4-.2 2q-.9 6.2-1 12.5c.2 14.4 7.2 28.2 6.7 42.6-.5 14.3-8.4 27.6-9.5 42-1.3 15.4 5.3 30.5 5.8 46 .5 15.8-6 31.3-5.8 47.2.2 14.8 6.4 29.2 7.3 44 1 16.5-4 32.7-5.3 49.2q-.8 14.1.7 28.4a53 53 0 0 0 1.6 13.8q2.1 14.8 3.2 29.4-.8 5.3-2.3 10.3c-1.9 6.9-4.2 8.7-5.3 28h42.2c0-5.3-1-8.9-1.6-13.1-1-6.7-.8-13.3-2.8-19.8l-3.5-11.3a150 150 0 0 1-3.7-35.9c1.1-21.3 10.6-42.5 6.1-63.4-2.1-10.1-7.5-19.6-7.6-29.9-.1-10.7 5.4-20.7 7.6-31.2a100 100 0 0 0 1-24c-.6-15.5-1.2-30.9-3.6-46.2-1.8-11-4.5-22.2-3.6-33.5 1-11.5 5.6-22.4 7.4-33.9 1.4-8.8 1-17.7.5-26.6q-.5-6.8-.7-13.4v-10L38 43v-.6l.1-.2q.6-1.3 1.4-1.7l.3-.2h.4l1.8 1.2.2.2v.1l.1.1h.2q6.9.4 14.4.6h.4V.2q-5.7 0-11.4.6l-2.8.4h-.7l-1.4.2-2.8.2-10.6.9q-2.7.1-5.1.5l-2.4.5-2.1.8a25 25 0 0 0-6.6 3.9c-.8.6-2 1.9-2.6 3l-1.5 3.1q-1.5 3.5-2 7.9M463.3 5c-8.4.2-16.7-2-25-2-14.5.2-28.3 7.1-42.7 6.7-14.3-.5-27.6-8.4-42-9.5-15.3-1.3-30.4 5.3-46 5.7-15.8.5-31.3-6-47.2-5.7-14.8.2-29.1 6.4-44 7.3-16.4.9-32.7-4-49.2-5.3q-14.1-.8-28.4.7a53 53 0 0 0-13.7 1.6q-14.9 2.1-29.5 3.2-5.3-.8-10.3-2.3c-6.9-1.9-8.7-4.2-28-5.2v42.1c5.4 0 8.9-1 13.1-1.6 6.7-1 13.3-.8 19.8-2.8q5.7-1.6 11.3-3.5a151 151 0 0 1 35.9-3.7c21.3 1.1 42.5 10.6 63.5 6.1 10-2.1 19.5-7.5 29.8-7.6 10.8-.1 20.7 5.4 31.2 7.6a100 100 0 0 0 24 1c15.5-.6 31-1.2 46.2-3.6 11.1-1.8 22.3-4.5 33.5-3.6 11.5 1 22.5 5.6 33.9 7.4 17.6 2.8 35.6-1.5 53.3.1 18.5 1.7 35.2 4 55.2 4.2h.3V.2c-14.9-.2-30.8 4.6-45 4.8" class="cls-1"/><path d="M914.3 5c-8.4.2-16.7-2-25-2-14.4.2-28.2 7.1-42.6 6.7-14.4-.5-27.7-8.4-42-9.5-15.4-1.3-30.5 5.3-46 5.7-15.8.5-31.4-6-47.3-5.7-14.8.2-29 6.4-43.9 7.3-16.5.9-32.8-4-49.2-5.3q-14.2-.8-28.4.7A53 53 0 0 0 576 4.5q-14.9 2.1-29.4 3.2-5.3-.8-10.4-2.3c-6.8-1.9-8.6-4.2-28-5.2v42.1c5.4 0 9-1 13.2-1.6 6.7-1 13.2-.8 19.7-2.8q5.7-1.6 11.3-3.5c12-2.3 23.9-4.3 36-3.7 21.3 1.1 42.5 10.6 63.4 6.1 10-2.1 19.6-7.5 29.9-7.6 10.7-.1 20.7 5.4 31.2 7.6a100 100 0 0 0 24 1c15.4-.6 30.9-1.2 46.1-3.6 11.1-1.8 22.3-4.5 33.5-3.6 11.5 1 22.5 5.6 34 7.4 17.5 2.8 35.5-1.5 53.3.1 18.4 1.7 35.2 4 55.1 4.2h.3V.2c-14.8-.2-30.7 4.6-45 4.8M1200 203.4c0-8.5 2.2-16.8 2.1-25.1-.1-14.4-7.1-28.2-6.7-42.6.5-14.3 8.4-27.6 9.5-42 1.3-15.4-5.3-30.5-5.7-46v-6.3l.7-10.4.4-5.4.2-2.7-.1-2.5q-.5-5.1-2-8.7l-.9-1.7a12 12 0 0 0-2-2.7l-.8-.7-1.4-1.2a20 20 0 0 0-8-4l-1.4-.4-1.3-.1-2.8-.3-11.6-.4h-5.7c-14.8.2-29.1 6.4-44 7.3-16.4 1-32.7-4-49.2-5.3q-14.1-.8-28.4.7a53 53 0 0 0-13.8 1.6q-14.7 2.1-29.4 3.2-5.3-.8-10.3-2.3c-6.9-1.8-8.7-4.2-28-5.2v42.1c5.4 0 8.9-1 13.1-1.6 6.7-1 13.3-.8 19.8-2.8q5.6-1.6 11.3-3.5a150 150 0 0 1 35.9-3.7c21.3 1.1 42.5 10.6 63.5 6.1 10-2.1 19.5-7.4 29.8-7.6 5.4 0 10.5 1.3 15.7 3l7.7 2.5 5.9 1.6.5.2h.2l.3.3q1.3 1.1 2.4 1.2h1.3q.4 0 .4.3l.2.5.4 2.4.2.7v.8l.1.7.4 5.8a261 261 0 0 0 2.5 23c1.7 11.1 4.4 22.2 3.5 33.5-1 11.5-5.6 22.4-7.4 33.9-2.8 17.6 1.5 35.6-.1 53.3-1.7 18.4-4 35.2-4.2 55.2v.3h42.2c.1-15-4.7-30.8-5-45" class="cls-1"/><path d="M1200 654.4c0-8.4 2.2-16.7 2.1-25-.1-14.5-7.1-28.3-6.7-42.7.5-14.3 8.4-27.6 9.5-42 1.3-15.4-5.3-30.4-5.7-46-.5-15.8 6-31.3 5.7-47.2-.2-14.8-6.4-29.1-7.3-44-.9-16.4 4-32.7 5.3-49.2q.9-14.1-.7-28.4a53 53 0 0 0-1.6-13.8c-1.2-9.8-2.6-19.6-3.2-29.4q.9-5.3 2.3-10.3c1.9-6.9 4.2-8.7 5.3-28h-42.2c0 5.4 1 8.9 1.6 13.1 1 6.7.8 13.3 2.8 19.8l3.5 11.3c2.3 12 4.3 23.8 3.7 35.9-1.1 21.3-10.6 42.5-6.1 63.5 2.1 10 7.5 19.5 7.6 29.8.1 10.7-5.4 20.7-7.6 31.2a100 100 0 0 0-1 24c.7 15.5 1.3 31 3.7 46.2 1.7 11.1 4.4 22.3 3.5 33.5-1 11.5-5.6 22.5-7.4 33.9-2.8 17.6 1.5 35.6-.1 53.3-1.7 18.4-4 35.2-4.2 55.2v.3h42.2c.1-14.9-4.7-30.8-5-45M967.3 905.7c8.4-.1 16.7 2.1 25.1 2 14.4-.1 28.2-7.1 42.6-6.6 14.3.5 27.6 8.3 42 9.5 15.4 1.3 30.5-5.3 46-5.8 7.9-.2 15.7 1.3 23.6 2.8q5.9 1.3 11.8 2.1l3 .4 1.5.2 3 .1q5.8.3 11.8.2l5.4-.2h1.3l1.2-.3 2.4-.6q4.3-1.6 7-4.2l1.2-1.3 1.4-1.7q.7-.9 1-1.7l.8-1.7q1.5-3.5 1.7-8.4V888l-.2-2.6-.6-5-1.2-9.9-.1-1.1-.1-.6v-.5l-.3-1.4-.4-2.7q-.5-2.8-.6-5.6c-1-16.5 4-32.7 5.3-49.2q.9-14.2-.7-28.4a53 53 0 0 0-1.6-13.8q-2.1-14.9-3.2-29.4.9-5.3 2.3-10.4c1.9-6.8 4.2-8.6 5.3-28h-42.2c0 5.4 1 9 1.6 13.2 1 6.7.8 13.3 2.8 19.7q1.6 5.7 3.5 11.3c2.3 12 4.3 23.9 3.7 36-1.1 21.3-10.6 42.5-6.1 63.4 1 5 3 10 4.5 14.9q1.3 3.6 2.1 7.4l.4 1.9.3 1.6.3 2.4q0 2.5-.8 4.4-.4.9-1 1.5-.2.4-.5.6l-.7.4a2 2 0 0 1-1.3-.1l-3.8-2q-2.2-1.1-3.5-2l-1.5-.9-6-.3q-6-.1-12.1.2c-15.4.6-30.9 1.2-46.1 3.6-11.2 1.7-22.3 4.4-33.5 3.5-11.6-1-22.5-5.6-34-7.4-17.6-2.7-35.6 1.5-53.3 0-18.4-1.8-35.2-4.1-55.1-4.3h-.4v42.2c15 .1 30.8-4.7 45-4.9m-451 0c8.4-.1 16.7 2.1 25 2 14.5-.1 28.3-7.1 42.7-6.6 14.3.5 27.6 8.3 41.9 9.5 15.4 1.3 30.5-5.3 46-5.8 15.9-.5 31.4 6 47.3 5.8 14.8-.2 29.1-6.4 44-7.3 16.4-1 32.7 4 49.2 5.2q14.1 1 28.4-.7a53 53 0 0 0 13.7-1.6c9.9-1.2 19.7-2.6 29.5-3.2q5.2 1 10.3 2.3c6.8 1.9 8.7 4.3 28 5.3v-42.2c-5.4 0-8.9 1-13.2 1.7-6.6 1-13.2.8-19.7 2.7l-11.3 3.5a146 146 0 0 1-35.9 3.7c-21.3-1.1-42.6-10.6-63.5-6.1-10 2.2-19.6 7.5-29.8 7.6-10.8.2-20.7-5.4-31.2-7.5a100 100 0 0 0-24-1c-15.5.6-31 1.2-46.2 3.6-11.1 1.7-22.3 4.4-33.5 3.5-11.5-1-22.5-5.6-34-7.4-17.5-2.7-35.5 1.5-53.2 0-18.5-1.8-35.2-4.1-55.2-4.3h-.3v42.2c14.9.1 30.8-4.7 45-4.9m-451.1 0c8.4-.1 16.7 2.1 25.1 2 14.4-.1 28.2-7.1 42.6-6.6 14.3.5 27.6 8.3 42 9.5 15.4 1.3 30.5-5.3 46-5.8 15.8-.5 31.4 6 47.2 5.8 14.8-.2 29.2-6.4 44-7.3 16.5-1 32.7 4 49.2 5.2q14.2 1 28.4-.7a53 53 0 0 0 13.8-1.6c9.8-1.2 19.7-2.6 29.4-3.2q5.3 1 10.4 2.3c6.8 1.9 8.6 4.3 28 5.3v-42.2c-5.4 0-9 1-13.2 1.7-6.7 1-13.3.8-19.8 2.7l-11.3 3.5a145 145 0 0 1-35.8 3.7c-21.4-1.1-42.6-10.6-63.5-6.1-10.1 2.2-19.6 7.5-29.9 7.6-10.7.2-20.7-5.4-31.2-7.5a100 100 0 0 0-24-1c-15.4.6-30.9 1.2-46.2 3.6-11 1.7-22.2 4.4-33.4 3.5-11.6-1-22.5-5.6-34-7.4-17.6-2.7-35.6 1.5-53.3 0l-27-2.7-3.4-.3-1.7-.2h-1.2v-.1q-.3-.2-.2-.5l.1-.5-36.9 34c.8 1 2.2 2.4 3.1 3l1.6 1.1q.8.6 1.8 1 3.8 2 9.3 2.3l5.7-.2 5.6-.4 5.6-.5 2.7-.2 1.4-.1h.4l.4-.1c7.6-1.2 15.1-2.5 22.2-2.6" class="cls-1"/></g></svg>