<?xml version="1.0" encoding="UTF-8"?><svg id="Layer_2" xmlns="http://www.w3.org/2000/svg" viewBox="0 0 1205.11 910.75"><defs><style>.cls-1{fill:#f93e10;}</style></defs><g id="Layer_1_copy"><path class="cls-1" d="M5.04,481.87c.12,8.4-2.13,16.7-2.04,25.09.15,14.39,7.14,28.19,6.66,42.57-.48,14.34-8.33,27.64-9.51,41.95-1.27,15.44,5.31,30.53,5.79,46.01.5,15.86-6.04,31.4-5.79,47.27.23,14.82,6.44,29.13,7.3,43.93.95,16.51-4.01,32.77-5.26,49.26-.71,9.4-.22,18.89.72,28.4-.03,2.17.06,4.34.3,6.52.28,2.45.75,4.86,1.29,7.25,1.25,9.86,2.6,19.69,3.22,29.42-.56,3.49-1.39,6.95-2.32,10.35-.47,1.71-.97,3.11-1.47,4.54-.25.72-.5,1.44-.75,2.22-.12.39-.24.79-.37,1.22l-.09.32c-.03.11-.06.18-.09.43-.06.42-.12.84-.18,1.28-.48,3.53-.93,7.91-1.32,13.89-.08,1.48-.25,3.12-.23,4.77,0,.42,0,.84,0,1.27.04.41.08.82.11,1.24.05.86.21,1.66.38,2.49.69,3.27,2.11,6.37,4,8.85l36.93-34c-.02.07-.97.66-1.64.49-.26-.05-.45-.19-.6-.35l-.11-.13s-.02-.15-.03-.23l-.03-.31-.05-.62-.22-2.47c-.31-3.29-.74-6.56-1.71-9.8-1.13-3.77-2.34-7.54-3.53-11.3-2.28-11.92-4.32-23.86-3.69-35.89,1.12-21.35,10.59-42.56,6.12-63.49-2.15-10.07-7.49-19.57-7.62-29.85-.14-10.73,5.4-20.7,7.55-31.22,1.61-7.88,1.31-16,.99-24.02-.6-15.42-1.2-30.87-3.6-46.13-1.74-11.12-4.45-22.27-3.54-33.49.93-11.53,5.63-22.48,7.41-33.92,2.74-17.61-1.53-35.6.09-53.33,1.68-18.42,4.02-35.18,4.22-55.14-.02-.11.02-.22,0-.33H.16c-.16,14.9,4.68,30.78,4.88,45.02Z"/><path class="cls-1" d="M5.26,22.16c-.24,1.71-.22,3.58-.27,5.4-.05,1.83-.13,3.65-.22,5.48l-.34,5.53-.19,2.8c-.07,1.12-.13,1.45-.2,2-.54,4.17-1.07,8.35-1.03,12.55.15,14.39,7.14,28.19,6.66,42.57-.48,14.34-8.33,27.64-9.51,41.95-1.27,15.44,5.31,30.53,5.79,46.01.5,15.86-6.04,31.4-5.79,47.27.23,14.82,6.44,29.13,7.3,43.93.95,16.51-4.01,32.77-5.26,49.26-.71,9.4-.22,18.89.72,28.4-.03,2.17.06,4.34.3,6.52.28,2.45.75,4.86,1.29,7.25,1.25,9.86,2.6,19.69,3.22,29.42-.56,3.49-1.39,6.95-2.32,10.35-1.87,6.84-4.24,8.65-5.27,28.01h42.18c-.02-5.39-.97-8.91-1.64-13.17-1.06-6.68-.81-13.26-2.75-19.75-1.13-3.77-2.34-7.54-3.53-11.3-2.28-11.92-4.32-23.86-3.69-35.89,1.12-21.35,10.59-42.56,6.12-63.49-2.15-10.07-7.49-19.57-7.62-29.85-.14-10.73,5.4-20.7,7.55-31.22,1.61-7.88,1.31-16,.99-24.02-.6-15.42-1.2-30.87-3.6-46.13-1.74-11.12-4.45-22.27-3.54-33.49.93-11.53,5.63-22.48,7.41-33.92,1.37-8.8.99-17.7.46-26.62-.26-4.46-.56-8.92-.69-13.38-.06-2.23-.09-4.45-.04-6.68.02-1.11.06-2.22.12-3.33l.1-1.67.03-.42c0-.06.01-.16.02-.18l.02-.04.07-.16c.42-.9.88-1.49,1.34-1.78.11-.07.23-.13.34-.16.11-.03.2-.08.43-.02.44.19.81.43,1.11.63.3.2.52.4.68.57.08.09.15.17.2.25l.07.11.03.05v.03s-.05.02.16.03c4.67.27,9.46.45,14.45.5.11-.02.22.02.33,0V.16c-3.72-.04-7.51.23-11.32.67l-2.86.35-.72.1-1.36.1-2.75.21c-3.56.29-7.13.59-10.68.88-1.73.16-3.47.27-5.1.54-.83.11-1.56.36-2.34.52-.73.23-1.44.48-2.13.73-2.69,1.1-4.85,2.53-6.55,3.94-.8.57-2.05,1.87-2.66,2.94-.53,1.04-1.04,2.02-1.5,3.19-.92,2.28-1.71,4.9-2.05,7.83Z"/><path class="cls-1" d="M463.3,5.04c-8.4.12-16.7-2.13-25.09-2.04-14.39.15-28.19,7.14-42.57,6.66-14.34-.48-27.64-8.33-41.95-9.51-15.44-1.27-30.53,5.31-46.01,5.79-15.86.5-31.4-6.04-47.27-5.79-14.82.23-29.13,6.44-43.93,7.3-16.51.95-32.77-4.01-49.26-5.25-9.4-.71-18.89-.22-28.4.73-2.17-.03-4.34.06-6.52.3-2.45.28-4.86.75-7.25,1.29-9.86,1.25-19.69,2.6-29.42,3.22-3.49-.56-6.95-1.39-10.35-2.32-6.84-1.87-8.65-4.24-28.01-5.27v42.18c5.39-.02,8.91-.97,13.17-1.64,6.68-1.06,13.26-.81,19.75-2.75,3.77-1.13,7.54-2.34,11.3-3.53,11.92-2.28,23.86-4.32,35.89-3.69,21.35,1.11,42.56,10.59,63.49,6.12,10.07-2.15,19.57-7.49,29.85-7.62,10.73-.14,20.7,5.4,31.22,7.55,7.88,1.61,16,1.31,24.02.99,15.42-.6,30.87-1.2,46.13-3.6,11.12-1.74,22.27-4.45,33.49-3.54,11.53.93,22.48,5.63,33.92,7.41,17.61,2.74,35.6-1.53,53.34.09,18.41,1.68,35.18,4.02,55.14,4.22.11-.02.22.02.33,0V.16c-14.9-.16-30.78,4.68-45.02,4.88Z"/><path class="cls-1" d="M914.34,5.04c-8.4.12-16.7-2.13-25.09-2.04-14.39.15-28.19,7.14-42.57,6.66-14.34-.48-27.64-8.33-41.95-9.51-15.44-1.27-30.53,5.31-46.01,5.79-15.86.5-31.4-6.04-47.27-5.79-14.82.23-29.13,6.44-43.93,7.3-16.51.95-32.77-4.01-49.26-5.25-9.4-.71-18.89-.22-28.4.73-2.17-.03-4.34.06-6.52.3-2.45.28-4.86.75-7.25,1.29-9.86,1.25-19.69,2.6-29.42,3.22-3.49-.56-6.95-1.39-10.35-2.32-6.84-1.87-8.65-4.24-28.01-5.27v42.18c5.39-.02,8.91-.97,13.17-1.64,6.68-1.06,13.26-.81,19.75-2.75,3.77-1.13,7.54-2.34,11.3-3.53,11.92-2.28,23.86-4.32,35.89-3.69,21.35,1.11,42.56,10.59,63.49,6.12,10.07-2.15,19.57-7.49,29.85-7.62,10.73-.14,20.7,5.4,31.22,7.55,7.88,1.61,16,1.31,24.02.99,15.42-.6,30.87-1.2,46.13-3.6,11.12-1.74,22.27-4.45,33.49-3.54,11.53.93,22.48,5.63,33.92,7.41,17.61,2.74,35.6-1.53,53.34.09,18.41,1.68,35.18,4.02,55.14,4.22.11-.02.22.02.33,0V.16c-14.9-.16-30.78,4.68-45.02,4.88Z"/><path class="cls-1" d="M1200.06,203.35c-.12-8.4,2.13-16.7,2.04-25.09-.15-14.39-7.14-28.19-6.66-42.57.48-14.34,8.33-27.64,9.51-41.95,1.27-15.44-5.31-30.53-5.79-46.01-.03-.99-.03-1.98-.01-2.97l.05-1.48.08-1.88c.13-3.41.34-6.85.61-10.38l.44-5.37c.09-.91.1-1.79.16-2.7-.02-.86-.02-1.74-.09-2.57-.27-3.33-1.08-6.24-2.09-8.65-.27-.58-.5-1.19-.81-1.76-.33-.59-.83-1.29-1.35-1.88-.26-.3-.51-.58-.74-.81-.22-.23-.44-.43-.68-.65-.48-.42-.88-.87-1.43-1.27-2.04-1.66-4.71-3.23-8.09-4.03-.43-.09-.84-.22-1.28-.29l-1.36-.17c-.9-.13-1.87-.14-2.81-.22-1.89-.11-3.81-.21-5.75-.29-1.94-.08-3.89-.13-5.86-.17l-2.95-.03h-2.7c-14.82.24-29.13,6.45-43.93,7.3-16.51.95-32.77-4.01-49.26-5.25-9.4-.71-18.89-.22-28.4.73-2.17-.03-4.34.06-6.52.3-2.45.28-4.86.75-7.25,1.29-9.86,1.25-19.69,2.6-29.42,3.22-3.49-.56-6.95-1.39-10.35-2.32-6.84-1.87-8.65-4.24-28.01-5.27v42.18c5.39-.02,8.91-.97,13.17-1.64,6.68-1.06,13.26-.81,19.75-2.75,3.77-1.13,7.54-2.34,11.3-3.53,11.92-2.28,23.86-4.32,35.89-3.69,21.35,1.11,42.56,10.59,63.49,6.12,10.07-2.15,19.57-7.49,29.85-7.62,5.36-.07,10.54,1.28,15.69,2.92,2.57.84,5.14,1.68,7.73,2.53,1.29.41,2.59.8,3.89,1.16.65.18,1.3.35,1.96.51l.49.12c.07.02.2.04.21.06l.07.06.26.21c.98.81,1.6,1.13,2.39,1.22.39.04.8.03,1.26-.02.23-.05.47.11.48.3l.11.55.48,2.39.14.68.07.35.02.09.02.32.04.72.36,5.78c.52,7.7,1.27,15.37,2.47,23,1.74,11.12,4.45,22.27,3.54,33.49-.93,11.53-5.63,22.48-7.41,33.92-2.74,17.61,1.53,35.6-.09,53.33-1.68,18.42-4.02,35.19-4.22,55.14.02.11-.02.22,0,.33h42.18c.16-14.9-4.68-30.78-4.88-45.02Z"/><path class="cls-1" d="M1200.06,654.4c-.12-8.4,2.13-16.7,2.04-25.09-.15-14.39-7.14-28.19-6.66-42.57.48-14.34,8.33-27.64,9.51-41.95,1.27-15.44-5.31-30.53-5.79-46.01-.5-15.86,6.04-31.4,5.79-47.27-.23-14.82-6.44-29.13-7.3-43.93-.95-16.51,4.01-32.77,5.26-49.26.71-9.4.22-18.89-.72-28.4.03-2.17-.06-4.34-.3-6.52-.28-2.45-.75-4.86-1.29-7.25-1.25-9.86-2.6-19.69-3.22-29.42.56-3.49,1.39-6.95,2.32-10.35,1.87-6.84,4.24-8.65,5.27-28.01h-42.18c.02,5.39.97,8.91,1.64,13.17,1.06,6.68.81,13.26,2.75,19.75,1.13,3.77,2.34,7.54,3.53,11.3,2.28,11.92,4.32,23.86,3.69,35.89-1.12,21.35-10.59,42.56-6.12,63.49,2.15,10.07,7.49,19.57,7.62,29.85.14,10.73-5.4,20.7-7.55,31.22-1.61,7.88-1.31,16-.99,24.02.6,15.42,1.2,30.87,3.6,46.13,1.74,11.12,4.45,22.27,3.54,33.49-.93,11.53-5.63,22.48-7.41,33.92-2.74,17.61,1.53,35.6-.09,53.34-1.68,18.41-4.02,35.18-4.22,55.14.02.11-.02.22,0,.33h42.18c.16-14.9-4.68-30.78-4.88-45.02Z"/><path class="cls-1" d="M967.34,905.7c8.4-.12,16.7,2.13,25.09,2.04,14.39-.15,28.19-7.14,42.57-6.66,14.34.48,27.64,8.33,41.95,9.51,15.44,1.27,30.53-5.31,46.01-5.79,7.93-.25,15.78,1.26,23.63,2.8,3.93.77,7.85,1.55,11.79,2.12.98.14,1.97.27,2.95.39.52.06.93.11,1.54.16l2.94.13c3.93.15,7.9.23,11.84.2,1.83-.04,3.69,0,5.44-.16l1.31-.12,1.23-.24c.84-.14,1.58-.38,2.32-.63,2.94-1.02,5.23-2.57,6.98-4.19.44-.42.86-.78,1.29-1.26.45-.49.98-1.1,1.41-1.71.45-.63.73-1.13.98-1.69.26-.56.52-1.08.75-1.68.95-2.35,1.62-5.22,1.76-8.43,0-.83.02-1.64-.02-2.48-.08-.87-.11-1.7-.23-2.58l-.62-5.12c-.38-3.25-.77-6.5-1.16-9.76l-.13-1.18-.06-.59c-.02-.2-.04-.41-.06-.5l-.24-1.37c-.15-.92-.3-1.83-.42-2.75-.25-1.84-.44-3.68-.55-5.53-.95-16.51,4.01-32.77,5.26-49.26.71-9.4.22-18.89-.72-28.4.03-2.17-.06-4.34-.3-6.52-.28-2.45-.75-4.86-1.29-7.25-1.25-9.86-2.6-19.69-3.22-29.42.56-3.49,1.39-6.95,2.32-10.35,1.87-6.84,4.24-8.65,5.27-28.01h-42.18c.02,5.39.97,8.91,1.64,13.17,1.06,6.68.81,13.26,2.75,19.75,1.13,3.77,2.34,7.54,3.53,11.3,2.28,11.92,4.32,23.86,3.69,35.89-1.12,21.35-10.59,42.56-6.12,63.49,1.08,5.04,2.95,9.93,4.57,14.85.81,2.46,1.56,4.93,2.11,7.42.14.62.26,1.25.38,1.88.11.61.21,1.35.29,1.63.16.77.26,1.58.28,2.38.03,1.67-.29,3.23-.82,4.43-.27.6-.59,1.12-.94,1.54-.18.21-.36.4-.56.56-.21.16-.34.31-.66.41-.32.09-.82.08-1.3-.13-.49-.21-.95-.42-1.4-.64-.9-.43-1.72-.85-2.45-1.26-1.47-.82-2.58-1.57-3.42-2.11-.64-.4-1.11-.69-1.58-.88-1.99-.19-4-.3-6.01-.34-4.02-.09-8.05.07-12.07.22-15.42.6-30.87,1.2-46.13,3.6-11.12,1.74-22.27,4.45-33.49,3.54-11.53-.93-22.48-5.63-33.92-7.41-17.61-2.74-35.6,1.53-53.34-.09-18.41-1.68-35.18-4.02-55.14-4.22-.11.02-.22-.02-.33,0v42.18c14.9.16,30.78-4.68,45.02-4.88Z"/><path class="cls-1" d="M516.29,905.7c8.4-.12,16.7,2.13,25.09,2.04,14.39-.15,28.19-7.14,42.57-6.66,14.34.48,27.64,8.33,41.95,9.51,15.44,1.27,30.53-5.31,46.01-5.79,15.86-.5,31.4,6.04,47.27,5.79,14.82-.23,29.13-6.44,43.93-7.3,16.51-.95,32.77,4.01,49.26,5.25,9.4.71,18.89.22,28.4-.73,2.17.03,4.34-.06,6.52-.3,2.45-.28,4.86-.75,7.25-1.29,9.86-1.25,19.69-2.6,29.42-3.22,3.49.56,6.95,1.39,10.35,2.32,6.84,1.87,8.65,4.24,28.01,5.27v-42.18c-5.39.02-8.91.97-13.17,1.64-6.68,1.06-13.26.81-19.75,2.75-3.77,1.13-7.54,2.34-11.3,3.53-11.92,2.28-23.86,4.32-35.89,3.69-21.35-1.12-42.56-10.59-63.49-6.12-10.07,2.15-19.57,7.49-29.85,7.62-10.73.14-20.7-5.4-31.22-7.55-7.88-1.61-16-1.31-24.02-.99-15.42.6-30.87,1.2-46.13,3.6-11.12,1.74-22.27,4.45-33.49,3.54-11.53-.93-22.48-5.63-33.92-7.41-17.61-2.74-35.6,1.53-53.34-.09-18.41-1.68-35.18-4.02-55.14-4.22-.11.02-.22-.02-.33,0v42.18c14.9.16,30.78-4.68,45.02-4.88Z"/><path class="cls-1" d="M65.24,905.7c8.4-.12,16.7,2.13,25.09,2.04,14.39-.15,28.19-7.14,42.57-6.66,14.34.48,27.64,8.33,41.95,9.51,15.44,1.27,30.53-5.31,46.01-5.79,15.86-.5,31.4,6.04,47.27,5.79,14.82-.23,29.13-6.44,43.93-7.3,16.51-.95,32.77,4.01,49.26,5.25,9.4.71,18.89.22,28.4-.73,2.17.03,4.34-.06,6.52-.3,2.45-.28,4.86-.75,7.25-1.29,9.86-1.25,19.69-2.6,29.42-3.22,3.49.56,6.95,1.39,10.35,2.32,6.84,1.87,8.65,4.24,28.01,5.27v-42.18c-5.39.02-8.91.97-13.17,1.64-6.68,1.06-13.26.81-19.75,2.75-3.77,1.13-7.54,2.34-11.3,3.53-11.92,2.28-23.86,4.32-35.89,3.69-21.35-1.12-42.56-10.59-63.49-6.12-10.07,2.15-19.57,7.49-29.85,7.62-10.73.14-20.7-5.4-31.22-7.55-7.88-1.61-16-1.31-24.02-.99-15.42.6-30.87,1.2-46.13,3.6-11.12,1.74-22.27,4.45-33.49,3.54-11.53-.93-22.48-5.63-33.92-7.41-17.61-2.74-35.6,1.53-53.34-.09-9.21-.91-18-1.78-26.99-2.67-1.12-.1-2.25-.2-3.38-.3l-1.7-.14-.85-.07-.42-.03-.02-.03c-.1-.18-.15-.33-.16-.47-.02-.27.12-.45.17-.5-.02.02.02-.02,0,0l-36.93,34c.74.95,2.21,2.38,3.12,3.04l1.55,1.08c.56.35,1.18.66,1.78.99,2.51,1.24,5.64,2.2,9.33,2.29,1.86.02,3.78-.13,5.68-.25l5.66-.4,5.56-.43,2.73-.22,1.35-.11h.17s.09-.03.09-.03l.18-.03.36-.06c7.61-1.22,15.14-2.48,22.26-2.58Z"/></g></svg>