<?xml version="1.0" encoding="UTF-8"?><svg id="Layer_2" xmlns="http://www.w3.org/2000/svg" viewBox="0 0 1059.88 799.73"><defs><style>.cls-1{fill:#fdf4ac;}.cls-2{fill:#ffe2d2;}.cls-3{fill:#e8bc16;}</style></defs><g id="Layer_1_copy"><path class="cls-2" d="M561.38,98.73c25.34,15.11,37.31-1.08,38.02-26.55.21-7.46,3.07-48.16-24.83-63.84-21.89-12.31-34.48,4.18-35.33,27.61-1.38,37.88,3.47,51.65,22.14,62.79ZM592.83,64.76s.3,0,.46,0c.24.08.32.33.19.71-.02.04-.31.03-.45,0-.24-.06-.32-.32-.2-.71ZM558.31,90.53c-.39.11-.63,0-.7-.23,0-.16-.02-.44.02-.46.39-.11.65-.01.7.23.03.15.03.44-.02.45ZM553.89,13.34c.39-.11.63,0,.7.23,0,.16.02.45-.02.46-.39.11-.65.01-.7-.23-.03-.15-.03-.44.02-.45ZM548.95,41.44c-.4-.42-.44-.86-.11-1.26.53-.64,1.08-.68,1.61-.13.4.42.44.86.11,1.26-.53.64-1.08.68-1.61.13ZM550.87,45.78c.72-12.13,7.92-17.19,21.69-9.82,15.58,8.34,16.35,19.71,15.58,29.3-1.13,14.22-12.39,15.73-21.3,10.35-8.84-5.35-17.1-11.03-15.98-29.82Z"/><path class="cls-2" d="M622.6,117.59s0-18.87.02-39.48l17.01,30.28,19.74-13.31c0,16.15-.01,33.37-.01,43.59,0,0-8.41-.4-9.01,3.62l5.33,2.85c-.12-.14-.21-.29-.23-.46-.02-.11.05-.28.14-.35.46-.41,1.57.1,1.66.77.02.11-.09.24-.13.36-.16.13-.39.16-.63.12l13.18,7.05s-.04.03-.06.05l27.68,14.81c1.49-4.41-3.88-10.32-3.88-10.32l3.79-9.86,28.17,15.07,2.21,12.88s-8.41-.4-9.01,3.62l30.74,16.44c1.13-7.51-5.15-14.43-5.15-14.43l-8.45-47.65c-.94-8.8,4.74-8.09,7.17-7v-26.55s-36.47-19.5-36.47-19.5l-26.09,68.2c-1.61,3.59-5.5,2.36-5.73-2.97,0,0,.01-22.22.02-44.77h0c0-8.48,4.74-8.08,7.17-7v-26.55s-22.27-11.91-22.27-11.91l-17.87,15.16-11.54-30.89-24.62-13.17v11.13c.51.48.55,1.01.03,1.49,0,0-.02.02-.03.03v14.15s4.61.83,4.61,11.19c0,0-.02,24.65-.02,48.05,0,0-8.41-.4-9.01,3.62l26.32,14.08c1.13-7.51-4.8-12.42-4.8-12.42ZM655.55,140.09s-.14-.31-.16-.48c-.03-.28.21-.47.66-.5.05,0,.11.31.17.48,0,.28-.22.47-.66.5ZM744.82,184.7c.15-.09.45-.21.48-.17.26.36.25.65.02.83-.16.06-.45.21-.48.17-.26-.36-.26-.67-.02-.82ZM728.7,181.84c.3-.87.85-1.13,1.62-.77.58.27.8.72.61,1.26-.3.87-.85,1.13-1.62.77-.58-.28-.8-.72-.62-1.26ZM718.16,156.65c-.41.33-.82.34-1.14.04-.67-.63-.52-1.46.31-1.73.33-.11.81.16,1.08.58.25.39.16.78-.25,1.11ZM722.51,89.86c.15-.09.45-.21.47-.17.26.37.26.67.02.82-.14.09-.33.13-.49.19-.23-.39-.24-.68,0-.83ZM720.46,112.52c.28,0,.46.21.48.66,0,.05-.31.15-.48.17-.28.03-.46-.21-.48-.66,0-.05.31-.12.47-.18ZM719.43,111.2c0,.05-.31.12-.48.18-.28,0-.46-.21-.48-.66,0-.05.31-.15.48-.17.27-.03.46.2.48.65ZM714.89,102.69c.62-1.29.82-1.28,1.98-.93,1.51.45,1.64,1.75,1.98,2.91.08.26-.2.8-.46.95-.63.34-1.33.54-2.02.77-.37.13-1.15-.28-1.3-.66-.14-.34-.23-.69-.36-1.03-.35-.96-.36-.96.18-2.01ZM711.43,106.73c.16,0,.37.1.47.23.21.26.36.57.53.87-.34.05-.67.13-1.01.13-.16,0-.32-.14-.48-.22-.17-.29-.34-.58-.51-.87.33-.05.67-.13,1.01-.13ZM708.04,88.77c.16.08.33.16.49.24.33.16.75.24.95.5.18.23.2.68.13,1-.13.59-.8,1.13-1.12.99-.66-.3-1.32-.61-1.96-.96-.12-.06-.17-.33-.18-.51-.06-1.07.77-1.69,1.68-1.26ZM711.71,109.55l5.07,2.71.61,3.57c.28.13.46.31.51.64.03.23-.07.37-.32.47l4.51,26.33-19.37-10.36,8.98-23.37ZM701.19,133.82c.36-.26.65-.26.82-.04.06.17.2.45.16.48-.36.26-.67.27-.81.03-.09-.15-.2-.45-.16-.48ZM693.12,153.57c.14-.09.45-.21.47-.17.26.37.25.65.03.83-.17.06-.45.21-.48.17-.26-.36-.26-.67-.02-.82ZM686.69,160.12c.05,0,.14.31.16.48.03.28-.21.47-.65.49-.05,0-.11-.31-.17-.48,0-.28.22-.47.66-.49ZM673.24,66.03c.11-.43.82-1.11,1.14-.96.65.29,1.33.56,1.92.96.2.13.14.63.2.96-.19.29-.34.65-.59.84-.28.21-.67.26-1.01.39-.34.12-.77.43-1,.32-.23-.11-.27-.63-.37-.98-.14-.5-.44-.95-.29-1.53ZM667.26,109.76c.15-.09.45-.21.48-.17.26.36.25.65.03.83-.17.06-.45.2-.48.16-.26-.36-.26-.67-.02-.82ZM667.07,114.91c.37-.26.65-.26.82-.04.06.17.2.45.16.48-.36.26-.67.27-.81.03-.09-.14-.2-.45-.16-.48ZM663.9,76.06s.31-.03.46,0c.24.06.32.32.2.71-.01.04-.3,0-.46,0-.24-.08-.32-.33-.19-.71ZM663.19,95.8c-.09.24-.33.33-.71.21-.04-.01-.02-.3.02-.46.06-.24.33-.33.71-.21.04.01,0,.3-.01.46ZM662.04,71.38c.29-.18.58-.35.87-.53.04.34.12.68.11,1.01,0,.16-.1.38-.23.48-.26.21-.57.37-.86.55-.04-.34-.12-.68-.12-1.02,0-.16.14-.33.22-.49ZM655.17,89.83c.14-.08.22-.28.36-.32.38-.12.66-.04.72.21.04.15.04.34-.02.48-.06.14-.23.23-.34.34-.46.43-.98.49-1.09.12-.11-.37.03-.64.37-.83ZM654.56,85.68s.14.31.16.48c.03.28-.21.47-.66.49-.05,0-.11-.31-.17-.48,0-.28.22-.47.66-.5ZM639.6,75.84c.08-.24.36-.32.73-.18.14.05.23.22.34.34.34.19.45.47.31.84-.14.36-.65.29-1.08-.16-.11-.12-.27-.22-.32-.36-.05-.14-.04-.33.01-.48ZM626.71,56.1c.39-.11.65-.01.7.23.03.15.03.44-.02.45-.39.1-.63,0-.7-.23,0-.16-.02-.44.02-.46ZM616.8,115c-.09-.14-.2-.45-.17-.48.37-.26.67-.27.82-.03.09.15.12.33.18.5-.38.23-.68.25-.83.02Z"/><path class="cls-2" d="M497.55,106.18c16.9-2.88,34.74-10.82,34.74-48.77l-17.31,9.24c.29,13.35-34.63,29.96-34.63,1.3,0-14.15,2.73-20.91,11.74-26.32,13.69-8.22,19.38,4.54,19.38,4.54l17.35-9.2-.16-36.97-11.83,6.33-4.12,5.81c-1.56-3.65-9.44-4.07-19.1.25-14.45,6.47-21.99,20.78-24.61,36.4-5.59,33.27,3.63,61.65,28.57,57.39ZM524.89,65.88c.03-.14.13-.27.19-.41.12-.11.22-.28.36-.33.29-.1.63-.22.89-.15.23.06-.11.92-.57,1.19-.25.15-.59.13-.9.18,0-.16-.01-.33.02-.49ZM504.13,86.93c.17-.47.49-.78.97-.92.15-.04.32,0,.54,0-.04.64-.05,1.29-.12,1.92-.03.23-.39.34-.73.16-.45-.24-.76-.89-.66-1.17ZM498.61,101.68c.31-.02.62-.06.93-.06.34,0,.67,0,1.01.01.07.1.2.21.19.3-.08.61.14,1.26-.22,1.85-.51,0-1.01-.02-1.51-.03-.15,0-.44-.03-.44-.05,0-.67.03-1.34.05-2.01ZM491.39,104.33s.3-.03.45,0c.24.06.32.32.2.71-.01.04-.3,0-.46,0-.24-.08-.32-.33-.19-.71ZM504.91,24.09c.06-.24.33-.33.71-.21.04.01,0,.3-.01.46-.09.24-.33.33-.72.21-.04-.01-.02-.3.02-.45ZM492.85,21.51c.39-.11.63,0,.7.23,0,.16.02.44-.02.46-.39.11-.65.01-.7-.23-.03-.15-.03-.44.01-.45ZM479.22,83.39c.1.39,0,.65-.25.7-.15.03-.44.04-.45,0-.1-.39,0-.63.24-.7.16,0,.44-.03.46.01ZM478.14,32.68c.12-.07.31-.02.47-.03q.28.18.21,1.67c0,.16-.02.31-.03.47-.29-.07-.66-.05-.87-.22-.78-.6-.68-1.35.22-1.9ZM471.64,55.37c-.39.11-.65.01-.7-.23-.03-.15-.03-.44.02-.46.39-.11.63,0,.7.23,0,.16.02.44-.02.46ZM474.64,71.63c-.06.24-.33.33-.71.21-.04-.01,0-.3.01-.46.09-.24.33-.33.72-.21.04.01.03.31-.02.46Z"/><path class="cls-2" d="M414.25,94.11l-8.72,49.2s-7.18,5.92-6.05,13.43l29.92-15.93c-.59-4.02-9.01-3.62-9.01-3.62l2.28-13.29,29.96-16.03,3.91,10.17s-5.37,5.91-3.88,10.32l28.52-15.32c-4.53-4.27-10.04-2.53-10.04-2.53l-26.77-69.97-37.31,20v26.55c2.43-1.08,8.11-1.8,7.17,7ZM414.33,112.78s-.31.03-.47,0c-.25-.06-.34-.33-.21-.73.01-.04.31,0,.47,0,.24.08.34.34.21.74ZM431.18,74.21l7.06-3.78,8.86,23.06-21.17,11.32,5.24-30.61ZM424.53,94.77c.06-.24.33-.33.71-.21.04.02,0,.3,0,.46-.09.24-.33.32-.72.21-.04-.01-.02-.3.02-.46ZM421.84,98.81c.28.13.59.31.75.56.15.25.13.6.19.91-.17,0-.34,0-.5,0-.5,0-1,0-1.5-.02-.07,0-.14-.18-.2-.28-.07-.37.13-.59.4-.86.27-.27.52-.47.88-.31ZM419.41,92.48c.41-.31.85-.24,1.25.18.4.43.45.88.15,1.26-.64.8-1.58.7-1.95-.19-.15-.35.1-.91.55-1.25ZM415.21,106.88c.06.14.04.34,0,.5-.08.25-.37.33-.76.19-.14-.05-.24-.23-.35-.35-.35-.19-.47-.48-.33-.86.14-.38.66-.3,1.12.16.12.12.28.22.34.36ZM409.37,81.53c.24-.25.49-.48.74-.72.27-.18.52-.42.81-.55.37-.16.61.06.88.34.27.28.51.54.33.88-.45.82-.87,1.21-1.74,1.71-.13.07-.36.06-.5,0-.64-.26-.95-1.2-.51-1.66Z"/><path class="cls-2" d="M335.9,133.37c4.16-8.07,4.85-11.66,20.74-19.28v55.71s-5.93,4.92-4.8,12.42l31.91-17.07c-.59-4.02-9.52-5.18-9.52-5.18,0-23.4-1.18-54.66-1.18-54.66,7.3-4.28,14.13-3.15,18.7-1.52l8.75-4.35v-35.35l-75.5,40.39.66,34.45,10.24-5.55ZM355.65,179.79c-.54.66-1.11.72-1.66.15-.42-.43-.47-.89-.13-1.3.54-.66,1.11-.71,1.66-.15.42.43.47.89.13,1.3ZM375.38,166.46c.4-.11.67-.02.72.23.03.16.03.46-.01.47-.4.11-.65.01-.73-.23,0-.16-.03-.46.02-.47ZM378.04,96.28c.16-.03.46-.04.47,0,.11.4,0,.67-.24.73-.16.03-.33,0-.49,0-.07-.41.01-.68.26-.73ZM368.01,113.93c-.25-.08-.33-.33-.21-.74.01-.04.32-.03.47,0,.25.06.34.33.21.73-.01.05-.31,0-.47,0ZM369.17,116.15s-.32.03-.47,0c-.25-.06-.34-.33-.21-.73.01-.05.31,0,.47,0,.24.08.34.34.21.73ZM369.29,104.86c1.17.88.87,2.05.79,3.18-.02.25-.43.64-.7.68-.66.1-1.34.05-2.01.03-.37-.01-.91-.62-.92-1-.01-.34.02-.68.02-1.01,0-.95,0-.95.8-1.7.96-.93,1.13-.85,2.03-.18ZM363.88,91.23c.29-.95,1.22-1.22,1.88-.56.12.12.23.24.35.36.23.24.58.45.67.74.08.26-.04.66-.21.92-.3.47-1.06.73-1.29.5-.48-.47-.96-.96-1.41-1.47-.08-.09-.04-.34,0-.5ZM365.08,117.2c.29.25.45.48.37.85-.06.29-.29.34-.72.3-.5-.05-1-.02-1.5-.02,0-.17,0-.33.01-.5.19-.26.34-.56.57-.77.38-.35.84-.24,1.28.14ZM362.93,107.45c.14.05.29.21.34.35.1.3.13.62.18.93-.31-.07-.63-.1-.92-.21-.14-.05-.24-.23-.35-.35-.06-.31-.11-.62-.17-.93.31.06.63.1.92.21ZM343.81,96.05c.4-.11.67-.02.72.23.03.16.03.46-.01.47-.4.11-.65.02-.73-.23,0-.16-.03-.46.02-.47Z"/><path class="cls-2" d="M277.31,183.23c2.65,0,3.58-1.21,3.58-2.77v-1.27c0-1.56-.92-2.77-3.58-2.77s-3.58,1.21-3.58,2.77v1.27c0,1.56.92,2.77,3.58,2.77Z"/><path class="cls-2" d="M277.31,200.66c10.79,0,15.75-7.67,15.75-20.83s-4.96-20.83-15.75-20.83-15.75,7.67-15.75,20.83,4.96,20.83,15.75,20.83ZM274.21,163.52c.4-.11.65-.01.73.23,0,.16.03.46-.02.47-.4.11-.67.02-.72-.23-.03-.15-.03-.46.01-.47ZM270.39,176.08c0-6.4,1.79-10.27,6.92-10.27s6.92,3.87,6.92,10.27v7.5c0,6.4-1.79,10.27-6.92,10.27s-6.92-3.87-6.92-10.27v-7.5Z"/><path class="cls-2" d="M235.14,172.16c.87-3.06,2.77-5.65,6.64-5.65,3.35,0,5.54,1.79,5.54,5.14v.58c0,3.06-1.79,5.54-6.17,9.29l-12.69,10.56v7.9h28.96v-7.27h-19.38l7.67-5.94c6.06-4.62,10.85-8.94,10.85-15.63s-5.08-12.12-13.9-12.12-13.27,4.73-15.06,10.27l7.56,2.89Z"/><path class="cls-2" d="M832.4,191.34c9.29,0,15.29-5.88,15.29-14.08,0-7.67-5.19-12.58-11.94-12.58-5.25,0-7.67,3-9.12,6.06l-.52-.17c1.67-7.79,7.62-13.21,17.6-20.19h-11.94c-6.98,4.67-14.71,13.67-14.71,24.98,0,9.69,5.65,15.98,15.35,15.98ZM826.06,177.5c0-3.98,2.37-6.17,6.29-6.17s6.35,2.19,6.35,6.17v.81c0,3.98-2.19,6.29-6.35,6.29s-6.29-2.31-6.29-6.29v-.81ZM819.83,171.98c-.36.27-.65.26-.82.04-.06-.17-.2-.45-.16-.48.36-.26.67-.27.81-.03.09.15.21.45.16.48Z"/><path class="cls-2" d="M796.63,157.19c3.35,0,5.54,1.79,5.54,5.14v.58c0,3.06-1.79,5.54-6.17,9.29l-12.69,10.56v7.9h28.96v-7.27h-19.38l7.67-5.94c6.06-4.62,10.85-8.94,10.85-15.63s-5.08-12.12-13.9-12.12-13.27,4.73-15.06,10.27l7.56,2.89c.87-3.06,2.77-5.65,6.64-5.65ZM796.44,179.57c-.36.26-.65.26-.82.04-.06-.17-.2-.45-.16-.48.36-.26.67-.27.81-.03.09.14.2.45.16.48ZM806.77,160.09c1.05.32,1.24,1.13.52,2.06-.1.12-.31.14-.47.21q-.37-.08-.88-1.65c-.05-.17-.1-.33-.15-.5.33-.05.7-.2.99-.12Z"/><path class="cls-3" d="M373.55,271.97c-.07-3.57-.15-7.1-.24-10.56-.29.09-.57.19-.86.2-.5.02-.89-.25-1.15-.69-.21-.34-.15-.64.14-.92.11-.11.18-.28.26-.43.09-.14.18-.29.26-.43.31-.52.77-.76,1.17-.56.04.02.07.04.1.06-.96-31.11-3.87-55.15-21.39-45.77-32.94,17.62-90.93,49.55-90.93,49.55v160.11h17.41s0-37.92,0-37.92c27.04-11.78,47.77-19.27,62.88-28.87,0-.03-.02-.07-.02-.1,0-.15.05-.3.08-.45.09-.14.14-.34.27-.42.26-.17.56-.39.84-.39.12,0,.16.25.11.54,22.51-14.8,32.06-34.91,31.07-82.96ZM276.4,325.93c-.36.21-.63.19-.75-.04-.07-.14-.15-.43-.11-.45.36-.21.62-.18.75.04.04.16.14.43.1.45ZM342.37,270.78c.16-.04.43-.15.45-.11.2.35.18.64-.05.75-.14.07-.43.16-.45.12-.2-.36-.17-.62.05-.76ZM323.48,237.06c.13-.16.61-.05.94-.06.34,0,.69-.06,1.01.02.5.11.81.48.95.97.11.39-.02.66-.37.86-.14.08-.25.23-.37.35-.12.12-.25.23-.36.35-.44.43-.95.55-1.29.25-.24-.21-.48-.48-.57-.76-.09-.3,0-.67,0-1,0-.34-.1-.77.06-.98ZM285.87,359.67c-.36.21-.64.19-.75-.04-.07-.14-.15-.43-.11-.45.36-.21.62-.18.75.04.04.16.14.43.1.45ZM292.57,375.29s-.08-.29-.11-.45c.02-.26.24-.41.65-.4.05,0,.11.3.11.45,0,.26-.23.41-.64.4ZM303.57,349.92c-.16.04-.43.15-.45.11-.2-.36-.18-.64.05-.75.14-.07.43-.15.45-.12.2.36.17.62-.05.76ZM312.02,361.33c-.26-.02-.4-.24-.38-.65,0-.05.29-.11.45-.11.26,0,.4.23.38.64,0,.04-.29.08-.45.12ZM342.34,341.56c-.36.21-.64.19-.75-.04-.07-.14-.15-.43-.11-.45.36-.21.62-.18.75.04.04.16.14.43.1.46ZM345.36,320.47c-.14.07-.43.15-.45.11-.2-.36-.17-.62.05-.76.16-.04.43-.15.45-.11.2.36.17.64-.05.75ZM278.32,344.77v-42.66c.78-2.67,75.3-44.41,76.95-27.05,4.45,46.74-54.24,60.84-76.95,69.7ZM356.45,296.55c-.36.21-.64.19-.75-.04-.07-.14-.15-.43-.11-.45.36-.21.62-.18.75.04.04.16.14.43.1.46ZM357.22,235.75c-.16,0-.46.04-.47-.01-.11-.4,0-.67.24-.72.16-.04.46-.04.47,0,.11.4,0,.65-.24.73ZM359.87,324.52c-.35.77-.88.96-1.55.56-.51-.3-.67-.73-.45-1.21.35-.77.88-.96,1.55-.56.51.3.67.73.45,1.21Z"/><path class="cls-3" d="M727,371.57s-24.01,1.44-36.48,1.55c-36.48.32-41.87-18.13-41.87-57.26,0-13.9.56-27.69,2.5-38.79-.03-.02-.06-.03-.08-.05-.28-.23-.53-.98-.31-1.17.24-.21.48-.42.73-.62,1.8-9.33,4.67-16.55,9.12-19.96,6.34-4.86,19.74-.71,32.3,4.67-.17-.11-.32-.29-.6-.66-.73-.9-.65-1.04,0-1.77.85-.94,1.84-.59,2.82-.43.21.03.52.43.53.66.03.58-.06,1.16-.14,1.74-.04.32-.6.74-.94.72-.29-.02-.58-.07-.87-.09-.29-.03-.47-.04-.62-.09,13.85,5.95,26.62,13.35,27.71,11.77.47-.69.75-7.81.83-17.21-.11.01-.23,0-.34-.04-.32-.12-.66-.3-.85-.56-.21-.27-.25-.67-.37-1.01-.12-.34-.39-.73-.3-1.01.07-.21.6-.28.92-.4.32-.12.63-.28.96-.34.05-13.4-.24-30.12-.85-39.88-3.6-5.4-36.69-36.42-67.93-13.78-19.54,14.16-22.26,94.41-22.26,120.22,0,46.79-4.13,94.66,45.86,104.76,21.88,4.42,50.52.25,50.52.25v-51.22ZM697.55,230.38c-.27.04-.46-.2-.48-.65,0-.05.31-.12.48-.18.28,0,.46.21.48.66,0,.05-.31.15-.48.17ZM703.62,262.53c-.08.42-.09.87-.14,1.3-.14-.02-.29-.03-.43-.05-.21-.18-.45-.34-.62-.55-.27-.36-.14-.74.22-1.1.24-.23.45-.35.77-.25.25.08.28.27.2.65ZM716.28,232.33c.24-.39.85-.61,1.09-.5.41.19.67.5.75.93.03.14-.02.29-.04.48-.57-.08-1.15-.13-1.72-.25-.21-.04-.28-.37-.09-.66ZM706.84,236.34c.05,0,.14.31.16.48.03.28-.21.47-.65.49-.05,0-.11-.31-.17-.48,0-.28.22-.47.66-.5ZM704.54,225.83c0,.28,0,.56,0,.84-.02.3-.06.6-.08.9-.09.05-.2.17-.28.15-.54-.12-1.14.04-1.64-.33.04-.45.09-.9.13-1.35.02-.14.06-.39.08-.39.6.05,1.2.12,1.8.19ZM702.03,219.3c.09-.21.32-.26.65-.12.04.02,0,.27-.04.41-.07.21-.31.27-.65.12-.04-.02.02-.27.03-.41ZM701.41,258.64c.09-.21.32-.26.65-.12.04.02,0,.28-.04.41-.07.21-.31.26-.65.12-.04-.01.02-.27.03-.41ZM699.45,259.06c.07-.21.31-.27.65-.12.04.02-.02.27-.04.41-.09.21-.32.26-.65.12-.04-.01,0-.28.04-.41ZM697.31,218.21c.11-.09.21-.22.34-.26.13-.04.3,0,.43.05.21.09.26.34.11.67-.06.12-.22.19-.33.28-.19.29-.45.37-.77.22-.32-.15-.21-.6.22-.95ZM692.8,234.84c.39-.43.88-.77,1.36-1.12.09-.07.29-.03.43.02.44.15.68.49.79.93.08.35-.06.58-.38.73-.13.06-.23.18-.35.27-.23.18-.45.38-.69.55-.23.17-.86-.13-1.07-.57-.12-.24-.21-.67-.09-.8ZM691.19,211.58c.13-.23.32-.49.54-.6.23-.11.53-.07.81-.09-.01.15-.03.29-.04.44-.04.43-.07.87-.14,1.3,0,.06-.17.1-.26.15-.32.03-.5-.15-.71-.41-.21-.26-.37-.49-.2-.78ZM686.21,249.15c.02.14-.02.28-.04.42-.36.03-.58-.06-.61-.29-.02-.14,0-.4.04-.41.36-.06.58.04.61.27ZM683.01,222.73c.66-.56,1.34-1.11,2.03-1.64.09-.07.27-.04.41-.02.1.02.19.11.28.17-.04.44-.08.87-.13,1.31-.06.6-.56,1.04-1.12.99-.44-.04-.87-.09-1.31-.16-.08-.01-.19-.14-.2-.22-.02-.14-.04-.35.04-.43ZM680.41,225.95c.26-.21.53-.41.79-.19.44.37.83.81,1.2,1.26.27.32.14.77-.27,1.1-.4.33-.84.34-1.14,0-.2-.22-.38-.46-.57-.7-.14-.25-.32-.48-.4-.75-.1-.33.11-.52.37-.73ZM675.44,218.63c.67.45.98.84,1.34,1.64.05.12.02.31-.04.44-.27.54-1.12.72-1.48.31-.19-.23-.38-.46-.57-.7-.14-.25-.32-.48-.41-.74-.11-.34.1-.52.36-.73.26-.21.51-.4.79-.21ZM672.61,206.08c.16-.33.32-.66.48-.99.08-.42.32-.65.71-.72.31-.05.45.15.56.62.12.53.37,1.02.49,1.55.14.62-.82,1.36-1.47,1.14-.86-.28-1.14-.85-.77-1.61ZM653.87,219.39c.14-.02.4,0,.41.05.07.36-.04.56-.26.61-.14-.02-.4-.01-.41-.05-.07-.36.04-.58.26-.6ZM652.85,229.44c.06-.12.22-.19.33-.28.27-.02.54-.05.82-.07-.08.26-.14.53-.25.78-.05.12-.2.24-.33.27-.26.06-.54.06-.81.08.08-.26.14-.53.25-.78ZM633.65,296.52c-.14.02-.4,0-.41-.05-.07-.36.04-.58.26-.61.14-.01.28.03.42.04.04.36-.05.58-.28.61ZM634.8,265c-.14.02-.4,0-.41-.05-.07-.36.04-.58.26-.61.14-.02.28.03.42.04.04.36-.05.58-.27.61ZM635.34,283.31c-.11-.24-.07-.54-.1-.82.14.02.3,0,.43.06.42.17.68.49.75.93.02.14-.02.29-.04.43-.19.16-.84-.17-1.05-.61ZM637.38,323.94c-.09.12-.26.17-.4.26-.53.32-1.04.27-1.06-.11-.03-.38.16-.6.53-.72.15-.05.27-.22.41-.23.39-.04.64.1.64.35,0,.15-.03.34-.12.45ZM640.97,227.28c-.33-.42-.36-.83-.06-1.14.62-.66,1.45-.5,1.73.34.11.33-.14.81-.56,1.07-.38.24-.77.14-1.11-.27ZM642.13,330.79s.04-.3.11-.43c.11-.22.38-.24.72-.05.04.02-.07.28-.11.43-.13.21-.38.24-.72.05ZM643.37,392.06c-.15-.06-.31-.24-.35-.4-.09-.33-.1-.67-.15-1.01.33.09.68.14.99.27.15.06.25.26.37.4.04.34.09.68.13,1.02-.33-.09-.68-.14-.99-.27ZM647,377.97c-.4.16-1.02-.14-1.37-.64-.32-.47-.22-.96.28-1.4.5-.44,1.01-.49,1.42-.14.86.73.7,1.78-.33,2.18ZM648.11,312.87s-.28-.06-.44-.1c-.21-.13-.24-.38-.04-.72.02-.04.3.04.43.1.22.11.24.37.04.71ZM656.45,392.14c-.44.1-.71-.01-.78-.29.01-.18,0-.5.04-.51.44-.1.73.01.77.29.03.17.01.5-.03.51ZM698.54,373.73s-.27-.02-.41-.04c-.21-.09-.27-.32-.13-.65.01-.04.27,0,.41.05.21.07.27.32.13.65ZM715.73,376.13c-.07.21-.31.27-.65.13-.04-.02.02-.27.04-.41.09-.21.32-.26.65-.12.04.02,0,.28-.04.41Z"/><path class="cls-3" d="M406.86,482.12c-.17-.27-.3-.56-.46-.83-.44-.78-.45-.78-.13-1.76.3-1.05.48-1.2,1.22-1.13v-24.14h-26.29c-.18.58-.58.81-1.21.63-.39-.11-.63-.33-.7-.63h-11.28c-.11.27-.19.57-.37.76-.21.22-.54.32-.81.48-.28.15-.6.48-.81.42-.21-.06-.32-.5-.46-.79-.14-.29-.34-.55-.43-.87h-26.97s.05.04.07.07c.04.16.14.43.1.46-.36.21-.63.19-.75-.04-.07-.14-.15-.43-.11-.45.02-.01.04-.02.06-.03h-102.69l-61.85,54.53h87.89v154.65h17.41v-58.75c8.3-5.18,28.18-21.48,62.54-21.97.91-.01,26.16-.02,56.37-.02v-49.06c-2.33,0-4.62,0-6.88,0-.03.17-.2.3-.5.37-.04,0-.13-.23-.21-.37-26.69,0-47.84,0-48.62.02-32.23.43-52.82,15.56-62.72,20.9v-45.78h120.88s-.07-.03-.09-.06c-.1-.11-.24-.36-.21-.39.28-.28.52-.32.7-.15.07.14.24.36.21.39-.11.11-.21.17-.31.21h7.99v-26.29c-.27-.07-.53-.21-.63-.38ZM262.22,574.67c-.39-.02-.61-.16-.6-.4,0-.15.07-.42.12-.43.39,0,.61.14.6.38,0,.15-.08.3-.12.44ZM271.84,589.07c-.12.21-.38.23-.71.03-.04-.02.07-.28.11-.43.14-.2.39-.23.72-.03.04.02-.05.29-.12.43ZM274.72,645.74s-.28-.07-.43-.11c-.2-.13-.23-.38-.02-.72.02-.04.29.04.43.11.21.11.23.38.02.71ZM275.89,615.8c-.04.09-.18.13-.27.19-.54.05-1.08-.85-.81-1.38.04-.09.17-.17.27-.18.54-.07,1.08.84.81,1.37ZM277.85,611.33c-.14.2-.39.23-.72.03-.04-.02.05-.29.12-.42.12-.21.38-.23.71-.03.04.02-.07.28-.11.43ZM387.09,579.53c0,.15-.07.42-.12.42-.39.01-.59-.13-.61-.38.04-.15.08-.42.12-.42.39-.01.61.14.6.38ZM384.58,574.77c.09-.31.18-.61.27-.92,0-.37.18-.61.51-.72.26-.09.41.07.57.46.18.44.46.83.64,1.27.21.52-.52,1.29-1.11,1.2-.78-.12-1.11-.57-.89-1.28ZM382.05,546.36c.23-.07.43.11.51.5,0,.04-.25.15-.38.22-.24.04-.43-.12-.51-.5,0-.04.24-.17.39-.22ZM380.88,564.47c.5-.29.94-.24,1.22.13.6.77.29,1.62-.65,1.78-.37.06-.84-.29-1.04-.78-.19-.45-.02-.85.47-1.13ZM375.79,576.35c.26.13.55.24.79.4.12.08.16.26.24.4-.02.29-.04.59-.06.88-.26-.13-.54-.24-.79-.4-.12-.08-.22-.26-.23-.4-.02-.29.03-.59.05-.88ZM358.17,570.32c.08.14.23.36.21.39-.28.28-.54.33-.7.14-.1-.11-.24-.36-.21-.39.28-.28.53-.31.7-.15ZM350.48,546.21s.28.07.43.11c.2.13.23.38.02.71-.02.04-.29-.04-.42-.11-.21-.11-.23-.38-.03-.71ZM341.92,551.14c.39-.01.61.14.6.38,0,.15-.08.29-.12.44-.39-.02-.61-.15-.6-.39,0-.15.07-.42.12-.42ZM337.23,559.92c.15.04.33.05.44.14.11.09.19.26.22.41.05.24-.14.44-.53.51-.14.02-.3-.08-.45-.12-.38,0-.61-.17-.67-.55-.06-.37.4-.56.98-.39ZM336.46,576.64c.64-.48,1.17-.4,1.54.24.28.48.22.91-.18,1.21-.64.48-1.17.4-1.54-.24-.28-.48-.22-.91.18-1.21ZM325.74,568.07c.14-.43.15-.9.54-1.24.29-.25,1.13-.4,1.29-.13.33.53.68,1.06.91,1.63.08.19-.21.53-.33.79-.28.11-.56.3-.84.31-.3.01-.61-.14-.91-.22-.3-.08-.76-.07-.87-.26-.11-.19.11-.59.21-.88ZM322.24,549.06c.27-.08.59.01.89.03-.04.15-.05.32-.13.45-.25.41-.63.64-1.12.64-.15,0-.3-.07-.46-.11-.13-.23.32-.86.82-1.01ZM317.04,556.11c.18-.59.58-.89.85-.64.27.26.29.55.1.88-.08.13-.05.34-.15.45-.26.29-.53.35-.71.18-.11-.11-.2-.27-.22-.41-.02-.15.08-.3.12-.46ZM316.9,571.68c.24-.05.43.12.51.5,0,.04-.24.17-.39.21-.23.07-.43-.11-.51-.5,0-.04.25-.15.39-.22ZM315.2,565.41c.08-.12.26-.16.4-.25.3.02.59.03.89.05-.14.26-.25.54-.42.78-.08.12-.26.22-.4.23-.29.02-.59-.02-.89-.03.14-.26.25-.55.42-.79ZM308.59,544.62c.39-.01.61.13.6.38,0,.15-.08.29-.12.44-.39-.02-.61-.16-.6-.4,0-.15.07-.42.12-.42ZM308.83,554.75s.17.24.21.39c.07.24-.11.43-.49.52-.04,0-.14-.25-.21-.39-.04-.24.12-.44.5-.52ZM302.47,571.8c.13-.2.39-.23.72-.03.04.02-.05.29-.12.42-.12.21-.38.23-.71.03-.04-.02.07-.28.11-.43ZM323.41,504.17c-.1-.11-.24-.36-.21-.39.28-.28.54-.33.7-.15.1.11.15.27.22.4-.3.26-.55.31-.71.13ZM340.6,508.31s-.14-.25-.21-.39c-.04-.24.12-.44.5-.52.04,0,.17.24.21.39.07.24-.11.43-.49.52ZM351.02,465.5c-.32.52-.75.7-1.2.51-.94-.4-1.09-1.36-.3-1.98.31-.24.92-.16,1.36.19.4.32.45.77.14,1.29ZM351.51,474.39s-.14-.25-.21-.39c-.04-.24.12-.44.5-.52.04-.01.17.24.21.39.06.23-.11.43-.49.52ZM356.99,460.78c-.2.22-.44.4-.67.59-.09-.29-.2-.57-.25-.86-.02-.14.08-.3.12-.46.23-.19.45-.39.68-.58.09.29.2.57.24.86.03.14-.03.34-.13.45ZM366.33,493.14c-.27-.28-.32-.54-.14-.7.11-.1.35-.25.39-.22.27.28.3.53.14.71-.13.07-.36.24-.39.21ZM366.97,497.29c-.1-.11-.24-.36-.21-.39.28-.28.52-.32.7-.15.07.14.23.36.2.39-.28.28-.54.33-.7.14ZM388.59,454.47c.1-.01.24.04.3.12.1.11.21.28.19.41-.05.31-.14.63-.27.91-.05.12-.26.16-.4.24-.1-.04-.24-.05-.31-.12-.39-.45-.06-1.49.48-1.56ZM383.16,483.46c-.07-.14-.23-.36-.21-.39.28-.28.54-.33.7-.15.1.11.24.36.21.39-.28.28-.52.32-.7.15ZM387.99,467.04c-.26-.02-.4-.24-.38-.65,0-.05.29-.11.45-.11.25,0,.41.23.38.64,0,.05-.29.08-.45.12ZM389.9,462.66c-.33,1.05-.53,1.14-1.73.79-.3-.09-.61-.16-.91-.27-.3-.11-.4-.96-.18-1.29.46-.72,1.26-.91,1.94-1.26.21-.11.67.07.88.26.19.17.26.55.26.84,0,.31-.16.62-.25.93ZM393.85,458c-.36.21-.64.19-.75-.04-.07-.14-.08-.31-.12-.47.37-.18.65-.17.76.06.07.14.15.43.11.45ZM399.16,470.77c-.61-.16-1.23-.33-1.83-.54-.11-.04-.19-.26-.23-.41-.2-.91.43-1.57,1.27-1.33.15.04.3.09.46.13.3.09.68.1.89.29.19.17.27.56.26.85-.03.52-.53,1.09-.82,1.01ZM404.03,484.55c-.14.02-.3-.08-.45-.12-.19-.23-.38-.45-.57-.68.28-.09.56-.21.85-.26.14-.02.34.03.44.13.22.2.39.45.58.67-.28.09-.56.21-.85.26Z"/><path class="cls-3" d="M505.24,130.83c.24,12,.46,25.49.67,39.92.03.03.06.05.09.09.26.35.22.73-.07,1.09.26,18.13.5,37.7.72,57.64.02-.04.03-.08.05-.12.11-.22.38-.24.72-.05.04.02-.07.28-.11.43-.12.2-.35.23-.66.08.64,58.85,1.08,120.81,1.32,158.09.08.11.08.27,0,.46.13,21.03.2,34.09.2,34.09h18.53l-.34-115.75c7.54-.76,14.73-1.42,21.54-2.15-23.6,130.02,43.57,126.95,73.07,117.62l-1.18-50.98c-55.67,5.1-67.21,3.19-52.01-69.38,34.22-6.28,54.67-21.5,54.67-80.83,0-108.28-91.2-109.41-117.23-90.25ZM507.15,158.71c-.14-.05-.23-.22-.34-.34-.05-.3-.1-.6-.15-.9.3.07.6.11.89.21.14.05.28.2.33.34.09.29.11.6.16.9-.3-.07-.61-.11-.89-.21ZM523.8,261.24c.4-.02.6.12.62.37-.04.15-.07.43-.12.43-.39.02-.62-.12-.61-.37,0-.15.07-.43.11-.43ZM520.04,312.65s-.3-.04-.43-.1c-.22-.11-.24-.37-.04-.71.02-.04.28.06.43.1.21.13.24.38.04.72ZM519.41,309.64s.3.04.43.1c.22.11.24.37.04.71-.02.04-.28-.06-.43-.1-.21-.13-.24-.38-.04-.72ZM517.08,273.47c.06-.13.18-.23.27-.35.14-.08.27-.22.41-.24.3-.03.64-.08.88.04.21.11-.29.85-.79,1.02-.27.09-.59,0-.89-.01.04-.16.06-.32.12-.46ZM516.86,316.91c.07-.23.53-.5.79-.48.63.05,1.24.24,1.86.4.34.09.71.76.64,1.11-.06.31-.16.62-.23.93-.2.88-.19.88-1.1,1.4-1.08.66-1.22.54-1.9-.27-.89-1.06-.37-2.07-.06-3.1ZM513.14,415.13c-.45.07-.73-.03-.78-.31-.03-.17-.01-.5.03-.51.45-.1.73.01.77.29.03.17-.02.36-.03.53ZM514.89,350.85c-.08-.06-.15-.19-.15-.29,0-.15.04-.35.14-.44.25-.2.53-.37.82-.49.12-.05.3.06.46.1.05.1.15.2.14.3-.02.6-.97,1.15-1.41.83ZM516.43,383.46c-.39.02-.62-.12-.62-.37,0-.15.07-.3.11-.45.4.01.62.14.62.39,0,.15-.07.43-.11.43ZM517.17,333.82c-.08-.14-.16-.27-.25-.41-.16-.27-.44-.54-.46-.82-.02-.26.18-.6.39-.8.38-.37,1.13-.45,1.3-.19.35.54.68,1.08.98,1.65.06.11-.03.32-.11.46-.47.81-1.38.87-1.84.12ZM521.38,357.6c-.64.5-1.17.43-1.56-.21-.3-.48-.24-.91.15-1.22.64-.5,1.17-.43,1.56.21.3.48.24.91-.16,1.22ZM521.05,346.38c-.83.22-1.55-.18-2.29-.39-.23-.06-.45-.5-.47-.79-.02-.26.18-.59.38-.8.21-.23.54-.35.82-.52.96-.56,1.17-.49,1.82.59.16.27.34.54.49.82.15.28-.36.98-.74,1.08ZM524.12,319.35c-.27-.12-.55-.23-.8-.39-.12-.08-.23-.25-.24-.39-.03-.29.01-.59.03-.89.27.13.55.23.8.39.12.08.17.26.25.39-.01.3-.03.59-.04.89ZM525.22,309.35c-.23.2-.43.44-.69.58-.42.24-.82.05-1.15-.4-.21-.29-.31-.54-.16-.86.12-.25.34-.26.73-.12.44.15.92.23,1.38.34-.04.15-.08.31-.12.46ZM606.89,406.44c.1.05.21.19.23.3.02.17.03.41-.07.52-.24.28-.52.53-.83.73-.12.08-.36,0-.54-.01-.08-.1-.21-.19-.23-.31-.1-.68.86-1.5,1.43-1.23ZM600.83,412.77c.89-.42,1.79-.11,2.67-.03.27.03.61.48.7.79.08.29-.09.7-.27.98-.2.3-.54.5-.82.75-.97.83-1.22.79-2.18-.29-.24-.27-.5-.54-.72-.83-.23-.29.21-1.19.62-1.38ZM598.14,400.12c.62-.7,1.24-.72,1.81-.08.43.48.46.98.08,1.42-.62.69-1.24.72-1.81.08-.43-.48-.46-.99-.07-1.41ZM583.94,392.85c.06-.52-.04-1.06.33-1.54.27-.36,1.2-.71,1.44-.45.5.53,1.02,1.04,1.41,1.65.13.2-.11.65-.19.98-.29.19-.57.47-.89.55-.34.09-.73-.02-1.09-.03-.37-.02-.88.1-1.05-.1-.17-.19,0-.69.04-1.06ZM575.54,372.01c.29-.15.67-.12,1.02-.17-.01.18.01.38-.05.54-.19.53-.58.87-1.12.99-.17.04-.36-.01-.54-.02-.21-.23.16-1.06.7-1.35ZM571.32,392.27c.07-.15.26-.25.4-.37.34-.05.68-.1,1.03-.15-.09.33-.16.68-.29.99-.06.15-.24.31-.4.36-.33.1-.68.12-1.02.17.09-.33.16-.68.29-.99ZM599.91,172.4c.31-.63.82-.9,1.08-.56.26.34.22.67-.06,1.01-.11.14-.12.38-.25.48-.35.28-.67.3-.83.07-.1-.14-.18-.34-.17-.51.01-.17.14-.33.22-.49ZM596.83,189.94c.28,0,.46.21.48.66,0,.05-.31.15-.48.17-.28.03-.46-.21-.48-.66,0-.05.31-.12.48-.18ZM590.91,169.33s.14.31.16.48c.03.28-.21.47-.65.49-.05,0-.11-.31-.17-.48,0-.28.22-.47.66-.5ZM583.25,174.11c.03.15.03.44-.02.46-.39.11-.65.01-.69-.23-.03-.15,0-.31.01-.47.4-.07.65,0,.7.25ZM582.13,145.52c.07-.24.33-.33.71-.21.04.01,0,.3-.01.46-.09.24-.33.33-.71.21-.04-.01-.02-.3.02-.46ZM570.55,154.89c.05-.14.21-.29.35-.33.29-.1.6-.13.9-.18-.07.3-.12.61-.23.89-.05.14-.23.23-.34.34-.3.05-.6.11-.91.17.07-.3.12-.61.23-.89ZM567.58,173.1c.15-.48.48-.79.97-.92.15-.04.32,0,.48,0,.19.2-.11.95-.58,1.22-.25.14-.59.13-.9.18,0-.16-.02-.33.03-.48ZM557.66,154.67c.25-.18.49-.44.77-.52.3-.09.65,0,.97,0,.33,0,.78-.11.94.05.16.17.03.62,0,.94-.04.46.07.94-.25,1.38-.23.33-1.04.67-1.27.45-.46-.45-.94-.9-1.31-1.42-.12-.17.08-.58.14-.88ZM548.18,175.61c.03.15.03.44-.02.46-.39.11-.65.01-.7-.23-.03-.15,0-.31.01-.47.4-.07.65,0,.7.25ZM545.78,147.99c.53-.64,1.08-.68,1.61-.13.4.42.44.86.11,1.26-.53.64-1.08.68-1.61.13-.4-.42-.44-.86-.11-1.26ZM541.91,136.5c.17-.27.46-.46.7-.69.83-.77,1.06-.74,1.94.19.22.24.46.46.67.71.21.25-.15,1.06-.51,1.25-.78.4-1.59.15-2.38.11-.24-.01-.56-.4-.64-.68-.08-.25.06-.63.21-.88ZM540.55,142.37c.07.09.19.17.21.27.11.6-.72,1.36-1.23,1.14-.09-.04-.19-.16-.21-.26-.03-.15-.04-.36.04-.47.2-.25.45-.49.71-.67.11-.08.32,0,.48,0ZM537.34,124.27c.3-.45,1.03-.7,1.26-.47.46.46.92.94,1.34,1.43.08.09.04.33-.01.48-.29.92-1.19,1.17-1.82.52-.11-.12-.22-.24-.34-.36-.22-.24-.56-.44-.64-.72-.08-.25.05-.64.21-.89ZM543.87,303.94c-.4.02-.6-.12-.62-.37.04-.15.07-.43.11-.43.4-.02.62.12.62.37,0,.15-.07.43-.11.43ZM550.21,389.31c-.4.02-.62-.12-.61-.37,0-.15.07-.3.11-.45.4.01.62.14.61.39,0,.15-.07.43-.11.43ZM555.79,361.74c-.13.21-.38.24-.72.05-.04-.02.04-.3.11-.43.11-.22.38-.24.72-.05.04.02-.07.28-.11.43ZM557.29,337.95c-.15,0-.43-.06-.43-.1-.01-.39.13-.6.38-.62.15.04.43.07.43.11.01.39-.13.62-.38.61ZM559.08,402.82c-.08.27-.38.35-.81.2-.05-.02.02-.33.03-.51.11-.26.39-.35.81-.2.05.02.01.34-.04.51ZM559.7,370.95c-.45.06-.73-.03-.78-.31-.03-.17-.01-.5.04-.51.44-.1.73.01.77.29.03.17-.02.35-.03.53ZM558.87,293.17c-.02-.39.13-.6.38-.62.15.04.43.06.43.11.01.39-.13.62-.38.61-.15,0-.43-.06-.43-.1ZM559.9,334.26c-.4.02-.6-.12-.62-.37.04-.15.07-.43.12-.43.39-.02.62.12.61.37,0,.15-.06.43-.11.43ZM567.91,291.5c-.13.21-.39.24-.73.05-.04-.02.04-.3.11-.43.11-.22.38-.24.72-.05.04.02-.07.28-.1.44ZM582.63,287.33s-.3-.04-.43-.1c-.22-.11-.24-.37-.04-.71.02-.04.28.06.44.1.21.13.24.38.04.72ZM599.64,264.47c-.28.16-.55.33-.83.5-.26.27-.55.33-.87.19-.26-.11-.26-.33-.11-.73.16-.45.22-.93.38-1.38.19-.53,1.26-.6,1.63-.13.5.62.43,1.18-.21,1.55ZM526.37,262.58v-82.48c60.42.32,83.26,23.26,82.68,47.55-.96,39.84-43.81,34.93-82.68,34.93Z"/><path class="cls-3" d="M669.57,546.01c-28.1-9.33-64.3-12.17-64.3-26.94s59.16-14.56,87.9-9.36c.41-13.9-.42-42.52,0-56.42-14.29-2.31-57.05-8.61-87.08,2.14.06.15.07.31.02.5-.08.31-.33.36-.8.29-.37-.06-.75-.07-1.12-.08-19,7.4-32.35,22.07-29.01,49.65,6.72,55.56,127.13,46.38,127.51,92.91.2,24.8-42.06,20.71-118.82,7.07v57.66c82.31,6,133.18,13.9,133.18-63.92,0-28.14-21.24-44.79-47.47-53.5ZM677,490.05c.08-.27.38-.35.81-.21.05.02-.02.33-.03.51-.11.26-.39.35-.81.2-.05-.02-.02-.35.04-.51ZM672.61,475.88c.17-.03.5-.02.51.03.1.44-.03.71-.3.78-.18,0-.5.02-.51-.03-.1-.44.02-.73.3-.77ZM658.75,451.82s.34,0,.51.02c.26.1.35.38.19.81-.02.05-.34.02-.51-.03-.27-.08-.35-.37-.19-.8ZM652.29,498.13s.33.01.51.02c.26.1.35.38.19.81-.02.05-.34.02-.51-.03-.27-.08-.35-.37-.19-.8ZM649.18,452.91c.57.03,1.13.06,1.7.09.17.01.49.05.49.07-.03.75-.08,1.51-.14,2.26-.35.01-.7.04-1.04.04-.38,0-.75-.04-1.13-.06-.07-.11-.22-.24-.2-.34.11-.69-.11-1.42.32-2.07ZM642.94,470.52c.04-.26.45-.37.82-.15.5.28.81,1.03.69,1.34-.21.52-.58.86-1.12,1-.17.04-.36,0-.6-.02.07-.72.1-1.44.21-2.16ZM619.34,494.18c.29-.15.67-.12,1.01-.17-.01.18,0,.37-.04.55-.04.16-.15.3-.23.45-.14.12-.26.31-.42.35-.33.1-.71.22-1.01.14-.26-.08.16-1.03.69-1.31ZM614.48,509.01c.44-.1.73.01.77.29.03.17.01.5-.04.51-.44.1-.71-.02-.78-.29.01-.18,0-.5.04-.51ZM579.34,515.96s-.33-.01-.51-.02c-.26-.1-.35-.38-.19-.81.02-.05.34-.02.51.03.27.08.35.37.19.8ZM592.38,522.5c-.62.69-1.24.72-1.81.08-.43-.49-.46-.99-.08-1.42.62-.69,1.24-.72,1.81-.08.43.48.46.98.08,1.42ZM604.61,530.98c-.18,0-.5.01-.51-.03-.09-.44.02-.73.3-.78.17-.03.5-.02.51.03.1.44-.03.71-.3.78ZM641.12,542.3c-.08.27-.38.35-.81.2-.05-.02.02-.33.03-.51.11-.26.39-.35.81-.2.05.01.01.34-.04.51ZM654.58,545.68c-.44.1-.71-.02-.78-.29.01-.18,0-.5.04-.51.44-.1.73.01.77.29.03.17.01.5-.03.51ZM664.25,559.75c-.12.1-.38.23-.41.2-.26-.31-.28-.57-.1-.74.15-.07.39-.23.42-.19.26.3.29.58.09.73ZM670.28,551.33c-.44.11-.73-.01-.77-.29-.03-.17-.02-.5.04-.51.44-.11.71.01.78.28-.01.18,0,.5-.04.51ZM589.67,656.1c-.33-.03-.66-.04-.99-.06-.38.08-.65-.04-.84-.35-.15-.24-.02-.43.33-.68.4-.28.73-.65,1.13-.93.47-.33,1.41.23,1.45.84.06.81-.33,1.24-1.08,1.18ZM601.12,627.7s-.2-.22-.31-.34c-.1-.23.02-.46.39-.62.04-.02.23.2.3.34.12.22-.01.45-.38.62ZM603.97,617.7c-.23.1-.46-.02-.64-.38-.02-.04.21-.22.34-.3.22-.12.46.02.63.38.02.04-.22.2-.34.3ZM609.96,624.89c-.09-.12-.22-.39-.19-.41.3-.27.56-.29.73-.11.07.14.22.39.18.42-.3.27-.58.3-.73.1ZM615.59,618.26c-.07-.15-.22-.39-.18-.42.3-.27.57-.3.73-.1.09.12.22.38.19.41-.3.27-.56.29-.73.11ZM622.55,634.01c-.97-.19-1.21-.91-.65-1.8.08-.12.27-.16.41-.23q.34.04.94,1.41c.06.15.12.29.18.44-.29.07-.61.24-.88.19ZM625.47,655.57c-.09-.12-.22-.39-.19-.42.3-.27.56-.29.73-.1.07.14.22.39.18.42-.3.27-.58.3-.73.1ZM630.31,616.02c-.09-.12-.22-.38-.19-.41.3-.27.56-.29.73-.11.07.15.22.39.18.42-.3.27-.58.3-.73.1ZM641.4,642.74c-.15.07-.39.22-.42.19-.26-.31-.29-.58-.09-.74.12-.1.38-.23.41-.2.26.31.28.57.1.74ZM651.69,652.12c-.25.03-.43-.15-.49-.55,0-.04.26-.16.41-.2.25-.05.43.14.49.55,0,.04-.27.13-.41.2ZM676.4,627.44c-.09-.12-.22-.38-.19-.41.3-.27.56-.29.73-.11.07.14.22.39.18.42-.3.27-.58.3-.73.1ZM679.61,641.02c-.16.24-.48.38-.72.56-.07-.15-.16-.29-.2-.45-.03-.14,0-.3,0-.45.06-.15.07-.35.18-.45.22-.21.46-.48.73-.53.23-.05.31.87.02,1.32ZM702.21,607.52c-.24.05-.43-.14-.49-.55,0-.04.27-.13.41-.2.25-.03.43.15.49.55,0,.04-.26.16-.41.2ZM706.02,582.16s-.2-.22-.3-.33c-.09-.23.03-.45.39-.61.04-.02.22.2.29.33.11.22-.02.45-.38.61Z"/><path class="cls-3" d="M420.88,454.25l-.1,35.52c-.06,27.48-1.1,54.96-2.5,82.4-.45,8.7-.48,16.65-.14,23.93.08-.05.17-.09.3-.12.04-.01.17.24.21.39.06.23-.11.42-.47.51,1.54,30.47,9.59,48.93,20.43,59.61,6.35,6.26,22.56,9.08,41.27,10.07-.02-.1-.03-.21-.02-.32,0-.16.02-.33.03-.49.02-.33-.06-.71.09-.96.13-.23.5-.4.79-.45.53-.09,1.21.28,1.2.6-.02.58-.06,1.15-.12,1.72,36.75,1.67,82.07-3.4,82.07-3.4v-58.58l-36.08,4.45c.3.2.38.43.26.63-.12.1-.31.32-.35.29-.34-.21-.45-.47-.3-.67.06-.08.16-.18.24-.24l-31.47,3.88c-3.43.55-6.67,1.05-9.77,1.51.12.04.23.08.34.15.13.08.22.23.36.39-.49.41-.97.84-1.49,1.22-.19.14-.51-.05-.61-.42-.12-.43.08-.97.31-1.18-36.08,5.25-49.62,2.81-49.06-31.81h107.48v-49.06h-56.35c.09.12.2.31.17.34-.28.28-.52.32-.7.15-.07-.14-.23-.36-.21-.39.04-.04.08-.06.11-.09h-48.49v-19.8s-.07.04-.1.05c-.22.06-.36-.82-.1-1.28.05-.08.13-.15.2-.21v-3.82h36.57s.03-.07.06-.1c.14-.08.36-.24.39-.21.11.11.17.21.21.31h77.75l10.75-54.54h-143.19ZM554.21,627.81s.2.22.31.34c.1.23-.02.46-.39.63-.04.02-.23-.2-.3-.34-.12-.22.02-.46.38-.63ZM550.14,615.5c.83-.05,1.23.32,1.19,1.09-.03.58-.33.91-.84.94-.83.04-1.23-.33-1.19-1.09.03-.58.33-.91.84-.94ZM546.94,659.61c.22-.12.46.02.63.38.02.04-.22.2-.34.3-.23.1-.46-.02-.64-.39-.02-.04.21-.22.34-.3ZM539.33,656.12c.11.12.32.31.3.34-.22.34-.47.44-.68.29-.13-.09-.33-.3-.3-.34.22-.34.46-.43.68-.3ZM519.44,656.05c.12-.1.31-.32.35-.29.34.21.45.47.3.67-.09.12-.31.32-.34.3-.34-.21-.44-.46-.31-.67ZM515.02,615.47c.13-.07.29-.09.43-.13.16.01.36-.03.49.04.27.15.59.31.72.55.11.21-.74.55-1.26.39-.28-.08-.5-.35-.74-.53.12-.11.23-.24.37-.32ZM499.64,648.65c.25-.14.43-.02.68.32.28.39.64.73.96,1.09-.12.11-.24.21-.37.32-.31.03-.62.12-.92.09-.5-.04-.71-.44-.73-1-.01-.37.06-.63.37-.82ZM495.86,647.23s.23.21.3.34c.12.22-.02.45-.38.62-.04.02-.2-.22-.31-.34-.1-.23.02-.46.39-.63ZM494.72,649.17s.2.22.31.34c.1.23-.02.46-.39.63-.04.02-.23-.21-.3-.34-.12-.22.01-.45.38-.62ZM493.72,656.88c.15-.26.36-.49.55-.73.15.26.33.52.45.8.06.13,0,.32-.02.48-.19.24-.37.48-.56.72-.15-.26-.33-.52-.45-.79-.06-.13-.04-.34.03-.47ZM489.47,651.85c.19-.15.74-.1.94.06.5.41.91.93,1.33,1.42.23.27.15,1.05-.11,1.31-.23.23-.49.43-.74.65-.68.62-.68.63-1.74.53-1.29-.08-1.34-.25-1.44-1.33-.13-1.41.9-1.96,1.76-2.64ZM471.58,635.65c-.05.15-.03.32-.04.49-.02.33-.03.66-.07.98-.04.32-.75.6-1.27.44-.28-.08-.71-.33-.72-.53-.06-.65.03-1.31.1-1.96.01-.13.2-.26.34-.33.45-.25.91-.19,1.35.05.35.2.43.49.31.86ZM476.26,653.18c.13.09.22.23.32.35-.25.32-.49.43-.69.29-.13-.09-.33-.3-.3-.34.22-.34.47-.44.68-.3ZM470.93,620.63c.23.21.46.41.68.64.23.24.45.5.68.75-.03.12-.02.29-.09.34-.5.36-.83.97-1.5,1.09-.34-.38-.68-.75-1.01-1.13-.1-.12-.28-.34-.26-.36.49-.46,1-.89,1.51-1.33ZM464.08,617.15s.23.2.3.34c.12.22-.02.45-.38.62-.04.02-.2-.22-.31-.33-.1-.23.02-.46.39-.63ZM444.12,658.89c-.46.19-.86.03-1.13-.45-.28-.49-.23-.93.14-1.22.78-.6,1.64-.3,1.79.62.06.36-.3.84-.8,1.05ZM459.29,620.35c.07-.13.22-.25.36-.32.23-.11.48.05.63.41.06.14,0,.32-.02.48.09.38-.04.65-.4.8-.36.15-.65-.28-.62-.9,0-.16-.02-.34.04-.48ZM455.96,640.71c-.03.58-.36.94-.85.94-.33,0-.66-.04-1-.06-.31-.07-.63-.1-.91-.24-.35-.16-.34-.48-.32-.85.02-.38.05-.74.43-.79.64-.09,1.29-.07,1.94-.04.46.02.74.47.7,1.05ZM452.37,633.05c0-.13.17-.26.29-.35.09-.07.23-.07.35-.11.33.36.65.72.98,1.09.44.5.43,1.24-.03,1.66-.36.33-.73.65-1.11.95-.07.06-.25.05-.33,0-.13-.08-.32-.24-.32-.35.03-.97.1-1.93.18-2.89ZM449.12,619.96c.08-.27.35-.49.53-.73.11.12.22.24.32.36.32.36.66.71.96,1.09.05.06-.04.21-.07.33-.22.29-.5.29-.87.27-.37-.02-.68-.06-.79-.43-.09-.28-.16-.63-.09-.9ZM442.72,639.88c.03-.37.05-.72.42-.81.88-.21,1.43-.17,2.35.13.14.04.27.22.33.36.24.63-.25,1.46-.85,1.45-.33-.01-.66-.04-1-.06-.31-.07-.63-.1-.92-.22-.36-.16-.36-.47-.33-.85ZM439.22,655.19c.14-.2.39-.23.72-.03.04.02-.05.29-.12.42-.12.21-.38.23-.71.03-.04-.02.07-.28.11-.43ZM423.63,558.42c-1.02.07-1.59-.68-1.18-1.55.16-.35.74-.55,1.28-.45.51.09.76.46.72,1.04-.04.58-.33.93-.82.97ZM425.84,562.4c-.23.1-.46-.02-.64-.38-.02-.04.21-.22.34-.3.22-.12.46.02.63.38.02.04-.22.2-.34.3ZM428.69,467.02c-.3-.09-.62-.16-.91-.27-.29-.1-.41-.84-.15-1.3.14-.25.47-.6.66-.57.63.08,1.23.31,1.83.51.12.04.2.24.25.39.14.48-.01.91-.34,1.27-.26.29-.55.3-.88.11-.13-.08-.3-.09-.45-.14ZM430.22,546.83c-.54-.16-.79-.51-.71-1,.13-.79.57-1.1,1.29-.89.54.15.79.51.71,1-.13.79-.57,1.1-1.29.89ZM434.73,607.91c-.08.13-.09.3-.14.46-.04.15-.09.31-.13.46-.16.56-.52.89-.93.8-.29-.06-.61-.17-.82-.36-.22-.2-.31-.54-.46-.82-.15-.28-.44-.58-.4-.83.03-.19.47-.33.74-.48.27-.16.53-.36.83-.45.46-.14.88.01,1.23.35.27.26.29.55.1.88ZM542.15,553.41s.34.01.51.02c.26.1.35.38.19.81-.02.05-.34.02-.51-.03-.27-.07-.35-.37-.19-.8ZM532,572.4c.22-.12.46.02.63.38.02.04-.22.2-.34.3-.23.1-.47-.02-.64-.38-.02-.04.21-.22.34-.3ZM525.33,562.11c.09-.12.3-.32.34-.3.34.21.43.46.31.67-.12.1-.31.32-.35.29-.34-.21-.45-.47-.3-.67ZM519.02,548.67c.12-.1.31-.32.35-.29.34.21.45.46.3.67-.09.12-.3.32-.34.3-.34-.21-.44-.45-.31-.67ZM511.09,545.17c.09-.13.31-.32.34-.3.35.21.44.46.31.67-.12.1-.31.32-.35.29-.34-.21-.45-.47-.3-.67ZM507.48,558.66c.13.04.23.21.34.32q.06.33-1.08,1.3c-.12.1-.24.2-.36.3-.15-.26-.41-.52-.43-.79-.09-.98.52-1.42,1.54-1.13ZM503.31,579.63c.13.09.33.3.3.34-.22.34-.46.43-.68.3-.11-.12-.33-.31-.3-.34.22-.34.47-.44.68-.3ZM486.15,568.69c.09-.12.31-.32.34-.3.34.21.43.46.31.67-.12.1-.31.32-.35.29-.34-.21-.45-.47-.3-.67ZM476.94,582.33s-.21.23-.34.3c-.22.12-.46-.02-.64-.38-.02-.04.22-.2.34-.3.23-.1.47.02.64.38ZM476.03,537.53s.17.24.21.39c.06.24-.11.43-.49.52-.04,0-.14-.25-.21-.39-.04-.24.12-.44.5-.52ZM457.77,557.27c.11-.1.35-.25.38-.22.28.28.31.53.14.71-.13.07-.36.24-.39.21-.27-.28-.32-.54-.14-.71ZM443.83,545.99c.11-.1.36-.25.39-.22.27.28.31.53.14.71-.13.08-.36.24-.39.21-.27-.28-.32-.54-.14-.71ZM440.21,570.54c.1.11.24.36.21.39-.28.28-.52.31-.7.15-.07-.14-.24-.36-.21-.39.28-.28.54-.33.7-.14ZM442.78,470.25c-.28.17-.57.32-.85.48-.11-.05-.27-.08-.31-.16-.23-.55-.74-.99-.72-1.66.43-.24.85-.48,1.28-.72.13-.07.39-.19.39-.17.33.56.63,1.14.94,1.72-.25.17-.49.35-.75.51ZM445.76,486.06c-.1.11-.27.16-.45.26-.28-.56-.59-1.1-.84-1.67-.09-.21.16-.47.53-.49.49-.02,1.07.38,1.12.66.09.48-.03.9-.36,1.24ZM445.98,459.68c-.14.02-.3-.08-.45-.12-.38,0-.61-.17-.67-.55-.06-.37.4-.56.98-.39.15.04.33.05.44.14.11.09.19.26.22.41.05.24-.14.44-.53.51ZM447.9,464.2c-.23.07-.43-.11-.51-.5,0-.04.25-.15.38-.22.24-.04.43.12.51.5,0,.04-.24.17-.39.22ZM463.76,476.86s.34.01.51.02c.26.1.35.38.19.81-.02.05-.34.02-.51-.03-.27-.08-.35-.37-.19-.8ZM464.54,501c-.23.07-.43-.11-.51-.5,0-.04.25-.15.39-.22.24-.04.43.12.51.5,0,.04-.24.17-.38.22ZM466.81,455.83c-.08.27-.38.35-.81.2-.05-.02.02-.33.03-.51.11-.26.39-.35.81-.2.05.02.01.34-.04.51ZM469.14,475.38c-.13.08-.36.24-.39.21-.27-.28-.32-.54-.13-.7.11-.1.35-.25.38-.22.27.28.31.53.14.71ZM474.82,462.55c-.16.08-.26.3-.42.35-.44.12-.74.02-.8-.26-.04-.17-.03-.39.04-.54.08-.15.26-.25.4-.37.54-.47,1.12-.51,1.23-.1.11.42-.06.72-.45.92ZM478.56,483.6s-.17-.25-.21-.39c-.06-.24.11-.43.49-.52.04,0,.14.25.21.39.04.24-.12.44-.5.52ZM489.04,495.78c-.07-.14-.23-.36-.2-.39.28-.28.54-.33.7-.15.1.11.24.36.21.39-.28.28-.52.31-.7.15ZM491.76,478.89c-.1.27-.42.35-.83.18-.15-.06-.25-.26-.37-.4-.37-.22-.49-.55-.32-.95.17-.4.74-.3,1.2.22.12.14.29.25.35.41.06.16.03.37-.03.54ZM505.48,501.57c-.44.1-.73-.01-.77-.29-.02-.17-.01-.5.04-.51.44-.1.71.02.78.29,0,.18,0,.5-.04.51ZM538.26,458.79c-.03.11-.17.19-.27.28-.6.18-1.43-.72-1.25-1.38.03-.11.16-.24.27-.27.59-.2,1.43.71,1.25,1.37ZM543.9,493.17s-.34-.01-.51-.02c-.26-.1-.35-.38-.19-.81.02-.05.35-.02.51.03.27.08.35.37.19.8Z"/><path class="cls-3" d="M490.85,265.34c0-43.08-.22-142.58-65.22-98.8-43.12,29.04-38.9,85.76-38.9,149.84,0,67.73,6.71,111.53,59.14,111.53s44.99-69.84,44.99-162.57ZM476.82,370.87c-.5.3-.94.26-1.24-.1-.62-.76-.32-1.63.62-1.81.37-.07.85.27,1.07.76.2.45.04.86-.45,1.15ZM476.06,344.14c.12-.11.15-.33.27-.42.35-.23.64-.21.77,0,.08.14.13.33.11.48-.02.15-.16.29-.25.43-.34.55-.83.75-1.04.41-.21-.34-.14-.64.14-.92ZM484.93,348.26s-.1-.29-.11-.45c0-.26.23-.41.64-.39.05,0,.08.29.11.45-.02.26-.24.41-.65.4ZM489.84,264.65s.3.04.43.1c.22.11.24.37.04.72-.02.04-.28-.06-.44-.1-.21-.13-.24-.38-.04-.72ZM487.71,251.24c.15,0,.43.06.43.1.01.39-.13.6-.38.62-.15-.04-.43-.07-.43-.11-.01-.39.13-.62.38-.62ZM484.58,302.19c.3.04.6.07.9.13.32.06.64.15.96.22.04.11.15.24.12.32-.2.57-.12,1.23-.59,1.72-.48-.11-.96-.22-1.44-.34-.15-.04-.41-.12-.41-.14.14-.64.31-1.27.47-1.91ZM483.18,217.21c.39-.02.62.12.61.37,0,.15-.06.43-.11.43-.39.02-.6-.12-.62-.36.04-.15.07-.43.12-.43ZM481.08,327.31c.46-.42,1-.77,1.53-1.11.38-.25.85-.04,1.15.45.29.48.24.96-.16,1.22-.27.18-.55.34-.83.51-.29.11-.57.27-.86.32-.04,0-.08,0-.12,0,0,.01,0,.02,0,.04,0,.05-.29.08-.45.12-.26-.02-.4-.24-.38-.65,0-.02.08-.05.18-.07-.18-.29-.32-.58-.06-.82ZM480.68,357.09c.27.12.55.23.8.39.12.08.23.25.24.4.03.29-.02.59-.03.89-.27-.13-.56-.23-.8-.39-.12-.08-.17-.26-.25-.4.02-.29.03-.59.04-.89ZM479.36,232.1c.13-.04.3.04.45.07q.23.23-.14,1.64c-.04.15-.08.3-.13.44-.27-.13-.61-.19-.79-.39-.62-.74-.37-1.43.61-1.76ZM477.14,303.22s.3.04.43.1c.22.11.24.37.04.71-.02.04-.28-.06-.43-.1-.21-.13-.24-.38-.04-.72ZM476.65,322.07c.03-.11.14-.19.22-.28.46.11.93.21,1.39.33.63.16,1.04.76.9,1.35-.11.46-.22.93-.36,1.38-.02.08-.17.18-.27.19-.15,0-.39-.01-.45-.11-.51-.79-1-1.6-1.47-2.42-.06-.11,0-.3.04-.44ZM474.85,218.83c.4-.02.6.12.62.37-.04.15-.07.43-.12.43-.4.02-.62-.12-.61-.37,0-.15.06-.43.11-.43ZM436.67,198.89c.03.16.04.46,0,.47-.4.12-.65.02-.73-.23,0-.16-.03-.46.02-.47.4-.11.67-.02.72.23ZM435.32,163.19c.4-.11.67-.02.72.23.03.16.03.46-.01.47-.4.11-.65.01-.73-.23,0-.16-.03-.46.02-.47ZM428.14,185.03c0-.16.02-.32.03-.49.31.07.68.05.91.22.81.61.72,1.39-.21,1.97-.12.07-.32.02-.48.03q-.29-.19-.24-1.73ZM427.74,202.29c.4-.12.65-.02.73.23,0,.16.03.46-.02.47-.4.12-.67.02-.72-.23-.03-.16-.04-.46.01-.47ZM413.06,197.75c.4-.11.67-.02.72.23.03.16.03.46-.01.47-.4.11-.65.02-.73-.23,0-.16-.03-.46.02-.47ZM389.93,353.58c-.14.07-.43.16-.45.12-.2-.36-.17-.62.05-.76.16-.04.43-.15.45-.11.2.36.18.64-.05.75ZM392.65,283.61c-.25-.02-.4-.24-.38-.65,0-.05.29-.11.45-.11.25,0,.4.23.38.64,0,.05-.29.08-.45.12ZM396.41,348.15s-.1-.29-.11-.45c0-.26.23-.41.64-.39.04,0,.08.29.11.45-.02.26-.24.41-.65.39ZM401.27,195.92c-.06.25-.33.34-.73.22-.04-.01,0-.31,0-.47.09-.25.34-.34.74-.22.04.01.03.31-.01.47ZM409.71,396c-.14.07-.43.15-.45.11-.2-.36-.17-.62.05-.76.16-.04.43-.15.45-.11.2.36.18.64-.05.75ZM410.34,391.3c-.36.21-.62.18-.75-.04-.04-.16-.14-.43-.1-.46.36-.21.63-.19.75.04.07.14.15.43.11.45ZM417.5,421.32c-.07-.14-.24-.36-.21-.39.28-.28.54-.33.7-.14.1.11.24.36.21.39-.28.28-.52.32-.7.15ZM419.19,419.18s-.1-.29-.11-.45c0-.26.23-.41.64-.39.05,0,.08.29.11.45-.02.26-.24.41-.65.4ZM439.49,387.66s-.1-.29-.11-.45c0-.26.23-.41.64-.4.04,0,.08.3.11.45-.02.26-.24.41-.65.4ZM456.49,396.15c-.36.21-.64.19-.75-.04-.07-.14-.08-.31-.12-.47.37-.18.64-.17.76.06.07.14.15.43.11.45ZM458.98,375.95c-.47.34-1.44-.22-1.45-.85,0-.1.1-.21.15-.32.47-.32,1.43.24,1.46.86,0,.1-.08.25-.16.31ZM447.3,373.63c-26.05,12.91-43.95-2.44-43.95-63.7,0-49.83-4.14-74.06,33.16-89.84,27.14-13.86,39.77-8.77,39.77,65.33,0,8.13-.09,15.63-.34,22.56.12.08.17.26.25.39.28.25.33.54.13.86-.1.15-.26.18-.43.13-.33,8.16-.92,15.51-1.92,22.11.17-.07.35-.13.56-.2.13-.04.34.02.46.11.54.37.62,1.31.12,1.64-.27.18-.56.34-.83.51-.23.09-.46.2-.7.28-3.34,19.43-10.64,32.08-26.28,39.83ZM466.23,388.01c-.11.13-.18.29-.26.43-.17.29-.34.58-.53.86-.19.29-1.03.24-1.33-.08-.55-.59-.88-2.13-.58-2.7q.73-1.37,2.18-1.74c.79-.2.72-.18.96.47.38,1.03.27,1.93-.45,2.76ZM470.83,356.18c-.39.02-.62-.12-.61-.37,0-.15.06-.43.11-.43.39-.02.6.12.62.37-.04.15-.07.43-.11.43Z"/><path class="cls-3" d="M840.65,454.25h-132.85v54.53h59.42v154.76l24.21-.11v-154.65h111.07l-61.85-54.53ZM737.52,471.8c.1.12.31.3.29.34-.22.33-.47.42-.67.28-.12-.09-.32-.3-.29-.33.22-.33.46-.41.67-.29ZM717.68,498.31c-.22.28-.49.28-.85.25-.36-.03-.66-.07-.77-.43-.08-.28-.15-.61-.07-.88.08-.26.34-.47.53-.71.1.12.21.24.31.36.31.36.63.71.93,1.08.04.06-.04.21-.07.32ZM726.46,499.12c-.35.14-.63-.28-.59-.89.01-.16-.02-.33.05-.47.07-.13.22-.24.36-.31.23-.1.47.05.61.41.05.13-.01.31-.02.47.08.37-.05.64-.4.78ZM730.55,495.64s-.2-.21-.3-.33c-.09-.23.03-.45.39-.61.04-.02.22.2.29.34.12.21-.02.44-.38.6ZM734.22,466c-.08.27-.38.35-.81.2-.05-.02.02-.33.03-.51.11-.26.39-.35.81-.2.05.02.01.34-.04.51ZM738.51,499.89c-.5.35-.82.93-1.48,1.05-.33-.37-.65-.74-.97-1.12-.1-.11-.27-.34-.25-.35.49-.44.99-.86,1.49-1.29.22.21.45.41.65.63.23.24.43.49.65.74-.03.11-.02.28-.09.33ZM739.89,468.77c-.48.33-.97.24-1.4-.25-.43-.5-.48-1-.12-1.42.75-.87,1.8-.73,2.18.29.15.4-.15,1.02-.66,1.38ZM743.32,461.1c-.22.11-.45-.02-.62-.38-.02-.04.22-.19.34-.29.23-.09.46.03.62.38.02.04-.21.22-.34.29ZM751.78,494.16c-.19.13-.5-.06-.59-.42-.13-.48.15-1.13.42-1.24.45-.18.89-.16,1.3.1.13.08.21.23.35.39-.49.4-.96.81-1.47,1.18ZM763.32,471.61s-.2-.22-.3-.33c-.09-.23.03-.45.39-.61.04-.02.22.2.29.33.11.22-.02.44-.38.61ZM769.11,459.14c-.1-.12-.31-.31-.29-.34.22-.33.47-.43.67-.28.12.09.32.3.29.33-.22.33-.46.41-.67.29ZM775.72,569.61c-.12-.09-.32-.3-.29-.34.22-.33.46-.41.67-.29.1.12.31.3.29.34-.22.33-.47.43-.67.28ZM779.38,653.31s-.16-.26-.19-.42c-.05-.25.15-.44.55-.5.04,0,.13.27.19.41.03.25-.15.44-.55.51ZM780.34,567.84c-.09.12-.3.31-.34.29-.33-.22-.42-.45-.29-.66.12-.1.31-.31.35-.28.33.21.43.46.29.66ZM780.83,494.54c-.27-.09-.48-.35-.72-.53.12-.1.23-.23.37-.3.13-.07.28-.09.42-.13.16.01.35-.03.47.05.26.15.57.31.7.55.11.21-.73.52-1.24.37ZM784.91,533.82c-.09.12-.3.31-.34.29-.33-.21-.42-.45-.29-.66.12-.1.31-.31.34-.28.33.21.43.46.29.66ZM786.76,599.48c-.15-.05-.34-.08-.45-.18-.11-.1-.18-.28-.2-.44-.04-.25.18-.45.58-.49.15-.02.3.1.46.16.39.02.61.22.66.61.04.39-.45.54-1.04.34ZM793.36,488.31c-.12.1-.31.31-.34.28-.33-.21-.43-.46-.29-.66.09-.12.3-.31.34-.29.33.21.42.45.29.66ZM812.31,482.04c-.12-.09-.32-.3-.29-.34.22-.33.46-.41.67-.29.1.12.31.3.29.34-.22.33-.47.42-.67.28ZM815.13,496.17c-.81.03-1.2-.34-1.15-1.08.04-.56.33-.88.84-.91.81-.03,1.2.33,1.15,1.08-.04.57-.34.89-.84.91ZM818.55,507.21s-.22-.2-.29-.33c-.12-.22.02-.45.38-.61.04-.02.2.22.3.33.09.23-.03.45-.39.61ZM820.52,465.97c-.12-.09-.32-.3-.29-.33.21-.33.46-.41.67-.29.1.12.31.3.29.34-.22.33-.47.43-.67.28ZM837.86,480.87c-.12.1-.31.31-.34.29-.33-.21-.43-.46-.29-.66.09-.12.3-.31.34-.29.33.21.42.45.29.66ZM864.51,506.77s-.2-.22-.3-.33c-.09-.22.03-.45.39-.61.04-.02.22.2.29.34.12.21-.02.44-.38.6ZM867.42,497.03c-.23.09-.45-.03-.62-.38-.02-.04.2-.22.34-.29.22-.11.45.02.62.38.02.04-.22.19-.34.29Z"/><path class="cls-3" d="M814.61,261.53l-17.78-9.51v58.69l-41.98-17-1.14-64.75-15.84-8.47,1.93,202.07h17.32l-1.46-82.7,41.17,15.72v66.98h17.78v-161.02ZM739.38,226.38c-.07.21-.31.27-.65.13-.04-.02.02-.27.04-.41.09-.21.32-.26.65-.12.04.01,0,.27-.04.41ZM752.79,237.49c.14-.09.44-.21.47-.17.26.37.24.65.03.83-.17.06-.45.21-.48.16-.26-.36-.26-.67-.02-.82ZM746.49,257.13c-.14-.02-.4-.01-.41-.05-.07-.36.04-.58.26-.61.14-.02.4,0,.41.05.07.36-.04.56-.26.61ZM750.35,285.78c-.09.21-.32.27-.65.12-.04-.02,0-.28.04-.4.07-.21.31-.27.65-.13.04.02-.02.27-.04.41ZM754.64,326.06c-.5.53-1.02.54-1.44,0-.18-.23-.37-.46-.56-.69-.28-.2-.37-.46-.28-.77.07-.25.27-.28.65-.19.43.09.87.09,1.3.18.51.11.7,1.07.33,1.47ZM779.61,316.27c-.07.21-.31.26-.64.12-.04-.02.02-.27.03-.41.09-.2.32-.26.65-.12.04.02,0,.28-.04.41ZM787.73,312.24s-.27-.03-.41-.04c-.21-.1-.27-.32-.13-.66.01-.04.27,0,.41.05.21.07.27.32.13.65ZM804,277.95c.36-.06.56.05.61.27-.02.14,0,.4-.05.41-.35.06-.58-.04-.61-.27-.02-.14,0-.4.04-.41ZM805.52,307.3c-.2.19-.45.38-.71.43-.27.06-.58-.05-.87-.08-.29-.03-.67.03-.84-.13-.13-.13,0-.53.02-.81.02-.29,0-.6.09-.87.14-.42.48-.66.91-.75.34-.07.57.07.72.39.06.13.18.23.27.35.09.11.18.23.28.34.34.41.4.87.11,1.13Z"/><path class="cls-2" d="M125.08,767.13c-.81.08-1.77.14-2.9.18-1.13.04-2.25.18-3.38.42l-.85,25.6v4.23c-3.38.4-8.29.6-14.73.6-5.55,0-8.9-.4-10.02-1.21l.12-19.68v-15.82c.08-8.45.12-24.03.12-46.73,3.46-.56,8.47-1.09,15.03-1.57,6.56-.48,12.86-.72,18.9-.72,9.9,0,17.79.72,23.66,2.17v2.29c0,.32.02.99.06,1.99.04,1.01.1,3.24.18,6.7,0,2.82-.08,5.35-.24,7.61l-8.81.48-4.47.24-2.17.12-6.52.36c-4.59.16-8.05.36-10.38.6l-.36.84c-.24.72-.36,1.77-.36,3.14,0,1.29.08,2.56.24,3.8.16,1.25.32,1.99.48,2.23,2.01.24,3.94.36,5.8.36,3.7,0,6.96-.2,9.78-.6.4.89.6,2.58.6,5.07v2.42l-.12,2.9-.12,2.29v2.29c0,1.69.08,3.58.24,5.67,0,.4-.65.69-1.93.85-1.05.16-3.66.44-7.85.84Z"/><path class="cls-2" d="M218.23,787.17c1.97,3.38,3.6,6.8,4.89,10.26h-1.93c-.97,0-3.14.08-6.52.24-3.38.16-6.08.24-8.09.24-1.13,0-2.82-.08-5.07-.24l-2.05-.12c-5.23-11.91-9.9-20.85-14.01-26.8v3.14c0,4.99.28,11.43.85,19.32v-.12c.08.56.12,1.53.12,2.9-2.74,1.29-7.24,1.93-13.52,1.93l-2.9-.12h-6.4c-.89,0-1.33-7.28-1.33-21.85,0-13.2-.12-26.42-.36-39.66-.24-13.24-.6-21.19-1.09-23.85l3.26-.48c4.83-.64,8.81-1.13,11.95-1.45,3.14-.32,6.36-.48,9.66-.48,3.54,0,6.56.16,9.06.48,4.67.56,9.04,2.17,13.1,4.83,4.06,2.66,7.32,5.92,9.78,9.78,2.46,3.86,3.68,7.85,3.68,11.95s-1.29,8.25-3.86,12.92c-1.61,2.9-3.74,5.31-6.4,7.24s-5.84,3.1-9.54,3.5c2.17,3.86,4.71,7.89,7.61,12.07.56.97,1.01,1.61,1.33,1.93,3.22,4.91,5.81,9.05,7.79,12.44ZM195.71,741.53c.64-1.29.97-2.82.97-4.59,0-3.3-.81-5.43-2.41-6.4-1.05-.64-2.11-1.04-3.2-1.21-1.09-.16-2.31-.24-3.68-.24l-5.19.84c.16,2.42.24,4.47.24,6.16,0,4.35.12,7,.36,7.97,1.37.16,3.06.24,5.07.24,1.85,0,3.58-.12,5.19-.36,1.13-.32,2.01-1.13,2.66-2.42Z"/><path class="cls-2" d="M286.99,797.44c-3.54,0-8.77.08-15.7.24l-15.82.12c-7.17,0-14.33-.24-21.49-.72.08-2.58-.04-12.6-.36-30.06-.24-9.9-.36-17.51-.36-22.82,0-11.03.28-21.29.85-30.79l10.62-.36c11.91-.48,21.01-.72,27.29-.72,5.39,0,10.62.2,15.7.6.32,1.69.48,3.66.48,5.92,0,1.21-.08,3.18-.24,5.92-.16,2.58-.24,4.59-.24,6.04-4.83,1.05-10.22,1.57-16.18,1.57l-15.7.12c-.4,3.78-.6,6.92-.6,9.42,0,1.93.24,3.62.72,5.07l7.97-.97c1.13,0,2.82.08,5.07.24l1.57.12c.4,2.42.6,5.03.6,7.85l-.24,9.66c-2.58.72-6.04,1.09-10.38,1.09l-3.14-.12c-.56,0-.93.08-1.09.24l-.48,6.28c0,3.3.16,6.04.48,8.21,4.18,0,8.25.12,12.19.36,1.37.08,3.06.16,5.07.24,2.01.08,4.39.12,7.12.12l7.37-.24c.16,3.7.24,5.84.24,6.4,0,4.11-.44,7.77-1.33,10.99Z"/><path class="cls-2" d="M354.12,797.44c-3.54,0-8.77.08-15.7.24l-15.82.12c-7.17,0-14.33-.24-21.49-.72.08-2.58-.04-12.6-.36-30.06-.24-9.9-.36-17.51-.36-22.82,0-11.03.28-21.29.85-30.79l10.62-.36c11.91-.48,21.01-.72,27.29-.72,5.39,0,10.62.2,15.7.6.32,1.69.48,3.66.48,5.92,0,1.21-.08,3.18-.24,5.92-.16,2.58-.24,4.59-.24,6.04-4.83,1.05-10.22,1.57-16.18,1.57l-15.7.12c-.4,3.78-.6,6.92-.6,9.42,0,1.93.24,3.62.72,5.07l7.97-.97c1.13,0,2.82.08,5.07.24l1.57.12c.4,2.42.6,5.03.6,7.85l-.24,9.66c-2.58.72-6.04,1.09-10.38,1.09l-3.14-.12c-.56,0-.93.08-1.09.24l-.48,6.28c0,3.3.16,6.04.48,8.21,4.18,0,8.25.12,12.19.36,1.37.08,3.06.16,5.07.24,2.01.08,4.39.12,7.12.12l7.37-.24c.16,3.7.24,5.84.24,6.4,0,4.11-.44,7.77-1.33,10.99Z"/><path class="cls-2" d="M455.05,792.73c0,1.69-.14,2.88-.42,3.56-.28.68-.71,1.11-1.27,1.27-.56.16-1.53.24-2.9.24h-.84l-1.93-.12-3.14.12c-4.99.16-12.36.24-22.1.24s-16.62-.04-22.09-.12v-2.78c.56-13.28.84-26.64.84-40.08,0-3.94-.08-10.75-.24-20.41v-7.37c-.08-1.37-.12-3.82-.12-7.37l-.12-7.85c1.13-.4,2.7-.74,4.71-1.03,2.01-.28,4.02-.42,6.04-.42,2.25,0,4.51.16,6.76.48,2.25.32,4.06.77,5.43,1.33-.16,5.79-.24,10.42-.24,13.88,0,4.83.08,12.07.24,21.73.08,4.83.12,11.95.12,21.37v7.85c2.66,0,5.92.12,9.78.36l6.4.24c3.38.24,6.56.36,9.54.36,2.09,0,3.94-.08,5.55-.24,0,1.85-.04,3.06-.12,3.62v-.12c-.16,2.17-.2,3.74-.12,4.71l.12,2.29c.08.97.12,2.38.12,4.23Z"/><path class="cls-2" d="M491.15,712.8c0,9.42-.12,18.92-.36,28.49-.32,12.72-.48,22.74-.48,30.06,0,8.45.24,16.86.72,25.23-1.21,1.21-4.35,1.81-9.42,1.81-2.9,0-5.03-.04-6.4-.12l-1.45-.12-2.17-.12c-1.61,0-3.66.32-6.16.97.48-7,.72-14.45.72-22.34,0-3.14-.08-7.77-.24-13.89l-.12-7c-.32-8.53-.48-15.45-.48-20.77,0-7.97.36-15.82,1.09-23.54,1.04-.16,2.17-.24,3.38-.24.64,0,1.53.06,2.66.18,1.13.12,2.46.14,3.99.06,4.18.24,7.53.32,10.02.24h4.71v1.09Z"/><path class="cls-2" d="M550.19,752.76c-3.14,12.56-7.08,27.53-11.83,44.92-1.77,0-2.98.04-3.62.12l-1.21.12c-1.45.16-2.94.24-4.47.24-5.07,0-9.02-.48-11.83-1.45-7-24.71-11.71-51.96-14.13-81.74.72-.8,2.21-1.41,4.47-1.81,2.25-.4,4.75-.6,7.49-.6,2.58,0,5.47.28,8.69.85l.72,10.75c.48,7.97,1,14.87,1.57,20.71.56,5.84,1.37,11.61,2.42,17.33.97-4.43,2.45-12.48,4.47-24.15,2.42-14.25,4.02-22.74,4.83-25.48,3.14.65,6.72.97,10.75.97s6.88.16,8.57.48h1.57c-2.5,13.28-5.31,26.2-8.45,38.76Z"/><path class="cls-2" d="M621.79,797.44c-3.54,0-8.77.08-15.7.24l-15.82.12c-7.17,0-14.33-.24-21.49-.72.08-2.58-.04-12.6-.36-30.06-.24-9.9-.36-17.51-.36-22.82,0-11.03.28-21.29.85-30.79l10.62-.36c11.91-.48,21.01-.72,27.29-.72,5.39,0,10.62.2,15.7.6.32,1.69.48,3.66.48,5.92,0,1.21-.08,3.18-.24,5.92-.16,2.58-.24,4.59-.24,6.04-4.83,1.05-10.22,1.57-16.18,1.57l-15.7.12c-.4,3.78-.6,6.92-.6,9.42,0,1.93.24,3.62.72,5.07l7.97-.97c1.13,0,2.82.08,5.07.24l1.57.12c.4,2.42.6,5.03.6,7.85l-.24,9.66c-2.58.72-6.04,1.09-10.38,1.09l-3.14-.12c-.56,0-.93.08-1.09.24l-.48,6.28c0,3.3.16,6.04.48,8.21,4.18,0,8.25.12,12.19.36,1.37.08,3.06.16,5.07.24,2.01.08,4.39.12,7.12.12l7.37-.24c.16,3.7.24,5.84.24,6.4,0,4.11-.44,7.77-1.33,10.99Z"/><path class="cls-2" d="M714.03,797.56c-.32,0-1.09.02-2.29.06-1.21.04-4.19.1-8.93.18-.16-4.35-.24-8.17-.24-11.47l-.85-26.56-1.45,2.78c-1.21,2.17-2.15,3.7-2.84,4.59-.68.89-1.43,1.33-2.23,1.33-1.77-.08-3.86-2.98-6.28-8.69-.08.81-.1,1.85-.06,3.14.04,1.29.06,2.29.06,3.02v3.02c0,7.81.36,17.23,1.09,28.25-3.46.56-6.96.84-10.5.84l-8.21-.24h-1.69c-.24,0-.4-.02-.48-.06-.08-.04-.12-.14-.12-.3l-.12-1.33c-.16-3.06-.24-9.34-.24-18.83,0-11.11.12-32.12.36-63.03,1.21-.4,2.48-.68,3.8-.84,1.33-.16,3.24-.24,5.74-.24l5.92.12c1.77,0,3.1-.04,3.98-.12,1.04,1.21,1.97,2.74,2.78,4.59.8,1.85,2.29,5.63,4.47,11.35.08-.16.34-.97.79-2.42.44-1.45,2.31-6.16,5.61-14.13,1.04.24,2.42.36,4.11.36,1.29,0,3.46-.08,6.52-.24l10.14-.24-.48,85.72c-2.58-.4-5.35-.6-8.33-.6Z"/><path class="cls-2" d="M794.08,739.72c0,13.93-.69,27.04-2.05,39.36-.65,5.55-2.88,10.2-6.7,13.95-3.82,3.74-8.75,5.89-14.79,6.46h.12c-1.45.16-2.78.24-3.98.24-4.75,0-9.3-.75-13.64-2.23s-7.95-3.76-10.81-6.82c-2.86-3.06-4.37-6.8-4.53-11.23,0-5.87.08-14.69.24-26.44l.12-7.85c.16-8.53.24-14.85.24-18.96,0-5.31-.04-9.22-.12-11.71h3.02l7.25-.24c3.94,0,7.4.44,10.38,1.33-.32,9.02-.48,15.94-.48,20.77,0,11.67.52,24.59,1.57,38.76v-.12c.48,1.61,1.21,2.84,2.17,3.68.97.84,2.01,1.27,3.14,1.27,1.29,0,2.49-.52,3.62-1.57,1.13-1.05,1.89-2.37,2.29-3.98v.12c.32-7.4.56-19.12.72-35.13l.12-7.73c0-3.86.08-9.18.24-15.94l2.54-.36c1.13,0,2.66-.12,4.59-.36,3.3-.32,5.27-.44,5.92-.36,3.46,0,5.88.4,7.24,1.21h.97c.4,8.61.6,16.58.6,23.91Z"/><path class="cls-2" d="M851.19,741.41c-3.94,0-7.41-.44-10.38-1.33.16-.8.24-1.37.24-1.69,0-1.85-.68-3.38-2.05-4.59-1.37-1.21-2.9-1.81-4.59-1.81-1.21,0-2.28.38-3.2,1.15-.93.77-1.47,1.91-1.63,3.44-.24.72-.36,1.37-.36,1.93l.12,1.09v.24c.56,1.69,1.39,2.86,2.48,3.5,1.09.65,2.39,1.09,3.92,1.33,4.02.56,8.09,2.05,12.19,4.47,4.11,2.42,7.41,5.23,9.9,8.45,1.53,2.09,2.74,4.41,3.62,6.94.88,2.54,1.33,5.01,1.33,7.43,0,4.19-.93,8.25-2.78,12.19-2.09,4.51-5.31,8.01-9.66,10.5-4.35,2.5-9.1,3.74-14.25,3.74s-10.32-1.03-15.27-3.08c-4.95-2.05-8.96-5.01-12.01-8.88-3.06-3.86-4.43-8.33-4.11-13.4v-1.09c2.33-.4,4.91-.6,7.73-.6,2.42,0,4.47.04,6.16.12,1.53.08,4.27.12,8.21.12.08,2.42.82,4.31,2.23,5.67,1.41,1.37,3.04,2.05,4.89,2.05,1.61,0,2.96-.52,4.04-1.57,1.09-1.04,1.63-2.54,1.63-4.47,0-.72-.04-1.29-.12-1.69-.4-2.98-1.81-5.07-4.23-6.28-2.41-1.21-5.67-2.21-9.78-3.02l-1.81-.36c-3.46-.64-6.48-2.05-9.06-4.23-2.9-2.82-5.07-5.83-6.52-9.06-1.45-3.22-2.17-6.44-2.17-9.66,0-5.23,1.59-10.16,4.77-14.79,3.18-4.63,7.3-7.99,12.38-10.08,3.14-1.29,7.04-1.93,11.71-1.93,6.04,0,11.55,1.13,16.54,3.38,3.7,1.93,6.64,4.47,8.81,7.61,2.17,3.14,3.26,6.84,3.26,11.11,0,1.61-.24,3.7-.72,6.28h-1.45c-3.38.56-6.72.85-10.02.85Z"/><path class="cls-2" d="M901.3,712.8c0,9.42-.12,18.92-.36,28.49-.32,12.72-.48,22.74-.48,30.06,0,8.45.24,16.86.72,25.23-1.21,1.21-4.35,1.81-9.42,1.81-2.9,0-5.03-.04-6.4-.12l-1.45-.12-2.17-.12c-1.61,0-3.66.32-6.16.97.48-7,.72-14.45.72-22.34,0-3.14-.08-7.77-.24-13.89l-.12-7c-.32-8.53-.48-15.45-.48-20.77,0-7.97.36-15.82,1.09-23.54,1.05-.16,2.17-.24,3.38-.24.64,0,1.53.06,2.66.18,1.13.12,2.46.14,3.98.06,4.18.24,7.53.32,10.02.24h4.71v1.09Z"/><path class="cls-2" d="M937.04,740.69c-.24,4.75-.36,9.58-.36,14.49s.12,9.18.36,12.56c.24,2.17.88,4.29,1.93,6.34,1.05,2.05,2.29,3.44,3.74,4.17,2.82.16,4.95-1.13,6.4-3.86h-.12c.72-1.53,1.09-3.82,1.09-6.88,0-2.41.16-4.3.48-5.67,2.01.32,3.94.48,5.79.48l5.55-.12c2.9,0,5.63.32,8.21.97.97,2.82,1.45,5.76,1.45,8.81,0,4.59-1.15,8.93-3.44,13.04-2.29,4.1-5.45,7.45-9.48,10.02-4.03,2.57-8.49,3.94-13.4,4.1-1.45.24-3.14.36-5.07.36-6.28,0-11.79-1.41-16.54-4.23-4.75-2.82-7.41-7.04-7.97-12.68-.4-8.05-.6-16.7-.6-25.96,0-7.65.04-13.92.12-18.83l.12-5.43c-.08-1.21.02-2.6.3-4.17.28-1.57.66-2.96,1.15-4.17.72-1.85,1.67-3.7,2.84-5.55,1.17-1.85,2.39-3.38,3.68-4.59,1.69-1.37,4.18-2.54,7.49-3.5,3.14-.97,6.4-1.45,9.78-1.45,5.47,0,10.62,1.27,15.45,3.8,4.83,2.54,8.69,6,11.59,10.38,2.9,4.39,4.35,9.16,4.35,14.31,0,3.06-.56,6.12-1.69,9.18-3.38.72-6.2,1.09-8.45,1.09-3.06,0-7.29-.52-12.68-1.57l-.36-4.59c-.16-3.7-.62-6.5-1.39-8.39-.77-1.89-2.4-2.8-4.89-2.72-.08,0-.18.02-.3.06-.12.04-.3.06-.54.06h.12c-2.5.4-3.86,1.25-4.11,2.54-.16.32-.36,2.86-.6,7.61Z"/><path class="cls-1" d="M17.23,524.04l5.07-.11-.05,2.69c0,2.4.05,4.84.16,7.34.03.85.07,1.88.11,3.12.03,1.23.05,2.68.05,4.33l-.05,2.75c-.04.46-.05,1.18-.05,2.17-.07,2.57-.22,4.7-.45,6.39-.23,1.69-.78,3.28-1.64,4.76-.86,1.48-2.19,2.55-3.99,3.22-1.69.85-3.68,1.27-5.97,1.27-1.27,0-2.57-.14-3.91-.42-2.36-.7-4.03-2.35-5.02-4.94-.99-2.59-1.48-5.49-1.48-8.69l.05-1.58c.35-.07,1.02-.11,2.01-.11,1.27,0,2.31.07,3.12.21v.21l.05.9c.11,1.48.25,2.75.42,3.8.18,1.06.67,2.13,1.48,3.22.81,1.09,2.04,1.64,3.7,1.64,2.11,0,3.7-.55,4.76-1.64,1.06-1.09,1.59-2.3,1.61-3.62.02-1.32.03-2.07.03-2.25l-.05-4.07c-.07-4.3-.11-7.66-.11-10.09,0-3.38.05-6.76.16-10.14v-.37Z"/><path class="cls-1" d="M47.87,526.1c1.59-.18,2.66-.26,3.22-.26.85,0,1.5.12,1.96.37.18,3.77.26,7.17.26,10.2,0,6.06-.3,11.78-.9,17.17-.32,2.4-1.23,4.39-2.75,5.97-1.51,1.58-3.49,2.5-5.92,2.75-.39.04-.95.05-1.69.05-3.17,0-5.87-.77-8.11-2.3-2.24-1.53-3.43-3.79-3.57-6.79-.04-1.34-.05-3.38-.05-6.13s.02-4.95.05-6.39c.07-3.94.11-6.89.11-8.82l-.05-6.23-.05-.05h.05l2.59-.05c1.02,0,1.87.07,2.54.21-.04.67-.05,1.62-.05,2.85l-.05,2.11c-.11,3.38-.16,6.34-.16,8.88,0,3.66.14,6.66.42,8.98.28,2.33.79,4.46,1.53,6.39.56.88,1.36,1.48,2.38,1.8.7.18,1.32.26,1.85.26.92,0,1.76-.18,2.54-.55.77-.37,1.37-.92,1.8-1.67.81-1.87,1.36-4.17,1.64-6.89.28-2.73.42-6,.42-9.8l-.05-8.14c0-1.76.02-3.06.05-3.91Z"/><path class="cls-1" d="M83.06,556.43c0,.32-.03.75-.08,1.29-.05.55-.06,1.01-.03,1.4,0,.85-.04,1.44-.13,1.77-.09.33-.2.53-.34.58-.14.05-.41.08-.79.08-.32-.04-.66-.04-1.03-.03-.37.02-.75.03-1.14.03-3.17.11-6.25.16-9.25.16l-7.24-.05c-.46-.04-1.2-.05-2.22-.05v-.95c.28-6.62.42-12.47.42-17.54,0-3.21-.05-6.76-.16-10.67,0-1.34-.04-4.02-.11-8.03.46-.18,1.2-.26,2.22-.26,1.51,0,2.69.18,3.54.53-.07,2.75-.11,4.83-.11,6.24,0,1.69.03,4.26.11,7.71l.05,7.66v3.33c0,2.71-.04,4.9-.11,6.55v.05c.42-.03,1.14-.07,2.17-.11,1.02-.04,2.03-.05,3.01-.05,1.09,0,2.98.07,5.65.21,2.4.14,3.93.21,4.6.21.49,0,.81-.02.95-.05Z"/><path class="cls-1" d="M111.01,524.94v.05c-1.02,3.28-2.23,6.54-3.62,9.8-1.39,3.26-3.11,7.05-5.15,11.39-1.69,3.63-3.03,6.53-4.02,8.69-.99,2.17-1.9,4.4-2.75,6.68-.11-.04-.3-.05-.58-.05-.32,0-.58.02-.79.05-.6,0-1.06.02-1.37.05-.21,0-.48,0-.79.03s-.65,0-1-.03h-.74c1.16-3.13,3.22-8.4,6.18-15.8l.48-1.21c-.46-1.13-1.16-2.54-2.11-4.23-.32-.81-.75-1.78-1.29-2.91-.55-1.13-.92-1.88-1.14-2.27-1.09-2.18-1.97-4.07-2.64-5.65-.67-1.58-1.2-3.1-1.59-4.54.46,0,1.11-.03,1.96-.11.49-.07.86-.11,1.11-.11.67,0,1.22.09,1.64.26,1.02,2.68,2.18,5.37,3.49,8.08,1.3,2.71,2.52,4.98,3.65,6.82,1.44-3.03,3.1-7.01,4.97-11.94l1.11-2.91c.81-.14,1.88-.21,3.22-.21.49-.04,1.09-.02,1.8.05Z"/><path class="cls-1" d="M34.04,654.09v9.65c-.25.75-2,1.13-5.26,1.13s-6.14-.17-8.4-.5v-12.28c0-6.1.21-13.11.63-21.05.42-15.7.67-26.31.75-31.83v-3.76c0-.92-.04-1.67-.13-2.25-.5-.08-1.71,1.75-3.63,5.51-1.5,3.01-2.86,5.39-4.07,7.14-1.21,1.75-2.28,2.63-3.2,2.63-.75,0-2.72-.46-5.89-1.38-3.18-.92-4.76-1.63-4.76-2.13,1.59-3.42,3.61-7.29,6.08-11.59,2.46-4.3,4.7-8.02,6.7-11.15,2-3.13,3.38-5.2,4.13-6.2l7.77-.12c1.84,0,5.18.08,10.02.25.25,3.18.38,7.85.38,14.03v13.41c0,5.6-.17,13.99-.5,25.19-.42,9.36-.63,17.79-.63,25.31Z"/><path class="cls-1" d="M108.1,599.58v3.51c0,3.59-.84,6.98-2.51,10.15-1.67,3.17-4.05,6.01-7.14,8.52v.12c3.09,2.26,5.41,5.08,6.95,8.46,1.54,3.38,2.32,6.95,2.32,10.71,0,3.43-.58,6.77-1.75,10.02-1.17,3.26-2.84,6.06-5.01,8.4-1.92,2.34-4.7,4.12-8.33,5.33s-7.54,1.82-11.72,1.82c-4.68,0-9-.75-12.97-2.26-3.97-1.5-7-3.63-9.08-6.39-1.84-2.25-3.26-4.91-4.26-7.96-1-3.05-1.5-6.2-1.5-9.46,0-3.67.67-7.21,2-10.59,1.33-3.38,3.3-6.37,5.89-8.96-2.17-2.34-3.84-5.12-5.01-8.33-1.17-3.21-1.75-6.54-1.75-9.96,0-4.34.83-8.5,2.51-12.47,1.67-3.97,4.09-7.22,7.27-9.77,3.17-2.55,6.89-3.9,11.15-4.07,2.09-.08,4.89-.12,8.4-.12,5.51,0,9.77.65,12.78,1.94,3.01,1.3,5.81,3.95,8.4,7.96.92,1.67,1.69,3.91,2.32,6.7.63,2.8.98,5.03,1.06,6.7ZM86.42,651.58c2.59-.67,4.47-1.63,5.64-2.88,1.17-1.25,2.05-3.09,2.63-5.51l.5-2.63c.25-3.42-.81-6.41-3.19-8.96-2.38-2.55-6.08-3.99-11.09-4.32-5.26.08-9.06,1.36-11.4,3.82-2.34,2.46-3.51,5.33-3.51,8.58,0,.67.08,1.59.25,2.76,1.59,6.43,6.31,9.65,14.16,9.65,2.09,0,4.09-.17,6.01-.5ZM82.28,589.69c-3.59,0-6.79.9-9.59,2.69-2.8,1.8-4.53,4.57-5.2,8.33h-.12v.12c-.08.5-.13,1.21-.13,2.13,0,3.51,1.13,6.39,3.38,8.65,2.26,2.25,5.85,3.38,10.78,3.38,5.68,0,9.31-1.46,10.9-4.39,1.59-2.92,2.38-6.22,2.38-9.9,0-3.26-1.17-5.91-3.51-7.96-2.34-2.05-5.31-3.07-8.9-3.07Z"/><path class="cls-1" d="M966.09,524.04l5.07-.11-.05,2.69c0,2.4.05,4.84.16,7.34.03.85.07,1.88.11,3.12.03,1.23.05,2.68.05,4.33l-.05,2.75c-.04.46-.05,1.18-.05,2.17-.07,2.57-.22,4.7-.45,6.39-.23,1.69-.78,3.28-1.64,4.76s-2.19,2.55-3.99,3.22c-1.69.85-3.68,1.27-5.97,1.27-1.27,0-2.57-.14-3.91-.42-2.36-.7-4.03-2.35-5.02-4.94s-1.48-5.49-1.48-8.69l.05-1.58c.35-.07,1.02-.11,2.01-.11,1.27,0,2.31.07,3.12.21v.21l.05.9c.11,1.48.25,2.75.42,3.8.18,1.06.67,2.13,1.48,3.22.81,1.09,2.04,1.64,3.7,1.64,2.11,0,3.7-.55,4.76-1.64s1.59-2.3,1.61-3.62c.02-1.32.03-2.07.03-2.25l-.05-4.07c-.07-4.3-.11-7.66-.11-10.09,0-3.38.05-6.76.16-10.14v-.37Z"/><path class="cls-1" d="M996.74,526.1c1.58-.18,2.66-.26,3.22-.26.85,0,1.5.12,1.96.37.18,3.77.26,7.17.26,10.2,0,6.06-.3,11.78-.9,17.17-.32,2.4-1.23,4.39-2.75,5.97s-3.49,2.5-5.92,2.75c-.39.04-.95.05-1.69.05-3.17,0-5.87-.77-8.11-2.3s-3.43-3.79-3.57-6.79c-.04-1.34-.05-3.38-.05-6.13s.02-4.95.05-6.39c.07-3.94.11-6.89.11-8.82l-.05-6.23-.05-.05h.05l2.59-.05c1.02,0,1.87.07,2.54.21-.04.67-.05,1.62-.05,2.85l-.05,2.11c-.11,3.38-.16,6.34-.16,8.88,0,3.66.14,6.66.42,8.98.28,2.33.79,4.46,1.53,6.39.56.88,1.36,1.48,2.38,1.8.7.18,1.32.26,1.85.26.92,0,1.76-.18,2.54-.55.77-.37,1.37-.92,1.8-1.67.81-1.87,1.36-4.17,1.64-6.89.28-2.73.42-6,.42-9.8l-.05-8.14c0-1.76.02-3.06.05-3.91Z"/><path class="cls-1" d="M1031.93,556.43c0,.32-.03.75-.08,1.29-.05.55-.06,1.01-.03,1.4,0,.85-.04,1.44-.13,1.77s-.2.53-.34.58c-.14.05-.41.08-.79.08-.32-.04-.66-.04-1.03-.03-.37.02-.75.03-1.14.03-3.17.11-6.25.16-9.25.16l-7.24-.05c-.46-.04-1.2-.05-2.22-.05v-.95c.28-6.62.42-12.47.42-17.54,0-3.21-.05-6.76-.16-10.67,0-1.34-.04-4.02-.11-8.03.46-.18,1.2-.26,2.22-.26,1.51,0,2.69.18,3.54.53-.07,2.75-.11,4.83-.11,6.24,0,1.69.03,4.26.11,7.71l.05,7.66v3.33c0,2.71-.04,4.9-.11,6.55v.05c.42-.03,1.14-.07,2.17-.11,1.02-.04,2.03-.05,3.01-.05,1.09,0,2.98.07,5.65.21,2.39.14,3.93.21,4.6.21.49,0,.81-.02.95-.05Z"/><path class="cls-1" d="M1059.88,524.94v.05c-1.02,3.28-2.23,6.54-3.62,9.8-1.39,3.26-3.11,7.05-5.15,11.39-1.69,3.63-3.03,6.53-4.02,8.69-.99,2.17-1.9,4.4-2.75,6.68-.11-.04-.3-.05-.58-.05-.32,0-.58.02-.79.05-.6,0-1.06.02-1.37.05-.21,0-.48,0-.79.03-.32.02-.65,0-1-.03h-.74c1.16-3.13,3.22-8.4,6.18-15.8l.48-1.21c-.46-1.13-1.16-2.54-2.11-4.23-.32-.81-.75-1.78-1.29-2.91-.55-1.13-.92-1.88-1.14-2.27-1.09-2.18-1.97-4.07-2.64-5.65-.67-1.58-1.2-3.1-1.58-4.54.46,0,1.11-.03,1.96-.11.49-.07.86-.11,1.11-.11.67,0,1.21.09,1.64.26,1.02,2.68,2.18,5.37,3.49,8.08,1.3,2.71,2.52,4.98,3.65,6.82,1.44-3.03,3.1-7.01,4.97-11.94l1.11-2.91c.81-.14,1.88-.21,3.22-.21.49-.04,1.09-.02,1.8.05Z"/><path class="cls-1" d="M981.47,654.09v9.65c-.25.75-2,1.13-5.26,1.13s-6.14-.17-8.4-.5v-12.28c0-6.1.21-13.11.63-21.05.42-15.7.67-26.31.75-31.83v-3.76c0-.92-.04-1.67-.12-2.25-.5-.08-1.71,1.75-3.63,5.51-1.5,3.01-2.86,5.39-4.07,7.14-1.21,1.75-2.28,2.63-3.2,2.63-.75,0-2.72-.46-5.89-1.38-3.18-.92-4.76-1.63-4.76-2.13,1.59-3.42,3.61-7.29,6.08-11.59,2.46-4.3,4.7-8.02,6.7-11.15,2-3.13,3.38-5.2,4.14-6.2l7.77-.12c1.84,0,5.18.08,10.02.25.25,3.18.38,7.85.38,14.03v13.41c0,5.6-.17,13.99-.5,25.19-.42,9.36-.63,17.79-.63,25.31Z"/><path class="cls-1" d="M1056.9,606.1l.25,18.54.12,3.76c.17,3.34.25,5.81.25,7.39,0,2.34-.08,4.09-.25,5.26-.92,6.6-3.01,12.24-6.27,16.92-2.17,2.51-4.99,4.41-8.46,5.7-3.47,1.3-7.25,1.94-11.34,1.94-5.43,0-10.67-1.04-15.72-3.13-5.06-2.09-8.79-4.93-11.21-8.52-2.17-3.17-3.26-7.1-3.26-11.78,0-1.84.08-3.26.25-4.26v-.63c1.92,0,3.38-.04,4.39-.12l4.64-.13c.58,5.18,2.53,9.08,5.83,11.72,3.3,2.63,7.16,3.95,11.59,3.95,2.34,0,4.55-.38,6.64-1.13,2.92-1,5.03-2.65,6.33-4.95,1.29-2.3,1.98-5.2,2.07-8.71v-7.52l.12-5.76-.12-.13c-4.09,3.09-8.14,4.68-12.15,4.76-6.1.25-11.24-.58-15.41-2.51-4.18-1.92-7.6-4.93-10.28-9.02-1.25-1.92-2.21-4.26-2.88-7.02-.67-2.76-1-5.64-1-8.65,0-4.59.67-8.56,2-11.9,5.09-8.69,13.95-13.32,26.56-13.91l3.76.12c5.01.08,9,.52,11.97,1.32,2.96.79,5.41,2.65,7.33,5.58,1.75,2.67,2.88,5.76,3.38,9.27.5,3.51.79,8.02.88,13.53ZM1029.96,617.75c3.76,0,6.87-1.11,9.33-3.32,2.46-2.21,3.99-5.12,4.57-8.71.17-.58.25-1.67.25-3.26.17-2.76-.33-5.28-1.5-7.58-1.17-2.3-2.97-3.86-5.39-4.7-2.17-.75-4.55-1.13-7.14-1.13-4.18,0-7.77.94-10.78,2.82-3.01,1.88-4.51,4.62-4.51,8.21.33,4.26.88,7.48,1.63,9.65v.12c1.17,2.59,3.01,4.55,5.51,5.89,2.51,1.34,5.18,2,8.02,2Z"/></g></svg>