<svg xmlns="http://www.w3.org/2000/svg" id="Layer_2" viewBox="0 0 1059.88 799.73"><defs><style>.cls-1{fill:#fdf4ac}.cls-2{fill:#ffe2d2}.cls-3{fill:#e8bc16}</style></defs><g id="Layer_1_copy"><path d="M125.08 767.13c-.81.08-1.77.14-2.9.18s-2.25.18-3.38.42l-.85 25.6v4.23q-5.07.6-14.73.6c-5.55 0-8.9-.4-10.02-1.21l.12-19.68v-15.82c.08-8.45.12-24.03.12-46.73 3.46-.56 8.47-1.09 15.03-1.57q9.84-.72 18.9-.72c9.9 0 17.79.72 23.67 2.17v2.29c0 .32.02.99.06 1.99.04 1.01.1 3.24.18 6.7 0 2.82-.08 5.35-.24 7.61l-8.81.48-4.47.24-2.17.12-6.52.36q-6.885.24-10.38.6l-.36.84c-.24.72-.36 1.77-.36 3.14 0 1.29.08 2.56.24 3.8.16 1.25.32 1.99.48 2.23 2.01.24 3.94.36 5.8.36q5.55 0 9.78-.6.6 1.335.6 5.07v2.42l-.12 2.9-.12 2.29v2.29q0 2.535.24 5.67c0 .4-.65.69-1.93.85-1.05.16-3.66.44-7.85.84ZM218.23 787.17q2.955 5.07 4.89 10.26h-1.93c-.97 0-3.14.08-6.52.24s-6.08.24-8.09.24q-1.695 0-5.07-.24l-2.05-.12c-5.23-11.91-9.9-20.85-14.01-26.8v3.14c0 4.99.28 11.43.85 19.32v-.12c.08.56.12 1.53.12 2.9-2.74 1.29-7.24 1.93-13.52 1.93l-2.9-.12h-6.4c-.89 0-1.33-7.28-1.33-21.85q0-19.8-.36-39.66c-.24-13.24-.6-21.19-1.09-23.85l3.26-.48c4.83-.64 8.81-1.13 11.95-1.45q4.71-.48 9.66-.48 5.31 0 9.06.48c4.67.56 9.04 2.17 13.1 4.83q6.09 3.99 9.78 9.78c2.46 3.86 3.68 7.85 3.68 11.95s-1.29 8.25-3.86 12.92c-1.61 2.9-3.74 5.31-6.4 7.24s-5.84 3.1-9.54 3.5c2.17 3.86 4.71 7.89 7.61 12.07.56.97 1.01 1.61 1.33 1.93 3.22 4.91 5.81 9.05 7.79 12.44Zm-22.52-45.64c.64-1.29.97-2.82.97-4.59 0-3.3-.81-5.43-2.41-6.4-1.05-.64-2.11-1.04-3.2-1.21-1.09-.16-2.31-.24-3.68-.24l-5.19.84c.16 2.42.24 4.47.24 6.16 0 4.35.12 7 .36 7.97q2.055.24 5.07.24 2.775 0 5.19-.36c1.13-.32 2.01-1.13 2.66-2.42ZM286.99 797.43c-3.54 0-8.77.08-15.7.24l-15.82.12c-7.17 0-14.33-.24-21.49-.72q.12-3.87-.36-30.06c-.24-9.9-.36-17.51-.36-22.82 0-11.03.28-21.29.85-30.79l10.62-.36c11.91-.48 21.01-.72 27.29-.72 5.39 0 10.62.2 15.7.6.32 1.69.48 3.66.48 5.92 0 1.21-.08 3.18-.24 5.92-.16 2.58-.24 4.59-.24 6.04-4.83 1.05-10.22 1.57-16.18 1.57l-15.7.12q-.6 5.67-.6 9.42 0 2.895.72 5.07l7.97-.97q1.695 0 5.07.24l1.57.12c.4 2.42.6 5.03.6 7.85l-.24 9.66c-2.58.72-6.04 1.09-10.38 1.09l-3.14-.12c-.56 0-.93.08-1.09.24l-.48 6.28c0 3.3.16 6.04.48 8.21 4.18 0 8.25.12 12.19.36q2.055.12 5.07.24c2.01.08 4.39.12 7.12.12l7.37-.24c.16 3.7.24 5.84.24 6.4 0 4.11-.44 7.77-1.33 10.99ZM354.12 797.43c-3.54 0-8.77.08-15.7.24l-15.82.12c-7.17 0-14.33-.24-21.49-.72q.12-3.87-.36-30.06c-.24-9.9-.36-17.51-.36-22.82 0-11.03.28-21.29.85-30.79l10.62-.36c11.91-.48 21.01-.72 27.29-.72 5.39 0 10.62.2 15.7.6.32 1.69.48 3.66.48 5.92 0 1.21-.08 3.18-.24 5.92-.16 2.58-.24 4.59-.24 6.04-4.83 1.05-10.22 1.57-16.18 1.57l-15.7.12q-.6 5.67-.6 9.42 0 2.895.72 5.07l7.97-.97q1.695 0 5.07.24l1.57.12c.4 2.42.6 5.03.6 7.85l-.24 9.66c-2.58.72-6.04 1.09-10.38 1.09l-3.14-.12c-.56 0-.93.08-1.09.24l-.48 6.28c0 3.3.16 6.04.48 8.21 4.18 0 8.25.12 12.19.36q2.055.12 5.07.24c2.01.08 4.39.12 7.12.12l7.37-.24c.16 3.7.24 5.84.24 6.4 0 4.11-.44 7.77-1.33 10.99ZM455.05 792.73c0 1.69-.14 2.88-.42 3.56s-.71 1.11-1.27 1.27-1.53.24-2.9.24h-.84l-1.93-.12-3.14.12c-4.99.16-12.36.24-22.1.24s-16.62-.04-22.09-.12v-2.78q.84-19.92.84-40.08c0-3.94-.08-10.75-.24-20.41v-7.37c-.08-1.37-.12-3.82-.12-7.37l-.12-7.85c1.13-.4 2.7-.74 4.71-1.03 2.01-.28 4.02-.42 6.04-.42 2.25 0 4.51.16 6.76.48s4.06.77 5.43 1.33c-.16 5.79-.24 10.42-.24 13.88 0 4.83.08 12.07.24 21.73.08 4.83.12 11.95.12 21.37v7.85q3.99 0 9.78.36l6.4.24q5.07.36 9.54.36 3.135 0 5.55-.24c0 1.85-.04 3.06-.12 3.62v-.12q-.24 3.255-.12 4.71l.12 2.29q.12 1.455.12 4.23ZM491.15 712.8c0 9.42-.12 18.92-.36 28.49q-.48 19.08-.48 30.06 0 12.675.72 25.23c-1.21 1.21-4.35 1.81-9.42 1.81-2.9 0-5.03-.04-6.4-.12l-1.45-.12-2.17-.12c-1.61 0-3.66.32-6.16.97.48-7 .72-14.45.72-22.34q0-4.71-.24-13.89l-.12-7c-.32-8.53-.48-15.45-.48-20.77 0-7.97.36-15.82 1.09-23.54 1.04-.16 2.17-.24 3.38-.24.64 0 1.53.06 2.66.18q1.695.18 3.99.06c4.18.24 7.53.32 10.02.24h4.71v1.09ZM550.19 752.76c-3.14 12.56-7.08 27.53-11.83 44.92-1.77 0-2.98.04-3.62.12l-1.21.12q-2.175.24-4.47.24c-5.07 0-9.02-.48-11.83-1.45-7-24.71-11.71-51.96-14.13-81.74.72-.8 2.21-1.41 4.47-1.81 2.25-.4 4.75-.6 7.49-.6 2.58 0 5.47.28 8.69.85l.72 10.75c.48 7.97 1 14.87 1.57 20.71.56 5.84 1.37 11.61 2.42 17.33.97-4.43 2.45-12.48 4.47-24.15 2.42-14.25 4.02-22.74 4.83-25.48 3.14.65 6.72.97 10.75.97s6.88.16 8.57.48h1.57c-2.5 13.28-5.31 26.2-8.45 38.76ZM621.79 797.43c-3.54 0-8.77.08-15.7.24l-15.82.12c-7.17 0-14.33-.24-21.49-.72q.12-3.87-.36-30.06c-.24-9.9-.36-17.51-.36-22.82 0-11.03.28-21.29.85-30.79l10.62-.36c11.91-.48 21.01-.72 27.29-.72 5.39 0 10.62.2 15.7.6.32 1.69.48 3.66.48 5.92 0 1.21-.08 3.18-.24 5.92-.16 2.58-.24 4.59-.24 6.04-4.83 1.05-10.22 1.57-16.18 1.57l-15.7.12q-.6 5.67-.6 9.42 0 2.895.72 5.07l7.97-.97q1.695 0 5.07.24l1.57.12c.4 2.42.6 5.03.6 7.85l-.24 9.66c-2.58.72-6.04 1.09-10.38 1.09l-3.14-.12c-.56 0-.93.08-1.09.24l-.48 6.28c0 3.3.16 6.04.48 8.21 4.18 0 8.25.12 12.19.36q2.055.12 5.07.24c2.01.08 4.39.12 7.12.12l7.37-.24c.16 3.7.24 5.84.24 6.4 0 4.11-.44 7.77-1.33 10.99ZM714.03 797.56c-.32 0-1.09.02-2.29.06-1.21.04-4.19.1-8.93.18-.16-4.35-.24-8.17-.24-11.47l-.85-26.56-1.45 2.78c-1.21 2.17-2.15 3.7-2.84 4.59-.68.89-1.43 1.33-2.23 1.33-1.77-.08-3.86-2.98-6.28-8.69-.08.81-.1 1.85-.06 3.14s.06 2.29.06 3.02v3.02c0 7.81.36 17.23 1.09 28.25q-5.19.84-10.5.84l-8.21-.24h-1.69q-.36 0-.48-.06t-.12-.3l-.12-1.33c-.16-3.06-.24-9.34-.24-18.83q0-16.665.36-63.03c1.21-.4 2.48-.68 3.8-.84 1.33-.16 3.24-.24 5.74-.24l5.92.12c1.77 0 3.1-.04 3.98-.12 1.04 1.21 1.97 2.74 2.78 4.59.8 1.85 2.29 5.63 4.47 11.35.08-.16.34-.97.79-2.42q.66-2.175 5.61-14.13c1.04.24 2.42.36 4.11.36 1.29 0 3.46-.08 6.52-.24l10.14-.24-.48 85.72c-2.58-.4-5.35-.6-8.33-.6ZM794.08 739.72c0 13.93-.69 27.04-2.05 39.36-.65 5.55-2.88 10.2-6.7 13.95-3.82 3.74-8.75 5.89-14.79 6.46h.12c-1.45.16-2.78.24-3.98.24-4.75 0-9.3-.75-13.64-2.23s-7.95-3.76-10.81-6.82-4.37-6.8-4.53-11.23c0-5.87.08-14.69.24-26.44l.12-7.85q.24-12.795.24-18.96c0-5.31-.04-9.22-.12-11.71h3.02l7.25-.24c3.94 0 7.4.44 10.38 1.33-.32 9.02-.48 15.94-.48 20.77 0 11.67.52 24.59 1.57 38.76v-.12c.48 1.61 1.21 2.84 2.17 3.68.97.84 2.01 1.27 3.14 1.27 1.29 0 2.49-.52 3.62-1.57s1.89-2.37 2.29-3.98v.12c.32-7.4.56-19.12.72-35.13l.12-7.73c0-3.86.08-9.18.24-15.94l2.54-.36q1.695 0 4.59-.36c3.3-.32 5.27-.44 5.92-.36 3.46 0 5.88.4 7.24 1.21h.97q.6 12.915.6 23.91ZM851.19 741.41c-3.94 0-7.41-.44-10.38-1.33.16-.8.24-1.37.24-1.69 0-1.85-.68-3.38-2.05-4.59s-2.9-1.81-4.59-1.81c-1.21 0-2.28.38-3.2 1.15-.93.77-1.47 1.91-1.63 3.44-.24.72-.36 1.37-.36 1.93l.12 1.09v.24c.56 1.69 1.39 2.86 2.48 3.5 1.09.65 2.39 1.09 3.92 1.33 4.02.56 8.09 2.05 12.19 4.47 4.11 2.42 7.41 5.23 9.9 8.45 1.53 2.09 2.74 4.41 3.62 6.94.88 2.54 1.33 5.01 1.33 7.43 0 4.19-.93 8.25-2.78 12.19q-3.135 6.765-9.66 10.5c-4.35 2.5-9.1 3.74-14.25 3.74s-10.32-1.03-15.27-3.08-8.96-5.01-12.01-8.88c-3.06-3.86-4.43-8.33-4.11-13.4v-1.09c2.33-.4 4.91-.6 7.73-.6 2.42 0 4.47.04 6.16.12 1.53.08 4.27.12 8.21.12.08 2.42.82 4.31 2.23 5.67 1.41 1.37 3.04 2.05 4.89 2.05 1.61 0 2.96-.52 4.04-1.57 1.09-1.04 1.63-2.54 1.63-4.47 0-.72-.04-1.29-.12-1.69-.4-2.98-1.81-5.07-4.23-6.28-2.41-1.21-5.67-2.21-9.78-3.02l-1.81-.36q-5.19-.96-9.06-4.23c-2.9-2.82-5.07-5.83-6.52-9.06-1.45-3.22-2.17-6.44-2.17-9.66q0-7.845 4.77-14.79c3.18-4.63 7.3-7.99 12.38-10.08 3.14-1.29 7.04-1.93 11.71-1.93 6.04 0 11.55 1.13 16.54 3.38 3.7 1.93 6.64 4.47 8.81 7.61s3.26 6.84 3.26 11.11c0 1.61-.24 3.7-.72 6.28h-1.45c-3.38.56-6.72.85-10.02.85ZM901.3 712.8c0 9.42-.12 18.92-.36 28.49q-.48 19.08-.48 30.06 0 12.675.72 25.23c-1.21 1.21-4.35 1.81-9.42 1.81-2.9 0-5.03-.04-6.4-.12l-1.45-.12-2.17-.12c-1.61 0-3.66.32-6.16.97.48-7 .72-14.45.72-22.34q0-4.71-.24-13.89l-.12-7c-.32-8.53-.48-15.45-.48-20.77 0-7.97.36-15.82 1.09-23.54a22.4 22.4 0 0 1 3.38-.24c.64 0 1.53.06 2.66.18s2.46.14 3.98.06c4.18.24 7.53.32 10.02.24h4.71v1.09ZM937.04 740.69q-.36 7.125-.36 14.49c0 7.365.12 9.18.36 12.56.24 2.17.88 4.29 1.93 6.34s2.29 3.44 3.74 4.17c2.82.16 4.95-1.13 6.4-3.86h-.12c.72-1.53 1.09-3.82 1.09-6.88q0-3.615.48-5.67 3.015.48 5.79.48l5.55-.12c2.9 0 5.63.32 8.21.97.97 2.82 1.45 5.76 1.45 8.81 0 4.59-1.15 8.93-3.44 13.04-2.29 4.1-5.45 7.45-9.48 10.02s-8.49 3.94-13.4 4.1q-2.175.36-5.07.36c-6.28 0-11.79-1.41-16.54-4.23s-7.41-7.04-7.97-12.68c-.4-8.05-.6-16.7-.6-25.96 0-7.65.04-13.92.12-18.83l.12-5.43q-.12-1.815.3-4.17c.28-1.57.66-2.96 1.15-4.17.72-1.85 1.67-3.7 2.84-5.55s2.39-3.38 3.68-4.59c1.69-1.37 4.18-2.54 7.49-3.5 3.14-.97 6.4-1.45 9.78-1.45 5.47 0 10.62 1.27 15.45 3.8 4.83 2.54 8.69 6 11.59 10.38q4.35 6.585 4.35 14.31c0 3.06-.56 6.12-1.69 9.18-3.38.72-6.2 1.09-8.45 1.09-3.06 0-7.29-.52-12.68-1.57l-.36-4.59c-.16-3.7-.62-6.5-1.39-8.39s-2.4-2.8-4.89-2.72q-.12 0-.3.06t-.54.06h.12c-2.5.4-3.86 1.25-4.11 2.54-.16.32-.36 2.86-.6 7.61Z" class="cls-2"/><path d="m17.22 524.04 5.07-.11-.05 2.7c0 2.4.05 4.84.16 7.34.03.85.07 1.88.11 3.12.04 1.23.05 2.68.05 4.33l-.05 2.75c-.04.46-.05 1.18-.05 2.17q-.105 3.855-.45 6.39c-.23 1.69-.78 3.28-1.64 4.76s-2.19 2.55-3.99 3.22c-1.69.85-3.68 1.27-5.97 1.27-1.27 0-2.57-.14-3.91-.42-2.36-.7-4.03-2.35-5.02-4.94S0 551.13 0 547.93l.05-1.58c.35-.07 1.02-.11 2.01-.11q1.905 0 3.12.21v.21l.05.9c.11 1.48.25 2.75.42 3.8.18 1.06.67 2.13 1.48 3.22s2.04 1.64 3.7 1.64c2.11 0 3.7-.55 4.76-1.64s1.59-2.3 1.61-3.62.03-2.07.03-2.25l-.05-4.07c-.07-4.3-.11-7.66-.11-10.09 0-3.38.05-6.76.16-10.14v-.37ZM47.87 526.1c1.59-.18 2.66-.26 3.22-.26.85 0 1.5.12 1.96.37.18 3.77.26 7.17.26 10.2 0 6.06-.3 11.78-.9 17.17-.32 2.4-1.23 4.39-2.75 5.97-1.51 1.59-3.49 2.5-5.92 2.75-.39.04-.95.05-1.69.05-3.17 0-5.88-.77-8.11-2.3-2.24-1.53-3.43-3.79-3.57-6.79-.04-1.34-.05-3.38-.05-6.13s.02-4.95.05-6.39c.07-3.94.11-6.89.11-8.82l-.05-6.23-.05-.05h.05l2.59-.05c1.02 0 1.87.07 2.54.21-.04.67-.05 1.62-.05 2.85l-.05 2.11c-.11 3.38-.16 6.34-.16 8.88 0 3.66.14 6.66.42 8.98q.42 3.495 1.53 6.39c.56.88 1.36 1.48 2.38 1.79.7.18 1.32.27 1.85.27.92 0 1.76-.19 2.54-.55.77-.37 1.37-.93 1.8-1.67.81-1.87 1.36-4.16 1.64-6.89s.42-6 .42-9.8l-.05-8.14c0-1.76.02-3.06.05-3.91ZM83.06 556.43c0 .32-.03.75-.08 1.29s-.06 1.01-.03 1.4c0 .85-.04 1.44-.13 1.77-.09.34-.2.53-.34.58s-.41.08-.79.08c-.32-.04-.66-.04-1.03-.03s-.75.03-1.14.03c-3.17.11-6.25.16-9.25.16l-7.24-.05c-.46-.04-1.2-.05-2.22-.05v-.95c.28-6.62.42-12.47.42-17.54 0-3.21-.05-6.76-.16-10.67 0-1.34-.04-4.02-.11-8.03q.69-.27 2.22-.27c1.51 0 2.69.18 3.54.53-.07 2.75-.11 4.83-.11 6.23 0 1.69.03 4.26.11 7.71l.05 7.66v3.33c0 2.71-.04 4.9-.11 6.55v.05c.42-.04 1.14-.07 2.17-.11s2.03-.05 3.01-.05c1.09 0 2.98.07 5.65.21 2.39.14 3.93.21 4.6.21.49 0 .81-.02.95-.05ZM111.01 524.94v.05c-1.02 3.28-2.23 6.54-3.62 9.8s-3.11 7.05-5.15 11.39c-1.69 3.63-3.03 6.53-4.02 8.69s-1.9 4.39-2.75 6.68c-.11-.04-.3-.05-.58-.05-.32 0-.58.02-.79.05-.6 0-1.06.02-1.37.05-.21 0-.48 0-.79.03-.32.02-.65 0-1-.03h-.74c1.16-3.13 3.22-8.4 6.18-15.8l.48-1.21c-.46-1.13-1.16-2.54-2.11-4.23q-.48-1.215-1.29-2.91c-.55-1.13-.92-1.88-1.14-2.27-1.09-2.18-1.97-4.07-2.64-5.65s-1.2-3.1-1.58-4.54c.46 0 1.11-.03 1.96-.11.49-.07.86-.11 1.11-.11.67 0 1.22.09 1.64.26 1.02 2.68 2.18 5.37 3.49 8.09 1.3 2.71 2.52 4.98 3.65 6.81 1.44-3.03 3.1-7.01 4.97-11.94l1.11-2.91c.81-.14 1.88-.21 3.22-.21.49-.04 1.09-.02 1.8.05ZM34.04 654.09v9.65c-.25.75-2 1.13-5.26 1.13s-6.14-.17-8.4-.5v-12.28c0-6.1.21-13.12.63-21.05.42-15.71.67-26.31.75-31.83v-3.76c0-.92-.04-1.67-.13-2.25-.5-.08-1.71 1.75-3.63 5.51-1.5 3.01-2.86 5.39-4.07 7.14-1.21 1.76-2.28 2.63-3.2 2.63-.75 0-2.71-.46-5.89-1.38s-4.76-1.63-4.76-2.13c1.59-3.42 3.61-7.29 6.08-11.59 2.46-4.3 4.7-8.02 6.7-11.15s3.38-5.2 4.13-6.2l7.77-.12c1.84 0 5.18.08 10.02.25.25 3.18.38 7.85.38 14.03v13.41c0 5.6-.17 13.99-.5 25.19-.42 9.36-.63 17.79-.63 25.31ZM108.1 599.59v3.51c0 3.59-.84 6.98-2.51 10.15q-2.505 4.755-7.14 8.52v.12c3.09 2.26 5.41 5.08 6.95 8.46s2.32 6.95 2.32 10.71c0 3.43-.58 6.77-1.75 10.02q-1.755 4.89-5.01 8.4c-1.92 2.34-4.7 4.12-8.33 5.32-3.63 1.21-7.54 1.82-11.72 1.82-4.68 0-9-.75-12.97-2.26-3.97-1.5-7-3.63-9.08-6.39-1.84-2.26-3.26-4.91-4.26-7.96s-1.5-6.2-1.5-9.46c0-3.67.67-7.21 2-10.59s3.3-6.37 5.89-8.96c-2.17-2.34-3.84-5.12-5.01-8.33a28.9 28.9 0 0 1-1.75-9.96c0-4.34.83-8.5 2.51-12.47 1.67-3.97 4.09-7.22 7.27-9.77 3.17-2.55 6.89-3.9 11.15-4.07q3.135-.12 8.4-.12c5.51 0 9.77.65 12.78 1.94 3.01 1.3 5.81 3.95 8.4 7.96.92 1.67 1.69 3.91 2.32 6.7.63 2.8.98 5.04 1.06 6.71Zm-21.68 52q3.885-1.005 5.64-2.88c1.17-1.25 2.05-3.09 2.63-5.51l.5-2.63c.25-3.42-.81-6.41-3.19-8.96s-6.08-3.99-11.09-4.32c-5.26.08-9.06 1.36-11.4 3.82Q66 634.8 66 639.69c0 .67.08 1.59.25 2.76 1.59 6.43 6.31 9.65 14.16 9.65 2.09 0 4.09-.17 6.01-.5Zm-4.14-61.91c-3.59 0-6.79.9-9.58 2.7-2.8 1.8-4.53 4.57-5.2 8.33h-.12v.12c-.08.5-.13 1.21-.13 2.13 0 3.51 1.13 6.39 3.38 8.65 2.25 2.25 5.85 3.38 10.78 3.38 5.68 0 9.31-1.46 10.9-4.39 1.59-2.92 2.38-6.22 2.38-9.9 0-3.26-1.17-5.91-3.51-7.96-2.34-2.04-5.31-3.07-8.9-3.07ZM966.09 524.04l5.07-.11-.05 2.69c0 2.4.05 4.85.16 7.35.03.85.07 1.88.11 3.12.03 1.23.05 2.68.05 4.33l-.05 2.75c-.04.46-.05 1.18-.05 2.17q-.105 3.855-.45 6.39c-.23 1.69-.78 3.28-1.64 4.76s-2.19 2.55-3.99 3.22c-1.69.85-3.68 1.27-5.97 1.27-1.27 0-2.57-.14-3.91-.42-2.36-.71-4.03-2.35-5.02-4.94s-1.48-5.49-1.48-8.69l.05-1.59c.35-.07 1.02-.11 2.01-.11q1.905 0 3.12.21v.21l.05.9c.11 1.48.25 2.75.42 3.8.18 1.06.67 2.13 1.48 3.22s2.04 1.64 3.7 1.64c2.11 0 3.7-.54 4.76-1.64s1.59-2.3 1.61-3.62q.03-1.98.03-2.25l-.05-4.07c-.07-4.3-.11-7.66-.11-10.09 0-3.38.05-6.76.16-10.14v-.37ZM996.74 526.1c1.58-.18 2.66-.26 3.22-.26.85 0 1.5.12 1.96.37.18 3.77.26 7.17.26 10.2 0 6.06-.3 11.78-.9 17.17-.32 2.39-1.23 4.38-2.75 5.97-1.51 1.58-3.49 2.5-5.92 2.75-.39.04-.95.05-1.69.05-3.17 0-5.87-.77-8.11-2.3s-3.43-3.79-3.57-6.79c-.04-1.34-.05-3.38-.05-6.13s.02-4.95.05-6.39c.07-3.95.11-6.89.11-8.82l-.05-6.23-.05-.05h.05l2.59-.05c1.02 0 1.87.07 2.54.21-.04.67-.05 1.62-.05 2.85l-.05 2.12c-.11 3.38-.16 6.34-.16 8.88 0 3.66.14 6.66.42 8.98s.79 4.46 1.53 6.39c.56.88 1.36 1.48 2.38 1.8.7.18 1.32.26 1.85.26.92 0 1.76-.18 2.54-.55.77-.37 1.37-.92 1.8-1.66.81-1.87 1.36-4.17 1.64-6.89.28-2.73.42-6 .42-9.8l-.05-8.14c0-1.76.02-3.06.05-3.91ZM1031.93 556.43c0 .32-.03.75-.08 1.29-.05.55-.06 1.01-.03 1.4 0 .85-.04 1.44-.13 1.77s-.2.53-.34.58-.41.08-.79.08c-.32-.04-.66-.04-1.03-.03q-.555.03-1.14.03c-3.17.11-6.25.16-9.25.16l-7.24-.05c-.46-.04-1.2-.05-2.22-.05v-.95c.28-6.62.42-12.47.42-17.54 0-3.21-.05-6.76-.16-10.67 0-1.34-.04-4.02-.11-8.03.46-.18 1.2-.26 2.22-.26 1.51 0 2.69.18 3.54.53-.07 2.75-.11 4.83-.11 6.24 0 1.69.03 4.26.11 7.71l.05 7.66v3.33c0 2.71-.04 4.9-.11 6.55v.05a76.807 76.807 0 0 1 5.18-.16c1.09 0 2.98.07 5.65.21 2.39.14 3.93.21 4.6.21.49 0 .81-.02.95-.05ZM1059.88 524.94v.05a103 103 0 0 1-3.62 9.8c-1.39 3.26-3.11 7.05-5.15 11.39-1.69 3.63-3.03 6.53-4.02 8.69-.99 2.17-1.9 4.4-2.75 6.69-.11-.04-.3-.05-.58-.05-.32 0-.58.02-.79.05-.6 0-1.06.02-1.37.05-.21 0-.48 0-.79.03-.32.02-.65 0-1-.03h-.74c1.16-3.13 3.22-8.4 6.18-15.8l.48-1.21c-.46-1.13-1.16-2.54-2.11-4.23q-.48-1.215-1.29-2.91c-.55-1.13-.92-1.88-1.14-2.27-1.09-2.18-1.97-4.07-2.64-5.65s-1.2-3.1-1.58-4.54c.46 0 1.11-.04 1.96-.11.49-.07.86-.11 1.11-.11.67 0 1.21.09 1.64.26 1.02 2.68 2.18 5.37 3.49 8.08 1.3 2.71 2.52 4.98 3.65 6.82 1.44-3.03 3.1-7.01 4.97-11.94l1.11-2.91c.81-.14 1.88-.21 3.22-.21.49-.04 1.09-.02 1.8.05ZM981.47 654.09v9.65c-.25.75-2 1.13-5.26 1.13s-6.14-.17-8.4-.5v-12.28c0-6.1.21-13.11.63-21.05q.63-23.55.75-31.83v-3.76c0-.92-.04-1.67-.12-2.26-.5-.08-1.71 1.75-3.63 5.51-1.5 3.01-2.86 5.39-4.07 7.14s-2.28 2.63-3.2 2.63c-.75 0-2.72-.46-5.89-1.38-3.18-.92-4.76-1.63-4.76-2.13 1.59-3.42 3.61-7.29 6.08-11.59 2.46-4.3 4.7-8.02 6.7-11.15s3.38-5.2 4.14-6.2l7.77-.12c1.84 0 5.18.08 10.02.25.25 3.18.38 7.85.38 14.03v13.41c0 5.6-.17 13.99-.5 25.19-.42 9.36-.63 17.79-.63 25.31ZM1056.9 606.1l.25 18.54.12 3.76c.17 3.34.25 5.81.25 7.39 0 2.34-.08 4.09-.25 5.26q-1.38 9.9-6.27 16.92-3.255 3.765-8.46 5.7c-3.47 1.3-7.25 1.94-11.34 1.94-5.43 0-10.67-1.04-15.72-3.13-5.06-2.09-8.79-4.93-11.21-8.52-2.17-3.17-3.26-7.1-3.26-11.78 0-1.84.08-3.26.25-4.26v-.63c1.92 0 3.38-.04 4.39-.12l4.64-.13c.58 5.18 2.53 9.09 5.83 11.72s7.16 3.95 11.59 3.95c2.34 0 4.55-.38 6.64-1.13q4.38-1.5 6.33-4.95c1.29-2.29 1.98-5.2 2.07-8.71v-7.52l.12-5.76-.12-.12c-4.09 3.09-8.14 4.68-12.15 4.76-6.1.25-11.24-.58-15.41-2.51-4.18-1.92-7.6-4.93-10.28-9.02q-1.875-2.88-2.88-7.02c-.67-2.76-1-5.64-1-8.65 0-4.59.67-8.56 2-11.9 5.09-8.69 13.95-13.32 26.56-13.91l3.76.12c5.01.09 9 .52 11.97 1.32 2.96.79 5.41 2.65 7.33 5.58 1.75 2.67 2.88 5.76 3.38 9.27s.79 8.02.88 13.53Zm-26.94 11.66c3.76 0 6.87-1.11 9.33-3.32s3.99-5.12 4.57-8.71c.17-.58.25-1.67.25-3.26.17-2.76-.33-5.28-1.5-7.58s-2.97-3.86-5.39-4.7c-2.17-.75-4.55-1.13-7.14-1.13-4.18 0-7.77.94-10.78 2.82s-4.51 4.62-4.51 8.21c.33 4.26.88 7.48 1.63 9.65v.12c1.17 2.59 3.01 4.55 5.51 5.89a16.8 16.8 0 0 0 8.02 2.01Z" class="cls-1"/><path d="M823.23 190.14c6.58.52 13.68-2.71 15.74-9.13 2.91-7.6-2.11-17.71-11.09-17.27h-.39c-2.7.09-5.48 1.37-7.15 3.36-.82.87-1.38 1.43-1.55 1.21.86-6.94 8.27-12.47 15.03-17.76 1.36-1.21.34-1.33-1.18-1.38-3.73.22-7.76-.83-10.75 1.45-5.45 4.16-11.1 11.09-12.48 19.49-1.9 9.67 3.07 19.81 13.82 20.04Zm10.88-12.18c.5-.29.87-.23 1.05.07.05.22.19.61.13.64-.5.28-.89.25-1.04-.08-.09-.2-.19-.6-.14-.63m-15.97-2.08c-.09-5.98 8.25-7.54 11.47-3.44.96 1.19 1.2 3.44 1.14 4.71v.3c.11 4.77-4.52 7.02-8.77 5.7-3.09-.78-4.16-4.24-3.85-7.27ZM786.09 172.57c-1.6 1.3-4.43 3.6-6.55 5.33-1.84 1.71-3.71 2.41-4.43 4.46-.23.85-.23 2.14-.23 3.5.14 1.6-.32 2.97.78 3.66 1.08.07 2.79.12 4.83.14h-.02c-.28-.5-.23-.89.09-1.05.2-.1.6-.2.63-.15.27.5.22.87-.08 1.06-.16.04-.4.12-.53.14 7.08.07 18.19-.1 22.32-.02 1.84.14 1.72-1.23 1.78-2.72-.13-1.47.53-4.12-1.3-4.5-2.15-.18-9.07-.03-13.69-.08-2.71-.04-4.53.16-4.09-.46 4.37-4.09 13-8.86 16.27-14.74 4.01-6.47.9-15.77-6.65-17.68-4.83-1.53-11.39-.97-15.49 1.86-4.93 3.88-7.97 8.03.36 9.48 1.11.12 1.84-.28 2.5-1.02 1.27-1.74 3.41-3.5 5.79-3.46h.36c4.26-.22 6.48 4.64 4.8 8.09-1.26 3.04-4.78 5.99-7.45 8.19ZM268.87 199.56c10.07-.12 15.18-7.5 15.37-19.88.55-10.62-3.65-22.12-15.58-21.83h-.37c-11.84-.33-16.13 11.12-15.58 21.83.02 11.41 4.97 20.24 16.15 19.88Zm-1.13-34.85c1.93-.19 4.09.33 5.38 1.79 3.26 3.76 2.09 11.38 2.29 16.22v.34c.06 4.69-1.87 10.44-7.66 9.67-7.16-.46-6.14-10.41-6.19-15.88-.2-4.85.6-11.99 6.19-12.13Zm-6.34-4.34c.11-.15.33-.43.35-.41.68.46 1.34.95 2 1.43-.19.33-.37.66-.57.98-.22.35-.47.67-.7 1.01-.15 0-.35.06-.43-.01-.57-.5-1.37-.72-1.71-1.49z" class="cls-2"/><path d="M268.29 182.13h.39c1.45-.02 3.07-.62 3.3-2.14.38-1.93-.03-4.47-2.5-4.61-1.83-.22-3.84.03-4.42 1.75-.59 2.57-.01 5.02 3.23 4.99ZM220.81 191.66c-.27.91-.85 1.26-1.6 1.03-.07.73-.07 1.59-.07 2.49.14 1.6-.32 2.97.78 3.66 1.28.09 3.41.13 5.95.15.16-.15.31-.32.48-.44.14-.1.4-.14.57-.09.35.11.68.29 1.02.45-.03.03-.07.06-.11.1 6.9.01 15.74-.11 19.32-.04 1.84.14 1.72-1.23 1.78-2.72-.13-1.47.53-4.12-1.3-4.5-2.15-.18-9.07-.03-13.69-.08-1.05-.02-1.96 0-2.66 0 .15.12.29.25.44.37.23.18.33.85.19 1.14-.35.7-.86 1.33-1.33 1.97-.26.35-1.21.47-1.59.23-.33-.22-.64-.47-.97-.7-.92-.64-.93-.63-1.11-1.92-.26-1.55-.07-1.67 1.19-2.08.86-.29 1.53-.12 2.12.22 4.47-4.02 12.73-8.69 15.9-14.41 2.06-3.32 2.23-7.39.89-10.82 0 .02 0 .04-.01.06-.14.47-.46.64-.94.6-.19-.02-.39.06-.59.09-.39.07-.79.15-1.18.19s-.92-.73-.87-1.39c.02-.36.2-.93.43-1.01.72-.24 1.49-.32 2.25-.4-1.44-2.39-3.69-4.26-6.63-5.01-4.83-1.53-11.39-.97-15.49 1.86-4.93 3.88-7.97 8.03.36 9.48 1.11.12 1.84-.28 2.5-1.02 1.27-1.74 3.41-3.5 5.79-3.46h.36c4.26-.22 6.48 4.64 4.8 8.09-1.26 3.04-4.78 5.99-7.45 8.19-1.6 1.3-4.43 3.6-6.55 5.33-1.32 1.22-2.65 1.93-3.56 2.99.42.35.72.97.58 1.45Zm17.3 6.38c.25-.18.55-.1.85.29.03.04-.18.33-.32.45-.23.2-.54.1-.85-.29-.03-.04.2-.3.31-.46Zm-2.61-.82c.23-.2.54-.11.85.28.03.04-.2.3-.32.46-.25.18-.55.1-.85-.29-.03-.04.18-.33.32-.45" class="cls-2"/><path d="M709.11 601.24c-1.23-5.39-1.05-10.73-2.78-15.94-1.26-3.27-1.36-6.75-3.26-9.89-2.15-4.36-5.64-8.23-9.06-11.82-7.35-6.59-16.92-11.97-25.57-15.72-3.96-1.7-8.46-2.54-12.55-3.6-.33-.11-.65-.25-.98-.37.1.33-.04.81-.22 1.14-.2.37-.58.64-.88.95-1.05 1.05-1.35 1.04-2.56-.14-.31-.3-.63-.58-.92-.89-.29-.32.13-1.4.59-1.66.55-.31 1.12-.36 1.69-.35-1.31-.57-2.61-1.11-3.96-1.37-3.26-.77-6.18-1.32-9.24-2.13-5.87-1.42-11.46-1.3-17.3-3.56-6.83-1.92-14.4-5.89-20.52-9.29-1.28-.61-2.52-.08-3.05.07-.13.1.56-1.36.11-2.69-.11-.36-.3-.72-.51-1.08-1.29-1.79-1.65-4.14-.87-6.22 2.57-5.56 10-6.54 15.36-8.67 1.97-.7 4.02-1.08 6.12-1.01 4.85.19 9.24-1.08 13.76-1.09 3.13.07 6.38-.81 9.47-1.17 3.08-.12 6.64.25 9.92.17 6.87.88 14.08 2.02 21.08 2.38 1.19.21 2.44-.24 3.02-1.15.33-.43.36-.6.41-.43.1.19.37 1.34 1.14 1.79.33.2.74.27 1.19.23 1.64-.2 4.4-1.35 5.14-1.84.87-.78 1.37-3.56 1.47-5.06-.1-1.02-1.81-1.29-1.87-1.35 0-.09 1.28-.5 1.64-1.44.08-.22.11-.46.12-.71-.18-3.89.53-8.03-.22-11.91-.33-2.26.52-4.65.22-6.87.15-2.46-.85-4.51-.93-7.03-.18-3.5 1.52-6.95.91-10.46-.38-1.24-2.2-1.71-1.99-1.73-.04-.05 2.2-.57 1.87-1.73-.1-.54-.49-1.15-.79-1.62-1.34-1.93-1.78-3.67-3.92-4.21-.47-.22-.96-.54-1.46-.36-.5.19-.87 1.15-.97 1.53-.06.21-.05.26-.12.14-.12-.24-.56-1.51-1.65-1.96-.6-.28-1.37-.36-2.07-.38-4.29-.19-8.27-1.23-12.63-1.41-5.88-.74-11.71-.9-17.48-.45-8.01-.85-15.62-.79-23.24 1.44-8.71 1.62-17.84 1.46-26.01 5.2-6.37 2.36-12.07 6.44-17.13 10.96-3.24 3.36-6.65 7.71-8.28 12.34-1.3 4.09-1.65 7.75-3.04 11.56-1.45 9.03.94 18.06 4.69 26.29 2.2 3.54 3.33 7.08 6.25 10.24 4.97 5.66 11.1 9.27 17.56 12.66 7.39 4.19 15.44 7.83 23.55 9.87 7.2 3.42 14.8 6.1 22.71 7.34 8.18 2.36 16.09 7.1 23.93 10.01 1.25.63 2.51.44 3.15.25.79-.24.62.02 1.41 1.2.95 1.4 2.78 1.63 4.22 2.46 1.74.97 3.46 2.14 5.13 3.21 5.53 3.86 11.2 8.5 14.13 14.36 2.47 9.11 4.17 21.8-7.45 24.89-10.26 2.85-20.86 3.87-31.44 3.12-5.7-.51-11.35-.8-17-.86-7.85-1.78-16.1-2.56-24.11-2.63-8.74-1.02-17.35-4.48-26.08-5.19-1.71-.05-2.53 1.86-2.57 1.45-.19-1.08-.89-2.3-2.17-2.17-1.7.12-4.62 1.06-5.57 1.73-.81.7-1.42 3.59-1.43 5.42.28 1.03 2.11 1.21 1.92 1.21.02.06-1.47.47-1.78 1.48-.21.74-.04 1.56-.06 2.34-.17 3.73-.35 7.7.22 11.43-.14 2.68-.57 5.41-.21 8.07.21 1.6.81 3.18.81 4.96.13 3.53-1.46 7.01-.98 10.56.24 1.3 2.2 1.75 2 1.79.05.06-1.81.52-1.86 1.54-.04.56.31 1.23.61 1.73 1.35 1.74 1.66 3.72 3.47 4.08 2.06.75 3.02 1.36 3.53-1.16.02-.08.06.05.23.4 1.36 2.96 5.52 1.39 8.22 1.97 9.04.87 18.47 2.02 27.43 1.74 3.27-.4 6.55.34 9.7.78 7.87.25 15.2.01 22.81-1.44 3.74.04 7.9-.8 11.7-1.07 4.42.16 8.59-.95 12.9-2.23 13.15-4.43 23.54-14.92 28.4-27.77 1.7-4.2 1.84-9.45 3.12-13.93 1.99-6.09 1.53-12.57 1.76-18.94l-.03-.3Zm-35.38-146.81c.36-.27.73-.54 1.09-.81.11.44.27.88.32 1.32.03.22-.08.51-.23.67-.32.32-.71.56-1.08.83-.11-.44-.27-.88-.33-1.32-.03-.22.14-.45.22-.68Zm.2 21.28c.21.06.61.12.61.18.02.56-.2.88-.54.86-.21 0-.61-.11-.61-.17-.02-.56.2-.85.54-.87m-1.99-11.91c.21 0 .61.11.61.17.02.56-.2.86-.54.87-.21-.06-.61-.12-.61-.18-.01-.56.2-.88.54-.86m-8.83 29.51c.21.01.61.11.61.17.01.56-.2.85-.54.87-.21-.06-.61-.12-.61-.18-.01-.56.2-.88.54-.86m-9.35-32.41c.29-1.47 1.61-1.97 2.74-1.03.44.37.5 1.27.14 2-.33.67-.97.88-1.8.59-.84-.3-1.23-.85-1.08-1.56m.27 22.96c.32.1.44.41.3.92-.02.06-.4.05-.6.02-.32-.07-.44-.4-.3-.92.02-.06.39-.02.6-.02M651 468.97c1.07-.86 2.05-.47 2.49.93.06.18-.08.43-.12.64q-.34.32-2.33-.27c-.21-.06-.42-.13-.63-.2.19-.38.29-.87.59-1.11Zm-6.87 24.56c.5-.16.85-.05.93.27.05.19 0 .41.01.62-.52.12-.86.03-.93-.29-.05-.2-.06-.58 0-.6Zm-18.59-40.78c.21.01.61.11.61.17.01.56-.2.85-.55.87-.21-.06-.61-.12-.61-.18-.01-.56.2-.88.54-.86Zm-.49 27.76c.56 0 .87.21.86.56 0 .22-.1.61-.16.61-.56 0-.85-.21-.87-.56.06-.22.11-.61.17-.61m-7.36 17.72c.32-.2.77-.2 1.17-.29 0 .21.05.44 0 .64-.17.63-.59 1.07-1.22 1.26-.2.06-.42.02-.64.03-.26-.25.09-1.25.69-1.63Zm-11.96-14.61c.19-.29.55-.32 1.02-.02.05.03-.06.42-.16.61-.16.31-.54.33-1.02.03-.05-.03.1-.4.16-.62m-7.49 13.96c.51-.16.85-.05.92.26.05.2.01.41.01.62-.52.12-.86.03-.93-.29-.05-.2-.06-.58 0-.6Zm-25.9-8.2c-.86-.26-1.72-.49-2.56-.8-.3-.12-.33-.63.02-1.04.47-.53 1.46-.73 1.8-.5.58.39.9.93.92 1.61 0 .22-.1.43-.18.72Zm21.55 34.93c-.16.29-1.2-.45-1.42-1.17-.11-.39.02-.84.05-1.27.22.06.45.09.65.19.18.09.33.26.49.4.11.2.31.39.32.6.03.42.09.92-.09 1.26Zm7.53 11.29c-.07.32-.41.45-.92.31-.06-.01-.01-.39-.01-.6.1-.32.42-.45.92-.31.06.01.05.4 0 .6Zm8.38-2.65c-.21-.06-.61-.12-.61-.18-.01-.56.2-.88.55-.86.21.01.61.11.61.17.01.56-.2.85-.55.87m23.34 17.92c-.56 0-.87-.21-.86-.56 0-.22.1-.61.16-.61.56 0 .85.21.87.56-.06.21-.11.61-.17.61m24.79-4.29c.56 0 .85.21.87.56-.06.21-.11.61-.17.61-.56 0-.87-.21-.86-.56 0-.22.1-.61.16-.61m3.47 14.23c-.36.61-1.31.98-1.62.7-.64-.58-1.26-1.17-1.85-1.8-.11-.12-.07-.43-.01-.63.33-1.22 1.49-1.61 2.35-.79.16.15.31.3.46.45.31.3.76.54.89.91.12.33-.03.84-.22 1.17Zm15.02 4.97c-.2.05-.41.02-.62.03-.11-.52-.01-.86.3-.94.2-.05.58-.07.6-.02.15.51.04.85-.28.93m16.77 14.45c-.56 0-.87-.21-.86-.56 0-.22.1-.61.16-.61.56 0 .85.21.87.56-.06.21-.11.61-.17.61M587.55 631.3s-.33-.16-.46-.3c-.21-.21-.13-.53.24-.85.04-.04.31.19.47.29.19.23.12.54-.25.86m4.62 10.83c-.02.06-.39.02-.6.02-.31-.1-.44-.41-.3-.92.02-.06.4-.05.6-.02.32.07.44.4.3.91Zm9.04-30.08c-.22.21-.54.13-.86-.23-.04-.04.19-.3.3-.46.24-.19.55-.13.87.23.04.04-.17.33-.3.46Zm3.91 28.23c-.9.68-1.69.57-2.2-.35-.22-.4-.45-.8-.68-1.19-.38-.38-.45-.79-.23-1.25.17-.36.48-.36 1.04-.13.63.25 1.31.35 1.94.6.75.3.81 1.81.13 2.33Zm.07-17.74c-.19 0-.4.15-.58.11-.48-.11-.7-.37-.61-.66.05-.18.17-.38.32-.48s.38-.1.57-.14c.75-.16 1.32.1 1.2.55s-.43.64-.9.63Zm4.69 8.49c-.07.32-.41.45-.92.31-.06-.02-.01-.39-.01-.6.1-.31.42-.44.93-.31.06.02.05.4 0 .6m2.62 15.69c-.23.2-.57.11-.87-.27-.11-.14-.09-.37-.14-.56-.23-.41-.17-.77.2-1.06s.85.11 1.01.84c.04.19.14.39.11.57s-.17.37-.31.49Zm7.35-20.33c-.21 0-.58.06-.6 0-.15-.5-.04-.85.28-.93.2-.05.58-.07.6-.02.16.51.04.83-.28.94Zm15.68 38.96c-.02.06-.39.02-.6.02-.31-.1-.44-.41-.3-.92.02-.06.4-.06.59-.02.32.06.44.4.3.92Zm10.18-33.82c-.16.31-.54.33-1.01.03-.05-.03.1-.4.15-.62.19-.29.55-.32 1.02-.03.05.04-.06.42-.16.61Zm13.4-4.13c-.03.05-.4-.1-.61-.16-.29-.2-.33-.56-.04-1.03.03-.06.42.07.61.17.31.17.33.55.04 1.03Zm7.47 24.87c-.08.09-.26.09-.4.13-.66-.15-.96-1.42-.45-1.94.08-.09.27-.14.39-.12.66.12.96 1.41.45 1.93Zm4.03-4.56c-.24.19-.55.13-.87-.24-.03-.04.17-.33.3-.46.22-.21.54-.13.86.23.04.04-.19.3-.3.47Zm1.3-28.75c-.22.21-.54.13-.86-.23-.03-.04.19-.31.3-.46.24-.19.55-.13.87.23.03.04-.17.33-.3.46Zm4.78 35.88c-.51.16-.83.05-.93-.26 0-.21-.05-.58 0-.6.51-.16.85-.05.92.26.05.2.06.58 0 .6Zm4.5-18.21c-.04.19-.15.36-.23.54-.15.16-.27.38-.45.45-.37.14-.81.33-1.16.25-.3-.07.09-1.21.68-1.59.32-.21.77-.2 1.16-.29 0 .21.04.43 0 .64m6.32-12.37c-.35.24-.78.46-1.18.48-.43.02-.87-.21-1.3-.34-.43-.12-1.03-.12-1.25-.41-.17-.23.13-.81.24-1.24.11-.44.16-.91.36-1.3.31-.61.89-.89 1.58-.91.54-.02.85.25 1 .77.06.21.22.4.33.6s.22.4.34.59c.42.72.39 1.42-.11 1.76Zm11.78 17.4c-.47-.14-.68-.39-.57-.67.06-.17.25-.47.3-.46.47.14.66.39.58.68-.11.16-.26.47-.31.46Zm.97-66.54c-.14.66-.59 1.08-1.2 1.31-.49.18-.85.01-1.12-.42-.11-.18-.3-.3-.46-.45-.31-.3-.63-.58-.92-.9-.28-.31.04-1.26.64-1.65.32-.21.93-.42 1.15-.27.7.49 1.28 1.14 1.87 1.76.11.12.09.42.05.62Zm5.69 33.94c-.19.06-.42.02-.7.03 0-.84-.02-1.69.05-2.53.02-.31.49-.47.94-.25.61.28 1.04 1.12.93 1.49-.2.63-.6 1.06-1.21 1.26ZM889.09 505.16c-1.36-3.06-4.83-5.71-7.15-8.63-1.45-1.96-3.27-2.09-4.46-1.23.19-1.23.14-2.72-1.12-3.49-4.68-3.93-9.07-8.72-14.22-12.14-5.37-6.66-13.52-9.91-18.85-16.49-2.28-2.5-5.61-7.68-9.32-6.33-.32.1 1.09-1.44.73-1.8-.52-.22-1.38.14-1.97.24-.77.2-.8-.6-1.11-1-1.54-1.51-1.68-1.03-1.84 1.01-.46-.58-1.71-2.33-3.15-2-5.75.55-11.79-.07-17.63.06-13.47-.03-27 .14-40.43.09.05.11.09.23.11.32.09.36-.21.65-.8.74-.07.01-.2-.39-.31-.61-.02-.18.03-.33.15-.46-2.92-.01-5.84-.02-8.74-.07-7 1.03-13.99 1.02-20.99.73.05.11.11.2.16.31-.48.36-.88.42-1.11.13-.1-.13-.23-.36-.28-.49-8.72-.39-17.45-1.13-26.2-.72-.92.07-1.75.48-2.32 1.15-.81 1-.44 1.1-.93.16-1.16-3.02-5.24.88-6.28 1.28-.96.47-1.43 3.08-1.5 4.57.25.81 1.94 1.02 1.92 1-.22.12-2.17.94-1.88 2.09-.27 4.78.22 9.91.09 14.76-.96 4.82 1.77 9.32.32 14.15-.54 2.59-1.62 6.55 1.45 7.48-.11.09-1.97.67-1.84 1.82 0 .29.11.62.24.94 1.08 1.78 1.93 4.39 3.7 4.74 1.01.13 2.36.99 3.34.46.95-.55.43-2.73 1.09-1.26.67 1.4 2.5 1.6 3.99 1.37 8.08-.27 16.33.18 24.24.19 5.68-.05 11.89-1.19 17.58-.03 2.47.1 4.5-.38 5.12 1.5 2.06 8.92 1.3 18.33.31 27.41.02 17.81-.59 36.03.41 53.93-.5 10.15-.9 20.36.59 30.36.4 10.82-2.31 21.92-.7 32.63.34.66 1.07 1.04 1.63 1.37.21.04-1.78.52-1.86 1.69.37 2.04-.63 5.41.97 5.88 2.1.5 6.89 1.51 7.1-1.36.03-.07.15 1.38.44 1.74.75.37 1.87.15 2.69 0 .22 0 .43.05.63.1.64.4 1.27-.74 1.97-.85 1.84 1.15 1.94 1.51 2.24-1.04 1.17 3.97 5.83 1.29 7.55.36.46-.3 1.46-5.6-.07-6.16-.9-.61-2.04 0-.64-.81 2.56-2.16.48-6.47 1.23-9.49.65-9.34-.9-18.5.17-27.66 0-5.74-.31-11.31-1.09-16.89-.26-7.27 1.42-14.68 1.08-21.92-.39-18.04.24-36.38-.44-54.32-1-4.12-.45-8.31-.54-12.52 0-2.7 1.35-3.84 3.97-3.91 12.2-.49 24.81.52 36.99-.61 10.5 1.6 20.97-.93 31.49-.35 5.31.88 11.22 1.31 16.51.76 1.37-.39 1.83-2.03 1.89-1.87 1.64 3.75 6.55 1.62 9.73 1.3 2.65-.68 4.98-1.35 5.68-1.55.34-.11.44-.24.32-.62l-.03-.11Zm-185.92-6.92c-.45.22-1.2-.06-1.65-.62-.42-.51-.35-1.1.19-1.65.55-.56 1.13-.67 1.64-.3 1.07.77.98 2.01-.18 2.57m12.2 2.84c-.28.82-.84 1.17-1.59 1-1.21-.26-1.64-.96-1.27-2.04.28-.82.84-1.17 1.59-1.01 1.21.27 1.64.96 1.27 2.05m2.41-12.35c-.73.56-2.29-.02-2.35-.86 0-.15.08-.37.2-.46.18-.14.45-.3.65-.26.48.1.95.26 1.38.48.17.09.22.42.33.63-.07.16-.09.37-.21.46Zm11.39.5c-.16.46-.3.93-.49 1.37-.19.45-1.51.53-2 .18-1.06-.77-1.29-2.01-1.77-3.08-.14-.33.16-1.02.47-1.32.28-.27.87-.36 1.31-.32.48.03.93.3 1.4.46 1.58.58 1.71.9 1.07 2.71Zm11.14-13.49c-.07.17-.41.28-.65.32-1.42.24-2.37-.78-1.94-2.06l.24-.69c.16-.46.2-1.04.52-1.35.28-.28.88-.37 1.32-.32.8.08 1.63.9 1.49 1.34-.3.93-.61 1.86-.98 2.76m19.14 22.81c-.21.1-.57.33-.62.28-.41-.45-.46-.85-.17-1.08.18-.14.57-.34.61-.29.41.45.44.83.17 1.09Zm-.14-36.46c-.43.23-.88.41-1.32.63-1.23.62-1.23.63-2.71.06-1.82-.63-1.83-.91-1.53-2.5.38-2.08 2.09-2.45 3.59-3.07.33-.14 1.1.15 1.33.47.55.78.93 1.7 1.33 2.58.22.48-.2 1.58-.69 1.84Zm3.29 5.22-1.09.82c-.12-.44-.27-.87-.32-1.32-.03-.21.08-.51.23-.66.32-.32.71-.56 1.08-.83.11.44.27.88.32 1.32.03.21-.14.45-.22.68Zm2.86-10.49c-.07.01-.24-.39-.3-.61-.09-.36.2-.65.8-.74.07-.01.21.39.31.61.05.37-.22.65-.81.74m4.69 144.3c-.06.17-.2.32-.31.48-.46-.17-.67-.42-.57-.7.06-.18.25-.47.3-.46.47.13.68.39.57.68Zm1.68-75.82c-.15-.18-.35-.56-.3-.61.45-.4.83-.42 1.1-.16.1.21.34.57.29.61-.45.4-.86.44-1.09.15Zm2.55-65.59c-.45-.08-.94-.08-1.35-.24-.7-.27-.85-.92-.65-1.74.13-.54.34-.89.86-1.02.41-.11.63.15.85.74.25.67.62 1.3.94 1.95-.22.1-.44.2-.66.31Zm4.96 64.79c-.18.14-.57.34-.61.29-.41-.45-.44-.83-.17-1.09.22-.1.58-.33.62-.28.41.45.46.85.16 1.08m2.5 74.48s-.33-.16-.46-.29c-.21-.21-.13-.54.24-.85.04-.03.31.19.47.29.19.23.13.54-.24.86Zm16.9-127.17c.55-.07.86.11.91.45-.04.21-.06.61-.12.62-.56.07-.89-.11-.9-.45 0-.21.05-.61.11-.62m-.04 3.53c.21-.1.57-.33.62-.28.41.45.46.85.17 1.08-.18.14-.57.34-.61.29-.41-.45-.44-.83-.17-1.09Zm1.74 20.33c-.14.32-.51.38-1.01.14-.05-.03.07-.41.1-.62.17-.31.52-.38 1.02-.14.06.03-.03.42-.11.62m26.1-26.36c.21-.01.61.04.62.1.06.55-.13.86-.47.91-.22-.04-.62-.05-.62-.11-.06-.55.13-.88.47-.91Zm-.09 14.94c-.15-.18-.35-.56-.3-.61.45-.4.84-.43 1.1-.16.1.21.34.57.29.62-.45.4-.86.44-1.09.15m5.18 4.84c-.03.05-.41-.06-.62-.1-.31-.16-.37-.51-.12-1.01.03-.06.42.02.62.1.32.13.38.5.13 1Zm5.28 3.58c-.37.04-.66-.22-.76-.81-.01-.07.39-.24.62-.29.36-.08.66.21.76.8.01.06-.4.2-.61.3Zm19.21 13.3c-.07 0-.25-.39-.3-.61-.08-.36.21-.65.8-.74.07 0 .2.4.31.61.05.37-.22.65-.81.75Zm15.17-7.72c-.37.15-.84.06-1.26.08.04-.22.05-.45.13-.66.07-.19.23-.35.35-.52.19-.13.36-.34.56-.38.41-.07.9-.18 1.25-.03.3.13-.33 1.23-1.02 1.51ZM398.94 496.51c.06-2.58.23-5.29.14-7.96-.87-3.78.52-7.77-.29-11.51l-.04-.18c-1.83-5.49 1.41-11.43.3-17.07-.3-1.4-1.29-2.7-1.97-3.87-.49-.81-.79-1.43-1.58-1.7-1.73-.46-3.39-1.25-5.87-1.01-4.61.76-9.47.07-14.14.23-3.22-.14-6.38-.12-9.53.02-.05.09-.1.18-.16.26-.35.44-.8.31-1.32.15-.26-.08-.52-.17-.71-.3-1.44.09-2.87.2-4.31.35-7.59-.98-15.44-.54-22.96.49-8.19.1-16.46-1.46-24.65-1.12-9.99.6-20.59-.46-30.59.42-3.15.62-6.31-.36-9.47-.41-3.02.14-5.91.23-8.82.19q-2.865.405-5.76.66c0 .36-.05.68-.24.77-.82.44-1.64.92-2.52 1.21-.29.1-.77-.36-1.16-.56-.13-.4-.34-.79-.37-1.19-2.84.06-5.69-.08-8.52-.55-4.46-.79-9.51-.38-13.89-.59-1.96-.27-2.58.18-3.51 1.72-.62.79-1.3-.26-2.04-.05-.49.17-1.21-.23-2.28 1.01-1.97 2.6-5.78 5.24-8.42 7.66-2.67 2.1-4.85 4.43-7.05 6.75-4.41 3.26-8.45 6.51-11.76 10.98-.93 1.06-1.94 1.96-2.99 2.79.28.12.43.29.41.54-.02.22-.14.63-.2.63-.58-.03-.9-.27-.87-.63v-.01c-2.14 1.6-4.46 2.95-6.75 4.64-5.75 4.56-11.73 10.05-15.2 16.46-.38.53.31.88 1.85 1.32 5.72.96 13.57 1.82 19.87.89 8.44.07 17.16.25 25.29.3 5.91-.12 11.94-1.25 17.84.03 5.11-.09 10.58-.33 15.6-.23 1.21-.05 2.05.13 2.42.89.62 3.19-.22 6.57.23 9.96.08 2.88-.81 5.61-.92 8.57-.25 6.37-.03 12.49-.29 18.88 1.25 13.85-.91 27.21.8 40.81.3 2.54-.59 5.04-.72 7.55.02 3.66.24 7.62.27 11.35-.44 4.13.68 8.22.9 12.41.22 0 .46.14.7.46.04.05-.25.34-.39.53a.5.5 0 0 1-.3.09c-.22 5.86.08 11.66-.97 17.49-.31 5.64.01 11.76-.27 17.3-.46 2.65-.18 7.17.63 8.39.34.64 2.78-.2 3.49-.03 1.3.19 3.33 1.21 4.25.71.15-.25.47-.19.59-.05.07-.1.15-.85.23-.91.1.18.09.8.31 1.02.24.07 1.18.08 1.67-.07 1.67-.39 5.13.03 6.07-.51 1.03-.5-.32-2.91-.03-4.26.56-1.79.94-3.9.52-6.02-.77-9.19.7-18.82-.37-27.96-.35-2.33-.21-4.68.18-7 .49-3.96-.06-7.24-.02-10.72-.04-.94-.04-1.83.23-2.66.18.08.41.17.39.12-.03-.04-.25-.1-.39-.12.12-.37.29-.74.56-1.08 6.36-5.81 15.29-8.39 22.78-12.27 3.29-1.16 6.29-2.67 9.57-3.93 7.35-2.25 15.14-3.18 22.61-4.55 3.51-.97 7.15.19 10.75 0 3.61-.3 7.15.03 10.74-.36 4.37-1.03 8.8-.57 13.29-.64 5.33.6 11.06 1.3 16.4.98 1.78-.02 3.44.14 4.81.11 2.58-.08 4.53-1.85 5.69-2.45 1.78-.93 1.61-3.08 2.21-5.01.1-1.9-.51-3.82-.2-5.74.12-2.33.12-4.97-.26-7.53.47-3.69.18-6.83-.66-10.41.07-4.48 2.49-9.21.24-13.64-.56-1.01-1.17-1.95-1.74-2.89-.53-.98-1.63-1.11-3.4-1.57-1.91-.63-3.3-.49-5.98-.17-5.12.51-9.88-.18-15.06.04-6.58-.17-13.02-.19-19.1.51-8.88-.77-18.1-1.1-26.54 1.95-6.7 1.54-13.83 2.82-20.39 4.84-7.3 2.53-13.93 6.16-20.44 10.46-7.16 3.91-5.62 3.01-5.96-3.9-.01-4.01-1.02-7.46-.29-11.26.83-5.88-.03-11.13.11-16.75-.19-3.49-1.72-7.43-.33-10.58 1.67-2.22 5.08-.21 7.65-.36 13.88.55 27.72-.33 41.73.16 5.88.18 11.64-1.03 17.36-.18-.04-.05-.08-.08-.12-.14-.04-.05.25-.35.38-.53.29-.2.65-.1.99.37.03.04-.15.28-.31.44.09.02.18.02.27.04 6.66-.21 12.69.24 19.12-.96 3.63-.43 7.49.2 11.23-.07 6.73.82 13.66 1.27 20.55 1.01 3.49.49 6.22-.12 8.64-1.97 1.22-.64 1.91-1.22 2.18-2.85.87-2.34.59-4.2.33-6.86Zm-222.49 8.36c-.77.54-1.66.91-2.53 1.29-.17.07-.47-.06-.66-.18-.64-.39-.91-1.01-.92-1.74 0-.58.3-.89.86-1.01.22-.05.43-.2.64-.31.42-.21.84-.44 1.28-.63.42-.18 1.3.51 1.48 1.27.1.42.1 1.13-.14 1.3Zm31.31-10.31c-.09.2-.33.54-.39.52-.54-.21-.73-.53-.61-.87.14-.18.34-.54.4-.52.53.21.75.54.6.86Zm10.88 11.37c-.06 0-.19-.39-.29-.6-.04-.37.22-.64.8-.74.07-.01.23.38.28.6.08.36-.21.64-.79.74m5.15-36.16c-.12.33-.8.6-1.22.6-.38 0-.85-.34-1.13-.66-.31-.35-.45-.84-.66-1.27-.71-1.48-.58-1.79 1.09-2.61.42-.21.84-.44 1.27-.63.44-.19 1.41.65 1.51 1.23.22 1.25-.46 2.27-.86 3.34m3.82 35c-.33.67-.95.88-1.75.59s-1.17-.84-1.03-1.54c.3-1.46 1.59-1.96 2.66-1.04.42.36.47 1.26.12 1.99m2.9-28.68c-.1.11-.3.2-.45.18-.22-.03-.52-.1-.63-.26-.27-.39-.49-.82-.63-1.27-.06-.18.13-.44.2-.67.15-.06.31-.2.46-.18.88.11 1.58 1.57 1.05 2.19Zm1.77-19.39c-.27.38-.5.81-.84 1.1-.53.46-1.19.51-1.86.26-.52-.19-.72-.56-.66-1.12.02-.23-.06-.46-.09-.7l-.09-.7c-.13-.84.17-1.51.78-1.63.43-.09.92-.14 1.31 0 .41.14.75.54 1.11.82.37.28.94.51 1.04.87.07.28-.44.72-.7 1.09Zm2.8 10.8c-.44-.35-.52-1.24-.18-1.98.31-.68.92-.91 1.72-.65.81.26 1.2.8 1.08 1.5-.26 1.47-1.52 2.01-2.62 1.13m5.72 2.09c-.75.38-1.38.25-1.79-.38-.66-1-.49-1.78.51-2.28.75-.38 1.38-.25 1.79.38.66 1 .49 1.78-.5 2.28Zm2.57-4.18c-.07.01-.24-.37-.3-.59-.09-.36.19-.65.76-.77.06-.01.2.38.31.59.06.36-.2.65-.77.77m10.32 80.25c-.09.2-.33.54-.39.52-.53-.21-.73-.53-.61-.87.13-.18.34-.54.4-.52.53.21.75.54.6.87m1.47-8.98c-1.2.82-2.45.28-2.6-1.14-.06-.55.51-1.23 1.26-1.49.69-.24 1.27.04 1.65.81.38.78.27 1.43-.3 1.82Zm2.79-73.42c-.05.04-.37-.23-.51-.4-.23-.28-.1-.65.35-1 .05-.04.34.25.52.39.2.3.1.66-.36 1Zm4.89 192.85c-.09.2-.33.54-.39.52-.54-.21-.73-.53-.61-.87.13-.18.34-.54.4-.52.53.21.75.54.6.87m123.32-90.87c.2.09.54.34.51.4-.21.54-.52.74-.85.62-.18-.14-.53-.35-.51-.41.2-.54.53-.76.85-.61m-50.06 3.83c.2.09.54.34.51.4-.2.54-.52.74-.85.62-.18-.14-.53-.34-.51-.41.2-.54.53-.76.85-.61m-5.8-26.9c.14-.18.34-.54.4-.52.53.21.75.54.6.87-.09.2-.33.54-.39.52-.54-.21-.73-.53-.61-.87m-50.04 43.05c.26-.22.97.89.9 1.66-.04.41-.35.8-.54 1.19-.19-.14-.39-.26-.55-.43-.14-.16-.21-.38-.31-.57-.03-.23-.14-.49-.08-.69.13-.42.27-.91.57-1.16Zm-11.84-14.36c.18.14.53.35.51.41-.2.54-.53.76-.85.61-.2-.09-.53-.34-.51-.4.2-.54.52-.74.85-.62m4.34-106.88c-.29.2-.65.1-.99-.37-.04-.05.22-.38.39-.52.27-.23.64-.11.98.36.04.05-.25.35-.39.53Zm5.56 14.69c-.22-.02-.43-.14-.65-.22.07-.59.29-.9.65-.86.22.02.63.15.62.21-.02.59-.26.9-.62.86Zm7.02 13.01c-.22.29-.59.31-1.07-.03-.05-.04.09-.44.2-.63.19-.31.59-.31 1.06.03.05.04-.13.41-.2.63Zm30.76-17.44c-.3.28-.6.15-1.04-.27-.5-.48-1.12-.84-1.62-1.32-.6-.57-.07-2.04.77-2.27 1.12-.3 1.83.11 1.96 1.18.06.47.13.93.19 1.4.21.51.12.93-.26 1.28m38.25-12.48c-.18-.14-.53-.35-.51-.41.21-.54.53-.76.85-.61.2.09.53.34.51.4-.21.54-.52.74-.85.62m8.07 3.52c-.13.47-.29.93-.44 1.39-.21.41-.36.87-.64 1.22-.36.46-.8.34-1.32.17s-1-.33-1-.88c0-1.32.27-2.08 1.02-3.29.11-.18.4-.31.63-.34.97-.11 1.98.86 1.75 1.72Zm16.98 30.47c-.14-.17-.35-.55-.3-.59.42-.41.8-.46 1.06-.2.11.21.34.55.3.6-.42.41-.82.47-1.05.19Zm9.32-32.51c-.23.03-.47.13-.68.07a1.08 1.08 0 0 1-.55-.42c-.21-.3-.07-.68.4-1 .17-.12.45-.08.68-.11.5-.24.92-.13 1.23.34.31.46-.21.99-1.09 1.11Zm5.22 24.87c-.21.03-.45-.13-.68-.2-.27-.35-.55-.69-.83-1.04.43-.13.85-.29 1.29-.36.21-.03.51.06.66.21.32.3.57.68.84 1.03-.43.12-.85.29-1.28.36M555.26 659.41c.58-1.89 1.32-3.34-1.23-3.58-.24-.02-.14-.03.26-.21.45-.21 1.21-.61 1.4-1.25.12-3.73.3-7.75.17-11.55-.84-3.97.55-8.22-.22-12.14l-.03-.19c-1.25-3.84-.49-7.47.29-11.45.06-2.19.56-4.71-1.99-5.42-.14-.04 1.05-.3 1.64-1.13.42-.65.21-1.47-.09-2.18-.63-1.41-1.73-3.55-2.4-4.17-.66-.59-3.14-.73-4.57-.84-1.14-.2-1.57 1.44-1.53 2.03 0 .24-.02.15-.33-.23-.4-.53-1.21-1.22-2.27-1.22-4.63.77-9.12 1.01-13.83 1.65-5.73.46-11.31 1.33-16.76 2.54-6.33.11-13.18.85-19.3 2.27-8.8 2.84-18.35 1.88-27.37 3.28-14.58 1.84-34.37 2.83-38.07-15.34-1.21-5.27-3.05-10.58-2.4-15.92-.1-3.14 3.49-1.66 5.54-1.8 18.06.05 35.6-.44 53.51-.11 8.59.11 16.84-1.93 25.39-.4 4.59.6 9.89.76 14.4.33 1.68-.37 1.86-2.6 2.12-1.58 1.04 3.55 5.24-.3 6.56-.97.83-.58 1.39-3 1.41-4.5-.28-.87-2.11-1.02-1.92-1.01 0 0 2.05-.81 1.87-1.79-.07-2.74.27-5.31.08-8.06-.51.42-.95.44-2.2.47-1.05.03-.96.02-1.07-.86-.19-1.4.21-2.49 1.35-3.33.17-.13.3-.31.45-.46.3-.31.59-.63.9-.93.1-.1.28-.12.48-.11.08-.9.14-1.8.06-2.7 0-1.74-.82-3.3-.9-5.04-.2-2.93 1.51-5.61.95-8.6-.28-1.07-1.98-1.41-1.94-1.54 3.98-1.01.04-5.25-.78-6.76-.58-.6-4.79-2.4-5.19-.42-.4 1.06-.04 1.38-.59.48-.69-1.26-2.1-1.56-3.47-1.36-11.66-.34-23.5.56-35.07-.17-7.79-.04-15.17 1.34-22.94 1.01-8.79-1.27-17.48-1.28-26.32-.72-3.29-.5-6.49.6-9.05-.87-1.34-2.85-1.41-8.1-.96-11.51.7-4.35-.12-8.2.12-12.25-.08-3.36 11.16-1.11 13.51-.98 15.33.54 30.73.53 46.02-.26 10.29 1.64 20.46-.94 30.78-.38 5.42.69 12.19 1.75 17.45.52 1.02-.66 1.28-1.85 1.32-1.59.67 2.66 2.19 1.91 3.94.48 1.35-1 2.47-.93 3.07-2.45.22-.45.58-.99.78-1.45.53-.7-1.49-1.6-1.72-1.6 0-.05 1.53-.16 2.02-1.05 1.67-6.66 2.74-13.87 4.14-20.65-.04-.78-.05-1.58-.03-2.39-.23-.1-.46-.22-.65-.43l.54-2.04c.06-.21.19-.59.21-.58.07.02.13.04.19.05.22-1.24.58-2.46 1.15-3.61 1.02-2.25 2.88-6.43.03-7.71.06-.18 1.9-.22 2.22-1.44.34-1.98-.77-5.4-1.7-6.62-.66-.73-3.08-.95-4.87-1.33-1.06-.22-1.72 1.41-1.74 1.97-1.54-2.94-5.48-1.73-8.34-1.73-16.66-.91-33.42.75-49.97-.36-13.04.02-25.74 1.32-38.69 1.1-6.2-.9-12.7-1.11-19.05-1.08l-.01.01s-.03 0-.05-.01c-2.15 0-4.29.04-6.39.08-1.28-.31-3.3 1.33-3.44 1.98-.06.08-.08-.06-.24-.38-.21-.44-.57-1.18-1.14-1.38-.95-.3-2.05.47-2.87.92-1.79 1.2-2.89 1.36-3.27 2.81-.63 2.29-1.49 3.92 1.27 4.24.06.05-1.3.53-1.77 1.65-.23.55-.24 1.22-.19 1.96.5 5.78-.26 11.88-.05 17.64-.41 9.33.77 19.08-.38 28.35-.32 9.71.91 18.65.17 28.4-.63 7.64-2.1 15.05-1.92 22.76-.23 1.51.39 3.02 1.79 3.65.23.2-1.8.63-2 2.29-.02.12-.05.37-.06.49.17 6.48-.74 13.6-.46 19.84-.19 6.27.35 12.53 1.72 18.75-.22 4.47.4 8.76 1.44 13.07.32-.03.73.49 1.08.78.5.43 1.15.71 1.39 1.44.18.54-.09 1.77-.54 1.84-.27.04-.54.09-.81.13 2.79 9.7 8.04 19.03 13.09 27.84.15-.1.3-.12.46-.04.2.09.54.34.51.4-.09.24-.21.41-.34.52 3.71 4.57 10.08 9.53 15.92 8.2.23 0 .38.27.87.82 2.14 1.98 5.66 1.21 8.37 2.11 10.99 1.84 20.07 2.86 30.7 1.97 8.87.63 17.87 1.07 26.68-.46 11.99-1.95 24.12.24 36.14-1.69 1.24.06 2.62-1.83 2.58-2.21.04-.07.06.02.19.25.23.43.71 1.35 1.37 1.42.81.07 1.59-.62 2.22-1.09 1.61-1.47 2.81-1.62 3.2-3.15Zm-32.2-101c.21-.12.36-.33.53-.5.18-.17.36-.33.53-.51.64-.62 1.38-.77 1.86-.34.34.31.68.69.81 1.11.13.44 0 .96-.02 1.45-.02.48.14 1.11-.1 1.41-.19.23-.88.07-1.35.07-.48 0-.99.07-1.45-.04-.72-.17-1.16-.7-1.36-1.41-.16-.56.04-.95.55-1.24m-15.59-8.95c.22.01.6.11.61.17.01.56-.2.86-.54.87-.21-.06-.61-.12-.61-.18-.01-.56.2-.88.55-.86Zm-1.89 30.43c.21.06.61.12.61.18.01.56-.2.88-.55.86-.21 0-.61-.11-.61-.17-.01-.56.2-.85.54-.87Zm-5.55-3.6c.56 0 .85.21.87.56-.06.21-.11.61-.17.61-.56 0-.87-.21-.86-.56 0-.22.1-.61.16-.61m-22.06-13.85c.24 0 .66-.05.68.02.15.58 0 .97-.36 1.04-.23.05-.66.06-.68 0-.15-.58 0-.94.36-1.05Zm-11.95 10.41c.03-.05.42.07.61.17.3.17.33.55.04 1.03-.03.05-.4-.1-.61-.17-.29-.19-.33-.56-.04-1.03m-7.14-35.09c.77-.47 1.52-.97 2.35-1.3.28-.11.75.3 1.14.48.16.4.43.81.45 1.21.02.44-.2.88-.32 1.31-.12.44-.11 1.09-.38 1.25-.28.16-.84-.17-1.27-.31-.61-.21-1.29-.22-1.78-.79-.36-.42-.56-1.63-.18-1.86Zm-2.2 15.92c.38.2.78.36 1.12.6.17.12.32.37.33.58.03.42-.03.85-.05 1.28-.38-.2-.78-.36-1.13-.6-.17-.12-.23-.38-.35-.58.03-.43.05-.85.08-1.28m-23.14-9.64c.22.06.46.08.65.2.59.36.91.92.92 1.61 0 .22-.11.43-.16.65-.33.19-1.24-.47-1.45-1.19-.11-.39.02-.84.05-1.27Zm117.74-79.93c.19-.29.55-.32 1.03-.03.05.03-.06.42-.16.61-.16.31-.54.33-1.02.03-.05-.03.1-.4.15-.62Zm-6.93-2.84c.19-.11.38-.29.59-.31.21-.03.46.06.64.18.3.19.31.59 0 1.05-.11.17-.38.23-.57.34-.37.39-.79.45-1.23.15-.45-.3-.17-.97.58-1.4Zm-11.03 24.29c.71-.56 1.54-.96 2.35-1.38.16-.08.45.03.65.14.63.34.92.92.97 1.61.04.55-.24.87-.77 1.02-.21.06-.4.22-.59.33-.39.22-.78.47-1.19.67-.4.2-1.27-.41-1.48-1.14-.12-.39-.15-1.07.07-1.25Zm-11.95-20.95c1.15-.7 2.32-1.36 3.5-2 .15-.08.43 0 .63.07.15.05.26.21.39.32-.18.66-.34 1.31-.52 1.97-.25.9-1.11 1.45-1.95 1.23-.66-.17-1.31-.35-1.96-.56-.12-.04-.25-.25-.26-.39 0-.22.03-.55.17-.64m-1.83 41.8c-.56-.04-.88-.24-.86-.59 0-.22.1-.61.16-.61.56 0 .87.21.86.56 0 .21-.1.43-.16.64m-2.94-37.52c.45-.26.91-.5 1.25-.1.59.67 1.06 1.45 1.53 2.22.34.55.02 1.21-.68 1.62-.69.4-1.37.3-1.74-.27-.25-.39-.46-.8-.69-1.2-.15-.41-.36-.82-.42-1.24-.08-.53.3-.76.75-1.02Zm-7.04-12.29c.45-.25.87-.49 1.26-.13.92.85 1.28 1.53 1.64 2.84.05.19-.04.48-.17.66-.55.75-1.89.83-2.33.11-.24-.39-.46-.8-.69-1.21-.15-.41-.37-.81-.44-1.24-.09-.54.28-.78.73-1.03m-7.41-2.65c.15.17.35.55.3.59-.43.41-.82.47-1.05.19-.14-.17-.21-.41-.32-.61.46-.37.84-.45 1.07-.17m-20.17 7.94c.17-.16.41-.23.62-.34.39.12.52 1.29.12 1.97-.22.36-.67.58-1.02.87-.11-.21-.27-.41-.31-.64-.14-.72.06-1.36.59-1.86m-8.35 5.47c.11-.17.38-.23.57-.34l1.27.09c-.19.38-.35.78-.58 1.13-.11.17-.37.31-.57.33-.42.03-.84-.04-1.27-.07.19-.38.34-.78.58-1.13Zm-16.01 14.11c-.14-.17-.21-.41-.32-.61.46-.38.84-.45 1.07-.17.15.17.35.55.3.59-.42.41-.82.47-1.06.19Zm-1.42-22.12c1.1-.85 2.34-.4 2.56.95.09.53-.42 1.2-1.12 1.5-.65.27-1.22.03-1.62-.69-.41-.72-.34-1.35.19-1.76Zm-2.78 35.39c.35-.09.64.18.75.76.01.06-.38.21-.58.32-.36.06-.64-.19-.75-.77-.01-.06.37-.25.59-.31Zm-23.7 9.34c.19-.29.55-.33 1.03-.03.05.03-.06.42-.16.61-.16.31-.54.33-1.02.03-.05-.03.1-.4.15-.61m-2.16 59.97c.21.01.42.11.64.17-.04.56-.23.88-.57.86-.22-.01-.61-.11-.61-.17-.01-.56.2-.88.55-.86Zm-12.66 55.61c-.13.36-.5.49-1.07.31-.06-.02-.04-.45.02-.68.1-.36.49-.49 1.06-.31.06.02 0 .44-.02.68Zm.3-83.61c-.05.04-.37-.23-.52-.4-.23-.28-.11-.65.35-1 .05-.04.34.26.52.39.2.3.1.66-.36 1Zm2.19-78.39c-.52-.18-.72-.56-.65-1.12.03-.23-.13-.49-.07-.69.18-.55.51-.79.84-.66.21.08.43.24.54.43s.08.45.11.69c.11.9-.25 1.54-.77 1.36Zm3.42 130.53s-.37-.23-.51-.4c-.22-.28-.1-.65.36-1 .05-.04.34.25.52.39.2.3.1.66-.36 1Zm1.52 21.87c-.29-.33-.6-.64-.84-1.01a.86.86 0 0 1-.09-.68c.13-.42.35-.8.54-1.2.29.33.61.64.84 1.01.11.18.08.45.11.69-.19.4-.38.79-.56 1.19m3.78-103.89c-.2.78-1.76 1.02-2.33.35-.09-.11-.08-.32-.11-.48.23-.76 1.77-1 2.34-.35.1.11.14.34.1.48m14.56 121.98c-.18-.14-.41-.25-.54-.43-.43-.57-.51-1.22-.26-1.89.08-.21.27-.37.41-.56.39-.05 1 .92.93 1.69-.04.41-.35.8-.54 1.19m10.12 34.03c-.58.16-.97.02-1.04-.35-.04-.23-.04-.66.02-.68.58-.16.94-.01 1.05.34 0 .24.03.66-.03.68Zm12.35-28.56c-.23.05-.66.05-.68-.01-.15-.58 0-.94.36-1.05.24 0 .66-.04.68.02.15.58 0 .96-.36 1.04m6.22-1c-.21-.01-.61-.11-.61-.17 0-.57.2-.88.55-.87.21.01.43.11.64.17-.03.56-.23.88-.57.86Zm6.8 18.34c-.28 1.07-.26.98-1.19.83-1.48-.23-2.47-.95-2.99-2.37-.08-.21-.22-.4-.34-.6-.23-.4-.46-.79-.68-1.19-.22-.42.4-1.39.97-1.53 1.07-.26 3.12.36 3.6 1.1q1.15 1.77.62 3.74Zm5.87-6.07c-.79.95-1.61 1.02-2.4.19-.6-.62-.66-1.28-.17-1.87.79-.95 1.61-1.02 2.4-.2.6.62.66 1.29.17 1.88m8.71-25.84c-.03.05-.4-.11-.61-.17-.29-.2-.33-.56-.04-1.04.03-.05.42.07.61.17.31.17.33.55.04 1.03Zm.65 30.12a.54.54 0 0 1-.26-.39c-.1-.78 1.21-1.56 1.97-1.16.12.07.18.26.27.39.07.77-1.23 1.55-1.99 1.16Zm6.65 3.16c-.02.06-.45.05-.68 0-.36-.09-.48-.48-.29-1.06.02-.06.44 0 .68 0 .35.12.48.49.29 1.06m.27-20.81c-.02.06-.4.05-.6.01-.32-.06-.44-.4-.3-.91.02-.06.39-.02.6-.02.32.1.44.41.3.92m10.64-18.57c-.18.11-.28.38-.46.45-.5.19-.86.09-.96-.23-.06-.2-.08-.45 0-.63.07-.18.28-.32.43-.47.58-.59 1.25-.7 1.42-.23.17.48 0 .84-.44 1.11Zm13.84-2.4c-.03.05-.42-.07-.61-.17-.31-.17-.33-.55-.04-1.03.03-.05.4.11.61.16.29.2.33.56.04 1.04m4.65 3.38a.54.54 0 0 1-.26-.39c-.09-.77 1.22-1.55 1.97-1.16.13.06.19.26.28.39.07.77-1.23 1.55-1.98 1.16Zm2.75 16.44c-.09.32-.45.44-.95.28-.18-.06-.31-.28-.46-.43-.45-.23-.62-.59-.46-1.08s.83-.41 1.42.15c.15.15.36.27.44.45s.07.43.01.63m18.07 25.11c-.51.16-.85.05-.93-.27-.04-.19-.06-.58 0-.6.51-.16.83-.05.93.26 0 .21.05.58 0 .6Z" class="cls-3"/><path d="M316.92 107.58c.03.08-1.45.41-1.77 1.05-.21 1.36-.32 3.04-.04 4.74.14.99.14 2 .05 2.99-.33 1.5.77 2.77.96 4.36-.01 1.19-1.07 2.71-.84 4.14.26.81 1.89 1.03 1.85 1.18-.37.33-1.37.8-1.72 2.01-.09.36-.1.76-.05 1.19.77 3.18 1.45 5.44 2.93 6.81.89.5 2.74-.26 4.76-.98 1.87-.65 6.03-1.73 4.48-4.2-.14-.29-.64-.58-.58-.74.67-.07 2.31-.59 2.87-1.57 2.39-4.91 5.96-7.92 10.88-10.83 1.94-.75 6.56-4.93 6.65-.65-.74 9.24-.88 18.54.53 27.7.23 7.4-.68 15.21-1.06 22.63-.19 1.67-1.59 3.54-1.06 5.81.45 2.44 3.15 4.47 5.65 4.28 1.33.1 2.68-2.49 2.8-3.19.9 4.13 5.59-1.13 7.67-1.85 4.56-2.49 13.19-5.52 8.2-11.99-1.41-1.49-2.85-2-3.17-3.24-.39-1.47-.28-3.39-.42-5.13-.34-4.5-1.15-8.96-.33-13.4-.09-6.31-.06-12.43-.92-18.68-.93-3.93-.49-7.84-.62-11.94-.02-1.04 0-2.29.53-3.02 2.55-2.55 7.99-2.86 11.61-2.87 1.63.31 3.49-.6 4.23-1.4-.02 1.58-.27 2.49 1.5 1.01.8-.72 1.28-.12 1.79.19.47.17 1.58.48 1.74.09.1-.29.24-.56.49-.34.04.04.07.07.09.08.11-.06 2.24-1.33 2.88-1.46.74-.29.91-1.42 1.22-2.08.38-1.27 1.53-1.23 1.89-2.18.19-.57.76-1.26.51-1.86-.3-.51-1.66-.55-1.72-.72.13-.1 1.7-.57 1.72-1.33.31-2.55-.22-6.19.1-8.63-.09-1.17-.81-2.27-.94-3.51.04-1.03.68-2.22.93-3.55.06-.29.09-.57 0-.82-.22-.81-1.84-1.15-1.82-1.22-.01-.07.02-.07.1-.13 3.66-1.56.34-7.88-.44-9.46-1.43-1.93-3.88.12-7.04.88-.47.15-.98.35-1.33.66-1.05.85-.44 2.57-.73 2.43-.81-.52-2.31-.92-3.42-.15-3.02 1.92-6.88 3.46-9.97 5.25-3.88 1.75-7.28 3.94-10.91 6.26-4.04 1.66-7.51 3.45-11.24 5.63-4.03 2.68-8.08 5.78-12.65 7.58a60.5 60.5 0 0 0-11.21 4.92c-.81.42-1.49.87-1.85 1.47-.55.91-.39 1.77-.52 2.03-1.49-1.5-2.05-1.61-2.8 1.03-.34 1.27-1.49 1.25-1.83 2.2-.96 1.94-.68 2.19 1.43 2.48Zm71.74-18.68c.29-1.15.97-1.55 2-1.16.78.29 1.1.84.92 1.55-.29 1.15-.97 1.55-2 1.16-.78-.29-1.1-.84-.92-1.55m-10.68-1.58c-.15 0-.35-.09-.43-.21-.13-.18-.28-.44-.23-.63.1-.45.28-.9.5-1.31.09-.17.41-.21.62-.3.15.07.35.1.44.21.51.71-.09 2.2-.89 2.23Zm2.04.47c-.21.1-.56.34-.6.29-.4-.44-.44-.84-.15-1.08.18-.14.56-.35.6-.3.39.44.42.82.16 1.08Zm-2.99-12.68c.61-1.51.91-1.62 2.63-.95.44.17.88.31 1.3.51.43.19.47 1.46.11 1.92-.76 1-1.96 1.18-3 1.61-.32.13-.97-.18-1.26-.49-.26-.28-.32-.85-.27-1.27.05-.46.31-.89.48-1.33Zm-19.2 31.14c.1.21.33.57.28.61-.44.4-.84.46-1.06.17-.14-.18-.34-.56-.29-.6.44-.4.81-.44 1.07-.17Zm-8.38 36.91c.36-.41 1.23-.45 1.93-.08.64.34.82.95.51 1.74-.31.8-.85 1.15-1.53 1-1.4-.32-1.85-1.6-.91-2.66M402.15 86.18c1.21 1.01 2.74 2.96 2.42 5.15-.91 7.91-3.16 16-3.57 23.91-2.19 7.63-3.67 15.67-3.64 23.68.03 3.8-4.35 6.17-4.56 9.87-.13 1.4-.17 3.16 1.37 3.98 4.37 1.37 8.95-2.29 12.81-4.37 3.17-1.93 7.52-2.81 9.22-6.43.59-1.25.65-2.76 0-3.97-1-1.95-2.61-2.17-3.13-3.15-.1-2.12.77-4.89 1.13-7.23.13-6.77 7.37-7.41 12.1-10.1 4.07-2.56 8.3-4.19 11.93-7.33 1.53-1.17 3.53-2.3 5.13-2.58.76-.09 1.08.32 1.3 1.15.37 1.91 1.37 4.82 1.99 6.87.3 2.43-1.76 5.27.61 7.44 3.14 3.35 7.57-.12 10.58-1.99 3.8-2.67 10.94-3.39 10.03-9.24l-.08-.28c-1.11-2.6-4.23-3.42-5.01-6.1-1.3-3.69-3.58-7.1-4.78-10.85-1.84-7.37-4.69-13.83-8.38-20.29-3.3-7.41-4.58-15.7-7.77-23.17-1.36-3.89-2.57-8.01-5.81-9.92-1.17-1.18-2.41-1.4-3.95-.82-1.52.41-3.43.89-4.74 1.93-2.6 1.88-5.34 2.42-7.96 4.45-1.48 1.08-3.48 1.68-4.98 2.52-1.71.82-2.77 2.42-4.36 3.4-2 1.2-3.9.91-6.15 2.11-1.1.52-2.54 1.04-3.3 1.87-.87 1.34-.91 2.84-2.31 3.66-1.17 1.26-1.31 2.99-.95 4.54-.02.83-.28 1.8-.1 2.68.46 1.38-.12 2.51.06 3.68.2.81.86 1.78.87 2.65-.19.82-.8 1.76-1.01 2.87-.67 2.56 1.26 5.74 2.47 7.48.6 1.14 1.95 1.22 2.53 1.91Zm1.17 51.49c-.36.04-.62-.23-.69-.8 0-.06.38-.23.59-.27.35-.07.62.22.69.79 0 .06-.38.19-.59.28m49.98-38.2c.13.18.31.56.26.6-.44.38-.83.42-1.04.13-.13-.18-.19-.41-.28-.62.47-.34.85-.39 1.06-.11m-19.58 8.25c-.24.34-.69.53-1.05.79-.09-.21-.24-.42-.27-.64-.1-.71.14-1.33.68-1.79.17-.14.42-.2.63-.3.37.14.44 1.29 0 1.94Zm1.2-45.23c.06 0 .18.39.27.6.03.36-.23.63-.8.71-.06.01-.22-.38-.26-.6-.06-.35.22-.62.79-.71m-3.25 1.16c.1.21.33.57.28.61-.44.4-.84.45-1.06.17-.14-.18-.34-.56-.29-.6.44-.4.82-.44 1.07-.17Zm-13.62 34.49c.12-2.42.73-4.69 1.3-7.04.66-4.5 1.01-7.81 2.85-11.64.61-2.12.41-4.71 1.47-5.84 1.07-1.21 4.3-3.3 5.46-3.06 1.64 1.03 2.4 5.41 3.27 7.41.53 1.7 1.37 3.72 2.21 5.76.07-.22.09-.48.24-.62.31-.32.67-.71 1.06-.8.34-.08.48 1.27.06 1.94-.19.3-.53.5-.85.71.99 2.43 1.91 4.83 2.25 6.69l-.02.14c-.56 1.15-3.96 2.29-5.2 3.72-1.9 1.87-4.53 1.91-6.83 2.82-1.69.67-3.31 1.96-4.85 2.77-.72.46-1.27.78-1.6.85-.82.43-.92-2.92-.82-3.8Zm-9.21-9.11c.33-.3.83-.41 1.25-.6s.94-.63 1.25-.51.42.78.58 1.22c.23.62.67 1.18.54 1.93-.1.56-.93 1.51-1.36 1.36-.87-.3-1.77-.58-2.57-1.03-.27-.15-.25-.8-.37-1.22.22-.39.36-.87.67-1.15Zm.04 34.1c.13.18.31.56.26.6-.44.38-.83.42-1.04.13-.13-.17-.19-.41-.28-.62.47-.34.85-.4 1.06-.11M531.62 68.84c.88 2.36.83 4.91 1.48 7.35.86 2.84 2.4 5.41 3.88 7.82 1.46 2.69 3.55 4.7 6.09 6.34 2.61 2.14 4.96 4.54 7.9 6.18 5.27 4.85 12.73 8.07 20.07 8.22 4.56-.42 8.47-2.38 11.6-5.25-.06.02-.11.04-.18.05-.07 0-.24-.38-.29-.61-.08-.36.2-.65.79-.75.06-.01.2.39.3.6 0 .04 0 .08-.01.12 5.01-4.94 7.86-12.27 7.87-19.3.38-3.9 1.82-8.4 1.3-12.04v-.27c-.06-3.19.19-6.67-.79-9.82-.91-3.24-.43-6.79-1.2-10.13-.22-5.53-.71-11.3-3.1-16.53-.32-.84-.59-1.65-1.03-2.15-.85-1.08-2.65-.71-2.51-.79-.03-.01 1.19-1.11.99-2.31-1.01-2.81-3.23-5.34-4.75-7.92-4.44-6.13-11.49-11.99-19.04-13.78-4.08-2.25-8.76-3.01-13.27-1.6-2.35.77-5.06 1.7-6.81 3.63-2.35 3-4.79 6.5-6.48 9.94-.99 3-2.66 5.72-3.58 8.8-1.33 4.53-1.24 9.27-1.62 13.76.86 9.89-.9 20.78 2.39 30.45Zm14.04 2.68c-.54 1.31-1.81 1.55-2.65.51-.33-.41-.23-1.25.23-1.87.43-.57 1.04-.66 1.73-.25.7.41.95.98.69 1.61m5.24.82c-.04-.14.08-.33.12-.49.03-.03.08-.05.12-.08-.02 0-.03.01-.05.01-.06 0-.15-.39-.16-.61-.01-.35.31-.56.86-.55.06 0 .11.4.17.61-.01.16-.09.28-.21.37.65 0 1.43.41 1.58 1.01.04.14-.02.37-.13.48-.55.61-2.08.11-2.3-.75m2.5 7.68c-.06.01-.2-.39-.3-.6-.05-.37.21-.65.79-.75.06-.01.24.38.29.6.08.36-.21.65-.79.75Zm-10.36-41.18c1.19-2.49 3.88-5.45 6.84-6.61 6.34-1.89 12.45 1.59 17.61 5.03 2.79 2.5 7.55 4.97 8.91 8.9 1.88 4.42 2.79 8.32 3.52 13.09.46 1.68.64 3.43.25 5.11l-.04.26c-.38 1.78-.46 3.93-1.4 5.49-1.25 1.82-2.93 3.39-4.71 4.76-1.73 1.1-3.48 1.64-5.24 1.8-6.52.59-13.03-4.39-17.84-8.5-1.97-1.72-4.34-3.27-5.04-5.94-1.86-4.77-2.6-8.63-3.47-13.57-.98-3.23-.01-6.64.62-9.81ZM597.3 27.31c-.84 1.38-1.47 6.14-1.57 8.72.05.51.1.81.19 1.21.26.82-.27 1.72.08 2.67.15.63.12 1.29-.02 1.91-.35.86.71 1.65.86 2.58-.25.96-1.3 2.16-1.09 3.38.09 1.6 2.47 2.11 2.09 3.49-.14 1.04.16 1.47.18 2.31.76 1.49 2.04 2.75 2.25 4.77.72 8.05-.28 16.32.77 24.35-.68 5.98-.74 12.51-.16 18.47.56 2.61.86 5.94.42 8.41-.22 1.57-1.54 1.99-2.98 3.38-3.92 4.83 3.4 7.95 6.87 9.91 2.52 1.18 4.42 2.54 6.89 3.47 2.29.89 5.53-.74 6.01-3.49.8-4.28-3.87-5.46-3.1-9.63.07-6.91.3-13.97-.46-20.75.34-3.59.77-7.28.48-10.84-.07-.77.37-2.28 1.1-1.22 1.18 1.47 2.2 4.23 3.22 6.81.2.03.32.23.61.68.5.78.71 1.55.67 2.33.08.17.17.37.25.53 1.84 3.69 3.81 6.74 5.54 10.22 1.48 2.6 3.74 3.53 5.58 4.6 1.23.82 4.23-.77 5.96-1.51 2.75-2.2 5.56-4.26 8.79-6.2 1.42-1.01 3.11-1.46 3.27.83-.04 4.62 1.1 8.86 1.05 13.47-.64 6.99-1.36 12.98-1.33 20.28-.02.94-.07 2.15-.25 2.91-.27 1.35-.95 1.55-1.7 2.06-.73.6-1.54 1.51-1.87 2.7-.57 2.13.38 4.35 2.16 5.4 2.15 1.37 6.89 3.56 10.41 5.17 6.26 3.01 12.22 6.46 18.32 9.97 5.4 3.6 10.33 3.41 10.3-4.23.28-2.66 2.06-6.22 2.64-7.79.25-.65.46-.54 1.42-.23 3 1.52 6.02 3.41 9.22 5.05 3 1.72 5.84 3.38 9.05 4.54 3.39 1.42 6.77 3.15 7.66 6.21.22 2.81 1.69 6.5 2.37 8.92.11 1.32-1.7 1.52-2.94 2.92-1 1.38-1.49 3.21-.53 4.96 2.81 3.41 8.04 5.21 11.49 7.32 2.84 1.55 6.09 3.89 9.62 3.6 2.43-.3 4.24-3.18 3.71-5.51l-.05-.28c-.59-3.08-3.15-5.18-3.7-8.16-.48-3.9-1.57-7.72-2.58-11.58-.17-4.25-.95-8.43-1.83-12.62-1.26-5.12-3.08-10.14-3.55-15.44.19-3.55-.95-8.57.95-11.59 1.24-1.25 2.78-2.94 4.31-3.75.36-.22.65-.5.84-.89.4-1.26 1.37-3.76.92-5.39-.41-1.09.29-2.64-.11-3.97-.08-.39-.1-.79-.11-1.18.01-.42.06-.82.12-1.23.34-1.14-.7-2.2-.87-3.4.34-1.52 1.51-3.34 1.02-5.07-.25-1.04-1.75-2.02-2.02-2.68-.15-1.5-.36-1.96-1.61-3.32-2.53-1.34-4.8-2.34-7.65-4.09-2.04-.75-4.29-1.89-5.87-3.05-1.76-1.15-3.82-1.16-5.69-1.97-3.46-2.3-6.59-6.15-11.25-6.23-1.35-.02-2.87 0-3.53.11-.71.1-1.29.74-1.94 1.71-2.28 2.54-2.53 6.01-3.96 9.02-1.26 2.87-2.37 5.88-3.08 8.9-1.39 2.94-3 5.85-3.28 9.15-.47 4.66-4.16 8.13-5.6 12.55-3.6 8.12-6.21 17.18-9.17 25.2-.74 1.76-1.13 2.01-1.78 2.09-2.85-.98-2.98-4.02-2.84-7.23.09-3.86.33-8.12.57-11.98.12-4.86.61-10 0-14.87-.49-2.8.34-5.33-.22-8.34-.33-2.38.59-4.93-.24-7.17-.24-.83-.56-1.7-.38-2.57 1.03-2.82 3.21-3.49 4.65-5.63 1.02-1.13 2.18-1.29 2.54-2.33.28-.71.56-1.93.87-3.03.14-.65.11-1.31-.04-1.92-.41-1.1.29-2.69-.11-4.05-.16-.81-.12-1.65 0-2.45.47-1.42-1.44-2.86-.65-4.34.61-1.33 1.21-3.1.72-4.51-.33-.86-1.36-1.56-1.86-2.29-.35-.93-.09-1.88-.99-2.62-.59-.98-1.51-1.49-2.53-1.69-.96-.36-1.74-1.15-2.73-1.58-1.31-.35-2.55-1.1-3.43-1.78-1.08-.65-2.57-.19-3.64-.92-1.25-1.35-2.55-3.08-4.5-3.45-.96-.16-2.14.31-3.06.43-.34.03-.64-.03-.95-.13-1.04-.44-2.1.17-3.57.68-.96.88-1.91 1.75-2.88 2.61v.09c0 .03-.09.06-.2.08-2.35 2.11-4.75 4.19-7.38 6.21-2.21 2.02-3.88 1.98-4.75-1.07-1.99-4.57-5.06-8.83-5.57-14.02-.49-3.12-1.98-6.65-2.92-9.4-.42-1.15-2.23-.96-2.68-1.44-.14-.14-.15-.32-.14-.53.14-.89-.22-1.27-.52-1.92-.2-.55-.69-.63-1.24-.77-.04.09-.1.17-.2.23-.19.1-.57.22-.6.17-.2-.33-.23-.6-.14-.8-1.64-1.08-3.15-1.43-4.78-2.61-.76-.24-1.89.02-2.64-.4-1.96-3.09-6.34-4.76-10-5.01-1.21-.06-2.92-.44-3.42.41Zm106.43 78.78c0-.06-.02-.12-.03-.16 0-.15 0-.06.03.16m-4.83 15.85c1.15-3.54 3.08-6.65 4.23-10.34.27-1.07.8-1.89.81-2.92.03-.59-.07-1.57-.16-2.21.11.73.35 1.92.78 2.48.44.6 1.14.74 1.85 1.03 1.6.55 1.84 1.66 2.01 3.3 1.55 9.08 2.73 18.29 5.06 27.08l-.03.09c-.27.58-1.27.05-2.55-.53-2.44-1.14-4.98-2.36-7.38-3.88-2.47-1.77-9.19-1.4-8.9-5.34.49-2.91 2.58-6.15 4.28-8.77Zm-9.99 17.95c.56.42.64 1.03.23 1.74-.42.71-.99.97-1.6.72-1.29-.52-1.52-1.8-.47-2.67.41-.34 1.24-.24 1.85.21Zm-3.13-18.05c.2.01.46.16.57.33.23.35.38.75.57 1.12-.42.03-.84.1-1.26.07-.2-.01-.39-.21-.58-.32-.18-.38-.37-.75-.56-1.13.42-.03.84-.1 1.26-.07m-21.11-37.15c.28-.84.71-1.64 1.14-2.42.3-.56 1.03-.63 1.73-.23.69.4.95 1.03.64 1.63-.21.41-.46.8-.69 1.2-.28.33-.52.72-.85.98-.42.33-.8.12-1.25-.13-.45-.26-.89-.52-.72-1.03m-3.51 11.16c-.22.41-.46.8-.69 1.2-.28.34-.51.73-.84 1-.42.35-.81.15-1.26-.11s-.86-.5-.74-1.02c.27-1.22.67-1.87 1.61-2.83.14-.14.44-.21.65-.18.92.09 1.66 1.2 1.27 1.95Zm-5.49-15.14c.65-.18 1.3-.37 1.95-.54.9-.24 1.8.23 2.04 1.06.18.65.36 1.3.5 1.96.03.12-.09.35-.21.41-.19.11-.49.25-.63.18-1.18-.64-2.33-1.31-3.48-2-.15-.09-.22-.37-.25-.57-.03-.15.05-.33.08-.5m-10.59-16.49c.2.01.39.21.58.32.52.12.78.45.75.99-.04.54-.74.63-1.49.21-.19-.11-.44-.18-.56-.35-.12-.16-.18-.42-.17-.64.01-.35.35-.56.9-.53Zm-7.38 12.25c.64-.18 1.29-.37 1.94-.52.1-.02.24.18.37.29.23.45.05.8-.2 1.25-.25.44-.5.8-1.02.72-.41-.06-.87-.18-1.17-.44-.29-.26-.39-.73-.58-1.11l.65-.18Zm-29.07 29.23c.14.18.34.56.29.6-.44.4-.84.45-1.07.17-.14-.18-.21-.41-.31-.63.47-.36.86-.43 1.08-.15Zm-4.52-29.79c.57-.59 2.09-.1 2.31.76.04.14-.03.37-.13.48-.55.63-2.09.13-2.3-.76-.03-.14.08-.33.12-.49ZM473.51 103.79c3.85 1.47 8.33 2.38 12.5 2.82 4.98-.43 9.74-1.79 14.51-3.59 10.73-6.01 20.59-15.4 22.65-28.04.38-1.77 1.06-4.25-.29-5.5-.45-.6-.74-.56-.14-.88.92-.44 1.87-1.27 1.82-2.46-.06-3.06-.97-5.98-1.96-7.77-1.1-1.37-3.85.31-7.11 1.29-1.46.28-2.33 1.66-2.12 2.88.02.34.05.34-.06.2-.71-.94-.68-1.57-1.57-1.16-.19.47-.51.44-.83.51-.1.25 0 .91-.17 1.08-.22 0-.87-.57-1.04-.4-.06.24.65 1.7.63 1.69-.08.03-1.11-1.4-1.62-1-.62.58-.58 2.06-.99 2.45-.84.54-1.81.96-2.34 1.69-.34.35 1.47 1.06 1.55 1.17-3.54.75-4.57 5.42-7.67 7.08-6.4 4.98-18.72 9.08-24.35 1.35-2.55-5.75-2.55-12.41-1.91-18.51-.4-6.45 2.5-12.86 7.95-16.44 4.15-2.11 9.49-4.44 14.36-3 1.29.63 3.64 1 4.71.48.11-.02.21-.08.24.01-.91 2.22-.53 2.39 1.88 2.96 1.67.37 2.24 1.32 3.74 1.01 2.22-.34 3.16-.46 2.46-2.71.06-.06.8 1.07 1.26 1.19 1.25-.05 2.42-1.58 3.58-1.7.63-.26.69-1.33 1.29-1.68 2.42.05 2.48.3 1.78-2.01 1.74 1.87 2.09 1.15 2.76-1 .53-1.52 1.77-1.25 2.14-2.85.73-1.22-.18-1.53-1.28-1.71-.24-.05-.31-.04-.23-.1.09-.11 1.3-.47 1.59-1.11.23-1.42.29-3.1.2-4.76-.33-1.8-.09-3.61-.04-5.02-.09-1.32-.88-2.56-.95-3.96.07-1.27 1-2.93.94-4.51-.12-.94-1.6-1.27-1.86-1.48-.03-.07.31-.21.84-.67.48-.4.93-1.02.98-1.81-.09-2.77-1.63-6.4-2.58-7.46-1.56-1.09-4.04.7-7.04 1.45-1.48.37-1.81 1.67-1.58 2.97-.05.08-.41-.11-1.08-.24-2.26-.56-3.07 2.98-5.17 3.2-1.72.27-3.53-.6-5.35-.77-2.25-.11-4.4.07-6.48.46-.05.52-.19 1.04-.51 1.57-.12.2-.17.44-.25.66-.17.44-.33.88-.51 1.32-.19.45-1.37.58-1.85.22-.63-.47-1.22-1.59-1.43-2.52-3.38 1.27-6.5 3.2-9.38 5.7-4.81 3.28-8.58 6.64-11.22 11.87-3.31 4.69-3.83 10.39-5.47 15.76-1.55 7.68-4.01 15.12-3.82 23.03v.3c.24 13.33 2.92 31.67 15.92 38.46Zm21.1-10.51c.14.18.34.56.29.6-.44.4-.82.44-1.07.17-.1-.21-.33-.56-.28-.61.44-.4.84-.45 1.06-.17Zm-14.76-71.22c.13.18.31.56.26.6-.45.38-.83.42-1.05.13-.13-.18-.19-.41-.28-.62.47-.34.85-.39 1.06-.11Zm-11.82 11.4c.36-.05.64.21.74.79.01.07-.38.25-.59.3-.36.09-.64-.2-.74-.79-.01-.06.39-.2.6-.3Z" class="cls-2"/><path d="M743.41 227.66c-.81-1.63-1.75-2.74-4.06-3.43l-.22-.07c-1.29-.43-2.79-.81-4.17-.93-2.82-.24-3.72-.65-4.31 1.27-.44 2.25-1.17 5.94-1.18 8.68.2 2.6.75 5.74.5 8.83.03 7.58-.44 15.45.38 22.92.71 3.65-.39 7.2-.3 10.9.41 5.32-.09 10.23 1.09 15.41.44 3.29-.03 6.74.19 9.92-1.65 13.13-.36 26.41-.52 39.51-.15 5.88-.02 11.79.65 17.57-.57 7.75-.85 15.8.55 23.52.95 11.31-1.82 23.21-.39 34.35 1.08 2.31 1.79 3.55 2.97 4.86 1.14.68 3.94 1.26 4.79 1.21.14-.02.23-.05.31-.13.12-.26.17.16.25-.04.09-.34.17-.07.24 0 .06-.1.13-.85.19-.91.08.18.08.75.25 1 .37.13.81.08 1.24.03 1.77-.21 4.79.61 6.28-.3.91-.49.07-3.56.37-4.95 1.01-3.03.35-5.13.04-9.13-.02-10.64.11-21.7-.91-32.08.76-4.39.4-9.14.18-13.41-.13-7.2-1.66-13.97-1.13-21.46.17-1.85 1.17-1.67 2.62-1.03 4.2 1.54 8.46 3.44 12.55 4.78 7.95 2.37 15.28 5.98 23.16 8.81 1.68.72 3.92.87 4.31 2.76.23 1.63-.36 3.48-.46 5.19-.17 3.55.26 7.23.17 10.61-.29 3.15.69 6.65.89 10.05-.24 4.42.28 8.67-.48 12.97-.91 6.45-.65 14.16-.62 20.26.18 1.04-.17 5.27.36 6.15 1.29 1.97 2.27-.23 4.07.11 1.18.23 2.71.97 3.85.61.24-.33.28.12.42-.08.14-.34.27-.07.37 0 .09-.11.19-.77.29-.91.11.11.16.76.37 1 1.43.35 3.2-.47 4.45-1.26 2.1-1.27 3.03-1.56 3.34-3.56 1.3-3.16.16-6.47.26-9.8.26-7.39.51-14.95-.29-22.35.89-7.01.57-14.1-.52-21.13-.06-1.35-.02-2.69.05-4.04a.54.54 0 0 1-.25-.15c-.11-.22-.34-.57-.29-.62q.33-.285.6-.33c.34-4.83 1.18-9.63.98-14.46-.4-11.14.43-22.65-.56-33.86 1.55-9.43-.92-18.72-.41-28.18.93-4.63 1.1-10.1.97-14.56.05-1.95.52-3.33-.81-4.66-.27-.31-.57-.56-.83-.85-.84-.73-.28-1.71-.81-2.38-.55-.64-1.05-1.71-1.89-1.9-.42.1-.23.02-.43-.16-.39.19-.34.05-.44-.18-.14.05-.55.58-.72.65-.04-.04.02-.26.07-.47.01-.24.18-.55-.07-.73-2-1.53-6.64-2.43-8.59-2.41-2.39-.45-2.59 1.68-2.86 3.42-.21 2.24-1.13 4.84-.77 7.51.16 1.64.39 3.27.41 4.95-.48 9.26-.16 18.1.2 27.24-1.07 4.03.17 8.26-.63 11.79-.07-.11-.13-.19-.14-.16 0 .04.06.12.13.2-.01.05-.01.1-.03.15-.39.47-1.21.38-2.27-.02-7.39-2.85-15.04-7.65-22.51-10.29-4.2-1.73-8.95-3.05-12.95-5.06-1.37-.69-2.98-.89-3.76-2.11-.86-2.86-.7-6.67-1.18-9.7.5-6 .56-12.55-.18-18.51-1.41-6.48-.68-13.03 0-19.62.19-3.61-.16-8.02.02-11.31.06-1.13-.09-1.83-.77-2.58-.76-.85-1.58-1.33-1.55-2-.02-.31 0-.64-.1-.93Zm-9.04 170.78c-.07 0-.21-.39-.31-.6-.05-.37.22-.65.81-.75.06-.01.25.38.3.61.09.36-.21.65-.8.74m68.02-128.21c.21.02.39.23.59.35.53.14.79.49.73 1.04s-.79.62-1.54.16c-.2-.12-.44-.2-.57-.38-.12-.17-.17-.44-.15-.67.02-.36.38-.57.95-.51Zm-.92-7.15c.35 0 .56.33.52.9 0 .06-.41.11-.63.16-.35-.03-.56-.34-.52-.91 0-.06.41-.15.63-.15m-7.15 19.47c.67-.16 1.34-.34 2.02-.46.1-.02.24.2.37.31.22.47.03.83-.25 1.27-.28.45-.54.81-1.07.7-.42-.08-.89-.22-1.18-.5s-.37-.76-.55-1.16c.23-.05.45-.11.67-.16Zm-1.65 92.02c.07-.01.25.38.3.61.08.36-.21.65-.8.74-.06 0-.2-.4-.31-.61-.05-.37.22-.65.81-.74m-.31 1.75c1.41-.55 2.54.26 2.36 1.68-.07.56-.8 1.1-1.62 1.2-.76.09-1.28-.32-1.47-1.15-.2-.84.06-1.46.73-1.73m-6.19-39.93c.18-.14.57-.34.61-.29.41.45.44.83.17 1.09-.21.1-.58.33-.62.28-.41-.45-.46-.85-.17-1.08Zm-44.12-98.46c.13-.2.3-.59.36-.57.58.15.84.46.72.81-.07.22-.29.59-.35.57-.58-.15-.81-.45-.73-.81m1.98 168.11c.24.44.45.9.67 1.35-.09.16-.14.41-.27.45-.87.31-1.58 1.05-2.6.97-.33-.68-.67-1.35-.99-2.03-.1-.21-.26-.61-.24-.62.89-.46 1.8-.88 2.71-1.31.24.4.5.78.72 1.19M719.3 416.12c.38-1.37-.29-2.46-.26-4.09.07-2.5.25-5.14.15-7.74-.96-3.64.75-7.69-.56-11.33l-.05-.17c-1.02-2.97.22-6.07.66-9.1-.07-2.07.37-3.98-.15-6.36-.48-1.62-1.53-3.05-2.32-4.43-.55-1.16-2.04-1.09-4.21-1.61-3.16-.79-5.77.73-9.53.49-7.28.16-15.15.04-22.33 1.1-1.28.14-2.56.02-3.82-.28-3.63-1.04-7.15-.63-10.69-1.64-2.35-.72-4.88-.74-7.31-1.46-2.32-.98-4.21-2.39-6.2-3.76-5.7-6.48-9.54-14.76-10.89-23.36-1.04-6.99-1.11-14.63-2.04-21.68.73-6.38.88-13.08.04-19.47-.82-6.78 1.19-13.5 2.34-20.19-.03-.02-.05-.03-.08-.05.04-.07.08-.13.12-.2.07-.42.15-.83.21-1.25 1.11-6.81 1.77-13.12 5.17-19.19 2.04-4.13 5.41-7.32 9.82-8.54 2.24-.4 4.64.51 6.94.63 8.08 1.34 16.43 2.59 23.45 7.06 2.79 1.9 6.21 3.66 9.46 5.11 4.79 2.37 8.65 4.81 14.08 3.77 1.77-.48 1.86-4.91 2.52-6.79.56-3.2-.49-6.34-.26-10.29.15-2.58.22-4.73.22-7.28-.15-7.43.38-14.77-.83-22.09-.5-2.89.45-5.86.33-8.65-.18-4.45-4.27-7.38-7.3-9.91-2.51-2.63-6.06-4.08-9.39-5.66-2.74-1.57-5.4-3.39-8.5-4.54-3.43-1.05-6.04-3.34-9.56-3.99-5.95-1.53-12.15-1.42-18.15-.44-6.47 2.51-13.35 4.7-18.35 9.91-5.32 5.68-7.48 12.24-9 19.59-2.96 6.06-3.55 12.67-4.85 19.13.08 10.34-2.53 20.43-4.03 30.63-.57 6.43-1.17 12.4-1 18.97-.82 10.68-1.57 21.31-.49 31.99-1.07 6.9-.54 13.78-.54 20.58 1.27 6.02.86 11.88 1.3 18.02-1.44 17.42 3.9 36.13 15.32 49.47 3.19 3.28 6.96 5.76 11.13 7.63 4.46 3.88 10.22 5.4 15.92 6.63 3.47 1.24 7.32.94 10.86.94 3.84.46 8.06.83 12.05.86 6.44 1.35 13.09.97 19.59.34 1.7-.06 3.22.08 4.73-.34 1.87-.52 2.91-2.13 4.43-2.98 1.14-.46 1.26-2.5 1.82-4.01Zm-43.06-191.09c.09.12.13.35.08.49-.08.22-.21.49-.4.57-.45.18-.93.3-1.41.34-.19.02-.41-.22-.62-.35-.03-.17-.13-.36-.07-.5.3-.86 1.92-1.22 2.42-.56Zm-6.32-12.72c1.15-.43 1.88-.08 2.16 1.02.21.83-.06 1.43-.78 1.7-1.15.43-1.89.08-2.16-1.02-.21-.83.06-1.43.78-1.7m-4.62 16.4c1.3.06 2.16.97 3.14 1.6.3.2.42.93.33 1.35-.09.38-.53.77-.92.98-.41.23-.94.26-1.42.38-1.64.37-1.91.17-2.36-1.68-.11-.47-.25-.93-.34-1.41s.97-1.26 1.57-1.23Zm-2.83 19.27c1.05-.97 2.39-.63 2.72.66.06.23.11.47.17.71.11.47.4.98.3 1.4-.09.38-.53.79-.92.98-.71.37-1.84.14-1.97-.31-.26-.93-.5-1.88-.68-2.83-.04-.18.19-.45.37-.61Zm-4.65-52.85c.39-.57.6-1.26 1.33-1.59.54-.25 1.83-.1 1.96.36.25.92.55 1.84.64 2.78.03.31-.53.68-.82 1.03-.46.05-.95.2-1.37.1-.45-.11-.84-.46-1.25-.71s-1.09-.43-1.17-.76.42-.81.69-1.21Zm-22.91 45.09c-.07.22-.29.59-.35.57-.58-.15-.82-.45-.73-.81.12-.2.3-.59.36-.57.58.15.84.46.72.81m2.98 95.77c-.15.16-.36.26-.55.38-.24.06-.49.2-.7.16-.44-.09-.97-.18-1.26-.46-.25-.25.81-1.1 1.61-1.11.43 0 .86.27 1.29.42-.13.21-.23.44-.39.61m32.4 45.52c-.22-.07-.6-.28-.58-.34.16-.57.47-.81.83-.73.2.12.6.29.58.35-.16.58-.47.83-.83.72m3.37 31.5c-.2 0-.42-.2-.62-.31q-.23-.44.96-2.31c.13-.2.26-.39.38-.58.33.3.8.55.96.92.56 1.35-.11 2.24-1.68 2.28m24.64-23.84c.12-.2.3-.59.36-.57.58.15.84.46.72.81-.07.21-.29.59-.36.57-.58-.15-.81-.45-.73-.81Zm-.52 34.48c-.47-.15-.94-.33-1.41-.49-.41-.23-.87-.4-1.23-.69-.45-.38-.32-.83-.13-1.35s.36-1.01.93-.99c1.34.05 2.12.34 3.32 1.14.18.12.3.42.33.65.09.99-.94 2-1.81 1.73m15.2-4.5c-.65.33-1.31.64-1.98.92-.12.05-.38-.03-.48-.14-.16-.17-.37-.47-.31-.64.44-1.37.92-2.73 1.43-4.09.06-.18.35-.3.56-.38.16-.06.36-.01.54-.01.32.65.65 1.3.96 1.96.43.9.12 1.96-.71 2.37Zm1.36-21.84c-.43.33-.84.22-1.36.04s-.95-.37-.97-.93c-.01-.45.02-.96.24-1.32s.69-.56 1.06-.83c.11.22.21.44.32.65.32.65.65 1.29.94 1.95.04.1-.15.29-.23.44M466.64 415.58c2.4-4.02 5.3-7.46 7.39-11.52 2.17-5.55 4-11.14 4.13-17.12 1.09-6.48 2.32-11.97 3.59-18.49 1.29-11.88.91-23.25 1.44-35.18v-.31c.2-3.85-.39-7.91-.57-11.81.32-4.11.73-8.61.3-12.51-.02-7.11-1.54-14.39-1.02-21.51 1.77-12.7.3-25.58.57-38.26.1-4.6-.07-9.16-.58-13.64-.01.17-.05.36-.12.56-.29.83-.84 1.21-1.53 1.07-1.45-.28-1.95-1.58-1.03-2.69.36-.44 1.25-.5 1.97-.15.32.16.54.39.64.68-.11-.9-.21-1.81-.34-2.7.14-7.87-.05-15.86-2.33-23.44-.14-.49-.28-.98-.38-1.49-1.65-8.59-1.56-17.82-4.74-26-3.45-9.9-9.18-20.28-19.04-25.07-2.21-1.03-4.54-1.39-6.9-1.45.05.02.1.03.14.05.43.18.56 1.3.13 1.97-.23.37-.75.87-1.04.82-.94-.17-1.84-.55-2.73-.91-.17-.07-.29-.38-.34-.61-.1-.45-.03-.86.14-1.23-1.58.11-3.15.26-4.7.38-7.16.63-13.94 4.26-19.38 8.81l-.2.14c.04 0 .06-.02.1-.02.21-.03.45.14.67.21.57.02.91.31.98.88s-.65.81-1.51.52c-.22-.08-.49-.1-.66-.25-.16-.15-.27-.41-.31-.63-.01-.07 0-.14.02-.2-9.81 6.94-20.24 14.04-25.52 25.25-4.41 8.31-8.95 17.52-10.26 26.78-.26 3.91-2.16 7.43-2.67 11.28-1.58 9.01-.71 18.18-1.85 27.17-1.76 8.76-1.68 18.11-1.22 26.94-.11 8.51-.68 17.4.27 25.77.42 3.99-.84 7.97-.37 12.01-.06 7.79 1.53 15.6 1.48 23.36-1.17 12.82 1.16 25.79 3.68 38.29 1.32 6.36 3.31 12.75 6.62 18.18 1.64 4.65 4.21 9.1 7.68 12.55 2.67 3.42 6.38 5.3 10.3 7.4 6.63 3.67 13.46 6.88 21.01 7.78 13.39 1.4 29.2-.5 38.08-11.65Zm-83.61-109.17c-.35.1-.64-.18-.75-.76-.01-.06.38-.21.58-.32.36-.06.64.19.75.77.01.06-.37.25-.58.31m50.15 97.07c-.14-.17-.35-.55-.3-.59.43-.41.8-.46 1.06-.2.11.21.34.55.3.6-.43.41-.82.47-1.06.19M458 383.24c-.1-.21-.34-.55-.29-.6.42-.41.82-.47 1.05-.19.14.17.35.55.3.59-.43.41-.8.46-1.06.2m1.77 6.53c-.17.15-.54.36-.59.31-.4-.43-.44-.8-.19-1.07.21-.11.55-.35.59-.3.4.43.46.83.18 1.06Zm14.74-116.85c-.11-.21-.34-.55-.3-.6.43-.41.82-.47 1.06-.19.14.17.34.55.3.59-.43.41-.8.46-1.06.2m-.22-57.1c.21-.03.51.07.66.23.31.31.55.7.82 1.06-.43.11-.86.27-1.3.33-.21.03-.45-.14-.67-.22-.27-.36-.54-.71-.81-1.07.43-.11.86-.27 1.3-.32ZM469.4 348.1c.06-.01.25.37.3.59.09.36-.19.65-.76.77-.06.01-.2-.38-.31-.59-.06-.36.2-.65.77-.77m-.83-5.51c-.53.62-2.06.16-2.3-.69-.04-.14.07-.33.11-.49.55-.6 2.07-.15 2.31.7.04.14-.02.37-.12.48m-2.35-123.16.59.34c.24.28.17.66-.27 1.06-.05.04-.41-.19-.58-.35-.27-.26-.18-.65.27-1.05Zm-20.73-40.86c.2-.65.95-.86 1.76-.59.8.27 1.2.88.99 1.57-.14.47-.31.93-.47 1.39-.23.4-.4.86-.69 1.2-.37.43-.81.29-1.33.12-.52-.18-1.03-.37-.95-.92.13-.93.41-1.85.7-2.76Zm-4.46 13.65c.12-.18.41-.3.64-.32.98-.09 1.97.92 1.71 1.77-.14.47-.32.93-.48 1.39-.22.41-.39.86-.68 1.21-.37.45-.81.32-1.33.14s-.99-.35-.98-.91c.04-1.32.32-2.09 1.11-3.28Zm-6.42-13.23c.64-.32 1.28-.64 1.93-.96.89-.43 1.93-.13 2.34.69.32.64.64 1.29.92 1.95.05.12-.02.38-.13.47-.17.15-.46.36-.62.31-1.36-.43-2.7-.89-4.03-1.39-.17-.06-.3-.34-.38-.55-.06-.16-.01-.36-.02-.54ZM415 178.2c.64-.32 1.27-.65 1.92-.94.1-.04.29.14.44.22.33.42.22.83.04 1.34s-.36.94-.91.96c-.44.02-.95-.02-1.3-.23s-.55-.68-.82-1.04c.22-.11.43-.21.64-.32Zm-17.04 60.08c.35-.1.63.18.75.76.01.06-.38.21-.59.32-.36.06-.64-.19-.75-.77-.01-.07.37-.25.59-.31m-13.21-6.04c-.07.01-.24-.37-.3-.59-.09-.35.19-.65.76-.77.06-.01.2.38.31.59.06.36-.2.65-.77.77m5.22 163.81c-.36.06-.64-.19-.75-.77-.01-.06.37-.25.59-.31.35-.09.64.18.75.76.01.06-.38.21-.58.32Zm2.34 2.29c-.35.09-.64-.18-.75-.76-.01-.06.38-.21.59-.32.36-.06.64.19.75.77.01.06-.37.25-.59.31m.26-7.92c-.12-.4.13-.62.7-.85.65-.27 1.26-.65 1.88-.98.11.21.21.42.32.63-.06.45-.05.92-.2 1.33-.24.69-.88.86-1.68.68-.53-.11-.88-.3-1.03-.82Zm6.47 17.4c-.56 1.8-.83 1.81-2.4 1.58-2.05-.31-2.46-1.97-3.12-3.43-.15-.32.11-1.08.42-1.32.75-.56 1.64-.96 2.49-1.38.46-.23 1.55.15 1.82.62.24.41.43.85.66 1.27.64 1.18.65 1.18.14 2.66Zm3.77-5.9c-.21.03-.5-.06-.66-.21-.32-.31-.57-.68-.85-1.03.43-.12.85-.29 1.29-.36.21-.03.45.13.67.2.28.35.56.7.83 1.04-.43.13-.85.29-1.29.36Zm2.72-33.58c-2.67-4.28-4.41-9.79-6.21-14.25-.97-4.25-2.8-8.59-3.87-12.68-.44-2.88-.62-6.41-1.12-9.48.29-8.58-.01-17.62.15-26.19-.98-9.8-.24-20.17-.18-29.55.14-4-.4-8.03-.03-11.99 1.44-5.23 1.74-10.89 3.27-15.81 1.35-3.22 1.74-7.01 3.45-10.07 2.01-2.96 4.53-6.29 7.34-8.6 9.04-5.79 18.75-11 28.71-15.13 8.63-3.29 18.67-2.31 23.59 6.6 1.4 4.28 3.04 8.95 4.1 13.11.68 3.17 1.13 6.42 2.21 9.5 1.68 6.56 1.68 14.64.99 21.27v.28c.02 15 .86 31.04-.36 45.97-.23 4.01-.05 8.29-.23 12.33-1.38 5.63-2.08 11.63-3.36 17.05-1.17 3.18-1.38 6.74-2.39 9.93-.96 2.38-2.52 4.87-3.94 7.13-1.07 1.98-2.43 3.47-4.15 4.84-4.07 3.41-9.48 7.97-14.33 10.09-11.69 6.79-24.54 6.42-33.65-4.36ZM498.99 129.22c-.12.93-.79 1.08-1.3 1.52-.38.34-.54.81-.79 1.38-.24.5-.56 1.13-.48 2.35.36 2.57.67 6.97.44 10.11.09 7.51-.4 16.01.55 23.15.6 3.3-.56 6.5-.41 9.78.07 9.16 1.55 18.66 1.33 27.74-1.53 10.79-.73 21.49-.52 32.25.02.06.05.1.06.16.06.23.18.48.15.69-.02.14-.1.27-.19.4.03 2.04.04 4.08 0 6.13-.11 6.25-.07 12.37.69 18.14-.61 7.61-.8 15.44.33 23.07.84 6.43.47 12.65-.27 18.96-.67 11.34.43 22.07.2 33.32-.11 6.24-.07 12.38.69 18.14-.32 3.54-.5 7.02-.47 10.54.05.11.1.23.14.32.03.18-.02.34-.14.47q.045 1.905.18 3.84c.18 7.43 1.68 15.02.88 22.37-1.12 6.41-.57 13.47-.74 19.89-.11 2.49 1.4 4.35 2.15 5.61.62 1.08 1.03 1.74 2.15 1.99 1.3.19 3.12 1.13 4.13.69.26-.27.33-.02.52-.02.3-.38.4-.18.64-.05.14-.04.32-1.15.51-.81.67 2.93 7 .64 8.17-.14 1.71-2.64 1-8.48.5-11.92-.36-11.83.68-23.38-.58-35.11 1.1-9.56.51-19.17-.58-28.55.02-12.56 1.82-24.73.93-37.45-.22-1.91 1.19-2.53 2.87-2.59 2.9-.26 6.01-.64 8.9-.85 3.09-.13 5.97-.63 8.95-.82.92.05 1.12.55.89 1.59-2.2 8.5-2.91 17.19-2.75 25.85-.62 3.65-.64 7.91-1.08 11.64-.97 3.58-1.02 7.06-1.16 10.89-.01.37 0 .73 0 1.1.41-.16.48.02.88.62.88 1.3 1.02 2.58.3 3.99-.11.21-.15.46-.22.68-.14.46-.28.92-.44 1.37-.04.12-.15.22-.29.3.36 4.66 1.05 9.24 1.78 14.01 1.6 9.58 3.81 19.17 9.71 26.9 2.03 2.16 2.95 5.07 4.71 7.41 3.09 3.54 7.3 6.47 11.3 9.03 2.72 1.73 6.59 2.05 9.78 3.11 3.36 1.26 6.99 1.89 10.52 2.15 7.49 2.26 16.49.71 23.8-.63 1.8-.17 3.28-1.9 4.01-3 .26-.32.49-.53.8-.74.99-.43 1.29-1.76 1.65-2.93.7-1.32-.07-3.12-.12-4.73.39-4.86-.76-9.65-.2-14.54.13-3.05-1.15-5.41-1.16-8.51.39-3.73 1.34-7.42.75-11.39-.21-1.9-2.22-4.73-2.8-5.57-.64-.83-2.01-.81-3.9-1.15-2.37-.57-4.7.23-7.11.55-2.2.2-4.42.34-6.64.42-.03.02-.04.04-.07.05-.59.33-1.12.32-1.52 0-7.15.17-14.35-.28-21.36-1.33-8.68-2.09-13.47-10.39-15.73-18.34-.83-5.91-.57-11.53.84-17.3 1.09-7.97 2.35-15.83 3.42-23.83 1.25-3.33.78-7.74 3.14-10.32 1.9-1.02 4.36-1.16 6.46-1.87 4.61-1.52 9.27-3.35 14.07-4.48 4.14-1.88 8.15-4.58 11.69-7.22 3.86-3.9 7.22-8.71 10.39-13.37 3.41-5.99 6.97-11.37 8.11-18.37 2.49-10.5 2.92-21.53 3.46-32.45v-.32c.26-4.35-.37-8.75-.89-13.06.32-5.96-.32-12.03-1.55-17.74-.37-3.91-2.37-7.46-3.47-11.15-2.17-7.33-3.97-15-7.52-21.88-8.52-14.59-21.4-28.03-37.82-33.19-8.79-4.79-18.81-6.24-28.69-5.41-10.09-.14-20.4-.52-29.77 3.87-2.59 1.09-5.57 1.52-5.76 4.59Zm1.1 144.01c-.12.2-.3.59-.36.57-.58-.15-.84-.46-.72-.81.07-.21.29-.59.35-.57.58.15.82.45.73.81m93.18 121.55c.22.07.6.28.58.34-.15.57-.47.81-.83.73-.2-.12-.59-.29-.58-.35.16-.58.47-.83.83-.72m-6.51-18.03c.03-.06.42.07.61.17.31.17.33.55.04 1.03-.03.05-.4-.11-.61-.16-.29-.2-.33-.56-.04-1.04m-25.48 4.72c.12-.2.3-.59.36-.57.58.15.84.46.72.81-.07.21-.29.59-.35.57-.58-.15-.81-.45-.73-.81m-56.63-93.04c-.07-.37.23-.66.81-.75.21-.03.45.13.67.2.56 0 .91.28.99.85.08.56-.62.82-1.49.56-.22-.07-.5-.09-.66-.23-.17-.14-.28-.4-.32-.62Zm1.17-113.25c.09-.47.25-.94.47-1.36.09-.17.41-.22.62-.33.15.06.36.09.45.2.55.71-.01 2.26-.83 2.32-.15 0-.36-.08-.45-.2-.14-.18-.3-.44-.26-.64Zm30.06 120.52c-.29.88-.9 1.32-1.3.93-.4-.4-.41-.83-.11-1.32.12-.2.09-.51.23-.67.41-.43.81-.51 1.07-.25.16.17.3.41.31.63.02.22-.13.45-.2.68m.75-23.41c-.36.06-.64-.19-.75-.77-.01-.06.37-.25.59-.31.35-.09.64.18.75.76.01.06-.38.21-.59.32m11.55 25.74c-.06.01-.25-.37-.3-.59-.09-.36.19-.65.76-.77.06-.01.2.38.31.59.06.36-.19.65-.77.77m1.48-10.48c-.05.04-.38-.22-.59-.34-.24-.28-.17-.66.27-1.06.05-.04.41.19.58.35.27.26.18.65-.27 1.05Zm23.59.1c-.26.26-.66.18-1.06-.26-.04-.05.23-.38.35-.58.29-.24.67-.17 1.07.26.05.05-.19.41-.36.57Zm12.3 1.57c-.2-.12-.59-.29-.58-.35.16-.57.47-.83.83-.72.22.07.6.28.58.34-.16.58-.46.81-.83.73m23.48-64.8c.22.07.6.28.58.35-.16.57-.46.8-.83.73-.2-.12-.59-.29-.58-.35.16-.57.47-.83.83-.72Zm-4.73 4.97c-.12.2-.3.59-.37.57-.58-.15-.84-.46-.72-.81.07-.21.29-.59.35-.57.58.15.82.45.73.81Zm-20.21-43.51c.14.18.34.56.29.6-.44.4-.83.45-1.06.17-.14-.18-.21-.41-.31-.63.47-.36.85-.43 1.08-.15Zm-20.08-37.25c.06-.01.2.39.29.6.05.37-.21.65-.79.75-.06.01-.24-.38-.29-.6-.08-.36.21-.65.79-.75m-3.11 28.25c.07-.21.29-.59.35-.58.58.16.84.46.73.81-.07.22-.24.4-.36.6-.56-.2-.83-.49-.72-.84Zm-6.17-8.1c.31-.32.7-.57 1.05-.85.11.44.26.87.31 1.32.02.21-.14.45-.22.68l-1.07.83c-.11-.44-.26-.87-.3-1.31-.03-.22.07-.51.23-.67m-37.05 9.45c-.17-.27-.22-.59-.14-.96.26-1.19.94-1.62 2.01-1.26.8.27 1.16.82.99 1.56-.02.08-.05.13-.07.2.07 0 .14-.01.21-.02 5.65-.2 11.36.34 17.09 1.1-.1-.27-.13-.65-.22-.94.21-.41.34-.9.65-1.2.33-.32.84-.45 1.26-.66.43-.21.94-.68 1.26-.57.01 0 .02.02.04.03.57-.49 1.28-.79 2.17-.86.24-.02.47-.11.71-.17.47-.12.94-.24 1.42-.34.49-.1 1.3.82 1.28 1.44-.04 1.17-1.29 3.09-2.18 3.36-1.32.4-1.83.55-2.46.35-.02.03-.05.06-.07.09 4.8.7 9.6 1.47 14.37 2.01 2.7.21 5.05 1.61 7.48 2.64 2.99 1.05 6.09 1.89 8.64 2.98 3.94 2.01 8.68 3.52 12.36 5.64 2.45 1.84 5.41 4.44 7.73 6.71 1.92 2.37 2.95 4.99 4.73 7.87 1.98 3.5 3.15 7.51 4.5 10.94.75 1.13 2.17 1.34 2.1 1.4-.11.14-.75.41-1.21 1.08l-.12.19c-.61 1.03-.27 2.38-.14 3.55.48 5.12-.63 9.33-1.85 14.01-1.77 5.62-5.39 10.36-8.99 14.22-1.73 2.03-4.32 2.79-6.72 3.68-4.58 2.23-8.82 3.78-13.66 4.65-5.77 2.4-11.41 2.39-17.57 2.77-7.28-.67-14.82-1.22-22.18-.95-.5-.02-.95-.01-1.35.07-1.48.22-2.05 2.02-2.08 1.93-.51-1.29-1.68-2.28-3.16-2.03-2.89.14-6.57.79-7.37-.79-.4-8.05.37-16.65-.77-24.77.85-5.12.81-10.06.56-15.24-.06-3.81.16-7.66-.72-11.42-.65-4.66.15-9.65-.18-14.44.91-5.19 1.11-10.52 1.17-15.84-.11-1.17.07-1.71.5-2Zm-.83-45.63c.1.21.33.56.28.61-.44.4-.84.45-1.07.17-.14-.18-.33-.56-.29-.6.44-.4.82-.44 1.07-.18Zm-2.5 178.89c.47-.11.95-.23 1.42-.35.5-.28.94-.23 1.35.13.32.28.22.6-.17 1.1-.44.57-.74 1.24-1.18 1.81-.52.68-2.09.3-2.42-.55-.44-1.12-.09-1.9 1-2.15Zm-2.18 60.89s-.19.41-.35.57c-.26.26-.66.18-1.06-.26-.04-.05.22-.38.35-.58.29-.24.67-.17 1.07.26Zm-1.47-15.67.59.34c.24.28.17.65-.27 1.06-.05.04-.41-.19-.58-.35-.27-.25-.18-.64.27-1.05Zm-.78 45.47c-.14.56-.5.8-1.09.8-.23 0-.47.11-.71.17s-.47.11-.71.17c-.86.22-1.57-.01-1.77-.62-.14-.43-.24-.93-.15-1.35.1-.44.47-.83.73-1.24.25-.41.43-1.02.79-1.16.28-.11.79.38 1.2.61.42.24.89.43 1.23.75.53.5.65 1.17.48 1.88Zm-2.11-239.71c.45.16.91.29 1.35.47.45.18.53 1.48.18 1.97-.75 1.05-1.97 1.28-3.02 1.75-.32.14-1-.15-1.3-.46-.27-.28-.35-.86-.32-1.29.03-.47.29-.92.45-1.38.57-1.56.88-1.69 2.66-1.07ZM251 416.7c-.33.48-.32.88-.02 1.07.19.12.59.27.62.21.13-.2.2-.37.22-.53.19 1.55.6 2.96 1.37 3.8 1.15.73 5.66 1.05 6.54 1.02.15-.01.24-.04.34-.1.14-.21.16.02.26 0 .12-.3.23-.19.32-.04.07-.13.15-.82.23-.88.12.16.06.86.38 1.01 2.01.26 5.98.64 7.63-.43 1.61-.67.43-5.81.73-7.89-.68-7.15-.23-15.49-.17-22.89.4-2.35-1.15-6.45 1.02-7.87 7.33-2.31 15.44-6.07 22.24-10.09 6.45-3.01 12.98-4.48 19.54-7.27 8.5-3.82 16.03-7.99 23.66-13.1 5.48-3.54 10.15-8.02 13.61-13.27 5.7-5.98 9.28-13.31 10.37-21.54 2.55-11.37 5.7-22.57 5.37-34.25v-.3c-.69-10.18.66-20.81-.99-30.88-.47-3.02.08-5.98 0-9.09-.61-5.86-.93-11.81-3.14-17.37-1.35-5.76-2.7-11.55-7.56-15.27-7.08-3.81-17.92 5.28-24.2 8.54-8.44 4.27-16.92 8.67-24.79 13.81-3.73 1.58-7.77 3.37-10.97 5.51-6.35 3.37-12.06 8.14-18.64 11.07-6.45 2.4-13.88 6.12-19.65 9.65-.9.93-.9 3.04-1.81 3.37-3.18 2.2-1.12 6.83-1.47 10.2-.22 7.33-.48 14.32.28 21.54-.51 6.13-.86 12.54.22 18.64 1.22 7.29-1.07 14.59-.76 21.89.25 6.83.04 13.77.06 20.68.21.05.43.13.43.18-.02.47-.18.76-.43.84.02 4.03.13 8.04.47 12.01-.85 7.12-.46 14.22.53 21.3 0 7.63-1.44 16.56-1.15 23.87-.05 1.05-.05 2.03.06 3.12-.04-.07-.07.03-.14-.02-.21-.08-.59-.26-.63-.21Zm100.89-147.73c.11.21.34.55.3.6-.43.41-.82.47-1.05.19-.14-.17-.35-.54-.3-.59.43-.41.8-.45 1.06-.2ZM274.37 381.3c-.14-.17-.35-.55-.3-.59.42-.41.8-.45 1.06-.2.1.21.34.55.29.6-.42.41-.82.47-1.05.2Zm22.36-19.71c-.21.11-.55.35-.59.3-.4-.43-.46-.83-.18-1.07.17-.15.54-.36.59-.31.4.43.44.81.19 1.07Zm31.8-36.45c-.36.09-.78.14-1.12.04-.36-.11-.65-.44-.97-.67s-.81-.41-.91-.72c-.07-.24.36-.63.57-.95.22-.33.41-.7.69-.96.44-.41 1-.46 1.58-.27.45.15.63.46.59.94-.01.19.06.39.09.59s.06.4.1.59c.13.72-.11 1.29-.62 1.41m16.32-18.59c-.17.15-.54.36-.59.31-.4-.43-.44-.81-.19-1.07.2-.11.55-.35.59-.31.4.43.46.83.18 1.07Zm3.41-96.55c.17.07.47.27.45.33-.16.47-.42.64-.71.55-.16-.11-.46-.28-.45-.33.16-.47.43-.66.71-.54Zm-.49 126.87c-.42.41-.82.47-1.05.19-.14-.17-.35-.55-.3-.59.42-.41.8-.45 1.06-.2.1.21.34.55.29.6m-10.35-116.45s.32.18.45.33c.2.23.11.55-.28.86-.04.03-.3-.21-.45-.32-.18-.25-.1-.56.28-.86Zm-9.93 32.28c.07-.18.27-.47.32-.45.46.16.63.43.55.73-.11.16-.28.47-.32.45-.46-.17-.65-.44-.54-.72Zm-3.57-14.18c.21-.11.55-.35.59-.3.4.42.46.83.18 1.06-.17.15-.54.36-.59.31-.4-.43-.44-.81-.19-1.07Zm-18.35 9c.07-.17.27-.47.32-.45.46.16.63.43.54.73-.11.16-.28.47-.33.45-.46-.17-.65-.44-.54-.72Zm-15.31 5.9c.69-.12 1.17.14 1.35.74.28.97-.05 1.55-.97 1.71-.7.12-1.17-.14-1.35-.74-.28-.97.05-1.55.97-1.71m-13.03 8.67c.23-.2.55-.11.85.28.03.04-.2.3-.31.46-.25.18-.55.1-.85-.29-.03-.04.18-.33.32-.45Zm-8.18 58.43c.36-4.89.04-10.12.3-14.84.03-1.75-.65-3.32.27-4.7 1.55-1.74 4.22-3.2 6.43-4.68 6.97-3.5 12.99-8.68 19.83-10.77 5.78-2.89 11.26-5.46 16.6-8.97 6.61-3.09 13.62-4.52 20.74-6 3.68-.95 7.82-1.39 11.31-.39 3.24 1.65 2.62 7 2.58 10.24l-.02.28c-.39 2.83-.38 5.94-.85 8.9.06-.09.12-.15.14-.14.46.17.63.43.55.73-.11.16-.27.47-.33.45-.24-.08-.4-.2-.49-.33-.26 1.39-.63 2.75-1.23 4.01-2.52 3.98-3.82 8.18-6.79 11.76-1.64 2.1-2.43 4.48-4.39 6.52-5.34 5.78-12.78 8.9-19.33 13.02-6.37 3.53-12.74 6.9-19.59 9.39-5.2 2.01-10.59 3.66-15.47 6.25-2.4 1.24-5.92 1.32-8.12 2.29-1.22.48-1.83.76-1.92.28-1.68-7.43-1.31-15.69-.21-23.31Zm-1.38 26.99c.1-.17.38-.25.58-.37q.49.03 1.46 1.99c.1.21.2.41.29.62-.43.12-.87.4-1.27.34-1.42-.22-1.83-1.24-1.06-2.58m-9.33-20.71c.14.17.35.55.3.59-.42.41-.8.46-1.06.2-.1-.21-.34-.56-.29-.6.42-.41.82-.47 1.05-.19m-4.16-16.77c.25-.25.5-.15.89.21.44.4.98.69 1.42 1.08.52.47.12 1.74-.6 1.96-.95.29-1.57-.05-1.7-.96-.06-.4-.13-.79-.2-1.19-.2-.43-.13-.79.19-1.1" class="cls-3"/></g></svg>