<svg xmlns="http://www.w3.org/2000/svg" id="Layer_2" viewBox="0 0 284.4 204.5"><defs><filter id="luminosity-noclip" width="288.3" height="207" x="-4" y="-2.5" color-interpolation-filters="sRGB" filterUnits="userSpaceOnUse"><feFlood flood-color="#fff" result="bg"/><feBlend in="SourceGraphic" in2="bg"/></filter><style>.cls-3{fill:#f93e10}.cls-4{fill:#231f20}.cls-5{fill:#fff}</style><mask id="mask" width="288.3" height="207" x="-4" y="-2.5" maskUnits="userSpaceOnUse"><g style="filter:url(#luminosity-noclip)"><path d="m11.8 53.6-.2 1v1.1l-.2.5q-.9 1.3-2.1 1.5-.8 0-1.4-.3l-.4-.2-.2-.7-.2-1 .2-.4v-.3l.2-.2v-.1l.7-.4 1-.3 1.5-.3zM96 78.4c.5-.1 1.1-.8 1.4-1l1.8-2.4 1.2-1.5 1-.9.4-.4.3-.3 1.3-1.7 1.8-2a25 25 0 0 0 4-7l.2-.9 1-3.7q.7-1.7 1-3.5l.6-4.2v-2.2q0-.8.3-1.6l.1-2.2c0-1.1-.2-.8 0-1.9l-.2-2.9-.1-.8-.1-.3-.1.1-.4 1.8-.2 1.2-.6 3-.3 4.7-.4 2.9-.8 3.2-1 3.5-1.3 3.3-1.2 3a22 22 0 0 1-3.8 5.7l-1.1 1.5c-.3.3-1 .7-1.2 1l-1 1.4-1 1.4-.8 2.1-.5.9q-.4.3-.6.7zm13-7.9.6-1.1.9-2 .5-1.4.5-.8.2-.4v-.3l.5-1.6.7-1.8q.6-1.6 1-3.4l.6-2.1v-.8q.4-1.3.6-2.7l.7-2.6.5-3 .1-1.7q0-.6.3-1.1l.2-1.6c.1-.8 0-.6.3-1.4v-1l.1-1.1v-.9h-.2l-.5 1.4-.3.8-.8 2-.7 3.6-.4 2.1c-.2 1.2-.3 1.4-.7 2.5l-.6 2.7-.7 2.5-.4 2.4-.7 2.7-.6 2.4-.3 1.3-.6 1-.3 1.2-.4 1-.1 1.8v.9q-.2.4 0 .7zm5.4-1.6c.2-.3.2-1 .3-1.2l.5-2.2.4-1.4.3-.9.1-.4.1-.2.3-1.6.6-1.8 1.2-3.3.8-2.2V53l.7-2.7q.5-1.4.7-2.7l.4-3v-1.8q0-.6.3-1l.2-1.7c0-.8-.2-.6 0-1.4.2-.2 0-.9 0-1.1l.1-1v-.7l-.2-.3-.1.1-.4 1.3-.3.9-.7 2.1-.5 3.6-.3 2.1-.6 2.5-.7 2.6-.9 2.5-.6 2.3-.7 2.8-.6 2.4-.2 1.5-.5 1-.1 1.3-.1 1.1v1.8l.1.8q0 .5.2.8zm7.8 3.5-.2-1.3v-3.9l.1-1 .1-.5v-.2l.1-1.8.4-2 .8-3.7.5-2.4v-.8l.3-3 .5-2.9v-5.1l.1-1.3v-1.8c-.1-.9-.2-.6-.1-1.5l-.2-1.2v-1l-.2-.7-.2-.2-.3 1.6-.1.9-.4 2.4-.2 3.8-.1 2.4-.4 2.7-.5 2.9-.5 2.8-.3 2.6-.4 3.1-.3 2.6v1.6l-.3 1.2v1.5l.2 1.2.7 1.9.4.8q0 .5.4.7zM126 76v-1.5l.2-2.6v-1.7l.2-1.1v-.5l.1-.4v-1.9l.2-2.2.5-4 .5-2.7v-.8l.3-3.3.6-3.1a35 35 0 0 0 .2-7l-.2-2c0-1-.2-.7-.2-1.7l-.4-1.2-.3-1.2-.3-.7V36l-.2.1v9.3l-.1 2.7-.5 2.9-.6 3.2-.6 3-.2 3-.3 6.3v1.7l-.2 1.3.1 1.5v1.3l.5 2 .3 1q0 .5.2.8zm4.8 3.4V75l.3-1.8.3-1.2.1-.5.1-.4.3-2 .5-2.5.3-4.7.2-2.8v-1l.2-3.5q.3-1.8 0-3.7t-.7-4l-.6-2q-.2-.7 0-1.5l-.4-2c-.1-1-.3-.7-.1-1.8l-.3-1.3v-1.4l-.2-.8v-.3h-.3l-.4 1.9v1c-.2.9-.4 2.2-.4 3 0 1.8.4 3 .7 4.7l.5 2.8c.2 1.4.2 1.7.2 3.2 0 .8 0 2.6-.2 3.3l-.5 3.5.1 3.2a41 41 0 0 1-.3 6.7c-.1.7 0 1-.2 1.8l-.5 1.4V74q-.1.7 0 1.6a19 19 0 0 0 1.2 4.1zm4.8-1.4-.1-1.6.1-2.5.2-1.8.2-1v-.6l.1-.3v-12l.1-3.3.5-3.2.2-3.7-.1-2q0-.7.2-1.3v-2c-.1-1-.3-.7-.1-1.7l-.3-1.3-.4-1.3q0-.3-.4-.6l-.2-.2v2.7l-.2 2.6v4.2q0 1.4-.2 2.6c0 1.4-.2 1.7-.4 3l-.4 3.3q0 1.7-.3 3.2l.2 3 .2 3.5.2 2.8V70l-.3 1.3v3q0 1 .4 2l.3 1q.1.6.4.8zm6.4 2.6q-.1-1-.4-1.7a28 28 0 0 1-.3-4.8l.1-1.2.1-.6.1-.3.2-2.2.4-2.6a35 35 0 0 0-.2-7.8l-.3-1-.4-3.6-.2-3.6-.2-4-.2-2.2v-3.7c0-1.1-.2-.8 0-2l-.2-1.3-.1-1.5-.2-.8v-.3l-.2.1-.2 1-.1.9-.2 1-.3 3 .1 4.8.2 3v3.4l.2 3.8.3 3.5.5 3.2a34 34 0 0 1-.1 6.9q0 1-.2 1.9l-.3 1.5v1.8l.3 1.6.7 2.2.5 1q0 .5.5.9zm4.9-2.4-.4-1.5-.5-2.7-.3-1.8v-1.1l-.1-.6v-.3l-.3-2v-2.3l.7-4.3q.3-1.5.2-3l-.1-1-.5-3.4-.3-3.3-.2-3.8-.2-2q0-.8.2-1.4v-2l.2-1.8v-3.4l-.1-.3h-.2l-.5 1.7-.2 1-.6 2.9c-.2 1.6-.1 2.8-.1 4.5V49l.1 3.2.4 3.4a39 39 0 0 1 .1 6.1l-.3 3.7v3.1l.4 1.8V72q0 .7.4 1.5l.4 1.4.9 2 .4 1 .5.7zm5.1-.2-.5-1.4q-.4-1.2-.5-2.5l-.3-1.6v-1.9l-.3-1.9-.1-2.2-.2-4-.2-2.7-.2-.8-.4-3.1v-3.1l-.4-3.6-.3-1.8v-3.2c-.1-1-.3-.7-.2-1.6l-.2-1.3-.1-1.2-.2-.7-.1-.3-.1.1-.4 1.6-.1 1-.3 2.6q0 2 .3 4.1l.2 2.6v3l.2 3.1.2 3.1.4 2.8.4 3.3.4 2.8q0 .8.3 1.6v1.3l.3 1.5q0 .8.3 1.3l1.5 2.7q.2.5.5.6zm6.2-.5-.6-1.2-.5-2.3q0-.8-.3-1.7v-1l-.1-.5v-.3l-.5-1.8-.2-2-.6-4-.3-2.4q0-.5-.3-.8l-.5-3-.3-3-.6-3.4-.4-1.8V47l-.3-1.8c-.2-.9-.3-.6-.2-1.5l-.3-1.2-.2-1.1-.2-.7-.1-.3-.2.1c0 .1-.3 1.5-.2 1.6v3.5c0 1.5.2 2.5.4 4l.4 2.4c.2 1.2.1 1.5.2 2.8l.4 3 .4 3 .5 2.7.7 3.1.5 2.7.5 1.5v1.3q.1.7.4 1.3 0 .7.3 1.3l1.5 2.6q.3.4.7.5zm5.3-1.5-.7-1.1-1-2-.6-1.5-.3-.9-.2-.4v-.3l-.8-1.5-.5-2-1-3.5q-.1-1.1-.5-2.3l-.3-.7-.7-2.7q-.3-1.3-.2-2.7l.2-3 .1-1.8.3-1.2.1-1.7c0-.9-.1-.7.1-1.5l-.1-1.2v-1q0-.4-.3-.7l-.1-.3-.2.1-.3 1.4-.1 1-.5 2.2-.5 3.6-.3 2.4-.2 2.8c0 .8.4 2.4.5 3l.6 2.8.8 2.4 1 3 .8 2.4.7 1.3c.1.3.1 1 .3 1.2l.7 1.2q.2.7.6 1l2 2q.1.4.5.5z" class="cls-4"/><path d="M172.2 77.8q0-.7-.4-1.3l-.8-2.1-.8-1.3-.4-1-.3-.3v-.3l-1.3-1.3-1.1-1.6-2.1-2.9-1.2-1.8-.5-.6-1.2-2.3-.6-2.6-.7-3-.4-1.6v-1.2l-.2-1.6c0-.9-.2-.6 0-1.5l-.1-1v-1.8l-.2-.2h-.2l-.4 1.4-.2.9c-.1.6-.4 1.7-.4 2.3q0 1.9.3 3.8l.4 2.3.4 2.6a20 20 0 0 0 2.2 5.4q.7 1.2 1.5 2.1l2 2.3 1.6 2 1 1c.1.2.2.8.4 1l.8 1 .6.9 1.2 1.3.5.7q0 .3.5.5zm3.6.2-.1-.7-.3-1.1-.2-.8-.1-.5v-.3l-.5-.8-.4-1-.6-1.7-.6-1-.2-.3-.9-1.3-.6-1.2q-.4-.8-1-1.3l-.6-.6-.2-.6-.6-.6c-.3-.4-.3-.2-.5-.6l-.4-.4-.4-.4-.3-.2h-.1l.2.8.1.4q.1.6.4 1.1.4.9 1 1.6l.7 1 .5 1.1.7 1.3.5 1.2.7 1 .7 1.4.6 1 .4.7v.6l.3.6.3.5.7.6.3.4.4.2zM56 160.7v-1.6l.1-.7.2-.5v-.2l.2-.9q0-.4.3-.8l.7-1.6.4-1 .1-.3.5-1.3.6-1.2.5-1.4.2-.8.2-.6.2-.8v-2h-.3l-.3.6v.4l-.5 1-.4 1.6-.3 1-.6 1.1-.6 1.3-.5 1.1-.4 1.2-.5 1.4-.3 1.2v.7l-.3.5v1.2l.3 1 .2.3q0 .2.2.3m3.1-2.1v-.6l.2-.8.2-.6.2-.3v-.2h.1l.2-.7.4-.8.4-1.5.1-1V151l.3-1.1.2-1.3v-.7l.3-.4.1-.7c0-.3 0-.2.2-.5V145l-.1-.2h-.2l-.3.5-.2.3q-.1.5-.4.9l-.3 1.5-.2.9-.3 1-.2 1.2-.2 1.1v1q0 .6-.2 1.1l-.3 1-.1.6-.3.4-.1.5v.5l.2 1.2zm3.7-3.4v-.4l.2-.7v-.5l.2-.3v-.7l.2-.6.3-1.1.1-.8v-1.1l.2-.9v-2.5q-.2-.3 0-.4l-.2-.4v-.3l-.3-.2h-.3s-.1.4 0 .4l-.1.3-.2.7v1.8l-.1.8-.1.9-.2.8v.8l-.1 1v1.3l-.2.3v.8l.3.6v.3zm3.2-1.9v-.3l.2-.6v-.5l.1-.2v-.7l.1-.5.1-1v-3.2l-.2-.4.1-.4v-.4l-.1-.4-.1-.3v-.3l-.3-.2h-.3v.4l-.1.2-.2.6v1l.1.6v1.5l-.2.7.1.7v1.5l.2.4-.2.3v.4l.1.3.2.4.1.3zm2.5-2.7v-.3l.2-.4v-.6l.1-.1v-.7l.1-.8v-2.4l-.2-.3v-.9l-.1-.2v-.2l-.2-.2H68l-.2.3v.2l-.2.4v.8l.1.5v.5l-.1.6v1.1l.1.6v.5l.1.3-.1.2v.3l.1.2.3.4v.1zm2.6.2v-.4l-.1-.4v-.7l-.1-.4v-.4l.1-.8v-3.5q-.2-.2-.1-.4l-.1-.2v-.3h-.3l-.1-.1h-.2v.3l-.1.2-.2.5v1.8l-.1.7v1.2l.1.7.1.5.1.3v.6l.2.3.3.3.2.1zm2 .8q.2 0 .1-.3v-4l-.2-.7v-1.5l-.2-.5v-.7l-.1-.3-.1-.3-.1-.3-.2-.2H72l-.1.4v.2l-.2.6.1 1 .1.5v2.1l.1.7.1.7.2.7v1l.2.3.3.4.1.2zm2.8-.1V150l-.2-.4V148l-.1-.5-.1-.2-.2-.7v-.7l-.3-.8-.2-.4v-.3l-.2-.4-.1-.4-.2-.2-.1-.3-.2-.1h-.3v.6l-.1.6q0 .5.3 1l.2.5v.7l.1.7v.7l.3.6.2.8.2.6.1.3v.7l.1.3.4.4.1.2zm2.8-.1v-.4l-.2-.6-.2-.4v-.5l-.2-.4-.1-.6-.2-1-.1-.6-.1-.1-.3-.8-.1-.8q0-.5-.3-.8 0-.2-.3-.5v-.3l-.2-.5c-.1-.2-.2 0-.2-.3l-.2-.3-.2-.2-.3-.1h-.2v1.4l.5.9.2.6v.7l.3.8v.8l.4.6q0 .5.3.8l.2.7.3.4v.3l.1.4.2.2.4.4.2.2zm2.8.1-.2-.3v-.7l-.2-.4v-.5l-.3-.5v-.6l-.4-1q0-.4-.2-.7l-.1-.2-.4-.8-.2-.8q0-.4-.4-.8 0-.3-.3-.4v-.4l-.3-.4c0-.3-.2-.1-.2-.4l-.2-.3-.2-.3h-.5v.7l.2.7.4 1 .4.6.1.8.3.8.2.7.4.7q0 .5.3.8l.3.7.2.4v.4l.2.3.2.3.4.4.2.2q0 .2.3.1Zm2.5-1.9-.3-.2-.3-.5-.2-.3v-.4l-.3-.4v-.5l-.2-1-.3-.7-.1-.2-.5-.7-.3-.7-.6-.7-.3-.3q-.2 0-.1-.3l-.3-.3q-.2-.1-.2-.4l-.2-.2-.2-.2-.2-.1H79v.7l.2.7.6.9.4.5.3.6.4.7.3.6.3.6.3.7.2.7.2.3v.4l.4.4.2.2.9.3h.2zm2.1-.8-.2-.2-.2-.4-.2-.4v-.3l-.3-.4v-.5l-.4-1-.2-.5-.1-.1-.4-.6-.3-.7-.6-.6-.3-.3-.1-.2-.2-.3q-.2-.1-.2-.3l-.2-.2v-.2l-.2-.2h-.3l-.1.4v1l.6.8.4.4.3.6.3.6.3.6q0 .3.3.5l.3.7.3.6.2.3v.3l.3.3.2.3.6.2h.5Zm1.8-.9v-.3l-.2-.6v-.3l-.1-.3v-.1l-.3-.5-.1-.4-.6-1.4-.2-.2q-.1-.3-.4-.5 0-.4-.3-.7l-.5-.6-.3-.3q-.2 0-.2-.3l-.3-.3q-.2 0-.2-.2l-.2-.1-.1-.2-.2-.1-.2-.1h-.1v.8l.2.6.6.7.4.4.2.6.4.6.3.6q0 .3.3.5l.4.6.3.5.2.3v.3l.2.3.2.2.4.3.1.2zm2.1-1.1-.1-.4-.2-.5-.1-.4v-.5q-.3 0-.3-.3l-.1-.5-.3-.9-.3-.6h-.1l-.4-.7-.3-.7-.6-.6-.3-.3-.2-.3-.3-.3q-.2 0-.3-.2l-.3-.1-.3-.2h-.2l-.1.1-.1.1.2.4v.2l.3.5.6.6.4.4.3.6.3.6.3.6.3.6.7 1.2.2.3v.3l.2.3.2.2.4.3.2.1z" class="cls-4"/><circle cx="55" cy="123.3" r="10.5" class="cls-4"/><path d="M65.5 124c.2-.7 0-1.9 0-2.5a11 11 0 0 0-3.3-6.2l-.6-.6-.8-.6-.8-.5-.4-.2q-1.5-.7-3.2-.9t-3.8.1a11 11 0 0 0-8.2 7.6l-.3 1.4a11 11 0 0 0 .7 5.5q.9 2.7 3 4.5a11 11 0 0 0 8.9 2.4l2.3-.5q1.6-.6 2.8-1.7c1.2-1 .8-.8 1.9-2 .3-.3.8-1.4 1-1.9l.7-2v-1.6l-.2.2-.4 1.2-.4 1.2v.1l-.7 1.3c-.6 1-2 2.3-2.9 2.9a10 10 0 0 1-11 .5l-.9-.6-1.6-1.7q-.6-.7-1.3-2.1l-.7-2.4q-.3-2.4.5-4.7.7-2.1 2.2-3.8a10 10 0 0 1 8.8-3q1.3.3 2.5.8.9.5 1.6 1.2l1.7 1.5.7.8.5.9q.9 1.4 1.2 2.9l.2.8.1.7.1 1.3z" class="cls-4"/><circle cx="219.7" cy="123.7" r="8.7" class="cls-4"/><path d="m224.4 131 1.6-1.2a9 9 0 0 0 2.5-5.3q.2-.7.1-1.5v-1.2l-1-2.5q-.8-1.5-2-2.5a9 9 0 0 0-9.1-1.8l-1.1.5a9 9 0 0 0-3.4 3.2 9 9 0 0 0-1.5 4.2 9 9 0 0 0 2.8 7.2l1.5 1.2q1.1.8 2.4 1c1.4.4 1 .2 2.3.4.4 0 1.4-.1 1.8-.3.3 0 1.4-.3 1.6-.5l1.1-.8h-.2l-1 .3-1 .4-1.3.2c-.9 0-2.4-.2-3.3-.5a8 8 0 0 1-5.8-8l.3-2 .8-1.8q.7-1.2 1.3-1.7a9 9 0 0 1 7-2.4 8 8 0 0 1 6.2 4.4q.6 1 .8 2v1.7l-.2 2-.2.8-.3.7a9 9 0 0 1-2.2 3.2q-.6.4-.8.8z" class="cls-4"/><circle cx="260.6" cy="122.3" r="7" class="cls-4"/><path d="m264.4 128.3 1.3-1a7 7 0 0 0 2-4.3l.2-1.2-.1-.7v-.3q-.3-1-.9-2-.6-1.2-1.5-2a8 8 0 0 0-7.4-1.5l-.9.4a7 7 0 0 0-2.7 2.6 7 7 0 0 0-1.3 3.4 7 7 0 0 0 2.3 5.8l1.2 1q1 .6 2 .9l1.9.2 1.4-.2 1.3-.4 1-.7h-.2l-.8.3-.9.2-1 .2c-.8 0-2-.2-2.7-.4a7 7 0 0 1-4.7-6.5q0-.6.3-1.5 0-.7.6-1.6a7 7 0 0 1 3.7-3q1.5-.4 3-.3a7 7 0 0 1 5 3.6q.5.8.7 1.6v1.4l-.1 1.5-.5 1.4a8 8 0 0 1-1.8 2.5l-.6.6z" class="cls-4"/><path d="m209.7 122.7 5.2-.4 4.2-.4 4.4.1c1 0 1.6-.4 2.5.1.7.4 1.4 0 2.2 0l1.2.2h.7v.5l.2.4q.2 0 0 .1v-.1h.1v.1q.3-.1.2.1t-.2.3l-.8.4-.9.4-1.7.3h-2l-2.7.1-3.4-.2h-4q-4 .1-8-.4l-.4-.6c0-.5 2.3-.9 2.6-1z" class="cls-5"/><path d="m221.3 115.9-.6 4.2-.3 3.6-.6 3.5c-.2.8.2 1.4-.4 2-.4.5-.1 1.2-.2 1.8l-.6 2q-.2.3-.5.3-.5-.3-.7-.7c-.3-.8-.9-2-.7-2.9q0-.8.2-1.5l.1-2.3.8-2.8.5-3.3a26 26 0 0 1 2-6.4q.3-.2.7-.2c.5 0 .4 2 .3 2.3zm31.7 4.7q2.3 0 4.3.3h3.5q1.7.1 3.5.5c.7 0 1.3-.3 2 .3.5.4 1.2 0 1.8.2l1 .2h.4l.3.2h.1v.9-.2l.1.1v.1q0-.1 0 0 0 .4-.3.4c-.8.3-2 1-2.9.8q-.8 0-1.5-.2h-2.2l-2.8-.6-3.2-.4q-3.3-.4-6.4-1.5l-.2-.7c0-.5 1.9-.5 2.2-.5z" class="cls-5"/><path d="M262.3 114.3a30 30 0 0 1-.9 5.4q-.5 2-.8 4.3l-1.1 4.1c-.2 1 0 1.7-.5 2.5-.5.6-.1 1.4-.2 2.1l-.3 2.4q-.2.4-.5.5-.6-.3-.8-.7a7 7 0 0 1-1-3.6l.3-2q.1-1.5.4-2.8l1.1-3.4 1-4 2.2-7.8q.1-.2.7-.3c.6 0 .3.6.4 1.2v1.6zM45 122.9q3.3-1.2 6.8-1.9l5.6-1.3 5.7-1c1.3-.2 2-.8 3.3-.6 1 .2 1.9-.4 2.8-.7l3-.7-.3 1.8v-.1q-.4-.6-.2-.8h1.2l-.2.3-.2.2c-1 .7-2.7 2-4 2.3l-2.6.6-3.6.9-4.6.5-5.3 1-10.5 2q-.4 0-.7-.5 0-.3 1.3-1l1.9-.8z" class="cls-5"/><path d="M55.4 111.8q0 3.1-.3 6.4l.1 5.1.1 5.1q.1.8.4 1.5v1.4c-.2.9.4 1.7.6 2.5l.8 2.8-.2.7-1.1-.5a9 9 0 0 1-2.4-3.7l-.5-2.3c-.1-1.1-.6-2.3-.6-3.4l.2-4.4a90 90 0 0 1 1.5-14.7q.1-.3.7-.4c.4 0 .7 2.8.6 3.3z" class="cls-5"/><path d="M11.8 49v-2.9l.2-.6q1.2-1.5 2.7-1.7l1.6.4q.3 0 .5.3l.2.7v2l-.7.8-1.2.8q-1 .4-1.7.5zm10.4 4.7.1-1.5.2-1.3.4-.5q1.3-1.4 2.7-1.5.8.1 1.5.5.3 0 .5.3v1.6l-.2.5v.4l-.7.7-1.3.7-1.7.4q-.9 0-1.5-.3M27 43v-3.4q0-.3.4-.6 1.3-1.4 3-1.2l1.6 1q.3 0 .5.4l.1.8.1 1.1-.2.6v.6l-.7.7-1.3.6q-1.1.2-1.9.1-1-.3-1.7-.7Zm17 2.5-2.7 1.2-2.6 1.1h-1a2 2 0 0 1-1.2-1.3l-.2-.7.2-1q.6-1.3 1.6-2.6l.7-1q.6-.5 1.4-.8l1.8-1 1-.1.9-.5h.2l.8.6q.4.7.5 1.4v2.1zm4.2-10.4.8-1.8.8-1.5q0-.3.6-.4 1.8-.8 3.1.2.8.8 1.1 1.7.3.4.3.7l-.2.9-.4 1.2-.5.5-.1.5h-.1l-1 .3h-1.4q-1-.3-1.7-.8-.9-.7-1.3-1.5m12.7-7.6.8-1.3.8-1.1.6-.3q1.8-.6 3.1 0 .8.6 1.1 1.2l.3.5-.2.6-.5.8-.4.4-.2.3-.1.1-1 .2h-1.4q-1 0-1.7-.4zm-2.1 10.8q.5 0 .9-.4l.7-.7.6-.3q1.6-1 3-.7.8.5 1.2 1.2.3.2.3.5 0 .4-.3.8l-.5.8-.6.2-.3.3h-1l-1.4-.5-1.5-.7zm19.4-19.1 1-2 .9-1.7q.2-.3.6-.4 2-.7 3.1.6.7 1 1 2l.2.9-.3 1-.5 1.3-.5.6-.2.6h-.2l-.9.2q-.8 0-1.4-.2-1-.4-1.6-1-.8-1-1.2-1.9M81 31.9h-1l-.4.1-1.6.4-3.2.6q-.5 0-1-.3c-1.1-.7-1.6-1.8-.5-3.2q1.3-1.4 2.9-2.5l1.2-.9q1.1-.4 2.2-.5l2.5-.2 1 .2h1.2l.6.8q.3.8.2 1.4-.3 1.3-1.4 2.2l-2.5 1.9M89 11.2l.9-1.5.8-1.3.6-.3q1.8-.7 3.1.3.7.7 1 1.5l.3.6-.3.8-.4 1-.5.4-.2.4v.1l-1 .2h-1.5l-1.6-.8q-.8-.7-1.2-1.4M112.5 1l-2.4 3-.7.1q-1.9 0-2.9-1.2L106 1l-.1-.6q0-.3.4-.6.2-.5.6-.8.1-.3.5-.4h1.8l-.1.1h-.1l.1-.1v-.2h.2-.1q-.2 0-.3-.2V-2q0-.2.2-.3h1l.7.2.4.5v.4h.2q0 .2.3.3l1 1.8Zm-9.8 20.9.7-1.7.7-1.5.6-.4q1.6-.9 3 0 1 .7 1.3 1.4l.3.6-.1.9-.4 1q-.1.4-.4.6l-.2.5-1 .4h-1.4l-1.7-.5zM87.1 34l1-1.3 1-.9h.6q1.9.1 3 .8l1 .6.2.2-.3.2-.5.4-.4.2-.2.2-1 .4-1.4.4q-1 0-1.7-.2-.9-.4-1.3-1m11.7-12.8-1.2 1.4-1.1 1.3q-.2.3-.7.3-1.9.6-3-.8-.5-1-.6-2.3-.2-.4 0-1l.5-1 .9-1.1.7-.4.4-.5h.1l1 .2q.8.3 1.2.7.8.7 1.2 1.4zm23.2 5.6.7-1 .6-1 .5-.3q1.7-1 3-.7 1 .4 1.4 1l.3.6-.2.8q0 .4-.4 1l-.5.3-.2.4-1 .1h-1.4l-1.7-.5zm-9.7 2.6-1 .7-1 .7-.6.2q-2 .4-3.1-.4-.6-.7-.8-1.5l-.2-.6q.1-.4.5-.7l.7-.7.5-.2.3-.3h.2l.9.2 1.3.5 1.4 1 1 1Zm6.6-14.1-.9-.6-.2-.1v-.1l-.3-.2-.9-.6-2-.8-.7-.5q-.6-.7-.8-1.6 0-.8 1-1.6a8 8 0 0 1 4-1l1.8.3 1.2.7 1.7.9.7.6q.4.3.9.4v.1q.2.6.1 1 0 .8-.5 1.4-.9.8-1.9 1.2-1.6.5-3.2.4m22.6.9.4-2.8q.3-1.4.8-2.2l.5-.5q.8-.6 1.5-.8.8-.2 1.7 1 .7 1.7 1.1 2.3l.5 1v1.3l-.2 1.7-.4.7v.9l-1 .5q-.7.2-1.4 0-1.1-.3-1.9-1-1-1-1.6-2m10.1 11.1-1 1.1-1 1-.7.2q-2 .1-3-.8-.6-.6-.9-1.3l-.2-.5q.1-.4.4-.7l.6-.7.5-.3q.2 0 .3-.3h1q.8 0 1.4.2l1.6.9zm8.1-15.1.9-1 .6-1.1.5-.5q1.6-1 3.1-.5.9.6 1.3 1.6.4.3.4.8l-.3 1-.6 1-.5.5-.3.4h-1.1l-1.3-.3-1.6-.9zm15.4 8.5a8 8 0 0 1-2.3 1.9h-.7q-1.7-.6-2.7-1.5l-.8-.7-.2-.2.3-.2.5-.3.5-.2.2-.2 1-.2h1.4l1.7.4q.8.5 1.1 1.2M135.2-2l1.5 2.3 1.3 2.3v1l-.2.4-.4.3q-.3.3-.8.2l-.4.2-.2.3h-.4l-.4.1q-1.1-.2-2.4-.8-.7-.1-1-.4l-.9-1.1-1-1.5-.3-1-.3-.4-.4-.7v-.1q0-.9.6-1 .8 0 1.4-.2 1-.4 1.9-.4 1.3.1 2.4.5m-6.4 20.5q0-.8.3-1.5t.6-1.2q.1-.3.5-.4 1.8-.6 3.1-.4.8 0 1.1.3h.3l-.1.5-.3.5-.3.4v.3l-.1.1-.7.6-1.2.8q-1 .5-1.7.5-.9-.1-1.6-.5Zm35.8 14.2a10 10 0 0 1 1-3l.5-.4q1.8-.6 3.1-.2l1.1.5.3.1-.1.4-.2.6-.3.5-.1.3-.8.7-1.2.8-1.7.4q-1-.2-1.6-.7m31-4.3 1.9 2.1 1.5 2v.8q-.2 2-2.2 2.2-1.4-.1-2.6-.4-.6 0-1-.3-.6-.4-1-.9l-1.1-1.1-.4-.7-.6-.5v-.2l.1-1q.3-.7.7-1.1 1-.8 2-1 1.6-.1 2.7.1m-4.4-10-1 .7-1 .7-.6.2q-1.8.6-3-.2-.7-.6-1-1.4l-.2-.6.4-.6.7-.8.6-.2.3-.3q.6 0 1 .2l1.4.5 1.4.9zm-14 17.3q.6-.7 1.1-1l1-.8h.7q1.9 0 3 1 .5.5.7 1 .3.3.2.5t-.4.4l-.5.6-.5.2q-.2 0-.3.2h-1.1l-1.4-.2q-1-.3-1.5-.7-.7-.7-1-1.3m18.1 11.8.8-1.4.8-1.2.6-.2q2-.4 3.1.2.8.4 1 1 .3 0 .4.3l-.2.5-.4.6q-.1.3-.4.4l-.2.3v.1l-1 .4-1.3.2-1.8-.2zm22.4-3.9-1.2.9-1 .8h-.7q-1.9.1-3-1-.5-.6-.6-1.3l-.2-.6.5-.5.6-.6.6-.2.2-.3h1.1l1.4.5q.8.4 1.4 1t.9 1.3M210.9 30l-1.1.8-1 .8h-.7q-1.8.2-3-.6l-.8-1.2-.2-.4q0-.3.4-.5l.6-.6.5-.2.3-.3h1l1.4.4 1.6.7zm12.5 23.8-.6-1.8-.4-1.5.3-.7a4 4 0 0 1 2.6-1.7h1.5l.5.1.2.6.2.8v.6l.2.3v.1l-.3 1-.8 1.1q-.7.8-1.5 1-1 .2-1.9 0Zm1.8-9.7-.1-1.5v-1.4l.4-.5q1.3-1.5 2.6-1.6l1.4.1.4.1.1.6v.7l-.1.6v.4l-.5.8-1 1-1.6.8zm14 12.3-1-1.7q-.4-.7-.6-1.6v-.7q.8-1.8 2.3-2.2h1.8l.6.2.4.6.6.8v.7l.4.3v.2l-.3.9-.7 1.2q-.7.8-1.5 1.1-1 .3-2 .2m17-1.6-2.9.8-2.4.7h-.8l-1.6-.7q-.3-.3-.2-1 0-.5.3-1.1.9-1.7 2.1-2.9.4-.5 1-.9t1.5-.6l1.9-.7h1q.5 0 .8-.3h.2l.7.7q.5.7.6 1.4 0 1.1-.5 2.2zm-.8 10.4a10 10 0 0 1-.5-4q0-.3.4-.6 1.6-1.1 3-.9l1.4.5.4.1.2.6.1.8v.6l.1.3v.1l-.4 1q-.3.6-.8 1-.8.8-1.7 1-1.2-.1-2.1-.5Zm15.7-2.9-1.5-.7-1.4-.6-.3-.6q-.9-1.7-.2-3.1.6-.7 1.3-1.2l.5-.4.8.2 1 .4q.3.1.5.4l.4.1.1.1.3 1 .1 1.3q0 1.1-.5 1.8-.5.9-1 1.3m-35.4 44.3-1.7-.3-1.5-.3q-.2 0-.5-.4-.9-1.2 0-2.4l1.4-1 .6-.4h.9l1.1.2.5.2h.5l.1.1.3.7q.2.6.1 1 0 .9-.5 1.5zm-16.8 3.5-1.6-.3-1.5-.2-.4-.4q-1.2-1-.4-2.3.7-.8 1.6-1.3l.7-.3h1q.7 0 1.3.2.3 0 .5.3h.6v.1l.3.7v1.1l-.8 1.3-1.2 1Zm19 12.6a9 9 0 0 1-.3-3.3q0-.3.4-.4 1.2-.9 2.3-.4.6.2 1 .6.3 0 .4.2l.1.5.1.7v.4l.1.3v.1l-.3.6-.8.8q-.7.5-1.4.5-1-.2-1.6-.6m-6.9 12.8 1-.5.9-.4h.5q1.4.3 2 1.1.4.6.4 1.1v.4q-.1.3-.4.4l-.6.3-.4.1-.3.2-.7-.2-1-.5-1-1zm-33.9-8.3a6 6 0 0 1 2.2-1.3l.5.1q1.2.9 1.7 1.7l.3.8q.2 0 .1.2h-.2l-.5.2-.3.1-.2.2H199q-.8-.3-1.2-.7-.5-.7-.6-1.3m10.1-10-2 1.4-1.6 1.4q-.2.3-.6.3-1.6.1-1.8-1.7.2-1.5.9-2.8l.5-1q.4-.6 1.2-1 .7-.7 1.6-1.2l.9-.1.7-.4h.2l.5.5q.4.4.5 1 0 .8-.3 1.7-.5 1-.7 1.9m40.7-8.4.3-.6.2-.4.2-.9.2-1.8.2-.6c.5-.8 1.3-1.3 2.4-.3q1 1 1.4 2.7.3.6.3 1.3t-.3 1.3l-.6 1.6-.4.6-.3.7v.1h-.8q-.7 0-1-.3-.8-.6-1-1.3zm-12.5 7.8q-1 0-1.7.4l-1.6.5h-.6q-1.6-.3-1.3-2 .3-1 1.1-2 .3-.5.7-.7.5-.4 1.1-.5l1.5-.4.6.2h.5l.6.5q.4.4.4 1 .1.8-.5 1.6l-.5.7zm28.5-5.8h-2l-.5-.3q-1-.9-1.4-1.9l.1-1 .1-.4.5-.1h1.3l.6.6.7.8.5 1.2zm11.9 19.8.3-1 .2-1.1.2-.5q.8-1.2 2.1-1 .9.3 1.4 1l.5.6v.9l-.1 1q-.1.3-.4.5v.5h-.2l-.7.2h-1l-1.3-.5zm-32.2 4.8 2.1-1.7 1.8-1.3.7-.2c1 0 1.8.5 1.5 1.9q-.3 1.5-1 2.6-.1.5-.5 1l-.8.8-1 1-.7.4-.4.6h-.8q-.7-.1-1-.5-.6-.8-.5-1.8 0-1.5.6-2.8m-21.2 5.7-1.5.4-1.3.3-.5-.2q-1.3-.6-1.3-2 .2-.8.6-1.5l.3-.5.7-.3 1-.3h.4l.5-.1q.4.1.6.4l.6.9q.4.8.3 1.4-.1.8-.4 1.5m31.3 2.3.7-.2q.4 0 .8-.3h.4q1.5-.1 2.3.5.5.6.5 1.1v.5l-.3.4-.6.4h-.5l-.3.1q-.4 0-.7-.3l-1.7-1.5zm-51.1-8.9 1-.5 1-.6h.5q1.6 0 2 1 .3.8.2 1.6v.6l-.6.5-.8.5-.5.1-.3.2h-.1l-.7-.3-.7-.8-.7-1.1zm19.9-32.8.4-1.6.6-1.3.5-.3q1.4-.4 2.3.3l.8 1 .3.5-.1.6-.2.7-.3.4v.4l-.7.4-1 .3q-.8 0-1.4-.3-.8-.5-1.2-1.1m20.4-3.1a13 13 0 0 1 2.7-2.2h.6q1.4.4 1.6 1.6v1.6l-.1.5-.5.6-.6.6-.5.3-.2.3h-.8q-.7 0-1-.3l-1-1.1q-.4-1-.3-1.9M210 153.4l.5-.2.7-.5.5-.4.4-.2h.1l.1-.1.5-.5.7-.4 1.2-.9.8-.6.2-.2.8-.8 1-.6.9-1 .4-.5.4-.2.5-.5c.2-.3 0-.3.4-.4l.3-.4.3-.3v-.5l-.6.2-.3.2-.9.4-1 1-.7.7-.9.6-.9.7-.8.7-.8.7-.9.8-.7.7-.4.4-.5.2-.4.3q0 .2-.3.4l-.4.6-.2.3-.1.3zm5.2.6.4-.3 1-.9.4-.2h.1l.1-.1.4-.5.6-.5 1-.9.6-.6v-.3l.7-.8.7-.7.7-1 .3-.5.4-.3.3-.4c.2-.3 0-.3.4-.5l.1-.3.2-.4v-.4l-.1-.1-.5.3-.2.2-.7.5-.8 1-.5.7-.7.7-.7.8-.7.7-.6.7-.6.8-.6.7-.3.4-.4.2-.3.4-.3.3-.3.6-.2.3v.3Zm5.8.1.4-.2.5-.4.4-.4.2-.2h.1v-.1l.3-.5.4-.4 1-1.6v-.2l.4-.9.4-.7.2-1v-.5l.2-.3.1-.5.1-.4v-.7l-.1-.2-.1-.2h-.2l-.2.4-.2.2-.3.6-.3 1-.1.7q-.1.4-.4.7l-.3.8-.4.7-.3.7-.3.8-.4.6-.2.4-.3.1-.2.4-.2.3-.1.5-.1.2zm4-.4.1-.3.4-.5.2-.4.2-.2h.1v-.1l.2-.5.3-.5.6-.9.3-.6v-.2l.2-.8.4-.7.3-.8v-.5q0-.2.2-.3v-.5l.2-.4v-.9h-.2l-.1-.1-.3.3-.2.2-.4.6-.2 1-.2.6q0 .4-.3.7l-.4.7-.3.7-.2.7-.3.7q0 .4-.3.7v.4l-.3.2-.1.4-.2.3v.8l.1.3zm3.4.1.2-.3.3-.6.2-.4.2-.2v-.2l.2-.4q0-.2.3-.5l.4-1 .3-.5v-.2q0-.5.2-.8 0-.4.3-.7l.2-.9v-.5l.2-.3.1-.4.1-.4v-.9h-.2l-.2-.1-.2.3-.1.2-.4.6-.3 1v.6l-.4.7-.3.7-.3.7-.2.7-.2.8-.2.7v.4l-.3.2v.4l-.2.3.1.5v.3zm3.2 1 .2-.3.2-.7.1-.4.2-.3v-.2l.1-.4.3-.6.3-1 .3-.6v-.2l.1-.9.3-.7.2-1v-.4l.1-.4v-.5l.2-.4v-.7l-.2-.2h-.3l-.2.3-.1.2-.4.6-.1 1-.1.7-.3.8-.3.8-.3.7v.7l-.3 1v.6l-.1.5-.2.3v1.3l.1.3zm3.5-.1.2-.4.1-.6.1-.4.2-.3v-.6l.2-.6.3-1v-1.6l.3-.7v-2.9l-.1-.3-.2-.2v-.1h-.2l-.2.4-.1.2-.3.6v1.7q0 .4-.2.7l-.1.8-.2.7v2.6l-.2.3v.7l.1.5.1.3zm2.9 1q.2-.2.1-.3l.2-.7v-.5l.1-.2v-.2h.1v-.6l.1-.5.2-1 .2-.7-.1-.3v-.8l.2-.8v-1.4l.1-.4v-.5l.1-.4v-.7l-.2-.2-.1-.1h-.2l-.2.4-.1.2-.3.7v1l-.1.8-.2.7-.2.9-.1.8v2.8l-.2.4v.7l.3.5v.3l.2.2zm3 1.6-.1-.5-.1-.7v-2.3l.3-1.1.2-.8v-1.3l.2-.8.1-1.1v-.6l.1-.4v-.5l.1-.5v-.8l-.2-.2v-.1h-.2l-.3.4v.3l-.4.7-.1 1.3-.1.8-.2.8-.2 1-.2.9v3.3l-.1.4.1.5.1.4.4.6.3.2zm4.6 1.1q0-.3-.3-.4l-.4-.7-.1-.5v-.6l-.2-.6v-.7l-.2-1.3v-.8l-.1-.2-.2-1v-1l-.1-1.2-.2-.6v-1.5l-.2-.4v-.4l-.2-.3h-.3l-.1.5v.3l-.3.9.2 1.3.1.8v3l.3 1 .2 1 .2 1 .2.5v.5l.2.4q0 .3.3.4l.6.5.3.1zm1.9-.6-.3-.3-.4-.6-.2-.5v-.6l-.2-.6v-.7l-.1-1.3v-1.1l-.1-1 .1-1V148l.1-.6V146l-.2-.2v-.1h-.2l-.3.5v.3l-.4.8v2.2l-.2 1-.1 1v2l.3 1.1.2 1 .2.5v.4l.2.5.3.4 1 .6h.3zm-189.8-51-.3-1.3-.3-1.2v-.5q.7-1.3 1.9-1.5l1.3.2q.3 0 .5.2t.3.6l.3.7v.5l.2.4-.5.6-.7.8-1.3.5zm16.3 4.6 1.4-.8 1.4-.8h.6q1.5.4 1.6 1.7 0 1-.4 1.8 0 .4-.2.6l-.7.6-.9.6-.5.1-.4.3h-.1q-.4 0-.7-.3l-.8-.7q-.4-.7-.5-1.4zm2.4-7.1q-.8 0-1.4.3l-1.2.3-.5-.2q-1.3-.6-1.4-1.8 0-.8.3-1.4 0-.3.3-.5t.6-.3l.8-.3h.5l.3-.1h.1l.6.4.7.8.4 1.4zm19.1 20.3q.8-.3 1.6-.3l1.3-.1.4.3q1 1 1 2.1l-.5 1.2-.2.4-.5.1-.7.2h-.8q-.4 0-.7-.3-.5-.4-.7-.8-.5-.7-.5-1.3 0-.8.3-1.5m-22.2 6.6 2.2-1 2-1h.7q1.6.4 1.1 2.2l-1.3 2.2-.6.8-1.1.7-1.4.8-.7.1-.7.4h-.1l-.7-.4q-.4-.4-.5-.9v-1.7zM90.8 120l-4-.7q-.3 0-.6-.4-1.2-1.1 0-2.4 1-.7 2.2-1.2l1-.3h1.2l1.5.3.6.3.7.1.1.1.3.7q0 .7-.2 1l-1 1.4-1.8 1Zm-56.4 12.8L36 134l1.4 1q.3.2.3.6.6 1.5-1 2.1-1 .3-2.3.2l-1-.1-1-.6-1.1-1-.4-.5-.5-.5.1-.8.7-.9 1.4-.6zm5.2-9.2-1.6-.4-1.3-.5-.3-.4q-.6-1.4 0-2.4l1.1-.9q.3 0 .4-.3l.7.1.8.2.4.2h.4v.1l.4.7.3 1q0 .8-.3 1.4zm4.6 19.2a9 9 0 0 1 .8-3l.4-.2q1.5-.4 2.4.2.5.3.8.7l.3.3v.4l-.2.7-.2.4v.3l-.6.5-.9.6q-.8.2-1.4 0-.9-.4-1.4-.9m17.9-2.3V138l.2-.5q.8-1.1 2-1.1.7 0 1.2.4.3 0 .4.2l.2.6.1.7-.1.5v.4l-.5.5q-.4.4-1 .6l-1.2.3zm-16.9-34.3h2.1l1.8.3q.3 0 .5.4 1 1.3 0 2.4l-1.6 1.1-.6.4h-3.3q-.4-.3-.4-.6l-.4-1q0-1 .5-1.6zm26.3 19.2-.6-1.1-.6-1v-.6q.4-1.6 1.5-1.9.7-.2 1.3 0h.6l.4.5.4.7.1.5.3.3-.3.7-.6 1-1.1.7q-.8.3-1.4.2m18.3 12-.7-1.2-.5-1.1v-.6q.4-1.4 1.5-1.7h1.5l.5.1.4.6.5.7v.5l.3.3v.1q0 .4-.3.7l-.6.8-1.2.7q-.8.2-1.5.1m180.3 3.8-2-.8-2-.9-.4-.5q-.6-1.4.8-2.2 1.2-.5 2.4-.6h.9q.6 0 1.1.3l1.4.4.6.5.6.2h.1l.2.8q0 .7-.3 1-.5.8-1.2 1.2zM35.3 71.4l2.8-.2 4.8-.4 3.2-.4 2-.1 1-.1h.7l3.5-.8 4.2-.6A203 203 0 0 0 70 66.2l1.5-.5 5.8-1.7q3-.7 5.8-1.6l6.4-2.3 3.3-1.4q1.3-.6 2.5-.8l3.3-1.4c1.6-.7 1-.7 2.8-1.2.5-.1 1.6-.9 2.1-1.1l2.1-1 1-.9.5-.5-.4-.2-2.8 1h-.1l-1.7.6-4.7 1.4c-2.7 1-4.5 2-7.2 3l-4.5 1.6c-2.4.8-3 .9-5.4 1.5l-5.8 1.7-5.6 1.3-5.1 1.4-6.2 1.5-5.2 1-3 .7-2.5.1-2.7.6-2.4.4-3.7.9-1.8.5q-.7 0-1.4.4z" class="cls-4"/><path d="M24.4 68.4c1 .2 2.4 0 3.2 0l5.4-.6 3.6-.6L39 67l1.2-.2h.7l4-1 4.7-.6 8.7-1.4 5.6-1 1.7-.4 6.7-1.5 6.7-1.4A146 146 0 0 0 97 54c1.9-.8 1.2-.8 3.2-1.3.6-.1 1.9-1 2.4-1.2l2.5-1.2 1.2-.9q.3-.2.4-.5l-.3-.2-3.3 1.1-2 .7-5.3 1.6c-3 1-5.2 1.9-8.3 2.8L82 56.5l-6 1.2-6.7 1.4-6.5 1.2-6 1.3-7 1.4-5.9 1.2-3.4.7c-.8.2-2.1.1-2.8.2l-3.1.7-2.8.6-6 1.4q-1 0-1.8.4zm-2.6-6.7h3l5-.3 3.5-.2h2.1l1.1-.2h.6l3.9-.5 4.4-.4 13.5-1.6 1.6-.4 6.4-1.2 6.2-1 7-1.5 3.7-1q1.4-.6 2.7-.6l3.7-1c1.9-.4 1.2-.5 3.2-.8.5 0 1.8-.6 2.3-.8l2.4-.7 1.3-.7.5-.4-.3-.2-3.3.5-1.8.3-5.2.9c-3 .6-5 1.3-8 2l-5 1.2-5.9.9c-1.5.2-4.9.9-6.4 1l-6 1-5.6 1-6.7 1-5.6.7-3.2.5h-2.7l-2.9.4-2.6.3-4 .9-1.8.4q-.9 0-1.6.4zm66.7-22.6q.2.3.6.4l1 .6.6.3q.3 0 .4.3l.2.1.1.1.9.2.8.5 1.6.9 1 .5h.4l1.4.4 1.2.6 1.5.5h.8q.5 0 .5.4l.9.2c.4 0 .3-.2.6.2h1.2l.4-.1.2-.2.1-.3-.5-.6-.4-.2q-.4-.5-.9-.8l-1.8-.5-1-.3c-.6-.2-.7-.4-1.2-.7l-1.3-.6-1.2-.6-1.2-.3-1.5-.4-1.1-.4H92l-.4-.5-.7-.1-.5-.2-1 .2h-.5q-.2 0-.4.3zm-23 6.9 1.2.2 3.3.5q.4 0 .8.3h.5l.2.1H73q1 0 1.7.3l3.3.3 2 .2.7-.1 2.6-.1 2.4.2q1.5 0 2.9-.2l1.5-.3 1 .1 1.5-.1c.8-.1.6-.3 1.3-.1l1-.3 1-.2.5-.3.2-.3-.1-.3-1.3-.3h-.8l-2-.4c-1.2 0-2 .2-3.2.3l-2 .2-2.4-.2-2.5-.1-2.4-.2h-8.3l-1-.3h-2.2l-1.6.4-.8.2q-.4 0-.6.2 0 .2.2.2Z" class="cls-4"/><path d="M38.8 56h7.7q1 0 2-.3h2.1l6.8-.6q.4 0 .8-.3l3.2-.5q1.6-.1 3.1-.4l3.6-.7 1.8-.6q.7-.3 1.3-.1l1.9-.5c1-.3.6-.4 1.6-.4l1.2-.5 1.2-.4q.3-.1.6-.5l.2-.3-.2-.3H76l-1 .2h-2.6l-4 1-2.5.6c-1.4.3-1.7.2-3 .3l-3.2.4-3 .4-2.8.5-3.3.5-2.8.4q-.8 0-1.6.3L45 54l-1.5.3-1.3.2-2 .6-.8.3q-.5 0-.8.4zm40.4-14q0 .3.3.2l.5.3.4.1.2.2h.2v.1h.4l.5.1 1.5.4.2-.1.7-.1.6.2q.5 0 .8-.2l.4-.2.3.1h.4q.3-.4.4-.1l.3-.3.2-.1.2-.3v-.6l-.3-.3-.2-.1q-.2-.3-.6-.4l-.9.2-.5.1-.7-.2-.7-.1-.6-.2-.6.2h-1.4l-.3.2-.3-.3h-.3l-.3.1-.5.5-.2.2zm-2.8 27 1-.2 2-.2 1.1-.3h.9l.4-.1h.2l1.3-.6 1.6-.3 4.8-1.4q.3-.1.5-.4l2.1-1 2.2-.8 2.3-1.3 1.1-.9q.4-.4 1-.3l1.1-.8c.6-.4.3-.5 1-.6.2 0 .5-.6.7-.7l.7-.6.3-.5v-.4l-.2-.2-1.2.3-.7.3-1.8.6c-1 .5-1.5 1-2.5 1.6l-1.6 1-2 .6-2.1 1-2.1.7-1.9.8-2.2 1-2 .7-1 .4h-1l-1 .4-.9.4-1.2.8-.6.4q-.4 0-.5.4zm19.4-2.2h.9l.3-.1h.4l.3-.3h.4l.8-.4q.3 0 .5-.2v-.2l.4-.5.6-.3.3-.6v-.5h.3l.2-.5q-.2-.2.1-.2v-.7l-.2-.3-.2-.2-.3-.1h-.4l-.1.1-.6.1-.3.7-.2.4q-.2.2-.5.2l-.4.3-.5.3-.3.4-.3.4-.4.3-.2.3-.3-.2-.2.3-.1.1v.6l-.1.3v.3z" class="cls-4"/><path d="M154 36.2c-1.6-.5-4.5-.8-5.9-1a306 306 0 0 0-17.7-2.3l-4.4-.4h-3.6q-4 0-8 .3l-9.3.3q-4.2 0-8.6.4l-4.3.3-4.3.5q-5.6.9-10.8 2.4l-3.4 1.1c-4 1.2-8.8 3-12.7 4.4l-12.5 4-14 5.3-7.3 3-5.3 2-7.2 3.3c-3.7 1.6-2.5 1.4-6.2 2.8l-2.3.8a8 8 0 0 1-4.9 0l-2.2-1q-1.2-.7-2.2-1.8l-.8-1v.7c0 .1.7 1.8 2.1 2.8a9 9 0 0 0 3.3 1.6l.2.1q2 .5 4.2.3a23 23 0 0 0 5.4-1.7l5-2c5.9-2.5 10-4.4 15.9-6.7l10-3.8c5.2-1.9 6.4-2.2 11.7-4l12.7-4.2q6-2 12.2-3.7 5.6-1.6 11.3-2.6 3.4-.4 7-.6l3.4-.3 3.5-.3 11.7-.6 6.8-.4c1.4 0 4 .3 5.4.4l6 .2 5.5.5 8.3.7 4 .3c1 .1 2.5.3 3.3.2zm117.8 42.2L268 77c-2.2-1-4.2-2.4-6.4-3.4l-1.2-.5-1-.5-1.6-1.6-1.6-2.5-1-1.3-.6-.7a29 29 0 0 0-10.3-6.3q-5.8-1.9-11.7-2.3l-3.7-.3-3.6-.5-2.3-.3-8.9-2c-3-.8-5.4-1.7-8.4-2.7q-4.7-1.6-9.3-3.9l-4.9-2.2q-1.8-.8-3.3-2l-5-2.2-2.2-.8-2.1-.9c-.7-.4-2.7-.7-3.5-.9l-3.5-.6h-2l-.9.2.3.3 2.2.5 2.2.6h.1l2.5.8a439 439 0 0 1 17.1 8.2l6.7 3c3.6 1.6 4.3 2 8 3.2 2 .7 6.8 2 8.8 2.5q4.2 1.2 8.6 2l4.2.3 4 .2q4.6.4 9.2 1.5a26 26 0 0 1 7 3.1c1.4 1 2.3 1.5 3.4 2.8.7.6 1.4 2.1 2 3a12 12 0 0 0 4.3 3.7l.9.4 1.6.7 5.3 2q1.4.6 2.8.8t2.2.1zM241 70.6c-.7-.3-2-.5-2.7-.6l-4.7-1.2-3.1-.8-2-.6-1-.3-.5-.2-3.6-.7-4.1-1-7.6-2.1-4.8-1.3-1.6-.2c-1.8-.4-4.2-.8-6-1.3-2.1-.5-3.7-1-5.8-1.4l-6.7-1.3-3.7-.4q-1.2 0-2.5-.6L177 56c-1.8-.2-1.3 0-3-.4-.6-.2-1.9 0-2.5-.1l-2.3-.2-1.4.1-.6.2.2.4 3.1.7 1.7.3c1.4.3 3.5 1 4.9 1.2l7.7 1.2 4.8.8c2.5.5 3 .8 5.5 1.4l6 1.4 5.6 1.4 5.3 1.1 6.3 1.4 5.2 1.2 3.1.5 2.3.9 2.8.5 2.5.4 3.8.3 1.9.1h1.5zM201.8 79q-.4-.4-.8-.5l-1.4-.8-1-.5-.6-.4-.3-.2-.2-.1-1.2-.4-1.2-.6-2.4-1.2-1.5-.7h-.6l-2-.7-1.8-.8-2.2-.7-1.2-.2-.7-.4-1.2-.3c-.6-.2-.5.1-1-.3h-.9l-.7-.2-.6.1-.2.2v.3l.8.7q.3 0 .5.3l1.5 1 2.5.7 1.6.4c.8.3 1 .5 1.7.9l1.9.8 1.8.8 1.7.5 2 .7 1.8.6 1 .2.7.6.9.2q.4 0 .8.3h2l.6-.1zm28.5-3c-.5-.3-1.6-.5-2-.7l-3.7-1.2-2.4-.8-1.5-.6-.8-.3-.4-.2q-1.5-.2-2.8-.6l-3.1-1-9.7-2.8-1.3-.1-4.7-1-4.6-1.2-5.3-1-2.8-.3q-1 0-2-.5l-2.8-.4c-1.4-.2-1 0-2.4-.4-.4-.2-1.4 0-1.9-.1l-1.8-.2-1 .1-.6.2.2.4 2.3.7 1.4.3c1 .3 2.7 1 3.7 1.1 2.3.5 3.9.6 6.1 1l3.8.7c2 .4 2.3.6 4.3 1.1l4.6 1.1 4.5 1.2 4 .9 5 1.1 4 1c1 .2 1.5.2 2.4.5.5.1 1.3.7 1.8.8l2.2.5 1.9.5 3 .3 1.4.2h1.2zm-40.7-27.5h-3.4l-.7-.1h-.5l-1.2.2h-5.3l-.5.3-1.9.3h-1.9l-2 .5-1.2.4q-.3.2-.8 0l-1 .2c-.6.2-.4.4-1 .2l-.7.4-.8.2-.3.4-.2.3.1.3 1 .1h.6l1.6.2c1 0 1.5-.3 2.4-.5l1.5-.3h1.8l2-.2h1.7l1.7-.4 2-.4 1.6-.2 1-.3.8.2.8-.2q.5 0 .8-.2l1.1-.5.6-.4q.2 0 .4-.3z" class="cls-4"/><path d="m174.1 40.2-.4.1-.8.2-.6.2h-.6l-.5.5-.7.1-1.3.4-.7.3-.2.3-.9.5-1 .3-.9.7-.4.4q-.1.3-.4.1l-.5.4c-.3.2-.1.3-.5.2l-.2.4-.3.3-.1.4v.3l.2.3h1.9l1-.8.7-.4 1-.3 1-.4.9-.3.7-.6 1-.6.7-.5.4-.4.5.1.4-.3.3-.3.3-.7.1-.4q.2 0 0-.4m-8.6-1.9h-.2l-.4.2h-.5v.3h-.3l-.5.2-.2.1v.5h-.4l-.2.4v.4h-.1v.2l-.2.1.1.3v.2l.1.3.2.3.2.2.3.1h.1l.5.1.3-.5v-.3l.5-.1.3-.3q.2 0 .3-.2l.2-.3.1-.4.2-.3v-.3h.3v-.3l-.2-.4-.1-.2-.3-.3zM203 55.5l-.5-.2-1-.1h-.8l-.4-.3h-2.1l-1.6-.3-1-.2-.4.2h-1.3l-1.3-.2-1.4.1-.8.2q-.3 0-.5-.2l-.8.1c-.4 0-.3.3-.7 0l-.5.2h-.5l-.3.4-.2.3v.3s.6.4.7.3l.4.2 1 .5 1.7-.1 1-.1q.7 0 1.3.3h1.3q.7.3 1.3.2l1.2-.1 1.4-.1h1.2l.7-.2.5.3.6-.2h.6l.8-.6.3-.3q.2 0 .3-.3v-.1ZM249.7 68q-.4-.3-1-.4l-1.6-.5-1.1-.3q-.4 0-.7-.3l-.4-.1-.1-.1q-.8 0-1.4-.2l-1.4-.4-2.7-.7-1.8-.5-.6.1q-1.1 0-2.2-.3l-2-.5-2.5-.3h-1.3a1 1 0 0 1-1-.2l-1.2-.1c-.7 0-.5.2-1.1-.1h-1.8l-.5.3-.2.2v.4l1 .4.7.2 1.7.7 2.8.3 1.8.2c.9.1 1 .3 2 .5l2 .5 2.1.4 2 .2 2.2.3 2 .3h1l.8.5h1l1 .2 1.4-.2.7-.2.6-.2zM219 78.5l-1-.5-1.9-.7-1.2-.4-.7-.4-.4-.2-.2-.1-1.4-.3-1.6-.6-3-1.1-1.8-.7h-.7l-2.3-.5-2.3-.9-2.6-.5-1.5-.2q-.5 0-1-.4l-1.3-.2c-.8-.2-.6.1-1.3-.3h-1l-.9-.1-.6.1-.3.2v.4l1.2.6.6.3 1.8.9 3 .6 2 .4 2.1.8 2.3.7 2.2.8 2.1.4 2.5.6 2 .5q.8 0 1.3.2l.9.6 1 .2 1 .2h2.4l.7-.2zm-70.3 24.2c1 .8 2.5 2 3.2 2.8a21 21 0 0 1 5.1 11l.5 3.1q0 .8.3 1.6v.9l1.2 5.5q1 3.3 1.3 6.3v1.6h-.1l-.2.1-.8.1-1.5.2-6 .9-7.6 1-2.4.6-4.6.9-1.2.2h-.4v-.1l-.1-.7c-.4-3.3-.3-5.9-.7-9.2q-.1-2.7-.7-5.3l-1-5q-.2-2.7.3-5.3.4-2 1.5-3.6a18 18 0 0 1 4.3-6q.4-.5 2-1.2l1.5-.7 1.7-.4h1.7l1.7.2 2 .5.8.3-.1-.5a8 8 0 0 0-4.6-2l-.2.1-3 .2a12 12 0 0 0-7 4.2 20 20 0 0 0-3.3 5.5 20 20 0 0 0-1.2 10.3l.8 3.7c.6 3.8.5 4.6.7 8.5l.4 4.8.4 3.4.1.6v.3h1.2l1.6-.3 9-1.4 8.2-1.5 4.9-.8 2.7-.5 1-.2h.1v-.2l.1-.3.1-.5.1-1v-.8c-.1-3-1.3-5.7-1.8-8.3-.5-1.8-.7-2.8-1-4.7l-.5-3.8-1-4.3q-.7-2-1.7-3.7a21 21 0 0 0-6.1-6.5q-1.1-.9-2.1-1.1zm18.3 48.5q-.3-.7-.3-1.5l.1-1.5-.1-1.5-.7-2-.5-1.2-.5-.8-.1-.3-.1-.1h-.2l-.9.1-.6.1-1.1.2h-2.6l-4.7.3-3 .1-1 .3-3.6.5-3.6.1-4 .6-2.2.5-.8.1h-1.1q-1 .5-1.1 1.4v1.4c0 1.1.3.8 0 1.9l.4 1.4.1 1.5.4.7q0 .3.3.3l.3-.1c0-.1.3-1.7.2-1.8v-.1l.1-1 .3-3v-.5l1-.2 1.3-.2 3-.4c1.5-.2 1.8-.1 3.3-.2l3.7-.3 3.6-.2 3.2-.5 3.8-.5 3.2-.3 1-.2h.2l.2-.1v.5l.1.3.8 1.3.5 1.2.3 1 .2 1.1q0 .6.4 1.2.3.8 1 .6zm5 8.3q-.2-1-.6-1.7l-1-3q-.5-1.2-1.8-1.9-.7-.4-1.5-.4H166l-2.4.1h-2.8l-8.4.2q-.6 0-1 .3l-4 .5-4 .2-4.4.7-2.4.6-.7.2q-.6 0-1.2.3h-.2c-.5.5-.6 1.4-.7 1.7l-.1 1.2c-.2 1.2.1.9-.3 2-.1.4 0 1.3 0 1.6v1.6l.3.9.3.4.3-.2.4-2 .3-1.1c.1-.9.6-2.3.8-3.1l.2-1.1v-.2h.1l.7-.2 1.5-.3 3.1-.5 3.7-.3 4-.3q2 0 3.8-.3 1.8-.1 3.5-.4l4.2-.3 3.5-.3 2-.2 1.5.3q.5 0 .9.3l.7 1.1 1.4 2.1.7 1q.3.6.7.8zm6.7 13c0-.7-.3-1.7-.4-2.2l-.7-4-1-3.6q-.2-.6-.9-.8t-1.1-.2h-.5l-3 .2h-3.5l-10.5.4q-.7 0-1.3.3l-5 .6-5 .3-5.5.9-3 .7q-1 .2-2 .1l-1.3.3q-.6 0-1.5.5l-.6.7-.3.9-.1.4q0 .3-.5 1.3c-.2.4-.2 1.5-.3 2l-.2 1.9.1 1.1q0 .3.3.5l.3-.2.7-2.3.4-1.4.8-1.9.5-.9.2-.3h.2l.8-.2 1.4-.3 3.1-.6 4-.6c2-.3 2.5-.2 4.6-.4l5-.4 4.8-.3 4.4-.5 5.2-.5 4.4-.2c1-.1 1.5-.3 2.5-.3q.6 0 .8.2.2 0 .1.2l.6 1.6.5 2 1.2 2.9.6 1.4q.1.8.6 1.1z" class="cls-4"/><path d="m144.3 108.7.7.1a9 9 0 0 1 3.9 1.8l.6.9.3.4.1.3q.6.7.8 1.5.2 1-.2 2-.7 1.6-2.4 2.6a6 6 0 0 1-2.2.6l-.7.3q-1.6.1-3-.4l-1.4-.6-1.2-.8q-.4-.2-.5-.9V115q0-.9.3-1.8 0-.7.7-1l1-1.5c.7-.6.4-.6 1.3-.8l1-.7 1.3-.2.7-.2.4-.2v-.4l-1-.3h-2.2a8 8 0 0 0-3 1.3 8 8 0 0 0-2.5 4.5q-.3 1.5-.1 3.1.2 1.4.8 2t1.5 1.2a11 11 0 0 0 3.6 1.4q1.8.5 3.7.1t3.3-1.5q1.6-1.3 2.5-3.4.6-1.9 0-3.7c-.2-.8-.5-1.1-1-1.8q-.3-.8-.8-1.4l-1.6-1-1.4-.7a9 9 0 0 0-3.2 0h-.3v.1q-.3.4-.2.7t.3.4h.6q.2-.6-.1-.7z" class="cls-4"/><path d="M150.6 113q-.3-.2-.5 0l-.8-.2h-.6l-.4-.1h-.2l-.6.1h-.7l-1.4-.1h-.8l-.2.2-1 .2h-1l-1.1.2-.6.3q-.2.3-.4 0l-.6.2c-.3 0-.2.3-.5 0l-.4.4-.4.1-.1.4-.1.3v.3l.6.2h.3l.9.4q.7-.1 1.3-.4l.8-.2 1 .1h2q.4 0 .8-.3l1-.2 1-.2.5-.2.4.2.5-.2.4-.1.5-.6.3-.3.2-.3z" class="cls-4"/><path d="M146.5 120v-1.8l.2-.3v-.2l-.2-.6v-2.7l-.2-.2-.3-.8v-1l-.4-1-.3-.5q-.2 0 0-.4l-.2-.5c-.1-.3-.3-.1-.2-.4l-.3-.4-.2-.3-.3-.1h-.6l-.2.5v.3q-.3.4-.3.8.1.7.4 1.2l.3.7v1.9l.1.9.3.8.3.9.3.8.2.4-.2.5.2.4.2.3.5.5.3.2.4.2zm7.3 3.3.3-.2h.6v-.3h.2q0-.3.3-.4.2 0 .2-.2h-.1v-.4l.2-.2-.1-.4-.2-.2h.1l-.1-.3s-.3 0 0-.1l-.3-.1-.1-.2h-1.3l-.4.2.1.3.2.2-.3.2-.1.2-.2.1.1.3v.5h-.3l.1.1v.1l.4.4.2.1.2.2zm-26.4-30.6q0-.3.5-.6l1.5-.8h.9l.7.9-.5.4q-.4.5-1.4.8-.7 0-1-.2t-.7-.5M128 80q.6.1.9.4h-.1v.1q.5.3.5.6l-.4.5-.9.4-.7.1c-1.2.1-1-.2-.9-.4.2-.4-.6-.4-.3-.7l.6-.4.8-.4zm1.4 4.2q.1.4.4.7v.3l-.5.4h-.2c-1 .2-2.8.5-2.3-.1.2-.3 1-1.4 2-1.5zm-2.1 4.8c-.2 0 .5-.5.6-.6q.3-.3 1-.6h.6c.5.2.3.5.8.6l-.4.4c-.2.2-1.4.9-2 .6zm-.4-10.7c-.5 0-1.2 0-1.1-.2q.1-.6.5-1.1c0-.2.6-.3.8-.2l.8.5q.5.3-.9 1zM130 95q.4 0 .5.2.3 0 .5.4.3.2-.2.6l-.7.6q-.2.3-.6.4h-.7l-.7-.4a.4.4 0 0 1 0-.6l1.2-1zm2.3 9 .4-.3.5-.8q.2-.3-.3-.4l-.3-.1-1.1.2-1 .9-.2.4 1.1.6h.2zm-3.2-3.5c0-.4.8-1 1.2-1.5l.5-.3h.2q1 .2 1 .7c.2.2-1.4 1.6-1.6 1.5h-.6zm3.3-9.8q-.2-.2.4-.6l1.4-.7c.2-.2.8-.2 1 0l.6.5-.4.4q-.3.4-1.3.8h-1zm1-10.2.9.3h-.1l-.1.1h.1q.5.3.3.5l-.4.3q-.1.2-.9.3h-.7c-1.2 0-1-.1-.8-.4.2-.2-.6-.3-.2-.5l.5-.3 1-.2zm1 3.3q0 .3.3.5v.3l-.5.3h-.2c-1 .1-2.8.4-2.3-.1.2-.2 1-1.1 2-1.2q.6 0 .7.2m-2.4 4 .8-.6q.2-.3 1-.5h.5c.5 0 .3.3.8.3l-.4.4c-.2.1-1.4.8-2 .6zm.7-8.8c-.5 0-1.2-.3-1-.4l.7-.7h.9l.6.5q.3.4-1 .6zm2.5 13.2.5.2.4.3q.3.2-.2.5l-.7.6-.7.3h-.6l-.7-.3.1-.5 1.2-.8zm1.2 7.4q.3 0 .4-.2l.7-.6q.2-.2-.3-.3l-.2-.2h-1l-1.1.8-.3.3 1 .5h.1q.4 0 .8-.3m-2.6-2.9c0-.3 1-.8 1.4-1.2l.5-.2h.2q.9.2 1 .6s-1.6 1.2-1.8 1.2h-.6zm4.9-6.5q-.2-.2.4-.5l1.4-.9q.4-.2.9 0 .5 0 .7.4l-.5.3q-.2.4-1.2.9-.8.2-1 0zm-.1-9.2.9.1-.1.1v.1q.5 0 .5.3l-.4.4-.8.5-.7.2c-1.2.2-1 0-.9-.2.2-.3-.6-.1-.3-.4l.5-.4.8-.5zm1.5 2.8q.1.3.4.5v.2l-.4.3-.2.1c-1 .3-2.7.8-2.3.2.2-.1.9-1 2-1.3zm-1.8 3.9c-.2 0 .4-.5.6-.6q.3-.4 1-.6l.5-.1c.4 0 .3.2.7.2l-.3.4c-.2.2-1.3.9-2 .8zm-.8-7.7h-1.1l.5-.9c0-.1.6-.3.8-.2l.8.2q.5.3-.9.8zm4 11.3.5.1q.3 0 .4.3.3.1-.1.5l-.8.5-.7.3h-.6l-.6-.2q-.2 0 0-.4l1.2-.8zm1.2 6.6.4-.2.7-.5q.2-.3-.3-.4h-1.3l-1.1.7-.3.3 1 .4h.1q.4 0 .8-.3m-2.5-2.5c0-.3.9-.8 1.3-1.1l.6-.2h.1q1 .1 1 .4c.1.1-1.6 1.2-1.8 1.2h-.6zm5.5-4q-.1-.1.4-.5l1.4-.9q.4-.2.9-.1l.7.4q0 .2-.4.5-.4.4-1.2.8-.9.2-1 0zm-.1-9.4.9.2q-.2 0-.1.1.5 0 .5.3-.1.3-.4.5l-.8.4-.7.2c-1.2.2-1 0-.9-.2.2-.3-.6-.2-.3-.5l.5-.3.9-.5zm1.5 3 .4.4v.2l-.5.3-.1.1c-1 .3-2.8.7-2.3.2.2-.2.9-1.1 1.9-1.3zm-1.8 3.8c-.2 0 .4-.5.6-.6l1-.6.5-.1c.4 0 .3.3.7.3l-.3.3c-.2.2-1.3 1-2 .9zm-.7-7.9h-1.2l.6-1c.1 0 .7-.2.8-.1q.4 0 .8.3.4.1-.9.7zm4 11.6.5.2.4.2q.3.2-.1.5l-.7.6-.7.3h-.6q-.5 0-.7-.2v-.4l1.2-.8zm1.3 6.8.5-.2.7-.6q0-.3-.3-.3l-.2-.1h-1.2l-1 .8q-.4.2-.3.3l.9.4h.2zm-2.5-2.6c0-.3.8-.9 1.3-1.2l.5-.2h.2q.9.1 1 .4c.1.1-1.6 1.3-1.8 1.2h-.6zm6-.8q-.2-.3.4-.7l1.3-.9q.4-.2.9 0 .5.1.8.5l-.5.5q-.2.4-1.2 1-.7.1-1-.1zm-.5-11.2 1 .2-.2.1v.1q.5.2.5.4-.1.3-.4.5l-.8.4-.8.2c-1.1.1-1-.1-.8-.4s-.7-.3-.3-.6l.5-.4.9-.4zm1.5 3.5.4.6v.2l-.4.4-.2.1c-1 .2-2.7.7-2.3.1.2-.2.9-1.3 2-1.5zm-1.6 4.6c-.2 0 .4-.6.5-.7l1-.7h.6c.4 0 .3.2.7.3l-.3.4c-.2.2-1.2 1-1.9.9zm-.9-9.6q-1 0-1-.3l.6-1h.9l.7.5q.3.4-1 .7zm4.4 14.2.4.2.5.4q.3.3-.2.6l-.7.6-.7.3-.6-.1-.7-.3v-.5l1.2-.8zm1.3 8.2.4-.3.6-.7q.2-.2-.3-.3l-.2-.1H157l-1 1q-.2 0-.2.3l1 .5h.2zm-2.7-3.3c0-.3 1-.9 1.4-1.2l.6-.2h.2c.6 0 .8.5 1 .7 0 .1-1.7 1.2-2 1.2h-.5zm-33-15.7q-.2-.2.5-.5l1.4-.8h.9l.7.5-.5.4q-.4.4-1.3.8h-1zm.3-9.8h1l-.1.1-.1.1h.1q.5.1.4.4l-.3.4q-.2.3-.8.5l-.8.2c-1.1.2-1 0-.8-.2s-.7-.2-.3-.5l.5-.4.8-.5zm1.5 3.1q.1.3.4.5v.2l-.4.4h-.2c-1 .2-2.8.6-2.3 0 .2-.1 1-1 2-1.2zm-2 3.9c-.2 0 .5-.5.6-.6l1-.5h.6c.5 0 .3.3.7.3l-.3.4c-.3.1-1.4.8-2 .6zm-.6-8.2c-.5.2-1.2.2-1.2 0l.5-.9.8-.3.8.2q.4.2-.8 1zm3.6 12.4.5.1.4.3q.3.3-.2.5l-.7.6-.7.4h-.6q-.4 0-.6-.3-.3 0 0-.4l1.2-.9zm1 7.2h.5l.8-.4q.2-.3-.2-.6l-.2-.1-1.1-.2-1.2.5q-.4 0-.3.2l.7.6zm-2.1-2.8c0-.2.8-.8 1.2-1.2l.5-.3h.2q1 .1 1 .5c.2.2-1.5 1.3-1.7 1.3h-.6zm1.4 20.9q0-.3.5-.6l1.5-.7h1l.6.8-.6.4q-.3.4-1.3.7-.9.1-1-.2zm1.4-11.6q.6.1.8.4l-.1.1h.1q.4.3.4.5-.1.3-.4.5l-1 .3h-.7c-1.1 0-1-.2-.8-.4s-.6-.3-.2-.6l.5-.4 1-.3zm1 3.9.4.6v.3l-.6.3h-.1c-1.1.1-2.9.3-2.3-.2.2-.2 1-1.2 2-1.2q.6 0 .6.2m-2.4 4.4c-.1-.1.6-.6.7-.6q.3-.4 1-.5h.6c.5.1.3.4.7.5l-.4.4c-.2.1-1.4.7-2 .5zm.5-10q-1 0-1.2-.2l.7-1c.1-.1.7-.2.9 0l.7.4q.4.5-1 .8zm2.2 15.4.4.2.4.5q.3.3-.3.5l-.8.5-.7.3-.6-.2-.6-.4.1-.5 1.3-.7zm-.7 8.7q.3.4.6.2l.4-.2.2-.3.5-.2q.2-.2-.2-.6l-.1-.2-1.1-.3-1.3.4q-.3 0-.3.2l.3.4 1 .2h-.2q0-.1 0 0l.1.1h.1zm-1.3-3.9v-.2c0-.3 1-.7 1.5-1l.6-.1h.1q.9.4 1 .9l-2 1-.7-.3q-.3 0-.5-.3m.5 17.1q0-.3.6-.4l1.5-.4c.2 0 .8 0 1 .2l.5.6-.6.2q-.4.3-1.4.4-.9 0-1-.2zm2.9-8.3q.7.2.9.4h-.2v.2q.4 0 .3.4l-.4.2-1 .1h-.7c-1.2-.3-1-.4-.7-.6.2-.1-.6-.3-.1-.4l.6-.2h1.4Zm.5 3 .2.5v.1l-.6.2h-.2c-1 0-2.8-.2-2.2-.5.2-.1 1.2-.7 2.2-.6q.5 0 .6.3m-3 2.8.8-.4 1-.2.6.1c.4.2.3.3.6.5l-.4.2c-.3 0-1.5.4-2 .1q-.4 0-.6-.3m2-7.1c-.5 0-1.2-.3-1-.4l.8-.6.8.1.6.5q.3.3-1 .4zm0 11.3.4.3q.3 0 .4.3t-.3.4-.8.3l-.8.1-.6-.1-.5-.4q-.1-.2.1-.3l1.4-.5zm-.6 6.3h.5l.8-.4q.2-.2-.2-.4l-.2-.1-1.1-.2-1.2.4q-.4 0-.3.2l.7.5.2.1zm-1.7-2.9c0-.3 1-.6 1.5-.8h.8q.8.3.8.7l-2 .6-.6-.2q-.3 0-.5-.3m35.6-19.9q-.2-.3.3-.7l1.3-1c.2-.1.8-.2 1 0l.7.6c.1.1-.3.4-.4.5q-.2.6-1.2 1-.8.2-1 0zm-1.6-12.1c.2-.2.8 0 1 0h-.1v.2q.6 0 .6.4l-.2.6-.7.6-.7.3c-1.1.4-1 0-1-.2.1-.3-.7-.1-.4-.5q0-.3.4-.5l.7-.7zm2.4 3.6q.1.4.5.7v.3l-.4.4-.2.1c-1 .3-2.7.8-2.3.1.2-.2.8-1.4 1.8-1.6zm-1.5 5c-.2 0 .4-.6.5-.7l1-.7h.6c.4 0 .3.3.7.4l-.3.4c-.2.2-1.2 1-1.9.9zm-2.3-10c-.6.3-1.3.3-1.3.1l.3-1.1c0-.2.6-.4.8-.4l.8.2q.5.3-.6 1.1zm6 15.2.4.2.5.4q.3.3-.1.7l-.7.6-.7.4h-.6l-.7-.4v-.5l1.1-1zm1.8 8.8.2-.4.5-.7q.2-.2-.3-.2h-1.4l-1 1v.5q.5.4 1.2.5h.3zm-2.9-3.5-.1-.2c0-.3 1-.8 1.4-1.2l.5-.2h.2q1 .3 1 .8c.1.2-1.7 1.3-1.9 1.3l-.6-.2zm-94.3 41.1q-.2-.3.4-.6l1.4-1h.9l.8.7-.5.5-1.2 1q-.9.1-1-.2-.5-.1-.8-.4m-1.3-12.2c.3-.2.9 0 1 0v.1q-.2 0-.1.2h.1q.5 0 .5.4l-.2.5q-.2.3-.8.6l-.7.3c-1.1.3-1 0-1-.3.2-.3-.6-.1-.3-.5q0-.3.4-.5l.7-.6zm2.2 3.8.5.6v.2l-.4.5-.1.1c-1 .3-2.8.8-2.4.1.2-.2.8-1.4 1.8-1.6zm-1.5 5c-.1-.1.5-.6.6-.8l1-.7h.6c.4 0 .3.3.7.4l-.3.4c-.2.3-1.2 1-1.9 1zM66.9 157c-.5.2-1.2.2-1.2 0l.3-1.1q.2-.4.8-.4l.8.2q.5.4-.6 1.2zm5.6 15.6.5.2.4.5q.3.2-.2.6l-.7.6-.8.3-.6-.1-.6-.4v-.5l1.3-1zm-.3 9.4.5-.1.9-.4q.2-.2-.1-.6l-.2-.2-1-.4q-.8 0-1.3.3l-.4.2.6 1h.1zm-1.4-4.3c0-.3 1-.8 1.5-1q.2-.3.6-.3h.1q.9.5 1 1c0 .3-1.9 1.1-2 1l-.7-.2zm4-9.4q-.2-.3.5-.6l1.4-.7h1l.6.8-.5.4q-.3.4-1.3.8-.9.1-1-.2zm.4-11.8q.6 0 1 .2H76l-.1.2h.1q.5.2.5.4l-.3.6-.8.5-.8.1c-1.1.3-1 0-.9-.3.2-.3-.6-.2-.3-.6l.5-.4.8-.5zm1.8 3.8q0 .4.3.7v.3l-.4.4h-.2c-1 .2-2.8.5-2.3-.1.2-.2 1-1.3 2-1.4zm-2.3 4.6.7-.6 1.1-.5h.6c.4.1.2.4.7.6l-.5.3c-.2.2-1.4.8-2 .5zM74 155c-.5.2-1.2.1-1.2 0l.5-1.1c0-.2.6-.3.8-.3l.8.4q.5.3-.8 1zm3.6 15.3.5.2.4.4q.3.1-.1.6l-.7.6-.7.4h-.6l-.7-.4v-.5l1.2-1zm1 8.8h.4l.9-.5q.2-.4-.3-.6l-.1-.2-1.2-.3-1.5.8.7.8zm-2-3.7c0-.4.9-1 1.3-1.4l.6-.2h.2q1 .2 1 .8c.1.1-1.6 1.3-1.8 1.2H77zM85 163q.3.4-.4.7l-1.4.8h-1l-.6-.7q.1-.3.5-.4.3-.4 1.3-.9.7-.1 1 .2.4 0 .7.4m-1.3 11.3-.9-.3.2-.2H83q-.4-.2-.4-.5l.4-.4 1-.3h.7c1.1 0 1 .2.8.4s.6.3.2.6l-.6.3-.9.4zm-1-3.8-.3-.6v-.2l.5-.4h.1c1.1 0 2.9-.2 2.3.3-.1.2-1 1.1-2 1.1q-.6 0-.6-.2m2.4-4.2c.1.1-.5.5-.7.6l-1 .5h-.6c-.5-.2-.3-.4-.7-.5l.4-.4c.2-.1 1.4-.7 2-.5zm-.6 9.6c.5 0 1.2.2 1.1.4l-.7.9h-.9l-.6-.5q-.4-.3 1-.7zm-2.4-14.7-.4-.1-.5-.3q-.3-.2.1-.6l.7-.7.6-.4h.6q.5 0 .7.3.3.1 0 .5l-1 1zm-1.9-8.1-.5.1-.7.5q-.2.4.2.6l.2.2h1.2l1.1-.6q.4-.1.3-.3l-.8-.6zm2.5 3.2c0 .3-.8 1-1.1 1.4l-.5.4H81q-1 0-1.1-.6c-.2 0 1.4-1.5 1.6-1.5h.6zm3.7 9.5q-.2-.3.4-.7l1.3-1h1l.7.6-.4.5q-.3.4-1.2 1h-1zm-.7-11.8 1 .3h-.1l-.1.2h.1q.5 0 .5.4-.1.3-.4.5l-.8.5-.7.2c-1.2.2-1-.1-1-.4.2-.3-.6-.2-.2-.6l.5-.4.8-.5zm1.7 3.8q.1.3.4.5v.3l-.4.4-.2.1c-1 .2-2.7.7-2.3 0 .2-.1.9-1.3 1.9-1.5q.5 0 .6.2m-1.6 4.7c-.2 0 .4-.6.6-.7q.2-.4 1-.7h.5c.4 0 .3.2.8.3l-.4.4c-.2.2-1.2 1-1.9.9zm-1.2-9.9c-.5 0-1.2 0-1.2-.2l.6-1c0-.2.6-.3.8-.2l.8.4q.5.3-.9 1zm4.8 14.8.5.1.5.4q.3.2-.2.6l-.6.7-.7.4-.7-.1-.6-.3q-.2-.2 0-.5l1.1-1zm3 7.8.2-.4.3-.9q0-.3-.5-.1h-.2l-1 .4-.7 1.2v.5H92zm-3.8-2.6c-.2-.4.7-1.1 1.1-1.6l.5-.2h.2q1 .1 1 .5c.2 0-1.3 1.5-1.5 1.5h-.6q-.4 0-.7-.2m125.7-10.1q0-.3.3-.1l.9.1.3.4v.5h-.4l-.7-.1q-.4-.3-.3-.4zm4.3-4.8q.3.2.3.4h-.1v.4l-.3.1h-.5l-.3-.3q-.6-.4-.2-.4c.2-.1-.1-.4.1-.4h.3l.5.1zm-.8 2.1v.4l-.2.1h-.3c-.5-.3-1.3-.8-.9-.8.2 0 .8-.3 1.2 0zm-2.4 1.2h1l.3.3v.4h-.2q-.5.1-1-.4zm3.4-4.3-.4-.5.6-.2.4.2v.4q.1.3-.5.1zm-4.3 7.5v.6q0 .2-.3.2h-.4l-.4-.2-.2-.3v-.4l.2-.1h.7zm-3.5 3.5v.2l.7.2q.3 0 .3-.4v-.1q0-.2-.3-.5l-.6-.2h-.1l.1.2zm1-2.1h1l.2.2q.3.4 0 .7l-1-.3-.1-.3zm6.4-2.6q0-.3.3-.3h.9l.3.3.2.5h-.4q-.2.2-.7.1-.5 0-.4-.3zm3.7-5.1.2.4v.3h-.8l-.3-.2q-.6-.5-.2-.5c.2 0-.1-.3.1-.3l.8.1zm-.7 2v.3l-.1.1h-.4c-.5-.2-1.3-.6-1-.7.2 0 .9-.3 1.3 0zm-2.2 1.4.4-.1h.6l.2.1.2.4-.2.1c-.2 0-.9 0-1-.2zm3.2-4.4-.3-.5.6-.1.3.3v.4q0 .3-.6 0m-3.4 7.5.2.3v.3l-.3.2h-.8l-.2-.3-.2-.3.2-.2zm-2.4 4.1h.7q.2 0 .1-.3l-.4-.5-.7-.1h-.2v.6h.1zm.3-2.3q.3-.2 1-.1h.3v.1q.3.4.2.7l-1.2-.1-.2-.2zm8.8-5.1-.4.1h-.8l-.4-.2-.1-.4h.3q.2-.2.7-.1.5 0 .4.3zm-2.7 4.6-.3-.3v-.4h1c.6.3.4.3.3.4s.2.3 0 .3zm.2-1.8v-.4l.3-.1c.6.2 1.4.4 1 .6 0 0-.6.3-1 0zm1.9-1.4h-.4q-.3.2-.6 0h-.3l-.2-.4h.3s.7-.1 1 .1zm-2 4.1.5.3q-.2 0-.5.3l-.4-.2-.2-.3q-.1-.2.5-.2zm1.8-6.9-.2-.2v-.3l.1-.2h.9l.2.2.2.3-.1.2zm1.6-3.6h-.7v.3l.5.4h.9l-.3-.6zm.2 2q-.3.2-1 .2l-.2-.1h-.1q-.4-.4-.3-.6h1.1l.3.2zm.8 6.8q0-.3.3-.3l.8-.1q.3 0 .4.2l.2.5-.3.1-.8.2q-.4 0-.4-.3zm2.6-6.2.4.3h-.2l.1.1q.2.2.1.3l-.2.2h-.9q-.6-.3-.3-.4c.1-.1-.3-.2 0-.3l.3-.2zm-.1 2.3v.6l-.3.1h-.1c-.5-.1-1.4-.3-1-.6.1 0 .7-.4 1.2-.3zm-1.9 2 .4-.2h.9q0 .3.2.4l-.3.2c-.1 0-.8.1-1-.1zm1.8-5.4q-.5 0-.6-.3l.4-.4h.4q.3.1.3.4.3.2-.5.3m-1.6 8.8.2.2.1.4-.2.2-.5.2h-.4l-.2-.2-.2-.3v-.2l.8-.3zm-.9 4.9.3-.1.4-.3-.1-.2-.1-.2-.6-.1-.6.2-.1.2q0 .3.3.5zm-.7-2.4c0-.3.6-.4.9-.5h.3q.4.3.4.6l-1.1.4-.3-.2zm7.2-6.2q0 .2-.3.2h-1.2l-.2-.5.3-.1.7-.1q.5 0 .4.2zm-2 5-.5-.3h.1q-.2-.1-.1-.3l.2-.2h.8q.7.2.4.3c-.1.1.3.3 0 .3l-.3.1zm-.1-1.9-.1-.4.3-.2c.6.1 1.5.3 1.2.5-.1 0-.7.4-1.2.2zm1.7-1.6-.4.1-.6.1h-.3c-.2-.2 0-.3-.3-.4l.3-.1c.1 0 .8-.2 1 0zm-1.4 4.3q.5 0 .5.3l-.4.3h-.4l-.3-.3q-.3-.3.5-.3Zm.8-7.1-.1-.2-.1-.3.2-.2h.8l.3.1.2.3-.1.2-.7.1zm1.5-3.8h-.7v.4l.6.3h.8l-.2-.5zm.3 2q-.3.2-1 .3h-.2l-.1-.1q-.4-.3-.3-.6h1.1l.3.2zm.6 6.9q0-.2.3-.3l.8-.3.5.1.2.5-.3.2q-.2.2-.7.3t-.5-.2zm2.2-6.7q.4 0 .4.3h-.1v.1q.2.1.1.3l-.3.2h-.8c-.6-.2-.4-.3-.3-.4s-.2-.3 0-.4l.3-.1zm-.1 2.4v.5l-.3.2c-.6-.1-1.5-.3-1.1-.5.1-.1.7-.6 1.2-.4zm-1.7 2.2.4-.2.5-.2h.3l.3.4-.3.2s-.7.3-1 .1zm1.7-5.8-.4-.3.5-.5.4.2.2.4q0 .3-.6.2Zm-.9 9.3.2.2.1.3q.1.3-.1.4l-.4.2-.4.1-.3-.1-.3-.3.1-.3.7-.4zm-.2 5.3.2-.1.4-.3-.2-.3v-.1l-.6-.1-.6.3-.2.2.4.4zm-.9-2.4q.2-.4.7-.7h.4q.5.2.5.6l-1 .5-.4-.2zm3.6-1.9q0-.2.3-.4l.7-.5h.4l.4.5-.2.2q-.2.3-.7.5h-.4zm.8-7.4.4.3v.1q.2.3.1.4l-.2.2-.5.2h-.3q-.7-.2-.4-.5c.1-.1-.3-.2 0-.4l.2-.1.5-.2zm.3 2.5.2.4v.2l-.3.2c-.6 0-1.5 0-1.2-.3 0-.1.5-.7 1-.6zm-1.2 2.7.3-.4.6-.3h.2l.4.4-.2.2c-.1 0-.7.5-1 .3zm.7-6.3q-.6-.2-.5-.3l.5-.5h.4l.3.5q0 .3-.6.3zm1 9.7.2.1.2.3q.2 0 0 .3l-.3.4-.4.2h-.3l-.4-.3v-.3l.6-.5zm1.6 5.1.2-.2.2-.4q0-.2-.3-.2v-.1l-.7.1-.3.6-.1.2.6.3h.1zm-1.9-1.9q.1-.5.5-1h.3q.5 0 .6.3l-.7.9h-.3z" class="cls-4"/></g></mask></defs><g id="Layer_1_copy" style="mask:url(#mask)"><path d="M118.6 39a148 148 0 0 0-47.2 9.3c-15.2 5.1-30.3 11-46 14.6q-6.2 1.7-12.6 1.4c-4.2-.4-8.5-2-11.3-5l-1-1.4q-1-2.6.3-5A13 13 0 0 1 4.5 49c9.9-7.3 22.2-10.4 33.6-15 21.8-8.5 41.1-23.3 63.7-30 15-4.4 31.1-5 46.7-2.8a63 63 0 0 1 25 8.4c23.2 13.9 46.2 28.6 72 36.3 9.2 2.7 18.7 4.6 27 9.2 1.6.9 3.2 2.1 3.3 3.9q0 1-.5 1.7a12 12 0 0 1-6.3 5.9 28 28 0 0 1-8.7 1.9c-24.6 2.3-48.8-6.2-72-14.6S140.7 37 116 39.2" class="cls-3"/><path d="M89 36.6q-7.4 1-14.6 2.3c-5 .9-9.8 4.3-14.5 6.3q-8.4 3.3-17.2 5.6c-4.7 1.3-9 3.3-13.8 4.5A31 31 0 0 0 14 61.8q-1.1 1-1 2.3c.9 4 5.5 5.7 9.5 6.5q7.6 1.5 15.5 2 15.3 1.1 30.7 0c8.9-.7 17.8-2 26.7-2.8q19.5-1.5 38.6 2.3c8 1.5 15.7 3.7 23.6 5.5A200 200 0 0 0 208 82c12.3-.4 24.7-2 36.2-6.3 4-1.5 8-3.3 11-6q1-.7 1.4-1.7c.7-2-1.6-3.8-3.5-4.6-9.3-4.2-19.5-5.5-29.4-8-11.6-3-22.7-7.8-34-11.6a191 191 0 0 0-50.7-8.3c-16.7-1-33.4-1-50 1" class="cls-3"/><path d="M125.9 133.4q0 7.9-.4 15.8l-.2 4.7a65 65 0 0 1-1.7 15l-2 6-7 17.8c-.5 1.4-1 3-.2 4.2 1.1 1.7 3.6 1.4 5.6.8a828 828 0 0 0 61.5-19c1.5-.5 2.3-2.3 2.3-3.9s-.6-3.1-1.2-4.6q-3.8-9.9-5.9-20.2-.3-2.6-1.5-4.8-4-6.9-6.8-14.4l-3-8.7c-2.7-8.6-5.5-17.2-7.2-26q-3-16.5-9.4-32-.9-2.3-2.4-4.4c-2.8-3.2-7.5-3.7-11.8-3.5q-7.8.3-15.3 2.5c-2.7.8-4 1.8-3.4 4.4l2.2 9.1q2.1 10.2 3.9 20.5a255 255 0 0 1 3.9 40.7" class="cls-3"/><path d="M90.7 81.5c1.1 1 2.2 1 3.2.9l5.3-4.7a55 55 0 0 1 18.6-7.5q9 2.4 17.4 5.4a49 49 0 0 0 18 2.5 36 36 0 0 1 16.3-1.4c3.8 1.6 7.8 1.9 8.9 2 1-1 1-2.2 1.2-3.3L176 69q-6.4-4.6-12-10a17 17 0 0 1-3-11.7c.6-2 0-3.9-.8-6.9-3.4-1.3-6.4-2.2-21-6.4-15.4-1.6-30.3 1-30.9 1.1q-1 .3-1.6 1v.9a15 15 0 0 1 2.1 9 45 45 0 0 1-13.6 29.6c-1.5 1.5-3.3 3-4.1 5zm-28.5 70.2c2 5.6 4.1 11.3 5.2 17.2s1.2 12.1-.4 18c-1 3.1-2.4 6.2-3.2 9.4l-.2 1.2c0 1 .9 1.8 1.8 2.2s2 .3 3 .3a74 74 0 0 0 32.1-12c1.1-1 1.7-2.7 1.3-4.2-1.5-4.5-5.8-7.5-8.6-11.4-4.7-6.5-5-15.1-7.3-22.8-.6-2-1.5-4-3.3-4.8-1.4-.6-3-.3-4.4 0-5.8 1-12 2.2-16 6.8" class="cls-3"/><path d="M56.3 134q1.3 2.6 2 5.4c.8 4.3-.8 8.6-2.5 12.7l-1.8 4.4c-.5 1.4-1 3.3.2 4.1q1.2.6 2.6.2c5.6-1.8 8.7-8.8 14.5-9.7 2-.4 4 .1 6-.2 2.7-.4 5-2 7.7-2.5 2.4-.4 5 .2 7-1.2.7-.3.3-1.2-.2-1.7-1.3-1.5-3-2.7-4-4.3-1.1-1.9-1.4-4-2-6.2-.6-2-1.7-4.2-3.7-5a9 9 0 0 0-4.8-.2L57.7 133c-.7.1-1.6.3-1.4 1.2" class="cls-3"/><path d="M54.3 100.6a57 57 0 0 0-12.4 9q-3.5 3-6.2 6.7-3.4 5.3-5.3 11.3-2.4 6.6-2.3 13.6-.1 2 1 3.6 1.3 1 3.4 1.2 6.3.7 12.7.3 25-1.4 48.8-9.1c3.9-1.3 8.2-3.2 9.7-7 1.5-4.3-1.2-8.9-4.1-12.3a62 62 0 0 0-20.3-15.5 93 93 0 0 0-11-4.5c-4.3-1.4-10.1.8-14 2.7m167.5 45q-2.7 5.5-5.8 10.9c-2 3.3-4.2 6.7-7 9.3-2.7 2.3-5.9 4.1-8.1 6.9-1 1.1-.6 3 .4 4q1.6 1.6 3.8 2.2c5.6 1.7 11.5 2.1 17.3 2.6l14 1c2.4.2 4.8-1.4 5.4-3.7.8-2.4-.4-5-1-7.5q-1.3-6.4.3-12.8c.7-3.2 1.5-7-1-9q-1.5-1-3.3-1.2l-11.4-2.2q-1.9-.5-3.5-.5Z" class="cls-3"/><path d="M226.6 135.2c-3 7-11 9.7-17 14.3-.8.7-1.7 1.7-1.5 2.8.3 1.4 2 1.8 3.5 1.8l22 1c1.9 0 4 .1 5.3 1.4q.7.8 1.6 1.2 4.4 1.5 9 .5a12 12 0 0 1-2.3-8.9c.2-1.8.9-3.5 1.2-5.3.3-1.9 0-3.9-1.1-5.2-1.4-1.6-3.7-1.9-5.7-2z" class="cls-3"/><path d="M258 100.6a22 22 0 0 0-11.5-4q-6-.5-12 .1a56 56 0 0 0-19.4 4.4 49 49 0 0 0-9 5.9c-6 4.8-11.7 10.7-13.2 18.2a12 12 0 0 0 .8 7.8 9 9 0 0 0 3.1 3.3q2.1 1.4 4.7 2c18.6 5.9 38.2 7.5 57.7 8.3 5.7.3 11.7.4 17.1-1.5q3.2-1 5.6-3.3c2.7-3.1 3-7.8 1.7-11.8s-4-7.2-6.7-10.3c-3.1-3.5-6.3-7.3-9.9-10.3-3.2-2.7-5.7-6.3-9-8.8m-132.7 56.9c0 5.7-1.6 11.7-5.9 15.3a17 17 0 0 1-11.6 3.6c-4.2-.1-8.2-1.4-12-3q-2-1-4.2-1.6c-6.1-1.6-12.6 1.9-17.1 6.3a84 84 0 0 0-14.8 22.3c-.4 2.3 2.1 4.2 4.5 4 2.3 0 4.3-1.4 6.2-2.6a62 62 0 0 1 13.8-6.4c1.4-.5 3-1 4.3-.4 1.5.4 2.6 2.1 1.9 3.5-.7 1.2.3 3 1.7 3q1.2 0 2.2-.7c3.7-2.1 7.5-4.9 11.8-5q1.6 0 2.5 1l.5 1.5c1 4.4 6.8 5.8 11 4.4s7.7-4.7 11.5-7a27 27 0 0 1 24.1-1.7q2.7 1.4 5.6 2c2.9.7 4.2 0 5.3-1.6l1.3-2.6c1.2-2.1 3.8-3.2 6.2-3.4s5 .5 7.3 1q16.3 3.9 33 4c1.5 0 3.3-.3 3.7-1.7.6-1.7-1.7-3.2-1.5-5q.5-1.8 2.5-2.4c3.3-1.2 7-.1 10.5 1l18.7 5.4c1.7.5 4 .7 4.6-.9 1-2.3-3.2-4.1-3-6.7.2-1.6 2.1-2.4 3.7-2.4s3.2.5 4.8 0l1-.5c.5-.6.2-1.8-.4-2.3s-1.6-.8-2.5-1q-5.4-1-10.7-2.7a8 8 0 0 1-3.6-2c-1.3-1.4-1.4-3.4-2-5.2-1-3-3.4-5.6-6.4-6.8l-7.5-.7c.6 0-.3-1.1-.9-1q-2.6.2-5 .6a22 22 0 0 0-4.7 1c-3 1-5.5 3.4-8.1 5.3s-6 3.5-9 2.7a13 13 0 0 1-6.2-4.7l-12.1-13.7q-4.2-4.7-8.1-9.7-1.4-2-3.3-3.4-1.7-1.2-3.8-1.7a47 47 0 0 0-22 1.5q-4.6.9-8.5 2.9a10 10 0 0 0-5 7z" class="cls-3"/></g></svg>