<?xml version="1.0" encoding="UTF-8"?><svg id="Art" xmlns="http://www.w3.org/2000/svg" viewBox="165.86 511.50 891.56 469.83"><defs><style>.cls-1{fill:#5089c8;}.cls-2{fill:#20435d;}.cls-3{fill:#e7bc20;}.cls-4,.cls-5,.cls-6{font-family:LondrinaSolid-Black, 'Londrina Solid';font-size:38.33px;font-weight:800;}.cls-4,.cls-7{fill:#fdf5ad;}.cls-8{fill:none;stroke:#20435d;stroke-dasharray:20;stroke-miterlimit:10;stroke-width:8px;}.cls-9{letter-spacing:0em;}.cls-10,.cls-6{fill:#d0edf7;}.cls-11{fill:#f26737;}.cls-12{font-family:LondrinaSolid-Regular, 'Londrina Solid';font-size:33px;}.cls-13{letter-spacing:.07em;}.cls-14{letter-spacing:.07em;}.cls-15{letter-spacing:.06em;}.cls-16{letter-spacing:.04em;}.cls-17{letter-spacing:.05em;}.cls-18{letter-spacing:.05em;}.cls-19{letter-spacing:.05em;}.cls-20{letter-spacing:.05em;}.cls-21{letter-spacing:.05em;}.cls-22{letter-spacing:.05em;}.cls-23{letter-spacing:.04em;}.cls-24{letter-spacing:.04em;}.cls-25{letter-spacing:.04em;}.cls-26{letter-spacing:.05em;}.cls-27{letter-spacing:.05em;}.cls-28{letter-spacing:.05em;}.cls-29{letter-spacing:.05em;}.cls-30{letter-spacing:.05em;}.cls-31{letter-spacing:.04em;}.cls-32{letter-spacing:.04em;}.cls-33{letter-spacing:.04em;}.cls-34{letter-spacing:.04em;}.cls-35{letter-spacing:.03em;}.cls-36{letter-spacing:.01em;}</style></defs><path class="cls-8" d="M235.98,560.34c156.03,0,229.48-12.87,311.66-12.87s286.03-1.11,286.03-1.11"/><g id="8" class="block"><path class="cls-7" d="M669.29,556.84c-1.16,0-2.33,0-3.49,0-13.69.03-27.45.05-41.03.09l-1.33,118h46.64l-.79-118.1Z"/></g><g id="22" class="block"><polygon class="cls-7" points="710.66 688.84 659.17 688.84 658.78 810.71 710.66 810.44 710.66 688.84"/></g><g id="9" class="block"><path class="cls-7" d="M710.6,674.94l-.79-118.19c-8.78.02-17.67.04-26.62.06l.79,118.13h26.62Z"/></g><g id="29" class="block"><polygon class="cls-7" points="645.27 688.84 623.28 688.84 621.42 853.24 644.74 852.6 645.27 688.84"/></g><g id="23" class="block"><polygon class="cls-7" points="774.83 688.84 724.56 688.84 724.56 810.36 776.8 810.09 774.83 688.84"/></g><g id="11" class="block"><path class="cls-7" d="M828.04,674.94l-1.6-118.96c-12.43.18-25.79.31-39.87.42l1.93,118.54h39.53Z"/></g><g id="10" class="block"><path class="cls-7" d="M772.67,556.5c-15.67.1-32.08.17-48.96.22l.79,118.23h50.1l-1.93-118.44Z"/></g><g id="26" class="block"><path class="cls-7" d="M924.32,809.3l60.53-.32-.95-120.14h-58.53c-.58,35.95-1.04,80.88-1.06,120.46Z"/></g><g id="16" class="block"><polygon class="cls-7" points="841.95 674.94 983.8 674.94 983.41 625.85 841.31 627.51 841.95 674.94"/></g><g id="24" class="block"><polygon class="cls-7" points="790.71 810.01 845.67 809.72 843.32 688.84 788.73 688.84 790.71 810.01"/></g><g id="25" class="block"><path class="cls-7" d="M910.38,809.37c0-47.12.72-97.81,1.09-120.53h-54.24l2.35,120.8,50.81-.27Z"/></g><g id="45" class="block"><polygon class="cls-7" points="943.12 924.47 908.14 949.46 945.63 951.21 985.98 952.81 985.65 910.66 964.6 913.17 943.12 924.47"/></g><g id="37" class="block"><path class="cls-7" d="M919.76,924.07c-1.5-3.33-3.52-8.24-6.01-15.3-2.36-6.69-3.2-43.28-3.34-85.5l-50.56.27,2.43,125.14,23.08-.04,34.4-24.58Z"/></g><g id="35" class="block"><polygon class="cls-7" points="777.03 823.99 724.56 824.27 724.56 948.91 779.06 948.83 777.03 823.99"/></g><g id="36" class="block"><polygon class="cls-7" points="845.94 823.62 790.93 823.91 792.97 948.8 848.37 948.71 845.94 823.62"/></g><g id="38" class="block"><path class="cls-7" d="M985.54,896.68l-.58-73.79-60.63.32c.11,42.06.8,75.49,2.53,80.97,1.77,5.02,3.27,8.82,4.46,11.63l21.3-15.22,32.92-3.92Z"/></g><g id="1" class="block"><path class="cls-7" d="M840.34,555.75l.78,57.85,142.18-1.65-.78-98.45c-15.81,13.16-42.95,32.97-68.76,38.5-9.13,1.96-36.06,3.09-73.42,3.76Z"/></g><g id="41" class="block"><polygon class="cls-7" points="644.7 866.51 621.27 867.15 620.34 949.08 644.44 949.05 644.7 866.51"/></g><g id="34" class="block"><polygon class="cls-7" points="710.66 824.34 658.74 824.62 658.34 949.02 710.66 948.94 710.66 824.34"/></g><g id="33" class="block"><polygon class="cls-1" points="451.32 827.39 486.56 828.61 486.56 863.51 451.32 864.01 451.32 827.39"/><path class="cls-7" d="M453.82,829.98l30.24,1.04v30.03l-30.24.43v-31.5M448.82,824.8v41.74l40.24-.57v-39.79l-40.24-1.39h0Z"/></g><g id="17" class="block"><polygon class="cls-1" points="394.51 684.96 394.51 640.67 432.41 641.45 432.41 684.96 394.51 684.96"/><path class="cls-7" d="M397.01,643.22l32.9.67v38.57h-32.9v-39.24M392.01,638.12v49.34h42.9v-48.47l-42.9-.88h0Z"/></g><g id="30" class="block"><polygon class="cls-1" points="394.51 818.11 394.51 772.36 432.41 772.88 432.41 818.11 394.51 818.11"/><path class="cls-7" d="M397.01,774.89l32.9.45v40.27h-32.9v-40.72M392.01,769.82v50.79h42.9v-50.2l-42.9-.59h0Z"/></g><g id="13" class="block"><polygon class="cls-1" points="451.32 672.44 451.32 646.07 494.6 646.07 494.78 672.44 451.32 672.44"/><path class="cls-7" d="M492.12,648.57l.14,21.37h-38.44v-21.37h38.3M497.08,643.57h-48.27v31.37h48.48l-.21-31.37h0Z"/></g><g id="5" class="block"><path class="cls-1" d="M451.68,627.17l-.36-.22v-63.74c1.96-.23,3.71-.45,5.23-.67,5.5-.8,18.1-1.45,37.48-1.92l.45,66.55h-42.8Z"/><path class="cls-7" d="M491.54,563.18l.41,61.49h-38.14v-59.24c1.11-.14,2.15-.28,3.09-.42,5.16-.75,16.8-1.37,34.64-1.83M496.51,558.06c-19.68.45-34.04,1.09-40.32,2.01-2.11.31-4.59.61-7.37.91v67.36l2.14,1.34h46.03l-.48-71.61h0Z"/></g><g id="20" class="block"><polygon class="cls-1" points="394.51 753.45 394.51 703.87 432.41 703.87 432.41 753.97 394.51 753.45"/><path class="cls-7" d="M429.91,706.36v45.07l-32.9-.45v-44.62h32.9M434.91,701.36h-42.9v54.55l42.9.59v-55.14h0Z"/></g><g id="32" class="block"><rect class="cls-1" x="394.51" y="837.02" width="37.91" height="48.45"/><path class="cls-7" d="M429.91,839.52v43.45h-32.9v-43.45h32.9M434.91,834.52h-42.9v53.45h42.9v-53.45h0Z"/></g><g id="21" class="block"><polygon class="cls-1" points="451.32 808.48 451.32 691.34 494.85 691.34 494.85 804.18 491.07 809.85 451.32 808.48"/><path class="cls-7" d="M492.35,693.84v109.58l-2.59,3.88-35.95-1.24v-112.22h38.54M497.35,688.84h-48.54v122.05l43.56,1.5,4.97-7.45v-116.1h0Z"/></g><g id="39" class="block"><polygon class="cls-1" points="451.32 913.88 451.32 882.92 486.56 882.42 486.56 913.88 451.32 913.88"/><path class="cls-7" d="M484.06,884.96v26.42h-30.24v-26l30.24-.43M489.06,879.88l-40.24.57v35.93h40.24v-36.49h0Z"/></g><g id="6" class="block"><path class="cls-1" d="M513.38,627.17l-.45-66.93c10.95-.18,23.44-.32,38.02-.44l.45,67.38h-38.02Z"/><path class="cls-7" d="M548.46,562.32l.42,62.36h-33.02l-.42-61.97c9.74-.15,20.63-.28,33.02-.38M553.43,557.27c-15.62.12-30.13.29-43.02.51l.48,71.89h43.02l-.49-72.4h0Z"/></g><g id="14" class="block"><polygon class="cls-1" points="513.68 672.44 513.5 646.07 551.53 646.07 551.7 672.44 513.68 672.44"/><path class="cls-7" d="M549.04,648.57l.14,21.37h-33.02l-.14-21.37h33.02M554.01,643.57h-43.02l.21,31.37h43.02l-.21-31.37h0Z"/></g><g id="31" class="block"><path class="cls-1" d="M318.07,885.47l.28-26.76v-.08c-.41-7.72-.91-14.82-1.53-21.61h58.79v48.45h-57.54Z"/><path class="cls-7" d="M373.1,839.52v43.45h-52.51l.25-24.16v-.16s0-.16,0-.16c-.36-6.72-.78-12.98-1.29-18.98h53.56M378.1,834.52h-64.03c.77,8.06,1.34,16.14,1.77,24.25l-.3,29.21h62.56v-53.45h0Z"/></g><g id="2" class="block"><path class="cls-1" d="M241.51,618.63c-.41-12.54-.8-27.96-1.17-45.88,14.88-.39,36.66-.99,60.85-1.78l.42,48.89-60.1-1.23Z"/><path class="cls-7" d="M298.72,573.55l.37,43.76-55.16-1.13c-.36-11.48-.71-25.23-1.04-41,14.26-.38,34.03-.93,55.83-1.63M303.67,568.39c-26.32.86-50.1,1.52-65.88,1.92.39,19.44.82,36.67,1.3,50.77l65.04,1.33-.46-54.02h0Z"/></g><g id="7" class="block"><path class="cls-1" d="M570.3,627.17l-.45-67.51c12.39-.07,25.29-.13,38.48-.17l-.76,67.68h-37.27Z"/><path class="cls-7" d="M605.81,562l-.71,62.67h-32.31l-.42-62.52c10.08-.06,21.1-.11,33.44-.15M610.86,556.98c-14.97.05-29.59.11-43.53.2l.49,72.49h42.22l.82-72.69h0Z"/></g><g id="15" class="block"><polygon class="cls-1" points="570.61 672.44 570.43 646.07 607.36 646.07 607.06 672.44 570.61 672.44"/><path class="cls-7" d="M604.83,648.57l-.24,21.37h-31.5l-.14-21.37h31.88M609.89,643.57h-41.97l.21,31.37h41.41l.35-31.37h0Z"/></g><g id="27" class="block"><path class="cls-1" d="M505.46,822.34l8.29-12.43v-118.57h38.65c4.16,50.01,4.79,96.91,1.36,103.69-6.27,7.81-9.97,29.97-11.32,67.69l-36.98.52v-40.91Z"/><path class="cls-7" d="M550.1,693.84c1.8,22.14,2.99,44.92,3.31,63.16.5,28.82-1.33,35.49-1.81,36.73-6.43,8.38-10.13,29.62-11.57,66.52l-32.07.45v-37.61l7.45-11.17.84-1.26v-116.83h33.85M554.7,688.84h-43.45v120.31l-8.29,12.43v44.2l41.9-.59c1.03-31.77,4.01-60.41,10.99-68.76,4.39-7.69,2.84-60.78-1.15-107.59h0Z"/></g><g id="28" class="block"><path class="cls-1" d="M561.42,862.46c1.34-36.49,4.56-52.67,6.95-55.43,3.14-3.62,8.4-9.69,5.87-69.29-.78-18.26-2.06-36.03-2.89-46.4h35.5l-1.8,159.84-22.9.63-18.58,10.62-2.14.03Z"/><path class="cls-7" d="M604.32,693.84l-1.75,154.91-19.87.54-1.25.03-1.09.62-16.31,9.32c1.46-35.18,4.67-48.52,6.21-50.6,3.6-4.16,9.05-10.44,6.47-71.03-.72-16.81-1.86-33.18-2.68-43.79h30.26M609.37,688.84h-40.73c.76,9.38,2.24,28.91,3.1,49,2.49,58.61-2.55,64.42-5.26,67.54-3.59,4.14-6.51,25.57-7.65,59.6l5.41-.08,18.6-10.63,24.67-.68,1.86-164.77h0Z"/></g><g id="18" class="block"><path class="cls-1" d="M314.7,818.11c-2.29-16.76-5.67-32.35-10.22-46.99l71.13.97v46.01h-60.91ZM302.86,766.12c-9.06-27.07-22.31-50.86-40.32-72.79-9.57-11.65-17.53-37.26-19.93-55.77l59.17,1.21.39,46.19h-25.42v18.9h25.58l.53,62.25Z"/><path class="cls-7" d="M245.49,640.11l53.8,1.1.35,41.24h-25.4v21.99c-3.08-4.3-6.34-8.53-9.78-12.71-8.8-10.72-16.22-33.79-18.97-51.63M299.85,706.36l.38,45.22c-6.5-16.05-14.63-30.98-24.63-45.22h24.25M307.93,773.67l65.18.89v41.05h-56.23c-2.14-15.04-5.1-28.92-8.94-41.94M239.79,635c1.83,17.84,9.84,46.56,20.81,59.92,33.27,40.5,46.31,82.72,51.91,125.7h65.6v-50.98l-72.73-.99-.57-67.27h-25.56v-13.9h25.45l-.43-51.14-64.46-1.32h0Z"/></g><g id="42" class="block"><polygon class="cls-1" points="317.87 904.37 375.6 904.37 375.6 946.98 317.43 947.08 317.87 904.37"/><path class="cls-7" d="M373.1,906.88v37.61l-53.15.09.39-37.7h52.76M378.1,901.88h-62.71l-.49,47.71,63.2-.1v-47.6h0Z"/></g><g id="44" class="block"><path class="cls-1" d="M505.46,882.15l36.53-.51c-.32,24,.23,48.09.81,65.07l-37.33.06v-64.62Z"/><path class="cls-7" d="M539.46,884.18c-.24,22,.23,43.85.75,60.04l-32.25.05v-59.65l31.49-.44M544.53,879.1l-41.56.58v69.59l42.42-.07c-.63-17.92-1.27-44.2-.86-70.1h0Z"/></g><g id="46" class="block"><polygon class="cls-1" points="451.32 932.78 486.56 932.78 486.56 946.8 451.32 946.86 451.32 932.78"/><path class="cls-7" d="M484.06,935.28v9.03l-30.24.05v-9.08h30.24M489.06,930.28h-40.24v19.08l40.24-.07v-19.02h0Z"/></g><g id="43" class="block"><polygon class="cls-1" points="394.51 904.37 432.41 904.37 432.41 946.89 394.51 946.95 394.51 904.37"/><path class="cls-7" d="M429.91,906.88v37.52l-32.9.05v-37.57h32.9M434.91,901.88h-42.9v47.58l42.9-.07v-47.51h0Z"/></g><g id="4" class="block"><path class="cls-1" d="M394.51,621.76v-54.52c14.95-.76,27.67-1.54,37.91-2.31v57.61l-37.91-.78Z"/><path class="cls-7" d="M429.91,567.62v52.36l-32.9-.67v-49.7c12.67-.66,23.69-1.32,32.9-1.99M434.91,562.23c-11.94.94-26.72,1.82-42.9,2.63v59.35l42.9.88v-62.86h0Z"/></g><g id="40" class="block"><path class="cls-1" d="M561.7,946.68c-.81-23.4-1.06-45.35-.76-65.31l7.76-.11,18.7-10.69,17.42-.48-.86,76.51-42.26.07Z"/><path class="cls-7" d="M602.3,872.67l-.81,71.44-37.37.06c-.71-21.52-.95-41.77-.71-60.34l4.69-.07,1.29-.02,1.12-.64,17.59-10.05,14.2-.39M607.36,867.53l-20.65.57-18.68,10.68-9.54.13c-.35,20.16-.14,43.82.81,70.28l47.15-.08.92-81.58h0Z"/></g><g id="3" class="block"><path class="cls-1" d="M320.52,620.24l-.42-49.91c20.44-.71,39.09-1.45,55.51-2.19v53.23l-55.08-1.13Z"/><path class="cls-7" d="M373.1,570.76v48.06l-50.11-1.03-.38-45.05c18.41-.65,35.34-1.31,50.49-1.99M378.1,565.53c-19.57.9-40.48,1.7-60.53,2.39l.47,54.78,60.06,1.23v-58.4h0Z"/></g><g id="19" class="block"><polygon class="cls-1" points="321.64 752.45 321.23 703.87 375.6 703.87 375.6 753.19 321.64 752.45"/><path class="cls-7" d="M373.1,706.36v44.3l-48.98-.67-.37-43.62h49.35M378.1,701.36h-59.4l.46,53.56,58.94.81v-54.36h0Z"/></g><g id="12" class="block"><polygon class="cls-1" points="321.07 684.96 320.68 639.16 375.6 640.28 375.6 684.96 321.07 684.96"/><path class="cls-7" d="M323.2,641.71l49.9,1.02v39.73h-49.56l-.35-40.75M318.16,636.6l.43,50.86h59.51v-49.63l-59.95-1.23h0Z"/></g><path class="cls-2" d="M610.59,964.35c-.34-.43-.81-.75-1.39-.96-.59-.21-1.14-.31-1.67-.31-.31,0-.62.04-.95.11s-.63.18-.92.34c-.29.15-.52.36-.71.61s-.27.56-.27.92c0,.58.22,1.02.65,1.33s.98.57,1.64.78c.66.22,1.37.43,2.12.65.76.22,1.47.52,2.13.92.66.4,1.2.93,1.64,1.6.43.67.65,1.56.65,2.68s-.2,1.99-.6,2.79c-.4.79-.93,1.45-1.61,1.98-.68.52-1.46.91-2.36,1.16-.89.25-1.84.38-2.83.38-1.25,0-2.4-.19-3.47-.57-1.06-.38-2.06-.99-2.98-1.84l3.01-3.3c.43.58.98,1.02,1.64,1.34.66.32,1.34.47,2.04.47.34,0,.69-.04,1.04-.12.35-.08.67-.2.95-.36.28-.16.51-.37.68-.62.17-.25.26-.55.26-.89,0-.58-.22-1.03-.66-1.37-.44-.33-1-.62-1.67-.85-.67-.23-1.39-.47-2.17-.7-.78-.23-1.5-.55-2.17-.95-.67-.4-1.22-.92-1.67-1.57s-.66-1.51-.66-2.57.2-1.93.61-2.71c.41-.78.95-1.43,1.62-1.95s1.46-.92,2.34-1.18,1.8-.39,2.74-.39c1.08,0,2.13.15,3.14.46,1.01.31,1.92.82,2.73,1.54l-2.9,3.17Z"/><path class="cls-2" d="M630.52,964.22l-3.84,3.38-2.3-2.65,6.25-5.28h3.79v19.17h-3.9v-14.62Z"/><path class="cls-2" d="M640.07,974.53l7.45-6.69c.38-.34.76-.73,1.14-1.16s.57-.94.57-1.52c0-.65-.24-1.16-.7-1.53-.47-.37-1.02-.55-1.65-.55-.76,0-1.35.24-1.77.7-.42.47-.66,1.05-.72,1.73l-4.06-.3c.05-.99.26-1.85.62-2.59.36-.73.84-1.34,1.44-1.83.59-.49,1.29-.85,2.1-1.1.8-.24,1.67-.37,2.61-.37.87,0,1.68.12,2.44.37s1.42.6,1.98,1.08,1,1.08,1.31,1.8c.32.72.47,1.56.47,2.52,0,.61-.06,1.17-.19,1.67s-.3.95-.53,1.35c-.23.41-.49.78-.8,1.12-.31.34-.64.68-1,1l-5.82,5.01h8.5v3.57h-13.37v-4.31Z"/><path class="cls-2" d="M665.17,968.93h-3.57v4.39c0,.36.02.69.05.99.04.3.12.56.24.77s.32.38.58.5.61.18,1.04.18c.22,0,.5-.02.85-.07.35-.04.62-.15.8-.31v3.38c-.45.16-.92.27-1.41.32s-.96.08-1.44.08c-.69,0-1.32-.07-1.89-.22-.58-.14-1.08-.38-1.52-.69s-.77-.73-1.02-1.23-.36-1.12-.36-1.84v-6.25h-2.6v-3.25h2.6v-3.9h4.06v3.9h3.57v3.25Z"/><path class="cls-2" d="M671.29,958.37v9.1h.05c.09-.25.24-.51.46-.76.22-.25.48-.48.78-.68s.67-.36,1.08-.49c.41-.13.86-.19,1.35-.19,1.03,0,1.86.16,2.49.47s1.12.75,1.48,1.31c.35.56.59,1.22.72,1.98s.19,1.58.19,2.46v7.26h-4.06v-6.44c0-.38-.01-.77-.04-1.18-.03-.41-.11-.78-.24-1.12-.14-.34-.34-.62-.62-.84-.28-.22-.68-.32-1.21-.32s-.95.09-1.27.28-.57.44-.74.76c-.17.32-.28.67-.34,1.07s-.08.81-.08,1.25v6.55h-4.06v-20.47h4.06Z"/><path class="cls-2" d="M700.77,964.35c-.34-.43-.81-.75-1.39-.96-.59-.21-1.14-.31-1.67-.31-.31,0-.62.04-.95.11s-.63.18-.92.34c-.29.15-.52.36-.71.61s-.27.56-.27.92c0,.58.22,1.02.65,1.33s.98.57,1.64.78c.66.22,1.37.43,2.12.65.76.22,1.47.52,2.13.92.66.4,1.2.93,1.64,1.6.43.67.65,1.56.65,2.68s-.2,1.99-.6,2.79c-.4.79-.93,1.45-1.61,1.98-.68.52-1.46.91-2.36,1.16-.89.25-1.84.38-2.83.38-1.25,0-2.4-.19-3.47-.57-1.06-.38-2.06-.99-2.98-1.84l3.01-3.3c.43.58.98,1.02,1.64,1.34.66.32,1.34.47,2.04.47.34,0,.69-.04,1.04-.12.35-.08.67-.2.95-.36.28-.16.51-.37.68-.62.17-.25.26-.55.26-.89,0-.58-.22-1.03-.66-1.37-.44-.33-1-.62-1.67-.85-.67-.23-1.39-.47-2.17-.7-.78-.23-1.5-.55-2.17-.95-.67-.4-1.22-.92-1.67-1.57s-.66-1.51-.66-2.57.2-1.93.61-2.71c.41-.78.95-1.43,1.62-1.95s1.46-.92,2.34-1.18,1.8-.39,2.74-.39c1.08,0,2.13.15,3.14.46,1.01.31,1.92.82,2.73,1.54l-2.9,3.17Z"/><path class="cls-2" d="M715.29,968.93h-3.57v4.39c0,.36.02.69.05.99.04.3.12.56.24.77s.32.38.58.5.61.18,1.04.18c.22,0,.5-.02.85-.07.35-.04.62-.15.8-.31v3.38c-.45.16-.92.27-1.41.32s-.96.08-1.44.08c-.69,0-1.32-.07-1.89-.22-.58-.14-1.08-.38-1.52-.69s-.77-.73-1.02-1.23-.36-1.12-.36-1.84v-6.25h-2.6v-3.25h2.6v-3.9h4.06v3.9h3.57v3.25Z"/><path class="cls-2" d="M246.68,832.39c.28.42.64.73,1.08.93.44.2.89.3,1.35.3.26,0,.52-.04.79-.12s.52-.2.74-.36.4-.36.54-.6c.14-.24.21-.51.21-.83,0-.44-.14-.78-.42-1.01-.28-.23-.63-.43-1.05-.58-.42-.16-.87-.31-1.36-.45-.49-.15-.95-.35-1.36-.61s-.76-.61-1.05-1.05c-.28-.44-.42-1.03-.42-1.78,0-.34.07-.69.22-1.07.15-.38.38-.72.69-1.04s.72-.58,1.21-.79c.49-.21,1.08-.32,1.78-.32.63,0,1.23.09,1.8.26.57.17,1.08.52,1.51,1.05l-1.26,1.15c-.19-.3-.47-.55-.83-.73-.36-.18-.76-.28-1.22-.28s-.79.06-1.08.17c-.29.11-.52.26-.69.44-.17.18-.29.37-.36.58s-.11.39-.11.57c0,.49.14.86.42,1.12.28.26.63.47,1.05.63s.87.31,1.36.44c.49.13.95.31,1.36.54.42.23.76.55,1.05.94.28.39.42.94.42,1.63,0,.55-.11,1.05-.32,1.49-.21.44-.49.82-.85,1.12-.36.3-.78.54-1.26.7-.49.16-1.01.24-1.56.24-.74,0-1.43-.13-2.09-.39-.66-.26-1.18-.66-1.57-1.2l1.28-1.1Z"/><path class="cls-2" d="M262.78,825.09l-2.11,1.95-.91-1.09,3.19-2.64h1.38v11.48h-1.56v-9.7Z"/><path class="cls-2" d="M267.97,829.05c0-.42.02-.86.06-1.31.04-.45.12-.9.24-1.34.11-.44.26-.86.45-1.26s.43-.75.73-1.05.65-.54,1.05-.71.88-.27,1.42-.27,1.01.09,1.42.27.76.42,1.05.71.54.65.73,1.05.34.82.45,1.26c.11.44.19.88.24,1.34s.06.89.06,1.31c0,.61-.05,1.25-.16,1.95-.11.69-.31,1.34-.6,1.93-.29.59-.69,1.09-1.21,1.48-.51.39-1.18.58-1.99.58s-1.47-.19-1.99-.58c-.51-.39-.92-.88-1.21-1.48-.29-.59-.49-1.24-.6-1.93-.11-.69-.16-1.34-.16-1.95ZM269.52,829.05c0,.38.02.83.07,1.35.05.52.15,1.02.32,1.5.16.48.4.89.72,1.22s.75.5,1.29.5.97-.17,1.29-.5.56-.74.72-1.22c.16-.48.27-.98.32-1.5.05-.52.07-.97.07-1.35,0-.26,0-.55-.02-.88-.02-.33-.05-.66-.11-1.01s-.14-.67-.25-.99c-.11-.32-.25-.61-.43-.86-.18-.25-.4-.46-.66-.61-.26-.15-.57-.23-.92-.23s-.66.08-.92.23c-.26.15-.48.35-.66.61-.18.25-.32.54-.43.86-.11.32-.19.65-.25.99-.06.34-.1.68-.11,1.01-.02.33-.02.62-.02.88Z"/><path class="cls-2" d="M281.66,828.36h-2.09v3.49c0,.22,0,.43.02.64.01.21.05.4.12.57.07.17.18.3.32.41.15.1.36.15.64.15.17,0,.35-.02.54-.05.18-.03.35-.09.5-.18v1.33c-.17.1-.4.16-.67.2-.28.04-.49.06-.64.06-.56,0-1-.08-1.31-.24-.31-.16-.54-.36-.68-.61s-.23-.53-.26-.84c-.03-.31-.04-.62-.04-.93v-4.01h-1.69v-1.26h1.69v-2.16h1.46v2.16h2.09v1.26Z"/><path class="cls-2" d="M283.54,822.53h1.46v5.76h.03c.18-.41.5-.74.96-1,.45-.25.98-.38,1.57-.38.37,0,.72.06,1.06.17s.64.29.89.53c.25.24.46.54.61.92.15.37.23.81.23,1.32v4.95h-1.46v-4.54c0-.36-.05-.66-.15-.92-.1-.25-.23-.46-.39-.62-.16-.16-.35-.27-.56-.34-.21-.07-.43-.11-.66-.11-.3,0-.58.05-.84.15-.26.1-.49.25-.68.46s-.35.48-.45.8c-.11.32-.16.71-.16,1.15v3.96h-1.46v-12.26Z"/><path class="cls-2" d="M297.78,832.39c.28.42.64.73,1.08.93.44.2.89.3,1.35.3.26,0,.52-.04.79-.12s.52-.2.74-.36.4-.36.54-.6c.14-.24.21-.51.21-.83,0-.44-.14-.78-.42-1.01-.28-.23-.63-.43-1.05-.58-.42-.16-.87-.31-1.36-.45-.49-.15-.95-.35-1.36-.61s-.76-.61-1.05-1.05c-.28-.44-.42-1.03-.42-1.78,0-.34.07-.69.22-1.07.15-.38.38-.72.69-1.04s.72-.58,1.21-.79c.49-.21,1.08-.32,1.78-.32.63,0,1.23.09,1.8.26.57.17,1.08.52,1.51,1.05l-1.26,1.15c-.19-.3-.47-.55-.83-.73-.36-.18-.76-.28-1.22-.28s-.79.06-1.08.17c-.29.11-.52.26-.69.44-.17.18-.29.37-.36.58s-.11.39-.11.57c0,.49.14.86.42,1.12.28.26.63.47,1.05.63s.87.31,1.36.44c.49.13.95.31,1.36.54.42.23.76.55,1.05.94.28.39.42.94.42,1.63,0,.55-.11,1.05-.32,1.49-.21.44-.49.82-.85,1.12-.36.3-.78.54-1.26.7-.49.16-1.01.24-1.56.24-.74,0-1.43-.13-2.09-.39-.66-.26-1.18-.66-1.57-1.2l1.28-1.1Z"/><path class="cls-2" d="M310.2,828.36h-2.09v3.49c0,.22,0,.43.02.64.01.21.05.4.12.57.07.17.18.3.32.41.15.1.36.15.64.15.17,0,.35-.02.54-.05.18-.03.35-.09.5-.18v1.33c-.17.1-.4.16-.67.2-.28.04-.49.06-.64.06-.56,0-1-.08-1.31-.24-.31-.16-.54-.36-.68-.61s-.23-.53-.26-.84c-.03-.31-.04-.62-.04-.93v-4.01h-1.69v-1.26h1.69v-2.16h1.46v2.16h2.09v1.26Z"/><path class="cls-2" d="M169.14,628.79c.28.42.64.73,1.08.93.44.2.89.3,1.35.3.26,0,.52-.04.79-.12s.52-.2.74-.36.4-.36.54-.6c.14-.24.21-.51.21-.83,0-.44-.14-.78-.42-1.01-.28-.23-.63-.43-1.05-.58-.42-.16-.87-.31-1.36-.45-.49-.15-.95-.35-1.36-.61s-.76-.61-1.05-1.05c-.28-.44-.42-1.03-.42-1.78,0-.34.07-.69.22-1.07.15-.38.38-.72.69-1.04s.72-.58,1.21-.79c.49-.21,1.08-.32,1.78-.32.63,0,1.23.09,1.8.26.57.17,1.08.52,1.51,1.05l-1.26,1.15c-.19-.3-.47-.55-.83-.73-.36-.18-.76-.28-1.22-.28s-.79.06-1.08.17c-.29.11-.52.26-.69.44-.17.18-.29.37-.36.58s-.11.39-.11.57c0,.49.14.86.42,1.12.28.26.63.47,1.05.63s.87.31,1.36.44c.49.13.95.31,1.36.54.42.23.76.55,1.05.94.28.39.42.94.42,1.63,0,.55-.11,1.05-.32,1.49-.21.44-.49.82-.85,1.12-.36.3-.78.54-1.26.7-.49.16-1.01.24-1.56.24-.74,0-1.43-.13-2.09-.39-.66-.26-1.18-.66-1.57-1.2l1.28-1.1Z"/><path class="cls-2" d="M187.09,621.07h-5.56v-1.36h7.22v1.33l-4.57,10.15h-1.75l4.67-10.12Z"/><path class="cls-2" d="M195.09,624.77h-2.09v3.49c0,.22,0,.43.02.64.01.21.05.4.12.57.07.17.18.3.32.41.15.1.36.15.64.15.17,0,.35-.02.54-.05.18-.03.35-.09.5-.18v1.33c-.17.1-.4.16-.67.2-.28.04-.49.06-.64.06-.56,0-1-.08-1.31-.24-.31-.16-.54-.36-.68-.61s-.23-.53-.26-.84c-.03-.31-.04-.62-.04-.93v-4.01h-1.69v-1.26h1.69v-2.16h1.46v2.16h2.09v1.26Z"/><path class="cls-2" d="M196.97,618.93h1.46v5.76h.03c.18-.41.5-.74.96-1s.98-.38,1.57-.38c.37,0,.72.06,1.06.17s.64.29.89.53c.25.24.46.54.61.92.15.37.23.81.23,1.32v4.95h-1.46v-4.54c0-.36-.05-.66-.15-.92-.1-.25-.23-.46-.39-.62-.16-.16-.35-.27-.56-.34-.21-.07-.43-.11-.66-.11-.3,0-.58.05-.84.15-.26.1-.49.25-.68.46s-.35.48-.45.8c-.11.32-.16.71-.16,1.15v3.96h-1.46v-12.26Z"/><path class="cls-2" d="M211.21,628.79c.28.42.64.73,1.08.93.44.2.89.3,1.35.3.26,0,.52-.04.79-.12s.52-.2.74-.36.4-.36.54-.6c.14-.24.21-.51.21-.83,0-.44-.14-.78-.42-1.01-.28-.23-.63-.43-1.05-.58-.42-.16-.87-.31-1.36-.45-.49-.15-.95-.35-1.36-.61s-.76-.61-1.05-1.05c-.28-.44-.42-1.03-.42-1.78,0-.34.07-.69.22-1.07.15-.38.38-.72.69-1.04s.72-.58,1.21-.79c.49-.21,1.08-.32,1.78-.32.63,0,1.23.09,1.8.26.57.17,1.08.52,1.51,1.05l-1.26,1.15c-.19-.3-.47-.55-.83-.73-.36-.18-.76-.28-1.22-.28s-.79.06-1.08.17c-.29.11-.52.26-.69.44-.17.18-.29.37-.36.58s-.11.39-.11.57c0,.49.14.86.42,1.12.28.26.63.47,1.05.63s.87.31,1.36.44c.49.13.95.31,1.36.54.42.23.76.55,1.05.94.28.39.42.94.42,1.63,0,.55-.11,1.05-.32,1.49-.21.44-.49.82-.85,1.12-.36.3-.78.54-1.26.7-.49.16-1.01.24-1.56.24-.74,0-1.43-.13-2.09-.39-.66-.26-1.18-.66-1.57-1.2l1.28-1.1Z"/><path class="cls-2" d="M223.64,624.77h-2.09v3.49c0,.22,0,.43.02.64.01.21.05.4.12.57.07.17.18.3.32.41.15.1.36.15.64.15.17,0,.35-.02.54-.05.18-.03.35-.09.5-.18v1.33c-.17.1-.4.16-.67.2-.28.04-.49.06-.64.06-.56,0-1-.08-1.31-.24-.31-.16-.54-.36-.68-.61s-.23-.53-.26-.84c-.03-.31-.04-.62-.04-.93v-4.01h-1.69v-1.26h1.69v-2.16h1.46v2.16h2.09v1.26Z"/><path class="cls-2" d="M246.68,899.74c.28.42.64.73,1.08.93.44.2.89.3,1.35.3.26,0,.52-.04.79-.12s.52-.2.74-.36.4-.36.54-.6c.14-.24.21-.51.21-.83,0-.44-.14-.78-.42-1.01-.28-.23-.63-.43-1.05-.58-.42-.16-.87-.31-1.36-.45-.49-.15-.95-.35-1.36-.61s-.76-.61-1.05-1.05c-.28-.44-.42-1.03-.42-1.78,0-.34.07-.69.22-1.07.15-.38.38-.72.69-1.04s.72-.58,1.21-.79c.49-.21,1.08-.32,1.78-.32.63,0,1.23.09,1.8.26.57.17,1.08.52,1.51,1.05l-1.26,1.15c-.19-.3-.47-.55-.83-.73-.36-.18-.76-.28-1.22-.28s-.79.06-1.08.17c-.29.11-.52.26-.69.44-.17.18-.29.37-.36.58s-.11.39-.11.57c0,.49.14.86.42,1.12.28.26.63.47,1.05.63s.87.31,1.36.44c.49.13.95.31,1.36.54.42.23.76.55,1.05.94.28.39.42.94.42,1.63,0,.55-.11,1.05-.32,1.49-.21.44-.49.82-.85,1.12-.36.3-.78.54-1.26.7-.49.16-1.01.24-1.56.24-.74,0-1.43-.13-2.09-.39-.66-.26-1.18-.66-1.57-1.2l1.28-1.1Z"/><path class="cls-2" d="M262.78,892.44l-2.11,1.95-.91-1.09,3.19-2.64h1.38v11.48h-1.56v-9.7Z"/><path class="cls-2" d="M271.79,892.44l-2.11,1.95-.91-1.09,3.19-2.64h1.38v11.48h-1.56v-9.7Z"/><path class="cls-2" d="M281.66,895.72h-2.09v3.49c0,.22,0,.43.02.64.01.21.05.4.12.57.07.17.18.3.32.41.15.1.36.15.64.15.17,0,.35-.02.54-.05.18-.03.35-.09.5-.18v1.33c-.17.1-.4.16-.67.2-.28.04-.49.06-.64.06-.56,0-1-.08-1.31-.24-.31-.16-.54-.36-.68-.61s-.23-.53-.26-.84c-.03-.31-.04-.62-.04-.93v-4.01h-1.69v-1.26h1.69v-2.16h1.46v2.16h2.09v1.26Z"/><path class="cls-2" d="M283.54,889.88h1.46v5.76h.03c.18-.41.5-.74.96-1s.98-.38,1.57-.38c.37,0,.72.06,1.06.17s.64.29.89.53c.25.24.46.54.61.92.15.37.23.81.23,1.32v4.95h-1.46v-4.54c0-.36-.05-.66-.15-.92-.1-.25-.23-.46-.39-.62-.16-.16-.35-.27-.56-.34-.21-.07-.43-.11-.66-.11-.3,0-.58.05-.84.15-.26.1-.49.25-.68.46s-.35.48-.45.8c-.11.32-.16.71-.16,1.15v3.96h-1.46v-12.26Z"/><path class="cls-2" d="M297.78,899.74c.28.42.64.73,1.08.93.44.2.89.3,1.35.3.26,0,.52-.04.79-.12s.52-.2.74-.36.4-.36.54-.6c.14-.24.21-.51.21-.83,0-.44-.14-.78-.42-1.01-.28-.23-.63-.43-1.05-.58-.42-.16-.87-.31-1.36-.45-.49-.15-.95-.35-1.36-.61s-.76-.61-1.05-1.05c-.28-.44-.42-1.03-.42-1.78,0-.34.07-.69.22-1.07.15-.38.38-.72.69-1.04s.72-.58,1.21-.79c.49-.21,1.08-.32,1.78-.32.63,0,1.23.09,1.8.26.57.17,1.08.52,1.51,1.05l-1.26,1.15c-.19-.3-.47-.55-.83-.73-.36-.18-.76-.28-1.22-.28s-.79.06-1.08.17c-.29.11-.52.26-.69.44-.17.18-.29.37-.36.58s-.11.39-.11.57c0,.49.14.86.42,1.12.28.26.63.47,1.05.63s.87.31,1.36.44c.49.13.95.31,1.36.54.42.23.76.55,1.05.94.28.39.42.94.42,1.63,0,.55-.11,1.05-.32,1.49-.21.44-.49.82-.85,1.12-.36.3-.78.54-1.26.7-.49.16-1.01.24-1.56.24-.74,0-1.43-.13-2.09-.39-.66-.26-1.18-.66-1.57-1.2l1.28-1.1Z"/><path class="cls-2" d="M310.2,895.72h-2.09v3.49c0,.22,0,.43.02.64.01.21.05.4.12.57.07.17.18.3.32.41.15.1.36.15.64.15.17,0,.35-.02.54-.05.18-.03.35-.09.5-.18v1.33c-.17.1-.4.16-.67.2-.28.04-.49.06-.64.06-.56,0-1-.08-1.31-.24-.31-.16-.54-.36-.68-.61s-.23-.53-.26-.84c-.03-.31-.04-.62-.04-.93v-4.01h-1.69v-1.26h1.69v-2.16h1.46v2.16h2.09v1.26Z"/><path class="cls-2" d="M920.78,899.18c.3-.2.52-.46.66-.77.14-.31.22-.64.22-.97,0-.19-.03-.38-.09-.57s-.15-.37-.26-.53-.26-.29-.43-.39c-.17-.1-.37-.15-.59-.15-.32,0-.56.1-.72.3-.17.2-.31.45-.42.75-.11.3-.22.62-.32.97s-.25.68-.44.97c-.18.3-.43.55-.75.75-.31.2-.74.3-1.27.3-.24,0-.49-.05-.76-.16-.27-.1-.52-.27-.74-.49-.22-.22-.41-.51-.56-.86-.15-.35-.23-.78-.23-1.27,0-.45.06-.88.18-1.29.12-.41.38-.77.75-1.08l.82.9c-.22.14-.39.34-.52.59-.13.26-.2.55-.2.87s.04.56.12.77c.08.2.19.37.31.49.13.12.26.21.41.26.15.05.28.08.41.08.35,0,.61-.1.8-.3.19-.2.34-.45.45-.75.12-.3.22-.62.31-.97.09-.35.22-.68.39-.97.17-.3.39-.55.67-.75.28-.2.67-.3,1.16-.3.39,0,.75.08,1.06.23.32.15.58.35.8.61.22.25.38.56.5.9s.17.72.17,1.11c0,.52-.09,1.02-.28,1.49-.18.47-.47.85-.86,1.12l-.79-.92Z"/><path class="cls-2" d="M914.3,889.76v-5.16h1.04v4.04h2.57v-3.77h1.04v3.77h3.55v1.11h-8.2Z"/><path class="cls-2" d="M920.13,882.59c.24,0,.46-.05.65-.16.2-.11.36-.24.5-.41.14-.17.25-.37.32-.59.08-.22.12-.46.12-.7,0-.32-.08-.61-.23-.85-.15-.24-.35-.46-.6-.66l.6-.79c.75.58,1.12,1.39,1.12,2.43,0,.43-.07.82-.22,1.18-.15.35-.35.65-.61.89-.26.24-.56.43-.92.56-.35.13-.73.2-1.14.2s-.79-.07-1.14-.21c-.35-.14-.66-.34-.91-.59-.26-.25-.46-.55-.61-.9-.15-.35-.22-.73-.22-1.14,0-.49.08-.9.25-1.23.17-.34.39-.61.67-.83.27-.22.58-.37.93-.47.34-.1.69-.14,1.05-.14h.37v4.4ZM919.3,879.3c-.23,0-.44.05-.64.11-.19.07-.36.16-.5.3-.14.13-.25.29-.34.49-.08.2-.12.43-.12.69s.05.49.15.7.22.39.38.54c.15.15.33.26.52.34.19.08.38.12.56.12v-3.29Z"/><path class="cls-2" d="M917.01,876.94v-1.04h.85v-.02c-.15-.07-.28-.16-.4-.28s-.22-.25-.31-.39c-.08-.14-.15-.3-.2-.47-.05-.17-.08-.34-.08-.51s.02-.32.07-.46l1.12.05c-.02.08-.04.17-.06.25-.02.09-.02.17-.02.26,0,.51.14.9.43,1.17.29.27.73.41,1.33.41h2.76v1.04h-5.49Z"/><path class="cls-2" d="M917.01,872.65v-1.04h.85v-.02c-.15-.07-.28-.16-.4-.28s-.22-.25-.31-.39c-.08-.14-.15-.3-.2-.47-.05-.17-.08-.34-.08-.51s.02-.32.07-.46l1.12.05c-.02.08-.04.17-.06.25-.02.09-.02.17-.02.26,0,.51.14.9.43,1.17.29.27.73.41,1.33.41h2.76v1.04h-5.49Z"/><path class="cls-2" d="M917.01,869.01v-1.21l4.29-1.63v-.02l-4.29-1.56v-1.11l6.67,2.61c.24.09.46.19.65.29.2.1.36.22.5.36s.25.31.32.5.12.44.12.72c0,.15-.01.31-.03.47-.02.16-.06.31-.12.46l-.95-.13c.08-.21.13-.41.13-.62,0-.16-.02-.3-.06-.41-.04-.11-.11-.21-.19-.29s-.18-.15-.28-.2c-.11-.05-.23-.11-.37-.16l-.87-.34-5.53,2.27Z"/><path class="cls-2" d="M920.78,858.84c.3-.2.52-.46.66-.77.14-.31.22-.64.22-.97,0-.19-.03-.38-.09-.57s-.15-.37-.26-.53-.26-.29-.43-.39c-.17-.1-.37-.15-.59-.15-.32,0-.56.1-.72.3-.17.2-.31.45-.42.75-.11.3-.22.62-.32.97s-.25.68-.44.97c-.18.3-.43.55-.75.75-.31.2-.74.3-1.27.3-.24,0-.49-.05-.76-.16-.27-.1-.52-.27-.74-.49-.22-.22-.41-.51-.56-.86-.15-.35-.23-.78-.23-1.27,0-.45.06-.88.18-1.29.12-.41.38-.77.75-1.08l.82.9c-.22.14-.39.34-.52.59-.13.26-.2.55-.2.87s.04.56.12.77c.08.2.19.37.31.49.13.12.26.21.41.26.15.05.28.08.41.08.35,0,.61-.1.8-.3.19-.2.34-.45.45-.75.12-.3.22-.62.31-.97.09-.35.22-.68.39-.97.17-.3.39-.55.67-.75.28-.2.67-.3,1.16-.3.39,0,.75.08,1.06.23.32.15.58.35.8.61.22.25.38.56.5.9s.17.72.17,1.11c0,.52-.09,1.02-.28,1.49-.18.47-.47.85-.86,1.12l-.79-.92Z"/><path class="cls-2" d="M917.91,849.97v1.49h2.49c.15,0,.31,0,.46-.01.15,0,.29-.04.41-.09.12-.05.22-.13.29-.23.07-.1.11-.26.11-.46,0-.12-.01-.25-.04-.38-.02-.13-.07-.25-.13-.36h.95c.07.12.12.28.14.48.03.2.04.35.04.46,0,.4-.06.71-.17.93-.11.22-.26.38-.43.49-.18.1-.38.16-.6.18-.22.02-.44.03-.67.03h-2.86v1.21h-.9v-1.21h-1.54v-1.04h1.54v-1.49h.9Z"/><path class="cls-2" d="M653.5,899.18c.3-.2.52-.46.66-.77.14-.31.22-.64.22-.97,0-.19-.03-.38-.09-.57s-.15-.37-.26-.53-.26-.29-.43-.39c-.17-.1-.37-.15-.59-.15-.32,0-.56.1-.72.3-.17.2-.31.45-.42.75-.11.3-.22.62-.32.97s-.25.68-.44.97c-.18.3-.43.55-.75.75-.31.2-.74.3-1.27.3-.24,0-.49-.05-.76-.16-.27-.1-.52-.27-.74-.49-.22-.22-.41-.51-.56-.86-.15-.35-.23-.78-.23-1.27,0-.45.06-.88.18-1.29.12-.41.38-.77.75-1.08l.82.9c-.22.14-.39.34-.52.59-.13.26-.2.55-.2.87s.04.56.12.77c.08.2.19.37.31.49.13.12.26.21.41.26.15.05.28.08.41.08.35,0,.61-.1.8-.3.19-.2.34-.45.45-.75.12-.3.22-.62.31-.97.09-.35.22-.68.39-.97.17-.3.39-.55.67-.75.28-.2.67-.3,1.16-.3.39,0,.75.08,1.06.23.32.15.58.35.8.61.22.25.38.56.5.9s.17.72.17,1.11c0,.52-.09,1.02-.28,1.49-.18.47-.47.85-.86,1.12l-.79-.92Z"/><path class="cls-2" d="M647.01,889.76v-2.88c0-.53.07-.96.21-1.3.14-.34.32-.61.54-.81.22-.2.47-.33.74-.41s.54-.12.79-.12.52.04.79.12c.28.08.52.21.74.41.22.2.4.46.54.81.14.34.22.77.22,1.3v1.77h3.61v1.11h-8.2ZM650.63,888.65v-1.46c0-.22-.02-.43-.05-.64s-.1-.4-.19-.57-.23-.3-.4-.4-.4-.15-.68-.15-.5.05-.68.15-.31.23-.4.4-.16.36-.19.57-.05.43-.05.64v1.46h2.64Z"/><path class="cls-2" d="M649.72,883.16v-1.04h.85v-.02c-.15-.07-.28-.16-.4-.28s-.22-.25-.31-.39c-.08-.14-.15-.3-.2-.47-.05-.17-.08-.34-.08-.51s.02-.32.07-.46l1.12.05c-.02.08-.04.17-.06.25-.02.09-.02.17-.02.26,0,.51.14.9.43,1.17.29.27.73.41,1.33.41h2.76v1.04h-5.49Z"/><path class="cls-2" d="M652.47,879.35c-.4,0-.78-.08-1.12-.23s-.65-.36-.91-.62-.47-.57-.62-.93c-.15-.35-.22-.74-.22-1.15s.08-.79.22-1.15c.15-.35.36-.66.62-.93.26-.26.57-.47.91-.62.35-.15.72-.22,1.12-.22s.78.08,1.13.22c.35.15.66.36.91.62.26.26.46.57.61.93.15.35.23.74.23,1.15s-.08.79-.23,1.15c-.15.36-.35.66-.61.93-.26.26-.56.47-.91.62s-.73.23-1.13.23ZM652.47,878.23c.28,0,.54-.04.77-.13.24-.08.44-.2.6-.36.17-.15.3-.34.39-.57s.15-.48.15-.75-.05-.53-.15-.75c-.1-.22-.23-.41-.39-.57-.16-.15-.37-.27-.6-.36-.24-.08-.49-.13-.77-.13s-.54.04-.77.13c-.24.09-.44.21-.6.36-.16.15-.3.34-.39.57-.1.22-.15.48-.15.75s.05.53.15.75.23.41.39.57c.17.15.37.27.6.36.24.09.49.13.77.13Z"/><path class="cls-2" d="M651.1,869.28c-.15.12-.28.28-.39.46-.1.18-.16.4-.16.66,0,.25.05.46.16.64.11.18.26.27.46.27.16,0,.29-.05.39-.16.1-.11.18-.23.24-.37.06-.14.11-.3.14-.46.03-.16.06-.3.08-.42.05-.22.12-.44.2-.63s.18-.37.3-.51c.12-.14.27-.26.45-.34.18-.08.39-.12.65-.12.31,0,.57.06.79.2.22.13.4.3.54.51.14.21.24.45.3.71.06.27.09.54.09.81,0,.45-.07.85-.21,1.2-.14.34-.39.65-.76.92l-.65-.79c.17-.17.32-.36.45-.57.13-.21.2-.46.2-.76,0-.13-.01-.26-.04-.4-.03-.14-.07-.25-.13-.36-.06-.1-.13-.19-.22-.25-.09-.07-.19-.1-.31-.1-.15,0-.28.05-.38.14-.1.1-.18.21-.24.35s-.1.28-.14.43-.06.28-.09.4c-.05.22-.12.44-.18.64-.07.2-.16.38-.28.53-.12.16-.26.28-.44.37s-.4.14-.66.14c-.29,0-.54-.06-.75-.18-.21-.12-.39-.28-.53-.48-.14-.2-.24-.42-.31-.67s-.1-.5-.1-.76c0-.37.07-.72.21-1.06.14-.34.37-.61.7-.81l.61.81Z"/><path class="cls-2" d="M649.72,867.06v-1.04h.79v-.02c-.29-.2-.52-.48-.68-.83-.16-.35-.24-.71-.24-1.08,0-.42.07-.81.22-1.15.15-.34.35-.64.61-.88s.57-.43.92-.56c.35-.13.73-.2,1.13-.2s.79.07,1.14.2c.35.13.66.32.92.56.26.24.46.54.61.88.15.34.22.73.22,1.15,0,.39-.08.76-.25,1.11-.16.35-.39.61-.68.8v.02h4.05v1.04h-8.76ZM650.56,864.2c0,.28.05.53.15.75.1.22.23.41.39.57.17.15.37.28.6.36s.49.13.77.13.54-.04.77-.13.44-.21.6-.36c.17-.15.3-.34.39-.57.1-.22.15-.48.15-.75s-.05-.53-.15-.75c-.1-.22-.23-.41-.39-.57-.16-.15-.37-.28-.6-.36s-.49-.13-.77-.13-.54.04-.77.13-.44.21-.6.36c-.16.15-.3.34-.39.57-.1.22-.15.48-.15.75Z"/><path class="cls-2" d="M652.85,859.19c.24,0,.46-.05.65-.16.2-.11.36-.24.5-.41.14-.17.25-.37.32-.59.08-.22.12-.46.12-.7,0-.32-.08-.61-.23-.85-.15-.24-.35-.46-.6-.66l.6-.79c.75.58,1.12,1.39,1.12,2.43,0,.43-.07.82-.22,1.18-.15.35-.35.65-.61.89-.26.24-.56.43-.92.56-.35.13-.73.2-1.14.2s-.79-.07-1.14-.21c-.35-.14-.66-.34-.91-.59-.26-.25-.46-.55-.61-.9-.15-.35-.22-.73-.22-1.14,0-.49.08-.9.25-1.23.17-.34.39-.61.67-.83.27-.22.58-.37.93-.47s.69-.14,1.05-.14h.37v4.4ZM652.02,855.9c-.23,0-.44.05-.64.11-.19.07-.36.16-.5.3-.14.13-.25.29-.34.49-.08.2-.12.43-.12.69s.05.49.15.7.22.39.38.54c.15.15.33.26.52.34.19.08.38.12.56.12v-3.29Z"/><path class="cls-2" d="M651.18,849.6c-.2.19-.35.4-.46.61-.1.21-.16.46-.16.76s.05.53.16.75c.11.21.25.39.43.53.18.14.39.25.63.32s.48.11.74.11.5-.04.72-.13c.23-.08.43-.2.6-.36s.3-.34.4-.56c.1-.22.15-.46.15-.73,0-.29-.05-.55-.16-.75-.1-.21-.26-.4-.46-.58l.74-.74c.3.27.52.59.65.95.13.36.2.74.2,1.14,0,.42-.07.81-.21,1.16-.14.35-.33.65-.58.91s-.55.45-.9.59-.74.21-1.16.21-.81-.07-1.17-.21c-.35-.14-.66-.33-.92-.59-.25-.25-.45-.55-.6-.9-.14-.35-.21-.74-.21-1.18,0-.4.07-.79.21-1.15.14-.37.36-.69.65-.96l.72.79Z"/><path class="cls-2" d="M650.63,845.01v1.49h2.49c.15,0,.31,0,.46-.01.15,0,.29-.04.41-.09.12-.05.22-.13.29-.23.07-.1.11-.26.11-.46,0-.12-.01-.25-.04-.38-.02-.13-.07-.25-.13-.36h.95c.07.12.12.28.14.48.03.2.04.35.04.46,0,.4-.06.71-.17.93-.11.22-.26.38-.43.49-.18.1-.38.16-.6.18-.22.02-.44.03-.67.03h-2.86v1.21h-.9v-1.21h-1.54v-1.04h1.54v-1.49h.9Z"/><path class="cls-2" d="M653.5,839.93c.3-.2.52-.46.66-.77.14-.31.22-.64.22-.97,0-.19-.03-.38-.09-.57s-.15-.37-.26-.53-.26-.29-.43-.39c-.17-.1-.37-.15-.59-.15-.32,0-.56.1-.72.3-.17.2-.31.45-.42.75-.11.3-.22.62-.32.97s-.25.68-.44.97c-.18.3-.43.55-.75.75-.31.2-.74.3-1.27.3-.24,0-.49-.05-.76-.16-.27-.1-.52-.27-.74-.49-.22-.22-.41-.51-.56-.86-.15-.35-.23-.78-.23-1.27,0-.45.06-.88.18-1.29.12-.41.38-.77.75-1.08l.82.9c-.22.14-.39.34-.52.59-.13.26-.2.55-.2.87s.04.56.12.77c.08.2.19.37.31.49.13.12.26.21.41.26.15.05.28.08.41.08.35,0,.61-.1.8-.3.19-.2.34-.45.45-.75.12-.3.22-.62.31-.97.09-.35.22-.68.39-.97.17-.3.39-.55.67-.75.28-.2.67-.3,1.16-.3.39,0,.75.08,1.06.23.32.15.58.35.8.61.22.25.38.56.5.9s.17.72.17,1.11c0,.52-.09,1.02-.28,1.49-.18.47-.47.85-.86,1.12l-.79-.92Z"/><path class="cls-2" d="M650.63,831.06v1.49h2.49c.15,0,.31,0,.46-.01.15,0,.29-.04.41-.09.12-.05.22-.13.29-.23.07-.1.11-.26.11-.46,0-.12-.01-.25-.04-.38-.02-.13-.07-.25-.13-.36h.95c.07.12.12.28.14.48.03.2.04.35.04.46,0,.4-.06.71-.17.93-.11.22-.26.38-.43.49-.18.1-.38.16-.6.18-.22.02-.44.03-.67.03h-2.86v1.21h-.9v-1.21h-1.54v-1.04h1.54v-1.49h.9Z"/><path class="cls-2" d="M618.54,897.75c0,.8-.1,1.43-.28,1.88-.07.16-.17.22-.29.19l-.61-.17c-.17-.04-.22-.13-.16-.29.16-.43.24-.94.24-1.51,0-1.07-.38-1.59-1.16-1.59-.71,0-1.08.44-1.65,1.49-.34.62-.53.95-.95,1.36-.41.42-.94.61-1.61.61-1.46,0-2.18-.84-2.18-2.55,0-.67.08-1.21.25-1.65.06-.16.16-.23.29-.19l.6.17c.16.04.2.14.14.3-.12.36-.18.79-.18,1.28s.08.85.25,1.07c.18.23.46.34.84.34.35,0,.64-.11.91-.43.28-.32.37-.47.66-.97.32-.56.44-.77.78-1.19s.61-.59,1.09-.74c.24-.08.5-.12.78-.12,1.5,0,2.23,1,2.23,2.73Z"/><path class="cls-2" d="M614.81,889.65h3.39c.16,0,.24.08.24.24v.77c0,.16-.08.23-.24.23h-7.96c-.16,0-.23-.07-.23-.23v-3.85c0-.16.07-.23.22-.23h.66c.16,0,.24.07.24.23v2.84h2.6v-2.75c0-.16.07-.24.23-.24h.64c.14,0,.22.08.22.24v2.75Z"/><path class="cls-2" d="M611.11,884.26c.16,0,.23.07.23.2v.77c0,.14-.07.22-.23.22h-.84c-.16,0-.23-.07-.23-.22v-.77c0-.13.07-.2.23-.2h.84ZM618.23,884.28c.14,0,.22.07.22.22v.73c0,.14-.07.22-.22.22h-5.92c-.16,0-.23-.07-.23-.22v-.73c0-.14.07-.22.23-.22h5.92Z"/><path class="cls-2" d="M612.13,880.24c0-.13.07-.2.23-.2h.58c.14,0,.22.07.22.2v1.09h5.08c.13,0,.2.07.2.2v.72c0,.16-.07.23-.2.23h-5.08v.6c0,.13-.07.2-.22.2h-.58c-.16,0-.23-.07-.23-.2v-.6h-.48c-1.22,0-1.73-.52-1.73-1.61,0-.28.04-.52.1-.72.04-.1.11-.14.22-.14l.5-.02c.16,0,.22.06.2.2-.02.24-.04.4-.04.47,0,.48.22.67.83.67h.4v-1.09Z"/><path class="cls-2" d="M617.35,875.22c-.06-.13-.01-.23.14-.29l.49-.14c.12-.04.2.02.26.17.2.46.31.97.31,1.57,0,1.88-1.13,2.83-3.3,2.83s-3.3-.88-3.3-2.48,1.09-2.33,2.94-2.33h.62c.16,0,.23.07.23.23v3.43c1.2-.06,1.85-.68,1.85-1.76,0-.43-.08-.84-.25-1.22ZM614.87,878.22v-2.57h-.07c-1.26,0-1.88.41-1.88,1.22s.65,1.28,1.96,1.34Z"/><path class="cls-2" d="M618.54,868.65c0,.8-.1,1.43-.28,1.88-.07.16-.17.22-.29.19l-.61-.17c-.17-.04-.22-.13-.16-.29.16-.43.24-.94.24-1.51,0-1.07-.38-1.59-1.16-1.59-.71,0-1.08.44-1.65,1.49-.34.62-.53.95-.95,1.36-.41.42-.94.61-1.61.61-1.46,0-2.18-.84-2.18-2.55,0-.67.08-1.21.25-1.65.06-.16.16-.23.29-.19l.6.17c.16.04.2.14.14.3-.12.36-.18.79-.18,1.28s.08.85.25,1.07c.18.23.46.34.84.34.35,0,.64-.11.91-.43.28-.32.37-.47.66-.97.32-.56.44-.77.78-1.19s.61-.59,1.09-.74c.24-.08.5-.12.78-.12,1.5,0,2.23,1,2.23,2.73Z"/><path class="cls-2" d="M613.15,863.33h3.37c.76,0,.97-.13.97-.74,0-.14-.06-.32-.06-.37-.01-.11.06-.18.19-.2l.55-.08c.11-.01.18.05.23.17.07.2.11.46.11.76,0,1.19-.47,1.62-1.85,1.62h-3.51v.61c0,.16-.07.23-.22.23h-.58c-.16,0-.23-.07-.23-.23v-.62h-1.4c-.13,0-.2-.07-.2-.22v-.68c0-.16.07-.23.2-.23h1.4v-1.13c0-.16.07-.23.23-.23h.58c.14,0,.22.07.22.23v1.13Z"/><path class="cls-2" d="M617.24,861.05c-.14,0-.22-.07-.22-.23v-.82c0-.16.07-.23.22-.23h.97c.16,0,.23.07.23.21v.84c0,.14-.07.22-.23.22h-.97Z"/><path class="cls-2" d="M498.45,917.58c.3-.2.52-.46.66-.77.14-.31.22-.64.22-.97,0-.19-.03-.38-.09-.57s-.15-.37-.26-.53-.26-.29-.43-.39c-.17-.1-.37-.15-.59-.15-.32,0-.56.1-.72.3-.17.2-.31.45-.42.75-.11.3-.22.62-.32.97s-.25.68-.44.97c-.18.3-.43.55-.75.75-.31.2-.74.3-1.27.3-.24,0-.49-.05-.76-.16-.27-.1-.52-.27-.74-.49-.22-.22-.41-.51-.56-.86-.15-.35-.23-.78-.23-1.27,0-.45.06-.88.18-1.29.12-.41.38-.77.75-1.08l.82.9c-.22.14-.39.34-.52.59-.13.26-.2.55-.2.87s.04.56.12.77c.08.2.19.37.31.49.13.12.26.21.41.26.15.05.28.08.41.08.35,0,.61-.1.8-.3.19-.2.34-.45.45-.75.12-.3.22-.62.31-.97.09-.35.22-.68.39-.97.17-.3.39-.55.67-.75.28-.2.67-.3,1.16-.3.39,0,.75.08,1.06.23.32.15.58.35.8.61.22.25.38.56.5.9s.17.72.17,1.11c0,.52-.09,1.02-.28,1.49-.18.47-.47.85-.86,1.12l-.79-.92Z"/><path class="cls-2" d="M491.96,905.59v-1.01l8.2-3.51v1.3l-2.03.82v3.91l2.03.81v1.3l-8.2-3.61ZM497.16,903.6l-3.77,1.53v.02l3.77,1.55v-3.11Z"/><path class="cls-2" d="M494.67,900.27v-1.04h.85v-.02c-.29-.13-.53-.36-.71-.68-.18-.32-.27-.7-.27-1.12,0-.26.04-.52.12-.76.08-.24.21-.46.38-.64.17-.18.39-.32.65-.43s.58-.16.94-.16h3.53v1.04h-3.24c-.25,0-.47.04-.65.1-.18.07-.33.16-.44.28s-.19.25-.24.4c-.05.15-.08.31-.08.47,0,.22.04.42.11.6.07.19.18.35.33.49.15.14.34.25.57.32s.51.12.82.12h2.83v1.04h-5.49Z"/><path class="cls-2" d="M500.16,888.32v1.04h-.79v.02c.29.2.52.48.68.83.16.35.24.71.24,1.08,0,.43-.07.81-.22,1.15-.15.34-.35.64-.61.88-.26.24-.57.43-.92.56-.35.13-.73.2-1.14.2s-.79-.07-1.14-.2c-.35-.13-.66-.32-.91-.56-.26-.24-.46-.54-.61-.88-.15-.34-.22-.73-.22-1.15,0-.39.08-.76.25-1.11.16-.35.39-.61.68-.8v-.02h-4.05v-1.04h8.76ZM499.33,891.18c0-.28-.05-.53-.15-.75-.1-.22-.23-.41-.39-.57-.16-.15-.37-.27-.6-.36-.24-.08-.49-.13-.77-.13s-.54.04-.77.13c-.24.09-.44.21-.6.36-.16.15-.3.34-.39.57-.1.22-.15.48-.15.75s.05.53.15.75.23.41.39.57c.17.15.37.27.6.36.24.09.49.13.77.13s.54-.04.77-.13c.24-.08.44-.2.6-.36.17-.15.3-.34.39-.57s.15-.48.15-.75Z"/><path class="cls-2" d="M497.8,885.96c.24,0,.46-.05.65-.16.2-.11.36-.24.5-.41.14-.17.25-.37.32-.59.08-.22.12-.46.12-.7,0-.32-.08-.61-.23-.85-.15-.24-.35-.46-.6-.66l.6-.79c.75.58,1.12,1.39,1.12,2.43,0,.43-.07.82-.22,1.18-.15.35-.35.65-.61.89-.26.24-.56.43-.92.56-.35.13-.73.2-1.14.2s-.79-.07-1.14-.21c-.35-.14-.66-.34-.91-.59-.26-.25-.46-.55-.61-.9-.15-.35-.22-.73-.22-1.14,0-.49.08-.9.25-1.23.17-.34.39-.61.67-.83.27-.22.58-.37.93-.47s.69-.14,1.05-.14h.37v4.4ZM496.96,882.67c-.23,0-.44.05-.64.11-.19.07-.36.16-.5.3-.14.13-.25.29-.34.49-.08.2-.12.43-.12.69s.05.49.15.7.22.39.38.54c.15.15.33.26.52.34.19.08.38.12.56.12v-3.29Z"/><path class="cls-2" d="M494.67,880.31v-1.04h.85v-.02c-.15-.07-.28-.16-.4-.28s-.22-.25-.31-.39c-.08-.14-.15-.3-.2-.47-.05-.17-.08-.34-.08-.51s.02-.32.07-.46l1.12.05c-.02.08-.04.17-.06.25-.02.09-.02.17-.02.26,0,.51.14.9.43,1.17.29.27.73.41,1.33.41h2.76v1.04h-5.49Z"/><path class="cls-2" d="M496.05,873.1c-.15.12-.28.28-.39.46-.1.18-.16.4-.16.66,0,.25.05.46.16.64.11.18.26.27.46.27.16,0,.29-.05.39-.16.1-.11.18-.23.24-.37.06-.14.11-.3.14-.46.03-.16.06-.3.08-.42.05-.22.12-.44.2-.63s.18-.37.3-.51c.12-.14.27-.26.45-.34.18-.08.39-.12.65-.12.31,0,.57.06.79.2.22.13.4.3.54.51.14.21.24.45.3.71.06.27.09.54.09.81,0,.45-.07.85-.21,1.2-.14.34-.39.65-.76.92l-.65-.79c.17-.17.32-.36.45-.57.13-.21.2-.46.2-.76,0-.13-.01-.26-.04-.4-.03-.14-.07-.25-.13-.36-.06-.1-.13-.19-.22-.25-.09-.07-.19-.1-.31-.1-.15,0-.28.05-.38.14-.1.1-.18.21-.24.35s-.1.28-.14.43-.06.28-.09.4c-.05.22-.12.44-.18.64-.07.2-.16.38-.28.53-.12.16-.26.28-.44.37s-.4.14-.66.14c-.29,0-.54-.06-.75-.18-.21-.12-.39-.28-.53-.48-.14-.2-.24-.42-.31-.67s-.1-.5-.1-.76c0-.37.07-.72.21-1.06.14-.34.37-.61.7-.81l.61.81Z"/><path class="cls-2" d="M497.42,871.14c-.4,0-.78-.08-1.12-.23s-.65-.36-.91-.62-.47-.57-.62-.93c-.15-.35-.22-.74-.22-1.15s.08-.79.22-1.15c.15-.35.36-.66.62-.93.26-.26.57-.47.91-.62.35-.15.72-.22,1.12-.22s.78.08,1.13.22c.35.15.66.36.91.62.26.26.46.57.61.93.15.35.23.74.23,1.15s-.08.79-.23,1.15c-.15.36-.35.66-.61.93-.26.26-.56.47-.91.62s-.73.23-1.13.23ZM497.42,870.03c.28,0,.54-.04.77-.13.24-.08.44-.2.6-.36.17-.15.3-.34.39-.57s.15-.48.15-.75-.05-.53-.15-.75c-.1-.22-.23-.41-.39-.57-.16-.15-.37-.27-.6-.36-.24-.08-.49-.13-.77-.13s-.54.04-.77.13c-.24.09-.44.21-.6.36-.16.15-.3.34-.39.57-.1.22-.15.48-.15.75s.05.53.15.75.23.41.39.57c.17.15.37.27.6.36.24.09.49.13.77.13Z"/><path class="cls-2" d="M494.67,864v-1.04h.85v-.02c-.29-.13-.53-.36-.71-.68-.18-.32-.27-.7-.27-1.12,0-.26.04-.52.12-.76.08-.24.21-.46.38-.64.17-.18.39-.32.65-.43s.58-.16.94-.16h3.53v1.04h-3.24c-.25,0-.47.04-.65.1-.18.07-.33.16-.44.28s-.19.25-.24.4c-.05.15-.08.31-.08.47,0,.22.04.42.11.6.07.19.18.35.33.49.15.14.34.25.57.32s.51.12.82.12h2.83v1.04h-5.49Z"/><path class="cls-2" d="M498.45,853.82c.3-.2.52-.46.66-.77.14-.31.22-.64.22-.97,0-.19-.03-.38-.09-.57s-.15-.37-.26-.53-.26-.29-.43-.39c-.17-.1-.37-.15-.59-.15-.32,0-.56.1-.72.3-.17.2-.31.45-.42.75-.11.3-.22.62-.32.97s-.25.68-.44.97c-.18.3-.43.55-.75.75-.31.2-.74.3-1.27.3-.24,0-.49-.05-.76-.16-.27-.1-.52-.27-.74-.49-.22-.22-.41-.51-.56-.86-.15-.35-.23-.78-.23-1.27,0-.45.06-.88.18-1.29.12-.41.38-.77.75-1.08l.82.9c-.22.14-.39.34-.52.59-.13.26-.2.55-.2.87s.04.56.12.77c.08.2.19.37.31.49.13.12.26.21.41.26.15.05.28.08.41.08.35,0,.61-.1.8-.3.19-.2.34-.45.45-.75.12-.3.22-.62.31-.97.09-.35.22-.68.39-.97.17-.3.39-.55.67-.75.28-.2.67-.3,1.16-.3.39,0,.75.08,1.06.23.32.15.58.35.8.61.22.25.38.56.5.9s.17.72.17,1.11c0,.52-.09,1.02-.28,1.49-.18.47-.47.85-.86,1.12l-.79-.92Z"/><path class="cls-2" d="M495.57,844.95v1.49h2.49c.15,0,.31,0,.46-.01.15,0,.29-.04.41-.09.12-.05.22-.13.29-.23.07-.1.11-.26.11-.46,0-.12-.01-.25-.04-.38-.02-.13-.07-.25-.13-.36h.95c.07.12.12.28.14.48.03.2.04.35.04.46,0,.4-.06.71-.17.93-.11.22-.26.38-.43.49-.18.1-.38.16-.6.18-.22.02-.44.03-.67.03h-2.86v1.21h-.9v-1.21h-1.54v-1.04h1.54v-1.49h.9Z"/><path class="cls-2" d="M443.26,646.89c.3-.2.52-.46.66-.77.14-.31.22-.64.22-.97,0-.19-.03-.38-.09-.57s-.15-.37-.26-.53-.26-.29-.43-.39c-.17-.1-.37-.15-.59-.15-.32,0-.56.1-.72.3-.17.2-.31.45-.42.75-.11.3-.22.62-.32.97s-.25.68-.44.97c-.18.3-.43.55-.75.75-.31.2-.74.3-1.27.3-.24,0-.49-.05-.76-.16-.27-.1-.52-.27-.74-.49-.22-.22-.41-.51-.56-.86-.15-.35-.23-.78-.23-1.27,0-.45.06-.88.18-1.29.12-.41.38-.77.75-1.08l.82.9c-.22.14-.39.34-.52.59-.13.26-.2.55-.2.87s.04.56.12.77c.08.2.19.37.31.49.13.12.26.21.41.26.15.05.28.08.41.08.35,0,.61-.1.8-.3.19-.2.34-.45.45-.75.12-.3.22-.62.31-.97.09-.35.22-.68.39-.97.17-.3.39-.55.67-.75.28-.2.67-.3,1.16-.3.39,0,.75.08,1.06.23.32.15.58.35.8.61.22.25.38.56.5.9s.17.72.17,1.11c0,.52-.09,1.02-.28,1.49-.18.47-.47.85-.86,1.12l-.79-.92Z"/><path class="cls-2" d="M436.77,637.47v-2.88c0-.53.07-.96.21-1.3.14-.34.32-.61.54-.81.22-.2.47-.33.74-.41s.54-.12.79-.12.52.04.79.12c.28.08.52.21.74.41.22.2.4.46.54.81.14.34.22.77.22,1.3v1.77h3.61v1.11h-8.2ZM440.39,636.36v-1.46c0-.22-.02-.43-.05-.64s-.1-.4-.19-.57-.23-.3-.4-.4-.4-.15-.68-.15-.5.05-.68.15-.31.23-.4.4c-.09.17-.16.36-.19.57s-.05.43-.05.64v1.46h2.64Z"/><path class="cls-2" d="M437.51,631.03c-.21,0-.39-.08-.54-.22-.15-.15-.23-.33-.23-.54s.08-.39.23-.54c.15-.15.33-.22.54-.22s.39.08.54.22c.15.15.23.33.23.54s-.08.39-.23.54c-.15.15-.33.22-.54.22ZM439.48,630.79v-1.04h5.49v1.04h-5.49Z"/><path class="cls-2" d="M439.48,628.09v-1.04h.85v-.02c-.29-.13-.53-.36-.71-.68-.18-.32-.27-.7-.27-1.12,0-.26.04-.52.12-.76.08-.24.21-.46.38-.64.17-.18.39-.32.65-.43s.58-.16.94-.16h3.53v1.04h-3.24c-.25,0-.47.04-.65.1-.18.07-.33.16-.44.28s-.19.25-.24.4c-.05.15-.08.31-.08.47,0,.22.04.42.11.6.07.19.18.35.33.49.15.14.34.25.57.32s.51.12.82.12h2.83v1.04h-5.49Z"/><path class="cls-2" d="M442.61,620.86c.24,0,.46-.05.65-.16.2-.11.36-.24.5-.41.14-.17.25-.37.32-.59.08-.22.12-.46.12-.7,0-.32-.08-.61-.23-.85-.15-.24-.35-.46-.6-.66l.6-.79c.75.58,1.12,1.39,1.12,2.43,0,.43-.07.82-.22,1.18-.15.35-.35.65-.61.89-.26.24-.56.43-.92.56-.35.13-.73.2-1.14.2s-.79-.07-1.14-.21c-.35-.14-.66-.34-.91-.59-.26-.25-.46-.55-.61-.9-.15-.35-.22-.73-.22-1.14,0-.49.08-.9.25-1.23.17-.34.39-.61.67-.83.27-.22.58-.37.93-.47s.69-.14,1.05-.14h.37v4.4ZM441.78,617.57c-.23,0-.44.05-.64.11-.19.07-.36.16-.5.3-.14.13-.25.29-.34.49-.08.2-.12.43-.12.69s.05.49.15.7.22.39.38.54c.15.15.33.26.52.34.19.08.38.12.56.12v-3.29Z"/><path class="cls-2" d="M443.26,611.47c.3-.2.52-.46.66-.77.14-.31.22-.64.22-.97,0-.19-.03-.38-.09-.57s-.15-.37-.26-.53-.26-.29-.43-.39c-.17-.1-.37-.15-.59-.15-.32,0-.56.1-.72.3-.17.2-.31.45-.42.75-.11.3-.22.62-.32.97s-.25.68-.44.97c-.18.3-.43.55-.75.75-.31.2-.74.3-1.27.3-.24,0-.49-.05-.76-.16-.27-.1-.52-.27-.74-.49-.22-.22-.41-.51-.56-.86-.15-.35-.23-.78-.23-1.27,0-.45.06-.88.18-1.29.12-.41.38-.77.75-1.08l.82.9c-.22.14-.39.34-.52.59-.13.26-.2.55-.2.87s.04.56.12.77c.08.2.19.37.31.49.13.12.26.21.41.26.15.05.28.08.41.08.35,0,.61-.1.8-.3.19-.2.34-.45.45-.75.12-.3.22-.62.31-.97.09-.35.22-.68.39-.97.17-.3.39-.55.67-.75.28-.2.67-.3,1.16-.3.39,0,.75.08,1.06.23.32.15.58.35.8.61.22.25.38.56.5.9s.17.72.17,1.11c0,.52-.09,1.02-.28,1.49-.18.47-.47.85-.86,1.12l-.79-.92Z"/><path class="cls-2" d="M440.39,602.6v1.49h2.49c.15,0,.31,0,.46-.01.15,0,.29-.04.41-.09.12-.05.22-.13.29-.23.07-.1.11-.26.11-.46,0-.12-.01-.25-.04-.38-.02-.13-.07-.25-.13-.36h.95c.07.12.12.28.14.48.03.2.04.35.04.46,0,.4-.06.71-.17.93-.11.22-.26.38-.43.49-.18.1-.38.16-.6.18-.22.02-.44.03-.67.03h-2.86v1.21h-.9v-1.21h-1.54v-1.04h1.54v-1.49h.9Z"/><path class="cls-2" d="M313.52,723.14c.3-.2.52-.46.66-.77.14-.31.22-.64.22-.97,0-.19-.03-.38-.09-.57s-.15-.37-.26-.53-.26-.29-.43-.39c-.17-.1-.37-.15-.59-.15-.32,0-.56.1-.72.3-.17.2-.31.45-.42.75-.11.3-.22.62-.32.97s-.25.68-.44.97c-.18.3-.43.55-.75.75-.31.2-.74.3-1.27.3-.24,0-.49-.05-.76-.16-.27-.1-.52-.27-.74-.49-.22-.22-.41-.51-.56-.86-.15-.35-.23-.78-.23-1.27,0-.45.06-.88.18-1.29.12-.41.38-.77.75-1.08l.82.9c-.22.14-.39.34-.52.59-.13.26-.2.55-.2.87s.04.56.12.77c.08.2.19.37.31.49.13.12.26.21.41.26.15.05.28.08.41.08.35,0,.61-.1.8-.3.19-.2.34-.45.45-.75.12-.3.22-.62.31-.97.09-.35.22-.68.39-.97.17-.3.39-.55.67-.75.28-.2.67-.3,1.16-.3.39,0,.75.08,1.06.23.32.15.58.35.8.61.22.25.38.56.5.9s.17.72.17,1.11c0,.52-.09,1.02-.28,1.49-.18.47-.47.85-.86,1.12l-.79-.92Z"/><path class="cls-2" d="M308.8,708c-.3.23-.53.53-.69.88-.16.36-.24.72-.24,1.1,0,.46.09.88.26,1.26.17.38.41.69.71.96.3.27.65.47,1.06.62.41.15.84.22,1.3.22.43,0,.84-.07,1.23-.21s.73-.34,1.02-.6.52-.58.69-.96c.17-.38.26-.81.26-1.29s-.1-.88-.29-1.24c-.19-.35-.46-.66-.81-.9l.71-.94c.09.06.21.17.36.32s.32.36.48.61.3.56.42.92c.12.36.18.77.18,1.25,0,.65-.12,1.23-.37,1.75-.25.52-.57.97-.97,1.33s-.86.65-1.36.84-1.02.29-1.54.29c-.63,0-1.22-.11-1.76-.31-.54-.21-1-.5-1.39-.87-.39-.38-.69-.82-.91-1.35-.22-.52-.32-1.1-.32-1.74,0-.54.1-1.07.31-1.59s.53-.95.96-1.28l.71.93Z"/><path class="cls-2" d="M312.87,705.04c.24,0,.46-.05.65-.16.2-.11.36-.24.5-.41.14-.17.25-.37.32-.59.08-.22.12-.46.12-.7,0-.32-.08-.61-.23-.85-.15-.24-.35-.46-.6-.66l.6-.79c.75.58,1.12,1.39,1.12,2.43,0,.43-.07.82-.22,1.18-.15.35-.35.65-.61.89-.26.24-.56.43-.92.56-.35.13-.73.2-1.14.2s-.79-.07-1.14-.21c-.35-.14-.66-.34-.91-.59-.26-.25-.46-.55-.61-.9-.15-.35-.22-.73-.22-1.14,0-.49.08-.9.25-1.23.17-.34.39-.61.67-.83.27-.22.58-.37.93-.47s.69-.14,1.05-.14h.37v4.4ZM312.04,701.75c-.23,0-.44.05-.64.11-.19.07-.36.16-.5.3-.14.13-.25.29-.34.49-.08.2-.12.43-.12.69s.05.49.15.7.22.39.38.54c.15.15.33.26.52.34.19.08.38.12.56.12v-3.29Z"/><path class="cls-2" d="M315.23,693.88v1.04h-.79v.02c.29.2.52.48.68.83.16.35.24.71.24,1.08,0,.43-.07.81-.22,1.15-.15.34-.35.64-.61.88-.26.24-.57.43-.92.56-.35.13-.73.2-1.14.2s-.79-.07-1.14-.2c-.35-.13-.66-.32-.91-.56-.26-.24-.46-.54-.61-.88-.15-.34-.22-.73-.22-1.15,0-.39.08-.76.25-1.11.16-.35.39-.61.68-.8v-.02h-4.05v-1.04h8.76ZM314.4,696.73c0-.28-.05-.53-.15-.75-.1-.22-.23-.41-.39-.57-.16-.15-.37-.27-.6-.36-.24-.08-.49-.13-.77-.13s-.54.04-.77.13c-.24.09-.44.21-.6.36-.16.15-.3.34-.39.57-.1.22-.15.48-.15.75s.05.53.15.75.23.41.39.57c.17.15.37.27.6.36.24.09.49.13.77.13s.54-.04.77-.13c.24-.08.44-.2.6-.36.17-.15.3-.34.39-.57s.15-.48.15-.75Z"/><path class="cls-2" d="M310.41,692.28c-.27-.29-.47-.63-.61-1.02s-.2-.77-.2-1.16.05-.75.15-1.04c.1-.29.24-.53.41-.71.17-.19.36-.32.58-.41.22-.09.45-.13.69-.13h2.8c.19,0,.37,0,.53-.01.16,0,.32-.02.46-.04v.93c-.28.02-.56.03-.83.03v.02c.35.23.61.51.75.82.15.32.22.68.22,1.1,0,.25-.04.5-.1.73-.07.23-.17.44-.31.61-.14.17-.31.31-.52.41-.21.1-.44.15-.71.15-.36,0-.65-.08-.89-.24-.24-.16-.44-.37-.58-.65-.15-.28-.26-.59-.32-.96-.07-.37-.1-.76-.1-1.18v-.76h-.23c-.14,0-.28.03-.42.08-.14.05-.26.14-.38.24-.11.11-.2.24-.27.41-.06.16-.1.36-.1.58,0,.2.02.38.06.53s.09.29.15.41c.06.12.12.24.2.34s.15.2.22.29l-.65.63ZM312.59,689.34c0,.25.01.5.04.76.03.26.08.49.16.71s.18.39.32.52c.14.14.32.2.53.2.32,0,.55-.11.68-.32s.21-.5.21-.86c0-.29-.05-.53-.15-.73-.1-.2-.22-.36-.38-.49-.15-.12-.33-.21-.52-.27s-.38-.08-.56-.08h-.35v.56Z"/><path class="cls-2" d="M309.74,686.29v-1.04h.85v-.02c-.15-.07-.28-.16-.4-.28s-.22-.25-.31-.39c-.08-.14-.15-.3-.2-.47-.05-.17-.08-.34-.08-.51s.02-.32.07-.46l1.12.05c-.02.08-.04.17-.06.25-.02.09-.02.17-.02.26,0,.51.14.9.43,1.17.29.27.73.41,1.33.41h2.76v1.04h-5.49Z"/><path class="cls-2" d="M313.52,678.27c.3-.2.52-.46.66-.77.14-.31.22-.64.22-.97,0-.19-.03-.38-.09-.57s-.15-.37-.26-.53-.26-.29-.43-.39c-.17-.1-.37-.15-.59-.15-.32,0-.56.1-.72.3-.17.2-.31.45-.42.75-.11.3-.22.62-.32.97s-.25.68-.44.97c-.18.3-.43.55-.75.75-.31.2-.74.3-1.27.3-.24,0-.49-.05-.76-.16-.27-.1-.52-.27-.74-.49-.22-.22-.41-.51-.56-.86-.15-.35-.23-.78-.23-1.27,0-.45.06-.88.18-1.29.12-.41.38-.77.75-1.08l.82.9c-.22.14-.39.34-.52.59-.13.26-.2.55-.2.87s.04.56.12.77c.08.2.19.37.31.49.13.12.26.21.41.26.15.05.28.08.41.08.35,0,.61-.1.8-.3.19-.2.34-.45.45-.75.12-.3.22-.62.31-.97.09-.35.22-.68.39-.97.17-.3.39-.55.67-.75.28-.2.67-.3,1.16-.3.39,0,.75.08,1.06.23.32.15.58.35.8.61.22.25.38.56.5.9s.17.72.17,1.11c0,.52-.09,1.02-.28,1.49-.18.47-.47.85-.86,1.12l-.79-.92Z"/><path class="cls-2" d="M310.65,669.4v1.49h2.49c.15,0,.31,0,.46-.01.15,0,.29-.04.41-.09.12-.05.22-.13.29-.23.07-.1.11-.26.11-.46,0-.12-.01-.25-.04-.38-.02-.13-.07-.25-.13-.36h.95c.07.12.12.28.14.48.03.2.04.35.04.46,0,.4-.06.71-.17.93-.11.22-.26.38-.43.49-.18.1-.38.16-.6.18-.22.02-.44.03-.67.03h-2.86v1.21h-.9v-1.21h-1.54v-1.04h1.54v-1.49h.9Z"/><path class="cls-2" d="M563.21,646.89c.3-.2.52-.46.66-.77.14-.31.22-.64.22-.97,0-.19-.03-.38-.09-.57s-.15-.37-.26-.53-.26-.29-.43-.39c-.17-.1-.37-.15-.59-.15-.32,0-.56.1-.72.3-.17.2-.31.45-.42.75-.11.3-.22.62-.32.97s-.25.68-.44.97c-.18.3-.43.55-.75.75-.31.2-.74.3-1.27.3-.24,0-.49-.05-.76-.16-.27-.1-.52-.27-.74-.49-.22-.22-.41-.51-.56-.86-.15-.35-.23-.78-.23-1.27,0-.45.06-.88.18-1.29.12-.41.38-.77.75-1.08l.82.9c-.22.14-.39.34-.52.59-.13.26-.2.55-.2.87s.04.56.12.77c.08.2.19.37.31.49.13.12.26.21.41.26.15.05.28.08.41.08.35,0,.61-.1.8-.3.19-.2.34-.45.45-.75.12-.3.22-.62.31-.97.09-.35.22-.68.39-.97.17-.3.39-.55.67-.75.28-.2.67-.3,1.16-.3.39,0,.75.08,1.06.23.32.15.58.35.8.61.22.25.38.56.5.9s.17.72.17,1.11c0,.52-.09,1.02-.28,1.49-.18.47-.47.85-.86,1.12l-.79-.92Z"/><path class="cls-2" d="M565.14,633.71c0,.62-.11,1.2-.33,1.73-.22.52-.52.98-.91,1.35-.39.38-.84.67-1.37.88s-1.09.32-1.7.32-1.18-.11-1.7-.32c-.53-.21-.98-.51-1.37-.88-.39-.37-.69-.82-.91-1.35-.22-.53-.33-1.1-.33-1.73s.11-1.2.33-1.73c.22-.52.52-.98.91-1.35.39-.38.84-.67,1.37-.88.52-.21,1.09-.32,1.7-.32s1.18.11,1.7.32.98.51,1.37.88c.39.37.69.82.91,1.35.22.52.33,1.1.33,1.73ZM564.09,633.71c0-.47-.09-.9-.26-1.28-.17-.38-.41-.7-.7-.97-.29-.27-.64-.48-1.04-.63-.4-.15-.82-.22-1.27-.22s-.87.07-1.27.22c-.4.15-.74.36-1.04.63-.29.27-.53.59-.7.97-.17.38-.26.8-.26,1.28s.09.9.26,1.27c.17.38.41.7.7.97.29.27.64.48,1.04.63.4.15.82.22,1.27.22s.87-.07,1.27-.22c.4-.15.74-.36,1.04-.63.29-.27.53-.59.7-.97.17-.38.26-.8.26-1.27Z"/><path class="cls-2" d="M560.11,628.08c-.27-.29-.47-.63-.61-1.02s-.2-.77-.2-1.16.05-.75.15-1.04c.1-.29.24-.53.41-.71.17-.19.36-.32.58-.41.22-.09.45-.13.69-.13h2.8c.19,0,.37,0,.53-.01.16,0,.32-.02.46-.04v.93c-.28.02-.56.03-.83.03v.02c.35.23.61.51.75.82.15.32.22.68.22,1.1,0,.25-.04.5-.1.73-.07.23-.17.44-.31.61-.14.17-.31.31-.52.41-.21.1-.44.15-.71.15-.36,0-.65-.08-.89-.24-.24-.16-.44-.37-.58-.65-.15-.28-.26-.59-.32-.96-.07-.37-.1-.76-.1-1.18v-.76h-.23c-.14,0-.28.03-.42.08-.14.05-.26.14-.38.24-.11.11-.2.24-.27.41-.06.16-.1.36-.1.58,0,.2.02.38.06.53s.09.29.15.41c.06.12.12.24.2.34s.15.2.22.29l-.65.63ZM562.28,625.13c0,.25.01.5.04.76.03.26.08.49.16.71s.18.39.32.52c.14.14.32.2.53.2.32,0,.55-.11.68-.32s.21-.5.21-.86c0-.29-.05-.53-.15-.73-.1-.2-.22-.36-.38-.49-.15-.12-.33-.21-.52-.27s-.38-.08-.56-.08h-.35v.56Z"/><path class="cls-2" d="M556.17,622.09v-1.04h5.65l-2.38-2.37v-1.45l2.49,2.56,2.99-2.78v1.48l-2.85,2.55h2.85v1.04h-8.76Z"/><path class="cls-2" d="M562.56,615.29c.24,0,.46-.05.65-.16.2-.11.36-.24.5-.41.14-.17.25-.37.32-.59.08-.22.12-.46.12-.7,0-.32-.08-.61-.23-.85-.15-.24-.35-.46-.6-.66l.6-.79c.75.58,1.12,1.39,1.12,2.43,0,.43-.07.82-.22,1.18-.15.35-.35.65-.61.89-.26.24-.56.43-.92.56-.35.13-.73.2-1.14.2s-.79-.07-1.14-.21c-.35-.14-.66-.34-.91-.59-.26-.25-.46-.55-.61-.9-.15-.35-.22-.73-.22-1.14,0-.49.08-.9.25-1.23.17-.34.39-.61.67-.83.27-.22.58-.37.93-.47s.69-.14,1.05-.14h.37v4.4ZM561.73,611.99c-.23,0-.44.05-.64.11-.19.07-.36.16-.5.3-.14.13-.25.29-.34.49-.08.2-.12.43-.12.69s.05.49.15.7.22.39.38.54c.15.15.33.26.52.34.19.08.38.12.56.12v-3.29Z"/><path class="cls-2" d="M560.81,606.71c-.15.12-.28.28-.39.46-.1.18-.16.4-.16.66,0,.25.05.46.16.64.11.18.26.27.46.27.16,0,.29-.05.39-.16.1-.11.18-.23.24-.37.06-.14.11-.3.14-.46.03-.16.06-.3.08-.42.05-.22.12-.44.2-.63s.18-.37.3-.51c.12-.14.27-.26.45-.34.18-.08.39-.12.65-.12.31,0,.57.06.79.2.22.13.4.3.54.51.14.21.24.45.3.71.06.27.09.54.09.81,0,.45-.07.85-.21,1.2-.14.34-.39.65-.76.92l-.65-.79c.17-.17.32-.36.45-.57.13-.21.2-.46.2-.76,0-.13-.01-.26-.04-.4-.03-.14-.07-.25-.13-.36-.06-.1-.13-.19-.22-.25-.09-.07-.19-.1-.31-.1-.15,0-.28.05-.38.14-.1.1-.18.21-.24.35s-.1.28-.14.43-.06.28-.09.4c-.05.22-.12.44-.18.64-.07.2-.16.38-.28.53-.12.16-.26.28-.44.37s-.4.14-.66.14c-.29,0-.54-.06-.75-.18-.21-.12-.39-.28-.53-.48-.14-.2-.24-.42-.31-.67s-.1-.5-.1-.76c0-.37.07-.72.21-1.06.14-.34.37-.61.7-.81l.61.81Z"/><path class="cls-2" d="M563.21,600.76c.3-.2.52-.46.66-.77.14-.31.22-.64.22-.97,0-.19-.03-.38-.09-.57s-.15-.37-.26-.53-.26-.29-.43-.39c-.17-.1-.37-.15-.59-.15-.32,0-.56.1-.72.3-.17.2-.31.45-.42.75-.11.3-.22.62-.32.97s-.25.68-.44.97c-.18.3-.43.55-.75.75-.31.2-.74.3-1.27.3-.24,0-.49-.05-.76-.16-.27-.1-.52-.27-.74-.49-.22-.22-.41-.51-.56-.86-.15-.35-.23-.78-.23-1.27,0-.45.06-.88.18-1.29.12-.41.38-.77.75-1.08l.82.9c-.22.14-.39.34-.52.59-.13.26-.2.55-.2.87s.04.56.12.77c.08.2.19.37.31.49.13.12.26.21.41.26.15.05.28.08.41.08.35,0,.61-.1.8-.3.19-.2.34-.45.45-.75.12-.3.22-.62.31-.97.09-.35.22-.68.39-.97.17-.3.39-.55.67-.75.28-.2.67-.3,1.16-.3.39,0,.75.08,1.06.23.32.15.58.35.8.61.22.25.38.56.5.9s.17.72.17,1.11c0,.52-.09,1.02-.28,1.49-.18.47-.47.85-.86,1.12l-.79-.92Z"/><path class="cls-2" d="M560.34,591.88v1.49h2.49c.15,0,.31,0,.46-.01.15,0,.29-.04.41-.09.12-.05.22-.13.29-.23.07-.1.11-.26.11-.46,0-.12-.01-.25-.04-.38-.02-.13-.07-.25-.13-.36h.95c.07.12.12.28.14.48.03.2.04.35.04.46,0,.4-.06.71-.17.93-.11.22-.26.38-.43.49-.18.1-.38.16-.6.18-.22.02-.44.03-.67.03h-2.86v1.21h-.9v-1.21h-1.54v-1.04h1.54v-1.49h.9Z"/><path class="cls-2" d="M782.7,652.16c.3-.2.52-.46.66-.77.14-.31.22-.64.22-.97,0-.19-.03-.38-.09-.57s-.15-.37-.26-.53-.26-.29-.43-.39c-.17-.1-.37-.15-.59-.15-.32,0-.56.1-.72.3-.17.2-.31.45-.42.75-.11.3-.22.62-.32.97s-.25.68-.44.97c-.18.3-.43.55-.75.75-.31.2-.74.3-1.27.3-.24,0-.49-.05-.76-.16-.27-.1-.52-.27-.74-.49-.22-.22-.41-.51-.56-.86-.15-.35-.23-.78-.23-1.27,0-.45.06-.88.18-1.29.12-.41.38-.77.75-1.08l.82.9c-.22.14-.39.34-.52.59-.13.26-.2.55-.2.87s.04.56.12.77c.08.2.19.37.31.49.13.12.26.21.41.26.15.05.28.08.41.08.35,0,.61-.1.8-.3.19-.2.34-.45.45-.75.12-.3.22-.62.31-.97.09-.35.22-.68.39-.97.17-.3.39-.55.67-.75.28-.2.67-.3,1.16-.3.39,0,.75.08,1.06.23.32.15.58.35.8.61.22.25.38.56.5.9s.17.72.17,1.11c0,.52-.09,1.02-.28,1.49-.18.47-.47.85-.86,1.12l-.79-.92Z"/><path class="cls-2" d="M777.26,641.02v2.64h-1.04v-6.4h1.04v2.64h7.16v1.11h-7.16Z"/><path class="cls-2" d="M778.93,637.42v-1.04h.85v-.02c-.15-.07-.28-.16-.4-.28s-.22-.25-.31-.39c-.08-.14-.15-.3-.2-.47-.05-.17-.08-.34-.08-.51s.02-.32.07-.46l1.12.05c-.02.08-.04.17-.06.25-.02.09-.02.17-.02.26,0,.51.14.9.43,1.17.29.27.73.41,1.33.41h2.76v1.04h-5.49Z"/><path class="cls-2" d="M779.6,633.11c-.27-.29-.47-.63-.61-1.02s-.2-.77-.2-1.16.05-.75.15-1.04c.1-.29.24-.53.41-.71.17-.19.36-.32.58-.41.22-.09.45-.13.69-.13h2.8c.19,0,.37,0,.53-.01.16,0,.32-.02.46-.04v.93c-.28.02-.56.03-.83.03v.02c.35.23.61.51.75.82.15.32.22.68.22,1.1,0,.25-.04.5-.1.73-.07.23-.17.44-.31.61-.14.17-.31.31-.52.41-.21.1-.44.15-.71.15-.36,0-.65-.08-.89-.24-.24-.16-.44-.37-.58-.65-.15-.28-.26-.59-.32-.96-.07-.37-.1-.76-.1-1.18v-.76h-.23c-.14,0-.28.03-.42.08-.14.05-.26.14-.38.24-.11.11-.2.24-.27.41-.06.16-.1.36-.1.58,0,.2.02.38.06.53s.09.29.15.41c.06.12.12.24.2.34s.15.2.22.29l-.65.63ZM781.78,630.16c0,.25.01.5.04.76.03.26.08.49.16.71s.18.39.32.52c.14.14.32.2.53.2.32,0,.55-.11.68-.32s.21-.5.21-.86c0-.29-.05-.53-.15-.73-.1-.2-.22-.36-.38-.49-.15-.12-.33-.21-.52-.27s-.38-.08-.56-.08h-.35v.56Z"/><path class="cls-2" d="M779.83,626.71v1.18h-.9v-1.18h-1.23c-.73,0-1.28-.14-1.64-.42-.36-.28-.54-.77-.54-1.45,0-.12,0-.24.01-.36s.03-.26.07-.41l.93.12c-.04.1-.06.2-.08.29s-.02.19-.02.3c0,.19.03.35.09.46s.14.21.25.27c.11.06.24.11.39.13s.32.03.52.03h1.26v-1.24h.9v1.25h4.59v1.04h-4.59Z"/><path class="cls-2" d="M779.83,620.32v1.49h2.49c.15,0,.31,0,.46-.01.15,0,.29-.04.41-.09.12-.05.22-.13.29-.23.07-.1.11-.26.11-.46,0-.12-.01-.25-.04-.38-.02-.13-.07-.25-.13-.36h.95c.07.12.12.28.14.48.03.2.04.35.04.46,0,.4-.06.71-.17.93-.11.22-.26.38-.43.49-.18.1-.38.16-.6.18-.22.02-.44.03-.67.03h-2.86v1.21h-.9v-1.21h-1.54v-1.04h1.54v-1.49h.9Z"/><path class="cls-2" d="M781.67,619.24c-.4,0-.78-.08-1.12-.23s-.65-.36-.91-.62-.47-.57-.62-.93c-.15-.35-.22-.74-.22-1.15s.08-.79.22-1.15c.15-.35.36-.66.62-.93.26-.26.57-.47.91-.62.35-.15.72-.22,1.12-.22s.78.08,1.13.22c.35.15.66.36.91.62.26.26.46.57.61.93.15.35.23.74.23,1.15s-.08.79-.23,1.15c-.15.36-.35.66-.61.93-.26.26-.56.47-.91.62s-.73.23-1.13.23ZM781.67,618.13c.28,0,.54-.04.77-.13.24-.08.44-.2.6-.36.17-.15.3-.34.39-.57s.15-.48.15-.75-.05-.53-.15-.75c-.1-.22-.23-.41-.39-.57-.16-.15-.37-.27-.6-.36-.24-.08-.49-.13-.77-.13s-.54.04-.77.13c-.24.09-.44.21-.6.36-.16.15-.3.34-.39.57-.1.22-.15.48-.15.75s.05.53.15.75.23.41.39.57c.17.15.37.27.6.36.24.09.49.13.77.13Z"/><path class="cls-2" d="M778.93,612.09v-1.04h.85v-.02c-.29-.13-.53-.36-.71-.68-.18-.32-.27-.7-.27-1.12,0-.26.04-.52.12-.76.08-.24.21-.46.38-.64.17-.18.39-.32.65-.43s.58-.16.94-.16h3.53v1.04h-3.24c-.25,0-.47.04-.65.1-.18.07-.33.16-.44.28s-.19.25-.24.4c-.05.15-.08.31-.08.47,0,.22.04.42.11.6.07.19.18.35.33.49.15.14.34.25.57.32s.51.12.82.12h2.83v1.04h-5.49Z"/><path class="cls-2" d="M782.7,601.92c.3-.2.52-.46.66-.77.14-.31.22-.64.22-.97,0-.19-.03-.38-.09-.57s-.15-.37-.26-.53-.26-.29-.43-.39c-.17-.1-.37-.15-.59-.15-.32,0-.56.1-.72.3-.17.2-.31.45-.42.75-.11.3-.22.62-.32.97s-.25.68-.44.97c-.18.3-.43.55-.75.75-.31.2-.74.3-1.27.3-.24,0-.49-.05-.76-.16-.27-.1-.52-.27-.74-.49-.22-.22-.41-.51-.56-.86-.15-.35-.23-.78-.23-1.27,0-.45.06-.88.18-1.29.12-.41.38-.77.75-1.08l.82.9c-.22.14-.39.34-.52.59-.13.26-.2.55-.2.87s.04.56.12.77c.08.2.19.37.31.49.13.12.26.21.41.26.15.05.28.08.41.08.35,0,.61-.1.8-.3.19-.2.34-.45.45-.75.12-.3.22-.62.31-.97.09-.35.22-.68.39-.97.17-.3.39-.55.67-.75.28-.2.67-.3,1.16-.3.39,0,.75.08,1.06.23.32.15.58.35.8.61.22.25.38.56.5.9s.17.72.17,1.11c0,.52-.09,1.02-.28,1.49-.18.47-.47.85-.86,1.12l-.79-.92Z"/><path class="cls-2" d="M779.83,593.04v1.49h2.49c.15,0,.31,0,.46-.01.15,0,.29-.04.41-.09.12-.05.22-.13.29-.23.07-.1.11-.26.11-.46,0-.12-.01-.25-.04-.38-.02-.13-.07-.25-.13-.36h.95c.07.12.12.28.14.48.03.2.04.35.04.46,0,.4-.06.71-.17.93-.11.22-.26.38-.43.49-.18.1-.38.16-.6.18-.22.02-.44.03-.67.03h-2.86v1.21h-.9v-1.21h-1.54v-1.04h1.54v-1.49h.9Z"/><path class="cls-2" d="M514.29,874.18c.2.3.46.52.77.66.31.14.64.22.97.22.19,0,.38-.03.57-.09s.37-.15.53-.26.29-.26.39-.43c.1-.17.15-.37.15-.59,0-.32-.1-.56-.3-.72-.2-.17-.45-.31-.75-.42-.3-.11-.62-.22-.97-.32s-.68-.25-.97-.44c-.3-.18-.55-.43-.75-.75-.2-.31-.3-.74-.3-1.27,0-.24.05-.49.16-.76.1-.27.27-.52.49-.74.22-.22.51-.41.86-.56.35-.15.78-.23,1.27-.23.45,0,.88.06,1.29.18.41.12.77.38,1.08.75l-.9.82c-.14-.22-.34-.39-.59-.52-.26-.13-.55-.2-.87-.2s-.56.04-.77.12c-.2.08-.37.19-.49.31-.12.13-.21.26-.26.41-.05.15-.08.28-.08.41,0,.35.1.61.3.8.2.19.45.34.75.45.3.12.62.22.97.31.35.09.68.22.97.39.3.17.55.39.75.67.2.28.3.67.3,1.16,0,.39-.08.75-.23,1.06-.15.32-.35.58-.61.8-.25.22-.56.38-.9.5s-.72.17-1.11.17c-.52,0-1.02-.09-1.49-.28-.47-.18-.85-.47-1.12-.86l.92-.79Z"/><path class="cls-2" d="M525.78,868.96l-1.51,1.39-.65-.78,2.28-1.89h.98v8.2h-1.11v-6.93Z"/><path class="cls-2" d="M532.22,868.96l-1.51,1.39-.65-.78,2.28-1.89h.98v8.2h-1.11v-6.93Z"/><path class="cls-2" d="M539.26,871.3h-1.49v2.49c0,.15,0,.31.01.46,0,.15.04.29.09.41.05.12.13.22.23.29.1.07.26.11.46.11.12,0,.25-.01.38-.04.13-.02.25-.07.36-.13v.95c-.12.07-.28.12-.48.14-.2.03-.35.04-.46.04-.4,0-.71-.06-.93-.17-.22-.11-.38-.26-.49-.43-.1-.18-.16-.38-.18-.6-.02-.22-.03-.44-.03-.67v-2.86h-1.21v-.9h1.21v-1.54h1.04v1.54h1.49v.9Z"/><path class="cls-2" d="M540.61,867.13h1.04v4.11h.02c.13-.29.36-.53.68-.71.32-.18.7-.27,1.12-.27.26,0,.52.04.76.12.24.08.46.21.64.38.18.17.32.39.43.65s.16.58.16.94v3.53h-1.04v-3.24c0-.25-.04-.47-.1-.65-.07-.18-.16-.33-.28-.44s-.25-.19-.4-.24c-.15-.05-.31-.08-.47-.08-.22,0-.42.04-.6.11-.19.07-.35.18-.49.33-.14.15-.25.34-.32.57s-.12.51-.12.82v2.83h-1.04v-8.76Z"/><path class="cls-2" d="M550.78,874.18c.2.3.46.52.77.66.31.14.64.22.97.22.19,0,.38-.03.57-.09s.37-.15.53-.26.29-.26.39-.43c.1-.17.15-.37.15-.59,0-.32-.1-.56-.3-.72-.2-.17-.45-.31-.75-.42-.3-.11-.62-.22-.97-.32s-.68-.25-.97-.44c-.3-.18-.55-.43-.75-.75-.2-.31-.3-.74-.3-1.27,0-.24.05-.49.16-.76.1-.27.27-.52.49-.74.22-.22.51-.41.86-.56.35-.15.78-.23,1.27-.23.45,0,.88.06,1.29.18.41.12.77.38,1.08.75l-.9.82c-.14-.22-.34-.39-.59-.52-.26-.13-.55-.2-.87-.2s-.56.04-.77.12c-.2.08-.37.19-.49.31-.12.13-.21.26-.26.41-.05.15-.08.28-.08.41,0,.35.1.61.3.8.2.19.45.34.75.45.3.12.62.22.97.31.35.09.68.22.97.39.3.17.55.39.75.67.2.28.3.67.3,1.16,0,.39-.08.75-.23,1.06-.15.32-.35.58-.61.8-.25.22-.56.38-.9.5s-.72.17-1.11.17c-.52,0-1.02-.09-1.49-.28-.47-.18-.85-.47-1.12-.86l.92-.79Z"/><path class="cls-2" d="M559.65,871.3h-1.49v2.49c0,.15,0,.31.01.46,0,.15.04.29.09.41.05.12.13.22.23.29.1.07.26.11.46.11.12,0,.25-.01.38-.04.13-.02.25-.07.36-.13v.95c-.12.07-.28.12-.48.14-.2.03-.35.04-.46.04-.4,0-.71-.06-.93-.17-.22-.11-.38-.26-.49-.43-.1-.18-.16-.38-.18-.6-.02-.22-.03-.44-.03-.67v-2.86h-1.21v-.9h1.21v-1.54h1.04v1.54h1.49v.9Z"/><path class="cls-2" d="M719.88,900.59c.3-.2.52-.46.66-.77.14-.31.22-.64.22-.97,0-.19-.03-.38-.09-.57s-.15-.37-.26-.53-.26-.29-.43-.39c-.17-.1-.37-.15-.59-.15-.32,0-.56.1-.72.3-.17.2-.31.45-.42.75-.11.3-.22.62-.32.97s-.25.68-.44.97c-.18.3-.43.55-.75.75-.31.2-.74.3-1.27.3-.24,0-.49-.05-.76-.16-.27-.1-.52-.27-.74-.49-.22-.22-.41-.51-.56-.86-.15-.35-.23-.78-.23-1.27,0-.45.06-.88.18-1.29.12-.41.38-.77.75-1.08l.82.9c-.22.14-.39.34-.52.59-.13.26-.2.55-.2.87s.04.56.12.77c.08.2.19.37.31.49.13.12.26.21.41.26.15.05.28.08.41.08.35,0,.61-.1.8-.3.19-.2.34-.45.45-.75.12-.3.22-.62.31-.97.09-.35.22-.68.39-.97.17-.3.39-.55.67-.75.28-.2.67-.3,1.16-.3.39,0,.75.08,1.06.23.32.15.58.35.8.61.22.25.38.56.5.9s.17.72.17,1.11c0,.52-.09,1.02-.28,1.49-.18.47-.47.85-.86,1.12l-.79-.92Z"/><path class="cls-2" d="M719.88,890.92c.3-.2.52-.46.66-.77.14-.31.22-.64.22-.97,0-.19-.03-.38-.09-.57s-.15-.37-.26-.53-.26-.29-.43-.39c-.17-.1-.37-.15-.59-.15-.32,0-.56.1-.72.3-.17.2-.31.45-.42.75-.11.3-.22.62-.32.97s-.25.68-.44.97c-.18.3-.43.55-.75.75-.31.2-.74.3-1.27.3-.24,0-.49-.05-.76-.16-.27-.1-.52-.27-.74-.49-.22-.22-.41-.51-.56-.86-.15-.35-.23-.78-.23-1.27,0-.45.06-.88.18-1.29.12-.41.38-.77.75-1.08l.82.9c-.22.14-.39.34-.52.59-.13.26-.2.55-.2.87s.04.56.12.77c.08.2.19.37.31.49.13.12.26.21.41.26.15.05.28.08.41.08.35,0,.61-.1.8-.3.19-.2.34-.45.45-.75.12-.3.22-.62.31-.97.09-.35.22-.68.39-.97.17-.3.39-.55.67-.75.28-.2.67-.3,1.16-.3.39,0,.75.08,1.06.23.32.15.58.35.8.61.22.25.38.56.5.9s.17.72.17,1.11c0,.52-.09,1.02-.28,1.49-.18.47-.47.85-.86,1.12l-.79-.92Z"/><path class="cls-2" d="M717,882.05v1.49h2.49c.15,0,.31,0,.46-.01.15,0,.29-.04.41-.09.12-.05.22-.13.29-.23.07-.1.11-.26.11-.46,0-.12-.01-.25-.04-.38-.02-.13-.07-.25-.13-.36h.95c.07.12.12.28.14.48.03.2.04.35.04.46,0,.4-.06.71-.17.93-.11.22-.26.38-.43.49-.18.1-.38.16-.6.18-.22.02-.44.03-.67.03h-2.86v1.21h-.9v-1.21h-1.54v-1.04h1.54v-1.49h.9Z"/><path class="cls-2" d="M719.23,879.92c.24,0,.46-.05.65-.16.2-.11.36-.24.5-.41.14-.17.25-.37.32-.59.08-.22.12-.46.12-.7,0-.32-.08-.61-.23-.85-.15-.24-.35-.46-.6-.66l.6-.79c.75.58,1.12,1.39,1.12,2.43,0,.43-.07.82-.22,1.18-.15.35-.35.65-.61.89-.26.24-.56.43-.92.56-.35.13-.73.2-1.14.2s-.79-.07-1.14-.21c-.35-.14-.66-.34-.91-.59-.26-.25-.46-.55-.61-.9-.15-.35-.22-.73-.22-1.14,0-.49.08-.9.25-1.23.17-.34.39-.61.67-.83.27-.22.58-.37.93-.47s.69-.14,1.05-.14h.37v4.4ZM718.39,876.63c-.23,0-.44.05-.64.11-.19.07-.36.16-.5.3-.14.13-.25.29-.34.49-.08.2-.12.43-.12.69s.05.49.15.7.22.39.38.54c.15.15.33.26.52.34.19.08.38.12.56.12v-3.29Z"/><path class="cls-2" d="M719.23,873.47c.24,0,.46-.05.65-.16.2-.11.36-.24.5-.41.14-.17.25-.37.32-.59.08-.22.12-.46.12-.7,0-.32-.08-.61-.23-.85-.15-.24-.35-.46-.6-.66l.6-.79c.75.58,1.12,1.39,1.12,2.43,0,.43-.07.82-.22,1.18-.15.35-.35.65-.61.89-.26.24-.56.43-.92.56-.35.13-.73.2-1.14.2s-.79-.07-1.14-.21c-.35-.14-.66-.34-.91-.59-.26-.25-.46-.55-.61-.9-.15-.35-.22-.73-.22-1.14,0-.49.08-.9.25-1.23.17-.34.39-.61.67-.83.27-.22.58-.37.93-.47s.69-.14,1.05-.14h.37v4.4ZM718.39,870.18c-.23,0-.44.05-.64.11-.19.07-.36.16-.5.3-.14.13-.25.29-.34.49-.08.2-.12.43-.12.69s.05.49.15.7.22.39.38.54c.15.15.33.26.52.34.19.08.38.12.56.12v-3.29Z"/><path class="cls-2" d="M712.83,867.74v-1.04h8.76v1.04h-8.76Z"/><path class="cls-2" d="M719.23,864.25c.24,0,.46-.05.65-.16.2-.11.36-.24.5-.41.14-.17.25-.37.32-.59.08-.22.12-.46.12-.7,0-.32-.08-.61-.23-.85-.15-.24-.35-.46-.6-.66l.6-.79c.75.58,1.12,1.39,1.12,2.43,0,.43-.07.82-.22,1.18-.15.35-.35.65-.61.89-.26.24-.56.43-.92.56-.35.13-.73.2-1.14.2s-.79-.07-1.14-.21c-.35-.14-.66-.34-.91-.59-.26-.25-.46-.55-.61-.9-.15-.35-.22-.73-.22-1.14,0-.49.08-.9.25-1.23.17-.34.39-.61.67-.83.27-.22.58-.37.93-.47s.69-.14,1.05-.14h.37v4.4ZM718.39,860.96c-.23,0-.44.05-.64.11-.19.07-.36.16-.5.3-.14.13-.25.29-.34.49-.08.2-.12.43-.12.69s.05.49.15.7.22.39.38.54c.15.15.33.26.52.34.19.08.38.12.56.12v-3.29Z"/><path class="cls-2" d="M719.88,854.87c.3-.2.52-.46.66-.77.14-.31.22-.64.22-.97,0-.19-.03-.38-.09-.57s-.15-.37-.26-.53-.26-.29-.43-.39c-.17-.1-.37-.15-.59-.15-.32,0-.56.1-.72.3-.17.2-.31.45-.42.75-.11.3-.22.62-.32.97s-.25.68-.44.97c-.18.3-.43.55-.75.75-.31.2-.74.3-1.27.3-.24,0-.49-.05-.76-.16-.27-.1-.52-.27-.74-.49-.22-.22-.41-.51-.56-.86-.15-.35-.23-.78-.23-1.27,0-.45.06-.88.18-1.29.12-.41.38-.77.75-1.08l.82.9c-.22.14-.39.34-.52.59-.13.26-.2.55-.2.87s.04.56.12.77c.08.2.19.37.31.49.13.12.26.21.41.26.15.05.28.08.41.08.35,0,.61-.1.8-.3.19-.2.34-.45.45-.75.12-.3.22-.62.31-.97.09-.35.22-.68.39-.97.17-.3.39-.55.67-.75.28-.2.67-.3,1.16-.3.39,0,.75.08,1.06.23.32.15.58.35.8.61.22.25.38.56.5.9s.17.72.17,1.11c0,.52-.09,1.02-.28,1.49-.18.47-.47.85-.86,1.12l-.79-.92Z"/><path class="cls-2" d="M717,845.99v1.49h2.49c.15,0,.31,0,.46-.01.15,0,.29-.04.41-.09.12-.05.22-.13.29-.23.07-.1.11-.26.11-.46,0-.12-.01-.25-.04-.38-.02-.13-.07-.25-.13-.36h.95c.07.12.12.28.14.48.03.2.04.35.04.46,0,.4-.06.71-.17.93-.11.22-.26.38-.43.49-.18.1-.38.16-.6.18-.22.02-.44.03-.67.03h-2.86v1.21h-.9v-1.21h-1.54v-1.04h1.54v-1.49h.9Z"/><path class="cls-2" d="M855.51,904.53c.3-.2.52-.46.66-.77.14-.31.22-.64.22-.97,0-.19-.03-.38-.09-.57s-.15-.37-.26-.53-.26-.29-.43-.39c-.17-.1-.37-.15-.59-.15-.32,0-.56.1-.72.3-.17.2-.31.45-.42.75-.11.3-.22.62-.32.97s-.25.68-.44.97c-.18.3-.43.55-.75.75-.31.2-.74.3-1.27.3-.24,0-.49-.05-.76-.16-.27-.1-.52-.27-.74-.49-.22-.22-.41-.51-.56-.86-.15-.35-.23-.78-.23-1.27,0-.45.06-.88.18-1.29.12-.41.38-.77.75-1.08l.82.9c-.22.14-.39.34-.52.59-.13.26-.2.55-.2.87s.04.56.12.77c.08.2.19.37.31.49.13.12.26.21.41.26.15.05.28.08.41.08.35,0,.61-.1.8-.3.19-.2.34-.45.45-.75.12-.3.22-.62.31-.97.09-.35.22-.68.39-.97.17-.3.39-.55.67-.75.28-.2.67-.3,1.16-.3.39,0,.75.08,1.06.23.32.15.58.35.8.61.22.25.38.56.5.9s.17.72.17,1.11c0,.52-.09,1.02-.28,1.49-.18.47-.47.85-.86,1.12l-.79-.92Z"/><path class="cls-2" d="M855.51,894.87c.3-.2.52-.46.66-.77.14-.31.22-.64.22-.97,0-.19-.03-.38-.09-.57s-.15-.37-.26-.53-.26-.29-.43-.39c-.17-.1-.37-.15-.59-.15-.32,0-.56.1-.72.3-.17.2-.31.45-.42.75-.11.3-.22.62-.32.97s-.25.68-.44.97c-.18.3-.43.55-.75.75-.31.2-.74.3-1.27.3-.24,0-.49-.05-.76-.16-.27-.1-.52-.27-.74-.49-.22-.22-.41-.51-.56-.86-.15-.35-.23-.78-.23-1.27,0-.45.06-.88.18-1.29.12-.41.38-.77.75-1.08l.82.9c-.22.14-.39.34-.52.59-.13.26-.2.55-.2.87s.04.56.12.77c.08.2.19.37.31.49.13.12.26.21.41.26.15.05.28.08.41.08.35,0,.61-.1.8-.3.19-.2.34-.45.45-.75.12-.3.22-.62.31-.97.09-.35.22-.68.39-.97.17-.3.39-.55.67-.75.28-.2.67-.3,1.16-.3.39,0,.75.08,1.06.23.32.15.58.35.8.61.22.25.38.56.5.9s.17.72.17,1.11c0,.52-.09,1.02-.28,1.49-.18.47-.47.85-.86,1.12l-.79-.92Z"/><path class="cls-2" d="M852.64,885.99v1.49h2.49c.15,0,.31,0,.46-.01.15,0,.29-.04.41-.09.12-.05.22-.13.29-.23.07-.1.11-.26.11-.46,0-.12-.01-.25-.04-.38-.02-.13-.07-.25-.13-.36h.95c.07.12.12.28.14.48.03.2.04.35.04.46,0,.4-.06.71-.17.93-.11.22-.26.38-.43.49-.18.1-.38.16-.6.18-.22.02-.44.03-.67.03h-2.86v1.21h-.9v-1.21h-1.54v-1.04h1.54v-1.49h.9Z"/><path class="cls-2" d="M852.4,884.63c-.27-.29-.47-.63-.61-1.02s-.2-.77-.2-1.16.05-.75.15-1.04c.1-.29.24-.53.41-.71.17-.19.36-.32.58-.41.22-.09.45-.13.69-.13h2.8c.19,0,.37,0,.53-.01.16,0,.32-.02.46-.04v.93c-.28.02-.56.03-.83.03v.02c.35.23.61.51.75.82.15.32.22.68.22,1.1,0,.25-.04.5-.1.73-.07.23-.17.44-.31.61-.14.17-.31.31-.52.41-.21.1-.44.15-.71.15-.36,0-.65-.08-.89-.24-.24-.16-.44-.37-.58-.65-.15-.28-.26-.59-.32-.96-.07-.37-.1-.76-.1-1.18v-.76h-.23c-.14,0-.28.03-.42.08-.14.05-.26.14-.38.24-.11.11-.2.24-.27.41-.06.16-.1.36-.1.58,0,.2.02.38.06.53s.09.29.15.41c.06.12.12.24.2.34s.15.2.22.29l-.65.63ZM854.58,881.68c0,.25.01.5.04.76.03.26.08.49.16.71s.18.39.32.52c.14.14.32.2.53.2.32,0,.55-.11.68-.32s.21-.5.21-.86c0-.29-.05-.53-.15-.73-.1-.2-.22-.36-.38-.49-.15-.12-.33-.21-.52-.27s-.38-.08-.56-.08h-.35v.56Z"/><path class="cls-2" d="M852.64,875.69v1.49h2.49c.15,0,.31,0,.46-.01.15,0,.29-.04.41-.09.12-.05.22-.13.29-.23.07-.1.11-.26.11-.46,0-.12-.01-.25-.04-.38-.02-.13-.07-.25-.13-.36h.95c.07.12.12.28.14.48.03.2.04.35.04.46,0,.4-.06.71-.17.93-.11.22-.26.38-.43.49-.18.1-.38.16-.6.18-.22.02-.44.03-.67.03h-2.86v1.21h-.9v-1.21h-1.54v-1.04h1.54v-1.49h.9Z"/><path class="cls-2" d="M854.86,873.56c.24,0,.46-.05.65-.16.2-.11.36-.24.5-.41.14-.17.25-.37.32-.59.08-.22.12-.46.12-.7,0-.32-.08-.61-.23-.85-.15-.24-.35-.46-.6-.66l.6-.79c.75.58,1.12,1.39,1.12,2.43,0,.43-.07.82-.22,1.18-.15.35-.35.65-.61.89-.26.24-.56.43-.92.56-.35.13-.73.2-1.14.2s-.79-.07-1.14-.21c-.35-.14-.66-.34-.91-.59-.26-.25-.46-.55-.61-.9-.15-.35-.22-.73-.22-1.14,0-.49.08-.9.25-1.23.17-.34.39-.61.67-.83.27-.22.58-.37.93-.47s.69-.14,1.05-.14h.37v4.4ZM854.02,870.27c-.23,0-.44.05-.64.11-.19.07-.36.16-.5.3-.14.13-.25.29-.34.49-.08.2-.12.43-.12.69s.05.49.15.7.22.39.38.54c.15.15.33.26.52.34.19.08.38.12.56.12v-3.29Z"/><path class="cls-2" d="M855.51,864.18c.3-.2.52-.46.66-.77.14-.31.22-.64.22-.97,0-.19-.03-.38-.09-.57s-.15-.37-.26-.53-.26-.29-.43-.39c-.17-.1-.37-.15-.59-.15-.32,0-.56.1-.72.3-.17.2-.31.45-.42.75-.11.3-.22.62-.32.97s-.25.68-.44.97c-.18.3-.43.55-.75.75-.31.2-.74.3-1.27.3-.24,0-.49-.05-.76-.16-.27-.1-.52-.27-.74-.49-.22-.22-.41-.51-.56-.86-.15-.35-.23-.78-.23-1.27,0-.45.06-.88.18-1.29.12-.41.38-.77.75-1.08l.82.9c-.22.14-.39.34-.52.59-.13.26-.2.55-.2.87s.04.56.12.77c.08.2.19.37.31.49.13.12.26.21.41.26.15.05.28.08.41.08.35,0,.61-.1.8-.3.19-.2.34-.45.45-.75.12-.3.22-.62.31-.97.09-.35.22-.68.39-.97.17-.3.39-.55.67-.75.28-.2.67-.3,1.16-.3.39,0,.75.08,1.06.23.32.15.58.35.8.61.22.25.38.56.5.9s.17.72.17,1.11c0,.52-.09,1.02-.28,1.49-.18.47-.47.85-.86,1.12l-.79-.92Z"/><path class="cls-2" d="M852.64,855.3v1.49h2.49c.15,0,.31,0,.46-.01.15,0,.29-.04.41-.09.12-.05.22-.13.29-.23.07-.1.11-.26.11-.46,0-.12-.01-.25-.04-.38-.02-.13-.07-.25-.13-.36h.95c.07.12.12.28.14.48.03.2.04.35.04.46,0,.4-.06.71-.17.93-.11.22-.26.38-.43.49-.18.1-.38.16-.6.18-.22.02-.44.03-.67.03h-2.86v1.21h-.9v-1.21h-1.54v-1.04h1.54v-1.49h.9Z"/><path class="cls-2" d="M991.85,908.27c.28.42.64.73,1.08.93.44.2.89.3,1.35.3.26,0,.52-.04.79-.12s.52-.2.74-.36.4-.36.54-.6c.14-.24.21-.51.21-.83,0-.44-.14-.78-.42-1.01-.28-.23-.63-.43-1.05-.58-.42-.16-.87-.31-1.36-.45-.49-.15-.95-.35-1.36-.61s-.76-.61-1.05-1.05c-.28-.44-.42-1.03-.42-1.78,0-.34.07-.69.22-1.07.15-.38.38-.72.69-1.04s.72-.58,1.21-.79c.49-.21,1.08-.32,1.78-.32.63,0,1.23.09,1.8.26.57.17,1.08.52,1.51,1.05l-1.26,1.15c-.19-.3-.47-.55-.83-.73-.36-.18-.76-.28-1.22-.28s-.79.06-1.08.17c-.29.11-.52.26-.69.44-.17.18-.29.37-.36.58s-.11.39-.11.57c0,.49.14.86.42,1.12.28.26.63.47,1.05.63.42.16.87.31,1.36.44.49.13.95.31,1.36.54.42.23.76.55,1.05.94.28.39.42.94.42,1.63,0,.55-.11,1.05-.32,1.49-.21.44-.49.82-.85,1.12-.36.3-.78.54-1.26.7-.49.16-1.01.24-1.56.24-.74,0-1.43-.13-2.09-.39-.66-.26-1.18-.66-1.57-1.2l1.28-1.1Z"/><path class="cls-2" d="M1007.94,900.97l-2.11,1.95-.91-1.09,3.19-2.64h1.38v11.48h-1.56v-9.7Z"/><path class="cls-2" d="M1016.96,900.97l-2.11,1.95-.91-1.09,3.19-2.64h1.38v11.48h-1.56v-9.7Z"/><path class="cls-2" d="M1026.82,904.24h-2.09v3.49c0,.22,0,.43.02.64.01.21.05.4.12.57.07.17.18.3.32.41.15.1.36.15.64.15.17,0,.35-.02.54-.05.18-.03.35-.09.5-.18v1.33c-.17.1-.4.16-.67.2-.28.04-.49.06-.64.06-.56,0-1-.08-1.31-.24-.31-.16-.54-.36-.68-.61s-.23-.53-.26-.84c-.03-.31-.04-.62-.04-.93v-4.01h-1.69v-1.26h1.69v-2.16h1.46v2.16h2.09v1.26Z"/><path class="cls-2" d="M1028.7,898.4h1.46v5.76h.03c.18-.41.5-.74.96-1,.45-.25.98-.38,1.57-.38.37,0,.72.06,1.06.17s.64.29.89.53c.25.24.46.54.61.92.15.37.23.81.23,1.32v4.95h-1.46v-4.54c0-.36-.05-.66-.15-.92-.1-.25-.23-.46-.39-.62-.16-.16-.35-.27-.56-.34-.21-.07-.43-.11-.66-.11-.3,0-.58.05-.84.15-.26.1-.49.25-.68.46s-.35.48-.45.8c-.11.32-.16.71-.16,1.15v3.96h-1.46v-12.26Z"/><path class="cls-2" d="M1042.94,908.27c.28.42.64.73,1.08.93.44.2.89.3,1.35.3.26,0,.52-.04.79-.12s.52-.2.74-.36.4-.36.54-.6c.14-.24.21-.51.21-.83,0-.44-.14-.78-.42-1.01-.28-.23-.63-.43-1.05-.58-.42-.16-.87-.31-1.36-.45-.49-.15-.95-.35-1.36-.61s-.76-.61-1.05-1.05c-.28-.44-.42-1.03-.42-1.78,0-.34.07-.69.22-1.07.15-.38.38-.72.69-1.04s.72-.58,1.21-.79c.49-.21,1.08-.32,1.78-.32.63,0,1.23.09,1.8.26.57.17,1.08.52,1.51,1.05l-1.26,1.15c-.19-.3-.47-.55-.83-.73-.36-.18-.76-.28-1.22-.28s-.79.06-1.08.17c-.29.11-.52.26-.69.44-.17.18-.29.37-.36.58s-.11.39-.11.57c0,.49.14.86.42,1.12.28.26.63.47,1.05.63.42.16.87.31,1.36.44.49.13.95.31,1.36.54.42.23.76.55,1.05.94.28.39.42.94.42,1.63,0,.55-.11,1.05-.32,1.49-.21.44-.49.82-.85,1.12-.36.3-.78.54-1.26.7-.49.16-1.01.24-1.56.24-.74,0-1.43-.13-2.09-.39-.66-.26-1.18-.66-1.57-1.2l1.28-1.1Z"/><path class="cls-2" d="M1055.37,904.24h-2.09v3.49c0,.22,0,.43.02.64.01.21.05.4.12.57.07.17.18.3.32.41.15.1.36.15.64.15.17,0,.35-.02.54-.05.18-.03.35-.09.5-.18v1.33c-.17.1-.4.16-.67.2-.28.04-.49.06-.64.06-.56,0-1-.08-1.31-.24-.31-.16-.54-.36-.68-.61s-.23-.53-.26-.84c-.03-.31-.04-.62-.04-.93v-4.01h-1.69v-1.26h1.69v-2.16h1.46v2.16h2.09v1.26Z"/><path class="cls-2" d="M991.85,818.22c.28.42.64.73,1.08.93.44.2.89.3,1.35.3.26,0,.52-.04.79-.12s.52-.2.74-.36.4-.36.54-.6c.14-.24.21-.51.21-.83,0-.44-.14-.78-.42-1.01-.28-.23-.63-.43-1.05-.58-.42-.16-.87-.31-1.36-.45-.49-.15-.95-.35-1.36-.61s-.76-.61-1.05-1.05c-.28-.44-.42-1.03-.42-1.78,0-.34.07-.69.22-1.07.15-.38.38-.72.69-1.04s.72-.58,1.21-.79c.49-.21,1.08-.32,1.78-.32.63,0,1.23.09,1.8.26.57.17,1.08.52,1.51,1.05l-1.26,1.15c-.19-.3-.47-.55-.83-.73-.36-.18-.76-.28-1.22-.28s-.79.06-1.08.17c-.29.11-.52.26-.69.44-.17.18-.29.37-.36.58s-.11.39-.11.57c0,.49.14.86.42,1.12.28.26.63.47,1.05.63s.87.31,1.36.44c.49.13.95.31,1.36.54.42.23.76.55,1.05.94.28.39.42.94.42,1.63,0,.55-.11,1.05-.32,1.49-.21.44-.49.82-.85,1.12-.36.3-.78.54-1.26.7-.49.16-1.01.24-1.56.24-.74,0-1.43-.13-2.09-.39-.66-.26-1.18-.66-1.57-1.2l1.28-1.1Z"/><path class="cls-2" d="M1007.94,810.91l-2.11,1.95-.91-1.09,3.19-2.64h1.38v11.48h-1.56v-9.7Z"/><path class="cls-2" d="M1013.13,814.87c0-.42.02-.86.06-1.31.04-.45.12-.9.24-1.34.11-.44.26-.86.45-1.26s.43-.75.73-1.05.65-.54,1.05-.71.88-.27,1.42-.27,1.01.09,1.42.27.76.42,1.05.71.54.65.73,1.05.34.82.45,1.26c.11.44.19.88.24,1.34s.06.89.06,1.31c0,.61-.05,1.25-.16,1.95-.11.69-.31,1.34-.6,1.93-.29.59-.69,1.09-1.21,1.48-.51.39-1.18.58-1.99.58s-1.47-.19-1.99-.58c-.51-.39-.92-.88-1.21-1.48-.29-.59-.49-1.24-.6-1.93-.11-.69-.16-1.34-.16-1.95ZM1014.69,814.87c0,.38.02.83.07,1.35.05.52.15,1.02.32,1.5.16.48.4.89.72,1.22s.75.5,1.29.5.97-.17,1.29-.5.56-.74.72-1.22c.16-.48.27-.98.32-1.5.05-.52.07-.97.07-1.35,0-.26,0-.55-.02-.88-.02-.33-.05-.66-.11-1.01s-.14-.67-.25-.99c-.11-.32-.25-.61-.43-.86-.18-.25-.4-.46-.66-.61-.26-.15-.57-.23-.92-.23s-.66.08-.92.23c-.26.15-.48.35-.66.61-.18.25-.32.54-.43.86-.11.32-.19.65-.25.99-.06.34-.1.68-.11,1.01-.02.33-.02.62-.02.88Z"/><path class="cls-2" d="M1026.82,814.19h-2.09v3.49c0,.22,0,.43.02.64.01.21.05.4.12.57.07.17.18.3.32.41.15.1.36.15.64.15.17,0,.35-.02.54-.05.18-.03.35-.09.5-.18v1.33c-.17.1-.4.16-.67.2-.28.04-.49.06-.64.06-.56,0-1-.08-1.31-.24-.31-.16-.54-.36-.68-.61s-.23-.53-.26-.84c-.03-.31-.04-.62-.04-.93v-4.01h-1.69v-1.26h1.69v-2.16h1.46v2.16h2.09v1.26Z"/><path class="cls-2" d="M1028.7,808.35h1.46v5.76h.03c.18-.41.5-.74.96-1,.45-.25.98-.38,1.57-.38.37,0,.72.06,1.06.17s.64.29.89.53c.25.24.46.54.61.92.15.37.23.81.23,1.32v4.95h-1.46v-4.54c0-.36-.05-.66-.15-.92-.1-.25-.23-.46-.39-.62-.16-.16-.35-.27-.56-.34-.21-.07-.43-.11-.66-.11-.3,0-.58.05-.84.15-.26.1-.49.25-.68.46s-.35.48-.45.8c-.11.32-.16.71-.16,1.15v3.96h-1.46v-12.26Z"/><path class="cls-2" d="M1042.94,818.22c.28.42.64.73,1.08.93.44.2.89.3,1.35.3.26,0,.52-.04.79-.12s.52-.2.74-.36.4-.36.54-.6c.14-.24.21-.51.21-.83,0-.44-.14-.78-.42-1.01-.28-.23-.63-.43-1.05-.58-.42-.16-.87-.31-1.36-.45-.49-.15-.95-.35-1.36-.61s-.76-.61-1.05-1.05c-.28-.44-.42-1.03-.42-1.78,0-.34.07-.69.22-1.07.15-.38.38-.72.69-1.04s.72-.58,1.21-.79c.49-.21,1.08-.32,1.78-.32.63,0,1.23.09,1.8.26.57.17,1.08.52,1.51,1.05l-1.26,1.15c-.19-.3-.47-.55-.83-.73-.36-.18-.76-.28-1.22-.28s-.79.06-1.08.17c-.29.11-.52.26-.69.44-.17.18-.29.37-.36.58s-.11.39-.11.57c0,.49.14.86.42,1.12.28.26.63.47,1.05.63s.87.31,1.36.44c.49.13.95.31,1.36.54.42.23.76.55,1.05.94.28.39.42.94.42,1.63,0,.55-.11,1.05-.32,1.49-.21.44-.49.82-.85,1.12-.36.3-.78.54-1.26.7-.49.16-1.01.24-1.56.24-.74,0-1.43-.13-2.09-.39-.66-.26-1.18-.66-1.57-1.2l1.28-1.1Z"/><path class="cls-2" d="M1055.37,814.19h-2.09v3.49c0,.22,0,.43.02.64.01.21.05.4.12.57.07.17.18.3.32.41.15.1.36.15.64.15.17,0,.35-.02.54-.05.18-.03.35-.09.5-.18v1.33c-.17.1-.4.16-.67.2-.28.04-.49.06-.64.06-.56,0-1-.08-1.31-.24-.31-.16-.54-.36-.68-.61s-.23-.53-.26-.84c-.03-.31-.04-.62-.04-.93v-4.01h-1.69v-1.26h1.69v-2.16h1.46v2.16h2.09v1.26Z"/><path class="cls-2" d="M989.01,622.69c.28.42.64.73,1.08.93.44.2.89.3,1.35.3.26,0,.52-.04.79-.12s.52-.2.74-.36.4-.36.54-.6c.14-.24.21-.51.21-.83,0-.44-.14-.78-.42-1.01-.28-.23-.63-.43-1.05-.58-.42-.16-.87-.31-1.36-.45-.49-.15-.95-.35-1.36-.61s-.76-.61-1.05-1.05c-.28-.44-.42-1.03-.42-1.78,0-.34.07-.69.22-1.07.15-.38.38-.72.69-1.04s.72-.58,1.21-.79c.49-.21,1.08-.32,1.78-.32.63,0,1.23.09,1.8.26.57.17,1.08.52,1.51,1.05l-1.26,1.15c-.19-.3-.47-.55-.83-.73-.36-.18-.76-.28-1.22-.28s-.79.06-1.08.17c-.29.11-.52.26-.69.44-.17.18-.29.37-.36.58s-.11.39-.11.57c0,.49.14.86.42,1.12.28.26.63.47,1.05.63.42.16.87.31,1.36.44.49.13.95.31,1.36.54.42.23.76.55,1.05.94.28.39.42.94.42,1.63,0,.55-.11,1.05-.32,1.49-.21.44-.49.82-.85,1.12-.36.3-.78.54-1.26.7-.49.16-1.01.24-1.56.24-.74,0-1.43-.13-2.09-.39-.66-.26-1.18-.66-1.57-1.2l1.28-1.1Z"/><path class="cls-2" d="M1006.96,614.96h-5.56v-1.36h7.22v1.33l-4.57,10.15h-1.75l4.67-10.12Z"/><path class="cls-2" d="M1014.96,618.66h-2.09v3.49c0,.22,0,.43.02.64.01.21.05.4.12.57.07.17.18.3.32.41.15.1.36.15.64.15.17,0,.35-.02.54-.05.18-.03.35-.09.5-.18v1.33c-.17.1-.4.16-.67.2-.28.04-.49.06-.64.06-.56,0-1-.08-1.31-.24-.31-.16-.54-.36-.68-.61s-.23-.53-.26-.84c-.03-.31-.04-.62-.04-.93v-4.01h-1.69v-1.26h1.69v-2.16h1.46v2.16h2.09v1.26Z"/><path class="cls-2" d="M1016.84,612.82h1.46v5.76h.03c.18-.41.5-.74.96-1s.98-.38,1.57-.38c.37,0,.72.06,1.06.17s.64.29.89.53c.25.24.46.54.61.92.15.37.23.81.23,1.32v4.95h-1.46v-4.54c0-.36-.05-.66-.15-.92-.1-.25-.23-.46-.39-.62-.16-.16-.35-.27-.56-.34-.21-.07-.43-.11-.66-.11-.3,0-.58.05-.84.15-.26.1-.49.25-.68.46s-.35.48-.45.8c-.11.32-.16.71-.16,1.15v3.96h-1.46v-12.26Z"/><path class="cls-2" d="M1031.09,622.69c.28.42.64.73,1.08.93.44.2.89.3,1.35.3.26,0,.52-.04.79-.12s.52-.2.74-.36.4-.36.54-.6c.14-.24.21-.51.21-.83,0-.44-.14-.78-.42-1.01-.28-.23-.63-.43-1.05-.58-.42-.16-.87-.31-1.36-.45-.49-.15-.95-.35-1.36-.61s-.76-.61-1.05-1.05c-.28-.44-.42-1.03-.42-1.78,0-.34.07-.69.22-1.07.15-.38.38-.72.69-1.04s.72-.58,1.21-.79c.49-.21,1.08-.32,1.78-.32.63,0,1.23.09,1.8.26.57.17,1.08.52,1.51,1.05l-1.26,1.15c-.19-.3-.47-.55-.83-.73-.36-.18-.76-.28-1.22-.28s-.79.06-1.08.17c-.29.11-.52.26-.69.44-.17.18-.29.37-.36.58s-.11.39-.11.57c0,.49.14.86.42,1.12.28.26.63.47,1.05.63.42.16.87.31,1.36.44.49.13.95.31,1.36.54.42.23.76.55,1.05.94.28.39.42.94.42,1.63,0,.55-.11,1.05-.32,1.49-.21.44-.49.82-.85,1.12-.36.3-.78.54-1.26.7-.49.16-1.01.24-1.56.24-.74,0-1.43-.13-2.09-.39-.66-.26-1.18-.66-1.57-1.2l1.28-1.1Z"/><path class="cls-2" d="M1043.51,618.66h-2.09v3.49c0,.22,0,.43.02.64.01.21.05.4.12.57.07.17.18.3.32.41.15.1.36.15.64.15.17,0,.35-.02.54-.05.18-.03.35-.09.5-.18v1.33c-.17.1-.4.16-.67.2-.28.04-.49.06-.64.06-.56,0-1-.08-1.31-.24-.31-.16-.54-.36-.68-.61s-.23-.53-.26-.84c-.03-.31-.04-.62-.04-.93v-4.01h-1.69v-1.26h1.69v-2.16h1.46v2.16h2.09v1.26Z"/><path class="cls-2" d="M989.01,686.44c.28.42.64.73,1.08.93.44.2.89.3,1.35.3.26,0,.52-.04.79-.12s.52-.2.74-.36.4-.36.54-.6c.14-.24.21-.51.21-.83,0-.44-.14-.78-.42-1.01-.28-.23-.63-.43-1.05-.58-.42-.16-.87-.31-1.36-.45-.49-.15-.95-.35-1.36-.61s-.76-.61-1.05-1.05c-.28-.44-.42-1.03-.42-1.78,0-.34.07-.69.22-1.07.15-.38.38-.72.69-1.04s.72-.58,1.21-.79c.49-.21,1.08-.32,1.78-.32.63,0,1.23.09,1.8.26.57.17,1.08.52,1.51,1.05l-1.26,1.15c-.19-.3-.47-.55-.83-.73-.36-.18-.76-.28-1.22-.28s-.79.06-1.08.17c-.29.11-.52.26-.69.44-.17.18-.29.37-.36.58s-.11.39-.11.57c0,.49.14.86.42,1.12.28.26.63.47,1.05.63s.87.31,1.36.44c.49.13.95.31,1.36.54.42.23.76.55,1.05.94.28.39.42.94.42,1.63,0,.55-.11,1.05-.32,1.49-.21.44-.49.82-.85,1.12-.36.3-.78.54-1.26.7-.49.16-1.01.24-1.56.24-.74,0-1.43-.13-2.09-.39-.66-.26-1.18-.66-1.57-1.2l1.28-1.1Z"/><path class="cls-2" d="M1005.23,689.04c-.52,0-1.01-.08-1.47-.24s-.86-.39-1.19-.69-.6-.67-.79-1.1c-.19-.43-.29-.92-.29-1.46,0-.36.06-.69.17-.99.11-.3.27-.58.46-.82.19-.24.42-.45.69-.62.26-.17.55-.29.87-.38v-.05c-.22-.05-.43-.15-.65-.29-.22-.14-.41-.32-.58-.54-.17-.22-.31-.48-.41-.79-.11-.31-.16-.66-.16-1.06,0-.43.09-.82.27-1.18.18-.35.42-.65.73-.9.31-.25.66-.44,1.07-.58s.84-.2,1.29-.2.88.07,1.29.2.76.33,1.07.58c.31.25.55.55.73.9.18.35.27.74.27,1.18,0,.4-.05.75-.16,1.06-.11.31-.25.57-.41.79-.17.22-.36.39-.58.54-.22.14-.43.24-.65.29v.05c.31.09.6.21.87.38.26.17.49.37.69.62.19.24.35.52.46.82.11.3.17.63.17.99,0,.54-.1,1.03-.29,1.46-.19.43-.46.8-.79,1.1s-.73.53-1.19.69-.95.24-1.47.24ZM1005.23,687.67c.65,0,1.18-.2,1.58-.59.41-.39.61-.91.61-1.53,0-.35-.06-.65-.17-.92s-.27-.49-.47-.66-.43-.31-.7-.41c-.27-.09-.55-.14-.85-.14-.64.01-1.16.21-1.57.61-.41.39-.62.9-.62,1.52,0,.34.06.64.18.9s.28.49.48.66c.2.18.43.32.7.41.26.1.54.15.84.15ZM1003.43,680.24c0,.23.04.45.12.66.08.22.2.41.35.58.15.17.34.31.56.41.22.11.48.16.77.16s.56-.05.79-.15c.22-.1.41-.24.56-.41.15-.17.26-.36.34-.58.08-.22.11-.44.11-.68,0-.53-.16-.96-.49-1.31s-.76-.51-1.31-.51c-.5,0-.92.17-1.27.5-.35.34-.53.77-.53,1.31Z"/><path class="cls-2" d="M1014.96,682.42h-2.09v3.49c0,.22,0,.43.02.64.01.21.05.4.12.57.07.17.18.3.32.41.15.1.36.15.64.15.17,0,.35-.02.54-.05.18-.03.35-.09.5-.18v1.33c-.17.1-.4.16-.67.2-.28.04-.49.06-.64.06-.56,0-1-.08-1.31-.24-.31-.16-.54-.36-.68-.61s-.23-.53-.26-.84c-.03-.31-.04-.62-.04-.93v-4.01h-1.69v-1.26h1.69v-2.16h1.46v2.16h2.09v1.26Z"/><path class="cls-2" d="M1016.84,676.58h1.46v5.76h.03c.18-.41.5-.74.96-1s.98-.38,1.57-.38c.37,0,.72.06,1.06.17s.64.29.89.53c.25.24.46.54.61.92.15.37.23.81.23,1.32v4.95h-1.46v-4.54c0-.36-.05-.66-.15-.92-.1-.25-.23-.46-.39-.62-.16-.16-.35-.27-.56-.34-.21-.07-.43-.11-.66-.11-.3,0-.58.05-.84.15-.26.1-.49.25-.68.46s-.35.48-.45.8c-.11.32-.16.71-.16,1.15v3.96h-1.46v-12.26Z"/><path class="cls-2" d="M1031.09,686.44c.28.42.64.73,1.08.93.44.2.89.3,1.35.3.26,0,.52-.04.79-.12s.52-.2.74-.36.4-.36.54-.6c.14-.24.21-.51.21-.83,0-.44-.14-.78-.42-1.01-.28-.23-.63-.43-1.05-.58-.42-.16-.87-.31-1.36-.45-.49-.15-.95-.35-1.36-.61s-.76-.61-1.05-1.05c-.28-.44-.42-1.03-.42-1.78,0-.34.07-.69.22-1.07.15-.38.38-.72.69-1.04s.72-.58,1.21-.79c.49-.21,1.08-.32,1.78-.32.63,0,1.23.09,1.8.26.57.17,1.08.52,1.51,1.05l-1.26,1.15c-.19-.3-.47-.55-.83-.73-.36-.18-.76-.28-1.22-.28s-.79.06-1.08.17c-.29.11-.52.26-.69.44-.17.18-.29.37-.36.58s-.11.39-.11.57c0,.49.14.86.42,1.12.28.26.63.47,1.05.63s.87.31,1.36.44c.49.13.95.31,1.36.54.42.23.76.55,1.05.94.28.39.42.94.42,1.63,0,.55-.11,1.05-.32,1.49-.21.44-.49.82-.85,1.12-.36.3-.78.54-1.26.7-.49.16-1.01.24-1.56.24-.74,0-1.43-.13-2.09-.39-.66-.26-1.18-.66-1.57-1.2l1.28-1.1Z"/><path class="cls-2" d="M1043.51,682.42h-2.09v3.49c0,.22,0,.43.02.64.01.21.05.4.12.57.07.17.18.3.32.41.15.1.36.15.64.15.17,0,.35-.02.54-.05.18-.03.35-.09.5-.18v1.33c-.17.1-.4.16-.67.2-.28.04-.49.06-.64.06-.56,0-1-.08-1.31-.24-.31-.16-.54-.36-.68-.61s-.23-.53-.26-.84c-.03-.31-.04-.62-.04-.93v-4.01h-1.69v-1.26h1.69v-2.16h1.46v2.16h2.09v1.26Z"/><path class="cls-2" d="M238.43,682.39c.2-.51.24-1.08.13-1.69-.12-.62-.31-1.14-.57-1.6-.15-.26-.34-.52-.57-.77-.23-.24-.48-.45-.76-.62-.28-.18-.57-.27-.88-.3-.31-.02-.62.05-.93.23-.5.29-.77.7-.82,1.23-.04.53,0,1.13.15,1.81.15.68.31,1.4.51,2.17.2.76.29,1.53.28,2.3-.01.77-.19,1.51-.55,2.22-.36.71-1.02,1.35-1.98,1.92-.92.54-1.82.84-2.71.89-.89.05-1.73-.08-2.52-.39-.79-.32-1.52-.8-2.19-1.45-.67-.64-1.25-1.39-1.75-2.25-.63-1.08-1.05-2.17-1.26-3.28-.21-1.11-.18-2.28.09-3.5l4.37.93c-.28.66-.39,1.36-.33,2.09.06.73.27,1.4.62,2,.17.3.38.57.63.84.25.26.51.47.8.63.28.16.57.25.88.27.3.02.61-.05.9-.23.5-.29.78-.71.85-1.26.06-.55.03-1.18-.1-1.87-.14-.69-.3-1.44-.48-2.22-.19-.79-.28-1.57-.27-2.35,0-.78.18-1.52.52-2.23s.97-1.33,1.89-1.87c.89-.52,1.77-.8,2.65-.84.87-.04,1.71.1,2.5.42.79.32,1.53.79,2.2,1.43.67.63,1.25,1.35,1.72,2.16.55.94.94,1.92,1.19,2.95.24,1.03.26,2.07.05,3.14l-4.2-.91Z"/><path class="cls-2" d="M252.76,697.63l1.76,3.02-12.34,16.87-2.4-4.12,2.67-3.48-3.76-6.42-4.31.67-2.35-4.02,20.73-2.52ZM248.77,701.85l-6.32,1,2.37,4.04,3.95-5.04Z"/><path class="cls-2" d="M260.59,708.45l2.05,3.51-17.67,10.33-2.05-3.51,17.67-10.33Z"/><path class="cls-2" d="M253.41,736.73l-1.89-3.23,1.5-.87-.03-.05c-.29-.02-.6-.09-.94-.19-.34-.1-.69-.26-1.04-.46-.35-.2-.68-.46-1.01-.76-.32-.31-.6-.65-.83-1.04-.49-.84-.79-1.69-.9-2.54-.11-.85-.05-1.68.18-2.48s.63-1.53,1.19-2.22c.56-.68,1.27-1.27,2.13-1.78.79-.46,1.62-.79,2.49-.97.87-.18,1.71-.21,2.53-.1.82.12,1.58.39,2.29.84s1.3,1.07,1.77,1.88c.43.73.71,1.48.85,2.24.14.76.06,1.51-.25,2.23l.03.05,7.53-4.4,2.05,3.5-17.67,10.33ZM257.21,730.19c.86-.5,1.41-1.15,1.65-1.95.25-.8.11-1.65-.41-2.53-.52-.89-1.19-1.42-2-1.6-.82-.18-1.65-.02-2.51.48-.86.5-1.41,1.15-1.65,1.95-.24.8-.1,1.65.42,2.53.52.89,1.19,1.42,2,1.61.82.18,1.66.02,2.51-.48Z"/><path class="cls-2" d="M263.3,749.14c-1.04-.14-2.01-.52-2.9-1.16-.89-.63-1.61-1.4-2.14-2.32-.51-.87-.85-1.78-1.02-2.71-.17-.93-.16-1.84.03-2.71.19-.87.55-1.69,1.09-2.44.54-.76,1.26-1.4,2.17-1.92.9-.53,1.82-.84,2.74-.94.93-.1,1.81-.02,2.67.25s1.65.7,2.38,1.31c.73.61,1.35,1.35,1.86,2.22.47.81.76,1.63.87,2.46.11.82.03,1.62-.22,2.38s-.67,1.49-1.26,2.16c-.59.68-1.33,1.28-2.24,1.81l-1.1.64-4.75-8.13c-.59.53-.94,1.14-1.07,1.84-.12.7.02,1.4.42,2.08.34.58.75.99,1.24,1.24.49.25,1.02.4,1.6.46l-.37,3.5ZM266.57,743.25c.6-.33.99-.82,1.18-1.47.19-.65.09-1.29-.28-1.93-.23-.39-.49-.69-.79-.92-.3-.22-.6-.38-.92-.48-.32-.1-.64-.13-.97-.1-.32.04-.63.13-.92.28l2.71,4.63Z"/><path class="cls-2" d="M274.25,746.32l2.05,3.5-1.82,1.07.03.05c.92-.04,1.7.1,2.36.41.65.3,1.2.85,1.66,1.63.12.2.23.41.33.63.1.21.18.41.24.61l-3.2,1.87c-.07-.3-.16-.58-.26-.84-.1-.26-.23-.53-.39-.79-.39-.67-.79-1.14-1.21-1.43-.41-.28-.85-.43-1.31-.44-.46-.01-.94.09-1.44.3-.5.21-1.03.48-1.6.81l-4.74,2.77-2.05-3.5,11.36-6.64Z"/><path class="cls-2" d="M290.04,770.71c.2-.51.24-1.08.13-1.69-.12-.62-.31-1.14-.57-1.6-.15-.26-.34-.52-.57-.77-.22-.24-.48-.45-.75-.62-.28-.18-.57-.27-.88-.3-.31-.03-.62.05-.93.23-.5.29-.77.7-.82,1.23-.05.53,0,1.13.15,1.81.15.68.32,1.4.51,2.17.19.76.29,1.53.28,2.3-.01.77-.19,1.51-.55,2.22-.36.71-1.02,1.35-1.99,1.91-.92.54-1.82.84-2.71.9-.89.05-1.73-.08-2.52-.39-.79-.32-1.53-.8-2.19-1.45-.67-.64-1.25-1.39-1.76-2.25-.63-1.08-1.05-2.17-1.26-3.28-.21-1.11-.18-2.28.09-3.5l4.37.93c-.28.66-.39,1.36-.33,2.09.06.73.27,1.4.62,2,.17.3.38.58.63.84.25.26.51.47.8.63.28.16.57.25.88.27.3.02.61-.05.9-.23.5-.29.78-.71.85-1.26.06-.55.03-1.18-.11-1.87-.13-.69-.3-1.44-.48-2.22-.19-.79-.28-1.57-.27-2.35,0-.78.18-1.52.51-2.23.34-.71.97-1.33,1.89-1.87.89-.52,1.77-.8,2.65-.84.87-.04,1.71.1,2.5.42.79.32,1.53.79,2.2,1.43.67.63,1.24,1.35,1.72,2.16.55.94.94,1.92,1.18,2.95.25,1.03.26,2.07.05,3.14l-4.2-.91Z"/><path class="cls-2" d="M293.41,785.54l-1.8-3.09-3.79,2.21c-.31.18-.59.36-.83.54-.24.18-.42.38-.54.6-.12.22-.17.47-.14.76.03.29.16.62.37.99.11.19.27.42.49.7.22.28.44.46.67.53l-2.92,1.71c-.37-.31-.7-.65-.99-1.05-.29-.4-.56-.79-.79-1.2-.35-.59-.6-1.18-.77-1.75-.17-.57-.22-1.12-.17-1.66.05-.53.24-1.03.55-1.5s.78-.88,1.4-1.24l5.4-3.16-1.31-2.25,2.8-1.64,1.31,2.25,3.37-1.97,2.05,3.5-3.37,1.97,1.8,3.09-2.81,1.64Z"/></svg>