<?xml version="1.0" encoding="UTF-8"?><svg id="Art" xmlns="http://www.w3.org/2000/svg" viewBox="152.10 90.58 706.47 475.76"><defs><style>.cls-1{fill:#5089c8;}.cls-2{fill:#20435d;}.cls-3{fill:#e7bc20;}.cls-4,.cls-5,.cls-6{font-family:LondrinaSolid-Black, 'Londrina Solid';font-size:38.33px;font-weight:800;}.cls-4,.cls-7{fill:#fdf5ad;}.cls-8{fill:none;stroke:#20435d;stroke-dasharray:20;stroke-miterlimit:10;stroke-width:8px;}.cls-9{letter-spacing:0em;}.cls-10,.cls-6{fill:#d0edf7;}.cls-11{fill:#f26737;}.cls-east{fill:#a1763f;}.cls-12{font-family:LondrinaSolid-Regular, 'Londrina Solid';font-size:33px;}.cls-13{letter-spacing:.07em;}.cls-14{letter-spacing:.07em;}.cls-15{letter-spacing:.06em;}.cls-16{letter-spacing:.04em;}.cls-17{letter-spacing:.05em;}.cls-18{letter-spacing:.05em;}.cls-19{letter-spacing:.05em;}.cls-20{letter-spacing:.05em;}.cls-21{letter-spacing:.05em;}.cls-22{letter-spacing:.05em;}.cls-23{letter-spacing:.04em;}.cls-24{letter-spacing:.04em;}.cls-25{letter-spacing:.04em;}.cls-26{letter-spacing:.05em;}.cls-27{letter-spacing:.05em;}.cls-28{letter-spacing:.05em;}.cls-29{letter-spacing:.05em;}.cls-30{letter-spacing:.05em;}.cls-31{letter-spacing:.04em;}.cls-32{letter-spacing:.04em;}.cls-33{letter-spacing:.04em;}.cls-34{letter-spacing:.04em;}.cls-35{letter-spacing:.03em;}.cls-36{letter-spacing:.01em;}</style></defs><path class="cls-8" d="M235.98,560.34c156.03,0,229.48-12.87,311.66-12.87s286.03-1.11,286.03-1.11"/><g id="block-7" class="block"><polygon class="cls-east" points="615.4 211.23 657.71 212.06 657.71 125.4 615.4 125.4 615.4 211.23"/></g><g id="block-24" class="block"><polygon class="cls-east" points="716.17 322.5 670.72 321.9 670.72 405.42 716.17 405.42 716.17 322.5"/></g><g id="block-16" class="block"><polygon class="cls-east" points="716.17 227.12 671.55 226.24 670.79 307.99 716.17 308.6 716.17 227.12"/></g><g id="block-36" class="block"><path class="cls-east" d="M682.3,419.33l.8,118.58c8.84-.02,17.73-.04,26.62-.06l-.8-118.52h-26.62Z"/></g><g id="block-35" class="block"><path class="cls-east" d="M624.93,538.03c13.39-.03,27.06-.06,40.84-.09,1.14,0,2.28,0,3.42,0l-.8-118.61h-42.13l-1.34,118.71Z"/></g><g id="block-23" class="block"><polygon class="cls-east" points="656.82 321.71 615.4 321.16 615.4 405.42 656.82 405.42 656.82 321.71"/></g><g id="block-38" class="block"><path class="cls-east" d="M784.42,419.33l1.93,118.15c14.03-.11,27.47-.25,40.01-.43v-117.72h-41.94Z"/></g><g id="block-25" class="block"><polygon class="cls-east" points="802.17 366.96 783.57 366.96 784.19 405.42 826.36 405.42 826.36 339.03 812.08 332.06 802.17 366.96"/></g><g id="block-37" class="block"><path class="cls-east" d="M723.62,537.8c16.58-.05,32.99-.12,48.83-.23l-1.93-118.25h-47.7l.8,118.48Z"/></g><g id="block-20" class="block"><polygon class="cls-east" points="770.29 405.42 769.44 353.05 791.67 353.05 799.39 325.86 730.07 291.99 730.07 405.42 770.29 405.42"/></g><g id="block-8" class="block"><polygon class="cls-east" points="671.61 212.33 723.12 213.35 723.12 147.87 723.12 125.4 671.61 125.4 671.61 212.33"/></g><g id="block-15" class="block"><polygon class="cls-east" points="657.65 225.97 615.4 225.13 615.4 307.26 656.89 307.81 657.65 225.97"/></g><g id="block-5" class="block"><polygon class="cls-10" points="500.14 206.46 500.14 127.9 538.93 127.9 538.93 207.22 500.14 206.46"/><path class="cls-11" d="M536.43,130.4v74.28l-33.79-.66v-73.61h33.79M541.43,125.4h-43.79v83.51l43.79.86v-84.37h0Z"/></g><g id="block-6" class="block"><polygon class="cls-10" points="557.83 207.6 557.83 127.9 599 127.9 599 208.41 557.83 207.6"/><path class="cls-11" d="M596.5,130.4v75.46l-36.17-.71v-74.75h36.17M601.5,125.4h-46.17v84.65l46.17.91v-85.56h0Z"/></g><g id="block-19" class="block"><polygon class="cls-10" points="451.32 402.92 451.32 369.45 464.63 369.45 464.63 321.65 481.23 321.87 481.23 402.92 451.32 402.92"/><path class="cls-11" d="M467.13,324.18l11.6.15v76.08h-24.92v-28.47h13.32v-47.77M462.13,319.12v47.84h-13.32v38.47h34.92v-86.02l-21.6-.29h0Z"/></g><g id="block-12" class="block"><polygon class="cls-10" points="464.63 302.74 464.63 224.67 481.23 225 481.23 302.97 464.63 302.74"/><path class="cls-11" d="M467.13,227.22l11.6.23v72.99l-11.6-.15v-73.06M462.13,222.12v83.09l21.6.29v-82.96l-21.6-.43h0Z"/></g><g id="block-32" class="block"><path class="cls-10" d="M451.32,421.83h41.81l.77,114.88c-20.67.51-33.8,1.2-40.08,2.12-.75.11-1.59.22-2.5.34v-117.34Z"/><path class="cls-11" d="M490.64,424.33l.74,109.95c-18.99.5-31.32,1.16-37.57,2.03v-111.98h36.83M495.61,419.33h-46.79v122.66c1.98-.22,3.79-.45,5.36-.68,6.82-1,21.76-1.68,42.24-2.15l-.8-119.82h0Z"/></g><g id="block-4" class="block"><polygon class="cls-10" points="464.63 205.76 464.63 127.9 481.23 127.9 481.23 206.09 464.63 205.76"/><path class="cls-11" d="M478.73,130.4v73.14l-11.6-.23v-72.91h11.6M483.73,125.4h-21.6v82.81l21.6.43v-83.24h0Z"/></g><g id="block-11" class="block"><path class="cls-10" d="M237.82,350.55c-.28-41.16-.51-84.98-.68-130.36l61.12,1.2,1.1,129.15h-61.55Z"/><path class="cls-11" d="M239.65,222.74l56.14,1.1,1.06,124.2h-56.54c-.27-39.6-.48-81.7-.65-125.31M234.63,217.64c.14,36.7.36,84.68.7,135.41h66.55l-1.14-134.11-66.11-1.3h0Z"/></g><g id="block-39" class="block"><path class="cls-10" d="M239.99,548.83c-.25-14.34-.5-30.14-.72-47.04h61.39l.38,45.24c-24.08.79-46.01,1.4-61.05,1.8Z"/><path class="cls-11" d="M298.17,504.29l.34,40.32c-21.86.71-41.73,1.27-56.07,1.65-.22-12.88-.44-26.96-.64-41.97h56.37M303.13,499.29h-66.4c.24,18.32.51,35.84.8,52.1,15.78-.41,39.64-1.07,66.03-1.94l-.43-50.16h0Z"/></g><g id="block-33" class="block"><path class="cls-10" d="M512.03,421.83h38.02l.77,114.06c-14.59.12-27.08.27-38.02.44l-.77-114.5Z"/><path class="cls-11" d="M547.57,424.33l.73,109.08c-12.41.11-23.29.23-33.02.38l-.73-109.46h33.02M552.54,419.33h-43.02l.8,119.54c12.88-.22,27.37-.38,43.02-.51l-.8-119.04h0Z"/></g><g id="block-29" class="block"><path class="cls-10" d="M239.02,482.89c-.18-15.04-.36-31.29-.52-48.39h61.58l.41,48.39h-61.47Z"/><path class="cls-11" d="M297.6,436.99l.37,43.39h-56.47c-.16-13.64-.32-28.19-.47-43.39h56.57M302.56,431.99h-66.58c.17,18.13.36,36.05.58,53.39h66.46l-.45-53.39h0Z"/></g><g id="block-26" class="block"><path class="cls-10" d="M238.33,415.59c-.14-15.39-.26-30.84-.37-46.14h61.57l.39,46.14h-61.59Z"/><path class="cls-11" d="M297.05,371.95l.35,41.14h-56.59c-.12-13.24-.23-27.04-.33-41.14h56.58M302.01,366.95h-66.57c.12,16.93.26,34.08.41,51.14h66.59l-.43-51.14h0Z"/></g><g id="block-21" class="block"><polygon class="cls-10" points="500.14 402.92 500.14 322.12 538.93 322.64 538.93 402.92 500.14 402.92"/><path class="cls-11" d="M502.64,324.66l33.79.45v75.32h-33.79v-75.77M497.64,319.59v85.83h43.79v-85.25l-43.79-.58h0Z"/></g><g id="block-13" class="block"><polygon class="cls-10" points="500.14 303.22 500.14 225.37 538.93 226.13 538.93 303.74 500.14 303.22"/><path class="cls-11" d="M502.64,227.92l33.79.66v72.62l-33.79-.45v-72.83M497.64,222.82v82.87l43.79.58v-82.59l-43.79-.86h0Z"/></g><g id="block-22" class="block"><polygon class="cls-10" points="557.83 402.92 557.83 322.89 599 323.44 599 402.92 557.83 402.92"/><path class="cls-11" d="M560.33,325.43l36.17.48v74.51h-36.17v-75M555.33,320.36v85.06h46.17v-84.45l-46.17-.62h0Z"/></g><g id="block-34" class="block"><path class="cls-10" d="M568.96,421.83h40.87l-1.28,113.75c-14.98.05-27.45.1-38.82.17l-.77-113.92Z"/><path class="cls-11" d="M607.3,424.33l-1.23,108.76c-12.54.04-23.7.09-33.87.15l-.73-108.91h35.83M612.36,419.33h-45.92l.8,118.94c13.94-.09,28.62-.15,43.78-.19l1.34-118.75h0Z"/></g><g id="block-1" class="block"><path class="cls-10" d="M237.08,201.29c-.09-25.7-.12-43.74-.14-50.07l60.73-.23.44,51.5-61.03-1.2Z"/><path class="cls-11" d="M295.19,153.49l.39,46.44-56.02-1.1c-.07-21.54-.11-37.5-.12-45.13l55.75-.21M300.15,148.47l-65.71.25s.04,21.24.15,55.01l66.05,1.3-.48-56.56h0Z"/></g><g id="block-3" class="block"><polygon class="cls-10" points="394.51 204.38 394.51 150.62 445.73 150.42 445.73 205.39 394.51 204.38"/><path class="cls-11" d="M443.23,152.93v49.91l-46.22-.91v-48.82l46.22-.18M448.23,147.91l-56.22.21v58.71l56.22,1.11v-60.03h0Z"/></g><g id="block-9" class="block"><polygon class="cls-10" points="317.59 270.84 317.18 221.77 375.6 222.92 375.6 272.26 317.59 270.84"/><path class="cls-11" d="M319.7,224.32l53.41,1.05v44.33l-53.03-1.3-.37-44.08M314.65,219.22l.46,54.06,62.99,1.55v-54.36l-63.45-1.25h0Z"/></g><g id="block-10" class="block"><polygon class="cls-10" points="394.51 272.72 394.51 223.29 445.73 224.3 445.73 273.98 394.51 272.72"/><path class="cls-11" d="M397.01,225.84l46.22.91v44.67l-46.22-1.13v-44.44M392.01,220.74v54.42l56.22,1.38v-54.7l-56.22-1.11h0Z"/></g><g id="block-17" class="block"><polygon class="cls-10" points="318.27 350.55 317.75 289.75 375.6 291.17 375.6 350.55 318.27 350.55"/><path class="cls-11" d="M320.28,292.31l52.83,1.3v54.44h-52.36l-.47-55.74M315.23,287.19l.56,65.87h62.31v-64.32l-62.87-1.54h0Z"/></g><g id="block-2" class="block"><polygon class="cls-10" points="317.02 202.86 316.57 150.91 375.6 150.69 375.6 204.01 317.02 202.86"/><path class="cls-11" d="M373.1,153.2v48.26l-53.61-1.05-.4-47,54.01-.2M378.1,148.18l-64.05.24.48,56.89,63.57,1.25v-58.38h0Z"/></g><g id="block-31" class="block"><rect class="cls-10" x="394.51" y="434.49" width="37.91" height="48.39"/><path class="cls-11" d="M429.91,436.99v43.39h-32.9v-43.39h32.9M434.91,431.99h-42.9v53.39h42.9v-53.39h0Z"/></g><g id="block-41" class="block"><path class="cls-10" d="M394.51,501.79h37.91v39.18c-10.05.77-22.78,1.55-37.91,2.32v-41.5Z"/><path class="cls-11" d="M429.91,504.29v34.36c-9.05.67-20.07,1.34-32.9,2.01v-36.37h32.9M434.91,499.29h-42.9v46.63c16.34-.82,31.15-1.7,42.9-2.64v-43.99h0Z"/></g><g id="block-27" class="block"><polygon class="cls-10" points="318.82 415.59 318.43 369.45 375.6 369.45 375.6 415.59 318.82 415.59"/><path class="cls-11" d="M373.1,371.95v41.14h-51.8l-.35-41.14h52.15M378.1,366.95h-62.19l.43,51.14h61.76v-51.14h0Z"/></g><g id="block-18" class="block"><polygon class="cls-10" points="394.51 350.55 394.51 291.63 445.73 292.89 445.73 350.55 394.51 350.55"/><path class="cls-11" d="M397.01,294.19l46.22,1.13v52.72h-46.22v-53.86M392.01,289.07v63.98h56.22v-62.6l-56.22-1.38h0Z"/></g><g id="block-28" class="block"><rect class="cls-10" x="394.51" y="369.45" width="37.91" height="46.14"/><path class="cls-11" d="M429.91,371.95v41.14h-32.9v-41.14h32.9M434.91,366.95h-42.9v51.14h42.9v-51.14h0Z"/></g><g id="block-30" class="block"><polygon class="cls-10" points="319.4 482.89 318.98 434.49 375.6 434.49 375.6 482.89 319.4 482.89"/><path class="cls-11" d="M373.1,436.99v43.39h-51.23l-.37-43.39h51.6M378.1,431.99h-61.64l.45,53.39h61.19v-53.39h0Z"/></g><g id="block-40" class="block"><path class="cls-10" d="M319.56,501.79h56.05v42.41c-16.42.74-35.12,1.48-55.67,2.2l-.38-44.61Z"/><path class="cls-11" d="M373.1,504.29v37.52c-15.15.67-32.15,1.35-50.69,2l-.34-39.52h51.03M378.1,499.29h-61.07l.42,49.69c20.13-.7,41.11-1.5,60.65-2.4v-47.3h0Z"/></g><g id="block-14" class="block"><polygon class="cls-10" points="557.83 303.99 557.83 226.5 612.9 227.59 612.9 304.72 557.83 303.99"/><path class="cls-11" d="M560.33,229.05l50.07.99v72.15l-50.07-.67v-72.47M555.33,223.95v82.5l60.07.8v-82.12l-60.07-1.18h0Z"/></g><path class="cls-2" d="M154.1,210.83h2.04l6.33,9.44h.03v-9.44h1.56v11.48h-1.98l-6.39-9.44h-.03v9.44h-1.56v-11.48Z"/><path class="cls-2" d="M174.42,212.62l-2.11,1.95-.91-1.09,3.19-2.64h1.38v11.48h-1.56v-9.7Z"/><path class="cls-2" d="M183.44,212.62l-2.11,1.95-.91-1.09,3.19-2.64h1.38v11.48h-1.56v-9.7Z"/><path class="cls-2" d="M193.3,215.9h-2.09v3.49c0,.22,0,.43.02.64.01.21.05.4.12.57.07.17.18.3.32.41.15.1.36.15.64.15.17,0,.35-.02.54-.05.18-.03.35-.09.5-.18v1.33c-.17.1-.4.16-.67.2-.28.04-.49.06-.64.06-.56,0-1-.08-1.31-.24-.31-.16-.54-.36-.68-.61s-.23-.53-.26-.84c-.03-.31-.04-.62-.04-.93v-4.01h-1.69v-1.26h1.69v-2.16h1.46v2.16h2.09v1.26Z"/><path class="cls-2" d="M195.18,210.06h1.46v5.76h.03c.18-.41.5-.74.96-1s.98-.38,1.57-.38c.37,0,.72.06,1.06.17s.64.29.89.53c.25.24.46.54.61.92.15.37.23.81.23,1.32v4.95h-1.46v-4.54c0-.36-.05-.66-.15-.92-.1-.25-.23-.46-.39-.62-.16-.16-.35-.27-.56-.34-.21-.07-.43-.11-.66-.11-.3,0-.58.05-.84.15-.26.1-.49.25-.68.46s-.35.48-.45.8c-.11.32-.16.71-.16,1.15v3.96h-1.46v-12.26Z"/><path class="cls-2" d="M209.43,219.92c.28.42.64.73,1.08.93.44.2.89.3,1.35.3.26,0,.52-.04.79-.12s.52-.2.74-.36.4-.36.54-.6c.14-.24.21-.51.21-.83,0-.44-.14-.78-.42-1.01-.28-.23-.63-.43-1.05-.58-.42-.16-.87-.31-1.36-.45-.49-.15-.95-.35-1.36-.61s-.76-.61-1.05-1.05c-.28-.44-.42-1.03-.42-1.78,0-.34.07-.69.22-1.07.15-.38.38-.72.69-1.04s.72-.58,1.21-.79c.49-.21,1.08-.32,1.78-.32.63,0,1.23.09,1.8.26.57.17,1.08.52,1.51,1.05l-1.26,1.15c-.19-.3-.47-.55-.83-.73-.36-.18-.76-.28-1.22-.28s-.79.06-1.08.17c-.29.11-.52.26-.69.44-.17.18-.29.37-.36.58s-.11.39-.11.57c0,.49.14.86.42,1.12.28.26.63.47,1.05.63s.87.31,1.36.44c.49.13.95.31,1.36.54.42.23.76.55,1.05.94.28.39.42.94.42,1.63,0,.55-.11,1.05-.32,1.49-.21.44-.49.82-.85,1.12-.36.3-.78.54-1.26.7-.49.16-1.01.24-1.56.24-.74,0-1.43-.13-2.09-.39-.66-.26-1.18-.66-1.57-1.2l1.28-1.1Z"/><path class="cls-2" d="M221.85,215.9h-2.09v3.49c0,.22,0,.43.02.64.01.21.05.4.12.57.07.17.18.3.32.41.15.1.36.15.64.15.17,0,.35-.02.54-.05.18-.03.35-.09.5-.18v1.33c-.17.1-.4.16-.67.2-.28.04-.49.06-.64.06-.56,0-1-.08-1.31-.24-.31-.16-.54-.36-.68-.61s-.23-.53-.26-.84c-.03-.31-.04-.62-.04-.93v-4.01h-1.69v-1.26h1.69v-2.16h1.46v2.16h2.09v1.26Z"/><path class="cls-2" d="M163.29,353.11h2.04l6.33,9.44h.03v-9.44h1.56v11.48h-1.98l-6.39-9.44h-.03v9.44h-1.56v-11.48Z"/><path class="cls-2" d="M184.69,360.15h-.06c-.36.17-.78.26-1.26.26-.41,0-.83-.07-1.25-.21-.42-.14-.8-.36-1.14-.66-.34-.3-.62-.68-.84-1.14-.22-.46-.32-1-.32-1.63s.11-1.18.32-1.66c.21-.48.49-.88.85-1.21.36-.32.77-.57,1.25-.74.48-.17.98-.25,1.52-.25s1.05.09,1.52.26c.48.17.89.42,1.25.75s.64.71.85,1.17c.21.45.32.96.32,1.52,0,.36-.03.68-.08.97-.05.29-.13.57-.24.84-.1.26-.22.53-.36.79s-.3.52-.47.79l-2.9,4.59h-1.83l2.89-4.44ZM186.13,356.66c0-.35-.06-.66-.17-.96-.11-.29-.28-.54-.49-.75s-.46-.38-.75-.49c-.29-.12-.62-.18-.97-.18s-.68.06-.97.18c-.29.12-.54.28-.75.49-.21.21-.37.46-.49.75-.11.29-.17.61-.17.96s.06.66.17.96c.11.29.28.54.49.75.21.21.46.38.75.49.29.12.62.18.97.18s.68-.06.97-.18c.29-.12.54-.28.75-.49.21-.21.37-.46.49-.75.11-.29.17-.61.17-.96Z"/><path class="cls-2" d="M193.48,358.17h-2.09v3.49c0,.22,0,.43.02.64.01.21.05.4.12.57.07.17.18.3.32.41.15.1.36.15.64.15.17,0,.35-.02.54-.05.18-.03.35-.09.5-.18v1.33c-.17.1-.4.16-.67.2-.28.04-.49.06-.64.06-.56,0-1-.08-1.31-.24-.31-.16-.54-.36-.68-.61s-.23-.53-.26-.84c-.03-.31-.04-.62-.04-.93v-4.01h-1.69v-1.26h1.69v-2.16h1.46v2.16h2.09v1.26Z"/><path class="cls-2" d="M195.36,352.33h1.46v5.76h.03c.18-.41.5-.74.96-1s.98-.38,1.57-.38c.37,0,.72.06,1.06.17s.64.29.89.53c.25.24.46.54.61.92.15.37.23.81.23,1.32v4.95h-1.46v-4.54c0-.36-.05-.66-.15-.92-.1-.25-.23-.46-.39-.62-.16-.16-.35-.27-.56-.34-.21-.07-.43-.11-.66-.11-.3,0-.58.05-.84.15-.26.1-.49.25-.68.46s-.35.48-.45.8c-.11.32-.16.71-.16,1.15v3.96h-1.46v-12.26Z"/><path class="cls-2" d="M209.6,362.19c.28.42.64.73,1.08.93.44.2.89.3,1.35.3.26,0,.52-.04.79-.12s.52-.2.74-.36.4-.36.54-.6c.14-.24.21-.51.21-.83,0-.44-.14-.78-.42-1.01-.28-.23-.63-.43-1.05-.58-.42-.16-.87-.31-1.36-.45-.49-.15-.95-.35-1.36-.61s-.76-.61-1.05-1.05c-.28-.44-.42-1.03-.42-1.78,0-.34.07-.69.22-1.07.15-.38.38-.72.69-1.04s.72-.58,1.21-.79c.49-.21,1.08-.32,1.78-.32.63,0,1.23.09,1.8.26.57.17,1.08.52,1.51,1.05l-1.26,1.15c-.19-.3-.47-.55-.83-.73-.36-.18-.76-.28-1.22-.28s-.79.06-1.08.17c-.29.11-.52.26-.69.44-.17.18-.29.37-.36.58s-.11.39-.11.57c0,.49.14.86.42,1.12.28.26.63.47,1.05.63s.87.31,1.36.44c.49.13.95.31,1.36.54.42.23.76.55,1.05.94.28.39.42.94.42,1.63,0,.55-.11,1.05-.32,1.49-.21.44-.49.82-.85,1.12-.36.3-.78.54-1.26.7-.49.16-1.01.24-1.56.24-.74,0-1.43-.13-2.09-.39-.66-.26-1.18-.66-1.57-1.2l1.28-1.1Z"/><path class="cls-2" d="M222.03,358.17h-2.09v3.49c0,.22,0,.43.02.64.01.21.05.4.12.57.07.17.18.3.32.41.15.1.36.15.64.15.17,0,.35-.02.54-.05.18-.03.35-.09.5-.18v1.33c-.17.1-.4.16-.67.2-.28.04-.49.06-.64.06-.56,0-1-.08-1.31-.24-.31-.16-.54-.36-.68-.61s-.23-.53-.26-.84c-.03-.31-.04-.62-.04-.93v-4.01h-1.69v-1.26h1.69v-2.16h1.46v2.16h2.09v1.26Z"/><path class="cls-2" d="M363.21,277.14h1.46l4.52,6.74h.02v-6.74h1.11v8.2h-1.41l-4.57-6.74h-.02v6.74h-1.11v-8.2Z"/><path class="cls-2" d="M377.73,278.42l-1.51,1.39-.65-.78,2.28-1.89h.98v8.2h-1.11v-6.93Z"/><path class="cls-2" d="M381.44,281.24c0-.3.01-.61.05-.94.03-.32.09-.64.17-.95.08-.31.19-.61.32-.9s.31-.54.52-.75.46-.38.75-.51c.29-.13.63-.19,1.01-.19s.72.06,1.01.19c.29.13.54.3.75.51s.39.46.52.75.24.58.32.9c.08.31.14.63.17.95.03.32.05.64.05.94,0,.43-.04.9-.12,1.39s-.22.95-.43,1.38-.5.78-.86,1.05c-.37.28-.84.42-1.42.42s-1.05-.14-1.42-.42c-.37-.28-.65-.63-.86-1.05s-.35-.88-.43-1.38-.12-.96-.12-1.39ZM382.55,281.24c0,.27.02.59.05.96.04.37.11.73.23,1.07s.29.64.52.88c.23.24.54.36.92.36s.69-.12.92-.36c.23-.24.4-.53.52-.88s.19-.7.22-1.07c.04-.37.05-.69.05-.96,0-.18,0-.39-.02-.63-.01-.24-.04-.47-.08-.72s-.1-.48-.18-.71-.18-.43-.31-.61c-.13-.18-.28-.33-.47-.43-.18-.11-.41-.16-.66-.16s-.48.05-.66.16c-.18.11-.34.25-.47.43-.13.18-.23.39-.31.61s-.14.46-.18.71c-.04.24-.07.48-.08.72-.01.24-.02.45-.02.63Z"/><path class="cls-2" d="M391.21,280.76h-1.49v2.49c0,.15,0,.31.01.46,0,.15.04.29.09.41.05.12.13.22.23.29.1.07.26.11.46.11.12,0,.25-.01.38-.04.13-.02.25-.07.36-.13v.95c-.12.07-.28.12-.48.14-.2.03-.35.04-.46.04-.4,0-.71-.06-.93-.17-.22-.11-.38-.26-.49-.43-.1-.18-.16-.38-.18-.6-.02-.22-.03-.44-.03-.67v-2.86h-1.21v-.9h1.21v-1.54h1.04v1.54h1.49v.9Z"/><path class="cls-2" d="M392.56,276.59h1.04v4.11h.02c.13-.29.36-.53.68-.71.32-.18.7-.27,1.12-.27.26,0,.52.04.76.12.24.08.46.21.64.38.18.17.32.39.43.65s.16.58.16.94v3.53h-1.04v-3.24c0-.25-.04-.47-.1-.65-.07-.18-.16-.33-.28-.44s-.25-.19-.4-.24c-.15-.05-.31-.08-.47-.08-.22,0-.42.04-.6.11-.19.07-.35.18-.49.33-.14.15-.25.34-.32.57s-.12.51-.12.82v2.83h-1.04v-8.76Z"/><path class="cls-2" d="M402.73,283.63c.2.3.46.52.77.66.31.14.64.22.97.22.19,0,.38-.03.57-.09s.37-.15.53-.26.29-.26.39-.43c.1-.17.15-.37.15-.59,0-.32-.1-.56-.3-.72-.2-.17-.45-.31-.75-.42-.3-.11-.62-.22-.97-.32s-.68-.25-.97-.44c-.3-.18-.55-.43-.75-.75-.2-.31-.3-.74-.3-1.27,0-.24.05-.49.16-.76.1-.27.27-.52.49-.74.22-.22.51-.41.86-.56.35-.15.78-.23,1.27-.23.45,0,.88.06,1.29.18.41.12.77.38,1.08.75l-.9.82c-.14-.22-.34-.39-.59-.52-.26-.13-.55-.2-.87-.2s-.56.04-.77.12c-.2.08-.37.19-.49.31-.12.13-.21.26-.26.41-.05.15-.08.28-.08.41,0,.35.1.61.3.8.2.19.45.34.75.45.3.12.62.22.97.31.35.09.68.22.97.39.3.17.55.39.75.67.2.28.3.67.3,1.16,0,.39-.08.75-.23,1.06-.15.32-.35.58-.61.8-.25.22-.56.38-.9.5s-.72.17-1.11.17c-.52,0-1.02-.09-1.49-.28-.47-.18-.85-.47-1.12-.86l.92-.79Z"/><path class="cls-2" d="M411.6,280.76h-1.49v2.49c0,.15,0,.31.01.46,0,.15.04.29.09.41.05.12.13.22.23.29.1.07.26.11.46.11.12,0,.25-.01.38-.04.13-.02.25-.07.36-.13v.95c-.12.07-.28.12-.48.14-.2.03-.35.04-.46.04-.4,0-.71-.06-.93-.17-.22-.11-.38-.26-.49-.43-.1-.18-.16-.38-.18-.6-.02-.22-.03-.44-.03-.67v-2.86h-1.21v-.9h1.21v-1.54h1.04v1.54h1.49v.9Z"/><path class="cls-2" d="M482.91,308.33h1.46l4.52,6.74h.02v-6.74h1.11v8.2h-1.41l-4.57-6.74h-.02v6.74h-1.11v-8.2Z"/><path class="cls-2" d="M497.43,309.6l-1.51,1.39-.65-.78,2.28-1.89h.98v8.2h-1.11v-6.93Z"/><path class="cls-2" d="M501.14,312.43c0-.3.01-.61.05-.94.03-.32.09-.64.17-.95.08-.31.19-.61.32-.9s.31-.54.52-.75.46-.38.75-.51c.29-.13.63-.19,1.01-.19s.72.06,1.01.19c.29.13.54.3.75.51s.39.46.52.75.24.58.32.9c.08.31.14.63.17.95.03.32.05.64.05.94,0,.43-.04.9-.12,1.39s-.22.95-.43,1.38-.5.78-.86,1.05c-.37.28-.84.42-1.42.42s-1.05-.14-1.42-.42c-.37-.28-.65-.63-.86-1.05s-.35-.88-.43-1.38-.12-.96-.12-1.39ZM502.25,312.43c0,.27.02.59.05.96.04.37.11.73.23,1.07s.29.64.52.88c.23.24.54.36.92.36s.69-.12.92-.36c.23-.24.4-.53.52-.88s.19-.7.22-1.07c.04-.37.05-.69.05-.96,0-.18,0-.39-.02-.63-.01-.24-.04-.47-.08-.72s-.1-.48-.18-.71-.18-.43-.31-.61c-.13-.18-.28-.33-.47-.43-.18-.11-.41-.16-.66-.16s-.48.05-.66.16c-.18.11-.34.25-.47.43-.13.18-.23.39-.31.61s-.14.46-.18.71c-.04.24-.07.48-.08.72-.01.24-.02.45-.02.63Z"/><path class="cls-2" d="M510.91,311.94h-1.49v2.49c0,.15,0,.31.01.46,0,.15.04.29.09.41.05.12.13.22.23.29.1.07.26.11.46.11.12,0,.25-.01.38-.04.13-.02.25-.07.36-.13v.95c-.12.07-.28.12-.48.14-.2.03-.35.04-.46.04-.4,0-.71-.06-.93-.17-.22-.11-.38-.26-.49-.43-.1-.18-.16-.38-.18-.6-.02-.22-.03-.44-.03-.67v-2.86h-1.21v-.9h1.21v-1.54h1.04v1.54h1.49v.9Z"/><path class="cls-2" d="M512.26,307.77h1.04v4.11h.02c.13-.29.36-.53.68-.71.32-.18.7-.27,1.12-.27.26,0,.52.04.76.12.24.08.46.21.64.38.18.17.32.39.43.65s.16.58.16.94v3.53h-1.04v-3.24c0-.25-.04-.47-.1-.65-.07-.18-.16-.33-.28-.44s-.25-.19-.4-.24c-.15-.05-.31-.08-.47-.08-.22,0-.42.04-.6.11-.19.07-.35.18-.49.33-.14.15-.25.34-.32.57s-.12.51-.12.82v2.83h-1.04v-8.76Z"/><path class="cls-2" d="M522.43,314.82c.2.3.46.52.77.66.31.14.64.22.97.22.19,0,.38-.03.57-.09s.37-.15.53-.26.29-.26.39-.43c.1-.17.15-.37.15-.59,0-.32-.1-.56-.3-.72-.2-.17-.45-.31-.75-.42-.3-.11-.62-.22-.97-.32s-.68-.25-.97-.44c-.3-.18-.55-.43-.75-.75-.2-.31-.3-.74-.3-1.27,0-.24.05-.49.16-.76.1-.27.27-.52.49-.74.22-.22.51-.41.86-.56.35-.15.78-.23,1.27-.23.45,0,.88.06,1.29.18.41.12.77.38,1.08.75l-.9.82c-.14-.22-.34-.39-.59-.52-.26-.13-.55-.2-.87-.2s-.56.04-.77.12c-.2.08-.37.19-.49.31-.12.13-.21.26-.26.41-.05.15-.08.28-.08.41,0,.35.1.61.3.8.2.19.45.34.75.45.3.12.62.22.97.31.35.09.68.22.97.39.3.17.55.39.75.67.2.28.3.67.3,1.16,0,.39-.08.75-.23,1.06-.15.32-.35.58-.61.8-.25.22-.56.38-.9.5s-.72.17-1.11.17c-.52,0-1.02-.09-1.49-.28-.47-.18-.85-.47-1.12-.86l.92-.79Z"/><path class="cls-2" d="M531.3,311.94h-1.49v2.49c0,.15,0,.31.01.46,0,.15.04.29.09.41.05.12.13.22.23.29.1.07.26.11.46.11.12,0,.25-.01.38-.04.13-.02.25-.07.36-.13v.95c-.12.07-.28.12-.48.14-.2.03-.35.04-.46.04-.4,0-.71-.06-.93-.17-.22-.11-.38-.26-.49-.43-.1-.18-.16-.38-.18-.6-.02-.22-.03-.44-.03-.67v-2.86h-1.21v-.9h1.21v-1.54h1.04v1.54h1.49v.9Z"/><path class="cls-2" d="M163.29,418.4h2.04l6.33,9.44h.03v-9.44h1.56v11.48h-1.98l-6.39-9.44h-.03v9.44h-1.56v-11.48Z"/><path class="cls-2" d="M183.75,430.08c-.52,0-1.01-.08-1.47-.24s-.86-.39-1.19-.69-.6-.67-.79-1.1c-.19-.43-.29-.92-.29-1.46,0-.36.06-.69.17-.99.11-.3.27-.58.46-.82.19-.24.42-.45.69-.62.26-.17.55-.29.87-.38v-.05c-.22-.05-.43-.15-.65-.29-.22-.14-.41-.32-.58-.54-.17-.22-.31-.48-.41-.79-.11-.31-.16-.66-.16-1.06,0-.43.09-.82.27-1.18.18-.35.42-.65.73-.9.31-.25.66-.44,1.07-.58s.84-.2,1.29-.2.88.07,1.29.2.76.33,1.07.58c.31.25.55.55.73.9.18.35.27.74.27,1.18,0,.4-.05.75-.16,1.06-.11.31-.25.57-.41.79-.17.22-.36.39-.58.54-.22.14-.43.24-.65.29v.05c.31.09.6.21.87.38.26.17.49.37.69.62.19.24.35.52.46.82.11.3.17.63.17.99,0,.54-.1,1.03-.29,1.46-.19.43-.46.8-.79,1.1s-.73.53-1.19.69-.95.24-1.47.24ZM183.75,428.72c.65,0,1.18-.2,1.58-.59.41-.39.61-.91.61-1.53,0-.35-.06-.65-.17-.92s-.27-.49-.47-.66-.43-.31-.7-.41c-.27-.09-.55-.14-.85-.14-.64.01-1.16.21-1.57.61-.41.39-.62.9-.62,1.52,0,.34.06.64.18.9s.28.49.48.66c.2.18.43.32.7.41.26.1.54.15.84.15ZM181.95,421.29c0,.23.04.45.12.66.08.22.2.41.35.58.15.17.34.31.56.41.22.11.48.16.77.16s.56-.05.79-.15c.22-.1.41-.24.56-.41.15-.17.26-.36.34-.58.08-.22.11-.44.11-.68,0-.53-.16-.96-.49-1.31s-.76-.51-1.31-.51c-.5,0-.92.17-1.27.5-.35.34-.53.77-.53,1.31Z"/><path class="cls-2" d="M193.48,423.46h-2.09v3.49c0,.22,0,.43.02.64.01.21.05.4.12.57.07.17.18.3.32.41.15.1.36.15.64.15.17,0,.35-.02.54-.05.18-.03.35-.09.5-.18v1.33c-.17.1-.4.16-.67.2-.28.04-.49.06-.64.06-.56,0-1-.08-1.31-.24-.31-.16-.54-.36-.68-.61s-.23-.53-.26-.84c-.03-.31-.04-.62-.04-.93v-4.01h-1.69v-1.26h1.69v-2.16h1.46v2.16h2.09v1.26Z"/><path class="cls-2" d="M195.36,417.63h1.46v5.76h.03c.18-.41.5-.74.96-1s.98-.38,1.57-.38c.37,0,.72.06,1.06.17s.64.29.89.53c.25.24.46.54.61.92.15.37.23.81.23,1.32v4.95h-1.46v-4.54c0-.36-.05-.66-.15-.92-.1-.25-.23-.46-.39-.62-.16-.16-.35-.27-.56-.34-.21-.07-.43-.11-.66-.11-.3,0-.58.05-.84.15-.26.1-.49.25-.68.46s-.35.48-.45.8c-.11.32-.16.71-.16,1.15v3.96h-1.46v-12.26Z"/><path class="cls-2" d="M209.6,427.49c.28.42.64.73,1.08.93.44.2.89.3,1.35.3.26,0,.52-.04.79-.12s.52-.2.74-.36.4-.36.54-.6c.14-.24.21-.51.21-.83,0-.44-.14-.78-.42-1.01-.28-.23-.63-.43-1.05-.58-.42-.16-.87-.31-1.36-.45-.49-.15-.95-.35-1.36-.61s-.76-.61-1.05-1.05c-.28-.44-.42-1.03-.42-1.78,0-.34.07-.69.22-1.07.15-.38.38-.72.69-1.04s.72-.58,1.21-.79c.49-.21,1.08-.32,1.78-.32.63,0,1.23.09,1.8.26.57.17,1.08.52,1.51,1.05l-1.26,1.15c-.19-.3-.47-.55-.83-.73-.36-.18-.76-.28-1.22-.28s-.79.06-1.08.17c-.29.11-.52.26-.69.44-.17.18-.29.37-.36.58s-.11.39-.11.57c0,.49.14.86.42,1.12.28.26.63.47,1.05.63s.87.31,1.36.44c.49.13.95.31,1.36.54.42.23.76.55,1.05.94.28.39.42.94.42,1.63,0,.55-.11,1.05-.32,1.49-.21.44-.49.82-.85,1.12-.36.3-.78.54-1.26.7-.49.16-1.01.24-1.56.24-.74,0-1.43-.13-2.09-.39-.66-.26-1.18-.66-1.57-1.2l1.28-1.1Z"/><path class="cls-2" d="M222.03,423.46h-2.09v3.49c0,.22,0,.43.02.64.01.21.05.4.12.57.07.17.18.3.32.41.15.1.36.15.64.15.17,0,.35-.02.54-.05.18-.03.35-.09.5-.18v1.33c-.17.1-.4.16-.67.2-.28.04-.49.06-.64.06-.56,0-1-.08-1.31-.24-.31-.16-.54-.36-.68-.61s-.23-.53-.26-.84c-.03-.31-.04-.62-.04-.93v-4.01h-1.69v-1.26h1.69v-2.16h1.46v2.16h2.09v1.26Z"/><path class="cls-2" d="M522.3,406.84h1.46l4.52,6.74h.02v-6.74h1.11v8.2h-1.41l-4.57-6.74h-.02v6.74h-1.11v-8.2Z"/><path class="cls-2" d="M536.91,415.18c-.37,0-.72-.06-1.05-.17-.33-.11-.61-.28-.85-.49-.24-.22-.43-.48-.57-.79s-.21-.66-.21-1.04c0-.25.04-.49.12-.71.08-.22.19-.41.33-.59s.3-.32.49-.44c.19-.12.39-.21.62-.27v-.04c-.15-.04-.31-.11-.46-.21-.15-.1-.29-.23-.41-.38-.12-.15-.22-.34-.29-.56-.08-.22-.12-.47-.12-.76,0-.31.06-.59.19-.84.13-.25.3-.46.52-.64.22-.18.48-.31.76-.41s.6-.15.92-.15.63.05.92.15.54.23.76.41c.22.18.39.39.52.64.13.25.19.53.19.84,0,.29-.04.54-.12.76-.08.22-.18.41-.3.56-.12.16-.26.28-.41.38-.15.1-.31.17-.46.21v.04c.22.06.43.15.62.27.19.12.35.27.49.44.14.17.25.37.33.59.08.22.12.45.12.71,0,.39-.07.74-.21,1.04-.14.31-.33.57-.57.79-.24.22-.52.38-.85.49-.33.11-.68.17-1.05.17ZM536.91,414.2c.46,0,.84-.14,1.13-.42.29-.28.43-.65.43-1.1,0-.25-.04-.46-.12-.65-.08-.19-.19-.35-.34-.47-.14-.13-.31-.22-.5-.29-.19-.07-.39-.1-.61-.1-.46,0-.83.15-1.12.44-.29.28-.44.64-.44,1.08,0,.24.04.45.13.64.08.19.2.35.34.48.14.13.31.22.5.29s.39.11.6.11ZM535.63,408.9c0,.16.03.32.09.48s.14.29.25.41c.11.12.24.22.4.3s.34.12.55.12.4-.04.56-.11.29-.17.4-.29.19-.26.24-.41c.05-.15.08-.32.08-.49,0-.38-.12-.69-.35-.93-.24-.24-.55-.36-.93-.36-.36,0-.66.12-.91.36-.25.24-.38.55-.38.94Z"/><path class="cls-2" d="M543.86,410.45h-1.49v2.49c0,.15,0,.31.01.46,0,.15.04.29.09.41.05.12.13.22.23.29.1.07.26.11.46.11.12,0,.25-.01.38-.04.13-.02.25-.07.36-.13v.95c-.12.07-.28.12-.48.14-.2.03-.35.04-.46.04-.4,0-.71-.06-.93-.17-.22-.11-.38-.26-.49-.43-.1-.18-.16-.38-.18-.6-.02-.22-.03-.44-.03-.67v-2.86h-1.21v-.9h1.21v-1.54h1.04v1.54h1.49v.9Z"/><path class="cls-2" d="M545.21,406.28h1.04v4.11h.02c.13-.29.36-.53.68-.71.32-.18.7-.27,1.12-.27.26,0,.52.04.76.12.24.08.46.21.64.38.18.17.32.39.43.65s.16.58.16.94v3.53h-1.04v-3.24c0-.25-.04-.47-.1-.65-.07-.18-.16-.33-.28-.44s-.25-.19-.4-.24c-.15-.05-.31-.08-.47-.08-.22,0-.42.04-.6.11-.19.07-.35.18-.49.33-.14.15-.25.34-.32.57s-.12.51-.12.82v2.83h-1.04v-8.76Z"/><path class="cls-2" d="M555.38,413.32c.2.3.46.52.77.66.31.14.64.22.97.22.19,0,.38-.03.57-.09s.37-.15.53-.26.29-.26.39-.43c.1-.17.15-.37.15-.59,0-.32-.1-.56-.3-.72-.2-.17-.45-.31-.75-.42-.3-.11-.62-.22-.97-.32s-.68-.25-.97-.44c-.3-.18-.55-.43-.75-.75-.2-.31-.3-.74-.3-1.27,0-.24.05-.49.16-.76.1-.27.27-.52.49-.74.22-.22.51-.41.86-.56.35-.15.78-.23,1.27-.23.45,0,.88.06,1.29.18.41.12.77.38,1.08.75l-.9.82c-.14-.22-.34-.39-.59-.52-.26-.13-.55-.2-.87-.2s-.56.04-.77.12c-.2.08-.37.19-.49.31-.12.13-.21.26-.26.41-.05.15-.08.28-.08.41,0,.35.1.61.3.8.2.19.45.34.75.45.3.12.62.22.97.31.35.09.68.22.97.39.3.17.55.39.75.67.2.28.3.67.3,1.16,0,.39-.08.75-.23,1.06-.15.32-.35.58-.61.8-.25.22-.56.38-.9.5s-.72.17-1.11.17c-.52,0-1.02-.09-1.49-.28-.47-.18-.85-.47-1.12-.86l.92-.79Z"/><path class="cls-2" d="M564.25,410.45h-1.49v2.49c0,.15,0,.31.01.46,0,.15.04.29.09.41.05.12.13.22.23.29.1.07.26.11.46.11.12,0,.25-.01.38-.04.13-.02.25-.07.36-.13v.95c-.12.07-.28.12-.48.14-.2.03-.35.04-.46.04-.4,0-.71-.06-.93-.17-.22-.11-.38-.26-.49-.43-.1-.18-.16-.38-.18-.6-.02-.22-.03-.44-.03-.67v-2.86h-1.21v-.9h1.21v-1.54h1.04v1.54h1.49v.9Z"/><path class="cls-2" d="M163.29,485.35h2.04l6.33,9.44h.03v-9.44h1.56v11.48h-1.98l-6.39-9.44h-.03v9.44h-1.56v-11.48Z"/><path class="cls-2" d="M185.48,486.71h-5.56v-1.36h7.22v1.33l-4.57,10.15h-1.75l4.67-10.12Z"/><path class="cls-2" d="M193.48,490.41h-2.09v3.49c0,.22,0,.43.02.64.01.21.05.4.12.57.07.17.18.3.32.41.15.1.36.15.64.15.17,0,.35-.02.54-.05.18-.03.35-.09.5-.18v1.33c-.17.1-.4.16-.67.2-.28.04-.49.06-.64.06-.56,0-1-.08-1.31-.24-.31-.16-.54-.36-.68-.61s-.23-.53-.26-.84c-.03-.31-.04-.62-.04-.93v-4.01h-1.69v-1.26h1.69v-2.16h1.46v2.16h2.09v1.26Z"/><path class="cls-2" d="M195.36,484.57h1.46v5.76h.03c.18-.41.5-.74.96-1,.45-.25.98-.38,1.57-.38.37,0,.72.06,1.06.17s.64.29.89.53c.25.24.46.54.61.92.15.37.23.81.23,1.32v4.95h-1.46v-4.54c0-.36-.05-.66-.15-.92-.1-.25-.23-.46-.39-.62-.16-.16-.35-.27-.56-.34-.21-.07-.43-.11-.66-.11-.3,0-.58.05-.84.15-.26.1-.49.25-.68.46s-.35.48-.45.8c-.11.32-.16.71-.16,1.15v3.96h-1.46v-12.26Z"/><path class="cls-2" d="M209.6,494.43c.28.42.64.73,1.08.93.44.2.89.3,1.35.3.26,0,.52-.04.79-.12s.52-.2.74-.36.4-.36.54-.6c.14-.24.21-.51.21-.83,0-.44-.14-.78-.42-1.01-.28-.23-.63-.43-1.05-.58-.42-.16-.87-.31-1.36-.45-.49-.15-.95-.35-1.36-.61s-.76-.61-1.05-1.05c-.28-.44-.42-1.03-.42-1.78,0-.34.07-.69.22-1.07.15-.38.38-.72.69-1.04s.72-.58,1.21-.79c.49-.21,1.08-.32,1.78-.32.63,0,1.23.09,1.8.26.57.17,1.08.52,1.51,1.05l-1.26,1.15c-.19-.3-.47-.55-.83-.73-.36-.18-.76-.28-1.22-.28s-.79.06-1.08.17c-.29.11-.52.26-.69.44-.17.18-.29.37-.36.58s-.11.39-.11.57c0,.49.14.86.42,1.12.28.26.63.47,1.05.63s.87.31,1.36.44c.49.13.95.31,1.36.54.42.23.76.55,1.05.94.28.39.42.94.42,1.63,0,.55-.11,1.05-.32,1.49-.21.44-.49.82-.85,1.12-.36.3-.78.54-1.26.7-.49.16-1.01.24-1.56.24-.74,0-1.43-.13-2.09-.39-.66-.26-1.18-.66-1.57-1.2l1.28-1.1Z"/><path class="cls-2" d="M222.03,490.41h-2.09v3.49c0,.22,0,.43.02.64.01.21.05.4.12.57.07.17.18.3.32.41.15.1.36.15.64.15.17,0,.35-.02.54-.05.18-.03.35-.09.5-.18v1.33c-.17.1-.4.16-.67.2-.28.04-.49.06-.64.06-.56,0-1-.08-1.31-.24-.31-.16-.54-.36-.68-.61s-.23-.53-.26-.84c-.03-.31-.04-.62-.04-.93v-4.01h-1.69v-1.26h1.69v-2.16h1.46v2.16h2.09v1.26Z"/><path class="cls-2" d="M612.12,184.38c.16,0,.24.08.24.24v.75c0,.14-.06.24-.18.3l-6,3.06h5.94c.16,0,.24.07.24.22v.75c0,.16-.08.23-.24.23h-7.96c-.16,0-.23-.07-.23-.23v-.75c0-.16.06-.25.17-.31l6.01-3.05h-5.95c-.16,0-.23-.07-.23-.23v-.74c0-.16.07-.24.22-.24h7.98Z"/><path class="cls-2" d="M608.73,178.67h3.39c.16,0,.24.08.24.24v.77c0,.16-.08.23-.24.23h-7.96c-.16,0-.23-.07-.23-.23v-3.85c0-.16.07-.23.22-.23h.66c.16,0,.24.07.24.23v2.84h2.6v-2.75c0-.16.07-.24.23-.24h.64c.14,0,.22.08.22.24v2.75Z"/><path class="cls-2" d="M605.03,173.28c.16,0,.23.07.23.2v.77c0,.14-.07.22-.23.22h-.84c-.16,0-.23-.07-.23-.22v-.77c0-.13.07-.2.23-.2h.84ZM612.15,173.29c.14,0,.22.07.22.21v.73c0,.14-.07.22-.22.22h-5.92c-.16,0-.23-.07-.23-.22v-.73c0-.14.07-.21.23-.21h5.92Z"/><path class="cls-2" d="M606.05,169.26c0-.13.07-.2.23-.2h.58c.14,0,.22.07.22.2v1.09h5.08c.13,0,.2.07.2.2v.72c0,.16-.07.23-.2.23h-5.08v.6c0,.13-.07.2-.22.2h-.58c-.16,0-.23-.07-.23-.2v-.6h-.48c-1.22,0-1.73-.52-1.73-1.61,0-.28.04-.52.1-.72.04-.1.11-.14.22-.14l.5-.02c.16,0,.22.06.2.2-.02.24-.04.4-.04.47,0,.48.22.67.83.67h.4v-1.09Z"/><path class="cls-2" d="M611.27,164.24c-.06-.13-.01-.23.14-.29l.49-.14c.12-.04.2.02.26.17.2.46.31.97.31,1.57,0,1.88-1.13,2.83-3.3,2.83s-3.3-.88-3.3-2.48,1.09-2.33,2.94-2.33h.62c.16,0,.23.07.23.23v3.43c1.2-.06,1.85-.68,1.85-1.76,0-.43-.08-.84-.25-1.22ZM608.79,167.23v-2.57h-.07c-1.26,0-1.88.41-1.88,1.22s.65,1.28,1.96,1.34Z"/><path class="cls-2" d="M612.46,157.67c0,.8-.1,1.43-.28,1.88-.07.16-.17.22-.29.19l-.61-.17c-.17-.04-.22-.13-.16-.29.16-.43.24-.94.24-1.51,0-1.07-.38-1.6-1.16-1.6-.71,0-1.08.44-1.65,1.49-.34.62-.53.95-.95,1.35-.41.42-.94.61-1.61.61-1.46,0-2.18-.84-2.18-2.55,0-.67.08-1.21.25-1.66.06-.16.16-.23.29-.19l.6.17c.16.04.2.14.14.3-.12.36-.18.79-.18,1.28s.08.85.25,1.07c.18.23.46.34.84.34.35,0,.64-.11.91-.43.28-.32.37-.47.66-.97.32-.56.44-.77.78-1.19s.61-.59,1.09-.74c.24-.08.5-.12.78-.12,1.5,0,2.23,1,2.23,2.73Z"/><path class="cls-2" d="M607.07,152.34h3.37c.76,0,.97-.13.97-.74,0-.14-.06-.32-.06-.37-.01-.11.06-.18.19-.2l.55-.08c.11-.01.18.05.23.17.07.2.11.46.11.76,0,1.19-.47,1.62-1.85,1.62h-3.51v.61c0,.16-.07.23-.22.23h-.58c-.16,0-.23-.07-.23-.23v-.62h-1.4c-.13,0-.2-.07-.2-.22v-.68c0-.16.07-.23.2-.23h1.4v-1.13c0-.16.07-.23.23-.23h.58c.14,0,.22.07.22.23v1.13Z"/><path class="cls-2" d="M611.16,150.06c-.14,0-.22-.07-.22-.23v-.81c0-.16.07-.23.22-.23h.97c.16,0,.23.07.23.22v.84c0,.14-.07.22-.23.22h-.97Z"/><path class="cls-2" d="M451.42,241.26v-1.46l6.74-4.52v-.02h-6.74v-1.11h8.2v1.41l-6.74,4.57v.02h6.74v1.11h-8.2Z"/><path class="cls-2" d="M451.42,228.82v-2.88c0-.53.07-.96.21-1.3.14-.34.32-.61.54-.81.22-.2.47-.33.74-.41s.54-.12.79-.12.52.04.79.12c.28.08.52.21.74.41.22.2.4.46.54.81.14.34.22.77.22,1.3v1.77h3.61v1.11h-8.2ZM455.04,227.71v-1.46c0-.22-.02-.43-.05-.64s-.1-.4-.19-.57-.23-.3-.4-.4-.4-.15-.68-.15-.5.05-.68.15-.31.23-.4.4-.16.36-.19.57-.05.43-.05.64v1.46h2.64Z"/><path class="cls-2" d="M452.16,222.38c-.21,0-.39-.08-.54-.22-.15-.15-.23-.33-.23-.54s.08-.39.23-.54c.15-.15.33-.22.54-.22s.39.08.54.22c.15.15.23.33.23.54s-.08.39-.23.54c-.15.15-.33.22-.54.22ZM454.13,222.14v-1.04h5.49v1.04h-5.49Z"/><path class="cls-2" d="M454.13,219.44v-1.04h.85v-.02c-.29-.13-.53-.36-.71-.68-.18-.32-.27-.7-.27-1.12,0-.26.04-.52.12-.76.08-.24.21-.46.38-.64.17-.18.39-.32.65-.43s.58-.16.94-.16h3.53v1.04h-3.24c-.25,0-.47.04-.65.1-.18.07-.33.16-.44.28s-.19.25-.24.4c-.05.15-.08.31-.08.47,0,.22.04.42.11.6.07.19.18.35.33.49.15.14.34.25.57.32s.51.12.82.12h2.83v1.04h-5.49Z"/><path class="cls-2" d="M457.26,212.21c.24,0,.46-.05.65-.16.2-.11.36-.24.5-.41.14-.17.25-.37.32-.59.08-.22.12-.46.12-.7,0-.32-.08-.61-.23-.85-.15-.24-.35-.46-.6-.66l.6-.79c.75.58,1.12,1.39,1.12,2.43,0,.43-.07.82-.22,1.18-.15.35-.35.65-.61.89-.26.24-.56.43-.92.56-.35.13-.73.2-1.14.2s-.79-.07-1.14-.21c-.35-.14-.66-.34-.91-.59-.26-.25-.46-.55-.61-.9-.15-.35-.22-.73-.22-1.14,0-.49.08-.9.25-1.23.17-.34.39-.61.67-.83.27-.22.58-.37.93-.47s.69-.14,1.05-.14h.37v4.4ZM456.43,208.91c-.23,0-.44.05-.64.11-.19.07-.36.16-.5.3-.14.13-.25.29-.34.49-.08.2-.12.43-.12.69s.05.49.15.7.22.39.38.54c.15.15.33.26.52.34.19.08.38.12.56.12v-3.29Z"/><path class="cls-2" d="M457.91,202.82c.3-.2.52-.46.66-.77.14-.31.22-.64.22-.97,0-.19-.03-.38-.09-.57s-.15-.37-.26-.53-.26-.29-.43-.39c-.17-.1-.37-.15-.59-.15-.32,0-.56.1-.72.3-.17.2-.31.45-.42.75-.11.3-.22.62-.32.97s-.25.68-.44.97c-.18.3-.43.55-.75.75-.31.2-.74.3-1.27.3-.24,0-.49-.05-.76-.16-.27-.1-.52-.27-.74-.49-.22-.22-.41-.51-.56-.86-.15-.35-.23-.78-.23-1.27,0-.45.06-.88.18-1.29.12-.41.38-.77.75-1.08l.82.9c-.22.14-.39.34-.52.59-.13.26-.2.55-.2.87s.04.56.12.77c.08.2.19.37.31.49.13.12.26.21.41.26.15.05.28.08.41.08.35,0,.61-.1.8-.3.19-.2.34-.45.45-.75.12-.3.22-.62.31-.97.09-.35.22-.68.39-.97.17-.3.39-.55.67-.75.28-.2.67-.3,1.16-.3.39,0,.75.08,1.06.23.32.15.58.35.8.61.22.25.38.56.5.9s.17.72.17,1.11c0,.52-.09,1.02-.28,1.49-.18.47-.47.85-.86,1.12l-.79-.92Z"/><path class="cls-2" d="M455.04,193.95v1.49h2.49c.15,0,.31,0,.46-.01.15,0,.29-.04.41-.09.12-.05.22-.13.29-.23.07-.1.11-.26.11-.46,0-.12-.01-.25-.04-.38-.02-.13-.07-.25-.13-.36h.95c.07.12.12.28.14.48.03.2.04.35.04.46,0,.4-.06.71-.17.93-.11.22-.26.38-.43.49-.18.1-.38.16-.6.18-.22.02-.44.03-.67.03h-2.86v1.21h-.9v-1.21h-1.54v-1.04h1.54v-1.49h.9Z"/><path class="cls-2" d="M379.91,244.67v-1.46l6.74-4.52v-.02h-6.74v-1.11h8.2v1.41l-6.74,4.57v.02h6.74v1.11h-8.2Z"/><path class="cls-2" d="M379.91,229.67v-1.11h5.86c.52,0,.94.08,1.27.24.33.16.59.36.78.61s.32.5.39.78c.07.28.11.53.11.76,0,.58-.15,1.07-.45,1.47-.3.4-.75.65-1.35.76l-.24-1.09c.31-.06.55-.19.73-.38.18-.19.27-.44.27-.75,0-.28-.05-.5-.16-.67s-.25-.29-.42-.39-.37-.15-.6-.19c-.22-.03-.45-.05-.68-.05h-5.5Z"/><path class="cls-2" d="M388.11,222.05v1.04h-.85v.02c.29.13.53.36.71.68.18.32.27.7.27,1.12,0,.27-.04.53-.12.76s-.21.45-.38.63c-.17.18-.39.33-.65.43-.27.11-.58.16-.94.16h-3.53v-1.04h3.24c.25,0,.47-.04.65-.11.18-.07.33-.16.44-.28s.19-.25.24-.4c.05-.15.08-.31.08-.47,0-.22-.04-.42-.11-.6s-.18-.35-.33-.49c-.15-.14-.34-.25-.57-.32s-.51-.12-.82-.12h-2.83v-1.04h5.49Z"/><path class="cls-2" d="M382.62,220.47v-1.04h.85v-.02c-.29-.13-.53-.36-.71-.68-.18-.32-.27-.7-.27-1.12,0-.26.04-.52.12-.76.08-.24.21-.46.38-.64.17-.18.39-.32.65-.43s.58-.16.94-.16h3.53v1.04h-3.24c-.25,0-.47.04-.65.1-.18.07-.33.16-.44.28s-.19.25-.24.4c-.05.15-.08.31-.08.47,0,.22.04.42.11.6.07.19.18.35.33.49.15.14.34.25.57.32s.51.12.82.12h2.83v1.04h-5.49Z"/><path class="cls-2" d="M385.75,213.24c.24,0,.46-.05.65-.16.2-.11.36-.24.5-.41.14-.17.25-.37.32-.59.08-.22.12-.46.12-.7,0-.32-.08-.61-.23-.85-.15-.24-.35-.46-.6-.66l.6-.79c.75.58,1.12,1.39,1.12,2.43,0,.43-.07.82-.22,1.18-.15.35-.35.65-.61.89-.26.24-.56.43-.92.56-.35.13-.73.2-1.14.2s-.79-.07-1.14-.21c-.35-.14-.66-.34-.91-.59-.26-.25-.46-.55-.61-.9-.15-.35-.22-.73-.22-1.14,0-.49.08-.9.25-1.23.17-.34.39-.61.67-.83.27-.22.58-.37.93-.47s.69-.14,1.05-.14h.37v4.4ZM384.91,209.95c-.23,0-.44.05-.64.11-.19.07-.36.16-.5.3-.14.13-.25.29-.34.49-.08.2-.12.43-.12.69s.05.49.15.7.22.39.38.54c.15.15.33.26.52.34.19.08.38.12.56.12v-3.29Z"/><path class="cls-2" d="M383.52,204.65v1.49h2.49c.15,0,.31,0,.46-.01.15,0,.29-.04.41-.09.12-.05.22-.13.29-.23.07-.1.11-.26.11-.46,0-.12-.01-.25-.04-.38-.02-.13-.07-.25-.13-.36h.95c.07.12.12.28.14.48.03.2.04.35.04.46,0,.4-.06.71-.17.93-.11.22-.26.38-.43.49-.18.1-.38.16-.6.18-.22.02-.44.03-.67.03h-2.86v1.21h-.9v-1.21h-1.54v-1.04h1.54v-1.49h.9Z"/><path class="cls-2" d="M383.52,200.36v1.49h2.49c.15,0,.31,0,.46-.01.15,0,.29-.04.41-.09.12-.05.22-.13.29-.23.07-.1.11-.26.11-.46,0-.12-.01-.25-.04-.38-.02-.13-.07-.25-.13-.36h.95c.07.12.12.28.14.48.03.2.04.35.04.46,0,.4-.06.71-.17.93-.11.22-.26.38-.43.49-.18.1-.38.16-.6.18-.22.02-.44.03-.67.03h-2.86v1.21h-.9v-1.21h-1.54v-1.04h1.54v-1.49h.9Z"/><path class="cls-2" d="M386.39,195.28c.3-.2.52-.46.66-.77.14-.31.22-.64.22-.97,0-.19-.03-.38-.09-.57s-.15-.37-.26-.53-.26-.29-.43-.39c-.17-.1-.37-.15-.59-.15-.32,0-.56.1-.72.3-.17.2-.31.45-.42.75-.11.3-.22.62-.32.97s-.25.68-.44.97c-.18.3-.43.55-.75.75-.31.2-.74.3-1.27.3-.24,0-.49-.05-.76-.16-.27-.1-.52-.27-.74-.49-.22-.22-.41-.51-.56-.86-.15-.35-.23-.78-.23-1.27,0-.45.06-.88.18-1.29.12-.41.38-.77.75-1.08l.82.9c-.22.14-.39.34-.52.59-.13.26-.2.55-.2.87s.04.56.12.77c.08.2.19.37.31.49.13.12.26.21.41.26.15.05.28.08.41.08.35,0,.61-.1.8-.3.19-.2.34-.45.45-.75.12-.3.22-.62.31-.97.09-.35.22-.68.39-.97.17-.3.39-.55.67-.75.28-.2.67-.3,1.16-.3.39,0,.75.08,1.06.23.32.15.58.35.8.61.22.25.38.56.5.9s.17.72.17,1.11c0,.52-.09,1.02-.28,1.49-.18.47-.47.85-.86,1.12l-.79-.92Z"/><path class="cls-2" d="M383.52,186.41v1.49h2.49c.15,0,.31,0,.46-.01.15,0,.29-.04.41-.09.12-.05.22-.13.29-.23.07-.1.11-.26.11-.46,0-.12-.01-.25-.04-.38-.02-.13-.07-.25-.13-.36h.95c.07.12.12.28.14.48.03.2.04.35.04.46,0,.4-.06.71-.17.93-.11.22-.26.38-.43.49-.18.1-.38.16-.6.18-.22.02-.44.03-.67.03h-2.86v1.21h-.9v-1.21h-1.54v-1.04h1.54v-1.49h.9Z"/><path class="cls-2" d="M302.78,245.18v-1.46l6.74-4.52v-.02h-6.74v-1.11h8.2v1.41l-6.74,4.57v.02h6.74v1.11h-8.2Z"/><path class="cls-2" d="M304.55,227.03c-.3.23-.53.53-.69.88-.16.36-.24.72-.24,1.1,0,.46.09.88.26,1.26.17.38.41.69.71.96.3.27.65.47,1.06.62.41.15.84.22,1.3.22.43,0,.84-.07,1.23-.21s.73-.34,1.02-.6.52-.58.69-.96c.17-.38.26-.81.26-1.29s-.1-.88-.29-1.24c-.19-.35-.46-.66-.81-.9l.71-.94c.09.06.21.17.36.32s.32.36.48.61.3.56.42.92c.12.36.18.77.18,1.25,0,.65-.12,1.23-.37,1.75-.25.52-.57.97-.97,1.33s-.86.65-1.36.84-1.02.29-1.54.29c-.63,0-1.22-.11-1.76-.31-.54-.21-1-.5-1.39-.87-.39-.38-.69-.82-.91-1.35-.22-.52-.32-1.1-.32-1.74,0-.54.1-1.07.31-1.59s.53-.95.96-1.28l.71.93Z"/><path class="cls-2" d="M308.62,224.06c.24,0,.46-.05.65-.16.2-.11.36-.24.5-.41.14-.17.25-.37.32-.59.08-.22.12-.46.12-.7,0-.32-.08-.61-.23-.85-.15-.24-.35-.46-.6-.66l.6-.79c.75.58,1.12,1.39,1.12,2.43,0,.43-.07.82-.22,1.18-.15.35-.35.65-.61.89-.26.24-.56.43-.92.56-.35.13-.73.2-1.14.2s-.79-.07-1.14-.21c-.35-.14-.66-.34-.91-.59-.26-.25-.46-.55-.61-.9-.15-.35-.22-.73-.22-1.14,0-.49.08-.9.25-1.23.17-.34.39-.61.67-.83.27-.22.58-.37.93-.47s.69-.14,1.05-.14h.37v4.4ZM307.78,220.77c-.23,0-.44.05-.64.11-.19.07-.36.16-.5.3-.14.13-.25.29-.34.49-.08.2-.12.43-.12.69s.05.49.15.7.22.39.38.54c.15.15.33.26.52.34.19.08.38.12.56.12v-3.29Z"/><path class="cls-2" d="M310.98,212.9v1.04h-.79v.02c.29.2.52.48.68.83.16.35.24.71.24,1.08,0,.43-.07.81-.22,1.15-.15.34-.35.64-.61.88-.26.24-.57.43-.92.56-.35.13-.73.2-1.14.2s-.79-.07-1.14-.2c-.35-.13-.66-.32-.91-.56-.26-.24-.46-.54-.61-.88-.15-.34-.22-.73-.22-1.15,0-.39.08-.76.25-1.11.16-.35.39-.61.68-.8v-.02h-4.05v-1.04h8.76ZM310.15,215.75c0-.28-.05-.53-.15-.75-.1-.22-.23-.41-.39-.57-.16-.15-.37-.27-.6-.36-.24-.08-.49-.13-.77-.13s-.54.04-.77.13c-.24.09-.44.21-.6.36-.16.15-.3.34-.39.57-.1.22-.15.48-.15.75s.05.53.15.75.23.41.39.57c.17.15.37.27.6.36.24.09.49.13.77.13s.54-.04.77-.13c.24-.08.44-.2.6-.36.17-.15.3-.34.39-.57s.15-.48.15-.75Z"/><path class="cls-2" d="M306.16,211.31c-.27-.29-.47-.63-.61-1.02s-.2-.77-.2-1.16.05-.75.15-1.04c.1-.29.24-.53.41-.71.17-.19.36-.32.58-.41.22-.09.45-.13.69-.13h2.8c.19,0,.37,0,.53-.01.16,0,.32-.02.46-.04v.93c-.28.02-.56.03-.83.03v.02c.35.23.61.51.75.82.15.32.22.68.22,1.1,0,.25-.04.5-.1.73-.07.23-.17.44-.31.61-.14.17-.31.31-.52.41-.21.1-.44.15-.71.15-.36,0-.65-.08-.89-.24-.24-.16-.44-.37-.58-.65-.15-.28-.26-.59-.32-.96-.07-.37-.1-.76-.1-1.18v-.76h-.23c-.14,0-.28.03-.42.08-.14.05-.26.14-.38.24-.11.11-.2.24-.27.41-.06.16-.1.36-.1.58,0,.2.02.38.06.53s.09.29.15.41c.06.12.12.24.2.34s.15.2.22.29l-.65.63ZM308.34,208.36c0,.25.01.5.04.76.03.26.08.49.16.71s.18.39.32.52c.14.14.32.2.53.2.32,0,.55-.11.68-.32s.21-.5.21-.86c0-.29-.05-.53-.15-.73-.1-.2-.22-.36-.38-.49-.15-.12-.33-.21-.52-.27s-.38-.08-.56-.08h-.35v.56Z"/><path class="cls-2" d="M305.49,205.32v-1.04h.85v-.02c-.15-.07-.28-.16-.4-.28s-.22-.25-.31-.39c-.08-.14-.15-.3-.2-.47-.05-.17-.08-.34-.08-.51s.02-.32.07-.46l1.12.05c-.02.08-.04.17-.06.25-.02.09-.02.17-.02.26,0,.51.14.9.43,1.17.29.27.73.41,1.33.41h2.76v1.04h-5.49Z"/><path class="cls-2" d="M309.27,197.3c.3-.2.52-.46.66-.77.14-.31.22-.64.22-.97,0-.19-.03-.38-.09-.57s-.15-.37-.26-.53-.26-.29-.43-.39c-.17-.1-.37-.15-.59-.15-.32,0-.56.1-.72.3-.17.2-.31.45-.42.75-.11.3-.22.62-.32.97s-.25.68-.44.97c-.18.3-.43.55-.75.75-.31.2-.74.3-1.27.3-.24,0-.49-.05-.76-.16-.27-.1-.52-.27-.74-.49-.22-.22-.41-.51-.56-.86-.15-.35-.23-.78-.23-1.27,0-.45.06-.88.18-1.29.12-.41.38-.77.75-1.08l.82.9c-.22.14-.39.34-.52.59-.13.26-.2.55-.2.87s.04.56.12.77c.08.2.19.37.31.49.13.12.26.21.41.26.15.05.28.08.41.08.35,0,.61-.1.8-.3.19-.2.34-.45.45-.75.12-.3.22-.62.31-.97.09-.35.22-.68.39-.97.17-.3.39-.55.67-.75.28-.2.67-.3,1.16-.3.39,0,.75.08,1.06.23.32.15.58.35.8.61.22.25.38.56.5.9s.17.72.17,1.11c0,.52-.09,1.02-.28,1.49-.18.47-.47.85-.86,1.12l-.79-.92Z"/><path class="cls-2" d="M306.39,188.42v1.49h2.49c.15,0,.31,0,.46-.01.15,0,.29-.04.41-.09.12-.05.22-.13.29-.23.07-.1.11-.26.11-.46,0-.12-.01-.25-.04-.38-.02-.13-.07-.25-.13-.36h.95c.07.12.12.28.14.48.03.2.04.35.04.46,0,.4-.06.71-.17.93-.11.22-.26.38-.43.49-.18.1-.38.16-.6.18-.22.02-.44.03-.67.03h-2.86v1.21h-.9v-1.21h-1.54v-1.04h1.54v-1.49h.9Z"/><path class="cls-2" d="M487.18,240.27v-1.46l6.74-4.52v-.02h-6.74v-1.11h8.2v1.41l-6.74,4.57v.02h6.74v1.11h-8.2Z"/><path class="cls-2" d="M487.18,225.26v-1.01l8.2-3.51v1.3l-2.03.82v3.91l2.03.81v1.3l-8.2-3.61ZM492.38,223.26l-3.77,1.53v.02l3.77,1.55v-3.11Z"/><path class="cls-2" d="M489.89,219.94v-1.04h.85v-.02c-.29-.13-.53-.36-.71-.68-.18-.32-.27-.7-.27-1.12,0-.26.04-.52.12-.76.08-.24.21-.46.38-.64.17-.18.39-.32.65-.43s.58-.16.94-.16h3.53v1.04h-3.24c-.25,0-.47.04-.65.1-.18.07-.33.16-.44.28s-.19.25-.24.4c-.05.15-.08.31-.08.47,0,.22.04.42.11.6.07.19.18.35.33.49.15.14.34.25.57.32s.51.12.82.12h2.83v1.04h-5.49Z"/><path class="cls-2" d="M495.38,207.99v1.04h-.79v.02c.29.2.52.48.68.83.16.35.24.71.24,1.08,0,.43-.07.81-.22,1.15-.15.34-.35.64-.61.88-.26.24-.57.43-.92.56-.35.13-.73.2-1.14.2s-.79-.07-1.14-.2c-.35-.13-.66-.32-.91-.56-.26-.24-.46-.54-.61-.88-.15-.34-.22-.73-.22-1.15,0-.39.08-.76.25-1.11.16-.35.39-.61.68-.8v-.02h-4.05v-1.04h8.76ZM494.55,210.84c0-.28-.05-.53-.15-.75-.1-.22-.23-.41-.39-.57-.16-.15-.37-.27-.6-.36-.24-.08-.49-.13-.77-.13s-.54.04-.77.13c-.24.09-.44.21-.6.36-.16.15-.3.34-.39.57-.1.22-.15.48-.15.75s.05.53.15.75.23.41.39.57c.17.15.37.27.6.36.24.09.49.13.77.13s.54-.04.77-.13c.24-.08.44-.2.6-.36.17-.15.3-.34.39-.57s.15-.48.15-.75Z"/><path class="cls-2" d="M493.02,205.63c.24,0,.46-.05.65-.16.2-.11.36-.24.5-.41.14-.17.25-.37.32-.59.08-.22.12-.46.12-.7,0-.32-.08-.61-.23-.85-.15-.24-.35-.46-.6-.66l.6-.79c.75.58,1.12,1.39,1.12,2.43,0,.43-.07.82-.22,1.18-.15.35-.35.65-.61.89-.26.24-.56.43-.92.56-.35.13-.73.2-1.14.2s-.79-.07-1.14-.21c-.35-.14-.66-.34-.91-.59-.26-.25-.46-.55-.61-.9-.15-.35-.22-.73-.22-1.14,0-.49.08-.9.25-1.23.17-.34.39-.61.67-.83.27-.22.58-.37.93-.47s.69-.14,1.05-.14h.37v4.4ZM492.18,202.34c-.23,0-.44.05-.64.11-.19.07-.36.16-.5.3-.14.13-.25.29-.34.49-.08.2-.12.43-.12.69s.05.49.15.7.22.39.38.54c.15.15.33.26.52.34.19.08.38.12.56.12v-3.29Z"/><path class="cls-2" d="M489.89,199.97v-1.04h.85v-.02c-.15-.07-.28-.16-.4-.28s-.22-.25-.31-.39c-.08-.14-.15-.3-.2-.47-.05-.17-.08-.34-.08-.51s.02-.32.07-.46l1.12.05c-.02.08-.04.17-.06.25-.02.09-.02.17-.02.26,0,.51.14.9.43,1.17.29.27.73.41,1.33.41h2.76v1.04h-5.49Z"/><path class="cls-2" d="M491.27,192.77c-.15.12-.28.28-.39.46-.1.18-.16.4-.16.66,0,.25.05.46.16.64.11.18.26.27.46.27.16,0,.29-.05.39-.16.1-.11.18-.23.24-.37.06-.14.11-.3.14-.46.03-.16.06-.3.08-.42.05-.22.12-.44.2-.63s.18-.37.3-.51c.12-.14.27-.26.45-.34.18-.08.39-.12.65-.12.31,0,.57.06.79.2.22.13.4.3.54.51.14.21.24.45.3.71.06.27.09.54.09.81,0,.45-.07.85-.21,1.2-.14.34-.39.65-.76.92l-.65-.79c.17-.17.32-.36.45-.57.13-.21.2-.46.2-.76,0-.13-.01-.26-.04-.4-.03-.14-.07-.25-.13-.36-.06-.1-.13-.19-.22-.25-.09-.07-.19-.1-.31-.1-.15,0-.28.05-.38.14-.1.1-.18.21-.24.35s-.1.28-.14.43-.06.28-.09.4c-.05.22-.12.44-.18.64-.07.2-.16.38-.28.53-.12.16-.26.28-.44.37s-.4.14-.66.14c-.29,0-.54-.06-.75-.18-.21-.12-.39-.28-.53-.48-.14-.2-.24-.42-.31-.67s-.1-.5-.1-.76c0-.37.07-.72.21-1.06.14-.34.37-.61.7-.81l.61.81Z"/><path class="cls-2" d="M487.92,190.7c-.21,0-.39-.08-.54-.22-.15-.15-.23-.33-.23-.54s.08-.39.23-.54c.15-.15.33-.22.54-.22s.39.08.54.22c.15.15.23.33.23.54s-.08.39-.23.54c-.15.15-.33.22-.54.22ZM489.89,190.46v-1.04h5.49v1.04h-5.49Z"/><path class="cls-2" d="M492.63,188.03c-.4,0-.78-.08-1.12-.23s-.65-.36-.91-.62-.47-.57-.62-.93c-.15-.35-.22-.74-.22-1.15s.08-.79.22-1.15c.15-.35.36-.66.62-.93.26-.26.57-.47.91-.62.35-.15.72-.22,1.12-.22s.78.08,1.13.22c.35.15.66.36.91.62.26.26.46.57.61.93.15.35.23.74.23,1.15s-.08.79-.23,1.15c-.15.36-.35.66-.61.93-.26.26-.56.47-.91.62s-.73.23-1.13.23ZM492.63,186.92c.28,0,.54-.04.77-.13.24-.08.44-.2.6-.36.17-.15.3-.34.39-.57s.15-.48.15-.75-.05-.53-.15-.75c-.1-.22-.23-.41-.39-.57-.16-.15-.37-.27-.6-.36-.24-.08-.49-.13-.77-.13s-.54.04-.77.13c-.24.09-.44.21-.6.36-.16.15-.3.34-.39.57-.1.22-.15.48-.15.75s.05.53.15.75.23.41.39.57c.17.15.37.27.6.36.24.09.49.13.77.13Z"/><path class="cls-2" d="M489.89,180.88v-1.04h.85v-.02c-.29-.13-.53-.36-.71-.68-.18-.32-.27-.7-.27-1.12,0-.26.04-.52.12-.76.08-.24.21-.46.38-.64.17-.18.39-.32.65-.43s.58-.16.94-.16h3.53v1.04h-3.24c-.25,0-.47.04-.65.1-.18.07-.33.16-.44.28s-.19.25-.24.4c-.05.15-.08.31-.08.47,0,.22.04.42.11.6.07.19.18.35.33.49.15.14.34.25.57.32s.51.12.82.12h2.83v1.04h-5.49Z"/><path class="cls-2" d="M658.6,200.95v-1.46l6.74-4.52v-.02h-6.74v-1.11h8.2v1.41l-6.74,4.57v.02h6.74v1.11h-8.2Z"/><path class="cls-2" d="M658.6,188.51v-2.88c0-.53.07-.96.21-1.3.14-.34.32-.61.54-.81.22-.2.47-.33.74-.41s.54-.12.79-.12.52.04.79.12c.28.08.52.21.74.41.22.2.4.46.54.81.14.34.22.77.22,1.3v1.77h3.61v1.11h-8.2ZM662.21,187.4v-1.46c0-.22-.02-.43-.05-.64s-.1-.4-.19-.57-.23-.3-.4-.4-.4-.15-.68-.15-.5.05-.68.15-.31.23-.4.4-.16.36-.19.57-.05.43-.05.64v1.46h2.64Z"/><path class="cls-2" d="M661.31,181.9v-1.04h.85v-.02c-.15-.07-.28-.16-.4-.28s-.22-.25-.31-.39c-.08-.14-.15-.3-.2-.47-.05-.17-.08-.34-.08-.51s.02-.32.07-.46l1.12.05c-.02.08-.04.17-.06.25-.02.09-.02.17-.02.26,0,.51.14.9.43,1.17.29.27.73.41,1.33.41h2.76v1.04h-5.49Z"/><path class="cls-2" d="M664.05,178.09c-.4,0-.78-.08-1.12-.23s-.65-.36-.91-.62-.47-.57-.62-.93c-.15-.35-.22-.74-.22-1.15s.08-.79.22-1.15c.15-.35.36-.66.62-.93.26-.26.57-.47.91-.62.35-.15.72-.22,1.12-.22s.78.08,1.13.22c.35.15.66.36.91.62.26.26.46.57.61.93.15.35.23.74.23,1.15s-.08.79-.23,1.15c-.15.36-.35.66-.61.93-.26.26-.56.47-.91.62s-.73.23-1.13.23ZM664.05,176.98c.28,0,.54-.04.77-.13.24-.08.44-.2.6-.36.17-.15.3-.34.39-.57s.15-.48.15-.75-.05-.53-.15-.75c-.1-.22-.23-.41-.39-.57-.16-.15-.37-.27-.6-.36-.24-.08-.49-.13-.77-.13s-.54.04-.77.13c-.24.09-.44.21-.6.36-.16.15-.3.34-.39.57-.1.22-.15.48-.15.75s.05.53.15.75.23.41.39.57c.17.15.37.27.6.36.24.09.49.13.77.13Z"/><path class="cls-2" d="M662.69,168.03c-.15.12-.28.28-.39.46-.1.18-.16.4-.16.66,0,.25.05.46.16.64.11.18.26.27.46.27.16,0,.29-.05.39-.16.1-.11.18-.23.24-.37.06-.14.11-.3.14-.46.03-.16.06-.3.08-.42.05-.22.12-.44.2-.63s.18-.37.3-.51c.12-.14.27-.26.45-.34.18-.08.39-.12.65-.12.31,0,.57.06.79.2.22.13.4.3.54.51.14.21.24.45.3.71.06.27.09.54.09.81,0,.45-.07.85-.21,1.2-.14.34-.39.65-.76.92l-.65-.79c.17-.17.32-.36.45-.57.13-.21.2-.46.2-.76,0-.13-.01-.26-.04-.4-.03-.14-.07-.25-.13-.36-.06-.1-.13-.19-.22-.25-.09-.07-.19-.1-.31-.1-.15,0-.28.05-.38.14-.1.1-.18.21-.24.35s-.1.28-.14.43-.06.28-.09.4c-.05.22-.12.44-.18.64-.07.2-.16.38-.28.53-.12.16-.26.28-.44.37s-.4.14-.66.14c-.29,0-.54-.06-.75-.18-.21-.12-.39-.28-.53-.48-.14-.2-.24-.42-.31-.67s-.1-.5-.1-.76c0-.37.07-.72.21-1.06.14-.34.37-.61.7-.81l.61.81Z"/><path class="cls-2" d="M661.31,165.8v-1.04h.79v-.02c-.29-.2-.52-.48-.68-.83-.16-.35-.24-.71-.24-1.08,0-.42.07-.81.22-1.15.15-.34.35-.64.61-.88s.57-.43.92-.56c.35-.13.73-.2,1.13-.2s.79.07,1.14.2c.35.13.66.32.92.56.26.24.46.54.61.88.15.34.22.73.22,1.15,0,.39-.08.76-.25,1.11-.16.35-.39.61-.68.8v.02h4.05v1.04h-8.76ZM662.14,162.95c0,.28.05.53.15.75.1.22.23.41.39.57.17.15.37.28.6.36s.49.13.77.13.54-.04.77-.13.44-.21.6-.36c.17-.15.3-.34.39-.57.1-.22.15-.48.15-.75s-.05-.53-.15-.75c-.1-.22-.23-.41-.39-.57-.16-.15-.37-.28-.6-.36s-.49-.13-.77-.13-.54.04-.77.13-.44.21-.6.36c-.16.15-.3.34-.39.57-.1.22-.15.48-.15.75Z"/><path class="cls-2" d="M664.44,157.93c.24,0,.46-.05.65-.16.2-.11.36-.24.5-.41.14-.17.25-.37.32-.59.08-.22.12-.46.12-.7,0-.32-.08-.61-.23-.85-.15-.24-.35-.46-.6-.66l.6-.79c.75.58,1.12,1.39,1.12,2.43,0,.43-.07.82-.22,1.18-.15.35-.35.65-.61.89-.26.24-.56.43-.92.56-.35.13-.73.2-1.14.2s-.79-.07-1.14-.21c-.35-.14-.66-.34-.91-.59-.26-.25-.46-.55-.61-.9-.15-.35-.22-.73-.22-1.14,0-.49.08-.9.25-1.23.17-.34.39-.61.67-.83.27-.22.58-.37.93-.47s.69-.14,1.05-.14h.37v4.4ZM663.6,154.64c-.23,0-.44.05-.64.11-.19.07-.36.16-.5.3-.14.13-.25.29-.34.49-.08.2-.12.43-.12.69s.05.49.15.7.22.39.38.54c.15.15.33.26.52.34.19.08.38.12.56.12v-3.29Z"/><path class="cls-2" d="M662.77,148.35c-.2.19-.35.4-.46.61-.1.21-.16.46-.16.76s.05.53.16.75c.11.21.25.39.43.53.18.14.39.25.63.32s.48.11.74.11.5-.04.72-.13c.23-.08.43-.2.6-.36s.3-.34.4-.56c.1-.22.15-.46.15-.73,0-.29-.05-.55-.16-.75-.1-.21-.26-.4-.46-.58l.74-.74c.3.27.52.59.65.95.13.36.2.74.2,1.14,0,.42-.07.81-.21,1.16-.14.35-.33.65-.58.91s-.55.45-.9.59-.74.21-1.16.21-.81-.07-1.17-.21c-.35-.14-.66-.33-.92-.59-.25-.25-.45-.55-.6-.9-.14-.35-.21-.74-.21-1.18,0-.4.07-.79.21-1.15.14-.37.36-.69.65-.96l.72.79Z"/><path class="cls-2" d="M662.21,143.75v1.49h2.49c.15,0,.31,0,.46-.01.15,0,.29-.04.41-.09.12-.05.22-.13.29-.23.07-.1.11-.26.11-.46,0-.12-.01-.25-.04-.38-.02-.13-.07-.25-.13-.36h.95c.07.12.12.28.14.48.03.2.04.35.04.46,0,.4-.06.71-.17.93-.11.22-.26.38-.43.49-.18.1-.38.16-.6.18-.22.02-.44.03-.67.03h-2.86v1.21h-.9v-1.21h-1.54v-1.04h1.54v-1.49h.9Z"/><path class="cls-2" d="M544.22,192.16v-1.46l6.74-4.52v-.02h-6.74v-1.11h8.2v1.41l-6.74,4.57v.02h6.74v1.11h-8.2Z"/><path class="cls-2" d="M552.63,175.95c0,.62-.11,1.2-.33,1.73-.22.52-.52.98-.91,1.35-.39.38-.84.67-1.37.88s-1.09.32-1.7.32-1.18-.11-1.7-.32c-.53-.21-.98-.51-1.37-.88-.39-.37-.69-.82-.91-1.35-.22-.53-.33-1.1-.33-1.73s.11-1.2.33-1.73c.22-.52.52-.98.91-1.35.39-.38.84-.67,1.37-.88.52-.21,1.09-.32,1.7-.32s1.18.11,1.7.32.98.51,1.37.88c.39.37.69.82.91,1.35.22.52.33,1.1.33,1.73ZM551.59,175.95c0-.47-.09-.9-.26-1.28-.17-.38-.41-.7-.7-.97-.29-.27-.64-.48-1.04-.63-.4-.15-.82-.22-1.27-.22s-.87.07-1.27.22c-.4.15-.74.36-1.04.63-.29.27-.53.59-.7.97-.17.38-.26.8-.26,1.28s.09.9.26,1.27c.17.38.41.7.7.97.29.27.64.48,1.04.63.4.15.82.22,1.27.22s.87-.07,1.27-.22c.4-.15.74-.36,1.04-.63.29-.27.53-.59.7-.97.17-.38.26-.8.26-1.27Z"/><path class="cls-2" d="M547.6,170.32c-.27-.29-.47-.63-.61-1.02s-.2-.77-.2-1.16.05-.75.15-1.04c.1-.29.24-.53.41-.71.17-.19.36-.32.58-.41.22-.09.45-.13.69-.13h2.8c.19,0,.37,0,.53-.01.16,0,.32-.02.46-.04v.93c-.28.02-.56.03-.83.03v.02c.35.23.61.51.75.82.15.32.22.68.22,1.1,0,.25-.04.5-.1.73-.07.23-.17.44-.31.61-.14.17-.31.31-.52.41-.21.1-.44.15-.71.15-.36,0-.65-.08-.89-.24-.24-.16-.44-.37-.58-.65-.15-.28-.26-.59-.32-.96-.07-.37-.1-.76-.1-1.18v-.76h-.23c-.14,0-.28.03-.42.08-.14.05-.26.14-.38.24-.11.11-.2.24-.27.41-.06.16-.1.36-.1.58,0,.2.02.38.06.53s.09.29.15.41c.06.12.12.24.2.34s.15.2.22.29l-.65.63ZM549.78,167.38c0,.25.01.5.04.76.03.26.08.49.16.71s.18.39.32.52c.14.14.32.2.53.2.32,0,.55-.11.68-.32s.21-.5.21-.86c0-.29-.05-.53-.15-.73-.1-.2-.22-.36-.38-.49-.15-.12-.33-.21-.52-.27s-.38-.08-.56-.08h-.35v.56Z"/><path class="cls-2" d="M543.67,164.33v-1.04h5.65l-2.38-2.37v-1.45l2.49,2.56,2.99-2.78v1.48l-2.85,2.55h2.85v1.04h-8.76Z"/><path class="cls-2" d="M550.06,157.53c.24,0,.46-.05.65-.16.2-.11.36-.24.5-.41.14-.17.25-.37.32-.59.08-.22.12-.46.12-.7,0-.32-.08-.61-.23-.85-.15-.24-.35-.46-.6-.66l.6-.79c.75.58,1.12,1.39,1.12,2.43,0,.43-.07.82-.22,1.18-.15.35-.35.65-.61.89-.26.24-.56.43-.92.56-.35.13-.73.2-1.14.2s-.79-.07-1.14-.21c-.35-.14-.66-.34-.91-.59-.26-.25-.46-.55-.61-.9-.15-.35-.22-.73-.22-1.14,0-.49.08-.9.25-1.23.17-.34.39-.61.67-.83.27-.22.58-.37.93-.47s.69-.14,1.05-.14h.37v4.4ZM549.23,154.24c-.23,0-.44.05-.64.11-.19.07-.36.16-.5.3-.14.13-.25.29-.34.49-.08.2-.12.43-.12.69s.05.49.15.7.22.39.38.54c.15.15.33.26.52.34.19.08.38.12.56.12v-3.29Z"/><path class="cls-2" d="M548.31,148.96c-.15.12-.28.28-.39.46-.1.18-.16.4-.16.66,0,.25.05.46.16.64.11.18.26.27.46.27.16,0,.29-.05.39-.16.1-.11.18-.23.24-.37.06-.14.11-.3.14-.46.03-.16.06-.3.08-.42.05-.22.12-.44.2-.63s.18-.37.3-.51c.12-.14.27-.26.45-.34.18-.08.39-.12.65-.12.31,0,.57.06.79.2.22.13.4.3.54.51.14.21.24.45.3.71.06.27.09.54.09.81,0,.45-.07.85-.21,1.2-.14.34-.39.65-.76.92l-.65-.79c.17-.17.32-.36.45-.57.13-.21.2-.46.2-.76,0-.13-.01-.26-.04-.4-.03-.14-.07-.25-.13-.36-.06-.1-.13-.19-.22-.25-.09-.07-.19-.1-.31-.1-.15,0-.28.05-.38.14-.1.1-.18.21-.24.35s-.1.28-.14.43-.06.28-.09.4c-.05.22-.12.44-.18.64-.07.2-.16.38-.28.53-.12.16-.26.28-.44.37s-.4.14-.66.14c-.29,0-.54-.06-.75-.18-.21-.12-.39-.28-.53-.48-.14-.2-.24-.42-.31-.67s-.1-.5-.1-.76c0-.37.07-.72.21-1.06.14-.34.37-.61.7-.81l.61.81Z"/><path class="cls-2" d="M851.6,388.05c.42-.33.73-.78.93-1.34s.3-1.1.3-1.6c0-.29-.04-.6-.11-.91-.07-.31-.18-.61-.32-.89-.15-.28-.34-.51-.59-.68s-.54-.26-.89-.26c-.56,0-.98.21-1.28.63-.3.42-.55.94-.76,1.58-.21.63-.42,1.32-.63,2.05-.21.73-.51,1.41-.89,2.05-.38.64-.9,1.16-1.54,1.58-.64.42-1.5.63-2.58.63s-1.92-.19-2.68-.57c-.77-.38-1.4-.9-1.9-1.55-.51-.65-.88-1.41-1.12-2.27-.24-.86-.37-1.77-.37-2.72,0-1.2.18-2.31.55-3.34s.95-1.98,1.77-2.87l3.18,2.89c-.56.42-.99.94-1.29,1.58-.31.64-.46,1.29-.46,1.97,0,.33.04.66.12,1.01.08.34.19.64.35.91.16.27.36.49.6.65s.53.25.86.25c.56,0,.99-.21,1.32-.64.32-.43.59-.96.82-1.6.23-.64.45-1.34.68-2.09.22-.75.53-1.44.91-2.09.38-.64.89-1.18,1.51-1.6.62-.43,1.45-.64,2.48-.64s1.86.2,2.61.59,1.37.91,1.88,1.56c.5.65.88,1.4,1.13,2.26.25.85.38,1.73.38,2.63,0,1.04-.15,2.05-.44,3.02-.29.97-.79,1.85-1.49,2.63l-3.05-2.79Z"/><path class="cls-2" d="M847.2,402.03v-3.44h-4.22c-.35,0-.66.02-.95.05-.29.04-.53.11-.74.24-.21.12-.37.31-.48.56-.11.25-.17.59-.17,1,0,.21.02.48.06.82.04.34.14.59.3.77h-3.26c-.16-.44-.26-.89-.31-1.36-.05-.47-.08-.93-.08-1.38,0-.66.07-1.27.21-1.83.14-.56.36-1.04.66-1.46.3-.42.7-.74,1.19-.98.49-.24,1.08-.35,1.77-.35h6.02v-2.5h3.13v2.5h3.75v3.91h-3.75v3.44h-3.13Z"/><path class="cls-2" d="M839.24,411.96v-.05c-.68-.44-1.16-1.01-1.46-1.73-.29-.72-.44-1.48-.44-2.28,0-.59.08-1.16.25-1.71s.41-1.03.74-1.45c.33-.42.74-.75,1.23-.99.49-.24,1.05-.36,1.69-.36.73,0,1.35.14,1.85.4.5.27.92.64,1.25,1.1.33.46.59.99.77,1.58.18.59.32,1.2.4,1.84.09.63.14,1.27.16,1.9.02.64.02,1.22.02,1.76.7,0,1.25-.25,1.66-.74.41-.49.61-1.08.61-1.76s-.13-1.23-.4-1.76c-.27-.53-.64-1.01-1.11-1.42l2.14-2.09c.68.73,1.19,1.58,1.53,2.55.34.97.51,1.98.51,3.02,0,1.15-.14,2.09-.43,2.83-.29.74-.71,1.33-1.26,1.77-.56.44-1.24.75-2.05.93-.81.17-1.74.26-2.8.26h-6.44v-3.6h1.59ZM843.21,411c0-.3-.01-.66-.04-1.11s-.1-.87-.22-1.28-.3-.76-.55-1.04c-.24-.29-.58-.43-1.02-.43-.47,0-.82.2-1.04.6-.23.4-.34.82-.34,1.25,0,.38.05.75.16,1.11.1.36.25.67.44.95.19.28.44.5.73.66.29.16.64.25,1.04.25h.84v-.96Z"/><path class="cls-2" d="M847.2,426.64v-3.44h-4.22c-.35,0-.66.02-.95.05-.29.04-.53.11-.74.24-.21.12-.37.31-.48.56-.11.25-.17.59-.17,1,0,.21.02.48.06.82.04.34.14.59.3.77h-3.26c-.16-.44-.26-.89-.31-1.36-.05-.47-.08-.93-.08-1.38,0-.66.07-1.27.21-1.83.14-.56.36-1.04.66-1.46.3-.42.7-.74,1.19-.98.49-.24,1.08-.35,1.77-.35h6.02v-2.5h3.13v2.5h3.75v3.91h-3.75v3.44h-3.13Z"/><path class="cls-2" d="M839.84,440.62c-.8-.62-1.42-1.42-1.85-2.37-.43-.96-.65-1.95-.65-2.97s.16-1.89.47-2.75c.31-.86.76-1.61,1.34-2.24.58-.63,1.28-1.13,2.1-1.5.82-.36,1.73-.55,2.74-.55s1.92.18,2.74.55,1.52.86,2.1,1.5c.58.64,1.03,1.38,1.34,2.24.31.86.47,1.78.47,2.75,0,.9-.16,1.72-.47,2.46-.31.74-.76,1.37-1.34,1.88s-1.28.91-2.1,1.19c-.82.28-1.73.42-2.74.42h-1.22v-9.07c-.75.16-1.34.49-1.79,1.02-.44.52-.66,1.16-.66,1.93,0,.64.14,1.19.43,1.63.29.44.66.83,1.11,1.16l-2.01,2.74ZM845.42,437.31c.66.02,1.22-.2,1.69-.65.47-.45.7-1.03.7-1.75,0-.43-.07-.82-.21-1.15-.14-.33-.32-.61-.53-.85-.22-.24-.47-.42-.76-.55-.29-.13-.59-.2-.9-.22v5.16Z"/><path class="cls-2" d="M851.6,460.93c.42-.33.73-.78.93-1.34s.3-1.1.3-1.6c0-.29-.04-.6-.11-.91-.07-.31-.18-.61-.32-.89-.15-.28-.34-.51-.59-.68s-.54-.26-.89-.26c-.56,0-.98.21-1.28.63-.3.42-.55.94-.76,1.58-.21.63-.42,1.32-.63,2.05-.21.73-.51,1.41-.89,2.05-.38.64-.9,1.16-1.54,1.58-.64.42-1.5.63-2.58.63s-1.92-.19-2.68-.57c-.77-.38-1.4-.9-1.9-1.55-.51-.65-.88-1.41-1.12-2.27-.24-.86-.37-1.77-.37-2.72,0-1.2.18-2.31.55-3.34s.95-1.98,1.77-2.87l3.18,2.89c-.56.42-.99.94-1.29,1.58-.31.64-.46,1.29-.46,1.97,0,.33.04.66.12,1.01.08.34.19.64.35.91.16.27.36.49.6.65s.53.25.86.25c.56,0,.99-.21,1.32-.64.32-.43.59-.96.82-1.6.23-.64.45-1.34.68-2.09.22-.75.53-1.44.91-2.09.38-.64.89-1.18,1.51-1.6.62-.43,1.45-.64,2.48-.64s1.86.2,2.61.59,1.37.91,1.88,1.56c.5.65.88,1.4,1.13,2.26.25.85.38,1.73.38,2.63,0,1.04-.15,2.05-.44,3.02-.29.97-.79,1.85-1.49,2.63l-3.05-2.79Z"/><path class="cls-2" d="M847.2,474.9v-3.44h-4.22c-.35,0-.66.02-.95.05-.29.04-.53.11-.74.24-.21.12-.37.31-.48.56-.11.25-.17.59-.17,1,0,.21.02.48.06.82.04.34.14.59.3.77h-3.26c-.16-.44-.26-.89-.31-1.36-.05-.47-.08-.93-.08-1.38,0-.66.07-1.27.21-1.83.14-.56.36-1.04.66-1.46.3-.42.7-.74,1.19-.98.49-.24,1.08-.35,1.77-.35h6.02v-2.5h3.13v2.5h3.75v3.91h-3.75v3.44h-3.13Z"/><path class="cls-2" d="M751.76,120.62v4.82l-11.18,6.84v.05h11.18v3.55h-16.1v-4.64l11.46-7.03v-.05h-11.46v-3.55h16.1Z"/><path class="cls-2" d="M747.83,153.84c.36-.29.63-.68.81-1.17.17-.49.26-.96.26-1.4,0-.26-.03-.52-.09-.8-.06-.27-.16-.53-.28-.77-.13-.24-.3-.44-.51-.59-.21-.15-.47-.23-.77-.23-.48,0-.86.18-1.11.55-.26.36-.48.82-.66,1.38-.18.55-.36,1.15-.54,1.78-.18.64-.44,1.23-.77,1.78-.33.55-.78,1.01-1.34,1.38-.56.36-1.31.55-2.25.55s-1.68-.17-2.34-.5-1.22-.78-1.66-1.35c-.44-.57-.76-1.23-.98-1.98-.21-.75-.32-1.54-.32-2.38,0-1.05.16-2.02.48-2.91.32-.89.83-1.73,1.55-2.5l2.77,2.52c-.49.36-.86.82-1.13,1.38-.26.55-.4,1.13-.4,1.72,0,.29.03.58.1.87.07.3.17.56.31.8s.31.42.52.57.46.22.75.22c.49,0,.87-.19,1.15-.56.28-.37.52-.84.72-1.4.2-.56.39-1.17.59-1.82.2-.65.46-1.26.79-1.82.33-.56.77-1.03,1.32-1.4.55-.37,1.26-.56,2.16-.56s1.62.17,2.27.51c.65.34,1.2.79,1.64,1.36.44.57.77,1.22.99,1.97s.33,1.51.33,2.3c0,.91-.13,1.79-.39,2.64-.26.85-.69,1.61-1.3,2.29l-2.66-2.43Z"/><path class="cls-2" d="M743.99,166.02v-3h-3.68c-.3,0-.58.02-.83.05-.25.03-.46.1-.65.21-.18.11-.32.27-.42.49s-.15.51-.15.88c0,.18.02.42.06.72.04.3.13.52.26.67h-2.84c-.14-.38-.23-.77-.27-1.18s-.07-.81-.07-1.21c0-.58.06-1.11.18-1.59.12-.49.31-.91.58-1.27.26-.36.61-.65,1.03-.85.42-.21.94-.31,1.55-.31h5.25v-2.18h2.73v2.18h3.27v3.41h-3.27v3h-2.73Z"/><path class="cls-2" d="M737.58,178.21c-.7-.55-1.24-1.24-1.61-2.07-.38-.83-.57-1.7-.57-2.59s.14-1.65.41-2.4c.27-.75.66-1.4,1.17-1.96.51-.55,1.12-.99,1.83-1.31.71-.32,1.51-.48,2.39-.48s1.67.16,2.39.48c.71.32,1.32.75,1.83,1.31.51.55.9,1.21,1.17,1.96.27.75.41,1.55.41,2.4,0,.79-.14,1.5-.41,2.15-.27.64-.66,1.19-1.17,1.64s-1.12.79-1.83,1.04c-.71.24-1.51.36-2.39.36h-1.07v-7.91c-.65.14-1.17.43-1.56.89-.39.45-.58,1.02-.58,1.68,0,.56.12,1.04.37,1.42.25.39.57.72.97,1.01l-1.75,2.39ZM742.44,175.32c.58.02,1.07-.17,1.48-.57.41-.39.61-.9.61-1.52,0-.38-.06-.71-.18-1-.12-.29-.28-.53-.47-.74-.19-.2-.41-.36-.66-.48-.25-.11-.51-.18-.78-.19v4.5Z"/><path class="cls-2" d="M737.58,191.25c-.7-.55-1.24-1.24-1.61-2.07-.38-.83-.57-1.7-.57-2.59s.14-1.65.41-2.4c.27-.75.66-1.4,1.17-1.96.51-.55,1.12-.99,1.83-1.31.71-.32,1.51-.48,2.39-.48s1.67.16,2.39.48c.71.32,1.32.75,1.83,1.31.51.55.9,1.21,1.17,1.96.27.75.41,1.55.41,2.4,0,.79-.14,1.5-.41,2.15-.27.64-.66,1.19-1.17,1.64s-1.12.79-1.83,1.04c-.71.24-1.51.36-2.39.36h-1.07v-7.91c-.65.14-1.17.43-1.56.89s-.58,1.02-.58,1.68c0,.56.12,1.04.37,1.42.25.39.57.72.97,1.01l-1.75,2.39ZM742.44,188.37c.58.02,1.07-.17,1.48-.57.41-.39.61-.9.61-1.52,0-.38-.06-.71-.18-1-.12-.29-.28-.53-.47-.74-.19-.2-.41-.36-.66-.48-.25-.11-.51-.18-.78-.19v4.5Z"/><path class="cls-2" d="M752.86,193.89v3.41h-17.19v-3.41h17.19Z"/><path class="cls-2" d="M737.58,210.21c-.7-.55-1.24-1.24-1.61-2.07-.38-.83-.57-1.7-.57-2.59s.14-1.65.41-2.4c.27-.75.66-1.4,1.17-1.96.51-.55,1.12-.99,1.83-1.31.71-.32,1.51-.48,2.39-.48s1.67.16,2.39.48c.71.32,1.32.75,1.83,1.31.51.55.9,1.21,1.17,1.96.27.75.41,1.55.41,2.4,0,.79-.14,1.5-.41,2.15-.27.64-.66,1.19-1.17,1.64s-1.12.79-1.83,1.04c-.71.24-1.51.36-2.39.36h-1.07v-7.91c-.65.14-1.17.43-1.56.89s-.58,1.02-.58,1.68c0,.56.12,1.04.37,1.42.25.39.57.72.97,1.01l-1.75,2.39ZM742.44,207.33c.58.02,1.07-.17,1.48-.57.41-.39.61-.9.61-1.52,0-.38-.06-.71-.18-1-.12-.29-.28-.53-.47-.74-.19-.2-.41-.36-.66-.48-.25-.11-.51-.18-.78-.19v4.5Z"/><path class="cls-2" d="M747.83,227.92c.36-.29.63-.68.81-1.17.17-.49.26-.96.26-1.4,0-.26-.03-.52-.09-.8-.06-.27-.16-.53-.28-.77-.13-.24-.3-.44-.51-.59-.21-.15-.47-.23-.77-.23-.48,0-.86.18-1.11.55-.26.36-.48.82-.66,1.38-.18.55-.36,1.15-.54,1.78-.18.64-.44,1.23-.77,1.78-.33.55-.78,1.01-1.34,1.38-.56.36-1.31.55-2.25.55s-1.68-.17-2.34-.5-1.22-.78-1.66-1.35c-.44-.57-.76-1.23-.98-1.98-.21-.75-.32-1.54-.32-2.38,0-1.05.16-2.02.48-2.91.32-.89.83-1.73,1.55-2.5l2.77,2.52c-.49.36-.86.82-1.13,1.38-.26.55-.4,1.13-.4,1.72,0,.29.03.58.1.87.07.3.17.56.31.8s.31.42.52.57.46.22.75.22c.49,0,.87-.19,1.15-.56.28-.37.52-.84.72-1.4.2-.56.39-1.17.59-1.82.2-.65.46-1.26.79-1.82.33-.56.77-1.03,1.32-1.4.55-.37,1.26-.56,2.16-.56s1.62.17,2.27.51c.65.34,1.2.79,1.64,1.36.44.57.77,1.22.99,1.97s.33,1.51.33,2.3c0,.91-.13,1.79-.39,2.64-.26.85-.69,1.61-1.3,2.29l-2.66-2.43Z"/><path class="cls-2" d="M743.99,240.11v-3h-3.68c-.3,0-.58.02-.83.05-.25.03-.46.1-.65.21-.18.11-.32.27-.42.49s-.15.51-.15.88c0,.18.02.42.06.72.04.3.13.52.26.67h-2.84c-.14-.38-.23-.77-.27-1.18s-.07-.81-.07-1.21c0-.58.06-1.11.18-1.59.12-.49.31-.91.58-1.27.26-.36.61-.65,1.03-.85.42-.21.94-.31,1.55-.31h5.25v-2.18h2.73v2.18h3.27v3.41h-3.27v3h-2.73Z"/><path d="M554.37,93.88h5.74l8.15,13.32h.05v-13.32h4.22v19.17h-5.52l-8.37-13.64h-.05v13.64h-4.22v-19.17Z"/><path d="M590.3,98.43l-3.84,3.38-2.3-2.65,6.25-5.28h3.79v19.17h-3.9v-14.62Z"/><path d="M599.86,108.74l7.45-6.69c.38-.34.76-.73,1.14-1.16s.57-.94.57-1.52c0-.65-.24-1.16-.7-1.53-.47-.37-1.02-.55-1.65-.55-.76,0-1.35.24-1.77.7-.42.47-.66,1.05-.72,1.73l-4.06-.3c.05-.99.26-1.85.62-2.59.36-.73.84-1.34,1.44-1.83.59-.49,1.29-.85,2.1-1.1.8-.24,1.67-.37,2.61-.37.87,0,1.68.12,2.44.37s1.42.6,1.98,1.08,1,1.08,1.31,1.8c.32.72.47,1.56.47,2.52,0,.61-.06,1.17-.19,1.67s-.3.95-.53,1.35c-.23.41-.49.78-.8,1.12-.31.34-.64.68-1,1l-5.82,5.01h8.5v3.57h-13.37v-4.31Z"/><path d="M624.96,103.14h-3.57v4.39c0,.36.02.69.05.99.04.3.12.56.24.77s.32.38.58.5.61.18,1.04.18c.22,0,.5-.02.85-.07.35-.04.62-.15.8-.31v3.38c-.45.16-.92.27-1.41.32s-.96.08-1.44.08c-.69,0-1.32-.07-1.89-.22-.58-.14-1.08-.38-1.52-.69s-.77-.73-1.02-1.23-.36-1.12-.36-1.84v-6.25h-2.6v-3.25h2.6v-3.9h4.06v3.9h3.57v3.25Z"/><path d="M631.08,92.58v9.1h.05c.09-.25.24-.51.46-.76.22-.25.48-.48.78-.68s.67-.36,1.08-.49c.41-.13.86-.19,1.35-.19,1.03,0,1.86.16,2.49.47s1.12.75,1.48,1.31c.35.56.59,1.22.72,1.98s.19,1.58.19,2.46v7.26h-4.06v-6.44c0-.38-.01-.77-.04-1.18-.03-.41-.11-.78-.24-1.12-.14-.34-.34-.62-.62-.84-.28-.22-.68-.32-1.21-.32s-.95.09-1.27.28-.57.44-.74.76c-.17.32-.28.67-.34,1.07s-.08.81-.08,1.25v6.55h-4.06v-20.47h4.06Z"/><path d="M660.56,98.56c-.34-.43-.81-.75-1.39-.96-.59-.21-1.14-.31-1.67-.31-.31,0-.62.04-.95.11s-.63.18-.92.34c-.29.15-.52.36-.71.61s-.27.56-.27.92c0,.58.22,1.02.65,1.33s.98.57,1.64.78c.66.22,1.37.43,2.12.65.76.22,1.47.52,2.13.92.66.4,1.2.93,1.64,1.6.43.67.65,1.56.65,2.68s-.2,1.99-.6,2.79c-.4.79-.93,1.45-1.61,1.98-.68.52-1.46.91-2.36,1.16-.89.25-1.84.38-2.83.38-1.25,0-2.4-.19-3.47-.57s-2.06-.99-2.98-1.84l3.01-3.3c.43.58.98,1.02,1.64,1.34.66.32,1.34.47,2.04.47.34,0,.69-.04,1.04-.12.35-.08.67-.2.95-.36.28-.16.51-.37.68-.62.17-.25.26-.55.26-.89,0-.58-.22-1.03-.66-1.37-.44-.33-1-.62-1.67-.85-.67-.23-1.39-.47-2.17-.7-.78-.23-1.5-.55-2.17-.95-.67-.4-1.22-.92-1.67-1.57s-.66-1.51-.66-2.57.2-1.93.61-2.71c.41-.78.95-1.43,1.62-1.95s1.46-.92,2.34-1.18c.88-.26,1.8-.39,2.74-.39,1.08,0,2.13.15,3.14.46,1.01.31,1.92.82,2.73,1.54l-2.9,3.17Z"/><path d="M675.07,103.14h-3.57v4.39c0,.36.02.69.05.99.04.3.12.56.24.77s.32.38.58.5.61.18,1.04.18c.22,0,.5-.02.85-.07.35-.04.62-.15.8-.31v3.38c-.45.16-.92.27-1.41.32-.49.05-.96.08-1.44.08-.69,0-1.32-.07-1.89-.22-.58-.14-1.08-.38-1.52-.69s-.77-.73-1.02-1.23-.36-1.12-.36-1.84v-6.25h-2.6v-3.25h2.6v-3.9h4.06v3.9h3.57v3.25Z"/><path class="cls-2" d="M554.37,93.88h5.74l8.15,13.32h.05v-13.32h4.22v19.17h-5.52l-8.37-13.64h-.05v13.64h-4.22v-19.17Z"/><path class="cls-2" d="M590.3,98.43l-3.84,3.38-2.3-2.65,6.25-5.28h3.79v19.17h-3.9v-14.62Z"/><path class="cls-2" d="M599.86,108.74l7.45-6.69c.38-.34.76-.73,1.14-1.16s.57-.94.57-1.52c0-.65-.24-1.16-.7-1.53-.47-.37-1.02-.55-1.65-.55-.76,0-1.35.24-1.77.7-.42.47-.66,1.05-.72,1.73l-4.06-.3c.05-.99.26-1.85.62-2.59.36-.73.84-1.34,1.44-1.83.59-.49,1.29-.85,2.1-1.1.8-.24,1.67-.37,2.61-.37.87,0,1.68.12,2.44.37s1.42.6,1.98,1.08,1,1.08,1.31,1.8c.32.72.47,1.56.47,2.52,0,.61-.06,1.17-.19,1.67s-.3.95-.53,1.35c-.23.41-.49.78-.8,1.12-.31.34-.64.68-1,1l-5.82,5.01h8.5v3.57h-13.37v-4.31Z"/><path class="cls-2" d="M624.96,103.14h-3.57v4.39c0,.36.02.69.05.99.04.3.12.56.24.77s.32.38.58.5.61.18,1.04.18c.22,0,.5-.02.85-.07.35-.04.62-.15.8-.31v3.38c-.45.16-.92.27-1.41.32s-.96.08-1.44.08c-.69,0-1.32-.07-1.89-.22-.58-.14-1.08-.38-1.52-.69s-.77-.73-1.02-1.23-.36-1.12-.36-1.84v-6.25h-2.6v-3.25h2.6v-3.9h4.06v3.9h3.57v3.25Z"/><path class="cls-2" d="M631.08,92.58v9.1h.05c.09-.25.24-.51.46-.76.22-.25.48-.48.78-.68s.67-.36,1.08-.49c.41-.13.86-.19,1.35-.19,1.03,0,1.86.16,2.49.47s1.12.75,1.48,1.31c.35.56.59,1.22.72,1.98s.19,1.58.19,2.46v7.26h-4.06v-6.44c0-.38-.01-.77-.04-1.18-.03-.41-.11-.78-.24-1.12-.14-.34-.34-.62-.62-.84-.28-.22-.68-.32-1.21-.32s-.95.09-1.27.28-.57.44-.74.76c-.17.32-.28.67-.34,1.07s-.08.81-.08,1.25v6.55h-4.06v-20.47h4.06Z"/><path class="cls-2" d="M660.56,98.56c-.34-.43-.81-.75-1.39-.96-.59-.21-1.14-.31-1.67-.31-.31,0-.62.04-.95.11s-.63.18-.92.34c-.29.15-.52.36-.71.61s-.27.56-.27.92c0,.58.22,1.02.65,1.33s.98.57,1.64.78c.66.22,1.37.43,2.12.65.76.22,1.47.52,2.13.92.66.4,1.2.93,1.64,1.6.43.67.65,1.56.65,2.68s-.2,1.99-.6,2.79c-.4.79-.93,1.45-1.61,1.98-.68.52-1.46.91-2.36,1.16-.89.25-1.84.38-2.83.38-1.25,0-2.4-.19-3.47-.57s-2.06-.99-2.98-1.84l3.01-3.3c.43.58.98,1.02,1.64,1.34.66.32,1.34.47,2.04.47.34,0,.69-.04,1.04-.12.35-.08.67-.2.95-.36.28-.16.51-.37.68-.62.17-.25.26-.55.26-.89,0-.58-.22-1.03-.66-1.37-.44-.33-1-.62-1.67-.85-.67-.23-1.39-.47-2.17-.7-.78-.23-1.5-.55-2.17-.95-.67-.4-1.22-.92-1.67-1.57s-.66-1.51-.66-2.57.2-1.93.61-2.71c.41-.78.95-1.43,1.62-1.95s1.46-.92,2.34-1.18c.88-.26,1.8-.39,2.74-.39,1.08,0,2.13.15,3.14.46,1.01.31,1.92.82,2.73,1.54l-2.9,3.17Z"/><path class="cls-2" d="M675.07,103.14h-3.57v4.39c0,.36.02.69.05.99.04.3.12.56.24.77s.32.38.58.5.61.18,1.04.18c.22,0,.5-.02.85-.07.35-.04.62-.15.8-.31v3.38c-.45.16-.92.27-1.41.32-.49.05-.96.08-1.44.08-.69,0-1.32-.07-1.89-.22-.58-.14-1.08-.38-1.52-.69s-.77-.73-1.02-1.23-.36-1.12-.36-1.84v-6.25h-2.6v-3.25h2.6v-3.9h4.06v3.9h3.57v3.25Z"/><path class="cls-2" d="M297.36,118.71h5.74l8.15,13.32h.05v-13.32h4.22v19.17h-5.52l-8.37-13.64h-.05v13.64h-4.22v-19.17Z"/><path class="cls-2" d="M333.28,123.26l-3.84,3.38-2.3-2.65,6.25-5.28h3.79v19.17h-3.9v-14.62Z"/><path class="cls-2" d="M342.84,133.57l7.45-6.69c.38-.34.76-.73,1.14-1.16s.57-.94.57-1.52c0-.65-.24-1.16-.7-1.53-.47-.37-1.02-.55-1.65-.55-.76,0-1.35.24-1.77.7-.42.47-.66,1.05-.72,1.73l-4.06-.3c.05-.99.26-1.85.62-2.59.36-.73.84-1.34,1.44-1.83.59-.49,1.29-.85,2.1-1.1.8-.24,1.67-.37,2.61-.37.87,0,1.68.12,2.44.37.76.24,1.42.6,1.98,1.08s1,1.08,1.31,1.8c.32.72.47,1.56.47,2.52,0,.61-.06,1.17-.19,1.67s-.3.95-.53,1.35c-.23.41-.49.78-.8,1.12-.31.34-.64.68-1,1l-5.82,5.01h8.5v3.57h-13.37v-4.31Z"/><path class="cls-2" d="M367.94,127.97h-3.57v4.39c0,.36.02.69.05.99.04.3.12.56.24.77s.32.38.58.5.61.18,1.04.18c.22,0,.5-.02.85-.07.35-.04.62-.15.8-.31v3.38c-.45.16-.92.27-1.41.32s-.96.08-1.44.08c-.69,0-1.32-.07-1.89-.22s-1.08-.38-1.52-.69-.77-.73-1.02-1.23-.36-1.12-.36-1.84v-6.25h-2.6v-3.25h2.6v-3.9h4.06v3.9h3.57v3.25Z"/><path class="cls-2" d="M374.06,117.41v9.1h.05c.09-.25.24-.51.46-.76.22-.25.48-.48.78-.68s.67-.36,1.08-.49c.41-.13.86-.19,1.35-.19,1.03,0,1.86.16,2.49.47s1.12.75,1.48,1.31c.35.56.59,1.22.72,1.98s.19,1.58.19,2.46v7.26h-4.06v-6.44c0-.38-.01-.77-.04-1.18-.03-.41-.11-.78-.24-1.12-.14-.34-.34-.62-.62-.84-.28-.22-.68-.32-1.21-.32s-.95.09-1.27.28-.57.44-.74.76c-.17.32-.28.67-.34,1.07s-.08.81-.08,1.25v6.55h-4.06v-20.47h4.06Z"/><path class="cls-2" d="M403.54,123.39c-.34-.43-.81-.75-1.39-.96-.59-.21-1.14-.31-1.67-.31-.31,0-.62.04-.95.11s-.63.18-.92.34c-.29.15-.52.36-.71.61s-.27.56-.27.92c0,.58.22,1.02.65,1.33s.98.57,1.64.78c.66.22,1.37.43,2.12.65.76.22,1.47.52,2.13.92.66.4,1.2.93,1.64,1.6.43.67.65,1.56.65,2.68s-.2,1.99-.6,2.79c-.4.79-.93,1.45-1.61,1.98-.68.52-1.46.91-2.36,1.16-.89.25-1.84.38-2.83.38-1.25,0-2.4-.19-3.47-.57s-2.06-.99-2.98-1.84l3.01-3.3c.43.58.98,1.02,1.64,1.34.66.32,1.34.47,2.04.47.34,0,.69-.04,1.04-.12.35-.08.67-.2.95-.36.28-.16.51-.37.68-.62.17-.25.26-.55.26-.89,0-.58-.22-1.03-.66-1.37-.44-.33-1-.62-1.67-.85-.67-.23-1.39-.47-2.17-.7-.78-.23-1.5-.55-2.17-.95-.67-.4-1.22-.92-1.67-1.57s-.66-1.51-.66-2.57.2-1.93.61-2.71c.41-.78.95-1.43,1.62-1.95s1.46-.92,2.34-1.18c.88-.26,1.8-.39,2.74-.39,1.08,0,2.13.15,3.14.46,1.01.31,1.92.82,2.73,1.54l-2.9,3.17Z"/><path class="cls-2" d="M418.05,127.97h-3.57v4.39c0,.36.02.69.05.99.04.3.12.56.24.77s.32.38.58.5.61.18,1.04.18c.22,0,.5-.02.85-.07.35-.04.62-.15.8-.31v3.38c-.45.16-.92.27-1.41.32s-.96.08-1.44.08c-.69,0-1.32-.07-1.89-.22s-1.08-.38-1.52-.69-.77-.73-1.02-1.23-.36-1.12-.36-1.84v-6.25h-2.6v-3.25h2.6v-3.9h4.06v3.9h3.57v3.25Z"/><path class="cls-2" d="M737.12,268.52l4.3,2.11,1.21,12.98.04.02,4.9-9.98,3.17,1.55-7.05,14.36-4.14-2.03-1.25-13.3-.04-.02-5.02,10.22-3.16-1.55,7.05-14.36Z"/><path class="cls-2" d="M766.1,299.31c-1.17.03-2.32-.1-3.44-.38-1.12-.28-2.21-.68-3.26-1.2-1.12-.55-2.07-1.24-2.85-2.05-.77-.82-1.35-1.72-1.71-2.72-.37-.99-.52-2.05-.44-3.17.08-1.12.39-2.26.96-3.41.56-1.15,1.27-2.1,2.11-2.84.84-.74,1.77-1.28,2.78-1.59,1.01-.32,2.08-.42,3.19-.31,1.12.11,2.24.45,3.37,1,1.15.56,2.14,1.22,2.97,1.97.83.75,1.44,1.65,1.84,2.68l-3.42,1.34c-.21-.66-.53-1.24-.96-1.73-.42-.49-1.04-.94-1.85-1.34-.68-.33-1.35-.52-2.01-.56-.66-.04-1.29.05-1.88.27-.6.22-1.14.56-1.62,1.03-.49.46-.9,1.03-1.22,1.69-.33.67-.53,1.34-.59,2.01-.07.66,0,1.3.18,1.9.19.6.5,1.15.94,1.66.43.5.99.91,1.67,1.25.69.34,1.32.55,1.9.64.58.09,1.06.13,1.43.11l1.14-2.33-2.58-1.26,1.44-2.92,5.62,2.76-3.68,7.51Z"/><path class="cls-2" d="M772.84,291.64l3.04,1.49-.78,1.58.04.02c.62-.45,1.23-.72,1.83-.8.6-.08,1.23.04,1.91.37.18.09.35.18.52.28.17.1.32.21.45.32l-1.37,2.78c-.18-.17-.37-.33-.56-.47-.19-.14-.4-.26-.63-.37-.58-.28-1.08-.43-1.5-.44-.42,0-.79.09-1.11.3-.32.2-.62.49-.87.87-.25.38-.5.81-.74,1.3l-2.02,4.12-3.04-1.49,4.84-9.86Z"/><path class="cls-2" d="M783.05,307.35l-.04-.02c-.59.36-1.23.52-1.91.47-.67-.05-1.32-.22-1.94-.52-.46-.23-.87-.51-1.23-.85-.36-.34-.64-.71-.84-1.13-.2-.41-.3-.86-.31-1.33,0-.47.12-.96.36-1.46.28-.57.62-1,1.02-1.29.4-.29.84-.48,1.33-.55.48-.08.99-.08,1.52,0,.53.08,1.05.21,1.58.39.53.18,1.04.38,1.54.6.5.23.96.45,1.38.65.26-.54.28-1.06.05-1.57s-.61-.89-1.14-1.15c-.5-.25-1.01-.36-1.53-.36-.51,0-1.02.11-1.53.32l-.8-2.46c.83-.25,1.68-.32,2.57-.21.89.11,1.74.36,2.55.76.89.44,1.57.91,2.04,1.41.47.51.76,1.06.9,1.66.13.6.11,1.25-.06,1.95-.17.69-.46,1.45-.86,2.28l-2.46,5.01-2.8-1.38.61-1.24ZM783.81,303.9c-.23-.11-.52-.24-.88-.39-.35-.15-.71-.25-1.08-.31-.36-.06-.71-.05-1.02.02-.32.08-.56.29-.72.63-.18.36-.16.71.06,1.04.22.33.51.58.85.74.29.14.61.25.92.3.32.05.62.06.91.02.29-.04.55-.15.79-.31.24-.17.44-.41.59-.72l.32-.65-.75-.37Z"/><path class="cls-2" d="M791.98,301.04l2.92,1.43-.66,1.34.04.02c.19-.14.41-.27.68-.37.27-.1.56-.17.88-.2.32-.03.65-.01,1.01.04.36.06.72.18,1.08.36.77.38,1.34.8,1.69,1.27.36.47.56.98.63,1.53.06.55-.01,1.13-.19,1.74-.18.61-.44,1.25-.76,1.92l-2.67,5.44-3.04-1.49,2.37-4.83c.14-.28.28-.58.4-.9.13-.31.21-.63.23-.93.02-.31-.03-.59-.16-.86-.13-.26-.39-.49-.78-.68-.4-.2-.75-.28-1.06-.26-.32.02-.59.12-.84.29-.25.17-.46.4-.65.67-.18.28-.36.58-.52.9l-2.41,4.91-3.04-1.49,4.84-9.86Z"/><path class="cls-2" d="M809.14,312.49l-2.68-1.31-1.61,3.28c-.13.27-.24.52-.33.76-.08.24-.12.46-.1.67.02.21.1.41.25.59.15.18.39.35.72.52.16.08.38.17.66.26.28.09.52.12.71.06l-1.24,2.54c-.4-.05-.79-.14-1.17-.28-.38-.14-.76-.29-1.11-.47-.52-.25-.96-.54-1.34-.86-.38-.32-.68-.68-.88-1.07-.21-.4-.31-.83-.31-1.29,0-.47.14-.97.4-1.51l2.3-4.69-1.94-.95,1.19-2.44,1.94.96,1.43-2.92,3.04,1.49-1.43,2.92,2.68,1.32-1.19,2.43Z"/><path class="cls-2" d="M825.85,316.43c-.09-.45-.33-.86-.69-1.23-.36-.38-.74-.66-1.13-.85-.23-.12-.48-.21-.75-.27-.27-.06-.54-.09-.82-.09-.27.01-.52.08-.75.2s-.41.32-.54.59c-.21.43-.21.84,0,1.23.21.39.53.79.94,1.19.41.4.86.83,1.35,1.27.48.44.91.93,1.25,1.47.35.54.56,1.14.64,1.8.08.66-.09,1.41-.5,2.25-.39.8-.88,1.42-1.47,1.87-.59.45-1.24.74-1.94.89-.7.14-1.43.14-2.19,0-.76-.14-1.52-.39-2.26-.75-.93-.46-1.73-1.02-2.39-1.7-.66-.68-1.18-1.5-1.55-2.48l3.47-1.37c.11.59.36,1.13.74,1.61.38.48.83.85,1.36,1.11.26.13.53.22.83.29.29.07.57.09.84.07.27-.02.51-.09.74-.22s.39-.32.52-.57c.21-.43.21-.86,0-1.27-.21-.41-.52-.83-.93-1.25-.41-.42-.87-.86-1.37-1.33-.49-.46-.92-.96-1.27-1.51-.35-.54-.58-1.14-.67-1.79-.09-.65.06-1.37.45-2.17.38-.77.86-1.37,1.45-1.8.59-.43,1.24-.72,1.94-.86.7-.14,1.43-.15,2.19-.02.76.13,1.49.37,2.19.71.81.4,1.54.9,2.18,1.5.65.6,1.14,1.32,1.48,2.16l-3.34,1.31Z"/><path class="cls-2" d="M835.04,325.2l-2.67-1.31-1.61,3.29c-.13.27-.24.52-.33.76-.08.24-.12.46-.1.67s.1.41.25.59c.15.18.39.36.71.52.16.08.38.17.67.26.28.09.52.12.71.06l-1.24,2.54c-.4-.05-.78-.14-1.17-.28-.38-.14-.75-.29-1.11-.47-.51-.25-.96-.54-1.33-.86-.38-.32-.68-.68-.89-1.07-.21-.4-.31-.83-.31-1.29,0-.47.14-.97.4-1.51l2.3-4.69-1.95-.95,1.19-2.43,1.95.95,1.43-2.92,3.04,1.49-1.43,2.92,2.67,1.31-1.19,2.43Z"/><path class="cls-2" d="M220.55,239.59v4.01s-9.34,5.66-9.34,5.66v.04l9.3.03v2.95s-13.4-.04-13.4-.04v-3.86s9.56-5.81,9.56-5.81v-.04l-9.53-.03v-2.95s13.4.04,13.4.04Z"/><path class="cls-2" d="M220.47,265.01v2.44s-13.42,5.78-13.42,5.78v-3.33s2.85-1.14,2.85-1.14l.02-5.2-2.83-1.12v-3.25s13.38,5.83,13.38,5.83ZM216.57,266.13l-4.16-1.64v3.27s4.16-1.63,4.16-1.63Z"/><path class="cls-2" d="M221.35,274.3v2.84s-14.31-.05-14.31-.05v-2.84s14.31.05,14.31.05Z"/><path class="cls-2" d="M207,288.79v-2.61s1.22,0,1.22,0v-.04c-.16-.11-.33-.26-.5-.45-.17-.18-.32-.4-.46-.64-.14-.25-.25-.52-.34-.81-.09-.3-.13-.6-.13-.92,0-.68.12-1.3.36-1.85s.56-1.03.99-1.42c.42-.4.93-.7,1.51-.91.58-.21,1.22-.32,1.91-.32.64,0,1.25.1,1.84.3.59.2,1.11.48,1.56.84.45.36.81.8,1.08,1.32.27.52.4,1.1.4,1.76,0,.59-.09,1.14-.28,1.65-.18.51-.5.93-.94,1.25v.04l6.09.02v2.84s-14.31-.05-14.31-.05ZM211.61,286.19c.69,0,1.25-.19,1.68-.59.43-.4.65-.95.65-1.67,0-.72-.21-1.28-.64-1.68-.43-.4-.99-.6-1.68-.6-.69,0-1.25.19-1.69.59-.43.4-.65.95-.65,1.67,0,.72.21,1.28.64,1.68.43.4.99.6,1.68.6Z"/><path class="cls-2" d="M208.56,299.76c-.58-.46-1.02-1.03-1.34-1.73-.31-.69-.47-1.41-.46-2.16,0-.71.12-1.37.35-1.99.23-.62.55-1.16.98-1.62s.93-.82,1.53-1.08c.59-.26,1.25-.39,1.99-.39.73,0,1.39.14,1.98.4.59.27,1.1.63,1.52,1.09s.74,1.01.97,1.63c.23.62.34,1.29.33,2,0,.65-.12,1.25-.35,1.79-.23.53-.55.99-.98,1.36-.42.37-.93.65-1.52.85-.59.2-1.26.3-1.99.3h-.89s.02-6.58.02-6.58c-.54.11-.97.36-1.3.73-.32.38-.49.84-.49,1.4,0,.47.1.86.31,1.18s.47.6.8.85l-1.46,1.98ZM212.61,297.37c.48.01.89-.14,1.23-.47.34-.33.51-.75.52-1.27,0-.32-.05-.59-.15-.83-.1-.24-.23-.44-.39-.61-.16-.17-.34-.3-.55-.4-.21-.09-.43-.15-.65-.16v3.75Z"/><path class="cls-2" d="M216.15,301.94v2.84s-1.48,0-1.48,0v.04c.56.31.99.67,1.27,1.08.28.42.42.94.42,1.57,0,.16,0,.33-.02.49-.01.16-.04.32-.08.45h-2.59c.06-.21.11-.41.14-.6.03-.19.05-.4.05-.61,0-.54-.07-.97-.22-1.29-.15-.32-.36-.56-.63-.73-.27-.17-.6-.28-.97-.33-.38-.05-.79-.08-1.25-.08h-3.84s0-2.85,0-2.85l9.19.03Z"/><path class="cls-2" d="M217.01,322.22c.3-.24.53-.56.67-.97.15-.41.22-.8.22-1.16,0-.22-.03-.44-.07-.66-.05-.23-.13-.44-.24-.64-.11-.2-.25-.37-.42-.49-.18-.13-.39-.19-.64-.19-.4,0-.71.15-.93.45-.22.3-.4.68-.55,1.14-.15.46-.31.95-.46,1.48s-.37,1.02-.65,1.48c-.28.46-.65.84-1.12,1.14-.47.3-1.09.45-1.87.45-.74,0-1.39-.14-1.95-.42-.56-.28-1.01-.66-1.38-1.13-.36-.47-.63-1.02-.81-1.65-.18-.63-.26-1.29-.26-1.98,0-.87.14-1.68.41-2.42.27-.74.7-1.44,1.29-2.08l2.3,2.11c-.41.3-.72.68-.94,1.14-.22.46-.34.94-.34,1.43,0,.24.03.48.08.73.05.25.14.47.25.66.11.2.26.35.44.48.17.12.38.18.62.18.4,0,.72-.15.96-.46.24-.31.43-.7.6-1.16.17-.47.33-.97.5-1.51.16-.54.39-1.05.67-1.51.28-.47.65-.85,1.1-1.16.46-.31,1.06-.46,1.8-.46.72,0,1.35.15,1.89.43.54.29.99.67,1.36,1.14.36.48.64,1.02.82,1.64.18.62.27,1.25.27,1.91,0,.76-.11,1.49-.33,2.19-.22.7-.58,1.34-1.08,1.91l-2.21-2.03Z"/><path class="cls-2" d="M213.78,332.35v-2.5s-3.05-.01-3.05-.01c-.25,0-.48.01-.69.04-.21.02-.39.08-.54.17-.15.09-.27.22-.35.4-.08.18-.12.43-.12.73,0,.15.01.35.05.6s.1.43.22.56h-2.37c-.11-.32-.19-.65-.22-.99-.04-.34-.05-.68-.05-1.01,0-.48.05-.92.15-1.32.1-.4.26-.76.49-1.06.22-.3.51-.54.86-.71.36-.17.78-.25,1.29-.25h4.37s0-1.8,0-1.8h2.27s0,1.82,0,1.82h2.72s0,2.85,0,2.85h-2.72s0,2.49,0,2.49h-2.27Z"/></svg>