<svg xmlns="http://www.w3.org/2000/svg" viewBox="0 0 218.7 77"><path d="M217.8 31.5q.4-.8.5-1.4h-.4c-1.2-.7-3.1-1.8-4.6-1.7-.4 0-.7-.6-1-.8l-1.7-.7-1.8-.7-1.4-.8-1.3-.6c-1-.3-.7.5-1.7.1q-1-.6-1.9-1.6h-1.4l-1.9-.5-3.4-1.3-4.3-1.4c-.3-.1-.4-.6-.7-.6l-3-.4-2-.9q-1-.2-2-.8c-.5-.3-1.8-.3-2.3-.5q-.6.6-.8 1.2-1 0-1.6 1.4c-.4.8-1.8 4.3-3.5 6.5a13 13 0 0 1-3.7 3.8l-1 .5-.1-.4-.3-.8-1.3-2.1-.8-1.7-1-1.7-.9-1.7q-.4-.5-.1.2l1.3 3.3.4 1.5.5 1.4v.6l.6 1 .3.9-1.4.3q-2.2.6-5.4.5l-2.3-.3q-2.5 0-5.4-.3a64 64 0 0 1-11.2-2.8l.3-.8 1.4-3.8q.6-1.5 1-3.2c.8-2.5-.2-1.4.6-4l.2-.6.3-.9.7-1.7-2-1.8-.4-.3-.3-.3-.6-.6c-.4-.5-2-1.1-2.8-1.5l-3.8-2.4-3.2-2.3-2.5-1.8-3.2-2.2-.6 1.7-2.4 7-1.9 5.1c-.3.7-1 1.3-1.2 2q-.7 2.3-1 4.4c-3-1-6.2-1.5-11.6-3.6-3.5-1.3-4.7-1.3-8.3-2.2h-.2c-2-.4-9-2.6-16.6-4.3-7.5-1.8-16-2.6-18.6-2.6-6 0-7.5.3-13.7 1.2q-6.5 1-12.8 3.6a60 60 0 0 0-17.8 12l-.6-1.2-.5-.6-.7-.6-.9-.6-1-.3q-1.2-.1-2.5.5c-1.8.8-3 2.7-4 4.4a10 10 0 0 0-1 7.8q.4 1 1.2 1.8l-2 2.9A91 91 0 0 0 .1 60.9c-.4 1.5.2.3.6 1.8l.4.1q-.5 1.3 0 1.5c.3.2 3.5 1 4 1.2l1.5.9 1.6.7c.2 0 .3.4.5.4h1.4l1.3.6q1.9.5 3.5 1.3.7.5 1.2 1.1c.5.4 1.3-.2 2.3.4.6.4.9 0 1.5 0 1-.3 4.6 2 5.3 2.3s1.1 0 2 .4l1.5.7 2 .2c1 .2 1.5.5 2.4.9s3.2 1.4 4.5 1.5c.3 0 .1-.2.6-.9l.1-.3c.3.2.7.6 1 0 .2-.1.4-1 .6-1.5 2-5.7 6.2-13 8.5-16.3q.6-.9 1.4-1.4l1.4-1.2.4-.3 1 .7a16 16 0 0 1 4 4.3l1.5 2.8v.8q0 .2-.3.3H57l-.6-.1L54 63l-.2-.1-.2-.2v-.4l.3-.8.4-1.3q-.3-1-.9-1.7-.4-.5-.5-.4h-.2l-.6.1-.4.5-.3.7-.5 1.3c-.3.6-.7 1.8-.3 2.7l.3.3q.1.2.4.3l1 .4 2.2.7.8.2.8.2 1.5.4.6.2h1.4q.4 0 .5-.2.3 0 .2-.3l.1-.2v-.2q-.3-1.1-1.4-3a49 49 0 0 0-5.7-8l-.5-.4 1.6-1q1.7-1 3.8-1.6c1.2-.3 1.7-.3 2.5-.4v.8q0 .5.3 1.4l.5 1.6q.4-.1.7-.8l-.3.7.2.4q.4 1 1.1 1.6.7.3 1.2 0c.2-.3.4.1.6 0l1-.4 1-.8c.3-.4.5-.3.9-.7l.7-.9c.6-.9 0-.8.5-1.7l1.2-1.6 2.1.2 1 .2-.5.9-.2 1.5q0 1 .3 1.6.8 0 1.4-.3l-.8.5.2.4q.4 1.2 1.3 2 1 .6 1.9.4c.3-.2.6.3 1 .3h1.5l1.5-.6c.7-.2.8 0 1.4-.4q.7-.2 1.2-.6c.9-.7.1-.8.9-1.6l1.2-.9 2.4.5 9 2.7 18.8 6.7 14.7 4.7q-.4.5-.4 1.5t.3 1.7q1.3.4 2.3 0l-1.3.4.3.4q.5 1.3 2.2 2.4 1.6 1 3.1.8c.5 0 1.1.5 1.7.6h2.3q1.3 0 2.5-.2c1-.2 1.2 0 2.2-.4l1.7-.6c1.2-.7-.1-.8 1-1.6l.4-.2c6.9.9 14.5 1.3 23.4-.1a57 57 0 0 0 20.3-6.8 56 56 0 0 0 16.9-15.2c1.4-1.8 3.5-5 5.2-8.4 1.7-3.3 2.9-6.6 3.8-8.8q0-2.9-.8-2.7Zm-13.2-2.4c.8.4 1.2 0 2 .4l.3.2-.4.9-2.7 5.9-.8-.6-1.1-.8c-1-.5-.8.4-1.8-.2-.6-.3-1-1.2-1.6-1.8q-.1-.2-.7-.2l2.4-5.9v-.5c1.3.4 3.9 2.3 4.4 2.6M66.7 37c-3.8 0-4.7.3-8.2.8a26 26 0 0 0-6.7 1.8q-3 1.5-5.7 3.7l-.2-.7a25 25 0 0 0-2.7-6l1.1-.7q3.9-2.3 8.2-3.6c3.6-1 4-.9 7.8-1.3q3.3-.4 6.7-.1h2l.2 2-.5 4.3zM31 63.1l-.4-.2-1.1-.7c-1-.4-.7.3-1.7-.2q-1-.6-1.8-1.6c-.2-.2-1-.2-1.4-.3l1-2.3 1.3.8 1 .5 1.2.5q1.7.7 3.2 1-.8 1.2-1.3 2.5m-11.6-32v1.7l-.1 1.6-.8-.4-.8-.8q.7-1 1.7-2m4.7 10.1 2.6 1q-.6 2-.5 4.1 0 1.2.3 2.3l.5 1v.1l-1.8 3-.9-1.2a16 16 0 0 1-1.7-5.2l-.4-2.3zm100.3-15.7.2-.4 4.3 1.5 10.8 3.6a23 23 0 0 1-1.7 6.6q-5.6-1.7-11-3.8l-4.8-2.1.5-1.5zm63.2 5.7q1.5.8 2.9 2l.8 1.3c.4.5 1.2.2 1.9.7a38 38 0 0 1-10.5 11.2q-1.7 1-3.5 1.8v-.1c-.4-.3 0-.9-.2-1.2l-.6-1.4-.7-1.5c-.2-.6 0-.8-.4-1.4q0-.6-.3-1v-.1l.8-.5a35 35 0 0 0 9.8-9.8M173.4 43c.2.7.6.8.8 1.5q0 .7.3 1.4l1.1 1.4q.5 1 .5 2l-1 .3-2 .2-2.8 1q-3.7.5-7.6.4l-3.6-.3-4.3-.2.1-.6.5-3.8c0-.2.6-.4.6-.7l-.2-1.3a45 45 0 0 0 17.6-1.5zM152 45.2l-.3 1.2c-.3 1-.3 2.2-.8 3.2l-.6.6a91 91 0 0 1-12.1-3v-.6l1.7-6 8.8 2.3 3.2.9-.1.2zm-32.6-6 .7-2 .4-.3c.3-.3.3-1.3.3-1.8q0-.4.3-.8l4.6 1.7 11.2 3.7-.8 2.2a7 7 0 0 0-2.3-1.4q-2.5-.8-5-.6c-.3 0-.7-.4-1-.3q-1.5.6-2.8 1.6c-.6.4-1.3.4-2 .9l-5-2.3q1 0 1.4-.7m-13.7-8.6c-.7.7-1 1.3-1.9 2q-.3.5-.4 1.5v.9c-2.4-.9-3.7-1-6.7-1.7h-.1l-3.8-1 .6-2c.6-1.6.8-1.8 1.3-3.4l.4-1q.8 0 1.4.3 5.1 1.4 10.1 3l1.2.4c-.6.5-1.5.5-2.1 1M73 27.9v-1.2l.3-3.1.3-2.5 2.8.3c4.5.6 8.6 2 12.7 3.2l1.7.4q0 1-.4 2.2-.7 2-1.1 3.7l-.1.6A183 183 0 0 0 73 27.8Zm19-7.1v.2h-.1l-.1.4-.2.5A190 190 0 0 0 73.9 18v-.6l.3-.6.7.4.1.3h.3l.5.2c1.5.5 3.1-.3 5.8.5 1.6.5 2.2.2 3.8.3h.1q1-.3 3.5.5l3.4 1.2zm-22.6 3.9c0 .7-.6 1.4-.5 2v.8l-2-.1c-4.6-.1-5.7.3-10 1q-4.6.5-8.8 2.3-3.5 1.6-6.5 3.9l-.9-1q-1.3-1.3-4-1.6-1.3 0-3 .7a9 9 0 0 0-3 2.3q-1.5 1.7-2.5 3.7l-1-.4-.6-.3 1.3-1.3 2.9-2.7q3.8-3.7 8.4-6.3 4.9-3 10.4-4.6c4.5-1.2 5.1-1.2 9.6-1.7q4-.3 8-.2h2.4zM41.5 39a13 13 0 0 1 1.8 3.5l.6 2 .1.6-1.3 1.2-.5-.3q-3-1.9-6.1-3.6l1.5-1.3 3.4-3zm-8 17.9-1-.1-1-.1-1.2-.2-1-.3-1.3-.8-.8-.5 1.6-2.8q.7.7 1.8 1.2 1 .5 2.2.6 1 0 2-.4t.6-.7q-.2 0-.2-1.2l-.5-.5q-.3-.4-.7-.4c-.1 0-.7.5-1 .5q-.9 0-1.7-.8l-.8-1 2.5-3.8.5-.6 4 1.8 3 1.7-2.3 2.5q-1.6 1.8-4 6zm-3.7-13.5 1.5.6-.9 1-1 1.3q0-1.4.4-2.9m4-2.1q-1.4-.8-2.7-1.3 1-1.8 2-3.2c1.3-1.5 3-2.1 4.3-1.9q1 .2 2 1.2-3.3 2.6-5.6 5.2M21.4 53.4q.9 1.5 2.1 2.5L22 59.2l-2.5-1.3-4-1.8 3.7-7q.7 2.4 2.2 4.4m19.4-1.6 1.7-2h.1L45 51q0 1.1-.5 2.1a5 5 0 0 1-1.7 2c-.7.3-1.2.8-2.6 1.3q-1.2.4-2.5.6h-.3zm31.3-17 .6-4 2.4.3c4 .5 7.8 1.8 11.6 3l2 .5v.5c-.4 2-1 3.4-1.6 5.4l-.2.5a190 190 0 0 0-15.3-3.4zm17.8 6c.1-1 .8-1.9 1.1-2.8l1-2.8 1.8.5q4.9 1.2 9.7 2.9l17.2 6-.2 1 .1 1.7q1.2.4 2.1 0l-1.2.4.2.4q.3 1.4 1.7 2.4a4 4 0 0 0 2.5.9c.5 0 1 .5 1.4.5l2 .2 2-.2 1.7-.2 1.5-.5.4-.3c.5 0 1.2.7 1.7.4l.2-1 .1-.3q4.8 1.4 9.7 2.5l3.4 1 .2.5c.7.8-1.3 4-1.5 4.7v1.3q-3.7-.7-7.2-1.7a183 183 0 0 1-21-6.6l-7.2-3.2c-3-1.3-6.4-1.6-11.9-3.8-3.2-1.2-4.3-1.2-7.5-2h-.2l-4-1zM153.3 58q.3-.9 1.3-1.8c.1-.2-.3-1-.3-1.2v-.8q5 .5 10.4.2l-.1.2c-.5.6-1.5.9-2 1.6-.5.9-.6 1.5-1.3 2.5q-.3.5 0 1.5 0 .4.4 1l-3.3-.3-5-.3.4-1.1c.1-1-.7-.6-.5-1.5m27.5-2c.3-.8 1.2-1.8 1.3-3 0-.4-.9-1.2-1.3-1.4l-.3-.9q1.2-.5 2.3-1.2a44 44 0 0 0 13.3-13.4c1.2.9 3 2.8 3.4 3.2.7.5 1.1.3 1.8.8l.3.2a49 49 0 0 1-8.6 10.5 38 38 0 0 1-12.5 7.5l.3-.3c.6-1.3-.6-.7 0-2m13.8-31.3 1 1.2c.5.4 1.3 0 2 .3l-.2.7-2.3 5-3-1.7-3.2-1.7 2.2-5-.1-.4h.1q1.8.7 3.5 1.6M181.9 20l-.2-.5 3.1 1 1.6 1 1.6.7.5.4-.3.7q-.3.9-1.8 3.9l-1.7-.6-1.8-1.1q-1-.4-2-1.1-.2-.3-.7-.4zm-9 12.6c1.9-1.3 3-2.4 5-4.5l1.3-2.1 2.4 1.3 1.4 1.1 1.4 1 .5.5a28 28 0 0 1-7.6 8.3l-1.7 1v-.6c0-.3-.7-.7-.8-1l-.9-1.3-1.4-2.9-.2-.5q.3 0 .5-.3m-22 .7q2.1.8 4.2 1.2 6.8.9 11.7-.1l3.6-.8.2.6v1.3c0 .5.8.8.9 1.8q0 .7.7 1.1.4.5.7 1.8l-2.4.6q-3.6.9-7.8.7l-3-.2-3.6-.2q-.1-.7.4-1.6c.2-.4-.1-1.5 0-2-1.3-.6-2.8-.6-3-.3l-.4 3.6a75 75 0 0 1-12.4-3l.7-1.7 1.3-4.1.3-.7 7.8 2Zm-24.2-13.1.7-3.2q.5-1.7 1.2-3.2l1.6-4.5.8-2.2.2-.3v-.2l.3-.2q0-.2.2 0l.3.8.2.2 1.2.5q1.3.5 2.9 1.7c1.2 1.1 1.8 1 3.2 1.7q1 .2 2.6 1.5l1.7 1.3.4.3.2.2.3.3-.2.3-.1.2-.1.2-.7 1.7-.9 2.2c-.7 2-.5 2.6-1.1 4.6l-1.2 3.3a144 144 0 0 1-14.5-5.5l.1-.3zm-92.6-1q6-3.6 12.6-5.6c5.4-1.4 6.1-1.4 11.5-2q4.6-.5 9-.3c7.3.3 3.6-.5 10.5.3Q85 12.8 91.4 15c1.6.5 6 1.3 7.8 1.8l10.4 3.1 11.6 4.1-1.6 3.8-.6 1.9c-2.9-1-6-1.5-11.4-3.6-3.4-1.3-4.5-1.3-8-2.2h-.3q-1-.1-3.5-.8v-.7l-.1-.3v-.5l.5-2 .5-1.5-3.6-1.3-.5-.2-.2-.1-.2-.1-.5-.3-1.1-.4c-.7-.3-2.6-.4-3.5-.5l-4.8-.8-4.8-.8-1.2-.2-1.6-.2-4.5-.4H70l-.3 4.8-2.8-.1c-5.2 0-6.5.3-11.8 1.1q-5.6.8-10.8 3Q38.5 24 33.7 28a61 61 0 0 0-9.3 8.9l-1.5-.7.5-2.3a25 25 0 0 0 .7-5l-.2-1.7-.1-.3.2-.1q4.5-4.5 10-7.8ZM16.5 29l.5-2v-.5l.3-.1h.2l.2.2q.6.6 1 1.5L16.5 31q-.2-1 0-2.1m-1.7 8.5a15 15 0 0 0 3.8 1.8v.5q-.3 1.8-.3 4.2v1a72 72 0 0 0-5.2 10l-1.2-.3c-.7-.2-1.2-.9-1.9-1.1q-1.2-.2-2-1.1-.5-.3-1.4-.5a126 126 0 0 1 8.2-14.5M8.2 63.6c-.7-.1-1.2-.8-1.9-1q-1.2-.1-2-.8-.7-.4-1.7-.4l.2-.7L5.1 55l3.4 1.3q.8.4 1.5 1l1.5.8h.1l-2 5.7zm8 2.6-4.3-1.5.2-.6 2-5 .6.2q1.8.6 3.4 1.6l1 1.2q.7.3 1.5.2l-1.8 5zm10.2 3.6c-1-.4-.7.4-1.7 0q-1-.6-2-1.5c-.1-.2-1-.1-1.3-.2h-.2q0-.4.2-.7.7-2.1 1.9-4.6c1 .1 4.2 2.4 4.8 2.7q.8.3 1.7.4l-1.7 4.7-.5-.2zm6 2.8-1.5-.7-.5-.2.2-.9 1.6-3.9 1.3.2q1.2.5 2.3 1.2l3.1 1.4-1.6 4.8q-2-1-3.7-1.2c-.4 0-.7-.6-1.1-.7m7.4-5a12 12 0 0 0-3.4-1.4c-.4 0-.7-.6-1.1-.7l-1.6-.9-.3-.1 1.8-3.6h.2a17 17 0 0 0 9.3-2.7l1.2-1a39 39 0 0 0-6.1 10.5M47 56l.2-.2q.8-1.2 1-3l1.2.8zm8.6-7q-2.3 1.1-4.1 2.8l-.5.4-.8-.7-2.4-2-.5-1.8L47 46q1.2-1 2.5-1.6 2.9-1.7 6-2.7c2.7-.6 3-.6 6-.9q2.5-.2 5.4 0h1.8l-.2 1.9-.1 1.4q-.9-.5-1.6-.6-2 .1-3.3 1.1-.5 0-.8.2-.7 1.1-1 2.4v.2l-1.4.2q-2.6.3-4.6 1.1m15.1-1.5.6-6.8 2.5.2q5.3 1 10.5 2.9l1.7.4-.9 3.1a5 5 0 0 0-2-1.2q-2.3-.5-4.3.1l-1-.1q-1.2.8-2 2l-.3.3zm39.4 10.4c-3.1-1.3-6.4-1.6-11.8-3.7-3-1.2-4.2-1.2-7.3-2h-.2q-1.1 0-3.9-1l2.2-6.4 1.9.4 9.4 2.8 18.8 6.7c8 2.7 16.2 5.5 25.3 7.5l4.1 1.2v.3q0 1-.6 2v.3q-1.6-1-3.2-1.4-3-.5-5.7-.3l-1.3-.2q-1.5.7-2.9 1.6l-1.6.7q-8.5-2.4-16-5.3c-2.6-1-4.7-2.2-7.2-3.2m97.5-8.7A56 56 0 0 1 193.4 63q-7.6 4.8-15.7 6.6a60 60 0 0 1-15 1.6q-2.6-.1-5-.4l-6.5-.5-.1-.3c.4-1.1 1-2.7.6-3.8-.2-.4.5-.7.5-1l.3-1.2q8.5 1.2 18.5-.3c5.5-.9 11.4-2.3 16.8-5.5a53 53 0 0 0 16.6-16.6l.3.1q1.2.7 2 1.6c.6.5 2.1 1.7 3.4 2.2zm4.5-7.3c-1-.8-2.4-1.9-3.7-2-.5 0-.6-.7-1-1l-1.2-.7c1.4-2.8 2.5-5.6 3.3-7.5v-.2h.7q1.2.5 2.2 1.2c.7.4 2.4 1.3 3.8 1.6l-.6 1c-.4 1-1.5 4-3.5 7.6" style="fill:#ccf6ff"/></svg>