<?xml version="1.0" encoding="UTF-8"?><svg id="Layer_2" xmlns="http://www.w3.org/2000/svg" viewBox="0 0 195.62 84.93"><defs><style>.cls-1{fill:#ccf6ff;}</style></defs><g id="Layer_1_copy"><path class="cls-1" d="M192.81,44.94c-.33-.32-.25-.93-.48-1.33-.31-.54-.61-1.09-.85-1.67-.26-.63-.7-1.13-.99-1.75-.36-.74-.29-.9-.69-1.62-.23-.42-.35-.91-.6-1.31-.61-.99-.76-.19-1.32-1.21-.4-.73-.42-1.65-.63-2.46-.08-.3-.77-.82-1-1.09-.44-.52-.8-1.08-1.15-1.66-.67-1.12-1.21-2.31-1.88-3.43-.82-1.35-1.64-2.71-2.41-4.09-.17-.3-.02-.79-.22-1.05-.62-.82-1.36-1.56-2.01-2.37-.48-.6-.56-1.42-.99-2.05-.5-.74-.92-1.2-1.14-2.11-.13-.53-1.15-1.43-1.44-2-.62.07-1.15.29-1.54.55-.42-.5-1.41-.47-2.48.13-1.9,1.06-15.34,9.29-17.26,10.4-.25.15-.49.27-.74.41-.11-.3-.2-.61-.36-.87-.53-.85-.79-.08-1.26-.96-.34-.63-.24-1.49-.35-2.22-.04-.27-.72-.67-.93-.89-.4-.43-.73-.9-1.02-1.4-.57-.96-1-2-1.58-2.96-.7-1.16-1.41-2.32-2.06-3.51-.14-.26.08-.73-.1-.95-.56-.69-1.26-1.28-1.86-1.95-.44-.49-.42-1.25-.8-1.79-.44-.62-.84-1-.95-1.82-.07-.48-1.05-1.19-1.29-1.68-1.46.31-2.64,1.25-2.48,1.64.16.38,1.86,2.82,2.06,3.19.26.48.31,1.04.53,1.53.22.48.49.94.69,1.44.08.18,0,.46.12.6.27.31.68.51.93.83.26.34.39.76.59,1.14.53,1,1.29,1.95,1.6,3.07.13.45-.01,1,.07,1.47.1.59,1.16.58,1.4,1.61.14.6.57.56,1.06.95h.04c.89.22,1.87,4.12,2.17,4.73.15.31.31.47.47.62-1.11.58-2.22,1.17-3.33,1.8-2.43,1.37-4.93,2.86-7.21,4.1-.85.47-1.77.75-2.51,1.21l-2.28,1.46c-.42.31-.97.67-1.52.96-1.18.63-2.44,1.05-3.69,1.47-.54.19-1.11.35-1.67.51-.01-.19-.03-.39-.07-.57-.17-.75-.34-1.27-.31-2.08,0-.47-.42-1.52-.49-2.08-.72-.3-1.35.02-1.34.47.01.42.44,3.43.48,3.86.02.27.01.54,0,.81-2.38.44-4.84.47-7.07-.31-1.34-.43-2.39-1.26-3.54-1.98-1.39-.89-3.22-.86-5.57-2.95-.47-.41-1.23-.96-1.9-1.38.11-.15.21-.3.32-.45.77-1.02,1.66-1.95,2.42-2.98.93-1.24,1.85-2.49,2.82-3.7.21-.26.7-.32.86-.6.52-.87.93-1.81,1.42-2.69.37-.65,1.07-1.04,1.49-1.67.49-.72.76-1.27,1.49-1.82.42-.32.89-1.56,1.3-2.03-.49-1.05-1.75-1.75-2.06-1.37-.33.34-2.26,3.13-2.57,3.5-.4.48-.92.8-1.34,1.25-.41.45-.79.92-1.22,1.35-.16.16-.45.22-.55.41-.23.4-.33.89-.57,1.28-.26.41-.64.74-.96,1.11-.84.99-1.56,2.17-2.57,3.01-.4.35-1,.46-1.45.76-.56.37-.23,1.41-1.18,2.13-.33.25-.4.5-.46.79-.14-.09-.27-.18-.43-.28l-.15-.07c-1.48-.68-5.95-4.66-12.11-8.97-1.57-1.04-3.14-2.11-4.67-3.07-1.57-.89-3.07-1.74-4.42-2.51-2.75-1.45-5-2.43-6.03-2.91-4.84-1.87-6.13-1.99-11.08-3.37-1.68-.53-3.41-.85-5.12-1.28-1.71-.43-3.43-.73-5.16-.92-1.94-.25-3.87-.39-5.81-.38-1.93-.02-3.85-.09-5.8-.03-1.37,0-2.65,0-3.88,0-.42.02-.82.03-1.23.05.09-.46.15-.92.2-1.39l.03-.78c-.03-.31-.06-.71-.09-1.06-.04-.36-.17-.7-.26-1.06-.11-.34-.3-.65-.48-.96-.45-.55-.96-1.12-1.73-1.36-1.43-.54-3.33-.24-4.82.4-2.39,1.04-4.19,2.81-4.96,5-.25.79-.35,1.53-.39,2.25-2.82.45-6.64,1.22-10.57,2.35-5.36,1.62-10.87,3.88-14.26,5.84-1.3.73-.09.34-.75,1.8.1.05.15.15.18.28-.7.36-1.12.81-1.02,1.08.17.45,2.04,3.38,2.25,3.81.28.57.35,1.2.6,1.77.25.57.54,1.11.77,1.68.09.21.02.51.15.68.29.37.72.66.99,1.05.28.41.43.9.66,1.34.6,1.18,1.4,2.34,1.8,3.61.16.51.09,1.08.22,1.6.16.64,1.14.84,1.48,1.99.2.67.58.71,1.07,1.22l.04.02c.8.41,2.2,4.75,2.57,5.45.41.81.73.9,1.15,1.71.29.55.48,1.16.82,1.68.39.58.94,1.06,1.31,1.66.52.84.78,1.5,1.18,2.39.39.87,1.65,3.35,2.45,4.46.15.21.15-.03.74-.08.05-.05.14-.08.23-.12.13.35.19.85.62.87.17.01.62-.39.97-.56.88-.43,2-.75,3.11-1.22,1.18-.36,2.41-.78,3.68-1.13,1.3-.28,2.54-.72,3.8-.92.62-.13,1.22-.28,1.78-.43.58-.12,1.13-.23,1.65-.34,1.28-.35,2.74,0,4.09-.06.2-.02.41-.01.62-.02l.36,1.26c.14.53.26,1.08.36,1.62.28,1.63.26,3.31.02,4.67-.24,1.34-.68,2.59-1.14,3.3-.14.21-.27.37-.41.47l-.1.07-.13.03-.25.07c-.17.08-.28.06-.45.02-.16-.05-.33-.11-.49-.19-.16-.09-.32-.21-.44-.34-.08-.08-.25-.33-.4-.6-.31-.54-.65-1.29-1.06-2.2-.05-.17-.05-.17-.11-.28-.09-.11-.04-.21.01-.28l.05-.07s0-.02.05-.04l.2-.11c.27-.15.53-.29.79-.43.52-.31,1.01-.55,1.47-.77.31-.62.53-1.22.59-1.97.02-.34-.06-.69-.15-.72-.09-.07-.19,0-.27-.05-.17-.12-.26-.33-.48-.36-.2-.06-.48-.05-.78.07-.29.15-1.06.5-2.08.94-.69.27-1.63.79-1.92,1.77-.04.13-.07.27-.07.46,0,.19.06.33.1.5.08.33.19.68.35,1.04.32.73.7,1.47,1.07,2.17l.45.83.39.71c.26.47.53.97.81,1.4.14.22.27.42.42.62.16.23.31.38.45.51.28.26.53.41.77.52.24.1.45.15.67.19.22.04.4-.04.56-.08.16-.05.3-.08.42-.14.12-.07.22-.16.29-.22.71-.69,1.3-1.83,1.79-3.27.49-1.44.86-3.25.98-5.11.12-1.84.01-3.63-.26-5.3-.04-.25-.09-.47-.13-.7l1.24.03,1.36.17c1.97.2,3.88.37,5.81.77,1.15.29,1.8.47,2.44.66.62.24,1.25.47,2.37.79,1.31.4,2.5,1.05,3.76,1.5,2.93,1.32,1.72-.05,4.54,1.51,2.07,1.16,3.36,2.58,5.57,4.55.37.32,1.27.93,2.2,1.53.95.62,2.01,1.31,2.63,1.75,2.9,2.13,5.81,4.28,8.72,6.43,7.96,5.74,16.72,10.49,26.26,12.53,11.55,2.63,23.72,1.12,34.8-3.15,2.4-.9,4.96-1.57,7.2-2.69.89-.45,1.7-.86,2.63-1.37,1.02-.56,1.57-.86,2.19-1.23,1.25-.73,2.43-1.45,3.57-2.17,2.07-1.34,4.14-2.67,6.22-4.02,2.91-1.87,6.04-3.27,9-5.08,3.44-2.11,5.79-3.67,9.45-5.48,2.14-1.06,6.96-4.47,9.49-5.91.68-1.14.68-1.88.31-2.27.29-.16.7-.32.8-.53.04-.09-.18-.2-.24-.33-.6-1.3-1.51-3.41-2.57-4.45ZM186.23,39.06c.42.81.79.85,1.23,1.65.07.13.13.28.19.42-.2.08-.42.17-.63.29-.55.3-2.07,1.21-3.98,2.37-.1-.28-.17-.52-.41-.95-.23-.42-.35-.91-.6-1.31-.61-.99-.76-.19-1.32-1.21-.4-.73-.42-1.65-.63-2.46-.04-.17-.28-.4-.51-.63,1.58-1.03,3.14-2.05,4.26-2.69.09-.15.13-.27.2-.41.84,1.22,1.9,4.35,2.21,4.94ZM61.38,40.68c-.19-.13-.39-.24-.59-.31-.51-.16-1.02-.21-1.53-.22-.37-.1-.77-.2-1.21-.33-1.1-.37-2.25-.57-3.38-.88-1.12-.31-2.27-.52-3.43-.62-1.29-.15-2.58-.23-3.88-.17-1.06.02-2.12.01-3.18.04.09-.25.18-.49.28-.73.46-1.26.84-2.5,1.08-3.75.2-1.07.29-2.1.33-3.1l1.2.13c2.81.26,5.54.53,8.3,1.09,1.66.39,2.59.63,3.51.89.91.31,1.82.62,3.46,1.09.74.22,1.46.5,2.18.78-.18.57-.04.89-.3,1.54-.2.5-.53.95-.65,1.47-.13.59-.01,1.25-.16,1.83-.16.64-.39,1.1-.67,1.63-.47-.14-.92-.26-1.37-.37ZM34.02,45.04c-.68-.2-1.32-.28-2.5-.94-.68-.39-1.35-.95-1.98-1.6-.07-.07-.13-.15-.19-.22.42-.1.83-.22,1.25-.29.76-.16,1.49-.33,2.18-.51.71-.14,1.38-.27,2.01-.39.84-.21,1.74-.21,2.65-.18.32.92.61,1.82.92,2.73-.56.58-1.17,1-1.86,1.23-1.12.39-1.8.31-2.47.16ZM21.75,41.39c-.03-.12-.07-.26-.13-.43-.15-.45-.2-.94-.36-1.39-.41-1.09-.63-.37-1-1.47-.27-.79-.17-1.67-.24-2.5-.03-.31-.57-.97-.74-1.27-.01-.02-.02-.05-.03-.08.69-.23,1.38-.44,2.09-.66.1.53.21,1.06.37,1.56.12.41.22.83.36,1.22.15.39.29.77.43,1.14.48,1.23,1.01,2.23,1.52,3.1-.76.25-1.52.51-2.26.78ZM17.26,28.77c-.53-1.45-1.07-2.89-1.56-4.35,1.41-.47,2.84-.94,4.3-1.35.81-.2,1.61-.42,2.41-.63-.62,1.48-1.09,3.09-1.3,4.74-.18,1.1-.2,2.27-.13,3.42-.95.3-1.89.62-2.81.96-.3-.93-.57-1.87-.91-2.79ZM71.79,26.23c5.09,2.25,2.74.35,7.69,2.99,3.33,1.81,6.14,4.19,8.82,6.5-.56.09-1.16.06-1.72.37-.85.51-1.32,1-2.33,1.57-.3.18-.65.71-.9,1.32-.21.53-.34,1.05-.44,1.47-.74-.56-1.49-1.11-2.25-1.65-4.33-3.22-9.25-5.55-11.1-6.41.17-.22.1-.97.15-1.26.1-.58.28-1.13.49-1.66.41-1.04.98-2.01,1.39-3.05.03-.07.06-.15.09-.22.04.01.07.03.11.04ZM126.91,52.96l.03.02c.68.55,0,4.67-.04,5.33,0,.79.38.92.41,1.71,0,.1-.01.21-.02.32-4.2.67-8.52.64-12.49-.55-2.51-.68-4.57-1.87-6.8-3.06-2.73-1.5-5.8-2.15-10.35-5.78-2.12-1.72-3.12-2.21-4.87-3.3.07-.01.13,0,.2-.02.18-.06.31-.12.41-.18.03.03.05.05.08.08.32.18.81.77,1.14.81.11.01.11-.25.21-.34.6-.61,1.42-1.44,2.09-2.3.1-.05.2-.08.3-.14.37-.22.79-1.32.92-1.8.21-.18.49-.31.71-.49.91.67,1.81,1.33,2.71,2,4.33,3.15,8.99,6.12,14.27,7.41,3.18.77,6.51.97,9.76.51.44-.06.88-.15,1.32-.23ZM146.68,44.53c.03.21.06.42.09.67.04.34.38.88.82,1.37.47.48,1.01.88,1.36,1.15.62-.35.95-.92,1.17-1.43,0,0,0,0,0,0,0,0,.02,0,.02.01-.18.34-.45.75-.42,1.02.02.12.29.09.42.17.69.44,1.75.7,2.66.55.92-.13,1.68-.6,2.04-1.17.22-.35.84-.23,1.14-.53.38-.39.78-.79,1.16-1.19.43-.44.6-1.04.9-1.56.36-.64.56-.66.8-1.41.13-.44.4-.84.45-1.34.08-1.2-.58-.68-.56-1.83-.01-.53.13-1.1.2-1.72.2-.12.41-.23.61-.35,3.44-2.11,5.79-3.67,9.45-5.48.67-.33,1.62-.91,2.67-1.57.61,1.07,1.35,2.12,1.76,3.28.18.51.12,1.09.26,1.61.15.58.93.79,1.37,1.62-4.41,2.67-9.51,5.78-10.63,6.43-2.48,1.45-4.92,2.62-7.4,4.02l-7.35,4.19c-.92.51-1.95.85-2.81,1.38-.93.58-1.84,1.15-2.76,1.73-.98.61-1.96,1.18-3,1.71-2.2,1.11-4.51,1.97-6.83,2.75-1.08.37-2.19.68-3.32.97.03-.25.06-.48,0-.89-.05-.41.05-.86-.03-1.26-.2-.98-.71-.29-.84-1.29-.09-.73.29-1.55.41-2.31.04-.28-.43-.88-.54-1.16-.04-.11-.07-.22-.11-.33,1.76-.47,3.49-1.05,5.17-1.74,1.31-.52,2.78-.74,4-1.39,1.85-.98,3.81-2.17,5.72-3.39.64-.42,1.29-.84,1.93-1.25ZM84.59,41.16s0,.02,0,.03c-.24-.02-.51-.05-.74-.04-.04-.03-.08-.06-.11-.08.3.07.59.09.86.1,0,0,0,0,0,0ZM68.18,25.1c-.27.38-.79.63-1.1.99-.38.45.32,1.27-.31,2.12-.36.5-.06.8-.04,1.42l.02.04c.13.28-.07.87-.39,1.54-1.75-.54-3.06-.8-5.68-1.53-1.29-.43-2.64-.67-3.96-1.01-1.32-.35-2.66-.59-4-.72-1.51-.19-3.01-.28-4.52-.24-.77,0-1.54,0-2.31,0-.02-.42-.06-.86-.14-1.3-.22-1.35-.74-2.81-1.89-3.96-.55-.55-1.36-1.12-2.38-1.45-1-.37-2.19-.39-3.31-.21-1.1.18-2.23.43-3.34.84-.13.05-.25.12-.38.17-.12-.35-.25-.7-.37-1.05-.08-.21-.15-.42-.22-.64,1.63-.11,3.34.02,4.96-.06,1.5-.13,3-.05,4.5-.03l2.24.06,2.22.22c3.23.29,6.36.61,9.55,1.25,1.91.44,2.98.72,4.05,1.01,1.06.35,2.11.69,4,1.24,1,.3,1.98.67,2.95,1.06-.05.08-.09.17-.14.25ZM24.03,29.75c.05-.53.12-1.06.23-1.57.38-1.8,1.06-3.49,2-4.94.27-.42.66-1.17,1.14-1.97.67-.15,1.35-.29,1.98-.43.33-.06.61-.11.93-.17.37.91.74,1.82,1.1,2.72-1.03.65-2.02,1.49-2.85,2.59-.43.56-.82,1.18-1.11,1.9-.17.33-.25.77-.36,1.14,0,.02,0,.03,0,.05-.97.2-1.99.42-3.05.69ZM32.67,26.61c.2.52.4,1.03.6,1.55-.39.04-.78.08-1.19.12-.39.04-.88.1-1.41.17.54-.68,1.22-1.3,1.99-1.83ZM36.55,27.91c-.32-.97-.64-1.93-.97-2.9,1.06-.43,2.15-.74,3.17-.93,1.73-.37,3.12.26,3.92,1.35.45.58.66,1.43.72,2.32-.95,0-1.86,0-2.72,0-.95.04-1.87.08-2.79.11-.44,0-.88.02-1.32.04ZM32.19,10.93c-.3.36-.63.73-1.01,1.13-.07-.3-.14-.6-.2-.9-.08-.42-.08-.82-.09-1.22.74-.15,1.5-.22,2.28-.26,0,0,0,.01-.01.02-.32.44-.65.82-.97,1.22ZM26.9,39.13c-.21-.35-.38-.61-.54-.83-.32-.41-.46-.68-.65-.92-.17-.25-.4-.47-.62-1-.11-.26-.24-.58-.41-.99-.15-.42-.27-.95-.45-1.6-.07-.33-.11-.66-.15-.99.92-.24,1.83-.46,2.73-.68.03.71.13,1.44.36,2.2.2.75.62,1.52,1.07,2.14.49.61,1.02,1.02,1.51,1.28.74.34.79.21.84.04.03-.21.11-.49.6-1.01-.11-.21.02-.51.03-.81,0-.3.01-.58-.22-.77-.14-.1-.76-.15-1-.49-.32-.38-.55-.98-.58-1.82-.02-.42.01-.89.08-1.36.53-.12,1.08-.24,1.58-.35.83-.16,1.62-.3,2.37-.44.24-.06.49-.07.74-.1.53,1.44,1.07,2.89,1.57,4.33.38,1.1.62,2.3.9,3.44-.98.06-1.98.14-3.09.24-1.34.11-3.67.48-6.26,1.09-.15-.22-.29-.41-.41-.59ZM40.91,38.21c-.4.02-.78.03-1.18.05-.06-.19-.12-.37-.18-.56-.71-2.37-1.43-4.79-2.14-7.19.63.01,1.25.03,1.86,0,1.3-.12,2.61-.04,3.91-.02h.19c-.01.37-.03.73-.04,1.07-.06,1.44-.33,2.77-.79,4.08-.22.64-.5,1.32-.78,1.99-.09.21-.18.39-.27.6-.19,0-.39,0-.58,0ZM65.27,41.02c.2-.49.42-.99.69-1.45.3-.5.4-1.07.67-1.59.32-.62.49-.65.77-1.29.12-.27.29-.52.44-.77,0,0,.02,0,.03.01,4.37,1.94,2.4.21,6.64,2.49,3.06,1.68,5.47,3.87,8.11,6.16.97.82,4,2.71,5.28,3.63,2.56,1.88,5.13,3.78,7.7,5.67,5.54,4.01,11.54,7.63,18.25,9.19,4.05.95,8.26,1.2,12.39.68.6-.08,1.2-.19,1.8-.29.14.76.05,1.37-.03,2.18,0,.07-.01.16-.02.24-.99-.34-2-.48-2.94-.44-1.87.12-3.56.61-5.2,1.15-.35.11-.91-.16-1.24.03-.98.58-1.78,1.38-2.56,2.17-.56.59-1.57.76-2.15,1.41-.02.03-.04.05-.06.08-.31-.08-.63-.13-.94-.21-3.08-.77-5.65-2.1-8.42-3.47-3.4-1.74-7.13-2.66-12.8-7.05-1.73-1.34-2.45-1.86-3.44-2.47-.93-.58-1.87-1.12-3.2-2.02l-.15-.08c-1.59-.8-6.1-4.68-9.99-7.45-3.8-2.88-8.26-4.97-9.58-5.59-.22-.08-.4-.15-.6-.22.16-.24.43-.45.53-.7ZM132.36,69.98c-.18-.41-.45-.84-.62-1.07,0-.01-.02-.02-.02-.03.04-1.27.06-3.05-.6-4.05-.22-.34.22-.88.16-1.27-.04-.25-.07-.49-.09-.74,2.41-.59,4.78-1.34,7.09-2.26,1.67-.65,3.5-1.03,5.06-1.84,2.53-1.32,4.57-2.56,6.61-3.86,1.98-1.28,3.96-2.57,5.94-3.85,2.91-1.87,6.05-3.27,9-5.08,3.44-2.11,5.79-3.67,9.45-5.48.7-.34,1.69-.95,2.79-1.64.79,1.41,1.66,3.99,1.93,4.52.42.81.79.85,1.23,1.65.07.12.12.25.18.38-4.42,2.68-9.57,5.82-10.7,6.48-2.48,1.45-4.92,2.62-7.4,4.02l-7.42,4.23c-.95.53-2.04.91-2.96,1.46-1.01.62-2.01,1.24-3.01,1.86-1.26.76-2.47,1.43-3.74,2.07-2.72,1.34-5.56,2.38-8.42,3.3-1.44.47-2.94.86-4.45,1.21ZM180.6,28.9c.18.51.12,1.09.26,1.61.15.58.95.79,1.38,1.65-.18.07-.37.15-.56.25-.54.3-2.04,1.2-3.93,2.34-.58-1.02-1.09-2.08-1.7-3.09-.67-1.11-1.33-2.23-1.97-3.35,1.63-1.06,3.26-2.13,4.4-2.79.06-.11.09-.19.14-.29.02.04.03.07.05.11.63,1.16,1.47,2.29,1.91,3.55ZM173.15,16.54c.11-.19.17-.34.25-.5.65,1.02,1.7,2.6,1.86,2.91.3.55.43,1.17.7,1.73.27.56.58,1.09.84,1.65.1.21.05.5.19.67.03.03.06.06.09.09-.24.08-.49.19-.74.33-.52.29-1.91,1.12-3.68,2.19-.42-.48-.84-.95-1.24-1.45-.48-.6-.56-1.42-.99-2.05-.5-.74-.92-1.2-1.14-2.11-.05-.2-.24-.46-.46-.73,1.6-1.05,3.19-2.08,4.32-2.73ZM163.66,22.45c.71-.35,1.74-.98,2.86-1.69.63.98,1.42,2.18,1.56,2.44.3.55.43,1.17.7,1.73.27.56.58,1.09.84,1.65.1.21.05.5.19.67.01.02.03.03.04.05-4.44,2.69-9.64,5.86-10.78,6.53-.49.29-.97.53-1.46.8,0,0,0,0,0,0,0,0-.02-.01-.03-.02-.47-1.14-1.13-2.76-2.06-3.52-.31-.26-.15-.84-.35-1.18-.26-.46-.52-.94-.7-1.45-.07-.19-.17-.34-.27-.51,0,0,0,0,.01,0,3.44-2.11,5.79-3.67,9.45-5.48ZM131.77,40.54c.95-.38,2.06-.42,2.95-.91,1.16-.64,3.04-1.77,4.84-2.93,1.89-1.23,3.77-2.46,5.66-3.69,1.98-1.27,4.06-2.33,6.11-3.44.35.31.75.59,1.02.96.5.68.68,1.28,1,2.07.02.06.06.15.1.23-.93-.02-1.79.18-2.49.56-1.38.77-2.37,1.89-3.17,3.12-.18.25-.71.29-.83.6-.31.98-.33,2.06-.33,3.08,0,.2-.03.39-.08.59-.72.41-1.45.83-2.16,1.22-.89.49-1.86.8-2.66,1.29-.84.53-1.68,1.06-2.52,1.59-.7.46-1.47.93-2.25,1.33-1.69.87-3.47,1.52-5.25,2.13-.79.27-1.61.52-2.44.74-.06-.51-.12-1.03-.22-1.53-.25-1.36-.5-2.72-.71-4.09-.04-.3.19-.67.11-.95l-.25-.75c1.22-.33,2.41-.74,3.57-1.22ZM117.83,42.07c2.61.67,5.31.66,7.95.21.1.31.23.62.29.94.08.43.05.88.08,1.32.07,1.17.32,2.37.2,3.56-.05.48-.34.94-.44,1.42-.02.09.01.18.03.26-3.11.47-6.3.42-9.21-.52-1.93-.56-3.48-1.59-5.17-2.55-2.06-1.2-4.5-1.52-7.95-4.38-.87-.71-1.68-1.29-2.44-1.75.09-.12.17-.25.28-.36.55-.59.73-.58,1.24-1.21.3-.36.71-.64.98-1.02.67-.92-.15-.79.57-1.67.36-.44.88-.74,1.39-1.04.63.46,1.25.92,1.88,1.38,3.13,2.29,6.49,4.48,10.33,5.41ZM84.45,20.01c4.05,2.2,7.57,5.15,10.64,7.77,1.21,1,4.45,3.05,5.74,3.98.75.55,1.51,1.11,2.27,1.67-1.01.98-2.19,1.95-2.48,2.26-.6.66-.46,1.05-1.04,1.73-.4.47-.93.83-1.25,1.35,0,.02-.01.03-.02.05-.09-.06-.16-.11-.25-.16-.31-.6-.71-1.11-1.16-1.5-.97-.8-2.06-1.29-3.21-1.62-2.01-1.57-4.52-3.54-7.28-5.48-5.31-3.88-11.32-6.64-13.2-7.49.18-.2.6-.3.66-.55.2-.87.21-1.81.36-2.71.1-.66.78-1.07.97-1.7.13-.43.2-.79.36-1.14.05.02.11.04.16.06,5.81,2.57,3.08.48,8.74,3.48ZM43.42,9.56l2.53.06,2.51.24c3.65.32,7.19.69,10.8,1.41,2.17.49,3.38.8,4.59,1.12,1.2.38,2.4.76,4.54,1.38,1.32.4,2.61.89,3.89,1.4-.14.48-.25.88-.31,1.01-.21.5-.65.88-.89,1.37s-.42.98-.67,1.44c-.1.17-.39.28-.41.47-.05.41.09.87,0,1.27-.04.22-.13.42-.23.61-1.99-.63-3.49-.94-6.48-1.77-1.49-.48-3.03-.76-4.54-1.14-1.51-.39-3.05-.66-4.58-.82-1.73-.22-3.44-.34-5.16-.31-1.72,0-3.43-.06-5.15,0-1.22,0-2.36,0-3.45,0-1.09.04-2.14.09-3.19.13-1.38.02-2.77.12-4.24.25-.19-.53-.37-1.05-.56-1.58.56-.45,1.12-.9,1.7-1.41.72-.62,1.45-1.27,2.14-2.04.32-.34.73-.86,1.03-1.35.3-.49.54-.97.76-1.46.03-.08.06-.16.09-.24.07,0,.13,0,.2,0,1.69-.13,3.39-.06,5.08-.04ZM32.59,5.8c.43-.34.85-.68,1.33-.93.19-.08.05-.05.09-.08,0-.02.01-.04.03-.07.03-.05.1-.11.18-.13.08-.02.17,0,.24.07.03.03.06.07.09.12l.04.09s.02.2.03.3c.05.56-.03,1.24-.21,1.92-.98.06-1.98.14-3.02.24.29-.58.68-1.09,1.2-1.53ZM17.04,13.02c2.46-.63,4.9-1.36,7.25-1.78.81-.17,1.58-.34,2.36-.51.07.36.15.73.24,1.08.32,1.16.71,2.21,1.12,3.22-.12.11-.22.2-.35.32-.78.68-1.73,1.63-2.67,2.73-.22.27-.44.55-.66.85-1.71.36-3.57.81-5.46,1.34-1.37.42-2.75.88-4.09,1.37-.23-.38-.47-.75-.68-1.14-.38-.67-.25-1.51-.56-2.21-.36-.81-.71-1.34-.71-2.29,0-.36-.37-.92-.69-1.45,1.6-.54,3.24-1.08,4.91-1.55ZM5.04,21.94c-.45-.77-.86-1.25-.97-2.2-.04-.4-.57-.98-.96-1.5.22-.13.44-.25.64-.35,1.57-.76,3.41-1.46,5.35-2.24.45,1.06,1.43,3.1,1.56,3.46.21.6.21,1.24.4,1.84.18.59.41,1.17.57,1.77.01.05,0,.1,0,.15-1.87.78-3.55,1.58-4.9,2.34-.3-.38-.61-.76-.89-1.15-.45-.62-.43-1.48-.81-2.13ZM9.94,31.89c-.72-1.41-1.43-2.82-2.1-4.26,0-.02,0-.04-.01-.06.18-.1.35-.2.51-.28,1.33-.65,2.9-1.23,4.54-1.88.06.19.11.39.18.57.45,1.24,1.11,2.48,1.37,3.8.1.53-.03,1.1.04,1.64.06.46.51.74.86,1.25-1.57.67-2.99,1.35-4.1,2.01-.43-.93-.82-1.88-1.28-2.79ZM14.01,40.83c-.36-.76-.37-1.65-.54-2.47-.06-.31-.68-.89-.88-1.17-.05-.07-.08-.15-.13-.22.16-.1.32-.19.46-.26,1.13-.55,2.49-1.03,3.89-1.59.71.94,1.49,4.85,1.76,5.53.28.79.57.97.87,1.65-1.37.58-2.59,1.17-3.54,1.75-.05-.15-.12-.31-.22-.54-.2-.43-.31-.92-.53-1.34-.53-1.04-.66-.28-1.15-1.33ZM20.45,53.48c-.07.05-.13.08-.17.12-.53-1.23-1.19-2.71-1.88-3.61-.28-.36-.26-.91-.46-1.33-.28-.56-.55-1.12-.77-1.71-.07-.18-.16-.34-.24-.5.19-.13.4-.26.57-.34.88-.43,1.95-.81,3.04-1.23.25.37.51.73.69,1.13.42.89.6,1.58.9,2.52.2.65.76,2.18,1.3,3.44-1.17.5-2.21,1.01-2.99,1.52ZM27.87,50.36c-.98.3-1.96.64-2.9.99-.37-1.25-.84-2.71-1.41-3.65-.24-.39-.15-.93-.3-1.37-.21-.59-.41-1.18-.56-1.78-.03-.13-.09-.26-.13-.39,1.02-.33,2.05-.66,3.12-.97.03.05.09.13.12.17,1.57,1.96,2.69,2.94,3.75,3.63,1.06.63,2.17,1.39,3.82,1.79.49.1.98.18,1.47.22-1.51.13-4.21.61-6.98,1.36ZM36.7,48.85s.02,0,.02,0c.96-.3,1.94-.77,2.82-1.65.01.03.02.06.03.09.15.48.29.95.44,1.43-.28.01-.56.02-.83.03-.81-.01-1.63.04-2.48.1ZM49.77,48.68c-1.08-.12-2.15-.17-3.24-.1-1.08.04-2.14.02-3.22.09-.28,0-.53,0-.8,0-.08-.37-.16-.74-.24-1.11-.24-1.1-.36-2.27-.64-3.3.32-.58.62-1.18.89-1.79.22-.51.41-1.01.61-1.52l1.6.04,1.65.19c2.39.23,4.71.45,7.06.93.38.09.71.17,1.01.25-.03.04-.07.09-.1.13-.42.58-1.05.78-1.44,1.49-.45.84-.64,1.47-1.17,2.43-.15.3-.25.93-.26,1.57,0,.33.02.66.04.96-.57-.12-1.15-.21-1.74-.26ZM175.1,60.82c-2.48,1.45-4.92,2.62-7.4,4.02l-7.49,4.27c-.99.55-2.13.96-3.11,1.55-1.09.67-2.17,1.33-3.25,1.99-1.55.91-2.97,1.68-4.49,2.43-3.24,1.57-6.61,2.8-10.01,3.86-9,2.81-19.25,3.82-28.31,1.43-3.66-.87-6.73-2.32-10.05-3.88-4.07-1.99-8.47-3.16-15.24-8.32-2.13-1.62-2.76-2.09-3.84-2.76-.97-.61-1.94-1.18-3.3-2.1l-.15-.08c-1.63-.84-6.14-4.69-9.28-6.94-3.01-2.35-6.67-4.1-7.74-4.63-.59-.23-1.08-.4-1.52-.54.52-.62.1-.75.77-1.47.51-.58,1.25-.94,1.93-1.82.26-.34.44-1.47.47-1.95,0-.01,0-.02,0-.03.08-.15.16-.3.24-.47.21.08.41.18.62.25,3.65,1.63,2.06.08,5.59,2,2.56,1.42,4.41,3.23,6.84,5.36.84.73,3.77,2.54,5.05,3.46,2.73,2.01,5.47,4.03,8.21,6.05,6.74,4.87,14.12,9.06,22.24,10.86-.02.23-.02.47,0,.73.1.69.37,1.38.53,1.83,1.01.24,1.88.04,2.56-.19,0,0,0,0,0,0,0,0,.01.01.02.02-.5.13-1.15.26-1.34.47-.08.1.26.28.34.42.43.8,1.47,1.72,2.73,2.22,1.24.52,2.61.52,3.52.27.55-.16,1.26.24,1.88.14.82-.12,1.59-.31,2.4-.49.88-.22,1.54-.68,2.29-1.06.92-.48,1.18-.43,1.99-1.06.46-.36,1.07-.68,1.44-1.16.81-1.13-.23-.87.36-1.87,3.71-.68,7.36-1.75,10.89-3.13,2.04-.77,4.23-1.3,6.13-2.27,1.4-.7,3.14-1.67,4.15-2.27,1.16-.68,2.26-1.36,3.34-2.04,2.03-1.31,4.05-2.62,6.08-3.93,2.91-1.87,6.04-3.27,9-5.08,3.44-2.11,5.79-3.67,9.45-5.48.66-.33,1.59-.89,2.62-1.54.09.1.19.18.27.29.57.81.81,1.48,1.22,2.39.32.72,1.24,2.54,2.07,3.74-4.43,2.69-9.62,5.85-10.76,6.51ZM187.93,53.05c-.59-1.28-1.38-2.96-2.3-3.86-.33-.32-.25-.93-.48-1.33-.25-.44-.48-.89-.69-1.35,1.73-1.13,3.48-2.29,4.7-2.98.03-.05.04-.09.07-.14.18.17.36.35.51.55.57.81.81,1.48,1.22,2.39.32.73,1.26,2.59,2.1,3.78-.22.08-.46.18-.7.31-.59.33-2.3,1.35-4.43,2.64Z"/></g></svg>