<?xml version="1.0" encoding="UTF-8"?><svg id="Layer_2" xmlns="http://www.w3.org/2000/svg" viewBox="0 0 218.66 76.95"><defs><style>.cls-1{fill:#ccf6ff;}</style></defs><g id="Layer_1_copy"><path class="cls-1" d="M217.82,31.51c.18-.47.46-1.07.44-1.39,0-.13-.27,0-.38-.07-1.19-.65-3.09-1.74-4.55-1.66-.45.02-.71-.63-1.12-.78-.55-.2-1.1-.42-1.61-.72-.56-.33-1.2-.37-1.78-.65-.7-.34-.73-.54-1.45-.82-.42-.16-.79-.49-1.22-.62-1.05-.32-.73.52-1.75.12-.73-.29-1.25-1.07-1.88-1.58-.23-.19-1.09-.04-1.42-.08-.64-.07-1.26-.24-1.86-.44-1.17-.39-2.28-.93-3.45-1.3-1.42-.45-2.84-.91-4.24-1.42-.3-.11-.48-.58-.79-.64-.96-.19-1.96-.24-2.92-.4-.72-.13-1.27-.67-1.97-.86-.81-.21-1.4-.29-2.12-.79-.42-.29-1.71-.31-2.26-.54-.4.39-.64.84-.75,1.24-.6-.12-1.28.45-1.68,1.38-.36.81-1.77,4.27-3.43,6.54-1.63,2.38-3.25,3.58-3.71,3.81-.3.19-.61.34-.93.48l-.23-.43c-.12-.25-.09-.57-.24-.8-.45-.7-.93-1.38-1.35-2.1-.31-.53-.49-1.12-.79-1.66-.35-.63-.6-1.06-.89-1.72-.21-.38-.7-1.29-.95-1.75-.24-.32-.33-.17-.18.24.14.36,1.15,2.97,1.29,3.33.18.48.29.96.44,1.44l.47,1.43c.05.18.04.39.11.55.15.34.37.65.52.99.13.31.22.64.32.96-.44.12-.9.23-1.4.34-1.46.33-3.3.5-5.37.43-.74,0-1.58-.27-2.35-.27-1.7-.04-3.52-.04-5.43-.32-2.06-.33-4.14-.85-6.31-1.43-1.55-.4-3.16-.84-4.81-1.31.08-.28.15-.57.25-.85.61-1.79.83-1.98,1.38-3.8.32-1.06.79-2.08,1.09-3.14.72-2.6-.25-1.41.54-3.98l.22-.68.29-.85c.21-.58.43-1.16.65-1.76-.65-.57-1.33-1.17-2.01-1.76-.23-.19-.26-.25-.37-.36l-.29-.3-.58-.58c-.45-.44-2.09-1.08-2.77-1.46-1.26-.7-2.55-1.55-3.79-2.41-1.07-.77-2.17-1.55-3.26-2.34l-2.52-1.8-3.17-2.2-.62,1.74-2.42,6.92-1.86,5.17c-.27.74-1,1.34-1.21,2.07-.4,1.43-.74,2.87-1.08,4.31-2.88-1.04-6.1-1.48-11.5-3.58-3.47-1.32-4.67-1.34-8.34-2.25l-.2-.03c-2.01-.31-8.94-2.52-16.54-4.24-7.51-1.81-15.98-2.62-18.59-2.61-5.98-.05-7.49.34-13.73,1.27-4.28.73-8.72,1.73-12.85,3.55-4.66,2.01-8.87,4.79-12.79,7.82-1.84,1.45-3.45,2.8-4.93,4.16-.19-.4-.42-.78-.65-1.15l-.45-.58c-.2-.21-.49-.46-.73-.69-.26-.22-.59-.36-.89-.55-.31-.15-.68-.22-1.04-.3-.76-.02-1.59,0-2.47.48-1.76.8-3.08,2.76-4.08,4.43-1.4,2.76-1.71,5.58-.9,7.76.31.75.72,1.35,1.15,1.88-.6.85-1.25,1.79-1.96,2.82-1.41,2.24-3.04,4.86-4.4,7.57-2.85,5.42-5.11,11.19-6.28,14.97-.45,1.45.15.3.61,1.83.11-.04.21,0,.32.09-.26.75-.3,1.38-.05,1.5.41.2,3.58,1.01,4.01,1.18.56.21,1,.63,1.54.88.53.24,1.08.43,1.61.69.19.1.33.37.53.4.44.06.94-.05,1.37.05.46.1.87.35,1.31.52,1.17.44,2.47.71,3.55,1.38.43.27.73.78,1.14,1.09.51.38,1.36-.27,2.32.37.56.37.87.08,1.55.08l.04-.02c.86-.36,4.54,1.98,5.23,2.25.8.32,1.1.09,1.9.39.55.21,1.06.55,1.63.68.64.14,1.37.03,2,.18.9.22,1.5.55,2.34.95.81.39,3.26,1.36,4.55,1.53.25.03.11-.19.57-.89.02-.1.07-.23.13-.37.31.18.64.58,1.01.12.15-.19.31-1.08.51-1.61,2.09-5.64,6.26-13.02,8.58-16.28.34-.6.84-1.01,1.32-1.42.48-.46.98-.78,1.4-1.16.13-.13.26-.22.4-.34l.98.7c.41.31.81.65,1.19,1,1.14,1.05,2.13,2.29,2.85,3.35.72,1.03,1.27,2.13,1.5,2.79.07.2.1.35.1.47v.08s-.03.04-.05.07l-.07.18c-.03.15-.1.19-.21.25-.11.06-.25.09-.41.1-.16.01-.34,0-.5-.03-.1,0-.37-.07-.65-.15-.56-.16-1.27-.44-2.14-.79-.15-.08-.14-.08-.25-.11-.13-.02-.17-.11-.18-.2v-.08s-.02-.01,0-.06l.06-.21c.08-.28.16-.56.23-.83.17-.46.32-.9.41-1.34-.23-.64-.47-1.13-.91-1.68-.2-.25-.47-.45-.55-.43-.1,0-.12.08-.2.09-.17.02-.37-.06-.52.05-.16.09-.32.27-.43.53-.06.13-.16.36-.3.67-.14.35-.31.8-.52,1.31-.28.61-.67,1.78-.25,2.65.05.12.12.24.25.37.13.12.26.18.4.26.28.16.59.31.95.44.72.25,1.49.47,2.23.66l.88.23.75.19c.5.1,1,.29,1.46.4.23.05.45.11.67.16.25.05.44.06.62.06.34.01.59-.08.8-.07.21-.02.36-.07.48-.14.13-.07.15-.22.19-.32.04-.11.08-.14.09-.22,0-.08-.01-.17-.02-.23-.14-.72-.68-1.65-1.36-2.88-.69-1.25-1.55-2.67-2.55-4.12-.98-1.42-2.05-2.75-3.18-3.89-.17-.17-.32-.3-.47-.45.53-.38,1.06-.7,1.6-.97,1.22-.65,2.32-1.27,3.76-1.63,1.19-.29,1.7-.34,2.55-.41,0,.24-.02.48-.05.76-.02.31.1.89.28,1.48.19.59.41,1.15.55,1.52.32-.04.52-.41.72-.72,0,0,0,0,0,0,0,0,0,0,0,.01-.15.21-.33.43-.33.69,0,.11.12.19.17.31.26.65.73,1.35,1.15,1.61.4.27.86.25,1.16-.05.18-.18.45.19.65.08.28-.14.6-.28.92-.4.35-.15.62-.55.95-.84.43-.32.55-.23.96-.7.24-.28.55-.46.78-.83.54-.92-.05-.84.45-1.73.29-.53.78-.96,1.19-1.62.45,0,1.1.05,2.12.18.34.05.68.13,1.02.2-.14.29-.29.6-.5.95-.16.28-.22.88-.2,1.49.04.63.16,1.23.23,1.63.54.08,1.06-.14,1.48-.37,0,0,0,.01,0,.02,0,0,0,.01,0,.02-.3.14-.68.28-.81.49-.05.1.13.24.17.38.19.73.68,1.54,1.29,1.97.61.45,1.36.61,1.91.42.34-.11.64.35,1,.33.48-.02.98-.05,1.46-.07.54-.03,1.02-.33,1.55-.49.66-.19.79-.07,1.44-.41.38-.2.82-.29,1.18-.59.86-.75.07-.84.87-1.59.33-.33.78-.58,1.24-.9.9.18,1.75.35,2.33.5,2.94.75,5.96,1.67,9.03,2.69,6,2,12.14,4.38,18.76,6.66,4.67,1.6,9.55,3.22,14.72,4.75,0,0,0,0,0,0-.26.24-.41.82-.4,1.45.02.65.19,1.31.29,1.74.88.27,1.69.19,2.36.05,0,0,0,0,0,0,0,0,.01.02.01.02-.48.07-1.1.11-1.3.29-.08.08.2.28.26.43.29.8,1.11,1.76,2.16,2.38,1.02.64,2.26.93,3.15.84.54-.05,1.1.5,1.68.54.77.04,1.59.08,2.36.12.88.04,1.59-.21,2.41-.34,1.02-.16,1.26-.03,2.22-.35.55-.19,1.23-.27,1.72-.56,1.17-.76-.1-.85.97-1.62.12-.1.27-.18.42-.27,6.9.93,14.53,1.34,23.38-.07,6.51-1.04,13.77-2.83,20.37-6.76,3.77-2.31,6.74-4.62,9.36-7.08,2.64-2.46,5.05-5.06,7.47-8.12,1.48-1.8,3.53-5.07,5.19-8.4,1.7-3.34,2.94-6.65,3.85-8.82.04-1.91-.32-2.66-.84-2.66ZM204.64,29.09c.77.38,1.12.08,1.9.43.13.06.24.14.36.21-.14.26-.28.55-.42.86-.35.78-1.26,3.05-2.72,5.9-.2-.2-.37-.38-.77-.61-.39-.23-.7-.62-1.1-.81-.99-.48-.81.44-1.75-.12-.68-.4-1.07-1.28-1.62-1.9-.11-.13-.43-.17-.74-.2,1.02-2.17,1.84-4.34,2.47-5.81-.01-.21-.05-.35-.07-.52,1.34.37,3.92,2.27,4.45,2.57ZM66.72,37.12c-3.81-.06-4.69.33-8.17.83-2.35.39-4.67.82-6.71,1.77-2.11.96-3.92,2.28-5.72,3.69-.07-.23-.13-.45-.2-.68-.34-1.2-.75-2.39-1.25-3.49-.43-.93-.93-1.76-1.45-2.54.37-.23.73-.46,1.11-.67,2.62-1.5,5.25-2.8,8.19-3.62,3.56-.93,4.07-.87,7.79-1.32,2.18-.26,4.42-.14,6.65-.12.92.04,1.59.05,2.12.04.03.69.07,1.38.1,2.07.03,1.41-.33,2.78-.43,4.18-.9-.08-1.6-.13-2.03-.13ZM31,63.13c-.1-.06-.21-.13-.37-.2-.41-.2-.75-.52-1.17-.7-1-.44-.71.3-1.69-.19-.71-.35-1.2-1.09-1.79-1.63-.22-.2-1.05-.2-1.37-.28-.03,0-.05-.02-.08-.03.37-.76.75-1.52,1.15-2.29.41.29.82.56,1.26.78.36.19.7.4,1.05.56.36.15.72.3,1.07.45,1.16.47,2.23.73,3.19.91-.44.87-.86,1.74-1.26,2.62ZM19.44,31.14s0,.02,0,.03c-.03.59-.05,1.11-.08,1.65-.02.5-.04,1.03-.1,1.62-.24-.14-.51-.27-.74-.43-.33-.23-.59-.51-.85-.77.5-.72,1.11-1.41,1.76-2.09ZM24.08,41.21c.88.33,1.76.65,2.64.98-.4,1.3-.6,2.71-.55,4.14.03.74.13,1.49.37,2.23.08.36.32.75.48,1.11,0,.01.02.02.02.04-.61.95-1.24,1.98-1.85,3.07-.31-.42-.61-.86-.86-1.31-.86-1.56-1.44-3.29-1.74-5.12-.07-.52-.25-1.36-.39-2.33.63-.99,1.26-1.93,1.88-2.81ZM124.44,25.47l.14-.37c1.44.52,2.9,1.06,4.33,1.55,3.67,1.26,7.29,2.48,10.84,3.57-.13.88-.26,1.75-.49,2.61-.4,1.5-.82,2.7-1.31,3.98-3.68-1.13-7.38-2.38-10.91-3.77-1.71-.67-3.28-1.42-4.88-2.15.24-.71.42-1.26.51-1.49.51-1.37,1.22-2.57,1.77-3.92ZM187.56,31.18c.98.62,2.07,1.16,2.9,1.98.36.36.54.94.86,1.35.35.46,1.16.18,1.88.69-.49.8-1,1.6-1.57,2.39-1.54,2.29-3.5,4.33-5.16,5.9-1.73,1.51-3.17,2.55-3.78,2.9-1.12.72-2.28,1.3-3.45,1.82-.04-.04-.07-.1-.12-.13-.31-.25,0-.85-.16-1.18-.21-.46-.41-.92-.54-1.42-.13-.55-.51-.95-.69-1.47-.22-.63-.11-.78-.39-1.39-.16-.35-.19-.77-.38-1.11,0,0,0,0-.01-.02.29-.15.6-.27.88-.44,3.31-2.13,5.24-4.12,7.95-7.22.51-.57,1.14-1.52,1.77-2.64ZM173.39,43.08c.17.72.58.78.78,1.49.14.48.11,1.02.34,1.47.26.52.86.87,1.12,1.37.35.66.4,1.25.49,1.98-.32.1-.63.21-.95.3-.73,0-1.45.08-2.09.24-.95.19-1.82.47-2.66.84-.03.01-.05.02-.08.04-2.54.41-5.1.56-7.6.51-1.25,0-2.48-.28-3.65-.31-1.44-.05-2.86-.12-4.28-.23.03-.18.08-.36.1-.54.15-1.27.3-2.54.52-3.8.05-.27.55-.48.54-.76-.02-.42-.09-.85-.15-1.28,4.25.4,8.44.37,12.37-.35,1.76-.31,3.51-.65,5.19-1.14,0,.05.02.13.02.16ZM151.99,45.21c-.01.41-.2.78-.3,1.17-.25,1.04-.26,2.19-.79,3.17-.13.24-.36.44-.59.64-2.17-.41-4.31-.91-6.42-1.47-1.9-.49-3.82-1.01-5.73-1.56,0-.2,0-.4-.03-.58.69-2,1.36-4.16,1.78-6.04,2.93.85,5.86,1.66,8.79,2.32,1.08.26,2.15.63,3.21.93-.06.07-.12.15-.12.23.01.39.22.8.21,1.18ZM119.42,39.11c.11-.26.36-.98.67-1.91.15-.11.31-.21.45-.35.27-.27.29-1.21.25-1.74.09-.26.17-.52.26-.79,1.55.56,3.09,1.13,4.64,1.66,3.73,1.28,7.46,2.54,11.19,3.69-.23.63-.5,1.41-.79,2.25-.7-.66-1.49-1.15-2.29-1.43-1.68-.59-3.33-.67-4.94-.57-.34.01-.78-.38-1.12-.28-1.03.34-1.91.95-2.75,1.54-.55.4-1.34.46-1.94.88-1.74-.72-3.35-1.5-5.02-2.26.62.09,1.17-.16,1.38-.68ZM105.69,30.65c-.69.68-.99,1.24-1.84,2-.25.24-.41.81-.45,1.44-.01.3.01.59.04.87-2.47-.86-3.71-.95-6.69-1.67l-.18-.02c-.7-.1-2.03-.45-3.74-.91.18-.68.35-1.37.59-2.04.55-1.61.79-1.78,1.29-3.41.11-.35.25-.7.39-1.04.55.12,1.06.24,1.44.34,3.39.88,6.77,1.91,10.09,3.02.4.14.8.29,1.2.42-.6.43-1.52.46-2.13,1.02ZM72.95,27.82c-.03-.41-.06-.82-.04-1.23.04-1.04.27-2.06.4-3.09.08-.82.17-1.66.25-2.5.65.04,1.54.12,2.88.28,4.49.63,8.56,1.96,12.65,3.22.41.12,1.01.27,1.71.43-.07.62-.13,1.23-.4,2.18-.36,1.25-.89,2.46-1.14,3.72-.03.17-.04.35-.06.53-2.24-.61-4.76-1.28-7.3-1.86-3.13-.76-6.28-1.3-8.93-1.67ZM92.07,20.7l-.12.16s-.03,0-.06.1l-.11.29c-.08.2-.13.35-.2.53-2.36-.64-5.03-1.34-7.77-1.96-3.41-.83-6.94-1.42-9.93-1.81.03-.27.07-.55.09-.58.06-.26.14-.48.25-.61h0c.27.09.54.25.68.41.07.08.12.16.14.23-.05.03.15.08.29.12l.45.13c1.5.45,3.15-.36,5.86.48,1.58.46,2.13.18,3.77.27l.09-.02c.57-.11,1.89.14,3.5.59.81.22,1.68.47,2.56.77.35.15.62.3.79.42-.11.19-.2.35-.29.47ZM69.41,24.56c-.05.71-.57,1.41-.55,2.09.01.24.02.48.04.71-.87-.07-1.58-.11-2.03-.11-4.53-.06-5.62.33-10.02.97-2.99.51-6.02,1.12-8.76,2.36-2.35,1.04-4.48,2.4-6.52,3.89-.26-.31-.51-.62-.83-.9-.94-.85-2.26-1.61-4.02-1.69-.85-.05-1.89.17-3,.68-1.13.48-2.18,1.39-3.06,2.38-.95,1.08-1.79,2.33-2.49,3.68-.33-.15-.65-.3-.98-.45-.2-.09-.39-.18-.59-.26.41-.44.85-.88,1.29-1.3.92-.94,1.94-1.8,2.89-2.69,2.52-2.44,5.38-4.61,8.44-6.34,3.32-1.93,6.72-3.56,10.41-4.61,4.46-1.18,5.09-1.14,9.61-1.69,2.65-.31,5.29-.2,7.89-.18,1.08.05,1.87.06,2.49.05l-.2,3.41ZM41.55,38.97c.79,1.1,1.34,2.28,1.76,3.55.2.62.39,1.3.58,1.97.06.21.1.4.16.61-.46.39-.9.79-1.33,1.18-.16-.09-.32-.18-.48-.28-2.01-1.18-4.07-2.47-6.16-3.58.51-.46,1.02-.91,1.51-1.36,1.07-1.04,2.21-2,3.4-2.88.19.27.39.55.57.8ZM33.47,56.88c-.39-.07-.7-.1-.96-.13-.52-.02-.8-.08-1.09-.07-.29-.03-.61.02-1.11-.16-.25-.09-.56-.2-.96-.34-.38-.17-.83-.44-1.38-.75-.26-.17-.49-.36-.74-.55.53-.96,1.06-1.9,1.6-2.82.49.48,1.06.91,1.73,1.25.65.35,1.46.53,2.2.57.76,0,1.4-.19,1.96-.4.8-.37.75-.5.67-.66-.11-.17-.23-.43-.19-1.18-.22-.05-.32-.36-.5-.59-.2-.21-.37-.41-.67-.35-.17.04-.69.52-1.1.48-.5,0-1.06-.23-1.63-.78-.29-.28-.57-.63-.83-1.02.88-1.38,1.74-2.67,2.55-3.75.15-.23.34-.44.52-.65,1.34.58,2.68,1.16,4.01,1.81,1,.49,1.94,1.14,2.88,1.73-.71.76-1.42,1.56-2.2,2.49-.94,1.11-2.5,3.25-4.07,5.93-.26-.02-.49-.04-.7-.06ZM29.78,43.4c.5.2,1,.4,1.5.6-.29.35-.58.66-.88,1.03-.29.34-.62.78-.99,1.26-.03-.91.11-1.89.37-2.89ZM33.75,41.26c-.87-.43-1.74-.87-2.64-1.29.59-1.15,1.28-2.24,2.08-3.13,1.25-1.57,2.88-2.14,4.21-1.91.74.1,1.42.59,2,1.21-2.17,1.73-3.93,3.33-5.64,5.12ZM21.36,53.44c.61.94,1.35,1.75,2.14,2.51-.52,1.03-1.02,2.07-1.49,3.11-.82-.42-1.63-.86-2.47-1.24-1.33-.59-2.66-1.18-3.97-1.83,1.12-2.31,2.34-4.67,3.64-6.96.49,1.54,1.18,3.05,2.15,4.41ZM40.75,51.78c.46-.75,1.1-1.33,1.74-1.91.05-.05.1-.09.15-.13.79.4,1.59.79,2.36,1.21-.04.79-.16,1.54-.53,2.18-.59,1.05-1.12,1.55-1.71,1.94-.62.37-1.18.86-2.52,1.35-.79.26-1.66.45-2.53.56-.1.01-.22,0-.32.01,1.19-2.02,2.35-3.84,3.36-5.22ZM72.13,34.72l.53-3.83s.02-.05.02-.08c.57.03,1.34.11,2.45.24,4.02.57,7.76,1.82,11.58,3.02.47.15,1.22.32,2.07.5-.03.19-.03.38-.07.57-.43,2-.96,3.39-1.62,5.34-.04.13-.1.32-.16.48-2.16-.59-4.58-1.24-6.99-1.8-3.02-.74-5.96-1.25-8.35-1.58.17-.96.39-1.89.53-2.87ZM89.92,40.73c.11-.94.83-1.78,1.1-2.7.27-.94.58-1.87.9-2.79.71.15,1.36.29,1.83.42,3.24.84,6.5,1.83,9.74,2.91,5.72,1.91,11.4,4.07,17.2,6.1-.09.26-.15.56-.18.89-.03.64.07,1.29.12,1.72.77.28,1.49.2,2.08.09,0,0,0,0,0,0,0,0,0,.02,0,.02-.42.06-.96.09-1.16.27-.08.08.16.28.19.43.18.79.79,1.76,1.63,2.38.84.64,1.82.96,2.58.9.46-.03.86.52,1.35.57.63.07,1.28.13,1.91.2.7.07,1.33-.15,2.01-.23.83-.11,1,.03,1.81-.23.47-.16,1.01-.19,1.45-.46.2-.13.31-.23.39-.33.04.03.06.03.09.06.44.01,1.17.63,1.6.34.14-.09.1-.62.21-.92.05-.13.1-.28.15-.42,3.16.93,6.36,1.8,9.65,2.55,1.14.27,2.28.65,3.42.97.08.15.17.31.23.52l.04.04c.69.73-1.34,4.06-1.54,4.67-.17.54.03.83.05,1.25-2.49-.46-4.93-1.03-7.28-1.65-7.27-1.86-14.49-4.11-20.91-6.62-2.59-1.01-4.78-2.18-7.26-3.22-3.08-1.28-6.38-1.58-11.89-3.74-3.2-1.23-4.3-1.22-7.56-2l-.18-.02c-.72-.1-2.15-.47-3.94-.97.06-.35.12-.69.16-1.01ZM153.27,58.02c.14-.66.88-1.2,1.3-1.81.16-.22-.23-.93-.28-1.22-.04-.28-.06-.56-.05-.83,3.41.35,6.89.49,10.44.24-.04.06-.09.11-.13.17-.46.62-1.44.93-1.9,1.66-.51.86-.65,1.49-1.36,2.47-.2.3-.2.9-.01,1.5.11.32.26.63.42.92-1.13-.08-2.23-.23-3.29-.27-1.69-.07-3.32-.17-4.93-.3.09-.36.33-.69.36-1.06.1-.94-.77-.56-.58-1.48ZM180.76,56.08c.33-.84,1.22-1.85,1.33-3.06.04-.45-.88-1.18-1.3-1.45,0,0-.02-.01-.03-.02-.06-.26-.13-.52-.21-.81.77-.36,1.53-.74,2.27-1.19,4.71-2.97,7.44-5.8,10.91-9.88.67-.78,1.51-2.06,2.35-3.52,1.27.84,3.03,2.79,3.46,3.16.68.52,1.09.26,1.8.76.1.07.2.17.29.25-.61,1-1.26,2.02-1.99,3.04-1.91,2.82-4.42,5.47-6.59,7.49-2.25,1.98-4.16,3.33-4.97,3.8-2.45,1.58-5.02,2.75-7.62,3.68.1-.12.22-.23.3-.35.67-1.28-.54-.68.01-1.9ZM194.59,24.73c.43.29.69.82,1.08,1.16.43.38,1.2-.03,2.01.35-.11.21-.22.42-.33.65-.3.67-1.08,2.61-2.29,4.97-.97-.53-1.89-1.15-2.88-1.64-1.09-.55-2.17-1.11-3.25-1.69.86-1.84,1.57-3.77,2.13-5.06-.01-.13-.04-.22-.06-.34.04.02.07.04.11.05,1.15.5,2.43.82,3.49,1.54ZM181.86,19.91c-.03-.2-.09-.34-.13-.51,1.08.37,2.78.92,3.09,1.05.55.23,1.01.62,1.54.88.53.25,1.07.47,1.59.74.19.1.33.35.53.4.03,0,.07,0,.1.01-.13.21-.26.45-.37.72-.24.54-.86,2.06-1.77,3.87-.58-.17-1.15-.33-1.72-.53-.68-.24-1.16-.85-1.82-1.15-.76-.34-1.33-.51-1.97-1.11-.14-.13-.42-.24-.73-.36.65-1.42,1.2-2.99,1.66-4.02ZM172.86,32.52c1.91-1.29,3.03-2.45,4.99-4.56.39-.4.87-1.15,1.37-2.06.96.54,2.14,1.18,2.38,1.33.5.32.89.76,1.37,1.11.47.34.97.65,1.43,1,.17.13.27.39.46.48.02,0,.04,0,.05.02-.4.67-.83,1.34-1.29,1.98-2.36,3.49-5.48,5.87-6.33,6.3-.55.35-1.11.65-1.68.93,0-.2-.02-.41-.05-.6-.04-.25-.63-.68-.8-.9-.34-.43-.61-.9-.86-1.39-.48-.94-.87-1.92-1.37-2.85l-.26-.5c.19-.1.4-.17.58-.28ZM150.81,33.23c1.51.36,2.92,1.01,4.34,1.21,4.36.57,8.43.51,11.62-.15,1.33-.26,2.54-.47,3.65-.78.06.2.14.4.17.6.09.44-.06.86-.04,1.3.01.54.8.84.9,1.8.04.56.39.65.73,1.09l.03.02c.3.14.53.89.71,1.75-.78.24-1.58.47-2.41.66-2.43.57-5.06.8-7.78.72-1,0-2.03-.27-3-.29-1.19-.04-2.4-.08-3.62-.16,0-.55.01-1,.35-1.56.24-.39-.1-1.5.01-2-1.3-.65-2.76-.67-2.9-.32-.13.37-.39,3.17-.48,3.55,0,0,0,0,0,.02-2.28-.38-4.54-.93-6.84-1.54-1.83-.47-3.7-.99-5.59-1.53.27-.54.57-1.07.73-1.63.41-1.38.84-2.77,1.34-4.12.09-.23.14-.47.22-.71,2.65.77,5.28,1.48,7.83,2.06ZM126.74,20.07c.28-1.05.36-2.14.67-3.18.33-1.11.82-2.16,1.23-3.24.51-1.45,1.03-2.93,1.56-4.41.27-.74.55-1.47.82-2.2.09-.23.11-.25.14-.32l.1-.18c.07-.11.14-.2.2-.27.07-.07.16-.08.23-.02.26.4.35.74.32.87,0,.03,0,.04,0,.04h0s.15.06.21.09c.36.18.76.35,1.19.53.86.38,1.8.83,2.85,1.76,1.21,1.07,1.81.98,3.23,1.67l.09.02c.49.1,1.38.65,2.48,1.45.52.39,1.11.83,1.73,1.3l.45.35.16.16c.1.11.19.21.27.3l-.19.35-.09.14-.04.07s0,.01-.02.04l-.05.11c-.24.6-.47,1.17-.68,1.68-.4,1.03-.72,1.83-.87,2.22-.69,2-.5,2.59-1.16,4.6-.36,1.09-.8,2.16-1.15,3.25-3.38-1.05-6.82-2.22-10.16-3.54-1.52-.6-2.95-1.26-4.38-1.93l.12-.3c.2-.49.6-.91.73-1.4ZM34.1,19.13c4.03-2.36,8.18-4.32,12.62-5.6,5.36-1.44,6.12-1.41,11.44-2.07,3.12-.36,6.16-.26,9.13-.23,7.16.3,3.49-.54,10.44.26,4.95.69,9.36,2.1,13.72,3.43,1.62.49,6.01,1.31,7.85,1.8,3.54.92,7.03,2,10.44,3.13,3.95,1.32,7.78,2.71,11.57,4.09-.5,1.27-1.2,2.46-1.61,3.77-.21.67-.39,1.27-.57,1.86-2.89-1.06-6.11-1.49-11.43-3.55-3.38-1.3-4.55-1.3-8.08-2.17l-.19-.02c-.66-.1-1.91-.42-3.49-.85.02-.33-.03-.53-.08-.72-.02-.08-.05-.16-.06-.26,0-.12,0-.31.03-.52.06-.42.18-1,.46-1.94.15-.5.31-.99.5-1.51-1.12-.43-2.27-.87-3.57-1.37l-.49-.19-.25-.1-.14-.07-.54-.26c-.36-.17-.73-.33-1.1-.48-.68-.27-2.65-.32-3.48-.43-1.63-.19-3.21-.52-4.86-.78-1.58-.29-3.16-.59-4.78-.84l-1.21-.2-1.58-.19c-1.5-.17-3-.31-4.54-.38h-.19s-.24,4.8-.24,4.8c-1.21-.1-2.19-.16-2.79-.16-5.25-.05-6.56.34-11.88,1.12-3.63.62-7.37,1.43-10.8,2.95-3.88,1.69-7.34,4.04-10.62,6.58-3.82,3.01-6.52,5.58-9.37,8.87-.49-.22-.98-.44-1.47-.66.17-.78.34-1.56.55-2.38.23-1.03.42-2.12.52-3.24.06-.51.12-1.2.09-1.79-.02-.6-.1-1.13-.2-1.66-.02-.08-.05-.16-.07-.24.06-.06.12-.11.18-.17,2.99-2.89,6.44-5.52,10.14-7.64ZM16.48,28.88c.16-.6.34-1.18.59-1.78.12-.22,0-.08.02-.14,0-.02-.02-.04-.02-.08,0-.06.01-.16.07-.25.06-.09.15-.15.25-.16.05,0,.1,0,.16.01l.09.03s.14.13.21.19c.39.36.74.9,1.02,1.53-.84.9-1.66,1.83-2.5,2.81-.15-.69-.11-1.4.1-2.17ZM14.77,37.35c.3.2.6.39.9.56,1,.53,1.99.94,2.97,1.3-.02.18-.04.32-.07.52-.16,1.13-.31,2.56-.3,4.12.02.35.08.72.11,1.08-1.07,1.7-2.17,3.59-3.18,5.57-.75,1.42-1.45,2.87-2.1,4.31-.41-.08-.82-.15-1.22-.25-.71-.17-1.17-.86-1.85-1.11-.79-.29-1.39-.38-2.01-1.05-.23-.26-.87-.35-1.44-.47,2.36-4.9,5.24-10.13,8.19-14.57ZM8.24,63.59c-.72-.11-1.24-.76-1.94-.95-.81-.22-1.41-.27-2.09-.88-.28-.26-1.03-.29-1.63-.38.08-.25.15-.5.23-.72.61-1.68,1.41-3.61,2.32-5.62,1.01.39,3.04,1.09,3.37,1.24.54.26.96.71,1.48,1,.51.28,1.05.51,1.56.81.04.02.07.07.1.1-.84,2.05-1.52,3.96-2.03,5.56-.46-.05-.92-.09-1.37-.17ZM16.14,66.23c-1.41-.49-2.82-.98-4.21-1.53-.02,0-.03-.02-.04-.03.06-.22.13-.43.2-.61.56-1.52,1.28-3.24,2.07-5.03.17.09.34.19.51.27,1.13.53,2.41.89,3.44,1.64.42.3.68.83,1.07,1.18.34.29.85.12,1.44.2-.74,1.84-1.35,3.56-1.79,5-.9-.36-1.78-.77-2.69-1.09ZM26.4,69.79c-1.04-.36-.68.37-1.7-.03-.73-.29-1.28-1-1.92-1.5-.23-.19-1.06-.11-1.39-.16-.08-.01-.15-.05-.23-.06.06-.21.13-.42.19-.6.52-1.41,1.18-2.98,1.91-4.6,1.12.07,4.2,2.33,4.83,2.62.72.35,1.05.22,1.71.48-.69,1.72-1.27,3.34-1.68,4.7-.13-.07-.28-.15-.5-.24-.42-.17-.79-.47-1.22-.61ZM32.48,72.56c-.55-.2-1.1-.42-1.62-.7-.16-.08-.33-.13-.49-.19.08-.29.16-.6.25-.84.45-1.22,1.01-2.55,1.63-3.91.43.05.85.09,1.25.22.88.29,1.45.66,2.27,1.12.56.32,1.95,1,3.15,1.46-.65,1.62-1.2,3.18-1.58,4.47-.04.12-.06.22-.07.29-1.15-.54-2.55-1.15-3.64-1.23-.43-.03-.74-.53-1.15-.68ZM39.79,67.66c-1.08-.6-2.36-1.27-3.39-1.44-.43-.07-.7-.57-1.1-.76-.53-.25-1.06-.51-1.56-.82-.11-.07-.24-.12-.35-.17.58-1.2,1.19-2.4,1.82-3.58.06,0,.15.01.2.01,2.44-.02,3.92-.38,5.23-.78,1.28-.45,2.51-.98,4.07-1.96.44-.34.86-.66,1.24-.99-1.01,1.19-2.79,3.69-4.45,6.92-.61,1.14-1.17,2.36-1.71,3.58ZM47.04,55.92c.05-.08.11-.15.16-.23.57-.76.84-1.83.92-2.95.03.02.06.03.08.05.4.24.78.51,1.18.76-.75.69-1.52,1.46-2.33,2.37ZM55.58,48.84c-1.54.73-2.75,1.79-4.09,2.87-.18.14-.34.28-.51.42l-.81-.69c-.8-.67-1.59-1.46-2.4-2.04-.13-.61-.28-1.22-.45-1.84-.15-.5-.29-1-.44-1.49.82-.6,1.67-1.15,2.53-1.61,1.92-1.08,3.79-2.03,5.98-2.62,2.66-.68,3.04-.6,5.96-.94,1.71-.21,3.55-.08,5.41-.06.8.03,1.38.04,1.84.02-.05.6-.11,1.22-.25,1.92-.06.33-.08.84-.08,1.39-.53-.33-1.09-.51-1.59-.53-1.3-.07-2.39.41-3.33,1.07-.21.12-.58-.08-.74.14-.49.7-.78,1.61-1.02,2.46-.02.05-.05.09-.06.14-.38.07-.79.14-1.28.21-1.71.28-3.32.51-4.67,1.18ZM70.72,47.41c.13-1.16.38-4.53.55-6.8.53,0,1.3.07,2.57.22,3.56.51,6.96,1.69,10.51,2.82.38.12.98.26,1.66.41-.29,1.02-.59,2.1-.86,3.16-.62-.58-1.33-.99-2.03-1.18-1.51-.4-2.96-.29-4.29.07-.29.06-.69-.25-.96-.11-.82.5-1.48,1.28-2.08,2.01-.08.1-.18.18-.27.26-1.77-.37-3.41-.66-4.8-.86ZM110.06,57.77c-3.07-1.28-6.37-1.58-11.74-3.69-3.11-1.2-4.18-1.18-7.31-1.92l-.17-.02c-.72-.1-2.14-.47-3.91-.95.01-.06.02-.12.04-.17.59-1.73,1.43-4.08,2.08-6.33.75.16,1.44.3,1.93.43,3.09.79,6.23,1.75,9.39,2.8,6.15,2.05,12.34,4.45,18.86,6.7,7.9,2.71,16.13,5.46,25.25,7.52,1.35.32,2.74.78,4.13,1.13.02.11.04.22.04.33-.03.8-.32,1.33-.65,2.08-.03.06-.06.14-.09.22-.99-.65-2.06-1.11-3.07-1.36-2.06-.47-3.94-.48-5.74-.32-.39.03-.94-.34-1.29-.24-1.1.37-2.03,1.01-2.91,1.64-.45.32-1.08.44-1.63.68-5.65-1.61-11.03-3.39-15.89-5.29-2.64-1.03-4.83-2.2-7.31-3.24ZM207.63,49.14c-2.29,3.34-5.35,6.62-8.03,9.08-2.78,2.45-5.15,4.11-6.15,4.71-5.01,3.24-10.37,5.23-15.73,6.53-5.32,1.28-10.36,1.68-15.01,1.61-1.76,0-3.38-.3-4.95-.36-2.29-.1-4.43-.26-6.55-.47-.04-.11-.08-.23-.12-.31,0-.01-.01-.02-.02-.03.42-1.1,1.01-2.66.59-3.81-.14-.39.52-.68.58-1.05.06-.38.15-.75.27-1.11,5.71.64,11.81.77,18.48-.33,5.47-.9,11.43-2.31,16.8-5.52,6.11-3.81,9.65-7.47,13.87-12.54.78-.93,1.75-2.4,2.72-4.04.12.03.25.06.36.11.85.38,1.32.9,2.01,1.55.55.51,2.06,1.7,3.32,2.27-.74,1.22-1.54,2.46-2.44,3.72ZM212.14,41.82c-1.05-.85-2.46-1.9-3.73-1.99-.46-.04-.59-.77-.97-.98-.42-.23-.82-.5-1.2-.8,1.39-2.79,2.44-5.6,3.22-7.45,0-.09-.02-.14-.02-.22.25,0,.49,0,.72.06.9.23,1.46.64,2.27,1.13.65.39,2.39,1.29,3.72,1.64-.17.32-.35.68-.51,1.08-.43.95-1.56,3.86-3.51,7.53Z"/></g></svg>