<?xml version="1.0" encoding="UTF-8"?><svg id="Layer_2" xmlns="http://www.w3.org/2000/svg" xmlns:xlink="http://www.w3.org/1999/xlink" viewBox="0 0 209.03 216.15"><defs><style>.cls-1{mask:url(#mask);}.cls-2{filter:url(#luminosity-noclip);}.cls-3{fill:#fdf4ac;}.cls-4{fill:#202020;}.cls-5{fill:#fdf5b7;}</style><filter id="luminosity-noclip" x="0" y="0" width="209.03" height="216.15" color-interpolation-filters="sRGB" filterUnits="userSpaceOnUse"><feFlood flood-color="#fff" result="bg"/><feBlend in="SourceGraphic" in2="bg"/></filter><mask id="mask" x="0" y="0" width="209.03" height="216.15" maskUnits="userSpaceOnUse"><g class="cls-2"><path d="M25.69,37.61c.39.75.87,1.73,1.57,2.54.67.84,1.7,1.28,2.3,1.95.87.87,1.79,1.73,2.63,2.65,1.36,1.48,1.33,1.49,3.57,3.72,1.59,1.56,4.11,4.65,5.64,6.28,1.47,1.54,2.39,2.4,3.76,4,2.05,2.42,3.19,4.33,5.7,6.55.6.54,1.14,1.35,1.64,2,1.56,2.04,3.14,4.07,4.64,6.16l1.04,1.46c1.21,1.53,2.39,3.1,3.57,4.65,1.34,1.76,1.98,3.33,2.9,4.14.41.37,1.09,1.47,1.71,2.67.62,1.2,1.18,2.5,1.49,3.2,1.02,2.28,1.84,4.11,2.55,6.5.73,2.51,1.26,5.05,1.78,7.6.29,1.52.61,1.35.87,2.87.23,1.24.44,3.88.71,5.11.21.98.67,3.12.74,4.14.04.64,0,1.27.12,1.92.11.55.09,2.13-.06,2.36-.35.5-1.63.4-2.12-1.36-.25-.89-.22-2.73-.44-3.67-.31-1.46-.49-5.37-.9-6.79-.26-1.02-1-5.3-1.23-6.29-.44-2.16-.64-3.85-1.38-5.92-.91-2.51-1.38-3.57-1.8-4.52-.42-.94-.77-1.78-1.81-3.63-.86-1.5-1.53-2.9-2.51-4.33-2.81-4.02-1.1-1.05-3.15-4.52-.79-1.01-3.78-4.8-4.23-5.38-.89-1.15-.04-.69-2.43-3.5-1.78-2.07-1.43-1.72-3.14-3.85-1.38-1.7-5-5.88-6.46-7.51-2.1-2.34-1.62-2-3.72-4.34-1.19-1.32-.14-.57-1.31-1.91-.68-.78-2.52-2.49-3.16-3.3-.71-.91-2.2-2.47-2.88-3.38-.87-1.17-1.63-1.99-2.6-3.12-.42-.55-.98-.93-1.55-1.42-.24-.21-.7-.67-1.04-1.19-.35-.51-.62-1.06-.72-1.34-.12-.3-.22-.58-.33-.87-.08-.28-.24-.53-.24-.84.07.2.19.36.28.51Z"/><path d="M33.96,35.44c.64.56,1.11,1.56,1.49,2.55.38,1,.84,1.97,1.32,2.68.25.39.53.78.81,1.16l.43.57c.18.23.15.25.53.34.13.1.18.28.28.44l.21.39c.43.86.77,1.25,1.12,1.77.35.52.85,1.12,1.86,2.31,1.43,1.68,3.8,4.85,5.29,6.52,1.41,1.58,2.3,2.46,3.61,4.1,1.97,2.46,3.01,4.43,5.44,6.72.58.55,1.11,1.37,1.59,2.03,1.5,2.07,3.06,4.1,4.5,6.22l1.02,1.46c1.19,1.54,2.33,3.12,3.5,4.67,1.27,1.81,1.95,3.33,2.82,4.17.4.38,1.05,1.48,1.69,2.66.6,1.2,1.13,2.5,1.47,3.19.98,2.28,1.9,4.09,2.56,6.48.7,2.51,1.21,5.05,1.69,7.59.29,1.51.58,1.35.84,2.87.2,1.24.41,3.87.65,5.1.21.98.64,3.11.7,4.13.04.64-.01,1.27.11,1.91.11.55.07,2.12-.09,2.35-.36.5-1.63.38-2.11-1.38-.24-.89-.2-2.72-.4-3.66-.3-1.46-.44-5.35-.83-6.77-.24-1.02-.94-5.28-1.16-6.28-.42-2.15-.6-3.85-1.31-5.91-.43-1.26-.79-2.14-1.1-2.82-.29-.69-.5-1.19-.7-1.67-.38-.95-.84-1.75-1.8-3.62-.87-1.49-1.52-2.89-2.46-4.35-2.78-4.02-1.05-1.07-3.09-4.54-.78-1.02-3.7-4.84-4.14-5.41-.85-1.17-.03-.68-2.36-3.53-1.72-2.1-1.4-1.73-3.04-3.9-1.32-1.73-4.76-6.04-6.17-7.71-2.02-2.4-1.55-2.04-3.57-4.45-1.14-1.37-.12-.57-1.24-1.95-.64-.81-2.38-2.61-2.94-3.49-.31-.49-.82-1.14-1.3-1.82-.46-.7-.93-1.38-1.19-1.92-.12-.27-.23-.52-.33-.76-.06-.12-.12-.26-.11-.26-.03-.05-.04-.14-.09-.16-.08-.04-.04,0-.24-.14-.16-.13-.25-.26-.31-.36-.11-.17-.22-.35-.34-.53-.22-.35-.45-.73-.69-1.14-.35-.62-.77-1.35-1-2.03-.2-.58-.73-2.25-.95-2.73-.19-.53-.63-1.01-.89-1.42.15.1.29.22.43.34Z"/><path d="M46.86,39.93c.21,1.6,1.49,3.59,2.07,5.07.23.51.36,1.12.53,1.61.19.51.43,1.01.69,1.51.85,1.59.81,1.61,2.51,3.9,1.21,1.61,3.19,4.64,4.47,6.23,1.22,1.51,2,2.34,3.13,3.89,1.69,2.33,2.53,4.2,4.7,6.35.52.52.96,1.29,1.38,1.92,1.3,1.94,2.62,3.88,3.88,5.86l.87,1.38c1.03,1.46,2.04,2.93,3.03,4.4,1.15,1.67,1.6,3.15,2.43,3.92.76.7,2.15,4.18,2.61,5.51.82,2.14,1.46,3.86,1.99,6.05.55,2.31.94,4.65,1.33,6.98.23,1.39.53,1.24.73,2.64.17,1.14.28,3.55.5,4.67.18.9.56,2.86.59,3.78.02.58-.04,1.16.07,1.75.09.5.04,1.94-.13,2.15-.37.46-1.64.34-2.08-1.27-.23-.81-.14-2.49-.33-3.35-.27-1.34-.31-4.9-.65-6.21-.22-.93-.76-4.85-.93-5.77-.33-1.98-.43-3.54-1.01-5.46-.71-2.34-1.09-3.32-1.4-4.2-.34-.88-.61-1.65-1.46-3.38-.7-1.41-1.23-2.72-2.05-4.07-2.35-3.8-.96-1-2.63-4.27-.68-.97-3.21-4.55-3.59-5.09-.75-1.09.03-.65-2.01-3.33-1.51-1.97-1.21-1.64-2.63-3.68-1.14-1.63-4.11-5.71-5.33-7.3-1.74-2.28-1.32-1.94-3.05-4.24-.97-1.31-.06-.54-1.01-1.87-.55-.77-2.05-2.51-2.5-3.35-.52-.92-1.64-2.57-2.02-3.57-.25-.64-.49-1.19-.69-1.79-.12-.28-.18-.61-.26-.94-.07-.32-.11-.57-.19-.89-.15-.58-.48-1.22-.7-1.81-.19-.48-.85-2.02-.89-2.58-.09-.54-.21-1.23-.03-1.68.02.17.03.35.06.52Z"/><path d="M57.09,38.53c.22.31.47.67.62,1.11.07.22.11.46.08.7-.04.24-.05.47-.02.71.15.94.46,1.87.76,2.58.42,1.01.96,2.02,1.28,3.13.25.89.31,1.36.37,1.96.04.65.02,1.24.51,2.53.64,1.8,2.22,5,3.34,6.66,1.05,1.59,1.76,2.46,2.76,4.06,1.51,2.4,2.24,4.28,4.29,6.5.49.53.89,1.31,1.28,1.94,1.2,1.96,2.45,3.92,3.62,5.9l.82,1.39c.96,1.47,1.91,2.92,2.88,4.41,1.09,1.67,1.52,3.14,2.32,3.91.74.7,2.06,4.15,2.49,5.47.78,2.1,1.43,3.83,1.9,6,.49,2.29.84,4.6,1.18,6.91.2,1.38.51,1.23.69,2.61.14,1.13.23,3.5.42,4.62.17.89.52,2.82.54,3.74.02.58-.06,1.14.04,1.73.09.5,0,1.92-.16,2.12-.37.44-1.64.32-2.06-1.28-.22-.81-.11-2.46-.28-3.31-.25-1.32-.23-4.84-.56-6.13-.2-.93-.68-4.8-.82-5.71-.29-1.96-.35-3.5-.89-5.41-.65-2.34-1.03-3.26-1.33-4.15-.33-.87-.6-1.64-1.41-3.36-.69-1.4-1.17-2.7-1.96-4.06-2.24-3.79-.94-1-2.51-4.27-.62-.89-3.05-4.56-3.41-5.12-.7-1.11.05-.64-1.87-3.35-1.42-2-1.13-1.66-2.46-3.74-1.08-1.66-3.78-5.85-4.86-7.51-1.55-2.39-1.16-2.02-2.64-4.47-.82-1.4,0-.54-.77-1.97-.44-.82-1.61-2.83-1.8-3.82-.06-.27-.15-.59-.21-.96-.08-.36-.12-.78-.13-1.21.01-.72-.07-1.34-.13-1.83-.14-1.23-.56-2.15-.98-3.43-.2-.61-.47-1.31-.57-1.96-.02-.25-.18-.79-.15-1.42,0-.14.05-.35.07-.44.03-.09.03-.18.03-.27,0-.18-.04-.35-.06-.46-.09-.46-.49-.99-.55-1.45.1.14.19.28.29.42Z"/><path d="M70.97,41.35c.14.7.12,1.62.02,2.52-.11.9-.2,1.8-.15,2.52.05,1.02.21,2.07.24,3.13.01.86,0,1.29-.04,1.84-.02.28-.04.59-.08,1-.02.4-.06.83.03,1.45.11.87.37,2.09.77,3.31.39,1.22.9,2.41,1.32,3.24.82,1.57,1.41,2.44,2.22,4,1.22,2.34,1.76,4.16,3.57,6.33.44.52.76,1.27,1.08,1.88,1.03,1.91,2.05,3.79,3.08,5.7l.7,1.34c.83,1.41,1.66,2.81,2.51,4.25.96,1.61,1.27,3.01,2.01,3.76.68.68,1.75,3.97,2.09,5.23.64,2.01,1.16,3.66,1.52,5.69.38,2.16.64,4.32.9,6.49.15,1.29.47,1.16.61,2.45.11,1.06.13,3.28.3,4.33.15.83.46,2.65.46,3.51,0,.54-.08,1.07,0,1.62.08.46-.02,1.79-.19,1.98-.38.41-1.65.28-2.04-1.22-.2-.76-.06-2.31-.22-3.1-.23-1.24-.12-4.54-.41-5.75-.18-.87-.53-4.51-.64-5.37-.22-1.85-.22-3.29-.66-5.09-.54-2.21-.82-3.1-1.07-3.94-.26-.83-.48-1.55-1.16-3.2-.59-1.33-.97-2.58-1.65-3.87-1.94-3.64-.85-.96-2.17-4.09-.55-.86-2.66-4.4-2.97-4.94-.6-1.07.09-.6-1.57-3.24-1.23-1.95-.98-1.61-2.1-3.63-.91-1.61-3.17-5.71-4.03-7.37-.63-1.18-.85-1.69-1.06-2.19-.22-.52-.44-1.02-.98-2.25-.59-1.42.06-.5-.45-1.95-.15-.42-.43-1.13-.66-1.88-.23-.74-.38-1.53-.36-2.01.02-.27-.02-.58.04-.95.02-.18.04-.37.06-.56.03-.16.05-.32.08-.49.1-.65.13-1.3.19-1.77.15-1.19.05-2.13.1-3.41.02-.61.02-1.31.15-1.91.12-.5.35-1.94.41-2.4.09-.47.01-1.05.11-1.46.04.15.07.3.1.46Z"/><path d="M83.09,47.93c-.35,1.25-1.02,3.08-1.24,4.37-.16.91-.26,1.85-.35,2.77-.08.74-.1,1.11-.1,1.59.01.48.01,1.06.2,2.21.13.81.28,1.94.54,3.06.25,1.12.6,2.22.92,2.99.63,1.46,1.1,2.28,1.7,3.74.91,2.18,1.23,3.87,2.76,5.9.37.49.6,1.19.86,1.75.79,1.76,1.63,3.52,2.41,5.3l.55,1.24c.68,1.3,1.35,2.59,2.05,3.93.78,1.49.95,2.78,1.59,3.5.61.64,1.29,3.71,1.49,4.86.38,1.88.74,3.32,1,5.16.26,1.94.41,3.89.59,5.85.1,1.16.42,1.05.51,2.21.07.95.02,2.95.16,3.89.12.75.38,2.39.36,3.16-.01.48-.1.96-.03,1.45.07.42-.06,1.61-.24,1.78-.39.37-1.65.23-2.02-1.12-.18-.68,0-2.07-.14-2.79-.2-1.12,0-4.08-.23-5.18-.15-.78-.36-4.07-.43-4.84-.13-1.67-.07-2.97-.4-4.6-.41-2.01-.58-2.87-.74-3.63-.18-.76-.28-1.43-.78-2.94-.41-1.23-.67-2.37-1.19-3.56-1.53-3.35-.73-.89-1.71-3.77-.46-.78-2.17-4.08-2.41-4.59-.47-.99.15-.55-1.19-3-1-1.81-.78-1.5-1.66-3.38-.72-1.5-2.46-5.34-3.1-6.89-.93-2.23-.66-1.84-1.49-4.14-.42-1.32.13-.46-.22-1.79-.21-.77-.77-2.66-.73-3.48-.02-.9-.07-2.6.15-3.47.25-1.11.39-1.97.69-3.08.15-.52.28-1.13.49-1.62.17-.42.65-1.69.88-2.06.22-.38.38-.91.67-1.18-.04.14-.08.27-.12.41Z"/><path d="M94.13,54.61c-.28.51-.68,1.1-1.09,1.7-.45.58-.6,1.29-.74,1.86-.24.83-.43,1.6-.58,2.41-.09.65-.16.97-.16,1.4-.02.42-.01.94.13,1.97.17,1.44.5,4.07.99,5.49.46,1.34.81,2.1,1.24,3.44.64,2.01.74,3.55,1.99,5.46.3.46.45,1.1.62,1.62.58,1.65,1.14,3.26,1.72,4.9l.39,1.15c.51,1.21,1.01,2.4,1.53,3.65.59,1.39.61,2.55,1.16,3.23.53.61.88,3.39.97,4.45.19,1.71.47,2.95.63,4.62.16,1.74.22,3.48.32,5.23.06,1.04.38.94.43,1.99.04.85-.08,2.63.03,3.48.09.67.32,2.14.28,2.82-.02.43-.13.86-.06,1.3.05.37-.1,1.44-.27,1.58-.4.32-1.66.18-1.99-1.04-.17-.61.04-1.85-.08-2.49-.17-1,.12-3.64-.08-4.63-.13-.7-.21-3.64-.25-4.33-.06-1.49.07-2.65-.18-4.13-.3-1.79-.42-2.59-.5-3.3-.1-.68-.14-1.28-.48-2.65-.27-1.12-.42-2.15-.79-3.26-1.13-3.1-.62-.84-1.24-3.49-.35-.73-1.63-3.78-1.81-4.25-.35-.92.21-.49-.81-2.77-.76-1.69-.58-1.4-1.21-3.14-.51-1.39-1.76-4.95-2.21-6.38-.66-2.06-.43-1.71-.99-3.8-.28-1.2.18-.4-.06-1.61-.13-.69-.59-2.39-.53-3.12.03-.8-.01-2.34.26-3.12.13-.5.3-.93.42-1.38.15-.41.34-.92.52-1.31.17-.4.26-.97.54-1.43.23-.45,1.01-1.31,1.29-1.6.29-.27.53-.69.86-.86-.07.12-.12.22-.19.33Z"/><path d="M104.66,55.51c-.04,1.12-.47,2.75-.76,3.85-.2.78-.41,1.59-.78,2.34-.29.6-.38.88-.54,1.27-.14.38-.36.83-.47,1.83-.36,1.34-.6,3.87-.5,5.3.06.67.18,1.21.25,1.74.07.53.16,1.06.25,1.72.06.5.1.97.13,1.42.05.45.1.9.15,1.32.1.87.31,1.74.8,2.72.23.47.28,1.1.39,1.62.34,1.62.76,3.24,1.14,4.86l.27,1.13c.4,1.2.79,2.38,1.2,3.62.46,1.38.42,2.49.92,3.17.48.61.69,3.3.73,4.32.14,1.67.34,2.88.43,4.49.08,1.68.08,3.36.12,5.04.02,1,.35.92.37,1.93,0,.82-.15,2.54-.07,3.35.08.65.26,2.07.21,2.73-.03.42-.15.82-.09,1.25.05.36-.13,1.39-.31,1.52-.4.3-1.66.13-1.97-1.05-.16-.59.08-1.78-.02-2.41-.15-.97.21-3.51.04-4.47-.11-.68-.1-3.52-.11-4.19,0-1.44.17-2.56-.01-4-.23-1.74-.27-2.55-.36-3.19-.08-.66-.07-1.24-.36-2.59-.19-1.1-.3-2.1-.58-3.19-.9-3.06-.56-.85-.97-3.45-.29-.73-1.27-3.78-1.4-4.25-.24-.93.26-.46-.5-2.76-.53-1.72-.43-1.41-.79-3.17-.36-1.39-.95-5.02-1.15-6.47-.11-1.05-.11-1.48-.12-1.91-.02-.43,0-.86,0-1.93.01-1.2.22-.34.34-1.53.04-.34.06-.94.08-1.54.04-.6.19-1.19.3-1.52.19-.76.77-2.13,1.17-2.79.54-.77.81-1.41,1.16-2.29.17-.42.29-.92.46-1.33.15-.34.46-1.44.59-1.79.15-.35.18-.81.4-1.09,0,.13-.01.24-.02.37Z"/><path d="M114.73,60.99c-.02,1.02-.48,2.48-.88,3.43-.3.68-.55,1.37-.88,2.01-.28.51-.41.77-.51,1.13-.12.35-.25.79-.5,1.66-.1.64-.36,1.49-.57,2.35-.15.88-.36,1.76-.36,2.41-.02,1.23.03,1.95.02,3.16-.06,1.81-.41,3.13.24,5.01.15.45.12,1.02.15,1.5.09,1.49.28,2.99.43,4.48l.12,1.05c.23,1.12.46,2.25.72,3.37.3,1.27.11,2.28.54,2.94.41.59.32,3.03.28,3.95,0,1.49.14,2.58.14,4.04,0,1.51-.08,3.03-.1,4.55-.01.91.32.84.29,1.75-.02.74-.24,2.29-.17,3.03.06.59.2,1.88.13,2.48-.04.38-.17.74-.13,1.13.04.33-.16,1.25-.35,1.37-.41.26-1.66.06-1.94-1.01-.14-.54.13-1.61.05-2.17-.12-.88.31-3.17.18-4.04-.09-.62.02-3.19.05-3.8.05-1.31.28-2.31.17-3.62-.13-1.59-.15-2.3-.16-2.93-.04-.61,0-1.13-.13-2.36-.11-1.01-.06-1.92-.24-2.93-.51-2.84-.47-.81-.53-3.2-.21-.69-.76-3.54-.82-3.98-.11-.86.32-.39-.1-2.55-.27-1.61-.21-1.32-.32-2.95-.12-1.3-.21-4.63-.16-5.96-.01-.95.1-1.34.14-1.73.08-.39.07-.77.23-1.72.16-1.07.32-.27.5-1.33.1-.61.32-2.13.55-2.71.35-.62.7-1.9,1.14-2.45.54-.7.85-1.36,1.29-2.05.2-.33.35-.76.53-1.11.17-.29.49-1.25.63-1.56.15-.31.18-.72.39-.97,0,.12,0,.22-.01.33Z"/><path d="M123.93,68.24c-.33.83-1.16,1.88-1.45,2.73-.22.59-.46,1.19-.69,1.78-.36.95-.45.92-.82,2.48-.11.56-.4,1.28-.61,2.04-.2.76-.44,1.51-.5,2.07-.11,1.08-.14,1.7-.29,2.76-.13.79-.34,1.44-.44,2.12-.12.68-.18,1.38.03,2.23.1.41-.03.89-.07,1.31-.12,1.3-.16,2.61-.22,3.91l-.03.92c.07,1,.13,2,.24,2.99.11,1.14-.18,1.98.15,2.59.33.55-.06,2.67-.14,3.43-.13,1.24,0,2.23-.07,3.49-.1,1.3-.19,2.64-.29,3.95-.05.79.29.74.23,1.53-.04.64-.32,1.98-.27,2.63.04.52.15,1.65.06,2.16-.06.33-.19.64-.16.98.03.29-.2,1.08-.38,1.18-.42.21-1.66-.02-1.91-.96-.13-.48.17-1.39.1-1.89-.1-.77.41-2.75.3-3.51-.07-.54.13-2.78.18-3.31.11-1.14.37-2.01.32-3.15-.12-2.78.05-2.51.07-4.68.02-.88.14-1.67.12-2.56-.15-2.52-.35-.76-.1-2.83-.11-.62-.25-3.15-.24-3.54.02-.76.36-.29.28-2.21-.06-1.42-.01-1.17.11-2.59.05-1.14.43-4.02.59-5.16.27-1.63.32-1.32.66-2.93.22-.91.33-.2.57-1.1.1-.53.35-1.83.58-2.32.23-.55.66-1.61.98-2.11.4-.65.69-1.16,1.07-1.84.19-.32.35-.72.58-.99.21-.23.75-.98.97-1.19.22-.21.38-.55.65-.66-.04.1-.08.17-.12.27Z"/><path d="M134.65,71.35c-.37.77-1.2,1.74-1.58,2.51-.27.54-.52,1.11-.84,1.63-.51.84-.51.84-1.13,2.25-.41,1.01-1.44,2.65-1.79,3.69-.37.97-.44,1.59-.85,2.52-.57,1.41-1.33,2.3-1.32,3.98,0,.4-.21.83-.34,1.21-.4,1.18-.7,2.39-1.01,3.6l-.21.85c-.11.95-.23,1.89-.27,2.84-.06,1.08-.47,1.84-.2,2.45.25.56-.32,2.48-.46,3.21-.22,1.18-.16,2.13-.31,3.31-.15,1.24-.35,2.49-.49,3.74-.08.75.25.72.17,1.47-.07.61-.39,1.88-.36,2.5.02.5.09,1.58-.02,2.08-.07.31-.21.61-.19.93.02.28-.24,1.03-.43,1.11-.42.18-1.66-.1-1.87-1.01-.11-.46.22-1.32.17-1.8-.07-.74.5-2.61.42-3.35-.06-.52.25-2.67.32-3.17.16-1.09.48-1.91.5-3.01.08-2.69.2-2.39.41-4.48.08-.86.32-1.6.4-2.47.22-2.44-.25-.79.32-2.73-.01-.61.32-3.05.41-3.41.16-.72.43-.2.71-2.03.27-1.35.23-1.1.66-2.41.33-1.05,1.25-3.67,1.67-4.68.54-1.48.59-1.15,1.2-2.61.35-.82.34-.13.75-.91.25-.45.59-1.68.93-2.08.36-.45.83-1.42,1.21-1.85.51-.53.79-1.01,1.23-1.61.2-.29.4-.64.66-.88.21-.2.77-.88,1-1.07.23-.18.4-.5.67-.58-.05.09-.08.16-.13.25Z"/><path d="M147.66,71c-.15.43-.4.93-.65,1.43-.27.49-.48,1.02-.78,1.39-.42.5-.71,1.07-1.12,1.59-.64.83-.66.81-1.55,2.2-.65.96-1.99,2.55-2.62,3.53-.6.93-.88,1.53-1.5,2.43-.94,1.34-1.99,2.02-2.45,3.76-.12.41-.46.79-.71,1.14-.79,1.07-1.38,2.26-2.1,3.38-.16.26-.32.53-.46.81-.37.94-.78,1.86-1.09,2.81-.32,1.09-.93,1.76-.83,2.45.14.62-.85,2.45-1.05,3.2-.19.6-.31,1.15-.42,1.7-.1.56-.17,1.12-.32,1.73-.3,1.29-.62,2.57-.85,3.89-.14.78.19.77.07,1.56-.11.64-.5,1.96-.5,2.63,0,.52,0,1.68-.12,2.2-.08.33-.24.64-.25.99,0,.3-.3,1.1-.5,1.17-.43.17-1.65-.2-1.81-1.17-.07-.48.3-1.38.27-1.89-.03-.78.62-2.76.6-3.55-.04-.56.43-2.84.55-3.37.29-1.15.64-2,.82-3.16.18-1.43.34-2.05.49-2.59.16-.54.26-1.03.6-2.13.28-.9.63-1.66.96-2.53.88-2.48-.07-.9,1.07-2.76.18-.63,1.2-3.05,1.43-3.38.38-.68.48-.09,1.31-1.87.66-1.29.59-1.03,1.38-2.25.59-1,2.32-3.37,2.94-4.34.92-1.39.88-1.04,1.83-2.4.54-.77.38-.06.94-.81.31-.44.95-1.61,1.35-1.98.44-.42,1.09-1.35,1.55-1.74.6-.5.89-1,1.51-1.56.28-.25.37-.47.61-.81.19-.24.68-1.03.89-1.26.21-.23.35-.58.61-.71-.04.1-.07.18-.1.28Z"/><path d="M48.75,194.2c.11-.76.24-1.54.21-2.32-.01-.54-.02-1.44-.14-1.96-.09-.42-.21-.62-.31-.88-.1-.28-.15-.52.07-1.21.14-.47.25-1,.27-1.56,0-.5,0-1.01.02-1.51.06-.95.32-1.92.26-2.87-.08-1.48-1.03-2.68-.65-4.2.09-.36-.07-.77-.13-1.13-.2-1.11-.35-2.23-.54-3.34l-.08-.5-.04-.25-.05-.39-.02-.2v-.05s-.06,0-.08,0h-.17s-.33,0-.33,0c-.02,0-.06,0-.08,0v-.03s-.01-.06-.01-.06c-.02-.17-.04-.34-.04-.48h0c-.12-.11-.26-.23-.45-.51-.23.05-.45.09-.67.12-.29.04-.4-.02-.61-.05-.18-.04-.36-.08-.52-.05-.27.05-.55.08-.81.15-.33.1-.77.2-1.08.35-.08.04-.2.09-.42.19.74.37,1.23.65,1.77.78.26.06.63.06,1.02.02.19-.02.42-.05.58-.08.07-.02.14-.03.21-.05.1-.02.19-.03.23,0,0,.01-.01.03-.02.05-.05.19-.15.32-.22.48-.05.49-.08.97-.04,1.25.08.65.33,1.21.47,1.86.25,1.19.07.99.25,2.19.06.48.18,1.33.29,2.17.05.42.1.83.14,1.2,0,.37.02.7.02.94,0,1.37.13,1.63.14,2.99-.01.76-.18.81-.24,1.46-.03.42-.32,1.15-.28,1.85.07.7.36,1.21.58,1.69.3.6.5,1.18.64,1.81.07.3.08.65.18.93.08.24.26.45.36.69.1.24.07.56.26.76.01-.09.02-.16.03-.25Z"/><path d="M59.42,194.99c0-.86.04-1.72,0-2.57-.04-.61,0-1.54-.08-2.14-.12-.98-.52-1.07-.53-2.63,0-1.1-.18-2.21-.2-3.31-.01-1.05.2-2.1.1-3.13-.15-1.54-.94-2.99-.49-4.66.11-.4-.02-.88-.08-1.29-.08-.64-.16-1.29-.27-1.93l-.19-1.05c-.04-.27-.12-.5-.2-.73-.06-.24-.18-.42-.4-.55-.24-.12-.51-.16-.83-.15l-.77.03-1.14.06c-.43.02-.86.11-1.29.12-.4,0-.85-.23-1.21-.19-.32.04-.64.05-.95.13-.38.09-.89.2-1.23.36-.09.04-.22.1-.46.21.85.33,1.39.61,1.97.75.8.2,2.45-.1,3.26.05.16.03.38.07.61.11.12.02.25.04.38.07l.2.03.1.02s.01.01.02.02c.07.09-.02.17-.01.16,0,.01.01-.03.04.02.05.15.1.32.15.48.1.32.2.65.27,1,.23,1.3.05,1.08.16,2.42.07,1.1.24,3.83.31,4.93.08,1.57.22,1.86.33,3.43.07.89-.15.91-.04,1.8.06.51.07,1.52.22,2.02.16.56.4,1.08.6,1.61.26.69.44,1.41.61,2.13.08.34.11.75.24,1.07.11.27.31.5.44.76.13.26.15.62.37.82,0-.1,0-.18,0-.28Z"/><path d="M69.81,192.41c.13-.83.3-1.65.37-2.48.05-.59.19-1.49.18-2.09-.02-.96-.4-1.08-.27-2.6.09-1.07-.01-2.16.03-3.23.05-1.02.29-2.05.22-3.05-.11-1.51-.91-2.94-.47-4.55.11-.39-.02-.84-.07-1.24l-.05-.41-.06-.69-.11-1.41-1.74.1-.62.04-.51.04-2.2.19c-.42.04-.83.13-1.25.15-.39.02-.83-.21-1.18-.15-.3.05-.62.07-.91.15-.37.11-.85.22-1.19.4-.09.04-.21.11-.44.23.83.31,1.36.57,1.93.7.78.18,2.37-.17,3.16-.04.63.1,2.07.36,2.69.33h.19s.09-.02.09-.02c.02,0,0,0,.01,0,0-.01,0-.03.02-.05.03-.04.08-.09.16-.13.03,0,.06.02.08.05.02.03.03.05.04.08v.04s.02.09.02.13c.01.18.01.32.01.45,0,.27-.02.54.04,1.2.09,1.05.27,3.71.29,4.76.03,1.51.16,1.8.19,3.31.01.86-.21.87-.17,1.72.02.5-.05,1.46.04,1.95.11.55.29,1.07.43,1.6.18.69.27,1.4.34,2.11.03.34.01.73.09,1.06.06.28.23.52.32.79.09.27.06.62.24.83.01-.1.02-.18.04-.27Z"/><path d="M82.66,191.51c0-.84.07-1.67.06-2.49-.01-.59.07-1.48.04-2.07-.05-.95-.45-1.06-.3-2.57.11-1.04.07-2.15.16-3.25.12-1.03.25-2.18.07-3.2-.29-1.53-1.34-2.83-1-4.42.08-.38-.05-.8-.09-1.17l-.02-.16c0-.14,0-.22,0-.33v-.62s.04-1.2.04-1.2l-1.99.16-.71.07-.57.07-2.2.24c-.42.05-.82.15-1.24.19-.39.03-.83-.19-1.18-.12-.3.06-.62.09-.91.18-.37.12-.85.25-1.18.43-.09.05-.21.11-.44.24.84.29,1.37.53,1.94.65.79.15,2.38-.23,3.18-.13.64.08,2.1.3,2.73.26.13-.01.34-.03.4-.05,0-.02,0-.04.02-.06.03-.05.12-.12.21-.15.01,0,.03.02.03.03.05.15.04.11.04.49,0,.29-.02.58.07,1.27.13,1.12.74,3.74.85,4.75.17,1.47.31,1.69.26,3.2-.02.85-.25.82-.24,1.7,0,.51-.09,1.5,0,2,.11.56.31,1.09.47,1.63.21.7.36,1.41.49,2.12.07.34.09.74.21,1.06.1.27.3.5.43.75.13.26.15.61.37.8,0-.1,0-.18,0-.27Z"/><path d="M107.04,154.15c-.35-.81-1.19-1.33-2.12-1.77-1.88-.89-3.85-.95-5.88.11-1.2.63-2.25,1.47-2.89,2.46-.8,1.23-.94,2.66-.41,3.88s1.71,2.22,3.22,2.77c1.1.4,2.38.56,3.64.36,1.61-.26,3.11-1.14,3.87-2.28.48-.72.68-1.5.8-2.28.17-1.11.2-2.24-.23-3.26Z"/><path d="M107.14,154.44c.12.97-.17,1.85-.42,2.73-.17.66-.61,1.47-.92,1.89-.24.35-.35.6-.55.89-.21.27-.52.6-1.28.83-1.05.3-2.15.5-3.23.26-1.03-.24-1.84-.92-2.56-1.41-.55-.37-1.14-.7-1.52-1.25-.39-.52-.48-1.34.01-1.92.23-.27.29-.66.47-.98.56-.99,1.67-1.83,2.78-2.42.67-.35,1.4-.55,2.14-.61.42-.03.86-.08,1.3.02.41.09.74.5,1.09.61.31.09.63.24.93.32.39.1.84.3,1.19.47.09.05.23.1.46.3-.01-.52-.2-.98-.41-1.34-.22-.37-.46-.66-.74-.91-.37-.33-1.07-.65-1.84-.83-.77-.19-1.56-.22-2.09-.28-.42-.07-1.14-.11-1.85-.02-.71.09-1.4.32-1.76.52-.81.45-1.39,1.12-2.02,1.82-.58.66-.79.97-1.02,1.27-.21.31-.48.62-.73,1.54-.21.72-.31,2.16.31,3.4.58,1.24,1.61,2.06,2.19,2.45.85.57,1.43.75,2,.91.58.14,1.15.27,2.14.35,1.12.03,1.15.29,2.32.05.67-.14,1.96-.56,2.48-1.07.59-.53,1.02-1.21,1.33-1.94.39-.93.52-1.87.61-2.72.04-.41.13-.9.06-1.32-.06-.36-.26-.66-.41-.97-.14-.31-.21-.74-.5-.91.02.1.05.21.06.31Z"/><path d="M120.08,184.89c0-.55.11-1.07.13-1.6.01-.37.11-.96.07-1.34-.06-.61-.45-.64-.39-1.62.04-.69-.11-1.36-.1-2.05.01-.65.23-1.31.14-1.94-.13-.93-.94-1.79-.48-2.81.11-.24,0-.53-.04-.77-.1-.76-.14-1.52-.19-2.29-.01-.23-.02-.46-.03-.69,0-.29,0-.71.02-1.04,0-.38,0-.75-.06-1.04-.33.04-.58-.18-.98-.1-.32.07-.64.11-.92.21-.3.12-.55.25-.76.43-.05.05-.12.11-.27.24.26.15.5.28.7.39.11.06.2.11.29.15.07.05.09.09.13.12.08.09.18.06.34.02.11-.06.09.04.09.09,0,.06-.02.13-.06.19-.03.05-.08.1-.12.14-.02.03-.05.02-.07.07l-.08.25c-.11.33-.19.67-.19.88,0,.46.2.89.27,1.35.14.85-.02.7.06,1.55.06.68.26,2.39.31,3.06.06.97.2,1.14.29,2.11.05.55-.18.58-.09,1.12.05.32.01.94.13,1.24.13.34.35.64.51.97.21.42.34.85.45,1.3.05.21.06.47.16.68.09.17.28.3.4.45.12.15.14.38.36.46,0-.07,0-.11-.01-.18Z"/><path d="M130.55,187.14c-.02-.72.01-1.45-.05-2.16-.05-.51-.03-1.29-.12-1.79-.14-.81-.54-.85-.58-2.16-.02-.92-.24-1.83-.27-2.75-.04-.87.15-1.77.02-2.61-.18-1.27-1.02-2.45-.6-3.84.1-.33-.02-.72-.07-1.05-.07-.49-.12-.96-.14-1.42,0-.09,0-.29,0-.5,0-.21.02-.42.05-.63.05-.42.11-.83.16-1.25-.07-.03-.23.01-.35.02-1.02.13-2.23.28-2.69.37-.36.06-.7.17-1.06.21-.33.04-.73-.17-1.03-.1-.26.06-.53.1-.78.2-.31.12-.72.27-.99.45-.07.05-.17.12-.37.25.74.27,1.21.5,1.71.6.68.14,2.03-.28,2.72-.2.83.03.65.29.59.35,0,0-.01.01-.01.01,0,0,.06-.04.12-.01.01.02.03.02.04.07l.04.24c.03.17.05.32.08.47.17,1.16,0,.95.12,2.09.1.92.34,3.21.44,4.13.12,1.31.27,1.55.42,2.86.09.74-.13.77,0,1.51.07.43.1,1.27.26,1.68.17.46.43.88.63,1.31.27.56.47,1.15.65,1.75.08.28.13.62.26.88.11.22.31.4.45.6.14.21.16.51.38.65,0-.09,0-.15-.01-.24Z"/><path d="M142.76,193.44l-.3.16.12.04c.05-.84.12-1.68.1-2.52-.01-.68.04-1.71-.03-2.39-.11-1.1-.51-1.2-.53-2.95-.02-1.23-.23-2.46-.29-3.68-.06-1.17.09-2.35-.09-3.49-.13-.85-.43-1.68-.66-2.54-.23-.85-.37-1.72-.31-2.67.04-.46-.16-.97-.27-1.42-.34-1.38-.68-2.73-1.02-4.11l-.49-2.08-1.58.22c-.55.08-.95.19-1.44.24-.44.04-.95-.17-1.35-.1-.35.06-.71.09-1.04.18-.42.12-.97.26-1.35.45-.1.05-.23.12-.5.25.96.27,1.57.51,2.22.62.45.07,1.12.02,1.81-.06.34-.04.69-.08,1-.11.16-.01.31-.02.45-.03.07,0,.14,0,.2,0,.04,0,.05,0,.07.02.08.03.16.08.19.13-.02.07-.04.14-.06.18-.01.02-.02.04-.03.06l-.02.02s-.01.01,0,.08c.03.38.06.73.11.97.17.79.51,1.47.73,2.25.42,1.45.2,1.21.52,2.66.15.58.3,1.61.43,2.65.14,1.03.29,2.1.35,2.7.18,1.72.34,2.04.52,3.77.1.98-.12,1,0,1.98.07.57.09,1.67.24,2.22.16.62.4,1.19.59,1.8.25.77.41,1.58.55,2.38.07.38.09.83.2,1.2.09.31.28.57.4.87.04.1.06.21.09.32l.08.34.23-.22c.17-.16.34-.32.4-.52-.09.05-.18.1-.27.16Z"/><path d="M155.72,194.36c-.03-1.05-.02-2.1-.14-3.15-.08-.74-.14-1.89-.3-2.63-.25-1.2-.65-1.29-.9-3.2-.18-1.35-.56-2.68-.78-4.02-.21-1.27-.22-2.59-.53-3.82-.46-1.85-1.57-3.5-1.43-5.56.03-.49-.18-1.05-.29-1.53-.17-.75-.33-1.51-.46-2.26-.07-.38-.15-.76-.2-1.14l-.24-1.59-.08-.55c.02-.14-.13-.06-.21-.07l-.29.02-1.12.08-1.46.12c-.53.04-1.05.15-1.58.18-.49.03-1.05-.19-1.49-.13-.38.05-.78.08-1.16.17-.47.11-1.08.24-1.5.42-.11.05-.26.11-.56.24,1.05.29,1.72.54,2.44.66.98.16,3-.22,4-.12.2.02.46.05.76.08.13.02.34.03.43.05.03.02.05.04.06.07.03.04.01.09-.02.13-.03.03-.04.04-.04.04.11.87.44,1.67.63,2.55.4,1.63.18,1.36.54,3.01.29,1.31,1.03,4.6,1.32,5.92.39,1.88.59,2.21,1,4.08.23,1.06.01,1.11.27,2.16.15.61.31,1.81.52,2.4.24.66.55,1.27.81,1.91.34.82.59,1.69.82,2.56.1.42.17.9.31,1.3.12.33.33.62.47.94.14.33.17.76.4,1.01,0-.12-.01-.22-.02-.34Z"/><path d="M169.09,195.19c-.15-1.09-.26-2.17-.47-3.24-.15-.76-.31-1.94-.51-2.7-.33-1.23-.74-1.3-1.1-3.28-.25-1.39-.69-2.76-.98-4.15-.27-1.32-.34-2.69-.71-3.97-.55-1.92-1.75-3.6-1.78-5.76,0-.52-.26-1.09-.41-1.58-.48-1.55-.9-3.12-1.36-4.68l-.11-.4c-.05-.19-.1-.38-.16-.56-.12-.33-.34-.65-.7-.73-.32-.09-.73-.03-1.1,0l-.73.07c-.55.06-1.09.17-1.64.22-.51.04-1.1-.17-1.56-.09-.4.06-.82.1-1.2.2-.49.12-1.12.27-1.56.46-.11.05-.27.12-.58.25,1.11.27,1.81.5,2.56.6,1.03.14,3.12-.28,4.18-.2.1,0,.22.02.36.03.14.01.31.02.3.04.07.04.13.07.1.17-.01.04-.03.07-.04.09,0,.01-.02.02-.02.02.01.08.02.16.03.23.04.31.09.57.14.77.23.9.63,1.68.92,2.57.54,1.65.31,1.39.79,3.06.38,1.34,1.33,4.73,1.66,6.08.48,1.94.7,2.28,1.19,4.22.28,1.1.06,1.16.37,2.25.18.63.41,1.88.66,2.49.28.68.63,1.3.94,1.96.4.84.73,1.73,1.03,2.63.15.42.26.93.44,1.33.16.34.4.61.58.93.09.16.16.36.23.54.05.1.07.18.1.19.04.03,0-.03.05.05,0,.02,0-.01.02-.03,0,0-.01,0-.03,0-.05,0-.03,0-.03.01-.01-.04,0,.07.05.05.05-.02.07-.09.07-.15Z"/><path d="M159.65,159.01c.09-.63.22-1.25.24-1.88.02-.44.11-1.13.07-1.57-.06-.72-.45-.77-.39-1.92.04-.81-.12-1.61-.13-2.42,0-.76.23-1.51.12-2.23-.14-1.06-.79-2.17-.62-3.53.05-.33-.16-.66-.27-.94-.37-.88-.66-1.68-.92-2.54-.15-.51-.29-1.03-.41-1.55-.07-.3-.19-.58-.23-.89-.04-.28.18-.61.12-.87-.05-.22-.07-.45-.16-.66-.1-.27-.21-.62-.37-.87-.04-.07-.1-.16-.21-.34-.35.61-.61,1.01-.74,1.46-.18.61.23,1.82.18,2.44-.05.49-.14,1.66,0,2.13.14.53.47.97.7,1.47.4.9.23.78.5,1.65.11.35.23.92.27,1.59.05.66.07,1.4.12,1.79.08,1.15.21,1.38.31,2.5.06.64-.17.67-.08,1.3.05.37.02,1.09.14,1.45.13.4.35.77.51,1.15.21.5.34,1.02.45,1.54.05.25.05.54.14.78.08.2.26.37.36.56.1.19.09.45.28.6,0-.08.01-.13.02-.21Z"/><path d="M128.74,133.77c-1.65-.37-3.28-.79-4.96-1.11-1.19-.22-2.99-.64-4.21-.81-1.97-.28-2.3.06-5.37-.53-2.16-.41-4.41-.65-6.62-.96-2.1-.3-4.22-.69-6.36-.66-3.22.07-6.17,1.09-9.52,1.14-.81.03-1.75.29-2.54.49-2.5.6-4.97,1.29-7.39,2.11-1.45.48-2.89,1-4.32,1.54-.81.3-1.59.68-2.4.99-.75.28-1.67.39-2.34.69-.58.26-1.18.52-1.72.82-.68.37-1.57.86-2.15,1.28-.15.11-.36.26-.77.55,1.7-.35,2.79-.5,3.92-.8,1.54-.41,4.5-1.86,6.09-2.24,1.25-.34,4.13-.92,5.34-1.29,1.37-.4,2.58-.94,3.97-1.33,2.57-.71,2.14-.46,4.77-.99.53-.09,1.26-.21,2.09-.35.83-.11,1.77-.24,2.71-.33,1.88-.17,3.76-.25,4.83-.22,3.06.07,3.66.03,6.73.36,1.74.22,1.71.44,3.46.65,1.02.13,2.95.49,3.97.55,1.14.06,2.24.03,3.36.06,1.44.04,2.91.16,4.38.3.7.07,1.49.21,2.17.23.58.02,1.12-.07,1.68-.08.57,0,1.27.13,1.76.02-.18-.04-.36-.08-.54-.12Z"/><path d="M123.37,105.05c.44-5.17,1.3-10.3,2.54-15.34-.7-.15-1.45-.15-2.18-.18-3.29-.13-6.57-.34-9.85-.62-.85-.07-1.7-.15-2.56-.23-.97-.09-1.22-.35-1.47.58-.41,1.51-.33,3.35-.46,4.91-.13,1.62-1.1,19.49-.69,19.5,4.14.06,8.28.12,12.41.19.45,0,.98-.02,1.25-.39.12-.17.17-.39.2-.59.46-2.58.58-5.2.8-7.81Z"/><path d="M123.3,105.74c-.34,2.1-.67,4.18-1.1,6.26-.04.19-.09.39-.13.61-.03.13-.04.19-.07.25-.02.06-.05.13-.09.18-.11.13-.3.16-.46.15-.21,0-.63-.04-.96-.07-.69-.05-1.37-.09-1.95-.11-2.5-.07-2.87.3-6.79.04-.72-.04-1.44-.08-2.16-.12h-.14s-.07-.01-.07-.01c-.02-.02-.01-.05-.02-.07,0-.1,0-.19,0-.28l.02-1.28c.03-.97.07-1.95.14-2.92.19-2.63.61-5.24.72-7.85.08-1.96,0-3.9,0-5.85.02-.97,0-2.01.06-2.96.03-.48.08-.96.18-1.42.05-.21.13-.5.16-.55.04-.06.08-.11.14-.12.06,0,.12.03.16.04-.04,0,.38.05.63.06.55.03,1.12.06,1.62.09,3.2.14,6.4.28,9.6.43.48.02.96.05,1.44.05h.42c.1,0,.2.01.31.03.16-.02.08.12.07.21l-.06.3-.27,1.32c-.21,1.07-.34,2.14-.53,3.22-.18.99-.6,2.07-.7,2.99-.08.79-.19,1.61-.21,2.39-.03.98-.07,2.25,0,3.14.02.23.05.56.1,1.18.52-2.1.96-3.39,1.3-4.81.44-1.94.88-6.05,1.48-8,.06-.19.13-.42.2-.67.04-.14.09-.28.13-.43.06-.23.15-.49.2-.74.06-.25.12-.51.18-.77l.09-.41c0-.12.15-.33-.06-.32-.53-.12-1.05-.27-1.66-.35-.78-.08-1.56-.17-2.25-.24-.6-.07-1.13-.12-1.53-.14-1.81-.1-3.47,0-5.3-.06-1.69-.04-2.38-.09-3.08-.18-.35-.04-.69-.08-1.16-.13-.12-.01-.24-.02-.38-.04-.15-.02-.32-.04-.5-.06-.54-.09-1.22-.13-1.67.46-.34.41-.49,1.29-.56,1.69-.08.49-.13,1.03-.16,1.58-.02.54-.04,1.12-.07,1.71-.01.28-.03.57-.04.86l-.06.91c-.13,2.41-.26,4.81-.33,6.18-.23,3.92-.16,4.68-.33,8.61-.04,1.11-.12,1.67-.18,2.23-.01.14-.03.29-.04.43v.12s-.02.21-.02.21c0,.15,0,.3,0,.46,0,.32.02.69.17.99.03.08.1.12.17.17l.12.07h0s0,0,0,0c.06-.06-.08.09-.06.07h0s.02,0,.02,0h.03s.06.04.06.04c.18.07.36.14.56.21.03,0,.05.02.1.04.46.01,1.02.03,1.64.04.43.02.89.04,1.35.06.92.04,1.84.06,2.47.04,1.43-.06,2.8-.2,4.21-.29.67-.04,1.35-.07,2.04-.1.36-.02.65,0,1.09-.04.51-.04,1.03-.24,1.31-.67.19-.27.26-.68.3-.94l.1-.71c.12-.88.27-1.9.29-2.76.02-.73-.09-1.4-.11-2.11-.02-.72.09-1.6-.03-2.2-.03.23-.07.46-.11.69Z"/><path d="M61.87,60.97c5.59-1.3,11.17-2.61,16.76-3.91.06-.01.12-.03.18,0,.07.03.1.12.12.2.45,1.8.9,3.59,1.36,5.39.28,1.09.55,2.18.74,3.3.29,1.74.37,3.51.57,5.26.15,1.23.36,2.45.6,3.67.59,2.93,1.39,5.81,2.4,8.62.06.17-8.38,2.86-9.15,3.08s-1.52.43-2.28.64c-.47.13-1.62.68-2.1.52-.84-.28-.97-2.78-1.21-3.65-1.65-6.03-4.48-11.64-6.63-17.5-.69-1.87-1.31-3.77-1.8-5.71"/><path d="M61.61,61.64c.45,2.31,1.03,4.6,1.8,6.86.54,1.61,1.36,4.05,2,5.64,1.01,2.58,1.58,2.79,2.83,6.93.33,1.14.69,2.37.94,3.46.1.56.17,1.2.31,1.84.03.16.08.33.12.5l.08.26c.03.1.09.23.14.34.2.46.53.86.99,1.03.25.07.5.08.76.05.24-.02.57-.12.7-.16l.93-.3c1.3-.33,2.87-.64,4.25-1.02,1.42-.36,2.83-.75,4.21-1.22.65-.22,1.29-.46,1.94-.72l.7-.28c.29-.13.62-.23.81-.43.12-.08.1-.23.16-.33l.05-.16v-.04s.02-.02.02-.02h0s0-.01,0-.01c.38.17.11.05.19.08h0s0-.1,0-.1c0-.26,0-.5-.03-.76l-.97-2.49c-.26-.69-.49-1.39-.71-2.1-.41-1.42-.75-2.9-.83-4.46-.04-1.09-.39-2.35-.55-3.45-.23-1.71-.32-3.54-.74-5.32l-.63-2.63-.69-2.56-.42-1.53-.24-.9c-.09-.41-.23-.82-.44-1.05-.12-.14-.31-.19-.47-.19-.17-.01-.36,0-.57.05l-1.03.26-1.54.39c-1.17.3-2.3.65-3.48.93-1.08.26-2.35.31-3.34.58-.85.24-1.73.46-2.55.72-1.02.33-2.36.75-3.27,1.13-.23.1-.57.24-1.21.5,2.38-.21,3.9-.28,5.52-.51,2.21-.31,6.63-1.64,8.87-2.02.44-.07,1.02-.17,1.66-.27.08,0,.15,0,.21.03.03.07,0,.16,0,.21-.01-.02.01.09.03.18l.05.27c.03.18.07.36.1.54.07.35.14.7.21,1.03.13.65.26,1.23.38,1.67.27.99.5,1.87.77,2.79.13.45.28.91.39,1.37.1.46.19.93.26,1.42.25,1.83.29,2.63.36,3.41.09.79.21,1.57.54,3.48.17.98.52,2.43.93,3.99.21.78.44,1.59.69,2.38.13.4.25.79.38,1.17.09.25.17.5.25.74l.04.11s.02.07-.03.08c-.07.03-.13.05-.2.08-.37.13-.72.25-1.04.36-.77.25-1.41.46-1.91.63-2.06.67-3.29,1.07-4.52,1.47-.61.21-1.21.37-1.94.58-.18.05-.37.1-.56.16-.1.03-.2.06-.3.08-.11.03-.27.08-.37.12-.21.07-.43.15-.65.23-.1.03-.24.08-.29.09-.04,0-.08.02-.12.02-.05,0-.09,0-.11,0-.07-.03-.11-.1-.13-.15-.03-.08,0-.06-.05-.22-.06-.28-.09-.54-.11-.81-.03-.29-.05-.58-.09-.93-.02-.19-.04-.39-.09-.66-.06-.32-.13-.53-.21-.82-.38-1.41-1.18-4.09-1.77-5.4-.65-1.47-1.37-2.82-2.07-4.22-.9-1.8-1.75-3.66-2.52-5.56-.37-.9-.72-1.95-1.09-2.83-.31-.74-.69-1.37-.99-2.1-.31-.73-.52-1.69-.85-2.28.05.25.1.5.15.76Z"/><path d="M114.96,188.66c-.18-2.94-.3-5.86-.54-8.83-.17-2.11-.36-5.31-.59-7.46-.37-3.46-.8-3.91-1.23-9.35-.12-1.92-.43-3.87-.51-5.73-.1-1.83.34-3.79.09-5.9-.1-.97-.28-1.89-.41-2.77-.06-.44-.12-.87-.15-1.29,0-.21-.02-.42-.02-.62,0-.11,0-.19,0-.32,0-.2.03-.43.04-.64l.04-.65c-.05-.15-.12-.28-.18-.42l-.05-.1h0c.08-.08-.11.08-.09.06h0s0-.01,0-.01l-.02-.03-.04-.05-.14-.18c-.09-.14-.27-.19-.47-.23-.4-.07-.85-.07-1.29-.08h-.73c-.93-.02-1.84,0-2.75.04-2.71.13-5.35.45-8.02.71-1.34.13-2.68.25-4.05.33-.68.04-1.37.06-2.06.08-1.04,0-2.09.02-3.18.03.02.11.03.23.05.35.16.99.32,2.02.48,3.07.11.74.22,1.49.29,2.18.39,4.36.61,8.83.94,13.23l.58,7.95c.12,1.51.32,2.99.47,4.5.14,1.39.07,2.98.28,4.25.18,1.1.37,2.23.6,3.27.29,1.31.65,3.03.99,4.21.04.15.1.34.17.59.03.14.09.26.07.4-.01.12-.07.4-.28.31.16.16.36-.1.4-.25.08-.18.05-.38.05-.54,0-.34-.02-.67-.03-.98-.02-.63-.03-1.21-.05-1.76-.03-1.1-.07-2.08-.15-3.1-.27-2.76-1.1-8.42-1.11-11.28-.04-2.25,0-7.42-.13-9.66-.15-2.53-.47-4.82-.67-7.37-.17-2.37-.24-3.33-.32-4.31-.04-.49-.07-.98-.15-1.65-.04-.33-.09-.71-.16-1.15-.02-.09-.03-.19-.05-.3-.01-.06-.03-.12-.04-.19h0c.18-.02.4-.03.65-.05.63-.04,1.33-.08,2.07-.13,1.49-.09,3.16-.19,4.82-.29,3.33-.19,6.67-.35,8.56-.4,1.27-.04,2.75-.06,2.68-.05.03,0,.07,0,.09.02v.09c-.01.06-.02.12-.01.18v.24s.03.34.03.34c.02.22.04.44.07.66.12.86.3,1.67.49,2.59.18.93.38,1.9.32,3.19-.16,2.97-.51,3.17-.16,6.3.24,1.8.49,5.21.77,6.97.31,1.96.69,3.83,1.03,5.75.43,2.48.79,5.02,1.12,7.57.16,1.21.28,2.61.48,3.79.17.99.43,1.88.62,2.85.1.49.17,1.04.25,1.57.05.53.3,1.07.02,1.33.28-.14.24-.56.22-.86Z"/><path d="M10.29,46.94c.13-.05.15-.05.27-.12.53-.31,1.36-.99,2.11-1.4.12-.23.48-.52,1.07-.86,1.05-.6,1.65-.89,2.76-1.29.8-.64.94-.64,1.75-.95.22-.09,1.4-.6,1.63-.67.18-.07.34-.14.53-.2.1-.03.68-.29.79-.31-.1,0-.38,0-.47,0-.27,0-.59.14-.86.19-.7.11-2.19.73-2.51.54-.54.19-.63.23-1.16.44-.21.07-.52.18-.76.26-.81.3-2.02,1.11-2.09.86-.76.4-.73.39-.87.48-.24.16-.31.18-.54.35-.43.29-.84.61-1.22.96-.17.15-.87.49-.9.73-.01.1.12.48.11.57.09,0,.26.48.36.45Z"/><path d="M12.71,53.61c.15-.07.16-.07.3-.16.61-.38,1.49-1.27,2.33-1.82.12-.26.52-.63,1.17-1.1,1.15-.81,1.8-1.23,3.01-1.89.83-.85.98-.88,1.86-1.38.21-.13,1.49-.95,1.72-1.1.19-.12.36-.23.56-.34.1-.06.71-.47.83-.53-.11.03-.42.1-.52.12-.3.07-.64.29-.93.41-.76.29-2.34,1.27-2.73,1.12-.58.33-.66.37-1.24.7-.24.12-.56.29-.82.42-.88.46-2.15,1.54-2.25,1.27-.82.55-.78.53-.94.65-.26.2-.33.24-.58.45-.46.38-.9.77-1.34,1.17-.19.18-.96.61-.99.88-.01.11.15.53.14.63.1,0,.31.53.42.48Z"/><path d="M17.57,57.03c.12-.08.14-.08.25-.17.48-.4,1.19-1.25,1.87-1.81.08-.25.39-.61.93-1.06.95-.8,1.49-1.21,2.56-1.81.7-.78.84-.81,1.61-1.25.21-.12,1.32-.83,1.54-.94.17-.1.33-.19.51-.28.1-.05.64-.4.75-.45-.11.01-.39.05-.48.06-.27.03-.58.23-.85.32-.69.22-2.11,1.1-2.46.96-.52.29-.6.34-1.1.65-.2.11-.5.28-.72.4-.77.45-1.85,1.49-1.96,1.25-.69.56-.65.54-.78.66-.21.21-.27.25-.47.46-.37.39-.73.78-1.04,1.22-.15.18-.75.69-.74.93,0,.1.19.43.19.52.09-.02.32.4.41.34Z"/><path d="M20.44,65.55c.13-.14.14-.15.25-.3.44-.67,1.14-1.93,1.94-2.75.07-.32.42-.83,1.05-1.51,1.13-1.17,1.79-1.77,3.08-2.72.86-1.07,1.03-1.13,1.98-1.83.23-.18,1.62-1.28,1.87-1.48.22-.16.41-.31.61-.46.11-.09.76-.64.89-.72-.13.05-.46.19-.58.23-.33.13-.7.42-1.02.6-.83.44-2.55,1.78-2.99,1.7-.63.45-.73.53-1.34.99-.27.21-.6.41-.87.62-.95.68-2.23,2.18-2.36,1.93-.82.84-.77.81-.92.99-.24.3-.32.36-.55.68-.42.57-.77,1.19-1.11,1.8-.16.27-.81,1.09-.76,1.38.02.12.28.46.3.56.1-.05.44.37.53.27Z"/><path d="M23.96,71.68c.13-.16.14-.17.25-.35.46-.76,1.07-2.2,1.8-3.22.05-.35.36-.95.94-1.76,1.05-1.42,1.67-2.15,2.94-3.33.78-1.25.97-1.33,1.91-2.17.25-.23,1.63-1.5,1.92-1.7.22-.18.41-.34.64-.51.12-.09.82-.69.96-.77-.14.05-.51.19-.63.24-.36.13-.75.47-1.1.67-.9.49-2.65,2.09-3.13,2.06-.63.56-.73.65-1.33,1.23-.27.25-.6.52-.86.79-.46.44-.99,1.09-1.41,1.62-.42.53-.75.91-.84.79-.76,1.01-.71.98-.85,1.19-.22.36-.29.43-.49.8-.38.66-.71,1.34-1.02,2.03-.14.3-.78,1.23-.7,1.54.03.13.35.48.38.59.1-.06.52.38.61.26Z"/><path d="M31.63,71.74c.09-.12.1-.13.17-.25.38-.54.61-1.6,1.01-2.38-.04-.25.05-.71.32-1.35.48-1.12.77-1.72,1.46-2.68.27-.99.4-1.07.92-1.76.13-.19.89-1.23,1.07-1.4.14-.15.26-.29.38-.42.07-.08.49-.56.58-.63-.1.04-.35.15-.43.19-.26.1-.49.38-.71.54-.6.4-1.58,1.74-1.98,1.74-.35.47-.41.55-.74,1.04-.15.21-.34.44-.48.66-.51.73-.97,2.14-1.21,1.97-.38.8-.35.76-.41.93-.1.27-.13.34-.21.62-.14.51-.24,1.03-.34,1.54-.08.21-.29.95-.18,1.16.05.09.32.3.34.37.07-.05.37.2.42.11Z"/><path d="M35.98,76.62c.08-.14.1-.15.17-.3.23-.65.38-1.85.64-2.77-.08-.27-.02-.78.18-1.53.35-1.31.58-2.01,1.11-3.23.1-1.14.2-1.26.56-2.16.08-.22.56-1.6.65-1.86.08-.2.14-.38.23-.58.05-.11.27-.77.33-.89-.07.09-.27.32-.33.4-.19.23-.32.6-.48.86-.43.66-1.04,2.35-1.43,2.47-.25.59-.28.69-.52,1.28-.11.26-.26.55-.36.81-.37.89-.65,2.48-.89,2.34-.26.92-.25.88-.29,1.07-.06.31-.09.38-.15.69-.09.57-.2,1.13-.21,1.71-.02.25-.27,1.07-.1,1.28.07.09.39.28.43.36.07-.07.42.16.47.06Z"/><path d="M40.66,81.3c.06-.16.07-.18.1-.35.15-.74.24-2.07.5-3.1-.09-.29-.05-.86.12-1.69.3-1.47.5-2.25.97-3.64.05-1.25.15-1.39.47-2.41.07-.25.49-1.8.57-2.09.07-.23.12-.43.2-.66.04-.12.23-.87.28-1-.07.1-.26.38-.32.47-.18.27-.29.69-.44.99-.39.76-.93,2.67-1.32,2.84-.22.68-.24.76-.46,1.44-.1.27-.22.63-.33.92-.34,1-.55,2.76-.8,2.62-.22,1.02-.21.98-.24,1.19-.05.34-.08.43-.12.77-.08.62-.1,1.26-.13,1.88-.02.28-.26,1.18-.11,1.4.06.09.42.29.48.37.07-.08.52.16.56.05Z"/><path d="M47.76,81.6c.03-.14.04-.15.06-.29.06-.61,0-1.68.01-2.54-.13-.22-.19-.67-.22-1.35-.04-1.21-.06-1.86-.01-3.04-.29-.97-.27-1.1-.3-1.96,0-.23-.19-1.49-.22-1.73-.02-.2-.05-.38-.07-.55-.01-.1-.14-.71-.14-.82-.02.1-.07.36-.09.45-.05.25,0,.59-.01.86-.05.68.1,2.25-.19,2.48,0,.57,0,.63.02,1.2,0,.25-.03.52-.03.77-.02.83.17,2.22-.08,2.17.01.83,0,.79.02.95.02.27.02.33.04.61.03.5.1.99.18,1.48.03.22-.05.95.1,1.11.06.06.4.17.46.23.05-.07.47.06.49-.03Z"/><path d="M153.03,71.17c.06.32-.13.73-.12,1.04,0,.22.04.47-.03.68-.1.34-.13.32-.17.9-.02.42-.49.97-.58,1.36-.09.37-.08.62-.28.93-.31.46-.89.55-.78,1.29.02.18-.15.27-.25.37-.33.37-.57.65-.89,1l-.21.23c-.15.3-.3.6-.42.92-.14.36-.53.43-.39.77.12.3-.5.71-.67.9-.27.32-.35.66-.61.99-.27.34-.59.65-.87.99-.16.2.05.33-.12.52-.14.16-.52.43-.6.64-.05.17-.22.49-.36.6-.09.07-.21.11-.26.21-.02.09-.35.2-.43.19-.22-.04-.63-.32-.73-.76-.03-.21.22-.43.23-.61,0-.32.59-.73.64-1,.04-.19.51-.78.63-.91.25-.29.56-.43.7-.79.34-.88.37-.74.71-1.39.14-.27.38-.43.5-.7.35-.77-.13-.4.44-.84.03-.22.38-.99.44-1.09.13-.2.35.12.58-.48.15-.44.16-.34.43-.71.21-.3.71-1.07.84-1.42.19-.48.29-.33.47-.82.1-.28.3.05.43-.21.08-.15.01-.64.15-.76.15-.14.22-.5.38-.63.22-.17.26-.35.39-.57.06-.1.07-.24.16-.33.07-.08.23-.33.35-.4.1-.07.1-.19.28-.22,0,.03,0,.07.01.1Z"/><path d="M182.25,74.09c.04-.08.05-.09.07-.17.12-.35-.1-.9-.11-1.36-.16-.09-.25-.32-.33-.7-.16-.67-.26-1.06-.57-1.75-.59-.33-.6-.38-.94-.73-.09-.11-.72-.45-.84-.5-.1-.05-.18-.09-.27-.14-.05-.03-.39-.11-.44-.15.03.05.09.19.11.25.06.15.24.21.33.32.24.27.92.76.73,1.09.16.21.21.24.33.47.06.1.08.23.12.34.12.33.44.96.15,1,.07.4.06.39.08.47.03.14.04.16.08.31.08.26.15.51.27.76.03.11,0,.52.21.57.08.02.45.02.52.04.05-.05.5-.04.52-.1Z"/><path d="M178.14,76.63s.06-.05.11-.06c0-.02.04-.03.05-.04.03-.03.08-.06.08-.11.15-.45-.07-1.22,0-1.84-.16-.15-.24-.48-.28-.98-.1-.89-.13-1.41-.43-2.36-.64-.58-.66-.63-1.02-1.16-.1-.14-.74-.8-.87-.92-.1-.1-.18-.19-.27-.29-.06-.05-.41-.34-.45-.41.03.06.09.25.1.32.04.19.22.37.31.54.2.45.96,1.32.74,1.64.18.33.23.38.36.71.05.15.07.32.09.47.09.49.31,1.43-.01,1.42,0,.57-.02.56,0,.67.02.2.02.23.03.44.04.35.1.7.16,1.05,0,.16-.11.68.11.79.1.04.62.12.66.16.02-.02.16-.01.28,0,.11,0,.2.02.26-.02Z"/><path d="M173.31,77.72s.07-.04.12-.05c.01-.02.02-.03.03-.04.02-.03.03-.05.05-.1.18-.45.05-1.28.09-1.92-.15-.16-.23-.49-.3-.99-.13-.88-.22-1.34-.3-2.2-.44-.63-.42-.72-.56-1.32-.02-.17-.43-1.05-.57-1.18-.09-.12-.17-.22-.28-.33-.05-.08-.48-.29-.56-.31.05.05.15.22.17.29.07.16.25.3.32.48.19.41.51,1.47.22,1.71.06.39.1.45.15.84.02.17.02.37.04.54.05.58.34,1.52.04,1.51.04.56.02.54.04.65.02.19.03.22.05.41.04.33.11.66.12.99,0,.15-.22.62,0,.75.08.05.53.19.59.24.03-.02.17.01.28.04.12.03.21.05.27.02Z"/><path d="M168.91,73.59c.01-.09.02-.09,0-.17-.05-.36-.48-.8-.71-1.18-.18,0-.37-.13-.61-.36-.42-.4-.66-.59-1.03-.98-.54-.03-.55-.11-.87-.34-.09-.06-.63-.3-.72-.35-.08-.04-.16-.06-.23-.11-.04-.02-.33-.11-.36-.14.02.05.07.17.09.21.05.12.2.18.27.28.19.25.81.62.68.95.18.18.22.19.4.37.08.08.15.19.22.28.24.3.82.54.6.75.24.24.22.23.27.27.08.07.09.08.18.16.15.12.3.24.43.37.07.06.02.36.2.34.08,0,.5-.12.58-.11.05-.05.6-.17.61-.22Z"/><path d="M108.73,168.92c-.14-.27-.41-.5-.66-.69-.54-.41-1.44.33-1.71.77-.11.18-.19.37-.2.58-.01.44.33.84.75.97s.88.04,1.28-.15c.21-.1.41-.24.53-.44.19-.31.17-.72,0-1.04Z"/><path class="cls-4" d="M108.84,168.87s-.03.08-.05.12c-.02.04-.06.08-.09.12-.02.02-.04.04-.04.05.04.14.04.28.03.42,0,.12-.01.27-.16.31-.03,0-.07,0-.1,0-.03,0,.05.12-.01.08-.06-.04-.04,0-.05.04,0,.06-.11,0-.15.03-.07.04-.13.1-.2.16-.04.04-.07.12-.12.14-.05.02-.09.08-.14.15-.04.06-.12-.02-.18-.09-.2-.28-.31-.06-.45-.25,0-.01-.03.04-.04.03-.01,0-.02-.03-.04,0-.08.1-.11.05-.13,0-.03-.05-.03-.12-.04-.18,0-.09-.09-.07-.15-.11-.04-.03,0-.12-.07-.12-.04,0-.1,0-.11-.03-.02-.02-.01-.05-.04-.07-.02-.02-.1-.04-.11-.07-.02-.06.09-.09.11-.14.02-.04-.03-.13.03-.18.04-.03.06-.06.1-.09.05-.03.09-.06.05-.14-.02-.05,0-.06-.02-.11-.02-.05-.05-.11-.03-.13.05-.05.14-.07.22-.09.05-.02.09-.03.14-.04.06-.02.14,0,.18-.03.02-.01.04-.04.05-.07.01-.02.01-.06,0-.12-.02-.09.03-.08.07-.07.04.01.07.01.1.03.03.01.13-.1.16-.1.13.02.12.15.23,0,.03-.03.07-.07.11-.08.04,0,.05.03.08.05.04.02.09.06.13.09.02.02.04.04.05.07,0,.02,0,.05.02.06.01,0,.04-.01.06-.02.08-.02.08.07.11.1.05.05.08.09.15.16.02.03.04.04.1.04.05,0,.1,0,.13,0,.04,0,.06.04.1.04,0,0,.01-.03.01-.03,0-.02,0-.03,0-.05,0-.04,0-.07,0-.1,0-.07-.01-.12-.03-.17-.03-.09-.1-.15-.15-.21-.05-.06-.08-.13-.14-.17-.07-.04-.14-.07-.2-.12-.04-.04-.12-.11-.22-.18-.12-.06-.25-.11-.38-.11-.19,0-.35.05-.49.11-.09.04-.17.07-.25.12-.11.06-.19.16-.29.22-.1.06-.21.12-.31.2-.05.04-.11.09-.15.15-.04.04-.04.11-.09.15-.07.05-.12.13-.17.2-.03.04-.03.09-.06.13-.05.08-.03.2-.06.29-.04.08-.17.18-.07.29.05.06-.04.1-.01.16.04.08.07.16.13.23.06.07.06.16.11.23.1.13.18.27.3.37.03.03.05.08.08.12.03.04.09.03.13.06.04.03.11-.03.14,0,.06.05.14.1.21.13.22.1.47.2.72.18.12,0,.23-.04.33-.08.25-.09.45-.24.67-.38l.08-.05c.13-.1.16-.29.28-.41.05-.05.11-.11.14-.18.04-.1.06-.2.06-.3,0-.12-.04-.23-.05-.33-.02-.15,0-.31-.1-.44-.01-.02-.03-.03-.06-.04-.02-.01-.01-.04-.09-.01-.01,0-.03.02-.03.02Z"/><path d="M74.75,142.4c-.02.47-.06.94-.15,1.4-.07.38.01.77-.03,1.16-.04.39-.16.76-.24,1.14-.06.26.12.47-.15.67-.2.15-.05.39-.09.59-.05.22-.13.43-.24.63-.03.05-.22.11-.26.09-.14-.07-.29-.16-.35-.26-.16-.26-.44-.71-.37-.97.04-.17.03-.33.08-.5.07-.24-.03-.51.03-.74.08-.31.23-.59.28-.9.06-.36.11-.71.19-1.07.15-.71.34-1.42.74-2.08.03-.04.21-.05.33-.04.23.02.23.66.23.76v.13Z"/><path d="M79.03,145.17c-.09.64-.22,1.27-.39,1.88-.14.51-.14,1.04-.26,1.56-.12.52-.32,1.01-.49,1.52-.12.34,0,.64-.3.88-.24.19-.14.51-.23.78-.1.28-.24.56-.4.82-.04.07-.25.13-.28.1-.12-.11-.25-.24-.28-.38-.09-.36-.26-.98-.13-1.32.09-.23.11-.43.2-.65.12-.31.08-.67.19-.98.14-.4.35-.76.47-1.17.13-.47.26-.93.39-1.41.28-.94.58-1.87,1.07-2.75.03-.06.22-.07.34-.06.23.03.14.89.12,1.02l-.02.17Z"/><path d="M82.58,149.68c-.06.53-.15,1.06-.27,1.57-.11.43-.06.87-.13,1.3-.08.43-.22.85-.34,1.28-.08.29.08.53-.2.75-.22.17-.08.43-.14.66-.06.24-.17.48-.29.71-.03.06-.23.12-.26.09-.13-.08-.28-.19-.33-.31-.14-.3-.38-.81-.29-1.11.06-.19.06-.37.13-.56.09-.26.01-.57.09-.84.1-.34.28-.65.36-1,.09-.4.18-.8.28-1.2.21-.8.47-1.58.92-2.31.03-.05.22-.05.33-.04.23.03.17.75.16.86l-.02.14Z"/><path d="M71.66,157.5c-.04.48-.11.95-.24,1.41-.1.38-.06.78-.15,1.17-.09.39-.25.75-.38,1.12-.09.25.04.49-.25.65-.22.12-.11.38-.19.57-.09.21-.21.41-.35.59-.04.05-.24.07-.27.04-.12-.1-.25-.22-.29-.32-.11-.29-.3-.77-.19-1.01.07-.16.08-.31.16-.47.1-.22.04-.5.13-.72.11-.29.3-.54.38-.84.09-.34.18-.67.28-1.03.2-.69.43-1.37.83-2.01.03-.04.22-.05.33-.04.23.02.22.67.21.77v.13Z"/><path d="M77.87,159.03c.04.32.05.64.01.95-.03.26.09.52.08.79,0,.26-.09.52-.15.78-.04.18.15.32-.1.45-.19.1-.02.26-.06.4-.04.15-.11.29-.21.42-.02.03-.21.06-.25.05-.14-.06-.29-.13-.36-.2-.17-.18-.47-.49-.42-.66.03-.11.01-.21.05-.32.05-.15-.07-.33-.03-.48.05-.2.18-.38.2-.58.03-.23.05-.44.08-.7.07-.47.18-.93.47-1.39.02-.03.2-.05.32-.06.23,0,.32.42.33.48v.08Z"/><path d="M84.68,160.15c.06.53.1,1.05.1,1.58,0,.44.17.85.22,1.27.05.43.03.87.06,1.3.02.3.24.47.04.76-.15.22.07.43.09.66.02.25,0,.5-.03.75,0,.06-.17.19-.21.18-.15-.03-.33-.08-.42-.17-.24-.23-.64-.64-.66-.95-.01-.21-.06-.37-.07-.58,0-.28-.17-.56-.18-.84,0-.36.07-.72.05-1.08-.02-.42-.05-.83-.05-1.25,0-.84.07-1.68.37-2.48.02-.06.2-.09.32-.1.23-.01.32.69.34.8l.02.14Z"/><path d="M85.58,140.99c.06.35.1.7.09,1.05,0,.29.14.57.17.86.02.29-.02.58-.03.87,0,.2.2.33-.03.51-.17.14.02.29.02.45,0,.17-.06.34-.12.5-.02.04-.2.11-.24.1-.15-.03-.31-.08-.39-.14-.2-.17-.55-.46-.54-.66.01-.13-.02-.24,0-.38.03-.18-.12-.37-.1-.55.02-.24.12-.47.12-.7,0-.27-.01-.54,0-.81.02-.55.09-1.09.37-1.63.02-.04.2-.07.32-.08.23-.02.34.45.36.52l.02.09Z"/><path d="M91.63,135.62c.06.16.09.32.08.48,0,.14.14.26.16.39.02.13-.03.27-.04.4-.01.09.19.15-.03.24-.17.07.02.13.01.2,0,.08-.06.16-.13.23-.02.02-.2.06-.24.06-.15-.01-.31-.03-.39-.05-.2-.07-.55-.2-.53-.29.01-.06-.02-.11,0-.17.03-.09-.12-.17-.1-.25.02-.11.13-.22.13-.33,0-.12,0-.25,0-.38.03-.25.1-.51.38-.76.02-.02.2-.04.32-.04.23-.01.34.2.35.23l.02.04Z"/><path d="M97.62,134.3c.17.47.31.96.39,1.45.07.41.29.77.38,1.17.09.4.11.82.16,1.23.03.28.26.44.07.72-.14.22.08.41.1.63.02.23,0,.48-.04.72-.01.06-.18.18-.22.17-.15-.03-.32-.08-.41-.16-.23-.22-.62-.58-.64-.87-.01-.19-.07-.33-.08-.52-.01-.26-.19-.49-.21-.75-.03-.33.02-.66-.04-.98-.07-.37-.13-.73-.2-1.12-.12-.75-.21-1.51-.12-2.31,0-.05.18-.14.28-.17.22-.07.48.55.51.65l.05.13Z"/><path d="M103.54,136.55c.12.33.23.66.29,1,.05.28.26.51.35.78.09.27.11.56.17.84.04.19.27.26.1.49-.13.18.1.27.13.42.04.16.04.33.02.51,0,.04-.16.16-.2.17-.15.01-.32.02-.41-.02-.24-.1-.66-.29-.7-.49-.03-.13-.09-.23-.11-.37-.02-.19-.21-.33-.24-.52-.04-.24,0-.49-.05-.72-.06-.27-.13-.53-.18-.8-.09-.54-.13-1.1.05-1.68.01-.04.19-.1.3-.13.22-.05.41.38.44.45l.03.09Z"/><path d="M110.68,136.13c.13.32.24.65.31.99.06.28.27.51.36.78.09.27.12.56.19.84.04.19.27.25.11.49-.13.18.1.27.14.42.04.16.04.33.03.51,0,.04-.15.17-.19.17-.15.02-.32.02-.41-.02-.25-.1-.67-.28-.71-.48-.03-.13-.09-.23-.11-.37-.03-.19-.22-.33-.25-.51-.04-.24,0-.49-.06-.72-.07-.27-.14-.53-.19-.8-.1-.54-.15-1.1.02-1.69.01-.04.19-.11.3-.14.22-.06.42.37.45.44l.04.09Z"/><path d="M117.57,135.86c.11.38.19.76.22,1.16.02.32.2.62.24.94.05.32.01.65.01.98,0,.22.21.36-.01.57-.17.16.03.32.02.5,0,.18-.06.38-.13.55-.02.05-.2.12-.24.11-.15-.04-.31-.09-.39-.16-.2-.19-.55-.5-.53-.72.01-.14-.03-.26-.01-.41.02-.2-.13-.39-.12-.59.01-.25.1-.5.08-.76-.02-.29-.04-.56-.07-.87-.03-.59-.03-1.17.15-1.8.01-.04.19-.1.3-.13.22-.05.41.45.43.53l.03.1Z"/><path d="M123.36,133.57c.11.37.19.75.22,1.13.02.32.2.61.24.92.05.31.02.64.02.96,0,.22.21.35,0,.56-.17.16.03.32.03.49,0,.18-.05.37-.12.55-.02.05-.19.12-.24.11-.15-.03-.31-.08-.39-.15-.2-.18-.56-.48-.54-.7,0-.14-.03-.26-.02-.4.02-.19-.13-.38-.13-.58,0-.25.09-.5.08-.75-.02-.29-.04-.55-.07-.86-.03-.58-.03-1.16.16-1.77.01-.04.19-.1.3-.13.22-.05.41.44.43.52l.03.1Z"/><path d="M123.93,146.51c.03.59.03,1.19-.02,1.78-.04.49.09.97.08,1.46s-.08.98-.13,1.47c-.03.33.16.57-.08.86-.19.22,0,.49-.03.75-.02.28-.09.56-.17.83-.02.07-.21.17-.25.15-.14-.07-.3-.16-.37-.28-.19-.3-.5-.83-.46-1.17.03-.22,0-.41.03-.63.04-.31-.08-.63-.04-.93.05-.39.17-.77.19-1.16.03-.45.06-.89.08-1.36.08-.91.21-1.82.53-2.71.02-.06.21-.1.32-.11.23-.01.29.78.3.91v.16Z"/><path d="M115.85,148.6c0,.53-.02,1.06-.07,1.58-.04.44.08.86.09,1.29,0,.43-.05.87-.07,1.3-.01.3.19.49-.03.76-.17.21.03.44.03.67,0,.25-.04.5-.09.75-.01.06-.19.17-.23.16-.15-.04-.32-.11-.4-.21-.22-.25-.58-.7-.57-1.01,0-.21-.03-.38-.01-.58.03-.28-.12-.57-.09-.85.03-.36.14-.71.16-1.08.02-.42.03-.84.08-1.25.09-.83.25-1.67.64-2.44.03-.05.21-.07.33-.06.23.01.24.73.24.84v.14Z"/><path d="M118.92,154.34c.14.22.25.44.31.68.06.2.26.34.34.52.09.19.11.4.16.6.03.14.26.16.08.35-.13.15.08.19.11.29.03.11.02.25,0,.38,0,.03-.16.14-.2.15-.15.03-.31.05-.4.03-.23-.05-.62-.13-.65-.27-.02-.09-.08-.16-.09-.25-.02-.13-.19-.21-.22-.34-.03-.17.01-.35-.04-.51-.06-.18-.13-.36-.17-.55-.09-.38-.15-.77,0-1.22,0-.03.18-.11.28-.16.21-.09.42.19.45.24l.04.06Z"/><path d="M122.53,155.6c.22.32.41.64.56.99.13.29.39.49.54.76.15.27.25.57.37.86.08.2.32.23.21.51-.09.21.15.27.22.43.07.16.1.35.12.54,0,.05-.12.2-.16.21-.14.04-.31.07-.41.04-.26-.07-.7-.2-.78-.41-.05-.14-.14-.23-.18-.37-.06-.19-.28-.31-.35-.5-.09-.24-.11-.51-.22-.75-.13-.27-.26-.53-.38-.81-.23-.55-.42-1.12-.42-1.76,0-.04.15-.14.26-.2.2-.1.52.31.57.38l.06.08Z"/><path d="M118.69,145.79c.11.24.19.49.23.74.03.21.22.38.28.59s.06.42.08.64c.02.15.23.2.04.37-.15.14.06.21.07.32.01.12,0,.25-.05.39-.01.03-.18.12-.22.12-.15,0-.32,0-.4-.03-.22-.08-.6-.22-.61-.37,0-.1-.06-.17-.06-.27,0-.14-.17-.24-.17-.38,0-.17.06-.36.03-.53-.04-.2-.08-.39-.11-.59-.05-.4-.05-.81.14-1.25.01-.03.19-.09.3-.12.22-.06.39.26.42.31l.03.06Z"/><path d="M116.27,158.99c.09.28.15.56.16.85.01.24.18.45.23.68.04.23.02.47.02.71,0,.16.22.25,0,.42-.16.13.04.23.05.36,0,.13-.03.28-.09.42-.01.04-.19.11-.23.11-.15-.01-.32-.03-.4-.08-.21-.12-.58-.32-.58-.49,0-.11-.04-.2-.03-.31.01-.15-.14-.29-.14-.44,0-.19.09-.39.07-.58-.02-.22-.05-.44-.05-.66-.01-.44.02-.89.25-1.36.02-.03.2-.08.31-.09.23-.04.37.33.39.39l.02.07Z"/><path d="M86.46,173.05c.06.21.1.41.09.62,0,.17.16.33.19.49.03.17,0,.34,0,.52,0,.12.21.17,0,.3-.16.11.04.17.05.26,0,.1-.03.21-.08.32-.01.03-.18.1-.22.1-.15,0-.31.01-.4-.02-.22-.07-.59-.19-.59-.33,0-.09-.04-.15-.03-.24.01-.12-.14-.22-.14-.34,0-.15.1-.31.09-.46,0-.17-.03-.35-.02-.52.01-.35.09-.7.37-1.04.02-.02.2-.04.32-.04.23,0,.33.27.35.32l.02.06Z"/><path d="M87.53,186.75c.05.31.08.62.07.94-.01.26.14.5.17.76.03.26-.01.51-.02.77,0,.18.2.28-.01.45-.17.13.03.26.03.39,0,.15-.04.3-.1.45-.01.04-.19.11-.23.11-.15-.02-.32-.05-.4-.1-.21-.14-.58-.38-.57-.57,0-.12-.03-.22-.02-.35.02-.17-.13-.33-.12-.5.02-.22.11-.43.11-.65,0-.25-.01-.5,0-.74.03-.5.12-1,.41-1.47.02-.03.2-.05.32-.06.23,0,.32.42.33.48v.08Z"/><path d="M77.18,179.14c.11.63.17,1.26.18,1.9,0,.53.16,1.03.19,1.56.02.53-.04,1.06-.07,1.58-.03.36.17.61-.07.92-.18.24-.01.53-.04.81-.03.3-.1.6-.2.89-.02.07-.21.18-.25.16-.14-.08-.3-.18-.36-.3-.17-.33-.48-.88-.44-1.23.03-.23,0-.43.03-.67.04-.32-.09-.66-.06-.98.03-.41.14-.81.14-1.23,0-.48-.01-.94-.02-1.44,0-.96.01-1.93.2-2.9.01-.07.19-.13.3-.16.23-.05.41.79.43.92l.03.17Z"/><path d="M65.62,178.65c-.09.4-.2.79-.35,1.17-.13.31-.1.66-.2.98-.1.32-.26.62-.4.93-.09.21.04.42-.24.54-.22.09-.1.32-.17.48-.08.17-.19.34-.32.49-.03.04-.23.05-.26.03-.12-.09-.26-.2-.3-.3-.12-.26-.32-.7-.22-.91.07-.14.08-.27.15-.41.1-.19.04-.44.14-.63.12-.25.31-.46.41-.71.11-.29.22-.59.34-.87.25-.58.54-1.14,1.02-1.62.03-.03.22,0,.33.03.22.06.13.61.11.7l-.02.11Z"/><path d="M55.76,181.83c-.13.36-.28.71-.47,1.04-.15.28-.15.61-.27.9-.12.29-.29.55-.44.83-.1.19.03.4-.25.49-.22.07-.11.3-.18.45-.08.16-.19.31-.32.45-.03.04-.23.04-.26.02-.12-.09-.26-.2-.3-.29-.12-.25-.31-.68-.21-.89.07-.13.09-.26.17-.39.11-.18.06-.42.16-.6.13-.23.33-.42.45-.65.14-.27.26-.54.41-.81.3-.53.66-1.02,1.2-1.4.04-.03.21.04.31.09.2.1.05.6.02.67l-.03.1Z"/><path d="M50.93,190.91c.01.11,0,.21-.07.29-.05.07.04.2,0,.29-.03.08-.12.12-.19.18-.04.04.1.19-.12.09-.16-.07-.04.07-.07.1-.04.03-.11.03-.19.02-.02,0-.17-.11-.2-.13-.11-.1-.22-.22-.27-.28-.12-.16-.35-.42-.31-.43.03-.01.01-.05.05-.06.05-.01-.05-.12-.01-.14.05-.02.16,0,.19-.04.03-.04.06-.09.1-.13.09-.08.2-.14.52-.15.02,0,.2.06.3.1.22.07.26.23.27.26v.03Z"/><path d="M65.07,186.28c0,.25-.04.49-.13.72-.07.19,0,.42-.06.62-.06.2-.19.37-.29.54-.07.12.07.29-.19.3-.2,0-.08.19-.14.28-.07.09-.17.17-.29.23-.03.02-.21-.04-.24-.06-.11-.1-.24-.21-.28-.28-.11-.2-.32-.52-.25-.62.05-.06.05-.14.11-.2.08-.09,0-.25.06-.34.08-.12.23-.2.29-.34.06-.15.11-.28.18-.46.14-.31.3-.6.65-.88.02-.02.21,0,.32.01.23.03.26.37.26.42v.07Z"/><path d="M66.53,163.43c-.08.29-.19.58-.34.85-.12.22-.1.5-.2.73-.1.23-.25.44-.38.65-.09.15.04.35-.23.38-.21.02-.1.23-.17.35-.07.12-.18.23-.31.32-.03.02-.21-.01-.25-.04-.11-.1-.24-.22-.28-.31-.11-.23-.3-.62-.2-.76.06-.09.07-.19.14-.28.09-.12.04-.33.13-.46.11-.16.29-.29.38-.46.11-.2.2-.41.32-.6.24-.4.51-.77.98-1.07.03-.02.21.03.32.07.22.08.13.48.11.55l-.02.08Z"/><path d="M74.55,164.09c-.04.13-.09.23-.18.32-.07.07-.02.23-.06.32-.04.09-.14.14-.22.2-.05.05.09.19-.13.12-.17-.05-.04.09-.08.13-.04.04-.11.06-.2.08-.02,0-.19-.07-.22-.09-.12-.08-.25-.18-.31-.24-.14-.15-.37-.43-.31-.49.04-.04.04-.09.08-.12.06-.04-.01-.18.05-.23.08-.06.21-.07.27-.14.07-.08.13-.17.21-.24.16-.14.37-.25.71-.21.02,0,.17.12.25.2.17.15.14.34.13.37v.03Z"/><path d="M133.23,174.3c.24.28.47.55.68.84.18.24.48.36.69.56.21.2.4.43.6.64.15.14.37.07.38.35,0,.23.25.16.37.26.13.1.25.24.36.39.03.04,0,.23-.03.26-.11.11-.24.22-.34.25-.27.08-.74.17-.92,0-.12-.1-.24-.16-.35-.27-.15-.15-.4-.19-.55-.34-.19-.2-.3-.46-.49-.66-.21-.23-.42-.46-.6-.72-.37-.51-.65-1.09-.68-1.74,0-.04.14-.16.24-.22.2-.11.52.26.58.31l.06.07Z"/><path d="M135.51,180.39c.17.17.32.34.45.54.11.16.34.2.48.33.14.12.24.29.37.43.09.09.28-.01.23.24-.03.2.16.1.24.17.08.07.15.17.2.29.01.03-.04.21-.06.24-.09.11-.21.24-.29.28-.21.11-.6.26-.72.15-.08-.07-.17-.1-.24-.18-.09-.11-.3-.1-.4-.22-.12-.15-.18-.35-.3-.49-.14-.16-.29-.32-.4-.5-.24-.36-.4-.78-.33-1.26,0-.03.16-.13.26-.19.2-.11.44.12.48.16l.04.05Z"/><path d="M122.53,173.7c.13.1.24.21.31.34.06.11.25.13.33.23s.11.23.16.35c.04.08.23.01.09.21-.11.15.08.1.11.16.03.07.03.16,0,.25,0,.03-.14.15-.17.17-.13.07-.28.14-.36.16-.21.05-.56.13-.59.05-.02-.06-.07-.08-.09-.14-.02-.08-.18-.07-.21-.15-.03-.1,0-.24-.05-.33-.06-.1-.13-.2-.18-.31-.1-.22-.17-.46-.06-.81,0-.02.15-.14.24-.2.19-.13.38-.02.41,0l.04.02Z"/><path d="M123.91,179.23c.24.31.47.62.68.95.17.28.47.44.67.68.2.24.37.52.56.77.13.17.38.15.34.44-.03.23.23.22.34.35.12.14.21.31.3.48.02.05-.05.23-.08.25-.13.08-.28.16-.39.16-.28,0-.77,0-.92-.19-.1-.12-.21-.2-.3-.33-.12-.18-.37-.26-.5-.44-.16-.23-.24-.51-.41-.73-.19-.26-.38-.51-.54-.79-.33-.55-.59-1.15-.63-1.82,0-.05.14-.16.24-.22.2-.12.53.29.59.36l.06.08Z"/><path d="M124.97,186.45c.08.07.14.15.16.24.02.08.18.08.23.14.05.06.04.15.06.22.02.05.2-.04.04.13-.12.13.06.05.07.09.02.04,0,.11-.02.19,0,.02-.13.15-.16.18-.12.09-.25.18-.32.21-.19.09-.52.21-.55.13-.02-.05-.07-.06-.08-.12-.01-.07-.17-.06-.19-.13-.02-.09.03-.22,0-.3-.04-.09-.09-.18-.11-.28-.05-.2-.03-.42.2-.67.02-.02.19-.07.3-.11.22-.06.35.03.37.05l.02.02Z"/><path d="M80.78,136.37c.04.44.03.88-.03,1.32-.05.36.03.73-.02,1.09-.05.36-.18.71-.29,1.06-.08.24.07.46-.21.61-.22.11-.1.35-.17.53-.08.19-.2.38-.34.54-.04.04-.23.05-.27.03-.12-.09-.25-.21-.29-.31-.11-.27-.32-.71-.22-.92.06-.14.07-.27.13-.42.09-.2,0-.44.08-.64.09-.25.25-.49.3-.76.05-.31.1-.6.16-.93.11-.62.23-1.25.5-1.89.02-.04.2-.08.32-.09.23-.02.33.56.34.66v.12Z"/><path d="M92.03,141.86c-.06-.2-.09-.39-.08-.59.01-.16-.14-.32-.16-.48-.02-.16.03-.33.05-.49.01-.11-.19-.18.03-.29.17-.08-.02-.16,0-.25,0-.09.06-.19.13-.28.02-.02.2-.07.24-.06.15.02.31.04.39.08.2.09.55.25.53.37-.01.08.02.14,0,.21-.03.1.11.21.09.31-.02.13-.13.26-.13.4,0,.15,0,.3-.01.46-.03.31-.11.61-.39.92-.02.02-.2.04-.32.05-.23.01-.33-.25-.35-.29l-.02-.05Z"/><path d="M106.48,131.05c.1.26.18.52.21.78.03.22.21.41.26.62s.04.44.06.66c.01.15.23.21.03.39-.15.14.05.22.06.33.01.13-.02.27-.06.4-.01.04-.18.13-.22.13-.15,0-.31,0-.4-.03-.22-.09-.59-.24-.6-.41,0-.11-.05-.19-.05-.29,0-.15-.16-.27-.16-.41,0-.19.07-.38.04-.57-.03-.21-.07-.42-.09-.63-.04-.43-.03-.86.18-1.31.01-.03.19-.08.31-.09.22-.04.39.3.41.36l.03.07Z"/></g></mask></defs><g id="Layer_1_copy"><g class="cls-1"><g id="Chantrelle_Right"><path class="cls-3" d="M8.77,37.53c-2.55,4.25-5.19,9.29-3.45,13.93,1.24,3.31,4.39,5.42,6.9,7.91,3.67,3.64,6.11,8.31,9.34,12.35,3.3,4.12,7.44,7.56,12.09,10.06,1.2.64,2.46,1.23,3.82,1.32,1.09.07,2.18-.19,3.24-.45,2.31-.56,4.63-1.12,6.94-1.68,1.92-.47,3.9-.96,5.51-2.1,4.18-2.97,4.42-9.29,2.39-14-2.03-4.71-5.73-8.47-8.43-12.82-2.76-4.46-4.48-9.57-7.71-13.71-3.72-4.77-9.45-7.76-15.41-8.54-2.99-.39-6.14-.26-9.05.57-3.49,1.01-4.4,4.16-6.19,7.15Z"/><path class="cls-3" d="M37.84,83.27c-.13,0-.25,0-.38-.01-1.39-.09-2.68-.7-3.88-1.34-4.64-2.49-8.84-5.99-12.13-10.1-1.26-1.57-2.42-3.26-3.53-4.9-1.75-2.57-3.57-5.22-5.8-7.43-.62-.61-1.29-1.21-1.93-1.79-1.99-1.79-4.06-3.65-5-6.17-1.77-4.71.86-9.73,3.46-14.06h0c.37-.62.71-1.25,1.03-1.86,1.24-2.34,2.42-4.55,5.25-5.36,2.76-.79,5.91-.99,9.12-.58,6.23.81,11.88,3.94,15.51,8.59,1.92,2.47,3.33,5.32,4.7,8.07.93,1.89,1.9,3.84,3.02,5.65,1.02,1.64,2.2,3.23,3.34,4.76,1.88,2.53,3.83,5.14,5.09,8.08,2.04,4.74,1.85,11.13-2.44,14.18-1.65,1.17-3.73,1.68-5.56,2.13-2.31.56-4.63,1.12-6.94,1.68-.95.23-1.92.46-2.9.46ZM8.9,37.61c-2.57,4.28-5.16,9.22-3.44,13.8.93,2.46,2.96,4.29,4.92,6.06.65.58,1.32,1.19,1.94,1.8,2.25,2.24,4.07,4.9,5.83,7.48,1.11,1.63,2.27,3.32,3.52,4.88,3.27,4.08,7.43,7.55,12.04,10.02,1.16.63,2.43,1.22,3.76,1.3,1.07.07,2.15-.19,3.19-.44,2.31-.56,4.63-1.12,6.94-1.68,1.89-.46,3.85-.94,5.46-2.08,4.17-2.96,4.33-9.19,2.34-13.82-1.25-2.91-3.19-5.51-5.06-8.02-1.15-1.54-2.33-3.13-3.36-4.78-1.13-1.82-2.1-3.78-3.03-5.67-1.36-2.74-2.76-5.58-4.66-8.02-3.58-4.59-9.16-7.68-15.31-8.48-3.16-.41-6.27-.22-8.99.57-2.71.78-3.8,2.83-5.07,5.21-.33.61-.66,1.25-1.04,1.87h0Z"/><path class="cls-3" d="M141.94,72.96c-.69.72-1.41,1.49-1.65,2.46-.25.97.16,2.18,1.12,2.48.54.16,1.12,0,1.67-.14,7.51-2.07,15.35-2.94,23.12-2.58.62.03,1.27.08,1.77.43.65.46.87,1.3,1.23,2.02,1.42,2.83,5.31,3.64,8.31,2.6s5.3-3.42,7.48-5.72c2.81-2.96,5.61-5.92,8.42-8.88.63-.67,1.29-1.39,1.49-2.29.27-1.26-.48-2.58-1.54-3.32-1.06-.74-2.37-1.01-3.65-1.19-8.96-1.26-17.99,1.11-26.73,3.45-4.35,1.17-9.29,1.88-13.45,3.61-2.79,1.16-5.05,6.62-7.58,7.05Z"/><path class="cls-3" d="M174.83,80.83c-2.67,0-4.88-1.37-5.78-3.14-.09-.18-.17-.36-.25-.55-.24-.56-.47-1.09-.93-1.41-.46-.32-1.06-.38-1.69-.41-7.79-.36-15.56.5-23.08,2.57-.54.15-1.16.33-1.75.14-1.05-.32-1.48-1.63-1.22-2.66.27-1.04,1.06-1.86,1.69-2.53l.03-.03h.05c1.26-.22,2.47-1.76,3.75-3.39,1.19-1.52,2.43-3.09,3.8-3.66,2.8-1.16,5.96-1.87,9.02-2.56,1.48-.33,3.01-.67,4.44-1.06,8.28-2.22,17.66-4.74,26.79-3.46,1.28.18,2.62.45,3.72,1.21,1.02.71,1.91,2.06,1.6,3.47-.21.97-.94,1.74-1.53,2.36l-8.42,8.88c-2.08,2.2-4.44,4.68-7.54,5.75-.93.32-1.85.47-2.72.47ZM162.74,74.94c1.15,0,2.31.03,3.46.08.67.03,1.33.09,1.85.46.52.37.78.97,1.03,1.54.08.18.16.36.25.53,1.41,2.81,5.32,3.5,8.13,2.53,3.03-1.05,5.36-3.51,7.42-5.68l8.42-8.88c.56-.59,1.26-1.32,1.45-2.21.28-1.28-.54-2.51-1.48-3.16-1.04-.72-2.34-.99-3.59-1.16-9.07-1.28-18.42,1.24-26.67,3.45-1.44.38-2.97.73-4.45,1.06-3.05.68-6.2,1.39-8.97,2.54-1.3.54-2.51,2.08-3.68,3.57-1.3,1.66-2.53,3.22-3.89,3.48-.61.63-1.34,1.42-1.58,2.36-.23.87.14,2.03,1.01,2.29.51.16,1.08,0,1.58-.14,6.44-1.77,13.05-2.67,19.71-2.67Z"/><path class="cls-3" d="M143.43,179.18c-5.66-3.87-12.1-9.5-14.78-15.91-1.8-4.29-2.09-9.05-2.11-13.71-.11-29.09,9.96-58.12,28.07-80.88,1.32-1.66,2.74-3.42,2.93-5.53.29-3.17-2.25-5.87-4.88-7.66-4.58-3.12-9.93-4.88-15.2-6.6-18.3-5.94-36.67-11.68-55.1-17.2-8.65-2.59-17.37-5.15-26.36-6.04-6.38-.63-12.82-.42-19.23-.2-5.3.18-10.6.36-15.91.54-6.82.23-3.37,5.11-1.51,8.91,2.44,4.98,6.1,9.25,9.7,13.43,5.19,6.04,10.39,12.08,15.58,18.12,5.12,5.96,10.27,11.94,14.34,18.66,7.97,13.14,11.5,28.6,12.19,43.95.27,6,.18,12.03-.52,17.99-.34,2.88-.82,5.75-1.49,8.57-.44,1.88-1.31,3.63-2.52,5.14-4.59,5.75-8.73,11.83-13.76,17.22-2.55,2.74-5.33,5.79-8.86,7.13-6.37,2.41-12.67,5.14-18.81,8.09-3.47,1.67-7.11,3.63-8.89,7.05-.12.23-.23.47-.24.73-.04.86.97,1.33,1.81,1.5,8.24,1.65,16.29-3.66,24.03-5.6,2.81-.7,5.86-1.21,8.52-.07.5.21.99.5,1.3.93.79,1.09.26,2.62-.43,3.77s-1.56,2.37-1.36,3.7c.21,1.4,1.6,2.38,3,2.59,1.4.21,2.81-.19,4.17-.58,3.7-1.06,7.4-2.12,11.09-3.18,1.55-.44,3.3-.87,4.7-.08,1.11.63,1.71,1.86,2.38,2.95,1.32,2.14,3.2,3.93,5.39,5.16,1.78.99,3.96.05,5.84-.74,2.77-1.16,5.69-1.94,8.67-2.33.59-.08,1.26-.11,1.7.29,2.01,1.88,4.35,3.42,6.87,4.53,2.03.89,4.24,1.52,6.44,1.29,5.6-.59,9.35-6.33,14.78-7.8,4.51-1.22,9.21.71,13.52,2.52s9.15,3.56,13.55,1.98c.43-.15.86-.34,1.18-.67.68-.68.72-1.75,1.06-2.65,1.06-2.74,4.74-3.36,7.59-2.69,2.86.66,5.58,2.17,8.51,2.07.95-.03,2.19-.7,1.84-1.59-.12-.3-.39-.5-.61-.74-.89-.99-.64-2.65.25-3.64.89-.99,2.24-1.44,3.55-1.67,2.51-.43,5.09-.18,7.61.24,1.51.25,3.06.57,4.56.25,1.5-.31,2.95-1.46,3.08-2.98.1-1.22-.66-2.37-1.66-3.08-.99-.71-2.2-1.05-3.37-1.37-4.3-1.2-8.55-2.68-12.88-3.63-4.25-.94-9.04-2.87-13.34-3.2-5.64-1.66-11.16-3.97-16.02-7.3Z"/><path class="cls-5" d="M76.65,28.66c14.53,4.3,29.65,9.23,44.87,13.98,3.8,1.2,7.6,2.4,11.39,3.59,3.79,1.2,7.57,2.35,11.32,3.77,3.74,1.45,7.4,3.12,10.62,5.73,1.56,1.35,3.04,3.02,3.63,5.25.65,2.27-.25,4.69-1.4,6.3-1.05,1.51-2.15,2.79-3.21,4.23-1.1,1.4-2.19,2.87-3.23,4.4-1.09,1.5-2.13,3.07-3.14,4.67-1.05,1.58-2.02,3.22-2.97,4.88-3.84,6.6-7.02,13.57-9.26,19.89-1.98,5.56-3.62,11.42-4.88,17.38-1.21,5.96-2.03,12.01-2.49,17.95-.2,2.4-.31,5.72-.32,9.5.04,3.76.28,7.99,1.69,11.83,1.39,3.82,4.05,7.12,6.67,9.73,2.63,2.63,5.26,4.63,7.18,6.02,2.88,2.07-2.53-1.35-1.5-.41.37.35-1.03-.22-2.7-1.14-1.67-.91-3.58-2.23-4.34-2.99-1.59-1.53-3.38-3.51-4.97-5.95-1.59-2.43-2.81-5.46-3.36-8.53-1.11-6.2-.64-12.32-.48-16.84.54-9.63,1.91-17.56,3.92-25.31,2.05-7.73,4.69-15.33,8.79-24.07,2.52-5.3,6.28-12.19,11.39-19.35,1.27-1.8,2.68-3.57,4.07-5.4,1.41-1.75,2.7-3.55,2.5-5.43-.14-1.89-1.58-3.71-3.32-5.1-1.77-1.38-3.86-2.56-5.99-3.55-4.29-1.98-8.93-3.38-13.44-4.8-4.51-1.41-8.9-2.79-13.06-4.09-8.33-2.6-15.73-4.91-21.3-6.65-11.12-3.51-14.87-4.7-18.68-5.9-1.88-.59-3.77-1.19-6.59-2-2.83-.78-6.59-1.88-12.3-2.9-11.24-2.09-22.79-.96-34.29-.72l-4.31.15c-1.44.07-2.92.01-4.09.33-2.64.44-.9,3.68.34,6.06,2.4,5.22,5.95,9.61,9.74,13.96,4.5,5.1,8.79,9.97,13.41,15.21,6.03,7.03,12.55,14.07,17.76,22.81,5.19,8.73,8.74,18.94,10.72,30.22.96,5.96,1.32,11.2,1.46,16.42.09,5.22.04,10.48-.85,16.47l-1.09,6.15c-.22,2-1.05,4.31-2.28,6.11l-7.55,9.84c-2.51,3.26-5.16,6.5-8.03,9.48-1.42,1.5-2.91,3.01-4.66,4.3-.87.64-1.81,1.22-2.83,1.68-1.07.47-1.95.75-2.92,1.14-4.27,1.65-8.49,3.43-12.66,5.32-4.09,1.98-8.58,3.57-11.37,6.8-.33.41-.65.83-.9,1.28l-.19.34c-.04.08-.05.1-.07.15-.04.09-.04.2,0,.29.08.17.23.27.73.43.41.11,1.04.17,1.54.26,2.16.27,4.37.02,6.55-.46,4.37-.98,8.55-2.94,12.98-4.4,2.99-.91,6.1-1.89,9.55-1.51.85.11,1.7.34,2.51.7.8.31,1.82,1.16,2,2.3.33,2.19-1.06,3.7-1.66,4.92-.72,1.29-.57,2.33.47,3.04,1,.71,2.37.67,3.8.31,3-.87,5.97-1.74,8.89-2.59l4.46-1.29c.79-.2,1.65-.36,2.6-.3.93.04,1.99.42,2.73,1.09,1.45,1.39,1.88,2.82,2.8,3.88.87,1.12,1.92,2.11,3.08,2.91.58.39,1.25.82,1.66.91.49.13,1.09.09,1.72-.07,1.27-.3,2.66-1.03,4.17-1.57,1.49-.55,3.01-1,4.56-1.34.77-.17,1.56-.32,2.34-.44.38-.05.78-.13,1.33-.14.51-.02,1.37.16,1.87.67,2.49,2.28,5.45,4.03,8.56,4.99,1.55.45,3.1.61,4.56.27,1.48-.32,2.9-1.09,4.29-2.02,2.64-1.75,5.32-4.33,8.8-5.45,4.01-1.32,8.05-.24,11.42,1.05,3.45,1.33,6.58,3.01,9.98,3.73,1.31.29,2.61.41,3.87.32.63-.04,1.24-.15,1.83-.31.59-.17,1.22-.38,1.39-.58.21-.17.38-.64.55-1.31.15-.65.48-1.56,1-2.21,1.07-1.38,2.66-1.99,4.11-2.23,1.47-.24,2.95-.14,4.33.22,1.34.34,2.57.81,3.77,1.2,1.19.39,2.35.71,3.48.77.61.05,1.08-.01,1.13-.08.15-.06.29-.25.18-.4-.04-.05-.09-.09-.13-.14-.16-.18-.4-.52-.52-.83-.27-.64-.32-1.32-.23-1.94.15-1.24.97-2.38,1.94-3.01,1.99-1.26,4.05-1.35,6.02-1.42,1.99-.02,3.95.27,5.82.6,1.83.33,3.59.49,4.81-.4,1.3-.85,1.34-2.33.13-3.43-1.11-1.06-3.1-1.4-5.03-2.01-3.85-1.14-7.67-2.44-11.75-3.35-1.7-.4-4.03-1.14-6.65-1.89-1.31-.37-2.7-.74-4.13-.99l-1.08-.17-.54-.06c-.1.01-.63-.09-.72-.15l-2.21-.71c-5.9-1.93-11.25-4.97-13.63-6.79,2.86,1.55,5.92,2.39,12.42,4.27.58.21,1.29.46,2.09.74.4.13.83.27,1.27.42.22.07.45.14.69.22.15.05.09.03.13.04l.4.04c2.16.25,4.46.87,6.7,1.53,2.24.67,4.42,1.37,6.39,1.82,2.05.48,3.8.99,5.04,1.35l8.93,2.66c1.52.47,3.36,1.4,4.17,3.26.41.9.46,2.08,0,3.03-.44.95-1.19,1.63-2,2.08-2.07,1.13-4.26.68-6.04.4-1.8-.31-3.58-.54-5.35-.51-1.73.05-3.6.27-4.81,1.11-.61.42-.95.97-1.04,1.63-.05.32,0,.62.1.85.06.13.09.18.26.37.29.28.55.58.69.91.4.85-.02,1.89-.84,2.39-.83.58-1.89.64-2.42.6-1.31-.04-2.56-.33-3.72-.69-2.33-.7-4.44-1.69-6.53-1.61-2.12.02-4.18.9-4.55,2.81-.15.52-.26,1.2-.7,1.93-.45.78-1.32,1.23-1.92,1.43-1.23.45-2.52.67-3.8.69-5.18.06-9.62-2.43-13.9-4.02-2.16-.8-4.37-1.43-6.56-1.47-2.2-.06-4.26.59-6.18,1.78-2.94,1.72-5.55,4.42-9.24,5.78-1.82.69-3.93.8-5.81.4-1.9-.39-3.63-1.13-5.27-1.99-2.13-1.13-3.94-2.44-5.46-3.82.05-.21-1.34.01-2.33.21-1.04.2-2.07.45-3.1.76-1.03.3-2.07.66-3.12,1.09-1.04.41-2.17.99-3.61,1.34-.67.16-1.41.28-2.23.18-.77-.04-1.74-.5-2.23-.83-1.17-.71-2.26-1.59-3.24-2.61-.97-1-1.84-2.22-2.5-3.4-.67-1.16-1.25-1.93-2.12-2.1-.91-.22-2.13.06-3.39.42-1.28.36-2.56.72-3.82,1.07-2.52.71-4.97,1.41-7.28,2.06-1.12.32-2.35.67-3.73.63-1.39-.02-2.88-.58-3.86-1.79-.5-.6-.82-1.44-.82-2.25-.01-.82.24-1.54.53-2.14.59-1.22,1.31-2.06,1.55-2.94.25-.95.17-1.42-.49-1.81-.78-.43-1.84-.71-2.86-.78-2.08-.14-4.31.36-6.48.98-4.33,1.24-8.54,3.3-13.13,4.59-2.29.64-4.69,1.11-7.15,1.07-1.27-.05-2.37-.13-3.76-.48-.6-.16-1.76-.8-2.01-1.78-.14-.48-.1-1,.1-1.47.24-.55.35-.66.52-.99,1.4-2.31,3.54-3.93,5.68-5.19,2.18-1.26,4.37-2.24,6.55-3.28,4.38-2.05,8.82-3.98,13.32-5.76,1.1-.45,2.33-.87,3.26-1.32.98-.48,1.91-1.11,2.79-1.83,1.77-1.43,3.36-3.2,4.99-4.96,3.2-3.49,6.08-7.32,8.99-11.16,1.23-1.63,2.48-3.25,3.76-4.86,1.34-1.55,2.27-3.04,2.82-4.87.45-1.87.76-3.94,1.15-5.9l.55-2.99c.13-1.01.24-2.02.33-3.04,1.15-15.53-.34-31.59-5.88-46.22-2.31-6.12-5.43-11.91-9.26-17.22-3.82-5.33-8.19-10.29-12.5-15.31-4.66-5.35-9.59-11.01-14.56-16.71-2.48-2.84-4.99-5.75-7.12-8.97-1.07-1.57-2.02-3.37-2.82-4.96-.81-1.65-1.88-3.2-2.21-5.55-.15-.98.21-2.38,1.13-3.13.87-.71,1.73-.93,2.48-1.08,1.55-.25,2.69-.21,3.82-.27,2.26-.09,4.25-.16,6.24-.24,3.99-.14,7.95-.32,14.15-.45,5.57-.1,11.17.07,16.69.94,5.51.85,10.9,2.22,16.29,3.75l.32.09Z"/><path class="cls-5" d="M42.68,189.5c.06-6.81.14-15.54.2-22.33.09-4.39.49-9.62.4-14.05-.07-2.86-.15-5.7-.47-8.67-.29-1.63-.79-.92-2.13.48-.88.9-1.87.74-1.83,2.35.04.99.07,1.94.1,2.81.21,7.25.29,14.41.13,21.74-.04,1.72,0,3.49-.07,5.19-.1,2.25-.54,6.81-.18,9.03.09.55.45.33.69,1.04.54,1.59,1.14,3.05,1.81,3.63.44.38,1.36.57,1.35-1.23Z"/><path class="cls-5" d="M42.45,170.87c6.5.63,15.04.44,21.58.32,4.21-.07,9.25.05,13.46-.24,2.72-.19,5.43-.42,8.14-.69,1.46-.24.9-.77-.42-2.14-.87-.9-.72-1.87-2.3-1.82-.96.07-1.88.13-2.72.19-6.96.52-13.76,1.03-20.73,1.05-1.63,0-3.32.07-4.93.02-2.14-.06-6.44-.56-8.53-.31-.52.06-.33.43-1.02.64-1.52.47-2.95.91-3.58,1.52-.42.4-.74,1.3,1.05,1.47Z"/><path class="cls-3" d="M84.24,189.57c-.83-4.9-1.43-14.75-2.26-20.8"/><path class="cls-5" d="M80.93,170.61c.12,1.15.24,1.97.33,3.13.06,1.12.15,2.65.21,3.77.26,3.62.45,4.65.63,6.31.42,3.93.37,4.59,1,4.71.35.09,2.39,1.6,2.43.45-.03-1-.9-7.61-.96-9.1-.12-2.35-.39-4.47-.54-6.17-.14-1.69-.51-4.45-.7-4.63-.14-1.02-1.02-.02-1.65.22-.72.28-.85.23-.75,1.3Z"/><path class="cls-3" d="M119.97,166.55c.7,6.54,1.69,16.9,1.82,23.5"/><path class="cls-5" d="M123.08,188.08c-.06-1.33-.11-2.26-.17-3.6-.04-1.28-.1-3.01-.14-4.29-.24-4.11-.47-5.26-.65-7.13-.44-4.42-.33-5.12-1-5.29-.37-.09-2.45-1.97-2.55-.66-.07,1.2.88,8.68.94,10.34.18,2.7.34,5.02.47,6.91.11,1.89.26,4.95.42,5.16.04,1.13,1.07.16,1.76-.05.78-.22.93-.16.91-1.41Z"/><path class="cls-5" d="M118.7,167.96c6.5-.66,15-1.84,21.57-2.43,4.23-.38,9.3-.48,13.53-.85l8.18-.68c1.47-.21.93-.76-.38-2.15-.86-.91-.7-1.89-2.32-1.85-.98.07-1.93.13-2.79.19-7.13.56-14.05,1.41-21.16,2.08-1.66.16-3.38.41-5.02.54-2.19.17-6.64.31-8.72.92-.52.15-.27.48-.92.8-1.46.71-2.79,1.46-3.3,2.17-.33.47-.46,1.41,1.33,1.23Z"/><path class="cls-3" d="M66.66,73.82c4.51-1.36,9.96-3.11,14.55-4.14"/><path class="cls-5" d="M79.5,70.92c-.06-.01-.17-.11-.23-.1-.3.06-.53.23-.83.31-.35.13-.67.38-1.02.48-.46.12-.95.11-1.41.22-.36.08-.69.29-1.04.4-.47.15-.94.27-1.42.39-.13.03-.28,0-.41.05-.37.14-.76.28-1.16.43-.17.06-.49.22-.67.23-.16.01-.19-.12-.36-.09-.22.04-.43.11-.64.19-.24.08-.48.17-.72.28-.32.15-.61.36-.99.33-.2-.01-.4.02-.59.06-.12.03-.91.26-1.05.21-.16-.11-.34-.46-.31-.65.03-.38-.27-.08-.03-.47.05-.09.94-.31,1.01-.36.13-.09.49-.17.64-.21.2-.07.77-.33.98-.36.32-.05.13-.02.47.07.12.03.37-.14.49-.14.21,0,.17-.01.34-.12.18-.11.35-.24.56-.29.59-.13,1.2-.18,1.8-.29.14-.02.24-.2.37-.25.3-.13.6-.25.92-.32.44-.09.91-.09,1.35-.17.13-.03.22-.27.35-.31.52-.16,1.05-.34,1.59-.41.49-.06.92-.22,1.37-.45.43-.22.84-.28,1.32-.33.13-.02.39-.03.52.02.08.03.37-.1.4,0,.03.11.25.83.23.93-.13.57-.18.15-.42.35-.12.1-1.01.34-1.15.39-.08.03-.16,0-.24,0Z"/><path class="cls-3" d="M70.33,58.91c1.63,9.06,4.56,17.52,6.83,25.86"/><path class="cls-5" d="M75.45,81.67c0-.1.09-.3.07-.39-.12-.53-.35-.95-.51-1.47-.21-.62-.56-1.2-.73-1.83-.23-.81-.31-1.66-.52-2.48-.16-.64-.45-1.24-.65-1.87-.26-.83-.48-1.67-.7-2.52-.06-.23-.05-.49-.12-.71-.22-.68-.44-1.38-.67-2.1-.09-.31-.31-.89-.34-1.21-.03-.28.11-.31.06-.6-.07-.39-.18-.78-.28-1.16-.11-.38-.22-.76-.38-1.32-.18-.6-.43-1.15-.44-1.81,0-.35-.07-.69-.11-1.04-.04-.22-.29-1.66-.25-1.89.1-.24.44-.43.64-.31.38.19.07-.42.47.12.09.12.38,1.69.45,1.81.12.24.21.88.27,1.14.07.36.43,1.4.49,1.76.1.56.04.22-.01.77-.02.2.19.67.21.87.04.35.04.29.18.6.15.33.32.66.4,1.01.25,1.03.4,2.08.61,3.12.05.24.26.44.35.68.19.53.39,1.07.52,1.62.12.62.34,1.73.46,2.35.05.23.34.41.41.64.29.92.6,1.85.79,2.79.17.85.43,1.62.78,2.41.34.76.47,1.48.63,2.32.04.23.11.69.07.91-.02.13.18.66.06.69-.13.04-.93.37-1.04.33-.69-.27-.2-.33-.47-.77-.13-.22-.55-1.79-.64-2.04-.05-.14-.04-.28-.04-.42Z"/><path class="cls-3" d="M47.73,7.51c-.7.03-1.41.06-2.11.08-9.53.32-19.48.21-27.99,4.49-5.49,2.77-9.98,7.19-13.87,11.96-2.78,3.4-2.31,7.39-2.12,11.78.66,15.03,5.11,10.64,9.26.19,1.22-3.07,5.87-3.51,9.17-3.44,3.66.07,7.26,2.81,10.72,1.6.96-.34,1.8-.96,2.76-1.31,4.94-1.82,9.35,3.94,14.51,4.99,4.27.87,8.41-1.6,12.49-3.14,4.08-1.54,9.65-1.68,11.79,2.12.79,1.41.93,3.12,1.74,4.52,1.95,3.35,6.61,3.51,10.15,5.09,4.71,2.11,8.13,7.25,13.28,7.54,2.34.13,4.62-.82,6.97-.84,7-.08,11.32,7.38,17.15,11.25,4.79,3.18,10.74,3.92,16.45,4.57,5.24.6,10.52,1.2,15.77.73,7.36-.66,14.44-3.41,21.82-3.74,4.98-.22,9.98.67,14.95.24,8.84-.78,17.86-7.2,18.4-16.06.29-4.77-1.87-9.38-4.72-13.21-1.79-2.41-3.91-4.63-6.52-6.13-3.51-2.01-7.65-2.57-11.66-3.09-19.12-2.46-38.24-4.93-57.36-7.39-8.23-1.06-13.65-5.79-21.15-8.77-8.11-3.22-16.85-4.62-25.52-5.04-7.08-.34-14.17-.05-21.24.32-3.54.19-7.08.4-10.62.57-.72.03-1.68.25-2.38.07s-1.48-.8-2.12-1.14c-1.6-.84-3.19-1.67-4.79-2.51l-.19-.1c-2.07-1.08-4.15-2.17-6.38-2.85C31.06-.13,27.54-.21,24.15.34s-6.65,1.7-9.78,3.12c-2.68,1.22-4.82,3.4-6.46,5.85-1.63,2.45-2.8,5.17-3.95,7.87-1.44,3.37-2.89,6.78-3.56,10.38-.8,4.32-.43,8.85,1.07,12.97"/><path class="cls-3" d="M47.47,169.07c1,6.61,2.02,16.37,2,22.73,0,.18.33.23.47.37s-.35.34-.25.17"/><path class="cls-5" d="M50.61,190.94c0-1.36-.07-2.32-.11-3.67-.04-1.33-.07-3.04-.15-4.36-.26-4.18-.55-5.35-.78-7.25-.58-4.48-.65-5.18-1.15-5.35-.13-.05-.69-.54-1.05-.87-.37-.33-.51-.51-.75.19-.2.64.13,2.81.38,5.07.26,2.25.49,4.57.54,5.41.17,2.67.4,5.08.48,7,.06,1.42.14,3.42.19,4.67.06.93.73,1.18.84,1.22,1.2-1.1.79-.67.78-.8-.11-.07-.19-.22-.18-.2.07.04.08.49.08.38.23.1.12.03-.01,0,.03.02,0-.23-.04-.32.02.05.08.11.15.15.06.04.19.08.22-.07,0-.14.03-.19.07-.26.32-.46.42-.53.49-.67.01-.04.02.03.02-.26Z"/><path class="cls-3" d="M57.85,168.51s.56,5.95.89,7.5c1.15,5.35,1.56,10.57,1.4,15.71"/><path class="cls-5" d="M61.3,189.82c.02-1.33-.04-2.28-.08-3.6-.04-1.31-.09-2.99-.23-4.3-.4-4.11-1.01-5.25-1.23-7.06-.62-4.26-.65-4.93-1.09-5.11-.12-.05-.58-.55-.93-.89-.32-.34-.43-.53-.69.14-.14.61.11,2.8.28,5.07.18,2.3.72,4.44.77,5.26.33,2.56.59,4.88.67,6.73.1,1.85.1,4.86.24,5.08.51,1.13.68.2,1.45.03.65-.19.78-.12.83-1.36Z"/><path class="cls-3" d="M70.16,169.75c-.22,6.65.36,13.26,1.74,19.71"/><path class="cls-5" d="M72.73,187.66c-.19-1.07-.36-1.84-.51-2.92-.14-1.07-.25-2.44-.34-3.52-.3-3.38-.39-4.34-.49-5.89-.2-3.66-.1-4.24-.56-4.44-.11-.06-.54-.53-.81-.85-.26-.32-.3-.49-.68.04-.31.5-.4,2.36-.41,4.28-.03,1.92.18,3.88.19,4.6.08,2.27.38,4.31.6,5.92.2,1.62.73,4.22.92,4.37.62.87.79-.01,1.5-.31.64-.31.77-.27.59-1.28Z"/><path class="cls-3" d="M128.93,165.08c1.24,8.26,2.7,16.49,4.4,24.68.04.17.04.4-.16.48s-.26-.3-.07-.22"/><path class="cls-5" d="M134.39,188.41c-.26-1.43-.44-2.44-.69-3.88-.22-1.39-.51-3.25-.73-4.65-.77-4.45-1.11-5.7-1.5-7.73-.9-4.8-1.12-5.53-1.6-5.72-.12-.05-.68-.59-1-.96-.3-.38-.31-.6-.59.17-.53,1.41,1.25,9.62,1.45,11.46.39,2.92.89,5.54,1.22,7.63.16,1.05.4,2.42.63,3.55.12.55.23,1.05.32,1.45.02.09.05.18.07.26v.03s0,0,0,0h0s0,0,0,0c-.31.06.42-.09.34-.07h0s.03,0,.03,0l.13-.02c.09-.01.17-.02.24-.02.29,0,.34.07.34.07.01,0,0,0,0-.02v-.02s-.02-.01-.02-.01h0c.02.05-.05-.14.05.13h0s0,0,0,0c0,.02.01.05.01.05-.02.04.04-.05.06-.04-.02.04-.19-.07-.12,0-.05.16-.01.1,0-.02-.03-.03.05.03.11.02.05-.02-.03.01-.04.04-.05.13.27.25.45.22.45-.02.79-.24.86-.66.07-.37.07-.57-.04-1.28Z"/><path class="cls-3" d="M139.74,163.92c1.48,9.32,2.96,18.66,5.6,27.75"/><path class="cls-5" d="M145.89,189.13c-.38-1.52-.7-2.6-1.04-4.12-.33-1.51-.68-3.47-.97-4.99-.91-4.8-1.18-6.17-1.65-8.37-.98-5.21-1.11-6.03-1.59-6.24-.12-.06-.65-.65-.97-1.05-.33-.4-.5-.62-.61.19-.35,1.5,1.18,10.47,1.55,12.46.49,3.17,1.13,6.01,1.64,8.27.47,2.26,1.51,5.89,1.74,6.1.39,1.33.97-.06,1.51-.43.61-.43.74-.38.39-1.8Z"/><path class="cls-3" d="M150.97,162.08c.9,10.35,3.48,20.52,7.64,30.16"/><path class="cls-5" d="M158.82,189.43c-.63-1.6-1.1-2.74-1.65-4.37-.54-1.61-1.12-3.71-1.56-5.35-1.37-5.17-1.66-6.67-2.18-9.06-1.07-5.69-1.08-6.6-1.59-6.86-.13-.07-.65-.75-.97-1.22-.33-.47-.49-.72-.66.16-.21.82-.08,3.76.39,6.74.39,3,1.15,6.01,1.37,7.11.73,3.49,1.73,6.58,2.52,9.01.77,2.44,2.36,6.31,2.63,6.51.76,1.35.97-.16,1.54-.65.59-.54.73-.5.15-2Z"/><path class="cls-3" d="M168.46,137.66c-8.9-.55-59.14-7.93-68.06-7.63-21.52.72-45.9,15.66-67.2,18.86l36.05-23.83c16.49-5.55,19.66-6.47,28.66-7.47,7.65-.84,24.55,3.36,32.23,3.83l38.31,16.23Z"/><path class="cls-5" d="M86.09,131.22c5.58-1.34,11.63-2.42,17.79-1.98,6.04.45,11.98,1.24,17.67,1.91,4.99.67,11.51,1.56,16.55,2.24,4.45.54,9.16,1.07,13.63,1.71,3.66.47,12.64,1.63,16.34,2.11,1.34.17-1.08.03-.56.18.39.07-2.28.48-3.07.42-3.27-.23-9.01-1-12.37-1.4-7.23-.89-11.81-1.45-19.03-2.33-4.39-.51-11.6-1.35-18.84-2.19-3.62-.38-7.25-.77-10.5-.96-3.22-.24-6.08.08-8.24.34-4.31.58-5.74,1.02-7.2,1.22-1.43.35-2.91.54-7.12,1.83-8.28,2.49-16.31,5.71-24.46,8.73-2.43.91-4.64,1.86-7.15,2.75-2.02.68-4.08,1.36-6.22,1.94l-1.61.46c-.62.15-1.23.3-1.86.45-2.1.53-3.83.85-5.87,1.21-.33-.29-.67-.58-.99-.89v-.65s-.01-.33-.01-.33l-.02-.16v-.08s-.02-.04-.02-.04v-.02s0,0,0,0h0s0,0,0,0h0s0,0,0,0c.13-.03-.29.06.29-.06,1.33-.94,2.69-1.9,4.1-2.9,3.93-2.58,6.8-4.46,10.73-7.04,5.18-3.4,10.34-6.77,15.52-10.17l4.36-2.82.55-.35c.22-.19.7-.34.83-.38l1.24-.4,2.47-.79c3.3-1.05,6.6-2.1,9.95-3.08,4.47-1.35,9.37-2.51,13.99-3.05,3.77-.54,7.52-.15,11.15.23,3.65.42,7.25.97,10.85,1.52,1.24.19,2.54.36,3.72.59,1.29.25,2.63.5,3.97.75.66.11,1.32.21,1.97.32l.98.12.59.06c.28-.03.68.23.78.25,9.85,4.29,17.27,7.53,27.15,11.83,2.35,1.05,8.61,3.77,10.58,4.83-1.21-.23-2.64.23-5.24-.29-1.67-.75-6.42-2.89-8.13-3.66l-6.44-2.73c-4.52-1.89-9.1-3.8-13.68-5.72l-3.44-1.45-1.72-.73c-.08-.11-.93-.11-1.52-.18-2.52-.27-4.99-.68-7.44-1.09l-7.97-1.35c-2.77-.43-4.74-.5-7.5-.8-1.77-.18-3.75-.41-5.68-.42-1.86-.02-3.92.25-5.68.48-6.81.89-13.38,3.21-19.99,5.41l-2.57.88c-.78.32-1.93.55-2.23.89l-4.51,3.04c-3.02,2.02-6.04,4.04-9.05,6.05-2.56,1.69-5.24,3.23-7.85,4.92l-5.71,3.71-2.81,1.83-1.01.56c.49-.1.13-.03.24-.05h0s0,0,0,0h0s0,0,0,0h-.02s-.03.03-.03.03l-.06.04-.13.08-.26.17-.26.17c-.17.09.12,0,.15,0l.67-.11.87-.2,1.11-.26c.5-.11,1-.27,1.49-.4,1.99-.53,3.97-1.13,5.94-1.78,5.07-1.64,10.56-3.91,15.69-5.82,4.34-1.61,5.6-2.14,10.03-3.63,3.99-1.3,7.92-2.49,12.05-3.48l.12-.03Z"/><path class="cls-5" d="M171.31,191.75c-1.52-8.79-3.98-20.25-5.65-29.11-1.08-5.7-2.07-12.54-3.23-18.24l-1.12-5.51-.9-5.55c-.42-1.99-.89-1.21-2.09.66-.79,1.23-1.79,1.06-1.53,3.25.2,1.32.34,2.6.6,3.75,1.93,9.52,3.97,18.79,5.76,28.33.42,2.23.94,4.53,1.32,6.75.51,2.94,1.28,8.92,2.18,11.73.22.69.53.36.94,1.25.92,1.97,1.85,3.78,2.64,4.48.52.46,1.49.64,1.08-1.77Z"/></g></g></g></svg>