<svg xmlns="http://www.w3.org/2000/svg" id="Layer_2" viewBox="0 0 209 216.2"><defs><filter id="luminosity-noclip" width="209" height="216.2" x="0" y="0" color-interpolation-filters="sRGB" filterUnits="userSpaceOnUse"><feFlood flood-color="#fff" result="bg"/><feBlend in="SourceGraphic" in2="bg"/></filter><style>.cls-3{fill:#fdf4ac}.cls-5{fill:#fdf5b7}</style><mask id="mask" width="209" height="216.2" x="0" y="0" maskUnits="userSpaceOnUse"><g style="filter:url(#luminosity-noclip)"><path d="M25.7 37.6q.6 1.3 1.6 2.5c.6.9 1.7 1.3 2.3 2l2.6 2.7 3.6 3.7c1.6 1.5 4 4.6 5.6 6.2l3.8 4c2 2.5 3.2 4.4 5.7 6.6l1.6 2q2.4 3 4.6 6.2l1 1.4 3.7 4.7 2.9 4.1 1.7 2.7 1.4 3.2c1 2.3 1.9 4 2.6 6.5q1 3.7 1.8 7.6c.3 1.5.6 1.3.8 2.8.3 1.3.5 4 .8 5.2l.7 4.1.1 2v2.3c-.4.5-1.7.4-2.2-1.4-.2-.9-.2-2.7-.4-3.7-.3-1.4-.5-5.3-.9-6.7-.3-1-1-5.3-1.2-6.3-.5-2.2-.7-3.9-1.4-6l-1.8-4.5-1.8-3.6-2.5-4.3c-2.8-4-1.1-1-3.2-4.6L55 73.8c-.9-1.2 0-.7-2.4-3.5l-3.2-3.9-6.4-7.5-3.8-4.3c-1.2-1.3-.1-.6-1.3-2-.7-.7-2.5-2.4-3.1-3.2-.7-1-2.2-2.5-3-3.4q-1.1-1.6-2.5-3.1-.6-.8-1.6-1.5a6 6 0 0 1-1.7-2.5l-.4-.9-.2-.8q0 .3.3.5"/><path d="M34 35.4q.8 1 1.5 2.6a14 14 0 0 0 2 3.8l.5.6.5.3.3.5.2.4 1.2 1.7q.4.8 1.8 2.3c1.4 1.7 3.8 4.9 5.3 6.6 1.4 1.5 2.3 2.4 3.6 4 2 2.5 3 4.5 5.5 6.8l1.5 2 4.5 6.2 1 1.5q1.9 2.3 3.6 4.7 1.7 2.8 2.8 4.1l1.7 2.7 1.4 3.2c1 2.3 2 4 2.6 6.5q1 3.7 1.7 7.6c.3 1.5.6 1.3.8 2.8.2 1.3.4 3.9.7 5.1l.7 4.2v1.9c.2.5.2 2 0 2.3-.4.5-1.6.4-2.1-1.4l-.4-3.6c-.3-1.5-.5-5.4-.8-6.8-.3-1-1-5.3-1.2-6.3-.4-2.1-.6-3.8-1.3-5.9l-1.8-4.5-1.8-3.6-2.5-4.3c-2.7-4-1-1.1-3-4.6l-4.2-5.4c-.8-1.2 0-.7-2.4-3.5l-3-4-6.2-7.6c-2-2.4-1.5-2-3.5-4.5-1.2-1.3-.2-.5-1.3-2-.6-.7-2.4-2.5-3-3.4q-.4-.8-1.2-1.8t-1.2-2l-.4-1-.1-.1-.3-.2-.3-.3-.3-.6-.7-1.1-1-2c-.2-.6-.7-2.3-1-2.8l-.9-1.4z"/><path d="M46.9 40c.2 1.5 1.5 3.5 2 5l.6 1.6.7 1.5c.8 1.6.8 1.6 2.5 4 1.2 1.5 3.1 4.6 4.4 6.1l3.2 4c1.7 2.3 2.5 4.1 4.7 6.3q.8.8 1.3 2l4 5.8.8 1.3 3 4.4c1.2 1.7 1.6 3.2 2.4 4a47 47 0 0 1 4.6 11.6q.8 3.3 1.4 7c.2 1.3.5 1.2.7 2.6l.5 4.6c.2 1 .6 2.9.6 3.8v1.8c.2.5.1 1.9 0 2.1-.4.5-1.7.3-2.1-1.3-.3-.8-.2-2.5-.4-3.3-.2-1.4-.3-5-.6-6.2l-1-5.8c-.3-2-.4-3.5-1-5.5l-1.4-4.2-1.4-3.3-2-4.1c-2.4-3.8-1-1-2.7-4.3l-3.6-5c-.7-1.2 0-.7-2-3.4l-2.6-3.7-5.4-7.3c-1.7-2.3-1.3-2-3-4.2-1-1.3 0-.6-1-1.9l-2.5-3.3c-.5-1-1.7-2.6-2-3.6l-.7-1.8-.3-1-.2-.8-.7-1.8c-.2-.5-.8-2-.9-2.6q-.2-1 0-1.7z"/><path d="M57 38.5q.5.5.7 1.1v1.5l.8 2.5 1.3 3.2c.3.9.3 1.3.4 2q-.1.7.5 2.5a34 34 0 0 0 3.3 6.6l2.8 4c1.5 2.5 2.2 4.4 4.3 6.6q.7.8 1.3 2l3.6 5.8.8 1.4 2.9 4.4q1.3 2.7 2.3 4c.7.6 2 4 2.5 5.4q1.2 2.8 1.9 6l1.2 6.9c.2 1.4.5 1.2.7 2.6.1 1.1.2 3.5.4 4.6.1 1 .5 2.9.5 3.8v1.7c.2.5 0 2-.1 2.1-.4.5-1.6.3-2-1.3-.3-.8-.2-2.4-.3-3.3-.3-1.3-.3-4.8-.6-6.1l-.8-5.7c-.3-2-.4-3.5-1-5.4l-1.2-4.2-1.4-3.3-2-4c-2.2-3.9-1-1-2.5-4.4l-3.4-5c-.7-1.2 0-.7-1.9-3.4l-2.5-3.8-4.8-7.5c-1.6-2.4-1.2-2-2.7-4.4-.8-1.4 0-.6-.7-2-.5-.8-1.6-2.8-1.8-3.8l-.2-1-.2-1.2-.1-1.8q-.3-1.7-1-3.5l-.5-2-.2-1.3v-.5l.1-.3v-.4l-.6-1.5q0 .3.3.5Z"/><path d="M71 41.4v2.5l-.2 2.5.3 3.1v1.9l-.1 1v1.4a19 19 0 0 0 2 6.6c.9 1.5 1.5 2.4 2.3 4 1.2 2.3 1.8 4.1 3.6 6.3q.6.9 1 1.9l3.1 5.7.7 1.3 2.5 4.3c1 1.6 1.3 3 2 3.7s1.8 4 2.1 5.3a42 42 0 0 1 2.5 12.1c.1 1.3.4 1.2.6 2.5 0 1 .1 3.3.3 4.3l.4 3.5v1.6c.1.5 0 1.8-.2 2-.3.4-1.6.3-2-1.2-.2-.8 0-2.3-.2-3.1-.3-1.2-.1-4.5-.4-5.7l-.7-5.4c-.2-1.9-.2-3.3-.6-5.1l-1.1-4-1.2-3.1-1.6-4c-2-3.6-.9-.9-2.2-4l-3-5c-.6-1 .1-.5-1.5-3.2-1.3-2-1-1.6-2.1-3.6l-5.1-9.6-1-2.2c-.6-1.4 0-.5-.4-2l-.7-1.9-.4-2v-1l.1-.5.1-.5.2-1.7.1-3.4.2-2 .4-2.4V41z"/><path d="M83 48c-.3 1.2-1 3-1.1 4.3l-.5 4.4.2 2.2.5 3q.4 1.9 1 3l1.7 3.8c.9 2.1 1.2 3.8 2.7 5.9l.9 1.7 2.4 5.3.5 1.3 2 3.9c.9 1.5 1 2.8 1.7 3.5a16 16 0 0 1 1.5 4.8l1 5.2.6 5.9c0 1.1.4 1 .5 2.2l.1 3.8.4 3.2v1.5c0 .4-.1 1.6-.3 1.7-.4.4-1.6.3-2-1-.2-.8 0-2.2-.1-2.9-.2-1 0-4-.3-5.2l-.4-4.8q0-2.4-.4-4.6l-.7-3.6-.8-3-1.2-3.5c-1.5-3.4-.7-1-1.7-3.8-.5-.8-2.2-4-2.4-4.6-.5-1 .1-.5-1.2-3l-1.7-3.4-3-6.9c-1-2.2-.7-1.8-1.6-4-.4-1.4.2-.6-.2-1.9-.2-.8-.8-2.6-.7-3.5l.1-3.4.7-3.1.5-1.6.9-2q.3-.8.7-1.3l-.2.4Zm11.1 6.6-1 1.7q-.7 1-.8 1.9l-.6 2.4-.1 1.4v2c.3 1.4.6 4 1 5.4s.9 2.1 1.3 3.5c.7 2 .8 3.5 2 5.4q.5.8.6 1.7l1.7 4.9.4 1.1 1.6 3.7c.6 1.4.6 2.5 1.1 3.2.6.6 1 3.4 1 4.4.2 1.8.5 3 .6 4.7l.3 5.2c.1 1 .4 1 .5 2v3.5l.3 2.8v1.3l-.3 1.6c-.4.3-1.7.1-2-1-.2-.7 0-2-.1-2.6-.2-1 .1-3.6 0-4.6l-.3-4.3-.2-4.2-.5-3.3-.5-2.6q-.3-1.7-.8-3.3c-1.1-3-.6-.8-1.2-3.5-.4-.7-1.7-3.7-1.8-4.2-.4-1 .2-.5-.9-2.8l-1.2-3-2.2-6.5-1-3.8c-.2-1.2.2-.4 0-1.6-.2-.7-.6-2.4-.6-3.1s0-2.4.3-3.1l.4-1.4.6-1.3q.1-.7.5-1.5l1.3-1.6.8-.8zm10.6.9c0 1.1-.5 2.8-.8 3.9l-.8 2.3-.5 1.3q-.3.4-.5 1.8c-.4 1.3-.6 3.9-.5 5.3q0 1 .3 1.7l.2 1.8.3 2.7q0 1.3.8 2.7l.4 1.6 1.1 4.9.3 1.1 1.2 3.7c.4 1.3.4 2.4 1 3.1.4.6.6 3.3.6 4.3l.5 4.5v5c.1 1 .4 1 .5 2 0 .8-.2 2.5-.1 3.4 0 .6.3 2 .2 2.7v1.2c0 .4-.2 1.4-.4 1.6-.4.3-1.7 0-2-1.1v-2.4c-.1-1 .2-3.5 0-4.5V102l-.4-3.2-.4-2.5-.6-3.2c-.9-3.1-.5-.9-1-3.5l-1.3-4.2c-.3-1 .2-.5-.5-2.8-.6-1.7-.5-1.4-.8-3.2-.4-1.4-1-5-1.2-6.4l-.1-2v-2c0-1.2.2-.3.3-1.5l.1-1.5q0-1 .3-1.6l1.2-2.8q.7-1 1.1-2.2l.5-1.4.6-1.8q.1-.6.4-1zm10 5.5c0 1-.4 2.5-.8 3.4l-1 2-.4 1.2-.5 1.6-.6 2.4-.4 2.4v3c0 1.8-.4 3.2.3 5l.1 1.5.5 4.5v1l.8 3.4c.3 1.3.1 2.3.6 3 .4.6.3 3 .2 4l.2 4-.1 4.5c0 1 .3.9.3 1.8 0 .7-.3 2.3-.2 3 0 .6.2 1.9.1 2.5l-.1 1.1c0 .3-.2 1.3-.4 1.4-.4.3-1.6 0-1.9-1v-2.2c0-.9.4-3.2.2-4v-3.8q.3-1.8.3-3.7l-.2-2.9-.1-2.3-.3-3c-.5-2.8-.4-.8-.5-3.2l-.8-4c-.1-.8.3-.3-.1-2.5-.3-1.6-.2-1.3-.3-3-.2-1.3-.3-4.6-.2-6l.1-1.6.3-1.8c.1-1 .3-.2.5-1.3 0-.6.3-2.1.5-2.7.4-.6.7-1.9 1.2-2.5l1.2-2 .6-1.1.6-1.6.4-1zm9.3 7.2c-.4.9-1.2 2-1.5 2.8l-.7 1.7c-.4 1-.5 1-.8 2.5l-.6 2-.5 2.1-.3 2.8-.5 2.1v3.6l-.2 3.9v.9l.2 3q-.2 1.7.1 2.6c.4.5 0 2.6-.1 3.4v3.5l-.4 4c0 .7.3.7.3 1.5 0 .6-.4 2-.3 2.6v2.2l-.1 1c0 .2-.2 1-.4 1.1-.4.2-1.6 0-1.9-1-.1-.4.2-1.3.1-1.8-.1-.8.4-2.8.3-3.5l.2-3.3c0-1.2.4-2 .3-3.2V100l.2-2.5c-.2-2.6-.4-.8-.1-2.9-.1-.6-.3-3.1-.2-3.5 0-.8.3-.3.2-2.2l.1-2.6c0-1.1.5-4 .6-5.2l.7-2.9c.2-1 .3-.2.6-1.1 0-.5.3-1.8.5-2.3l1-2.1 1-1.9.7-1c.2-.2.7-1 1-1.1q.2-.5.6-.7zm10.7 3.2-1.6 2.5-.9 1.6-1.1 2.2-1.8 3.7-.8 2.5c-.6 1.5-1.4 2.3-1.4 4l-.3 1.2-1 3.6-.2.9-.3 2.8c0 1.1-.5 1.9-.2 2.5.3.5-.3 2.5-.4 3.2l-.4 3.3-.4 3.7c-.1.8.2.8.1 1.5 0 .6-.4 1.9-.3 2.5v2l-.2 1c0 .3-.3 1-.5 1.1-.4.2-1.6 0-1.8-1-.2-.4.2-1.3.1-1.8 0-.7.5-2.6.4-3.3l.4-3.2.5-3c0-2.7.2-2.4.4-4.5l.4-2.5c.2-2.4-.3-.8.3-2.7l.4-3.4c.2-.7.4-.2.7-2 .3-1.4.2-1.1.7-2.4l1.6-4.7 1.2-2.6c.4-.9.4-.2.8-1 .2-.4.6-1.6 1-2l1.1-1.9 1.3-1.6.6-.9 1-1 .7-.6zm13-.4-.7 1.4-.8 1.4-1 1.6c-.7.8-.8.8-1.6 2.2l-2.7 3.5c-.6 1-.8 1.6-1.5 2.5-.9 1.3-2 2-2.4 3.7l-.7 1.2-2.1 3.4-.5.8q-.7 1.3-1 2.8c-.4 1-1 1.7-.9 2.4s-.9 2.5-1 3.2l-.5 1.7-.3 1.8-.8 3.8c-.2.8.1.8 0 1.6 0 .6-.5 2-.5 2.6v2.2l-.3 1c0 .3-.3 1.1-.5 1.2-.5.2-1.7-.2-1.9-1.2l.3-1.9c0-.7.6-2.7.6-3.5 0-.6.4-2.9.6-3.4l.8-3.1.5-2.6.6-2.2 1-2.5c.8-2.5-.1-.9 1-2.8l1.4-3.3c.4-.7.5-.1 1.3-2l1.4-2.2 3-4.3c.9-1.4.8-1 1.8-2.4.5-.8.4 0 1-.8.2-.4.9-1.6 1.3-2s1-1.3 1.5-1.7l1.5-1.6.7-.8.8-1.3.7-.7zM48.8 194.2l.2-2.3-.2-2q0-.5-.3-.9v-1.2q.3-.7.3-1.5v-1.5q.3-1.5.3-3c0-1.4-1-2.6-.6-4.1l-.1-1.1-.6-3.4v-.5l-.1-.2v-.6H47v-.6l-.5-.5h-1.8l-.8.1-1.1.4-.4.2 1.7.7h2.1l-.3.5v1.2q.1 1 .5 1.9l.2 2.2.3 2.1.1 1.2v1l.2 3-.2 1.4c0 .4-.4 1.2-.3 1.9q.1 1 .5 1.7l.7 1.8.2.9.3.7q0 .4.3.8zm10.6.8v-4.7c-.2-1-.6-1-.6-2.6l-.2-3.4.1-3c-.1-1.6-1-3-.5-4.7v-1.3l-.3-2-.2-1-.2-.7q0-.5-.4-.6-.4-.2-.9-.1h-1.9l-1.3.2-1.2-.2-1 .1q-.5 0-1.1.4l-.5.2q1.1.5 2 .7c.8.2 2.4 0 3.2 0l.6.2h.6l.1.1v.2l.2.5.3 1 .2 2.4.3 5c0 1.5.2 1.8.3 3.4 0 .9-.2.9 0 1.8 0 .5 0 1.5.2 2l.6 1.6.6 2.1q0 .7.2 1l.5.9q0 .4.3.8zm10.4-2.6.4-2.5.2-2c0-1-.4-1.1-.3-2.7V182l.2-3c0-1.5-.9-3-.4-4.6l-.1-1.2v-.4l-.1-.7-.1-1.4h-1.8l-.6.1h-.5l-2.2.2-1.2.2-1.2-.2-1 .2q-.5 0-1.1.4l-.5.2 2 .7c.8.2 2.3-.2 3.1 0l2.7.3h.3l.2-.2.1.1v1.8c.2 1.1.4 3.8.4 4.8l.2 3.3c0 .9-.2.9-.2 1.7v2l.5 1.6.3 2.1v1l.4.8q0 .5.3.9zm12.9-.9V187c0-1-.4-1.1-.2-2.6l.1-3.3q.3-1.5 0-3.2c-.2-1.5-1.2-2.8-1-4.4q.2-.6 0-1.2V170l-2 .2H79l-.5.1-2.2.3-1.3.2-1.2-.2-.9.2-1.2.5-.4.2 2 .6c.7.2 2.3-.2 3.1 0l2.8.2h.4v-.1l.2-.2v.5l.1 1.3c.2 1.1.8 3.7.9 4.8.1 1.4.3 1.6.2 3.2 0 .8-.2.8-.2 1.7v2l.5 1.6.5 2.1.2 1q.1.5.4.8 0 .5.4.8zm24.3-37.3q-.5-1.3-2-1.8-3-1.5-6 0a8 8 0 0 0-2.8 2.6q-1.2 1.9-.5 3.8c.7 2 1.8 2.3 3.3 2.8q1.6.7 3.6.4a6 6 0 0 0 3.9-2.3q.7-1 .8-2.3a6 6 0 0 0-.3-3.3"/><path d="M107.1 154.4q.2 1.5-.4 2.8l-.9 1.9-.5.8q-.3.5-1.3.9-1.6.6-3.3.2-1.5-.5-2.5-1.4-1-.4-1.5-1.2-.7-1 0-2 .3-.3.4-1a7 7 0 0 1 5-3h1.3l1 .7q.6 0 1 .3l1.2.5.4.3q0-.8-.4-1.4l-.7-.9q-.6-.5-1.9-.8l-2-.3h-2q-1.1.1-1.8.5l-2 1.8-1 1.3q-.4.3-.7 1.5a5 5 0 0 0 .3 3.4q1.1 2 2.2 2.5 1.2.7 2 .9l2.1.4c1.1 0 1.2.2 2.3 0a7 7 0 0 0 2.5-1q.9-1 1.3-2 .6-1.5.7-2.7V156q0-.4-.4-1-.1-.5-.5-.8zm12.9 30.5.2-1.6v-1.4c0-.6-.4-.6-.3-1.6l-.1-2 .1-2c-.1-.9-1-1.8-.5-2.8q.2-.3 0-.7l-.2-2.3v-2.8l-1-.1-1 .2-.7.4-.3.3.7.4.3.1.1.1q.1.2.4 0v.3l-.1.2-.2.3-.2.9.3 1.3c.2.9 0 .7 0 1.6l.4 3c0 1 .2 1.2.3 2.2 0 .5-.2.5-.1 1l.1 1.3.5 1 .5 1.3.1.7.4.4.4.5zm10.6 2.2-.1-2.1-.1-1.8c-.2-.8-.6-.9-.6-2.2l-.3-2.7v-2.6c-.1-1.3-1-2.5-.6-3.9v-1l-.2-1.4v-1.2l.3-1.2h-.4l-2.7.4-1 .2-1-.1-.9.2-1 .4-.3.3 1.7.6c.7.1 2-.3 2.7-.2s.7.3.6.3h.1v.3l.2.5v2.1l.5 4.1.5 2.9c0 .7-.2.8 0 1.5 0 .4 0 1.3.2 1.7l.6 1.3.7 1.7q0 .5.3 1l.4.5.4.7zm12.2 6.3-.3.2.2-2.5v-2.4c-.2-1-.6-1.2-.6-3l-.3-3.6v-3.5l-.7-2.5a8 8 0 0 1-.3-2.7q0-.8-.3-1.4l-1-4.1-.5-2.1-1.6.2-1.4.2h-1.4l-1 .1-1.4.5-.5.2 2.2.7 1.9-.1 1.4-.2h.2l.3.2v.2h-.1v1.1l.8 2.3c.4 1.4.2 1.2.5 2.6q.3 1 .4 2.7l.4 2.7.5 3.7v2c0 .6.1 1.7.3 2.2l.5 1.8.6 2.4q0 .7.2 1.2.1.5.4.9v.3l.2.4.2-.3.4-.5zm12.9 1-.1-3.2-.3-2.6c-.3-1.2-.7-1.3-1-3.2l-.7-4-.5-3.9c-.5-1.8-1.6-3.5-1.5-5.5l-.3-1.5-.4-2.3-.2-1.1-.2-1.6-.1-.6h-1.7l-1.4.2-1.6.1h-2.6l-1.5.5-.6.2 2.4.7c1 .2 3-.2 4-.1h.8l.4.1q.1.2 0 .2l.7 2.6c.4 1.6.1 1.4.5 3l1.3 6 1 4c.2 1 0 1.1.3 2.2l.5 2.4.8 1.9.8 2.5.3 1.3.5 1 .4 1zm13.3.8q0-1.7-.4-3.2l-.5-2.8c-.3-1.2-.7-1.2-1-3.2l-1-4.2-.8-4c-.5-1.9-1.7-3.6-1.8-5.7q0-.8-.4-1.6l-1.3-4.7-.1-.4-.2-.5q-.1-.6-.7-.8h-1.1l-.7.1-1.7.2h-1.5l-1.2.1-1.6.5-.6.2 2.6.6c1 .2 3.1-.2 4.2-.2h.3l.3.1q.2 0 .1.2v.1l.1 1 1 2.6.8 3 1.6 6.1 1.2 4.2c.3 1.1 0 1.2.4 2.3l.6 2.5 1 2 1 2.6.4 1.3.6 1zm-9.3-36.2.2-1.9v-1.5c0-.8-.4-.8-.3-2l-.2-2.4.2-2.2c-.2-1-.8-2.2-.7-3.5l-.2-1-1.4-4-.2-1 .1-.8-.1-.7-.4-.9-.2-.3q-.6.8-.7 1.5c-.2.6.2 1.8.1 2.4v2.1l.7 1.5c.4.9.3.8.5 1.7l.3 1.5.1 1.8.3 2.5v2.8l.6 1.1.5 1.6v.8l.4.5q0 .4.3.6zm-31-25.2-5-1.1c-1.1-.3-3-.7-4.1-.8-2-.3-2.3 0-5.4-.6l-6.6-1q-3.1-.4-6.4-.6c-3.2 0-6.1 1-9.5 1.1q-1.2.1-2.5.5a84 84 0 0 0-11.7 3.7l-2.4 1-2.4.7-1.7.8-3 1.8 4-.8c1.5-.4 4.5-1.9 6-2.2l5.4-1.3 4-1.4c2.6-.7 2.1-.4 4.8-1l2-.3 2.8-.3 4.8-.2c3 0 3.7 0 6.7.3 1.8.2 1.7.5 3.5.7 1 .1 3 .5 4 .5h3.3l4.4.4 2.2.2h3.4zm-5.3-28.8q.7-7.7 2.5-15.3l-2.2-.2-9.8-.6-2.6-.2c-1-.1-1.2-.4-1.4.6q-.5 2.4-.5 4.9a262 262 0 0 0-.7 19.5l12.4.2q.8.1 1.3-.4l.2-.6.8-7.8Z"/><path d="m123.3 105.7-1.1 6.3-.1.6-.1.3v.1q-.3.3-.5.2h-1l-2-.2c-2.5 0-2.8.3-6.7 0h-2.4v-1.7l.1-3 .7-7.8v-5.8l.1-3 .3-2h1l1.6.1 9.6.4h1.9l.3.1v.5l-.3 1.4-.5 3.2-.7 3-.2 2.4v4.3l1.4-4.8c.4-2 .8-6 1.4-8l.2-.7.2-.4.2-.8.2-.7v-.8l-1.7-.3-2.2-.3-1.6-.1h-5.3l-3-.2-1.2-.2h-.9q-.9-.4-1.6.4c-.4.4-.5 1.3-.6 1.7l-.2 1.6V94l-.1 1-.4 6.1-.3 8.6-.2 2.3v1.2l.1 1 .2.1.1.1v.1l.6.2h.1l1.7.1 3.8.1 4.2-.3h2l1.1-.1q.8 0 1.3-.7.3-.5.3-1l.1-.6.3-2.8v-2.1l-.1-2.2zM61.9 61l16.7-4h.2l.1.3L81 66l.6 5.2a51 51 0 0 0 3 12.3c0 .2-8.4 2.9-9.1 3l-2.3.7c-.5.2-1.7.7-2.1.5-.9-.2-1-2.7-1.2-3.6-1.7-6-4.5-11.6-6.7-17.5l-1.8-5.7"/><path d="M61.6 61.6a52 52 0 0 0 3.8 12.5c1 2.6 1.6 2.8 2.8 7l1 3.4.3 1.9.1.5v.2l.2.4q.3.7 1 1h.8l.7-.1 1-.3 4.2-1 6.1-2 .7-.2.8-.5.2-.3v-.2c.4.1.2 0 .2 0V83l-1-2.5-.7-2.1q-.6-2.2-.8-4.5l-.5-3.4q-.3-2.7-.8-5.3l-.6-2.7-.7-2.5-.4-1.6-.3-.9q0-.6-.4-1l-.5-.2h-.5l-1 .3-1.6.4-3.5 1-3.3.5-2.6.7-3.3 1.2-1.2.5 5.6-.5c2.2-.4 6.6-1.7 8.8-2l1.7-.3h.2v.7l.2.5.6 2.7.7 2.8.4 1.4.3 1.4.3 3.4a60 60 0 0 0 2.2 9.8l.4 1.2.2.7v.2l-.2.1-1 .4-2 .6-4.4 1.5-2 .6-.5.1H73l-.4.2-.6.2-.3.1h-.2l-.2-.1v-.2l-.2-.8v-1L71 84l-.3-.8c-.3-1.4-1.1-4.1-1.7-5.4l-2-4.3q-1.5-2.7-2.6-5.5l-1.1-2.8-1-2.1-.8-2.3zM115 188.7l-.6-8.9c-.2-2-.3-5.3-.6-7.4-.3-3.5-.8-4-1.2-9.4l-.5-5.7c-.1-1.8.3-3.8 0-6l-.3-2.7-.2-1.3v-2.2l-.1-.4v-.1h-.2l-.1-.2-.5-.3h-4.8l-8 .7-4 .3-2.1.1h-3.2v.4l.8 5.3 1 13.2.5 8 .5 4.4c.2 1.4 0 3 .3 4.3l.6 3.2 1 4.3.2.6v.4s0 .4-.3.3q.4 0 .4-.3l.1-.5V186l-.2-3c-.3-2.8-1.1-8.5-1.1-11.3 0-2.3 0-7.5-.2-9.7l-.6-7.4-.4-4.3-.1-1.6-.2-1.2v-.5h.6l2-.2 4.9-.2 11.2-.5h.1v.9l.1.6.5 2.6q.4 1.5.3 3.2c-.2 3-.5 3.2-.2 6.3l.8 7 1 5.7q.7 3.7 1.2 7.6l.4 3.8.7 2.8.2 1.6c0 .5.3 1 0 1.3q.4-.2.3-.8M10.3 47l.3-.2 2-1.4 1.1-.8q1.3-.9 2.8-1.3c.8-.7 1-.7 1.8-1 .2 0 1.3-.6 1.6-.6l.5-.3.8-.3h-.5l-.8.2c-.7.1-2.2.8-2.5.6l-1.2.4-.8.3c-.8.3-2 1-2 .8l-1 .5-.5.4-1.2 1c-.1 0-.8.4-.9.6l.1.6zm2.4 6.6q.2 0 .3-.2c.6-.3 1.5-1.2 2.3-1.8l1.2-1 3-2c.9-.8 1-.8 1.9-1.3l1.7-1.1.6-.4.8-.5-.5.1-1 .4c-.7.3-2.3 1.3-2.7 1.1l-1.2.7-.9.5c-.8.4-2.1 1.5-2.2 1.2l-1 .7-.5.4-1.4 1.2c-.1.2-1 .6-1 .9l.2.6zm4.9 3.4.2-.1c.5-.4 1.2-1.3 1.9-1.8q0-.5 1-1.1c.9-.8 1.4-1.2 2.5-1.8.7-.8.8-.8 1.6-1.3.2 0 1.3-.8 1.5-1l.5-.2.8-.4H27q-.5 0-.8.3c-.7.3-2.2 1.1-2.5 1l-1.1.6-.7.4c-.8.5-1.9 1.5-2 1.3l-.8.7-.4.4-1 1.2c-.2.2-.8.7-.8 1l.2.5s.3.4.4.3Zm2.8 8.6.3-.3c.4-.7 1.1-2 2-2.8q0-.4 1-1.5c1.1-1.2 1.8-1.8 3-2.7 1-1.1 1-1.2 2-1.9l2-1.4.5-.5 1-.7-.7.2-1 .6c-.8.5-2.5 1.8-3 1.7l-1.3 1-.9.6c-1 .7-2.2 2.2-2.3 2l-1 1-.5.6-1.1 1.8c-.2.3-.8 1.1-.8 1.4l.3.6zm3.6 6.1.2-.4c.5-.7 1-2.2 1.8-3.2q0-.5 1-1.7c1-1.5 1.6-2.2 2.9-3.4.8-1.2 1-1.3 1.9-2.1.3-.3 1.6-1.5 2-1.7l.6-.6 1-.7-.7.2-1.1.7c-1 .5-2.7 2-3.1 2L29 62.1l-.8.8q-.8.6-1.4 1.6-.7.9-.9.8l-.8 1.2-.5.8-1 2c-.2.3-.8 1.2-.7 1.5l.3.6c.1 0 .6.4.7.3m7.7 0 .2-.2 1-2.4.3-1.3 1.5-2.7c.3-1 .4-1 1-1.8l1-1.4.4-.4.5-.6-.4.2q-.4.1-.7.5c-.6.4-1.6 1.7-2 1.7l-.7 1-.5.7c-.5.8-1 2.2-1.2 2l-.4 1-.2.6L31 70c0 .2-.3 1-.1 1.2l.3.3zm4.4 4.9.1-.3c.3-.6.4-1.8.7-2.7L37 72c.3-1.3.5-2 1-3.2l.6-2.2.7-1.8.2-.6.3-.9-.3.4-.5.9c-.4.6-1 2.3-1.4 2.4l-.5 1.3-.4.8c-.3 1-.6 2.5-.9 2.4l-.3 1-.1.7-.2 1.7c0 .3-.3 1.1-.1 1.3l.4.4zm4.7 4.7V81c.2-.8.3-2.1.6-3.1v-1.7l1-3.7c.1-1.2.2-1.4.5-2.4l.6-2 .2-.7.3-1-.4.4-.4 1c-.4.8-1 2.7-1.3 2.9l-.5 1.4-.3 1c-.3 1-.5 2.7-.8 2.5l-.2 1.2-.2.8v1.9c-.1.3-.3 1.2-.2 1.4l.5.4zm7.1.3v-2.8l-.2-1.4v-3c-.3-1-.3-1.1-.3-2l-.2-1.7V70l-.2-.8-.1.5v.8c0 .7 0 2.3-.2 2.5v2c0 .8.1 2.2-.1 2.2v1.5l.2 1.5.1 1.1.5.2zM153 71.2v1l-.1.7c-.1.3-.2.3-.2.9 0 .4-.5 1-.6 1.4q0 .5-.2.9c-.4.4-1 .5-.8 1.3q0 .2-.3.3l-.9 1-.2.3-.4.9c-.1.4-.5.4-.4.8.1.3-.5.7-.7.9l-.6 1-.8 1-.2.5-.6.6-.3.6-.3.2-.4.2a1 1 0 0 1-.7-.8l.2-.6c0-.3.6-.7.6-1 0-.2.5-.7.7-.9l.7-.8.7-1.4.5-.7c.3-.7-.2-.4.4-.8l.4-1c.2-.3.4 0 .6-.6l.5-.7q.5-.6.8-1.4l.5-.8c0-.3.3 0 .4-.2q0-.5.2-.8l.3-.6q.4-.3.4-.6l.2-.3.3-.4zm29.3 2.8v-1.4q-.4-.2-.4-.7l-.6-1.8-1-.7-.8-.5-.2-.2-.5-.1.1.2.4.4c.2.2.9.7.7 1l.3.5.1.4c.2.3.5 1 .2 1v.4l.2.3.2.8.2.6h1.1Zm-4.2 2.6h.2v-.2q.2-.7 0-1.8l-.2-1c-.1-.9-.1-1.4-.4-2.4-.7-.5-.7-.6-1-1.1l-1-1-.2-.2-.4-.4v.3l.4.5c.2.5 1 1.3.7 1.7l.4.7v.4c.2.5.4 1.5 0 1.5v1.1l.2 1q0 .5.2.8l.6.2zm-4.8 1.1.1-.2.1-1.9-.3-1-.3-2.2c-.4-.6-.4-.7-.6-1.3l-.5-1.2-.3-.3-.6-.3.2.3.3.5c.2.4.5 1.4.2 1.7l.2.8v.5c0 .6.4 1.6 0 1.6l.1.6v.4l.2 1q-.1.4 0 .8l.6.2zm-4.3-4.1v-.2l-.8-1.2q-.3 0-.6-.3l-1-1c-.6 0-.6-.1-1-.3l-.6-.4-.3-.1-.3-.1v.2l.3.2c.2.3.8.7.7 1l.4.4.2.2c.3.3.9.6.6.8l.3.3.2.1.4.4s0 .4.2.3h.6z"/><path d="M108.7 169q-.2-.5-.6-.8c-.6-.4-1.5.4-1.7.8l-.2.6q0 .7.7 1 .9.3 1.3-.2l.5-.4a1 1 0 0 0 0-1"/><path d="m108.8 168.9-.1.2v.5q0 .2-.2.3l-.1.1h-.2l-.2.2-.1.1-.1.2-.2-.1c-.2-.3-.3 0-.5-.2h-.2v-.2l-.2-.1v-.1h-.2v-.1l-.1-.1.1-.1v-.2l.1-.1v-.3l.3-.2h.3v-.2l.1-.1h.5l.1-.2.2.2v.1h.2l.2.3zv-.3l-.1-.2-.2-.2-.2-.1-.2-.2-.4-.1-.5.1-.2.1-.3.2-.3.2-.2.2v.1l-.2.2v.2l-.2.3v.4l.1.2.1.3.3.3v.2h.4l.2.1.7.2h.3l.7-.4.3-.5.2-.2v-.6l-.1-.4z" style="fill:#202020"/><path d="m74.8 142.4-.2 1.4v1.2q0 .5-.3 1.1.2.4-.1.7l-.1.6-.3.6h-.2l-.4-.2q-.3-.4-.3-1v-1.2l.4-.9.1-1q.3-1.2.8-2.1h.3c.2 0 .2.6.2.7zm4.2 2.8q0 .9-.4 1.8l-.2 1.6-.5 1.5q0 .6-.3 1-.2.2-.2.7l-.4.8-.3.1q-.2-.1-.3-.4c0-.3-.3-1-.1-1.3l.2-.6q0-.6.2-1l.4-1.2.4-1.4 1-2.7.4-.1c.3 0 .2.9.1 1zm3.6 4.5-.3 1.6-.1 1.2-.4 1.3q.1.5-.2.8l-.1.6q0 .4-.3.8H81l-.3-.3q-.3-.6-.3-1t.2-.6v-.9l.4-1 .3-1.2q.3-1.2 1-2.3h.2c.3 0 .2.7.2.8zm-10.9 7.8q0 .8-.3 1.4l-.1 1.2-.4 1.1q0 .4-.3.7l-.1.5-.4.6h-.3l-.3-.3q-.2-.5-.1-1l.1-.4.1-.8.4-.8 1.1-3h.4c.2 0 .2.6.2.7zm6.2 1.5v2.5q0 .3-.2.5t0 .4l-.3.4h-.2l-.4-.1-.4-.7v-.8l.2-.6.1-.7q0-.6.5-1.4h.3q.3.2.3.5Zm6.8 1.2v1.5q0 .7.3 1.3v1.3q.2.4.1.8v1.4l-.1.2-.5-.2q-.4-.4-.6-1l-.1-.5-.2-.9v-2.3q-.1-1.3.4-2.5l.3-.1c.2 0 .3.7.4.8zm.9-19.2v1l.2.9v.9q.2.3 0 .5-.1.2 0 .4l-.1.5-.3.1-.4-.1q-.4-.3-.5-.7v-2.4q0-.9.4-1.6l.3-.1q.3.2.4.5Zm6-5.4.1.5.2.4v.4l-.1.2q-.1.2 0 .2l-.1.3H91l-.5-.3v-1.2q0-.3.4-.7h.3q.4 0 .4.2m6-1.3.4 1.5q.1.6.4 1.1l.1 1.2q.2.4.1.8l.1.6v.7l-.2.2-.5-.2-.6-.8v-.6l-.3-.7v-1l-.2-1.1q-.2-1.2-.1-2.3l.2-.2c.3 0 .5.6.5.7zm5.9 2.3q.3.4.3 1l.4.7q0 .5.2.9v.5l.2.4v.5l-.2.2h-.4q-.6-.3-.7-.6l-.1-.3q0-.3-.3-.5v-.8l-.2-.8v-1.6l.4-.2q.4.2.4.5Zm7.2-.5.3 1 .4.8.1.8.2.5v.5l.1.5-.2.1h-.4q-.4-.1-.7-.5l-.1-.3-.2-.6-.1-.7-.2-.8v-1.7l.3-.1zm6.9-.2.2 1.1.2 1v1q.2.3 0 .5v1.1h-.7q-.5-.5-.5-.8v-.4l-.2-.6.1-.8v-2.6l.4-.2c.2 0 .4.5.4.6Zm5.8-2.3.2 1.1.2 1v.9q.2.3 0 .5v1.1h-.7q-.4-.3-.5-.8v-.4l-.2-.5.1-.8v-.8l.1-1.8.3-.2c.2 0 .4.5.4.6m.7 13v3.2l-.1 1.5q.1.5-.1.9-.2.3 0 .7l-.2.9-.3.1q-.2 0-.3-.3-.4-.6-.5-1.1v-1.6l.2-1.2v-1.3q.1-1.4.6-2.7l.3-.1c.2 0 .3.7.3.9zm-8.1 2.1-.1 1.6v2.6q.2.4 0 .7v1.5l-.3.1-.4-.2q-.5-.5-.6-1v-2.5l.1-1.3q.1-1.2.7-2.4h.3c.2 0 .3.7.3.8zm3.1 5.7.2.7q.1.3.4.5l.1.6q.2.2.1.4-.1.1.1.3v.4l-.2.1h-.4q-.5 0-.6-.2l-.1-.3-.2-.3v-.5l-.3-.6v-1.2l.3-.2q.3 0 .5.3m3.6 1.3q.4.4.6 1l.5.8.4.8q.2.2.2.5l.2.5.2.5-.2.2h-.4q-.5 0-.8-.4l-.2-.3-.3-.5-.2-.8-.4-.8q-.4-.7-.4-1.8l.2-.2.6.4zm-3.8-9.8.2.7.3.6v.7q.3.1.1.3v.7l-.2.2h-.4l-.6-.4v-.3l-.2-.4v-.5l-.1-.6.1-1.3h.3q.4 0 .5.2m-2.4 13.3.1.8q0 .4.3.7v1.2q-.2 0 0 .3v.4l-.3.1h-.4l-.6-.5v-.3l-.1-.5V160q0-.8.2-1.4h.3c.3-.1.4.3.4.3Zm-29.8 14v.7l.2.5v1.4h-.6q-.5 0-.6-.3v-.2l-.2-.4.1-.4v-.6q-.1-.5.4-1h.3q.3 0 .3.3m1.1 13.8.1.9.2.8v.7q.2.3 0 .5-.2.1 0 .4l-.1.4-.3.1H87q-.4-.3-.5-.7v-.3l-.2-.5.1-.6v-.8q0-.8.4-1.5h.4q.3.2.3.5Zm-10.3-7.7.2 2 .2 1.5-.1 1.6q.2.4 0 .9-.3.3-.1.8l-.2.9-.3.2-.3-.3q-.4-.7-.5-1.3v-1.6l.1-1.3v-1.4q0-1.5.2-2.9l.3-.1c.2-.1.4.7.4.9zm-11.6-.4q0 .6-.3 1.1t-.2 1l-.4 1q0 .2-.3.5l-.1.4-.4.5h-.2l-.3-.2-.2-1 .1-.4.2-.6.4-.7.3-.9 1-1.6h.3c.3.1.2.7.2.7zm-9.8 3.1-.5 1-.3 1-.4.8q0 .3-.3.5l-.1.4-.4.5h-.2l-.3-.3q-.2-.4-.2-.9l.1-.4.2-.6.4-.6.5-.8q.4-.8 1.2-1.4h.3v.7zM51 191l-.1.2v.3l-.2.2q0 .2-.2 0v.2h-.2l-.2-.2-.3-.2-.3-.5v-.2h.2l.1-.1q0-.2.6-.2l.3.1q.3.1.2.3m14.1-4.6v.7l-.1.6-.3.6q0 .2-.2.3l-.1.2-.3.3h-.3q0-.3-.3-.4l-.2-.6.1-.2v-.3l.4-.4.1-.4.7-1 .3.1q.3.2.3.4m1.4-22.8-.3.9-.2.7-.4.7q0 .2-.2.3t-.2.4l-.3.3h-.3l-.2-.3-.2-.8.1-.3.1-.4.4-.5.3-.6 1-1h.3c.3 0 .2.5.1.5zm8.1.6-.2.4v.3l-.3.2-.1.1-.1.2h-.4l-.4-.3-.3-.5h.1v-.3q.2 0 .3-.2l.2-.2.8-.2.2.2q.2.2.1.4Zm58.6 10.3.7.8.7.6.6.6q.3.1.4.4 0 .2.3.3t.4.3v.3l-.4.2q-.4.2-.9 0l-.3-.2-.6-.4-.5-.6-.6-.7q-.5-.8-.6-1.8l.2-.2c.2-.1.5.3.6.3Zm2.3 6.1.5.5.4.4q.3 0 .4.4.3 0 .2.2t.3.2l.2.3v.2l-.4.3q-.4.3-.7.2l-.2-.2-.4-.2-.3-.5-.4-.5q-.4-.6-.4-1.3l.3-.2zm-13-6.7.3.3.4.3.1.3q.2 0 .1.2l.1.2v.2l-.1.2-.4.2h-.6v-.1q-.2 0-.3-.2v-.3l-.2-.3v-.8l.2-.2q.2-.1.4 0m1.5 5.5.6 1 .7.7.5.7q.4.2.4.5t.3.3l.3.5v.2l-.5.2-.9-.2-.3-.3-.5-.5-.4-.7-.5-.8a4 4 0 0 1-.7-1.8l.3-.2c.2-.1.5.3.6.3zm1 7.3.1.2.3.1v.2q.1 0 0 .2h.1v.3l-.1.1-.4.2-.5.2-.1-.1-.2-.2v-.3l-.1-.3.2-.6.3-.1zm-44.2-50.1v2.3l-.4 1.1q.1.5-.2.6l-.1.6-.4.5h-.3l-.2-.3q-.4-.4-.3-.9l.2-.4v-.6l.3-.8.7-2.8.3-.1c.3 0 .4.6.4.7Zm11.2 5.5v-.6l-.2-.5v-.8q.2 0 0-.2l.2-.3h.6q.4.1.6.4v1.4q-.1.4-.5.9h-.3q-.3 0-.3-.3Zm14.5-10.9.2.8.2.7.1.6q.2.2 0 .4-.1.1.1.3v.4l-.3.2h-.4q-.5-.2-.6-.5v-.3l-.2-.4V132l.1-1.3h.4q.3 0 .4.3"/></g></mask></defs><g id="Layer_1_copy" style="mask:url(#mask)"><g id="Chantrelle_Right"><path d="M8.8 37.5c-2.6 4.3-5.2 9.3-3.5 14 1.3 3.3 4.4 5.4 7 7.9 3.6 3.6 6 8.3 9.3 12.3q5 6.3 12 10 1.8 1.2 3.9 1.4 1.5 0 3.2-.4l7-1.7q2.9-.6 5.5-2.1c4.1-3 4.4-9.3 2.3-14-2-4.7-5.7-8.5-8.4-12.9s-4.5-9.5-7.7-13.7a24 24 0 0 0-24.5-8c-3.4 1-4.4 4.2-6.1 7.2" class="cls-3"/><path d="M37.8 83.3h-.3q-2-.2-4-1.4A40 40 0 0 1 18 67a50 50 0 0 0-5.8-7.4l-2-1.8c-1.9-1.8-4-3.7-5-6.2-1.7-4.7 1-9.7 3.5-14q.7-1 1-1.9c1.3-2.3 2.5-4.5 5.3-5.4q4.3-1.1 9.1-.5c6.3.8 12 4 15.6 8.6q2.7 3.8 4.7 8a67 67 0 0 0 6.3 10.4c1.9 2.6 3.9 5.2 5.1 8.1 2 4.8 1.9 11.1-2.4 14.2q-2.7 1.7-5.6 2.1l-7 1.7q-1.3.4-2.8.5ZM9 37.6C6.3 42 3.7 46.8 5.5 51.4c.9 2.5 3 4.3 4.9 6l2 1.9q3.2 3.5 5.7 7.5 1.7 2.5 3.6 4.8 5 6.3 12 10 1.8 1.2 3.8 1.3 1.5.1 3.2-.4l6.9-1.7q2.9-.6 5.5-2c4.1-3 4.3-9.2 2.3-13.9q-2.1-4.3-5-8a71 71 0 0 1-6.5-10.4q-1.8-4.3-4.6-8a23 23 0 0 0-24.3-8c-2.7.8-3.8 2.9-5 5.2zM142 73q-1.3 1-1.7 2.4c-.3 1 .1 2.2 1.1 2.5q.8.2 1.7-.1 11.3-3.2 23.1-2.6 1-.1 1.8.4.8.8 1.2 2c1.4 2.9 5.3 3.7 8.3 2.6s5.3-3.4 7.5-5.7l8.4-8.9q1-1 1.5-2.3c.3-1.2-.5-2.5-1.5-3.3q-1.7-1-3.7-1.2a68 68 0 0 0-26.7 3.5c-4.4 1.2-9.3 1.9-13.5 3.6-2.8 1.1-5 6.6-7.5 7Z" class="cls-3"/><path d="M174.8 80.8c-2.6 0-4.8-1.3-5.7-3.1l-.3-.6q-.3-.8-1-1.4-.7-.3-1.6-.4A74 74 0 0 0 143 78q-.8.3-1.7.1c-1.1-.3-1.5-1.6-1.3-2.6q.6-1.5 1.7-2.6h.1c1.3-.2 2.5-1.7 3.8-3.4 1.1-1.5 2.4-3 3.8-3.6q4.4-1.7 9-2.6l4.4-1a67 67 0 0 1 26.8-3.5q2 .2 3.7 1.2c1 .7 2 2 1.6 3.5-.2 1-1 1.7-1.5 2.3l-8.4 8.9a20 20 0 0 1-7.6 5.8q-1.4.4-2.7.4Zm-12-5.9 3.4.1q1 0 1.9.5.6.6 1 1.5l.2.5c1.4 2.9 5.4 3.5 8.2 2.6 3-1 5.3-3.5 7.4-5.7l8.4-8.9q1-.9 1.4-2.2c.3-1.3-.5-2.5-1.4-3.1q-1.7-1-3.6-1.2c-9-1.3-18.4 1.2-26.7 3.4l-4.4 1.1a55 55 0 0 0-9 2.5c-1.3.6-2.5 2.1-3.7 3.6-1.3 1.7-2.5 3.2-3.9 3.5q-1 .9-1.6 2.4c-.2.8.2 2 1 2.2q.9.2 1.6-.1 9.7-2.7 19.7-2.7" class="cls-3"/><path d="M143.4 179.2a41 41 0 0 1-14.7-16c-1.8-4.2-2.1-9-2.2-13.6 0-29.1 10-58.2 28.1-81 1.3-1.6 2.8-3.3 3-5.4.2-3.2-2.3-6-5-7.7a59 59 0 0 0-15.1-6.6q-27.5-9-55.1-17.2a141 141 0 0 0-26.4-6 123 123 0 0 0-19.2-.2l-16 .5c-6.8.2-3.3 5.1-1.4 8.9 2.4 5 6 9.3 9.7 13.4l15.5 18.2C49.8 72.5 55 78.4 59 85a93 93 0 0 1 12.2 44 111 111 0 0 1-2 26.5 13 13 0 0 1-2.6 5.2C62 166.5 58 172.6 53 178c-2.6 2.7-5.4 5.8-8.9 7.1q-9.6 3.6-18.8 8.1c-3.5 1.7-7.1 3.6-8.9 7l-.2.8c0 .8 1 1.3 1.8 1.5 8.2 1.6 16.3-3.7 24-5.6 2.8-.7 5.9-1.2 8.5 0q.8.2 1.3.8c.8 1.1.3 2.7-.4 3.8s-1.6 2.4-1.4 3.7 1.6 2.4 3 2.6a10 10 0 0 0 4.2-.6l11.1-3.2c1.6-.4 3.3-.8 4.7 0q1.5 1 2.4 3a15 15 0 0 0 5.4 5c1.8 1 4 .1 5.8-.7q4.2-1.7 8.7-2.3 1-.2 1.7.3 3 2.8 6.9 4.5a13 13 0 0 0 6.4 1.3c5.6-.6 9.3-6.3 14.8-7.8 4.5-1.2 9.2.7 13.5 2.5s9.1 3.6 13.5 2l1.2-.7c.7-.6.7-1.7 1-2.6 1.1-2.8 4.8-3.4 7.7-2.7 2.8.7 5.6 2.2 8.5 2 1 0 2.2-.6 1.8-1.5l-.6-.8c-.9-1-.6-2.6.3-3.6a6 6 0 0 1 3.5-1.7q3.8-.5 7.6.3 2.2.5 4.6.2c1.5-.3 3-1.4 3-3q.1-1.9-1.6-3c-1.7-1.1-2.2-1-3.4-1.4-4.3-1.2-8.5-2.7-12.8-3.6-4.3-1-9-3-13.4-3.2q-8.5-2.4-16-7.3Z" class="cls-3"/><path d="M76.7 28.7q21.9 6.6 44.8 14l11.4 3.5q5.7 1.8 11.3 3.8c3.8 1.5 7.4 3.1 10.7 5.7 1.5 1.4 3 3 3.6 5.3s-.3 4.7-1.4 6.3l-3.2 4.2a79 79 0 0 0-6.4 9l-3 5a121 121 0 0 0-14.1 37.2 148 148 0 0 0-2.8 27.5c0 3.7.3 8 1.7 11.8s4 7.1 6.6 9.7q4.2 4 7.2 6c2.9 2.1-2.5-1.3-1.5-.3a23 23 0 0 1-12-10 24 24 0 0 1-3.3-8.7c-1.2-6.2-.7-12.3-.5-16.8a126 126 0 0 1 12.7-49.4c2.5-5.3 6.3-12.2 11.4-19.3l4-5.4c1.5-1.8 2.7-3.6 2.5-5.5-.1-1.8-1.5-3.7-3.3-5a31 31 0 0 0-6-3.6q-6.6-2.9-13.4-4.8l-13-4.1-21.4-6.6-18.6-6c-2-.5-3.8-1.1-6.6-2-2.9-.7-6.6-1.8-12.3-2.8-11.3-2.1-22.8-1-34.3-.8l-4.3.2q-2.4 0-4.1.3c-2.7.5-1 3.7.3 6a57 57 0 0 0 9.8 14l13.4 15.2c6 7 12.5 14.1 17.7 22.9A89 89 0 0 1 71 115.4a121 121 0 0 1 .7 32.9l-1.1 6.1q-.4 3.2-2.3 6.1l-7.6 9.9a113 113 0 0 1-8 9.4q-2.1 2.3-4.7 4.3-1.2 1-2.8 1.7l-3 1.2q-6.3 2.4-12.6 5.3c-4 2-8.5 3.6-11.3 6.8l-1 1.3-.1.3-.1.2v.2q0 .3.7.5l1.6.2q3.2.3 6.5-.4c4.4-1 8.6-3 13-4.4 3-1 6.1-2 9.6-1.5l2.5.7c.8.3 1.8 1.1 2 2.3.3 2.2-1.1 3.7-1.7 4.9q-1.1 2 .5 3 1.5 1 3.8.3l8.9-2.6 4.4-1.2q1.2-.4 2.6-.3 1.6 0 2.8 1c1.4 1.4 1.8 2.9 2.8 4a14 14 0 0 0 4.7 3.7q.7.2 1.7 0 2-.6 4.2-1.6a35 35 0 0 1 6.9-1.8l1.3-.1q1-.1 1.9.7 3.8 3.4 8.5 5a9 9 0 0 0 4.6.2q2.2-.5 4.3-2c2.6-1.8 5.3-4.3 8.8-5.5 4-1.3 8-.2 11.4 1 3.5 1.4 6.6 3.1 10 3.8q2 .5 3.9.3l1.8-.3q1-.2 1.4-.5t.5-1.4q.3-1 1-2.2 1.8-2 4.1-2.2t4.4.2l3.7 1.2q1.8.6 3.5.8h1.2q.2-.2.1-.5l-.1-.1q-.3-.3-.5-.9-.4-1-.2-1.9.3-2 1.9-3c2-1.3 4-1.4 6-1.4q3 0 5.8.6c1.9.3 3.6.5 4.8-.4 1.3-.9 1.4-2.4.2-3.5-1.1-1-3.1-1.4-5-2q-5.8-1.8-11.8-3.3l-6.7-2-4-.9-1.2-.2h-.5l-.7-.2-2.2-.7c-6-2-11.3-5-13.7-6.8 2.9 1.6 6 2.4 12.5 4.3l3.3 1.2.7.2h.5q3.3.6 6.7 1.6 3.5 1.1 6.4 1.8l5 1.4 9 2.6c1.5.5 3.4 1.4 4.2 3.3q.6 1.4 0 3-.8 1.4-2 2c-2.1 1.2-4.3.8-6 .5q-2.9-.5-5.4-.5-2.9-.1-4.8 1-1 .7-1 1.7v.9l.3.3.7 1q.5 1.4-.9 2.3a4 4 0 0 1-2.4.6 14 14 0 0 1-3.7-.7c-2.3-.7-4.4-1.6-6.5-1.6-2.2 0-4.2 1-4.6 2.8q0 .8-.7 2-.8 1.2-2 1.4-1.7.7-3.7.7c-5.2 0-9.6-2.4-14-4q-3.1-1.4-6.5-1.5a11 11 0 0 0-6.1 1.8c-3 1.7-5.6 4.4-9.3 5.8q-2.9 1-5.8.4a27 27 0 0 1-10.7-5.8c0-.3-1.4 0-2.4.2a31 31 0 0 0-6.2 1.8q-1.4.7-3.6 1.4-1 .2-2.2.1-1.4-.2-2.2-.8a16 16 0 0 1-5.8-6q-.9-1.9-2.1-2.1-1.5-.2-3.4.4l-3.8 1-7.3 2.1a12 12 0 0 1-3.7.7 5 5 0 0 1-3.9-1.8q-.8-1-.8-2.3t.5-2.1q1-1.6 1.6-3 .4-1.3-.5-1.8-1.3-.6-2.9-.7-3.1-.2-6.5 1c-4.3 1.2-8.5 3.2-13 4.5q-3.6 1-7.2 1.1a17 17 0 0 1-3.8-.5c-.6-.1-1.8-.8-2-1.8v-1.4l.6-1c1.4-2.3 3.6-4 5.7-5.2q3.3-1.8 6.5-3.3 6.6-3 13.4-5.7l3.2-1.4q1.5-.6 2.8-1.8 2.6-2.2 5-5 4.6-5.3 9-11.1l3.8-4.9a13 13 0 0 0 2.8-4.9L69 150l.6-3 .3-3c1.2-15.5-.3-31.6-5.9-46.2q-3.5-9.3-9.2-17.2-6-8-12.5-15.3L27.7 48.6q-3.9-4.3-7.1-9l-2.8-5c-.8-1.6-2-3.2-2.2-5.5-.2-1 .2-2.4 1-3.2q1.5-1 2.6-1 2.2-.3 3.8-.3l6.2-.2c4-.2 8-.4 14.2-.5a96 96 0 0 1 33 4.7z" class="cls-5"/><path d="m42.7 189.5.2-22.3c0-4.4.5-9.6.4-14q0-4.4-.5-8.7c-.3-1.7-.8-1-2.1.4-.9 1-1.9.8-1.9 2.4l.2 2.8q.3 10.8 0 21.7v5.2c0 2.3-.5 6.8-.2 9 .1.6.5.4.7 1q.9 2.7 1.8 3.7c.5.4 1.4.6 1.4-1.2" class="cls-5"/><path d="M42.5 170.9c6.5.6 15 .4 21.5.3 4.2 0 9.3 0 13.5-.2l8.1-.7c1.5-.3 1-.8-.4-2.2-.9-.9-.7-1.8-2.3-1.8l-2.7.2q-10.4.9-20.7 1h-5c-2.1 0-6.4-.5-8.5-.2-.5 0-.3.4-1 .6-1.5.5-3 .9-3.6 1.5-.4.4-.7 1.3 1 1.5Z" class="cls-5"/><path d="M84.2 189.6c-.8-5-1.4-14.8-2.2-20.8" class="cls-3"/><path d="M81 170.6q0 1.6.3 3.1l.2 3.8c.2 3.6.4 4.7.6 6.3.4 4 .4 4.6 1 4.7.4.1 2.4 1.6 2.4.5 0-1-.9-7.6-1-9.1q-.1-3.6-.5-6.2a21 21 0 0 0-.7-4.6c-.1-1-1 0-1.6.2s-.9.2-.8 1.3" class="cls-5"/><path d="M120 166.6c.7 6.5 1.7 16.9 1.8 23.5" class="cls-3"/><path d="M123 188v-3.5l-.2-4.3c-.3-4.1-.5-5.3-.7-7.1-.4-4.5-.3-5.2-1-5.3-.4-.1-2.4-2-2.5-.7-.1 1.2.8 8.7 1 10.4q0 4 .4 6.9c0 1.9.2 5 .4 5.1 0 1.2 1 .2 1.8 0 .7-.2.9-.2.9-1.4Z" class="cls-5"/><path d="M118.7 168c6.5-.7 15-1.9 21.6-2.5 4.2-.3 9.3-.4 13.5-.8l8.2-.7c1.5-.2 1-.8-.4-2.1-.9-1-.7-2-2.3-1.9l-2.8.2-21.2 2q-2.4.4-5 .6c-2.2.2-6.6.3-8.7 1-.5 0-.3.4-1 .7a10 10 0 0 0-3.2 2.2c-.4.5-.5 1.4 1.3 1.2Z" class="cls-5"/><path d="M66.7 73.8c4.5-1.3 10-3 14.5-4.1" class="cls-3"/><path d="m79.5 71-.2-.2-.9.3-1 .5-1.4.2-1 .4-1.5.4h-.4l-1.1.5-.7.2H71l-.7.1-.7.3q-.4.4-1 .3l-.6.1c-.1 0-.9.3-1 .2q-.4-.2-.3-.6c0-.4-.3-.1 0-.5l1-.4.6-.2 1-.3h.4l.5-.1.4-.1.5-.3 1.8-.3q.3 0 .4-.3l.9-.3 1.4-.2.3-.3 1.6-.4q.8 0 1.4-.4a4 4 0 0 1 1.8-.3h.4s.3.8.2.9c-.1.6-.1.2-.4.4l-1.1.3z" class="cls-5"/><path d="M70.3 59c1.7 9 4.6 17.4 6.9 25.8" class="cls-3"/><path d="M75.5 81.7v-.4l-.5-1.5-.7-1.8-.5-2.5-.7-1.9-.7-2.5-.1-.7-.7-2.1-.3-1.2v-.6l-.2-1.2q-.3-.4-.4-1.3-.4-.8-.5-1.8v-1l-.3-2q.2-.4.6-.2c.4.2 0-.5.5 0l.4 1.9c.2.2.2.9.3 1.1 0 .4.4 1.4.5 1.8.1.6 0 .2 0 .8l.2.8c0 .4 0 .3.2.6l.4 1 .6 3.2.3.6.6 1.7c0 .6.3 1.7.4 2.3l.4.7.8 2.7q.3 1.3.8 2.5.5 1 .6 2.3l.1.9q.2.3 0 .7l-1 .3c-.7-.3-.2-.3-.5-.8l-.6-2z" class="cls-5"/><path d="M47.7 7.5h-2c-9.6.4-19.6.3-28 4.6-5.6 2.8-10 7.2-14 12-2.7 3.3-2.3 7.3-2 11.7.6 15 5 10.7 9.2.2 1.2-3 5.9-3.5 9.2-3.4 3.6 0 7.2 2.8 10.7 1.6l2.7-1.3c5-1.9 9.4 3.9 14.6 5 4.2.8 8.4-1.6 12.4-3.2 4.1-1.5 9.7-1.7 11.8 2.1.8 1.4 1 3.2 1.8 4.6 2 3.3 6.6 3.5 10.1 5 4.7 2.1 8.2 7.3 13.3 7.6 2.4.1 4.6-.8 7-.9 7 0 11.3 7.4 17.1 11.3 4.8 3.2 10.8 4 16.5 4.6 5.2.6 10.5 1.2 15.7.7 7.4-.7 14.5-3.4 21.9-3.8 5-.2 10 .7 15 .3 8.8-.8 17.8-7.2 18.3-16a21 21 0 0 0-4.7-13.3 22 22 0 0 0-6.5-6.1c-3.5-2-7.7-2.6-11.7-3.1l-57.3-7.4c-8.3-1-13.7-5.8-21.2-8.8a80 80 0 0 0-25.5-5q-10.6-.3-21.3.3l-10.6.6h-2.4c-1.2 0-1.4-.7-2-1l-4.9-2.6h-.2q-3-1.9-6.3-3Q29.3-.5 24.2.4a32 32 0 0 0-9.8 3.2 16 16 0 0 0-6.5 5.8 48 48 0 0 0-4 7.9A50 50 0 0 0 .5 27.6q-1.2 6.6 1 13m46 128.4c1 6.7 2 16.4 2 22.8l.4.4c.3.2-.3.3-.2.1" class="cls-3"/><path d="m50.6 191-.1-3.7-.1-4.4c-.3-4.2-.6-5.3-.8-7.2-.6-4.5-.7-5.2-1.2-5.4l-1-.9q-.5-.7-.8.2c-.2.7.2 2.8.4 5.1l.5 5.4.5 7 .2 4.7c0 1 .7 1.2.8 1.2 1.3-1.1.8-.7.8-.8l-.1-.2v.4q.4 0 0 0v-.3l.1.1h.3v-.3l.5-.7z" class="cls-5"/><path d="M57.9 168.5s.5 6 .8 7.5a65 65 0 0 1 1.4 15.7" class="cls-3"/><path d="M61.3 189.8v-3.6L61 182c-.4-4-1-5.2-1.2-7-.7-4.3-.7-5-1.1-5.2l-1-.8q-.3-.8-.7.1l.3 5c.2 2.4.8 4.5.8 5.3l.7 6.8c0 1.8 0 4.8.2 5 .5 1.2.7.2 1.5 0 .6-.1.7 0 .8-1.3Z" class="cls-5"/><path d="M70.2 169.8q-.4 10 1.7 19.7" class="cls-3"/><path d="m72.7 187.7-.5-3-.3-3.5-.5-5.9c-.2-3.6-.1-4.2-.6-4.4l-.8-.9q-.2-.5-.7 0c-.3.6-.4 2.4-.4 4.4l.2 4.6q.2 3.4.6 5.9a14 14 0 0 0 1 4.3c.6 1 .7 0 1.4-.3s.8-.2.6-1.2" class="cls-5"/><path d="M129 165q1.8 12.5 4.3 24.8l-.1.4q-.3-.2-.1-.2" class="cls-3"/><path d="m134.4 188.4-.7-3.9-.7-4.6-1.5-7.8c-1-4.7-1.2-5.5-1.6-5.7-.2 0-.7-.6-1-1q-.3-.7-.6.2c-.6 1.4 1.2 9.7 1.4 11.5l1.3 7.6.9 5v.3h1.1q0-.2 0 0v.1h.1q.1.3.5.2.6 0 .8-.6z" class="cls-5"/><path d="M139.7 164c1.5 9.2 3 18.6 5.6 27.7" class="cls-3"/><path d="m145.9 189.1-1-4-1-5-1.7-8.5c-1-5.2-1-6-1.6-6.2l-1-1c-.3-.4-.4-.7-.5.1a80 80 0 0 0 1.5 12.5 120 120 0 0 0 3.4 14.4c.4 1.3 1 0 1.5-.5s.7-.3.4-1.8" class="cls-5"/><path d="M151 162a97 97 0 0 0 7.6 30.2" class="cls-3"/><path d="m158.8 189.4-1.6-4.3-1.6-5.4c-1.4-5.2-1.7-6.7-2.2-9-1-5.7-1-6.6-1.6-7l-1-1.1c-.3-.5-.4-.8-.6.1s0 3.8.4 6.8 1.1 6 1.4 7a85 85 0 0 0 5.1 15.6c.8 1.4 1-.2 1.6-.6.5-.6.7-.6.1-2Z" class="cls-5"/><path d="M168.5 137.7c-9-.6-59.2-8-68.1-7.7-21.5.8-45.9 15.7-67.2 18.9l36-23.8c16.5-5.6 19.7-6.5 28.7-7.5 7.7-.9 24.6 3.3 32.2 3.8z" class="cls-3"/><path d="M86 131.2a59 59 0 0 1 17.9-2q9.1.9 17.6 2l16.6 2.2q6.9.7 13.6 1.7l16.4 2.1c1.3.2-1.1 0-.6.2.4 0-2.3.5-3 .4-3.3-.2-9-1-12.4-1.4l-19-2.3-18.9-2.2q-5.5-.7-10.5-1-4.9-.2-8.2.4c-4.4.5-5.8 1-7.2 1.2-1.5.3-3 .5-7.2 1.8q-12.3 4-24.4 8.8l-7.2 2.7-6.2 2-1.6.4-1.9.5-5.8 1.2-1-1v-1.2h.2l4.1-3 10.7-7 15.6-10.2 4.3-2.8.6-.3.8-.4 1.2-.4 2.5-.8 10-3.1q6.8-2.1 14-3c3.7-.6 7.5-.2 11.1.2l10.9 1.5 3.7.6 4 .7 2 .4h.9l.6.1.8.3 27.1 11.8c2.4 1 8.6 3.8 10.6 4.9-1.2-.3-2.6.2-5.2-.3l-8.2-3.7-6.4-2.7q-6.8-3-13.7-5.7l-3.4-1.5-1.8-.7-1.5-.2-7.4-1.1-8-1.3c-2.8-.5-4.7-.5-7.5-.8q-2.7-.4-5.7-.5-2.9.1-5.6.5c-6.9.9-13.4 3.2-20 5.4l-2.6.9c-.8.3-2 .6-2.2.9l-4.5 3-9 6-8 5-5.7 3.7-2.8 1.8-1 .6h.3-.1l-.2.1-.2.2-.3.1h.8l.9-.3 1.1-.2 1.5-.4 6-1.8c5-1.6 10.5-4 15.6-5.8 4.4-1.6 5.6-2.2 10-3.7q6-2 12.1-3.4z" class="cls-5"/><path d="M171.3 191.8c-1.5-8.8-4-20.3-5.6-29.2-1.1-5.7-2.1-12.5-3.3-18.2l-1-5.5-1-5.6c-.4-2-.9-1.2-2 .7-.9 1.2-1.9 1-1.6 3.2q.2 2 .6 3.8 3 14.2 5.7 28.3l1.4 6.8c.5 3 1.2 8.9 2.1 11.7.3.7.6.4 1 1.3q1.5 3.2 2.6 4.4c.5.5 1.5.7 1.1-1.7" class="cls-5"/></g></g></svg>