<?xml version="1.0" encoding="UTF-8"?><svg id="Layer_2" xmlns="http://www.w3.org/2000/svg" viewBox="0 0 108.94 92.27"><defs><style>.cls-1{fill:#fdf4ac;}.cls-2{fill:#f93e10;}</style></defs><g id="Layer_1_copy"><path class="cls-2" d="M107.61,59.84l-6.26-5.61v-26.35c0-1.95-1.06-3.74-2.77-4.67L57.32.65c-1.59-.87-3.52-.87-5.11,0L10.95,23.21c-1.71.93-2.77,2.73-2.77,4.67v25.81l-6.85,6.15c-1.23,1.1-1.65,2.85-1.06,4.4.59,1.54,2.07,2.56,3.73,2.56h4.19v21.58c0,2.14,1.74,3.88,3.88,3.88h85.42c2.14,0,3.88-1.74,3.88-3.88v-21.58h3.59c1.65,0,3.14-1.02,3.73-2.56.59-1.54.17-3.29-1.06-4.4Z"/><path class="cls-1" d="M18.56,45.63c9.54-4.16,13.41-4.45,13.18-15.59-.11-5.13-.24-9.65-3.01-8.18-4.56,2.44-12.58,6.86-12.58,6.86v22.16h2.41s0-5.25,0-5.25ZM18.56,34.21c.11-.37,10.42-6.15,10.65-3.74.62,6.47-7.51,8.42-10.65,9.65v-5.9Z"/><path class="cls-1" d="M38.95,15.45c-5.97,4.02-5.38,11.87-5.38,20.74,0,9.37.93,15.44,8.18,15.44s6.23-9.66,6.23-22.5c0-5.96-.03-19.73-9.03-13.67ZM41.95,44.11c-3.61,1.79-6.08-.34-6.08-8.82,0-6.9-.57-10.25,4.59-12.43,3.76-1.92,5.5-1.21,5.5,9.04,0,6.76-.4,10.42-4.01,12.21Z"/><path class="cls-1" d="M65.99,50.84l-.16-7.06c-7.7.71-9.3.44-7.2-9.6,4.74-.87,7.57-2.98,7.57-11.19,0-14.99-12.62-15.14-16.22-12.49.27,13.44.41,40.37.41,40.37h2.56l-.05-16.02c1.04-.11,2.04-.2,2.98-.3-3.27,17.99,6.03,17.57,10.11,16.28ZM52.89,28.74v-11.42c8.36.04,11.52,3.22,11.44,6.58-.13,5.51-6.06,4.83-11.44,4.83Z"/><path class="cls-1" d="M71.47,27.73c1.85-1.42,8.05,2.71,8.33,2.29.16-.24.15-5.91,0-8.37-.5-.75-5.08-5.04-9.4-1.91-2.7,1.96-3.08,13.07-3.08,16.64,0,6.48-.57,13.1,6.35,14.5,3.03.61,6.99.03,6.99.03v-7.09s-3.32.2-5.05.21c-5.05.04-5.79-2.51-5.79-7.92,0-3.69.29-7.34,1.65-8.38Z"/><polygon class="cls-1" points="82.43 50.88 84.83 50.88 84.63 39.43 90.32 41.61 90.32 50.88 92.78 50.88 92.78 28.6 90.32 27.28 90.32 35.4 84.51 33.05 84.36 24.09 82.16 22.91 82.43 50.88"/><path class="cls-1" d="M72.71,67.97c-3.89-1.29-8.9-1.68-8.9-3.73s8.19-2.01,12.16-1.3c.06-1.92-.06-5.88,0-7.81-3.29-.53-17.52-2.6-16.33,7.27.93,7.69,17.59,6.42,17.65,12.86.03,3.43-5.82,2.87-16.44.98v7.98c11.39.83,18.43,1.92,18.43-8.85,0-3.89-2.94-6.2-6.57-7.4Z"/><path class="cls-1" d="M36.44,62.81v-7.55H12.55l-8.56,7.55h12.16v21.4h2.41v-8.13c1.15-.72,3.9-2.97,8.66-3.04.13,0,3.62,0,7.8,0v-6.79c-4.17,0-7.66,0-7.78,0-4.46.06-7.31,2.15-8.68,2.89v-6.34h17.88Z"/><polygon class="cls-1" points="104.95 62.81 96.39 55.27 96.39 55.27 78 55.27 78 62.81 86.23 62.81 86.23 84.23 89.58 84.22 89.58 62.81 104.95 62.81"/><path class="cls-1" d="M48.72,77.24l9.37-1.15v8.11s-14.72,1.65-17.34-.94c-1.87-1.84-3.14-5.35-2.81-11.67.19-3.8.34-7.6.35-11.4v-4.92h19.83l-1.49,7.55h-15.91v3.47h14.59v6.79h-14.87c-.09,5.25,2.17,5.15,8.29,4.17Z"/></g></svg>