<svg xmlns="http://www.w3.org/2000/svg" id="Layer_2" viewBox="0 0 721.15 581.02"><defs><style>.cls-1{fill:#fdf4ac}</style></defs><g id="Layer_1_copy"><path d="M721.05 404.24c-.25-2.87-1.11-5.78-2.48-8.53-.4-.8-.86-1.58-1.35-2.35-.31-.59-.63-1.16-.99-1.73-.74-1.4-1.64-2.76-2.72-4.04-.45-.53-1.06-.9-1.49-1.17.02.04.03.07.05.11-.08-.07-.15-.15-.23-.22.05.04.12.07.18.12-.17-.36-.31-.61-.45-.53-.04.03-.06.06-.06.1l-.02-.02-.16-.14c-.27-.47-1.36-1.37-2.09-2.08-5.22-5.09-9.48-9.79-13.62-13.84-5.06-4.95-9.25-9.56-13.63-13.81-1.55-1.5-3.05-3.02-4.58-4.58-.74-.75-1.48-1.51-2.23-2.29-.45-.5-.91-1-1.38-1.52.05-.57.11-1.18.17-1.82l.04-.5.03-.8c.02-.54.04-1.09.05-1.64.17-5.84.14-12.17.29-19.45.12-5.78-.43-12.2-.32-19.45.12-7.17-.67-13.77-.56-19.84.13-7.25 1.58-13.74 1.7-19.72.15-7.32.58-13.8.71-19.76.15-7.21-1.08-13.67-.97-19.8.13-6.7 2.37-13.01 2.46-19.71.04-3.07-.23-6.22-.51-9.5-.14-1.64-.28-3.32-.38-5.03-.06-.97-.13-1.94-.19-2.93-.07-1.03-.22-2.06-.32-3.11-.44-3.45-1.13-7.06-2.42-10.74-1.3-3.66-3.24-7.39-6.07-10.76-2.3-2.75-5.09-5.32-8.35-7.53-.8-.57-1.66-1.09-2.53-1.59-.41-.24-.92-.55-1.27-.73-.38-.2-.75-.41-1.13-.62-1.52-.83-3.07-1.68-4.67-2.55-5.32-2.92-11.54-5.23-17.82-8.66-5.42-2.99-10.34-6.99-15.84-10.02-5.43-2.99-11.37-5.13-16.87-8.15-5.43-2.99-10.33-7.05-15.83-10.08-5.43-2.99-11.55-4.83-17.05-7.85-5.43-3-10.9-6.02-16.4-9.06-5.44-2.99-10.55-6.66-16.06-9.69-5.44-2.99-11.63-4.71-17.13-7.73-5.45-2.99-9.95-7.76-15.45-10.78-5.45-3-11.64-4.7-17.14-7.72-5.48-2.94-10.99-5.89-16.51-8.86-5.45-2.99-10.22-7.3-15.71-10.31-5.43-3.03-10.89-6.08-16.36-9.13-5.46-3-11.87-4.29-17.37-7.3-5.45-3-10.92-6.02-16.41-9.04-5.46-2.99-9.93-7.82-15.42-10.83-.31-.17-.76-.4-1.19-.62l-1.29-.63c-.86-.41-1.76-.74-2.65-1.1-.9-.32-1.81-.6-2.72-.89-.92-.24-1.85-.48-2.78-.69-3.73-.79-7.54-1.07-11.33-.98-3.78.09-7.51.97-11.01 2.31-1.75.66-3.44 1.47-5.09 2.32-.83.42-1.62.91-2.43 1.34-.74.42-1.37.8-2.07 1.18-5.47 2.98-10.59 6.64-16.09 9.64-5.47 2.98-11.15 5.63-16.64 8.63-5.46 3-10.94 6.02-16.43 9.03-5.48 2.99-11.9 4.26-17.39 7.26-5.48 2.99-10.04 7.67-15.54 10.67-5.48 2.99-11.37 5.24-16.87 8.23-5.45 3.04-10.91 6.08-16.38 9.13-5.48 2.99-11.16 5.64-16.65 8.63-5.51 2.94-11.03 5.87-16.55 8.82-5.48 2.99-11.28 5.42-16.77 8.42-5.48 2.99-10.47 6.91-15.96 9.91-5.48 2.99-11.1 5.75-16.59 8.75-5.48 2.99-11.43 5.15-16.92 8.15-5.48 2.99-10.65 6.58-16.13 9.58-5.48 2.99-10.79 6.31-16.28 9.3-5.48 2.99-10.71 6.45-16.2 9.45L76.12 153l-1.03.55-1.2.69-1.21.7-1.17.77c-3.1 2.07-5.92 4.57-8.34 7.42-4.84 5.7-7.97 12.76-9.18 20.09-.18.92-.29 1.84-.38 2.77-.12.92-.18 1.85-.22 2.78l-.07 1.38-.03 1.17-.07 2.34c-.1 3.12-.2 6.24-.2 9.36 0 6.25-.32 12.49-.32 18.73v18.72c0 6.24.32 12.48.32 18.72s.51 12.48.51 18.71c0 6.25-.21 12.49-.21 18.73 0 6.25-.98 12.49-.98 18.73 0 6.25-.35 12.49-.35 18.73 0 1.93.17 3.86.4 5.79l.19 1.45.05.36.02.18c0 .07.02.12.02.11l.1.08c.14.12.27.3.4.51.01.2-.04.44-.16.69v.02l-.08.08-.15.16-.31.32-.63.64c-.42.42-.86.83-1.3 1.23-4.63 4.21-9.25 8.4-13.86 12.59-4.7 4.13-9.38 8.25-14.06 12.36-2.33 2.09-4.96 3.83-7.6 5.56-1.32.87-2.63 1.74-3.91 2.65l-.95.69c-.16.12-.3.22-.48.37l-.58.5c-.78.67-1.53 1.36-2.19 2.15-2.74 3.09-4.57 6.9-5.56 10.8-1 3.94-1.31 7.87-1.35 11.75-.02 3.91.79 7.8 2.24 11.38 1.43 3.59 3.53 6.87 6.01 9.77 2.49 2.91 5.1 5.83 8.33 8.23 3.19 2.4 6.97 4.32 11.04 4.91 1.02.11 2.04.27 3.07.28 1.01.03 2.14.05 2.82.01l4.69-.19c3.12-.14 6.24-.27 9.35-.27l3.15.02h.79l.35.01h.03l.1.03q.195.06.3.12c-.03.14-.06.24-.06.34 0 .02 0 .03.02.05l.02.03h.01v.09l.01.15c.04.78.1 1.56.17 2.35.14 1.56.32 3.13.51 4.69.37 3.12.74 6.24.74 9.35 0 6.26-1.31 12.51-1.31 18.73.01 6.27.02 12.51.04 18.73 0 6.27 1.21 12.51 1.21 18.73 0 6.27-1.34 12.51-1.34 18.73 0 3.14.45 6.26.9 9.38.22 1.56.45 3.12.62 4.68.09.8.14 1.51.21 2.39.09.96.17 1.92.22 2.87.4 3.84 1 7.75 2.36 11.55 1.35 3.78 3.49 7.42 6.53 10.16 3.07 2.77 6.87 4.63 10.76 5.69 3.9 1.08 7.9 1.38 11.73 1.39 6.28-.03 12.52-.06 18.73-.08 6.28 0 12.52.71 18.73.7 6.28.05 12.52.1 18.73.16 6.28 0 12.52-.39 18.73-.39 6.28-.06 12.53-.13 18.72-.19 6.29 0 12.53-.68 18.72-.68 5.92-.01 12.14.58 18.64.57 5.99-.05 12.22-.09 18.66-.14 6.05-.01 12.28.18 18.68.17h18.67c6.1 0 12.33-.9 18.67-.91 6.13 0 12.36.54 18.68.53 6.14 0 12.37.76 18.67.75 6.16 0 12.39 1.04 18.69 1.04 6.17 0 12.4-2.06 18.69-2.07 6.19 0 12.42-.39 18.69-.4 6.2 0 12.43.47 18.69.46 6.2 0 12.44.34 18.69.33 6.21 0 12.44-.54 18.68-.55 6.22 0 12.45 2.12 18.68 2.11s12.46-.47 18.68-.48c6.24-.01 12.46.24 18.67.22 6.24.03 12.47.06 18.67.08 6.25-.01 12.47-1.39 18.66-1.4 6.26-.01 12.49.29 18.66.28 6.27-.02 12.49-1.36 18.65-1.38 6.28-.02 12.51.98 18.66.96 6.29-.02 12.52 1 18.65.98 6.32-.02 12.53-2.1 18.65-2.13 3.17-.01 6.31.58 9.43 1.17 1.56.29 3.11.59 4.65.81.77.11 1.54.2 2.31.26.38.03.77.06 1.15.07.39.01.96-.01 1.42-.03 4.11-.16 8.06-1.59 11.41-3.59 3.39-2.01 6.2-4.55 8.81-7.12 5.55-5.41 8.74-12.81 9.13-20.08.13-2.08.06-3.51.07-5.13 0-1.58-.01-3.15-.02-4.71-.02-3.11-.03-6.17-.05-9.16-.04-6.51.78-12.76.73-18.68-.09-6.64.57-12.73.5-18.32-.09-6.74-.55-12.77-.63-18.25-.11-6.86-.67-12.84-.77-18.25-.07-3.41-.25-6.58-.43-9.6-.09-1.51-.18-2.97-.26-4.41-.04-.72-.07-1.43-.11-2.13l-.04-1.04-.03-.52c-.07-1.26.1-2.44.33-3.3 1.03.17 1.95.37 2.73.51.4.07.75.12 1.12.15q1.395.045 2.79 0c2.79-.11 5.64-.59 8.63-1.08.75-.12 1.51-.24 2.28-.37.8-.12 1.62-.24 2.44-.37.44-.07.89-.13 1.34-.2.44-.09.89-.18 1.34-.28.9-.15 1.8-.43 2.72-.63 2.91-.76 5.77-2.21 8.37-4.2 2.6-2 5.01-4.47 7.08-7.43 1.65-2.35 3.1-5.02 4.08-8.04.98-3.01 1.5-6.38 1.18-9.87Z" style="fill:#f93e10"/><path d="M527 487.39c-1.11-4.87-.95-9.7-2.51-14.42-1.14-2.96-1.23-6.1-2.95-8.95-1.95-3.95-5.1-7.45-8.2-10.69-6.65-5.96-15.3-10.82-23.13-14.22-3.58-1.54-7.65-2.3-11.35-3.26-.3-.1-.59-.22-.89-.34.09.3-.04.73-.2 1.03-.18.33-.52.58-.8.86-.95.95-1.22.94-2.32-.13-.28-.27-.57-.52-.83-.81s.12-1.27.54-1.5c.49-.28 1.01-.33 1.53-.32-1.19-.52-2.36-1-3.58-1.24-2.95-.7-5.59-1.2-8.36-1.93-5.31-1.28-10.36-1.18-15.65-3.22-6.18-1.73-13.03-5.33-18.57-8.41-1.15-.56-2.28-.07-2.76.07-.12.09.51-1.23.1-2.43-.1-.33-.27-.65-.46-.97-1.16-1.62-1.49-3.75-.78-5.63 2.33-5.03 9.04-5.92 13.89-7.84 1.79-.64 3.63-.97 5.53-.91 4.38.17 8.36-.98 12.44-.98 2.83.06 5.77-.73 8.56-1.06 2.79-.1 6.01.23 8.97.15 6.21.79 12.73 1.83 19.07 2.16 1.08.19 2.21-.22 2.74-1.04.29-.39.33-.55.37-.39.09.17.34 1.21 1.03 1.62.3.18.67.24 1.07.21 1.48-.18 3.98-1.22 4.65-1.66.79-.71 1.24-3.22 1.33-4.58-.09-.93-1.64-1.16-1.69-1.22 0-.08 1.16-.45 1.48-1.3.07-.2.1-.41.11-.64-.16-3.52.48-7.26-.2-10.77-.3-2.05.47-4.21.2-6.22.14-2.23-.76-4.08-.84-6.36-.16-3.16 1.38-6.28.82-9.46-.35-1.12-1.99-1.54-1.8-1.57-.03-.05 1.99-.52 1.69-1.56-.09-.49-.44-1.04-.71-1.47-1.21-1.75-1.61-3.32-3.54-3.8-.43-.2-.87-.49-1.32-.32s-.79 1.04-.88 1.38c-.05.19-.05.23-.1.12-.11-.21-.51-1.37-1.49-1.78-.55-.25-1.24-.32-1.87-.35-3.88-.18-7.48-1.11-11.43-1.27-5.32-.67-10.6-.81-15.81-.41-7.24-.77-14.13-.72-21.03 1.31-7.88 1.46-16.14 1.32-23.53 4.7-5.76 2.13-10.92 5.83-15.5 9.91-2.93 3.04-6.02 6.97-7.49 11.17-1.18 3.7-1.49 7.01-2.75 10.46-1.31 8.17.85 16.34 4.25 23.78 1.99 3.2 3.01 6.41 5.65 9.26 4.5 5.12 10.04 8.38 15.88 11.45 6.69 3.79 13.96 7.08 21.3 8.93 6.51 3.09 13.39 5.52 20.54 6.64 7.4 2.14 14.56 6.42 21.65 9.05 1.13.57 2.27.4 2.85.23.71-.22.56.02 1.28 1.09.86 1.26 2.52 1.48 3.82 2.23 1.57.88 3.13 1.93 4.64 2.9 5 3.49 10.13 7.69 12.78 12.99 2.23 8.24 3.77 19.72-6.74 22.52-9.28 2.58-18.87 3.5-28.44 2.82-5.15-.46-10.26-.72-15.37-.78-7.1-1.61-14.57-2.31-21.81-2.38-7.9-.92-15.69-4.06-23.59-4.7-1.55-.04-2.29 1.68-2.33 1.32-.17-.97-.8-2.08-1.96-1.96-1.54.11-4.18.95-5.04 1.56-.73.64-1.28 3.25-1.29 4.9.25.93 1.91 1.1 1.74 1.09.02.05-1.33.43-1.61 1.33-.19.67-.03 1.41-.06 2.11-.15 3.38-.31 6.97.2 10.34-.13 2.43-.52 4.9-.19 7.3.19 1.45.73 2.88.74 4.49.12 3.19-1.32 6.34-.88 9.55.22 1.18 1.99 1.58 1.81 1.62.05.05-1.63.47-1.69 1.4-.04.51.28 1.12.55 1.56 1.22 1.57 1.5 3.37 3.14 3.69 1.86.68 2.73 1.23 3.19-1.05.02-.08.06.05.21.36 1.23 2.68 4.99 1.26 7.44 1.78 8.18.79 16.71 1.82 24.81 1.58 2.95-.36 5.92.3 8.77.7 7.12.23 13.75.01 20.63-1.3 3.38.03 7.14-.72 10.58-.97 4 .14 7.77-.86 11.67-2.01 11.89-4.01 21.3-13.5 25.69-25.12 1.54-3.8 1.66-8.55 2.83-12.6 1.8-5.51 1.39-11.37 1.59-17.14l-.03-.27ZM495 354.6c.33-.24.66-.49.99-.74.1.4.24.79.29 1.2.02.2-.07.47-.21.6-.29.29-.64.5-.97.75-.1-.4-.25-.79-.3-1.2-.02-.2.13-.41.2-.62Zm.18 19.24c.19.06.55.11.55.17.01.51-.18.79-.49.78-.19 0-.55-.1-.55-.15-.02-.51.18-.77.49-.79Zm-1.8-10.77c.19 0 .55.1.55.15.01.51-.18.77-.49.79-.19-.05-.55-.11-.55-.16-.01-.51.18-.79.49-.78m-7.99 26.69c.19.01.55.1.55.15.01.51-.18.77-.49.79-.19-.05-.55-.11-.55-.16-.01-.51.18-.8.49-.78m-8.46-29.31c.26-1.33 1.46-1.78 2.48-.93.4.33.46 1.15.13 1.81-.3.61-.87.8-1.62.53-.76-.27-1.11-.77-.98-1.41Zm.24 20.77c.29.09.4.37.27.83-.01.05-.36.05-.54.01-.29-.06-.4-.37-.27-.83.01-.05.35-.02.54-.02Zm-2.73-13.47c.97-.77 1.85-.43 2.25.84.05.17-.07.39-.11.58q-.31.29-2.11-.24l-.57-.18c.17-.34.26-.78.53-1Zm-6.21 22.21c.46-.15.77-.05.84.24.04.17 0 .37.01.56-.47.11-.78.03-.84-.26-.04-.18-.06-.52 0-.54Zm-16.82-36.88c.19.01.55.1.55.16.01.51-.18.77-.49.79-.19-.05-.55-.11-.55-.16-.01-.51.18-.8.49-.78Zm-.44 25.1c.51 0 .79.19.78.51 0 .2-.09.55-.15.55-.51 0-.77-.19-.79-.51.05-.2.1-.55.15-.55Zm-6.66 16.03c.29-.18.7-.18 1.05-.27 0 .19.05.4 0 .58-.15.57-.53.97-1.1 1.14-.18.06-.38.02-.57.02-.24-.23.08-1.13.62-1.48ZM433.48 381c.17-.26.5-.29.93-.02.05.03-.06.38-.15.55-.15.28-.49.3-.92.03-.05-.03.09-.36.14-.56m-6.77 12.62c.46-.15.77-.05.84.24.04.18.01.37.01.56-.47.11-.77.03-.84-.26-.04-.18-.06-.52 0-.54Zm-23.42-7.4c-.77-.24-1.56-.44-2.31-.73-.28-.11-.3-.57.02-.94.42-.48 1.32-.66 1.62-.45.52.35.81.84.83 1.46 0 .19-.09.39-.16.65Zm19.49 31.59c-.14.26-1.09-.41-1.28-1.06-.1-.35.02-.76.04-1.15.2.06.41.08.59.17.16.08.29.24.44.36.1.18.28.35.29.54.03.38.08.83-.08 1.14m6.81 10.21c-.07.29-.37.4-.83.28-.05-.01-.01-.35-.01-.54.09-.29.38-.4.84-.28.05.01.04.36 0 .54m7.58-2.4c-.19-.05-.55-.11-.55-.16-.01-.51.18-.8.49-.78.19 0 .55.1.55.15.01.51-.18.77-.49.79m21.11 16.21c-.5 0-.79-.19-.78-.51 0-.2.09-.55.15-.55.5 0 .77.19.79.51-.05.19-.1.55-.15.55Zm22.42-3.88c.51 0 .77.19.79.51-.05.19-.1.55-.15.55-.51 0-.79-.19-.78-.51 0-.2.09-.55.14-.55m3.15 12.87c-.33.55-1.19.88-1.47.63a29 29 0 0 1-1.67-1.63c-.1-.11-.06-.39-.01-.57.3-1.1 1.35-1.45 2.13-.72.14.13.28.27.42.41.28.27.69.49.8.82.11.3-.02.76-.2 1.06m13.58 4.49c-.18.04-.37.02-.56.02-.1-.47-.01-.77.28-.85.18-.05.53-.07.54-.02.14.46.04.77-.25.84Zm15.17 13.08c-.5 0-.79-.19-.78-.51 0-.2.09-.55.14-.55.51 0 .77.19.79.51-.05.19-.1.55-.15.55m-95.55 46.19s-.3-.15-.42-.27c-.19-.19-.12-.48.22-.77.04-.03.28.17.43.26.17.21.11.49-.22.78Zm4.17 9.8c-.02.05-.35.02-.54.02-.28-.09-.4-.37-.27-.84.02-.05.36-.05.54-.01.29.06.4.36.27.83m8.18-27.21c-.2.19-.49.12-.78-.21-.03-.04.17-.28.27-.42.21-.17.49-.12.78.21.03.04-.15.3-.27.42m3.53 25.54c-.81.62-1.53.52-1.99-.32-.2-.36-.41-.72-.62-1.08-.34-.34-.4-.72-.21-1.13.15-.33.44-.32.94-.12.57.23 1.19.32 1.76.54.67.27.73 1.64.12 2.11m.07-16.05c-.17 0-.36.13-.52.1-.43-.1-.64-.34-.56-.6.05-.16.15-.34.29-.44.14-.09.34-.09.52-.13.68-.14 1.19.09 1.09.5-.11.41-.39.58-.82.57m4.24 7.68c-.06.29-.37.4-.83.28-.05-.01-.01-.35-.01-.54.09-.28.38-.4.84-.28.05.01.04.36 0 .54m2.37 14.19c-.21.18-.52.1-.79-.24-.1-.12-.09-.34-.12-.51-.21-.37-.16-.69.18-.96.33-.26.76.1.91.76.04.17.13.35.1.51s-.15.33-.28.44m6.65-18.39c-.19 0-.53.06-.54 0-.14-.46-.04-.77.25-.84.18-.05.52-.07.54-.02.14.46.03.75-.25.85Zm14.18 35.24c-.01.05-.35.02-.54.02-.28-.09-.4-.37-.27-.83.01-.05.36-.05.54-.02.29.06.4.36.27.83m9.21-30.59c-.14.28-.49.3-.92.03-.05-.03.09-.36.14-.56.17-.26.5-.29.93-.02.05.03-.05.38-.15.55m12.13-3.74s-.36-.09-.56-.15c-.26-.18-.3-.5-.04-.94.03-.05.38.06.55.16.28.15.3.5.04.93Zm6.75 22.5c-.08.08-.24.08-.36.11-.6-.13-.87-1.29-.4-1.76a.43.43 0 0 1 .36-.1c.6.11.87 1.28.41 1.75Zm3.64-4.13c-.22.17-.5.11-.78-.21-.03-.04.15-.3.27-.42.2-.19.49-.12.78.21.03.04-.17.27-.27.42m1.18-26c-.2.19-.49.12-.78-.21-.03-.04.17-.28.27-.42.22-.17.5-.12.79.21.03.04-.15.3-.27.42Zm4.32 32.46c-.46.15-.75.04-.84-.24 0-.19-.05-.53 0-.54.46-.15.77-.05.84.24.04.18.06.52 0 .54m4.08-16.47c-.03.17-.14.33-.21.49-.14.14-.25.35-.41.41-.34.13-.73.29-1.05.23-.27-.06.08-1.09.62-1.44.29-.19.7-.18 1.05-.27 0 .19.03.39 0 .58m5.71-11.19c-.32.21-.71.42-1.07.44-.38.02-.79-.19-1.18-.3s-.94-.11-1.13-.37c-.15-.2.12-.74.22-1.12.1-.4.14-.82.33-1.18.28-.55.81-.81 1.43-.83.49-.02.77.22.91.7.05.19.2.36.3.54s.2.36.31.54c.38.65.36 1.29-.1 1.59Zm10.66 15.73c-.42-.12-.61-.35-.52-.61.06-.16.22-.43.27-.42.43.12.59.35.53.61-.1.15-.23.43-.28.41Zm.87-60.18c-.13.6-.53.98-1.09 1.18-.45.16-.77.01-1.02-.38-.1-.16-.27-.27-.41-.41-.28-.27-.57-.53-.84-.81-.26-.28.03-1.14.58-1.49.29-.19.84-.38 1.04-.25.63.45 1.16 1.03 1.69 1.6.1.11.08.38.04.56Zm5.15 30.69c-.17.06-.38.02-.64.03 0-.76-.01-1.53.04-2.29.02-.28.44-.42.85-.23.55.26.94 1.02.84 1.35-.18.57-.54.96-1.1 1.14ZM689.8 400.48c-1.23-2.77-4.37-5.16-6.47-7.81-1.31-1.77-2.96-1.89-4.03-1.11.18-1.12.12-2.46-1.02-3.16-4.24-3.56-8.21-7.89-12.86-10.98-4.85-6.02-12.23-8.96-17.05-14.92-2.06-2.26-5.07-6.95-8.43-5.73-.29.09.99-1.3.66-1.62-.47-.2-1.25.13-1.78.21-.7.18-.73-.54-1-.91-1.39-1.36-1.52-.94-1.66.91-.42-.52-1.55-2.11-2.85-1.81-5.2.5-10.66-.06-15.95.06-12.19-.03-24.43.13-36.57.08.04.1.08.21.1.29.08.33-.19.58-.73.67-.06.01-.19-.36-.28-.55-.02-.16.03-.3.14-.41-2.64-.01-5.28-.02-7.91-.06-6.33.94-12.66.92-18.99.66.04.1.1.18.14.28-.44.32-.79.38-1.01.12-.09-.12-.21-.32-.26-.45-7.89-.36-15.78-1.02-23.7-.65-.84.06-1.58.44-2.1 1.04-.73.91-.4.99-.84.14-1.05-2.74-4.74.8-5.68 1.16-.87.43-1.29 2.78-1.36 4.13.22.73 1.76.92 1.73.91-.2.11-1.96.85-1.7 1.89-.24 4.32.2 8.97.08 13.35-.87 4.36 1.6 8.43.29 12.8-.49 2.34-1.47 5.92 1.31 6.77-.1.09-1.78.61-1.67 1.65 0 .27.1.56.22.85.97 1.61 1.75 3.97 3.35 4.29.92.12 2.14.89 3.02.42.86-.49.39-2.47.99-1.14.61 1.27 2.27 1.45 3.61 1.24 7.3-.24 14.77.16 21.92.17 5.14-.05 10.76-1.07 15.9-.03 2.23.09 4.07-.35 4.63 1.36 1.86 8.07 1.18 16.58.28 24.8.02 16.11-.53 32.59.37 48.78-.46 9.18-.81 18.42.53 27.46.36 9.78-2.09 19.83-.64 29.52.31.6.97.94 1.47 1.24.19.04-1.61.47-1.68 1.53.33 1.84-.57 4.89.88 5.32 1.9.45 6.23 1.37 6.42-1.23.03-.06.14 1.25.4 1.58.68.33 1.7.13 2.44 0 .2 0 .39.05.57.09.58.36 1.15-.67 1.79-.77 1.67 1.04 1.76 1.36 2.02-.94 1.05 3.59 5.27 1.17 6.83.32.42-.27 1.32-5.07-.07-5.57-.81-.56-1.85 0-.58-.74 2.31-1.95.43-5.85 1.11-8.59.59-8.45-.82-16.73.15-25.02 0-5.19-.28-10.23-.99-15.28-.24-6.57 1.29-13.27.97-19.83-.35-16.32.22-32.91-.4-49.13-.91-3.72-.41-7.52-.49-11.33 0-2.44 1.22-3.47 3.59-3.54 11.03-.44 22.44.47 33.45-.55 9.49 1.45 18.97-.84 28.49-.32 4.81.79 10.15 1.19 14.93.69 1.24-.35 1.65-1.84 1.71-1.69 1.48 3.4 5.93 1.47 8.8 1.17 2.4-.62 4.5-1.22 5.14-1.4.31-.1.4-.22.29-.56l-.03-.1Zm-168.17-6.25c-.41.2-1.09-.06-1.49-.56-.38-.46-.32-.99.17-1.49.49-.51 1.02-.6 1.49-.27.97.7.89 1.82-.16 2.32Zm11.03 2.56c-.25.74-.76 1.06-1.44.91-1.09-.24-1.48-.87-1.15-1.85.25-.74.76-1.06 1.44-.91 1.09.24 1.48.87 1.15 1.85m2.18-11.17c-.66.5-2.07-.02-2.12-.78 0-.14.07-.33.18-.41.17-.13.41-.27.58-.24.43.09.86.23 1.25.44.16.08.2.38.3.57-.06.14-.08.33-.19.42m10.31.45c-.15.41-.27.84-.44 1.24-.17.41-1.36.48-1.81.16-.96-.69-1.17-1.81-1.6-2.78-.13-.3.14-.92.42-1.19.26-.25.79-.32 1.19-.29.43.03.84.27 1.27.42 1.43.53 1.54.81.97 2.45Zm10.07-12.19c-.06.15-.37.25-.59.29-1.28.22-2.14-.71-1.75-1.86.07-.21.15-.41.22-.63.15-.41.18-.94.47-1.22.25-.25.8-.33 1.19-.29.73.07 1.47.81 1.34 1.22-.27.84-.55 1.68-.89 2.5Zm17.32 20.62c-.19.09-.52.3-.56.26-.37-.41-.41-.77-.15-.98.17-.13.51-.3.55-.26.37.4.4.75.16.99Zm-.13-32.97c-.39.21-.8.37-1.19.57-1.11.56-1.11.57-2.46.06-1.65-.57-1.65-.82-1.39-2.26.34-1.88 1.89-2.22 3.25-2.78.3-.13 1 .13 1.2.42.5.71.84 1.54 1.21 2.33.2.43-.18 1.43-.62 1.66m2.98 4.72c-.33.25-.66.49-.99.74-.1-.4-.25-.79-.29-1.2-.02-.19.07-.46.21-.6.29-.29.65-.51.98-.75.1.4.24.79.29 1.2.02.19-.13.41-.2.61m2.58-9.49c-.06.01-.22-.35-.27-.55-.08-.33.18-.58.73-.67.06-.01.19.36.28.55.05.34-.2.58-.74.67m4.24 130.53c-.06.16-.18.29-.28.43-.41-.16-.61-.38-.51-.63.06-.16.23-.43.27-.42.42.12.61.36.52.61Zm1.52-68.59c-.13-.16-.32-.51-.27-.55.4-.36.75-.38.99-.14.09.19.31.52.26.56-.41.36-.78.4-.99.14Zm2.31-59.32c-.41-.07-.85-.07-1.23-.22-.63-.24-.77-.83-.58-1.57.12-.48.3-.8.78-.93.37-.1.57.13.77.67.23.61.56 1.18.85 1.77-.2.09-.39.19-.59.28m4.48 58.6c-.16.13-.51.31-.55.26-.37-.41-.4-.75-.16-.99.2-.09.52-.3.56-.25.37.4.41.77.15.98m2.27 67.36s-.3-.15-.42-.26c-.19-.19-.12-.49.22-.77.04-.03.28.17.42.26.17.21.11.49-.22.77m15.28-115.03c.5-.06.78.1.82.41-.03.19-.05.55-.11.56-.5.06-.8-.1-.82-.41 0-.19.04-.55.1-.56Zm-.03 3.2c.19-.09.52-.3.56-.26.37.41.41.77.15.98-.16.13-.51.31-.55.26-.37-.4-.4-.75-.16-.98m1.57 18.39c-.12.29-.46.35-.91.13-.05-.02.06-.37.09-.56.15-.28.47-.34.92-.13.05.02-.02.38-.1.56m23.6-23.84c.19-.01.55.04.56.09.05.5-.11.78-.42.83-.2-.03-.56-.04-.56-.1-.05-.5.11-.8.43-.82Zm-.08 13.51c-.13-.16-.32-.51-.27-.55.41-.36.76-.39 1-.14.09.19.31.52.26.56-.41.36-.78.4-.99.13m4.69 4.38s-.37-.05-.56-.09c-.28-.15-.34-.46-.11-.91.02-.05.38.02.56.09.29.12.34.45.12.91Zm4.78 3.24c-.34.04-.59-.2-.69-.73-.01-.06.35-.22.56-.26.33-.07.59.19.69.72 0 .06-.36.18-.56.27m17.38 12.02c-.06 0-.22-.35-.27-.55-.08-.33.19-.59.73-.67.06 0 .18.36.28.55.05.33-.2.59-.74.67m13.72-6.98c-.33.14-.76.05-1.14.07.03-.2.04-.41.11-.6.07-.17.21-.31.31-.47.17-.12.32-.31.5-.34.37-.07.81-.16 1.13-.03.27.11-.3 1.11-.92 1.37ZM246.44 392.66c.06-2.33.21-4.78.13-7.2-.79-3.42.47-7.03-.26-10.41l-.03-.16c-1.65-4.96 1.27-10.33.27-15.44-.27-1.27-1.17-2.44-1.78-3.5-.45-.73-.71-1.29-1.43-1.54-1.57-.42-3.06-1.13-5.31-.91-4.17.69-8.56.07-12.79.21-2.91-.13-5.77-.11-8.62.02-.05.08-.09.17-.14.24-.32.4-.72.28-1.2.14-.24-.07-.47-.15-.64-.28-1.3.08-2.6.18-3.9.31-6.87-.89-13.97-.49-20.77.45-7.41.09-14.89-1.32-22.3-1.01-9.03.54-18.63-.42-27.67.38-2.85.56-5.71-.32-8.56-.37-2.73.13-5.34.21-7.98.18-1.73.24-3.46.45-5.21.6 0 .32-.05.61-.21.7-.75.4-1.49.84-2.28 1.09-.26.09-.69-.32-1.05-.51-.12-.36-.31-.72-.34-1.07-2.57.05-5.15-.07-7.71-.5-4.04-.71-8.6-.35-12.56-.53-1.77-.25-2.33.16-3.17 1.56-.56.72-1.17-.23-1.84-.05-.44.16-1.09-.21-2.07.92-1.78 2.35-5.23 4.74-7.62 6.93-2.41 1.9-4.38 4.01-6.38 6.1-3.99 2.95-7.65 5.89-10.64 9.93-.84.96-1.75 1.77-2.7 2.52.25.1.39.27.37.49-.02.2-.13.57-.18.57-.53-.02-.81-.25-.78-.57v-.01c-1.94 1.45-4.03 2.67-6.1 4.19-5.2 4.12-10.61 9.09-13.75 14.89-.35.48.28.8 1.67 1.2 5.17.87 12.27 1.65 17.97.81 7.63.06 15.52.23 22.87.27 5.34-.11 10.8-1.13 16.14.03 4.62-.08 9.57-.3 14.11-.21 1.09-.04 1.85.12 2.19.8.56 2.89-.2 5.94.21 9.01.07 2.6-.74 5.07-.83 7.75-.23 5.76-.03 11.3-.26 17.08 1.13 12.53-.83 24.61.73 36.91.27 2.3-.53 4.56-.65 6.83.02 3.31.22 6.9.25 10.27-.4 3.74.61 7.44.81 11.23.2 0 .42.13.63.42.03.05-.23.31-.35.48a.47.47 0 0 1-.27.08c-.2 5.3.08 10.54-.88 15.82-.28 5.1.01 10.64-.24 15.65-.42 2.4-.16 6.49.57 7.59.31.57 2.51-.18 3.16-.03 1.18.17 3.02 1.09 3.84.64.14-.22.42-.17.53-.05.06-.09.13-.77.2-.82.09.16.08.72.28.92.21.06 1.07.07 1.51-.06 1.51-.35 4.64.03 5.49-.46.94-.45-.29-2.63-.03-3.86.51-1.62.85-3.53.47-5.45-.7-8.31.64-17.02-.33-25.29-.31-2.11-.19-4.23.17-6.33.44-3.58-.06-6.55-.02-9.69-.04-.85-.04-1.66.21-2.4.16.07.37.15.35.11-.03-.04-.23-.09-.35-.11.11-.34.26-.67.5-.98 5.75-5.26 13.83-7.59 20.6-11.1 2.97-1.05 5.69-2.41 8.66-3.55 6.65-2.04 13.69-2.87 20.45-4.12 3.17-.88 6.46.18 9.73 0 3.26-.27 6.47.03 9.72-.33 3.96-.94 7.96-.51 12.02-.58 4.82.54 10 1.18 14.83.89 1.61-.01 3.11.13 4.35.1 2.33-.07 4.1-1.68 5.15-2.21 1.61-.84 1.45-2.79 2-4.53.09-1.72-.46-3.45-.18-5.19.11-2.11.11-4.5-.24-6.81.43-3.34.17-6.18-.59-9.42.07-4.05 2.26-8.33.22-12.34-.51-.92-1.06-1.77-1.57-2.61-.48-.88-1.48-1-3.07-1.42-1.73-.57-2.99-.45-5.41-.15-4.64.46-8.93-.17-13.62.03-5.95-.16-11.78-.17-17.28.46-8.03-.7-16.38-1-24.01 1.77-6.06 1.39-12.51 2.55-18.45 4.38-6.6 2.29-12.6 5.57-18.49 9.46-6.48 3.54-5.08 2.73-5.39-3.53 0-3.63-.93-6.75-.26-10.19.75-5.31-.03-10.07.1-15.15-.17-3.16-1.56-6.72-.3-9.57 1.51-2.01 4.6-.19 6.92-.32 12.56.49 25.07-.3 37.74.15 5.32.16 10.53-.93 15.7-.17-.04-.04-.07-.07-.11-.12-.03-.05.23-.31.35-.48.27-.18.59-.09.9.34.03.04-.13.25-.28.4.08.02.16.02.24.04 6.02-.19 11.48.22 17.29-.86 3.28-.39 6.78.18 10.16-.07 6.09.74 12.36 1.15 18.59.92 3.15.44 5.62-.11 7.82-1.78 1.1-.58 1.73-1.1 1.97-2.58.79-2.12.53-3.8.29-6.21Zm-201.26 7.56c-.7.49-1.5.82-2.29 1.17-.15.07-.42-.06-.6-.16-.58-.35-.82-.91-.83-1.57 0-.52.27-.81.78-.92.2-.04.39-.18.58-.28.38-.19.76-.4 1.16-.57.38-.16 1.18.46 1.34 1.15.09.38.09 1.02-.13 1.17Zm28.32-9.32c-.08.18-.3.49-.35.47-.49-.19-.66-.48-.55-.79.13-.16.31-.49.36-.47.48.19.68.49.54.78Zm9.85 10.28c-.06 0-.17-.35-.26-.54-.04-.33.2-.58.72-.67.06-.01.21.35.25.55.07.32-.19.58-.71.67Zm4.66-32.71c-.11.3-.72.54-1.11.54-.35 0-.77-.31-1.02-.6-.28-.31-.41-.76-.6-1.15-.64-1.34-.52-1.61.99-2.36.38-.19.76-.4 1.15-.57.4-.17 1.27.59 1.37 1.11.2 1.13-.42 2.05-.77 3.02Zm3.45 31.66c-.3.61-.86.8-1.58.54-.73-.26-1.06-.76-.93-1.39.28-1.32 1.44-1.77 2.41-.94.38.33.43 1.14.1 1.8Zm2.63-25.94c-.09.1-.28.18-.41.16-.2-.02-.47-.09-.57-.23a4.6 4.6 0 0 1-.57-1.15c-.05-.16.11-.4.18-.6.14-.06.28-.18.41-.16.8.1 1.43 1.42.95 1.98Zm1.6-17.54c-.24.34-.45.73-.76 1-.48.42-1.08.46-1.68.24-.47-.17-.65-.51-.59-1.02.02-.2-.05-.42-.08-.63s-.05-.42-.09-.63c-.11-.76.16-1.36.7-1.48.39-.08.83-.13 1.19 0 .37.13.67.49 1.01.74.33.26.85.46.94.79.07.25-.4.66-.64.98Zm2.53 9.77c-.39-.31-.47-1.12-.17-1.79.28-.62.83-.83 1.56-.59.74.24 1.09.72.98 1.36-.23 1.33-1.38 1.82-2.37 1.02m5.17 1.89c-.68.34-1.25.22-1.62-.34-.59-.91-.44-1.61.46-2.07.68-.34 1.25-.22 1.62.34.6.91.44 1.61-.46 2.06Zm2.33-3.78c-.06.01-.22-.34-.27-.54-.08-.32.17-.59.69-.69.06 0 .18.35.28.53.05.33-.18.59-.7.7m9.33 72.59c-.08.18-.3.49-.35.47-.48-.19-.66-.48-.55-.79.12-.16.31-.49.36-.47.48.19.68.49.55.78Zm1.33-8.13c-1.09.75-2.22.25-2.35-1.03-.05-.5.46-1.11 1.14-1.35.62-.22 1.15.04 1.49.73.34.7.25 1.29-.27 1.65Zm2.53-66.41s-.33-.21-.47-.36c-.21-.25-.09-.59.32-.9.04-.03.31.23.47.36.18.27.09.59-.33.91Zm4.42 174.45c-.08.18-.3.49-.35.47-.49-.19-.66-.48-.55-.79.12-.16.3-.49.36-.47.48.19.68.49.55.78Zm111.55-82.2c.18.08.49.31.47.36-.19.49-.47.67-.77.56-.16-.13-.48-.31-.46-.37.18-.49.48-.69.77-.55Zm-45.29 3.46c.18.09.49.31.47.36-.18.49-.47.67-.77.56-.16-.13-.48-.31-.46-.37.18-.49.48-.69.77-.55Zm-5.24-24.33c.12-.16.31-.49.36-.47.48.19.68.49.54.78-.08.18-.3.49-.35.47-.49-.19-.66-.48-.56-.79Zm-45.26 38.94c.24-.19.88.81.81 1.5-.04.37-.31.72-.48 1.08-.17-.13-.36-.24-.49-.39-.12-.14-.19-.34-.28-.51-.03-.21-.13-.44-.07-.63.12-.38.24-.82.52-1.05Zm-10.71-12.99c.16.13.48.31.46.37-.18.49-.48.69-.77.55-.18-.08-.48-.3-.46-.36.18-.49.47-.67.77-.56m3.92-96.68c-.26.18-.58.09-.89-.33-.03-.05.2-.34.35-.47.24-.21.58-.1.89.33.03.05-.22.31-.35.48Zm5.04 13.29c-.2-.02-.39-.13-.59-.19.06-.53.26-.82.58-.78.2.02.57.14.56.19-.02.53-.23.82-.56.78Zm6.34 11.77c-.2.26-.53.28-.97-.03-.05-.03.08-.39.18-.57.17-.28.53-.28.96.02.05.03-.11.37-.18.57Zm27.83-15.78c-.27.25-.54.14-.94-.25-.46-.43-1.01-.76-1.47-1.19-.54-.51-.07-1.85.7-2.05 1.01-.27 1.66.1 1.77 1.07.05.42.11.84.17 1.27.19.46.11.84-.23 1.16Zm34.59-11.28c-.16-.12-.48-.31-.46-.37.19-.49.48-.69.77-.55.18.08.48.31.46.36-.19.49-.47.67-.77.56m7.31 3.18c-.12.42-.26.84-.4 1.26-.19.37-.33.78-.58 1.11-.32.41-.72.31-1.19.15-.47-.15-.9-.29-.9-.8 0-1.19.24-1.89.92-2.97.1-.16.36-.28.57-.31.88-.1 1.79.78 1.58 1.56m15.35 27.56c-.13-.16-.32-.49-.27-.54.38-.37.72-.41.96-.18.1.19.31.5.27.54-.38.37-.74.43-.95.18Zm8.44-29.41c-.21.03-.43.12-.62.07s-.38-.21-.49-.38c-.19-.27-.06-.62.36-.91.16-.11.41-.07.61-.1.45-.21.83-.12 1.12.3.28.42-.19.89-.98 1.01Zm4.72 22.51c-.19.03-.4-.11-.61-.18-.25-.31-.5-.63-.75-.95.39-.11.77-.26 1.16-.32.19-.03.46.05.6.19.29.28.51.62.76.93-.39.11-.77.27-1.16.33M387.84 540.01c.52-1.71 1.19-3.02-1.11-3.24-.22-.01-.12-.03.23-.19.41-.19 1.09-.55 1.27-1.13.11-3.37.27-7.01.15-10.45-.76-3.59.5-7.43-.2-10.98l-.03-.17c-1.13-3.48-.44-6.75.27-10.36.06-1.98.51-4.26-1.8-4.9-.13-.04.95-.28 1.48-1.02.38-.59.19-1.33-.08-1.97-.57-1.27-1.57-3.21-2.17-3.77-.6-.54-2.84-.66-4.13-.76-1.03-.18-1.42 1.31-1.38 1.84 0 .22-.02.13-.3-.21-.36-.48-1.09-1.1-2.05-1.11-4.18.7-8.25.92-12.51 1.5-5.19.41-10.23 1.2-15.16 2.3-5.72.1-11.92.77-17.45 2.05-7.96 2.57-16.6 1.7-24.76 2.97-13.19 1.67-31.09 2.56-34.44-13.87-1.09-4.76-2.76-9.57-2.17-14.4-.09-2.84 3.16-1.5 5.01-1.62 16.34.05 32.2-.39 48.4-.1 7.77.1 15.23-1.75 22.97-.36 4.16.54 8.95.69 13.03.3 1.52-.33 1.69-2.35 1.92-1.43.94 3.21 4.74-.27 5.94-.88.75-.52 1.26-2.72 1.28-4.07-.25-.78-1.91-.92-1.74-.91 0 0 1.86-.73 1.69-1.62-.06-2.47.25-4.8.07-7.29-.46.38-.86.4-1.99.43-.95.02-.86.02-.97-.77-.17-1.27.19-2.25 1.22-3.02.16-.11.27-.28.41-.42.27-.28.54-.57.81-.84.09-.09.26-.11.44-.1.07-.81.13-1.63.05-2.44 0-1.58-.75-2.99-.81-4.56-.18-2.65 1.37-5.08.86-7.78-.26-.97-1.79-1.27-1.75-1.4 3.6-.92.04-4.75-.71-6.11-.53-.54-4.33-2.17-4.7-.38-.36.96-.04 1.25-.53.43-.62-1.14-1.9-1.41-3.14-1.23-10.55-.31-21.26.51-31.72-.16-7.05-.04-13.72 1.22-20.75.91-7.95-1.15-15.81-1.16-23.81-.65-2.97-.45-5.87.54-8.19-.79-1.21-2.58-1.27-7.33-.87-10.42.64-3.93-.11-7.42.11-11.08-.07-3.04 10.09-1 12.22-.89 13.87.49 27.8.48 41.62-.24 9.31 1.49 18.5-.85 27.85-.34 4.9.62 11.02 1.58 15.78.47.92-.6 1.16-1.67 1.19-1.44.6 2.41 1.98 1.73 3.56.43 1.22-.91 2.23-.85 2.78-2.21.2-.41.53-.9.71-1.31.48-.63-1.35-1.45-1.56-1.45 0-.05 1.38-.14 1.82-.95 1.51-6.02 2.48-12.55 3.74-18.68-.03-.71-.05-1.43-.03-2.16-.21-.09-.41-.2-.59-.38.16-.61.32-1.23.49-1.84.05-.19.17-.53.19-.52.06.01.12.03.18.05.2-1.12.52-2.22 1.04-3.27.92-2.03 2.61-5.81.03-6.98.05-.17 1.72-.2 2.01-1.3.31-1.79-.7-4.88-1.54-5.98-.59-.66-2.78-.86-4.4-1.2-.96-.2-1.56 1.28-1.57 1.78-1.39-2.66-4.96-1.57-7.54-1.57-15.07-.83-30.23.68-45.2-.33-11.8.02-23.28 1.19-34.99 1-5.61-.81-11.49-1-17.23-.98l-.01.01s-.03 0-.04-.01c-1.95 0-3.88.04-5.78.08-1.16-.28-2.99 1.21-3.11 1.79-.06.07-.07-.05-.21-.34-.19-.4-.52-1.07-1.03-1.25-.86-.27-1.85.42-2.59.83-1.62 1.09-2.62 1.23-2.96 2.54-.57 2.08-1.35 3.55 1.15 3.83.05.04-1.17.48-1.61 1.49-.21.5-.22 1.1-.17 1.77.45 5.23-.23 10.75-.04 15.96-.37 8.44.7 17.25-.34 25.65-.29 8.78.82 16.87.16 25.69-.57 6.91-1.9 13.62-1.74 20.59-.21 1.36.35 2.73 1.62 3.3.21.18-1.63.57-1.81 2.07-.01.11-.04.33-.05.44.16 5.86-.67 12.3-.42 17.94-.17 5.67.31 11.33 1.55 16.96-.2 4.04.37 7.92 1.3 11.82.29-.03.66.44.97.71.45.39 1.04.64 1.26 1.3.17.49-.08 1.6-.49 1.67l-.73.12c2.53 8.77 7.27 17.21 11.84 25.18.13-.09.27-.11.41-.04.18.08.49.31.47.36-.08.22-.19.37-.31.47 3.35 4.13 9.12 8.62 14.4 7.42.21 0 .34.25.79.74 1.94 1.79 5.12 1.1 7.57 1.9 9.94 1.66 18.16 2.59 27.77 1.79 8.03.57 16.16.96 24.14-.42 10.85-1.76 21.82.22 32.69-1.53 1.12.05 2.37-1.65 2.33-2 .04-.06.06.02.17.23.21.39.65 1.23 1.24 1.28.74.06 1.44-.56 2.01-.98 1.46-1.33 2.54-1.47 2.9-2.85Zm-29.13-91.36c.19-.11.32-.3.48-.45s.32-.3.48-.46c.58-.56 1.25-.7 1.68-.31.3.28.62.63.73 1.01.12.4 0 .87-.01 1.31s.13 1-.09 1.28c-.17.21-.8.06-1.22.06-.44 0-.9.06-1.31-.04-.65-.15-1.05-.63-1.23-1.27-.14-.5.04-.86.5-1.12Zm-14.11-8.09c.2.01.55.1.55.15.01.51-.18.77-.49.79-.19-.05-.55-.11-.55-.16-.01-.51.18-.8.49-.78m-1.7 27.52c.19.06.55.11.55.17.01.51-.18.79-.49.78-.19 0-.55-.1-.55-.15-.01-.51.18-.77.49-.79Zm-5.02-3.26c.5 0 .77.19.79.51-.05.19-.1.55-.15.55-.5 0-.79-.19-.78-.51 0-.2.09-.55.15-.55Zm-19.95-12.53c.21 0 .6-.04.62.02.14.52 0 .87-.33.94-.21.04-.6.05-.61 0-.14-.53 0-.85.33-.95Zm-10.81 9.42s.38.06.55.16c.27.15.3.5.04.93-.03.05-.36-.09-.55-.15-.26-.18-.3-.5-.04-.93Zm-6.47-31.74c.69-.42 1.38-.88 2.13-1.17.25-.1.68.27 1.03.43.15.37.39.73.4 1.1.02.39-.18.79-.29 1.19s-.1.99-.35 1.13-.76-.15-1.15-.28c-.55-.19-1.17-.2-1.61-.71-.33-.38-.51-1.47-.17-1.68Zm-1.99 14.4c.34.18.7.33 1.02.55.15.1.29.34.3.52.03.38-.03.77-.05 1.16-.34-.18-.71-.32-1.02-.55-.15-.11-.21-.34-.32-.52.02-.39.05-.77.07-1.16m-20.93-8.71c.2.06.42.07.58.18.54.33.82.83.83 1.46 0 .2-.1.39-.15.59-.3.17-1.12-.42-1.31-1.08-.1-.35.02-.76.04-1.15Zm106.51-72.31c.17-.26.5-.29.93-.02.05.03-.06.38-.15.55-.15.28-.49.3-.92.03-.05-.03.09-.36.14-.56m-6.28-2.57c.18-.1.34-.26.53-.28s.42.05.58.16c.27.17.28.53 0 .95-.1.15-.34.21-.52.31-.33.36-.71.41-1.12.13-.4-.27-.16-.87.52-1.27Zm-9.97 21.97c.64-.51 1.39-.87 2.13-1.24.14-.07.41.03.58.12.57.31.83.83.88 1.46.03.5-.22.79-.69.92-.19.05-.36.2-.54.3-.36.2-.71.43-1.08.61-.36.18-1.15-.37-1.34-1.03-.11-.36-.14-.97.06-1.13Zm-10.81-18.95c1.04-.63 2.1-1.23 3.17-1.81.14-.08.39 0 .57.06.13.05.24.19.35.29-.16.59-.31 1.19-.47 1.78-.22.81-1.01 1.31-1.77 1.11-.59-.15-1.19-.32-1.77-.51-.11-.03-.23-.23-.23-.35 0-.2.03-.5.15-.58Zm-1.65 37.81c-.51-.04-.79-.22-.78-.53 0-.2.09-.55.14-.55.51 0 .79.19.78.51 0 .19-.09.39-.14.58Zm-2.66-33.93c.41-.24.82-.46 1.13-.09.53.61.96 1.31 1.38 2.01.3.5.02 1.1-.62 1.46-.63.36-1.24.27-1.57-.25-.22-.35-.42-.73-.63-1.09-.13-.37-.33-.74-.38-1.12-.07-.48.27-.69.68-.92Zm-6.37-11.12c.41-.23.79-.44 1.14-.11.83.77 1.16 1.39 1.48 2.56.05.17-.04.44-.15.59-.5.68-1.71.75-2.11.1-.22-.36-.42-.73-.63-1.09-.14-.37-.34-.73-.4-1.12-.08-.49.25-.7.66-.93Zm-6.71-2.4c.13.16.32.49.27.54-.39.37-.74.43-.95.17-.13-.16-.19-.37-.29-.56.42-.34.76-.41.97-.16Zm-18.24 7.18c.15-.14.37-.21.56-.31.35.11.47 1.17.11 1.78-.2.33-.6.53-.92.79-.1-.19-.24-.37-.28-.58-.13-.65.05-1.23.53-1.68M314 366.3c.1-.15.34-.21.52-.31l1.15.09c-.17.34-.31.71-.53 1.02-.1.15-.33.28-.52.29-.38.02-.76-.04-1.15-.07.17-.34.31-.71.52-1.02Zm-14.49 12.76c-.13-.15-.19-.37-.29-.55.42-.34.76-.41.97-.16.13.16.32.49.27.54-.38.37-.74.43-.95.17m-1.28-20.01c1-.77 2.11-.36 2.31.86.08.48-.38 1.09-1.02 1.35-.58.24-1.1.03-1.47-.62s-.31-1.22.17-1.59Zm-2.52 32.01c.32-.08.58.17.68.69.01.06-.34.19-.53.29-.33.05-.58-.17-.68-.7-.01-.06.33-.23.53-.28m-21.43 8.45c.17-.26.5-.29.93-.02.05.03-.06.38-.15.55-.15.28-.49.3-.92.03-.05-.03.09-.36.14-.56m-1.95 54.24c.19.01.38.1.58.16-.03.51-.21.79-.52.78-.2 0-.55-.1-.55-.16-.01-.51.18-.79.49-.78m-11.46 50.31c-.12.32-.45.44-.97.28-.06-.02-.03-.41.02-.61.09-.33.44-.44.96-.28.06.02 0 .4-.01.61m.28-75.64s-.34-.21-.47-.36c-.21-.25-.1-.59.32-.9.05-.03.31.23.47.36.18.27.09.6-.32.91Zm1.98-70.9c-.47-.17-.65-.51-.59-1.02.02-.2-.12-.44-.07-.62.16-.5.46-.72.76-.6.19.07.39.21.49.39.1.17.07.41.1.62.1.81-.22 1.4-.69 1.23m3.09 118.07s-.34-.21-.47-.36c-.2-.25-.09-.59.32-.9.05-.03.31.23.47.36.18.27.09.59-.32.91Zm1.38 19.78c-.26-.3-.55-.58-.76-.91a.77.77 0 0 1-.08-.61c.12-.38.32-.72.49-1.08.26.3.55.58.76.91.1.16.07.41.1.62l-.51 1.08Zm3.41-93.97c-.18.71-1.59.93-2.11.32-.08-.1-.07-.29-.1-.44.21-.69 1.6-.9 2.12-.31.09.1.12.3.09.43m13.18 110.33c-.17-.13-.37-.23-.49-.39-.39-.52-.47-1.11-.23-1.71.07-.19.24-.34.37-.51.35-.05.91.83.84 1.53-.04.37-.31.72-.49 1.08m9.15 30.78c-.53.14-.87.02-.94-.31-.04-.2-.04-.6.02-.61.53-.14.85-.01.95.31 0 .21.03.6-.03.62Zm11.17-25.83c-.21.04-.6.05-.61-.01-.14-.52 0-.85.33-.95.21 0 .6-.04.62.02.13.52 0 .87-.33.94Zm5.62-.9c-.19-.01-.55-.1-.55-.15 0-.51.18-.8.49-.78.19.01.39.1.58.16-.03.51-.21.79-.52.78Zm6.16 16.58c-.26.97-.24.88-1.08.75-1.34-.21-2.23-.86-2.7-2.14-.07-.19-.2-.36-.3-.54-.2-.36-.42-.71-.61-1.08-.2-.38.37-1.25.88-1.38.97-.24 2.82.33 3.25 1q1.04 1.6.56 3.39m5.31-5.48c-.72.86-1.45.92-2.17.17-.54-.56-.6-1.16-.15-1.7.71-.86 1.45-.92 2.17-.18.54.57.6 1.16.16 1.7Zm7.87-23.38s-.36-.1-.55-.15c-.26-.18-.3-.51-.04-.94.03-.05.38.06.55.16.28.15.3.5.04.93m.6 27.24a.57.57 0 0 1-.24-.36c-.09-.71 1.1-1.41 1.79-1.05.11.06.17.23.25.36.06.7-1.11 1.4-1.8 1.05m6.01 2.86c-.02.06-.41.04-.61 0-.33-.08-.44-.43-.27-.95.02-.06.4 0 .61 0 .32.11.44.44.26.96Zm.24-18.82c-.02.05-.36.05-.54.01-.29-.06-.4-.36-.27-.83.01-.05.35-.02.54-.02.29.09.4.37.27.83Zm9.62-16.8c-.16.1-.25.34-.41.4-.45.17-.78.08-.87-.21a.86.86 0 0 1 0-.57c.07-.17.26-.29.39-.43.53-.54 1.13-.64 1.28-.2s0 .76-.39 1Zm12.52-2.16s-.38-.06-.55-.16c-.28-.15-.3-.5-.04-.93.03-.05.36.1.56.15.26.18.3.51.04.94Zm4.21 3.05c-.12-.05-.23-.23-.24-.36-.08-.7 1.1-1.4 1.78-1.05.11.06.17.23.25.36.06.7-1.11 1.4-1.79 1.05m2.49 14.87c-.08.29-.41.4-.86.25-.17-.05-.28-.25-.42-.39-.41-.2-.56-.53-.42-.98.14-.44.75-.37 1.29.13.14.13.33.24.4.4s.06.39.01.57Zm16.34 22.72c-.46.15-.77.05-.84-.24-.04-.17-.05-.52 0-.54.46-.14.75-.04.84.24 0 .19.05.53 0 .54M558.03 149.47c-.73-1.47-1.58-2.48-3.67-3.1l-.2-.07c-1.17-.39-2.52-.73-3.77-.84-2.55-.22-3.36-.59-3.9 1.15-.4 2.03-1.06 5.38-1.07 7.85.18 2.35.68 5.19.45 7.99.03 6.86-.4 13.98.35 20.73.64 3.3-.36 6.51-.27 9.86.37 4.81-.08 9.25.98 13.94.4 2.98-.03 6.1.17 8.97-1.5 11.87-.33 23.89-.47 35.74-.13 5.32-.02 10.67.59 15.89-.52 7.01-.77 14.29.5 21.28.86 10.23-1.64 21-.35 31.07.98 2.09 1.62 3.21 2.68 4.39 1.03.62 3.56 1.14 4.33 1.09a.55.55 0 0 0 .28-.11c.11-.24.15.14.22-.03.08-.31.16-.06.22 0 .05-.09.11-.77.17-.82.07.16.08.68.22.9.33.12.74.08 1.12.03 1.6-.19 4.33.55 5.68-.27.83-.45.07-3.22.33-4.48.92-2.74.31-4.64.04-8.26-.01-9.62.1-19.63-.82-29.02.69-3.97.36-8.27.17-12.13-.12-6.51-1.5-12.64-1.02-19.41.15-1.67 1.05-1.51 2.37-.93 3.8 1.39 7.65 3.12 11.35 4.33 7.19 2.14 13.82 5.41 20.95 7.97 1.52.65 3.54.79 3.9 2.49.2 1.47-.33 3.14-.42 4.7-.15 3.21.23 6.54.15 9.6-.26 2.85.62 6.02.81 9.09-.22 4 .25 7.85-.43 11.73-.83 5.84-.59 12.8-.56 18.32.17.94-.16 4.77.33 5.57 1.17 1.79 2.06-.21 3.68.1 1.07.2 2.45.88 3.48.55.21-.3.25.11.38-.07.13-.31.24-.06.34 0 .08-.1.17-.7.26-.83.1.1.15.69.33.91 1.29.31 2.9-.42 4.03-1.14 1.9-1.15 2.74-1.41 3.02-3.22 1.18-2.86.15-5.85.24-8.86.24-6.69.46-13.53-.26-20.22.8-6.34.52-12.75-.47-19.12-.05-1.22-.02-2.44.05-3.65a.5.5 0 0 1-.23-.13c-.1-.2-.31-.52-.27-.56.2-.17.38-.27.55-.3.31-4.37 1.07-8.71.88-13.08-.36-10.08.39-20.49-.51-30.63 1.4-8.53-.83-16.93-.37-25.49.84-4.19.99-9.13.88-13.17.05-1.76.47-3.01-.73-4.22-.24-.28-.52-.51-.75-.77-.76-.66-.25-1.55-.73-2.15-.49-.58-.95-1.55-1.71-1.72-.38.09-.21.02-.39-.15-.36.17-.31.04-.4-.17-.13.04-.5.53-.65.59-.04-.03.02-.24.06-.43.01-.22.16-.49-.07-.66-1.8-1.38-6.01-2.2-7.77-2.18-2.16-.4-2.35 1.52-2.59 3.1-.19 2.03-1.02 4.38-.69 6.79.15 1.49.36 2.96.37 4.48-.43 8.38-.15 16.37.18 24.64-.97 3.64.15 7.47-.57 10.66-.06-.1-.11-.17-.12-.14 0 .03.06.11.12.18-.01.04-.01.09-.02.14-.35.42-1.09.34-2.06-.02-6.69-2.58-13.6-6.92-20.36-9.31-3.8-1.57-8.09-2.76-11.72-4.58-1.24-.62-2.7-.8-3.4-1.91-.78-2.59-.63-6.03-1.07-8.78.46-5.43.5-11.35-.17-16.75-1.27-5.86-.61-11.78 0-17.74.17-3.27-.15-7.25.02-10.23.05-1.02-.08-1.65-.69-2.33-.69-.77-1.43-1.2-1.4-1.81-.02-.28 0-.58-.09-.84Zm-8.18 154.48c-.06 0-.19-.36-.28-.55-.04-.33.2-.59.74-.67.06 0 .22.35.27.55.08.33-.19.58-.73.67m61.52-115.97c.19.02.35.2.53.32.48.13.71.44.66.94s-.71.56-1.4.14c-.18-.11-.4-.18-.51-.34s-.15-.4-.14-.6c.02-.33.35-.51.86-.46m-.82-6.46c.32 0 .5.3.47.82 0 .06-.37.1-.57.14-.32-.03-.51-.31-.47-.83 0-.06.37-.13.57-.13m-6.47 17.61c.61-.15 1.21-.3 1.83-.42.09-.02.22.18.33.28.2.43.02.75-.23 1.15s-.49.73-.97.64c-.38-.07-.81-.2-1.07-.45s-.34-.69-.5-1.05c.21-.05.41-.1.61-.14Zm-1.5 83.23c.06-.01.22.35.27.55.07.33-.19.58-.73.67-.06 0-.18-.36-.28-.55-.04-.33.19-.59.73-.67Zm-.28 1.58c1.27-.5 2.3.23 2.14 1.52-.06.51-.72.99-1.46 1.09-.68.08-1.16-.29-1.33-1.04-.18-.76.06-1.32.66-1.56Zm-5.6-36.12c.16-.13.51-.31.56-.26.37.4.4.75.15.98-.19.09-.52.3-.56.25-.37-.4-.41-.77-.15-.98Zm-39.91-89.06c.11-.18.27-.53.33-.52.52.14.76.42.65.73-.07.2-.26.53-.32.52-.52-.14-.74-.41-.66-.73m1.8 152.07c.22.4.4.81.61 1.22-.08.14-.13.37-.24.41-.79.28-1.43.95-2.35.87l-.9-1.83c-.09-.19-.24-.55-.21-.56.81-.41 1.63-.79 2.45-1.18.22.36.45.71.65 1.07ZM536.22 319.94c.34-1.24-.26-2.22-.23-3.7.07-2.26.22-4.65.14-7-.87-3.29.67-6.95-.51-10.25l-.05-.15c-.92-2.69.2-5.49.6-8.23-.07-1.87.33-3.6-.14-5.76-.44-1.46-1.39-2.76-2.1-4.01-.5-1.05-1.85-.98-3.81-1.46-2.86-.71-5.22.66-8.62.44-6.59.14-13.7.03-20.2.99-1.16.13-2.31.02-3.45-.25-3.28-.94-6.46-.57-9.67-1.48-2.13-.66-4.42-.67-6.62-1.32-2.1-.89-3.81-2.17-5.6-3.4-5.16-5.87-8.63-13.35-9.85-21.13-.94-6.32-1-13.23-1.85-19.61.66-5.77.8-11.84.04-17.61-.74-6.14 1.07-12.21 2.12-18.27-.02-.01-.05-.03-.07-.04.04-.06.07-.12.11-.18.06-.38.13-.75.19-1.13 1-6.16 1.6-11.87 4.68-17.36 1.85-3.74 4.89-6.62 8.88-7.72 2.02-.36 4.2.46 6.28.57 7.31 1.22 14.87 2.34 21.22 6.38 2.52 1.72 5.62 3.31 8.56 4.62 4.34 2.15 7.82 4.35 12.74 3.41 1.6-.43 1.68-4.44 2.28-6.14.51-2.89-.44-5.74-.24-9.31.14-2.33.2-4.28.2-6.59-.14-6.72.35-13.36-.75-19.98-.45-2.61.4-5.3.3-7.82-.16-4.02-3.87-6.67-6.6-8.97-2.27-2.38-5.48-3.69-8.49-5.12-2.48-1.42-4.89-3.07-7.69-4.1-3.11-.95-5.46-3.02-8.64-3.61-5.38-1.38-10.99-1.28-16.42-.4-5.86 2.27-12.07 4.25-16.6 8.96-4.81 5.14-6.76 11.07-8.14 17.72-2.67 5.48-3.21 11.46-4.39 17.31.08 9.35-2.29 18.48-3.64 27.7-.52 5.81-1.06 11.22-.9 17.16-.74 9.66-1.42 19.28-.45 28.93-.97 6.24-.49 12.46-.49 18.61 1.15 5.44.78 10.75 1.17 16.3-1.31 15.76 3.52 32.68 13.86 44.75 2.88 2.97 6.3 5.21 10.07 6.9 4.03 3.51 9.25 4.89 14.4 6 3.13 1.12 6.62.85 9.83.85 3.47.42 7.29.75 10.9.78 5.83 1.22 11.84.88 17.72.3 1.54-.06 2.91.07 4.28-.3 1.69-.47 2.63-1.92 4.01-2.7 1.03-.42 1.14-2.26 1.65-3.63ZM497.27 147.1c.08.11.12.32.07.44-.07.19-.19.45-.36.51-.4.16-.84.27-1.27.31-.18.02-.37-.2-.56-.31-.03-.15-.11-.32-.07-.45.28-.78 1.74-1.11 2.19-.5m-5.72-11.51c1.04-.39 1.71-.08 1.95.92.19.75-.06 1.29-.7 1.54-1.04.39-1.71.08-1.96-.92-.19-.75.06-1.3.71-1.53Zm-4.18 14.83c1.17.06 1.95.88 2.84 1.45.27.18.38.84.29 1.22-.08.35-.48.69-.83.89-.37.21-.85.23-1.28.34-1.48.34-1.73.16-2.13-1.52-.1-.42-.23-.84-.31-1.27s.88-1.14 1.42-1.11m-2.56 17.43c.95-.87 2.17-.57 2.46.6.05.21.1.42.16.64.1.42.36.88.27 1.27-.08.35-.48.71-.83.89-.64.33-1.67.12-1.78-.28a33 33 0 0 1-.61-2.56c-.03-.16.18-.41.33-.56m-4.21-47.8c.35-.51.55-1.14 1.2-1.44.49-.23 1.66-.09 1.77.32.23.83.5 1.67.58 2.52.03.28-.48.62-.74.93-.42.04-.86.18-1.24.09-.41-.1-.76-.42-1.13-.64s-.98-.39-1.06-.69.38-.73.63-1.09Zm-20.72 40.79c-.07.2-.26.53-.32.52-.53-.14-.74-.41-.66-.73.11-.18.27-.53.33-.52.53.14.76.42.66.73Zm2.7 86.62c-.13.14-.33.23-.5.34-.21.05-.44.18-.64.14-.4-.08-.87-.16-1.14-.42-.23-.22.73-.99 1.46-1 .39 0 .78.25 1.16.38-.11.19-.2.39-.35.55Zm29.3 41.17c-.2-.07-.54-.25-.52-.31.14-.52.42-.73.75-.66.19.11.54.26.52.32-.14.52-.43.75-.75.65m3.05 28.5c-.19 0-.38-.18-.56-.28q-.21-.4.87-2.09l.35-.53c.3.28.73.5.87.84.51 1.22-.1 2.02-1.52 2.06Zm22.3-21.57c.11-.18.27-.53.33-.52.53.14.76.42.65.73-.07.19-.26.53-.32.52-.52-.14-.74-.41-.66-.74Zm-.48 31.2c-.43-.13-.85-.29-1.27-.44-.37-.21-.79-.36-1.11-.63-.41-.34-.29-.75-.12-1.22s.33-.91.84-.9c1.22.04 1.92.31 3 1.03.16.11.28.38.29.59.08.9-.85 1.81-1.64 1.57Zm13.75-4.08c-.59.29-1.19.58-1.79.83-.11.05-.35-.02-.43-.12-.14-.16-.33-.42-.28-.58.4-1.24.83-2.47 1.29-3.7.06-.16.31-.27.5-.35.14-.06.33-.01.49-.01.29.59.59 1.18.87 1.77.39.81.11 1.77-.65 2.15Zm1.23-19.75c-.39.3-.76.2-1.23.03-.47-.16-.86-.33-.88-.84-.01-.4.02-.87.22-1.2.2-.32.63-.51.96-.75.1.2.19.39.29.59.29.59.59 1.17.85 1.77.04.09-.13.26-.21.4M307.68 319.46c2.17-3.64 4.8-6.75 6.69-10.42 1.97-5.02 3.62-10.07 3.74-15.49.98-5.86 2.09-10.83 3.25-16.72 1.16-10.75.82-21.03 1.3-31.82v-.28c.18-3.48-.36-7.16-.52-10.69.29-3.72.66-7.79.28-11.32-.02-6.43-1.39-13.01-.92-19.45 1.6-11.48.28-23.14.52-34.61.09-4.16-.06-8.28-.52-12.34-.01.16-.04.33-.11.51-.26.75-.76 1.1-1.38.97-1.31-.25-1.76-1.43-.93-2.43.32-.39 1.13-.45 1.78-.14.29.14.49.35.58.61-.1-.82-.19-1.64-.31-2.45.12-7.12-.05-14.34-2.11-21.2-.13-.44-.25-.89-.35-1.35-1.49-7.77-1.41-16.12-4.28-23.52-3.12-8.96-8.31-18.34-17.23-22.67-2-.93-4.1-1.26-6.24-1.31.04.02.09.03.13.05.39.16.51 1.18.12 1.78-.21.33-.67.79-.94.74-.85-.16-1.66-.5-2.47-.82-.16-.06-.26-.35-.31-.55-.09-.41-.03-.78.13-1.11-1.43.1-2.85.24-4.25.34-6.48.57-12.61 3.85-17.53 7.96-.06.04-.12.09-.18.13.03 0 .06-.02.09-.02.19-.02.4.12.61.19.51.02.82.28.88.79s-.58.73-1.37.47c-.2-.07-.45-.09-.6-.22s-.25-.37-.28-.57c-.01-.07 0-.13.02-.18-8.87 6.28-18.31 12.7-23.08 22.84-3.99 7.52-8.1 15.85-9.28 24.22-.24 3.54-1.96 6.72-2.42 10.21-1.43 8.15-.64 16.44-1.67 24.57-1.59 7.92-1.52 16.38-1.11 24.37-.1 7.7-.62 15.74.25 23.31.38 3.61-.76 7.2-.34 10.86-.05 7.04 1.39 14.11 1.34 21.13-1.06 11.59 1.05 23.33 3.33 34.63 1.19 5.75 2.99 11.54 5.98 16.44 1.48 4.21 3.81 8.23 6.95 11.35 2.42 3.09 5.78 4.79 9.31 6.69 6 3.32 12.18 6.22 19.01 7.04 12.11 1.27 26.41-.45 34.45-10.54Zm-75.63-98.76c-.32.09-.58-.17-.68-.69-.01-.06.34-.19.53-.29.33-.05.58.17.68.7.01.06-.33.23-.53.28m45.36 87.81c-.13-.16-.31-.49-.27-.54.39-.37.72-.41.96-.18.1.19.31.5.27.54-.39.37-.74.43-.95.18Zm22.45-18.31c-.09-.19-.31-.5-.27-.54.38-.37.74-.43.95-.17.13.15.32.49.27.53-.39.37-.72.41-.96.18Zm1.6 5.91c-.16.13-.49.33-.53.28-.36-.38-.4-.73-.17-.97.19-.1.5-.32.54-.27.36.39.42.75.16.96m13.33-105.7c-.1-.19-.31-.5-.27-.54.39-.37.74-.43.96-.18.13.15.31.49.27.54-.39.37-.72.41-.96.18m-.19-51.64c.19-.03.46.07.59.21.28.28.5.63.74.96-.39.1-.78.25-1.18.3-.19.02-.4-.12-.61-.2-.24-.32-.48-.64-.73-.97.39-.1.78-.24 1.18-.29Zm-4.43 119.65c.06-.01.22.34.27.54.08.32-.17.59-.69.69-.06.01-.18-.35-.28-.53-.05-.33.18-.59.7-.7m-.75-4.99c-.48.56-1.87.15-2.08-.63-.04-.13.06-.3.1-.45.5-.55 1.87-.14 2.09.63.04.13-.01.34-.11.44Zm-2.12-111.4s.35.2.53.31c.22.25.15.59-.25.96-.05.04-.37-.17-.52-.31-.24-.23-.16-.59.24-.95Zm-18.75-36.96c.18-.59.86-.78 1.59-.53s1.08.79.9 1.42c-.12.42-.28.84-.43 1.26-.2.37-.36.77-.63 1.08-.33.39-.74.26-1.21.11-.47-.16-.93-.33-.86-.84.11-.85.37-1.68.63-2.49Zm-4.04 12.35c.11-.16.37-.27.58-.29.88-.08 1.78.83 1.55 1.61-.13.42-.29.84-.43 1.26-.2.37-.35.78-.61 1.1-.33.41-.73.29-1.2.12-.47-.16-.9-.32-.89-.83.03-1.2.29-1.89 1-2.96Zm-5.81-11.97c.58-.29 1.16-.58 1.74-.86.8-.39 1.74-.11 2.11.63.29.58.58 1.16.83 1.76.05.11-.02.34-.12.43-.16.14-.41.33-.57.28a87 87 0 0 1-3.64-1.25c-.16-.06-.27-.31-.34-.5-.06-.14-.01-.32-.01-.48Zm-17.73-.72c.58-.29 1.15-.59 1.74-.85.09-.04.26.13.4.2.3.38.2.75.04 1.21s-.32.85-.83.87c-.4.01-.86-.01-1.18-.21-.32-.19-.5-.62-.75-.94.2-.1.39-.19.58-.29Zm-15.42 54.35c.32-.09.57.16.67.69.01.06-.34.19-.53.29-.32.05-.58-.17-.68-.7-.01-.06.33-.23.53-.28Zm-11.95-5.46c-.06.01-.22-.34-.27-.54-.08-.32.17-.59.69-.69.06-.01.18.35.28.53.05.33-.18.59-.7.69Zm4.72 148.17c-.33.05-.58-.17-.68-.7-.01-.06.34-.23.53-.28.32-.09.58.17.68.69.01.06-.34.19-.53.29m2.12 2.07c-.32.09-.58-.16-.68-.69-.01-.06.34-.19.53-.29.33-.05.58.17.68.7.01.06-.34.23-.53.28m.23-7.17c-.11-.36.11-.56.63-.77.59-.24 1.14-.59 1.7-.89.1.19.19.38.29.57-.05.41-.04.83-.18 1.21-.22.62-.79.78-1.52.62-.48-.1-.8-.27-.93-.74Zm5.86 15.75c-.51 1.63-.76 1.64-2.17 1.43-1.85-.28-2.22-1.78-2.82-3.1-.13-.29.1-.98.38-1.19.68-.51 1.48-.87 2.25-1.25.42-.21 1.4.14 1.65.56.22.37.39.77.59 1.15.58 1.07.59 1.07.13 2.4Zm3.4-5.34a.78.78 0 0 1-.59-.19c-.29-.28-.51-.62-.77-.93.39-.11.77-.26 1.16-.32.19-.03.4.11.61.18.25.32.5.63.75.94-.39.11-.77.26-1.16.32m2.47-30.38c-2.41-3.87-3.99-8.85-5.61-12.89-.88-3.84-2.54-7.77-3.5-11.47-.4-2.61-.56-5.8-1.02-8.58.26-7.76-.01-15.94.14-23.69-.89-8.87-.21-18.25-.16-26.73.13-3.61-.36-7.26-.03-10.85 1.3-4.73 1.58-9.85 2.95-14.3 1.22-2.92 1.57-6.34 3.12-9.11 1.82-2.68 4.1-5.69 6.64-7.77 8.17-5.24 16.96-9.95 25.97-13.68 7.81-2.98 16.88-2.09 21.34 5.97 1.26 3.87 2.75 8.09 3.71 11.86.61 2.86 1.02 5.81 2 8.59 1.52 5.93 1.52 13.24.9 19.24v.25c.02 13.57.78 28.08-.32 41.58-.21 3.63-.05 7.5-.21 11.15-1.25 5.09-1.88 10.52-3.04 15.42-1.06 2.87-1.24 6.09-2.17 8.98-.87 2.15-2.28 4.41-3.57 6.45-.97 1.79-2.2 3.14-3.75 4.38-3.68 3.08-8.57 7.2-12.96 9.13-10.58 6.15-22.19 5.81-30.44-3.94ZM336.93 60.43c-.1.85-.71.98-1.18 1.38-.35.31-.49.73-.72 1.25-.22.46-.51 1.02-.44 2.12.33 2.33.61 6.3.39 9.14.09 6.79-.36 14.48.5 20.94.55 2.99-.51 5.88-.37 8.84.07 8.29 1.4 16.88 1.2 25.09-1.38 9.76-.66 19.44-.47 29.17.02.05.04.09.06.15.05.21.17.43.14.63-.02.13-.09.25-.17.36.03 1.85.04 3.69 0 5.54-.1 5.66-.07 11.19.62 16.41-.55 6.88-.72 13.96.3 20.87.76 5.81.43 11.44-.24 17.15-.61 10.26.39 19.96.18 30.14-.1 5.65-.07 11.2.62 16.41-.29 3.21-.46 6.35-.42 9.54.04.1.09.21.13.29a.49.49 0 0 1-.13.43c.02 1.15.08 2.3.16 3.47.17 6.72 1.52 13.59.79 20.24-1.01 5.8-.51 12.18-.67 17.99-.1 2.25 1.26 3.93 1.94 5.07.56.97.94 1.58 1.94 1.8 1.18.18 2.82 1.02 3.74.62.23-.24.3-.02.47-.02.28-.34.36-.16.57-.04.13-.03.29-1.04.46-.74.6 2.65 6.33.58 7.39-.12 1.55-2.39.91-7.67.46-10.78-.32-10.7.62-21.15-.53-31.76 1-8.65.46-17.34-.52-25.83.02-11.37 1.65-22.37.84-33.87-.2-1.73 1.08-2.28 2.6-2.34 2.63-.24 5.44-.58 8.05-.77 2.79-.11 5.4-.57 8.09-.74.83.05 1.01.49.8 1.44-1.99 7.69-2.64 15.55-2.49 23.39-.56 3.3-.58 7.16-.97 10.53-.88 3.24-.93 6.39-1.05 9.85v1c.37-.14.43.02.79.56.79 1.18.93 2.34.27 3.61-.1.19-.13.41-.2.62-.13.41-.25.83-.4 1.24-.04.11-.13.2-.26.27.32 4.22.95 8.36 1.61 12.67 1.45 8.66 3.45 17.34 8.78 24.33 1.84 1.95 2.67 4.59 4.26 6.7 2.79 3.2 6.6 5.85 10.22 8.17 2.46 1.57 5.96 1.85 8.84 2.81 3.04 1.14 6.32 1.71 9.51 1.95 6.78 2.04 14.91.64 21.53-.57 1.63-.15 2.96-1.72 3.63-2.71.23-.29.44-.48.72-.67.9-.39 1.16-1.59 1.49-2.65.63-1.19-.07-2.82-.1-4.27.35-4.39-.69-8.73-.18-13.15.11-2.76-1.04-4.89-1.05-7.7.35-3.38 1.22-6.71.68-10.3-.19-1.72-2.01-4.28-2.53-5.03-.58-.75-1.82-.74-3.53-1.04-2.15-.52-4.25.21-6.43.49-1.99.19-4 .31-6.01.38-.02.01-.04.03-.06.05-.54.3-1.01.29-1.37 0-6.47.15-12.98-.25-19.32-1.2-7.85-1.89-12.19-9.4-14.23-16.59-.75-5.35-.52-10.43.76-15.65.98-7.21 2.13-14.32 3.09-21.55 1.13-3.01.7-7 2.84-9.34 1.72-.92 3.95-1.05 5.84-1.69 4.17-1.38 8.38-3.03 12.72-4.05 3.75-1.7 7.37-4.15 10.57-6.53 3.49-3.53 6.53-7.88 9.4-12.1 3.09-5.42 6.31-10.29 7.33-16.62 2.25-9.5 2.64-19.48 3.13-29.35v-.29c.24-3.94-.34-7.92-.8-11.82.29-5.39-.29-10.88-1.4-16.05-.33-3.53-2.14-6.75-3.14-10.08-1.96-6.63-3.59-13.57-6.8-19.79-7.7-13.2-19.36-25.35-34.21-30.02-7.95-4.34-17.01-5.64-25.95-4.89-9.12-.13-18.45-.47-26.93 3.5-2.35.98-5.04 1.38-5.21 4.15Zm1 130.27c-.11.18-.27.53-.33.52-.52-.14-.76-.42-.66-.74.07-.19.26-.53.32-.52.53.14.74.41.66.74Zm84.29 109.94c.2.06.54.25.52.31-.14.52-.42.73-.75.66-.18-.11-.54-.26-.52-.32.14-.52.43-.75.75-.65m-5.89-16.31c.03-.05.38.06.55.16.28.15.3.5.04.93-.03.05-.36-.1-.56-.15-.26-.18-.3-.5-.04-.94Zm-23.05 4.27c.11-.18.27-.53.33-.52.53.14.76.42.65.73-.07.19-.26.53-.32.52-.52-.14-.74-.41-.66-.73m-51.22-84.16c-.06-.33.21-.6.73-.68.19-.03.41.11.61.18.51 0 .82.25.9.77.08.51-.56.74-1.35.5-.2-.06-.45-.08-.6-.21s-.25-.36-.29-.56M343.12 102c.08-.42.23-.85.43-1.23.08-.16.37-.2.56-.3.14.06.33.08.41.18.5.65-.01 2.04-.76 2.1-.14 0-.33-.07-.41-.18-.13-.16-.27-.4-.24-.57Zm27.18 109.02c-.26.8-.82 1.19-1.18.84-.37-.36-.38-.75-.1-1.2.11-.18.08-.46.21-.61.37-.39.74-.46.97-.22.14.15.27.37.28.57.02.2-.11.41-.18.62m.69-21.18c-.33.05-.58-.17-.68-.7 0-.06.34-.23.53-.28.32-.09.58.17.68.69.01.06-.35.19-.53.29m10.44 23.29c-.06.01-.22-.34-.27-.54-.08-.32.17-.59.69-.69.06-.01.18.35.28.53.05.33-.18.59-.69.69Zm1.34-9.49s-.35-.2-.53-.31c-.22-.25-.15-.59.25-.96.05-.04.37.17.52.31.24.23.16.59-.24.95Zm21.34.09c-.24.24-.6.16-.96-.23-.04-.04.2-.34.32-.53.26-.22.6-.15.97.24.04.04-.18.37-.32.52Zm11.13 1.43c-.18-.11-.54-.26-.52-.32.14-.52.43-.75.75-.65.2.06.54.25.52.31-.14.52-.42.73-.75.66m21.23-58.62c.2.07.54.25.52.31-.14.52-.42.73-.75.66-.18-.11-.54-.26-.52-.32.14-.52.43-.75.75-.65m-4.27 4.5c-.11.18-.27.53-.33.52-.52-.14-.76-.41-.65-.73.07-.19.26-.53.32-.52.53.14.74.41.66.73m-18.29-39.36c.13.16.3.51.26.55-.4.36-.75.41-.96.15-.13-.16-.19-.37-.28-.57.43-.33.77-.39.98-.13m-18.16-33.69c.06-.01.18.35.27.54.04.33-.19.59-.72.68-.06.01-.21-.34-.26-.55-.07-.32.19-.59.71-.68Zm-2.81 25.55c.07-.19.26-.53.32-.52.53.14.76.42.66.73-.07.2-.22.37-.33.54-.51-.18-.75-.44-.65-.76Zm-5.58-7.33c.28-.29.63-.52.95-.77.1.4.23.79.28 1.19.02.19-.13.41-.19.62-.32.25-.64.5-.97.75-.1-.4-.23-.79-.27-1.19-.03-.2.07-.46.21-.6Zm-33.52 8.55c-.16-.24-.2-.53-.13-.87.23-1.08.85-1.46 1.82-1.14.73.25 1.05.74.9 1.41-.02.07-.05.11-.06.18.07 0 .12-.01.19-.02 5.11-.18 10.28.31 15.46 1-.09-.25-.12-.59-.2-.85.19-.37.31-.81.59-1.09.3-.29.76-.41 1.14-.6.39-.19.85-.61 1.14-.51.01 0 .02.02.03.03.52-.44 1.16-.72 1.96-.78.22-.02.43-.1.64-.15.43-.1.85-.22 1.28-.31.44-.09 1.18.74 1.16 1.3-.04 1.06-1.16 2.79-1.97 3.04-1.2.36-1.66.5-2.23.32l-.06.09c4.34.63 8.68 1.33 13 1.82 2.44.19 4.57 1.46 6.77 2.38 2.71.95 5.51 1.71 7.82 2.7 3.56 1.82 7.85 3.19 11.18 5.1 2.22 1.66 4.89 4.02 6.99 6.07 1.74 2.14 2.67 4.51 4.28 7.12 1.79 3.17 2.85 6.79 4.07 9.89.68 1.02 1.96 1.21 1.9 1.26-.1.12-.68.37-1.1.98l-.11.17c-.55.93-.24 2.15-.13 3.21.43 4.64-.57 8.44-1.67 12.67-1.6 5.09-4.87 9.37-8.13 12.86-1.56 1.84-3.91 2.52-6.08 3.33-4.14 2.02-7.98 3.42-12.36 4.21-5.22 2.17-10.32 2.16-15.89 2.51-6.59-.6-13.4-1.1-20.06-.86-.45-.01-.86-.01-1.22.06-1.34.2-1.86 1.83-1.88 1.74-.46-1.17-1.52-2.06-2.86-1.84-2.62.13-5.95.72-6.67-.71-.36-7.28.33-15.06-.7-22.41.77-4.63.74-9.1.5-13.78-.05-3.45.15-6.93-.65-10.33-.59-4.21.13-8.73-.16-13.06.82-4.69 1.01-9.52 1.05-14.33-.1-1.06.07-1.55.45-1.81m-.75-41.27c.09.19.3.51.26.55-.4.36-.76.41-.96.15-.13-.16-.3-.5-.26-.55.4-.36.74-.4.97-.16Zm-2.26 161.82c.43-.1.86-.21 1.29-.31.45-.25.85-.2 1.22.12.29.25.2.54-.15 1-.4.52-.67 1.13-1.07 1.64-.47.61-1.89.27-2.19-.49-.39-1.01-.08-1.72.91-1.94Zm-1.97 55.07s-.17.37-.32.52c-.23.24-.6.16-.96-.23-.04-.04.2-.34.32-.53.26-.22.6-.16.97.24Zm-1.33-14.17s.35.2.53.31c.22.25.15.59-.25.95-.05.04-.37-.17-.52-.31-.24-.23-.16-.58.24-.95m-.7 41.12c-.12.51-.46.72-.98.72-.21 0-.43.1-.64.15s-.43.1-.64.16c-.77.2-1.42-.01-1.6-.56-.13-.39-.22-.84-.13-1.23.09-.4.43-.75.66-1.12s.39-.93.71-1.05c.25-.1.72.34 1.08.55.38.21.8.39 1.11.68.48.45.59 1.06.43 1.7M344.92 90.5c.41.14.83.26 1.22.43.4.17.48 1.34.17 1.78-.68.95-1.78 1.16-2.73 1.59-.29.13-.9-.13-1.18-.41-.25-.25-.32-.77-.29-1.17.03-.42.26-.83.4-1.25.51-1.41.8-1.52 2.41-.96ZM112.62 320.47c-.3.43-.29.79-.01.97.17.11.53.24.57.19.12-.18.18-.33.2-.48.18 1.4.54 2.67 1.24 3.44 1.04.66 5.12.95 5.91.93.13-.01.22-.04.31-.09.13-.19.15.01.23 0 .11-.27.21-.17.29-.04.06-.12.13-.74.2-.8.11.15.05.78.35.91 1.82.24 5.41.58 6.91-.39 1.46-.61.39-5.26.66-7.14-.61-6.46-.21-14.01-.15-20.71.36-2.13-1.04-5.83.93-7.12 6.63-2.09 13.96-5.5 20.11-9.13 5.83-2.73 11.74-4.05 17.67-6.58 7.69-3.45 14.5-7.23 21.4-11.85 4.96-3.2 9.18-7.26 12.31-12 5.16-5.41 8.39-12.04 9.38-19.48 2.31-10.29 5.16-20.41 4.86-30.98v-.27c-.62-9.21.6-18.82-.89-27.93-.43-2.73.07-5.41 0-8.23-.55-5.3-.84-10.68-2.84-15.71-1.22-5.21-2.44-10.45-6.84-13.81-6.4-3.44-16.21 4.78-21.89 7.72-7.64 3.86-15.31 7.84-22.43 12.49-3.38 1.43-7.03 3.05-9.92 4.98-5.74 3.05-10.91 7.37-16.86 10.01-5.83 2.17-12.55 5.54-17.77 8.73-.81.84-.81 2.75-1.64 3.05-2.87 1.99-1.01 6.18-1.33 9.23-.2 6.63-.44 12.95.25 19.48-.46 5.54-.78 11.35.2 16.86 1.1 6.6-.97 13.2-.69 19.8.22 6.17.03 12.46.05 18.71.19.04.39.12.39.16-.02.43-.16.69-.39.76.02 3.64.12 7.27.43 10.86-.77 6.44-.41 12.86.48 19.26 0 6.9-1.3 14.98-1.04 21.59-.04.95-.05 1.83.06 2.82-.03-.06-.07.03-.13-.02-.19-.07-.53-.24-.57-.19m91.26-133.63c.1.19.31.5.27.54-.39.37-.74.43-.95.17-.13-.16-.31-.49-.27-.54.39-.37.72-.41.96-.18Zm-70.12 101.61c-.13-.16-.32-.49-.27-.54.38-.37.72-.41.96-.18.09.19.31.5.27.54-.38.37-.74.43-.95.18Zm20.22-17.83c-.19.1-.5.32-.54.28-.37-.39-.42-.75-.16-.96.16-.13.49-.32.53-.28.36.39.4.73.17.97Zm28.77-32.97c-.33.08-.71.13-1.01.03-.32-.1-.59-.4-.88-.61s-.74-.37-.82-.65c-.06-.21.32-.57.52-.86.2-.3.37-.63.63-.87.4-.37.91-.42 1.43-.25.41.13.57.42.53.85-.01.17.05.36.08.53.03.18.06.36.09.53.12.65-.1 1.17-.56 1.28Zm14.76-16.81c-.16.13-.49.32-.53.28-.36-.39-.4-.73-.17-.97.18-.1.5-.32.54-.28.36.39.41.75.16.96Zm3.09-87.34c.15.07.42.25.41.29-.15.42-.38.58-.65.5-.14-.1-.42-.26-.4-.3.15-.42.39-.6.64-.49m-.45 114.76c-.38.37-.74.43-.95.17-.13-.16-.31-.49-.27-.54.38-.37.72-.41.96-.18.09.19.31.5.27.54Zm-9.36-105.33s.29.17.4.3c.18.21.1.5-.25.78-.04.03-.27-.19-.41-.29-.16-.23-.09-.51.25-.78Zm-8.98 29.19c.06-.16.24-.43.29-.41.42.15.57.39.49.66-.1.14-.25.42-.29.41-.42-.15-.59-.4-.49-.65Zm-3.23-12.83c.19-.1.5-.32.54-.27.36.38.42.75.16.96-.15.14-.49.33-.53.28-.37-.39-.4-.73-.17-.97m-16.59 8.15c.07-.16.24-.43.29-.41.42.15.57.39.49.66-.1.14-.25.42-.29.41-.42-.15-.59-.4-.49-.66m-13.86 5.33c.63-.11 1.06.13 1.22.67.25.88-.04 1.41-.88 1.55-.63.11-1.06-.13-1.22-.67-.25-.88.05-1.41.88-1.55m-11.78 7.85c.21-.19.49-.1.77.26.03.04-.18.27-.28.41-.22.16-.5.09-.77-.26-.03-.04.16-.3.29-.41Zm-7.4 52.85c.32-4.42.04-9.15.27-13.42.03-1.58-.59-3 .24-4.25 1.4-1.58 3.81-2.89 5.82-4.23 6.3-3.16 11.75-7.85 17.94-9.74 5.23-2.61 10.19-4.94 15.02-8.11 5.98-2.8 12.32-4.09 18.76-5.43 3.33-.86 7.08-1.26 10.23-.35 2.93 1.49 2.37 6.34 2.33 9.26l-.02.25c-.36 2.56-.35 5.37-.77 8.05.05-.08.11-.14.13-.13.42.15.57.39.49.66-.1.14-.25.43-.3.41-.21-.08-.36-.18-.44-.3-.23 1.26-.57 2.49-1.11 3.63-2.28 3.6-3.45 7.4-6.14 10.64-1.48 1.9-2.2 4.05-3.97 5.9-4.83 5.23-11.56 8.05-17.49 11.78-5.76 3.19-11.52 6.24-17.72 8.49-4.7 1.82-9.58 3.31-14 5.65-2.17 1.12-5.35 1.2-7.34 2.07-1.1.43-1.66.69-1.74.26-1.52-6.72-1.18-14.19-.19-21.09m-1.25 24.41c.09-.16.35-.22.52-.33q.44.03 1.32 1.8c.09.19.18.38.27.56-.38.11-.79.36-1.15.3-1.29-.2-1.65-1.12-.96-2.34Zm-8.44-18.73c.13.15.32.49.27.53-.38.37-.72.41-.96.18-.09-.19-.31-.5-.27-.54.38-.37.74-.43.95-.17Zm-3.77-15.17c.22-.22.46-.13.81.19.4.36.88.62 1.28.98.47.43.1 1.57-.54 1.77-.86.26-1.42-.04-1.54-.87-.05-.36-.12-.72-.18-1.08-.18-.39-.11-.71.17-.99" class="cls-1"/></g></svg>