<svg xmlns="http://www.w3.org/2000/svg" viewBox="0 0 721.1 581"><path d="M721 404.2a24 24 0 0 0-3.8-10.8l-1-1.8q-1-2-2.7-4-.7-.8-1.5-1.2v.1l-.2-.2.2.1q-.3-.6-.4-.5v.1h-.1l-.2-.2c-.2-.4-1.3-1.3-2-2-5.3-5.1-9.5-9.8-13.7-13.9-5-5-9.2-9.5-13.6-13.8l-6.8-6.9-1.4-1.5.2-1.8V343q.3-8.7.4-19.5c.1-5.8-.5-12.2-.3-19.4 0-7.2-.7-13.8-.6-19.9.1-7.2 1.6-13.7 1.7-19.7l.7-19.8c.2-7.2-1-13.6-1-19.8.2-6.7 2.4-13 2.5-19.7q0-4.5-.5-9.5l-.4-5-.2-3-.3-3a52 52 0 0 0-2.4-10.8 35 35 0 0 0-6-10.7 41 41 0 0 0-11-9.2l-1.2-.7-1.2-.6-4.6-2.6c-5.4-2.9-11.6-5.2-17.9-8.6-5.4-3-10.3-7-15.8-10s-11.4-5.2-16.9-8.2-10.3-7-15.8-10-11.6-4.9-17-8l-16.5-9c-5.4-3-10.5-6.6-16-9.7S522 82 516.6 79s-10-7.8-15.5-10.8-11.6-4.7-17.1-7.7l-16.5-8.9c-5.5-3-10.3-7.3-15.8-10.3l-16.3-9.1c-5.5-3-11.9-4.3-17.4-7.3l-16.4-9c-5.5-3-10-7.9-15.4-10.9l-1.2-.6-1.3-.6-2.6-1.1-2.8-1-2.7-.6a49 49 0 0 0-11.4-1q-5.7.3-11 2.3-2.6 1-5 2.4L345.6 6l-2 1.2c-5.5 3-10.7 6.6-16.2 9.6l-16.6 8.6-16.4 9c-5.5 3-12 4.3-17.4 7.3-5.5 3-10 7.7-15.6 10.7-5.4 3-11.3 5.2-16.8 8.2l-16.4 9.2-16.7 8.6-16.5 8.8c-5.5 3-11.3 5.4-16.8 8.4s-10.5 7-16 10l-16.5 8.7c-5.5 3-11.5 5.1-17 8.1s-10.6 6.6-16 9.6l-16.4 9.3c-5.4 3-10.7 6.5-16.2 9.5l-4 2.2-1.1.6-1.2.6-1.2.7-1.2.8a40 40 0 0 0-18.1 33v1.5l-.1 1.1v2.4q-.3 4.6-.3 9.3l-.3 18.7v18.8l.3 18.7c.2 9.4.5 12.5.5 18.7l-.2 18.7c0 6.3-1 12.5-1 18.8l-.3 18.7q0 2.9.4 5.8l.2 1.4v.6l.2.2.4.5-.2.7-.2.2-.3.3-.7.7-1.3 1.2-13.8 12.6-14 12.4q-3.6 3-7.7 5.5l-3.9 2.7-1 .7-.4.3-.6.5-2.2 2.2a26 26 0 0 0-5.6 10.8Q0 399.4 0 405q0 6 2.2 11.4t6 9.8a52 52 0 0 0 8.4 8.2q4.9 3.8 11 5l3 .2h3l4.6-.2 9.3-.3h4.3l.2.1.3.1v.7l.6 7q.7 4.7.8 9.4c0 6.2-1.3 12.5-1.3 18.7V494c0 6.3 1.2 12.5 1.2 18.8 0 6.2-1.3 12.5-1.3 18.7q0 4.7.9 9.4l.6 4.7.2 2.3.2 3a49 49 0 0 0 2.4 11.5c1.3 3.7 3.5 7.4 6.5 10.1q4.8 4.2 10.8 5.7t11.7 1.4h18.7c6.3 0 12.6.6 18.8.6l18.7.2 18.7-.4 18.8-.2c6.2 0 12.5-.7 18.7-.7 5.9 0 12.1.6 18.6.6l18.7-.1 18.7.1h18.6c6.1 0 12.4-.9 18.7-.9 6.1 0 12.4.6 18.7.5 6.1 0 12.4.8 18.7.8 6.1 0 12.3 1 18.6 1 6.2 0 12.4-2 18.7-2l18.7-.4 18.7.4 18.7.4c6.2 0 12.4-.6 18.7-.6s12.4 2.1 18.7 2.1 12.4-.5 18.6-.5l18.7.3h18.7c6.2 0 12.5-1.4 18.6-1.4l18.7.3c6.3 0 12.5-1.3 18.7-1.4s12.5 1 18.6 1c6.3 0 12.5 1 18.7 1 6.3 0 12.5-2.1 18.6-2.2q4.8.1 9.4 1.2l4.7.8 4.9.3c4-.1 8-1.6 11.4-3.6q5-3.1 8.8-7a31 31 0 0 0 9.1-20.2v-19c0-6.5.8-12.7.7-18.6 0-6.7.6-12.8.5-18.4 0-6.7-.5-12.7-.6-18.2 0-6.9-.7-12.9-.8-18.3q0-5-.4-9.6l-.2-4.4-.2-2.1v-1.6q0-1.9.3-3.3l2.7.5 1.2.2h2.7q4.2-.3 8.7-1l2.3-.5 2.4-.3 1.3-.2 1.4-.3 2.7-.6q4.5-1.2 8.4-4.2a34 34 0 0 0 11.1-15.5q1.6-4.6 1.2-9.9Z" style="fill:#f93e10"/><path d="M527 487.4c-1.1-4.9-1-9.7-2.5-14.4-1.1-3-1.2-6.1-3-9q-3.2-5.9-8.2-10.7a88 88 0 0 0-23-14.2c-3.7-1.5-7.7-2.3-11.4-3.3l-1-.3q.2.5-.1 1t-.8.9c-1 1-1.3 1-2.4-.1l-.8-.8c-.3-.2.1-1.3.6-1.5q.7-.4 1.5-.4-1.8-.8-3.6-1.2l-8.4-2c-5.3-1.2-10.3-1.1-15.6-3.2a93 93 0 0 1-18.6-8.4c-1.1-.5-2.3 0-2.7.1-.2.1.5-1.2 0-2.4q0-.6-.4-1a6 6 0 0 1-.8-5.6c2.4-5 9-6 14-7.9a15 15 0 0 1 5.5-.9c4.3.2 8.3-1 12.4-1 2.8.1 5.8-.7 8.6-1 2.7-.1 6 .2 9 .1 6.1.8 12.7 1.9 19 2.2 1 .2 2.2-.2 2.7-1q.4-.6.4-.4c0 .1.3 1.2 1 1.6q.5.2 1.1.2a15 15 0 0 0 4.7-1.7c.7-.7 1.2-3.2 1.3-4.5-.1-1-1.7-1.2-1.7-1.3 0 0 1.1-.4 1.5-1.3v-.6c0-3.5.6-7.3-.1-10.8-.3-2 .5-4.2.2-6.2.1-2.2-.8-4-.9-6.4-.1-3.1 1.4-6.2.9-9.4-.4-1.1-2-1.6-1.8-1.6 0 0 2-.5 1.6-1.5q-.1-.7-.7-1.5c-1.2-1.8-1.6-3.3-3.5-3.8q-.6-.4-1.3-.3c-.7 0-.8 1-.9 1.3q0 .3-.1.2c-.1-.2-.5-1.4-1.5-1.8q-.8-.4-1.9-.4c-3.8-.1-7.4-1-11.4-1.2q-8-1-15.8-.4a53 53 0 0 0-21 1.3c-8 1.4-16.2 1.3-23.6 4.7a50 50 0 0 0-15.5 9.9c-2.9 3-6 7-7.5 11.1-1.1 3.7-1.4 7-2.7 10.5-1.3 8.2.8 16.3 4.2 23.8 2 3.2 3 6.4 5.7 9.2 4.5 5.2 10 8.4 15.9 11.5q10.2 5.9 21.3 9 9.8 4.6 20.5 6.6c7.4 2.1 14.6 6.4 21.7 9a4 4 0 0 0 2.8.2c.7-.2.6 0 1.3 1.1.9 1.3 2.5 1.5 3.8 2.3q2.4 1.3 4.7 2.9c5 3.5 10 7.7 12.7 13 2.3 8.2 3.8 19.7-6.7 22.5a84 84 0 0 1-28.4 2.8q-7.8-.7-15.4-.8a104 104 0 0 0-21.8-2.4c-8-.9-15.7-4-23.6-4.7-1.6 0-2.3 1.7-2.3 1.4-.2-1-.8-2.1-2-2-1.5.1-4.2 1-5 1.6s-1.3 3.2-1.3 4.9c.2.9 1.9 1 1.7 1 0 .1-1.3.5-1.6 1.4q-.2 1 0 2-.5 5.3.1 10.4c0 2.5-.5 5-.2 7.3.2 1.5.8 3 .8 4.5.1 3.2-1.3 6.4-.9 9.6.2 1.1 2 1.5 1.8 1.6 0 0-1.6.5-1.7 1.4q0 .8.6 1.5c1.2 1.6 1.5 3.4 3.1 3.7 1.9.7 2.7 1.3 3.2-1l.2.3c1.2 2.7 5 1.3 7.5 1.8 8.1.8 16.7 1.8 24.8 1.6 3-.4 5.9.3 8.7.7a92 92 0 0 0 20.7-1.3c3.3 0 7.1-.7 10.5-1 4 .2 7.8-.8 11.7-2a42 42 0 0 0 25.7-25c1.5-3.9 1.7-8.6 2.8-12.7 1.8-5.5 1.4-11.4 1.6-17.1zm-32-132.8 1-.7.3 1.2-.2.6-1 .7-.3-1.2zm.2 19.2.5.2q0 .8-.5.8l-.5-.2q0-.7.5-.7m-1.8-10.7.5.1q0 .8-.5.8l-.5-.1q0-.9.5-.8m-8 26.7.5.1q0 .8-.4.8l-.6-.2q0-.8.5-.7m-8.5-29.3c.3-1.4 1.5-1.8 2.5-1q.6.7.1 1.8-.4.9-1.6.6-1-.5-1-1.4m.3 20.7q.5.1.2.9h-.5q-.4-.2-.3-.9zm-2.8-13.4q1.6-1.2 2.3.8l-.1.6q-.3.3-2.1-.3l-.6-.2zm-6.2 22.2q.8-.2.9.2v.6q-.7 0-.9-.3zm-16.8-37 .6.2q0 .9-.5.8l-.6-.1q0-.8.5-.8Zm-.4 25.2q.8 0 .8.5l-.2.5q-.8 0-.8-.5zm-6.7 16 1-.3v.6q-.1.9-1 1.2h-.6c-.2-.2 0-1.1.6-1.5M433.5 381q.3-.5 1 0l-.2.5q-.3.5-1 0zm-6.8 12.6q.8-.1.9.3v.5q-.7.1-.9-.2zm-23.4-7.4-2.3-.7q-.5-.3 0-1c.4-.4 1.3-.6 1.6-.4q.8.5.8 1.5zm19.5 31.6c-.2.3-1.1-.4-1.3-1v-1.2q.4 0 .6.2.3 0 .5.3l.3.6zm6.8 10.2q-.1.4-.8.3v-.5q0-.5.8-.3zm7.6-2.4-.6-.1q0-.8.5-.8l.6.1q0 .8-.5.8m21 16.2q-.6 0-.7-.5t.2-.5q.7 0 .7.5zm22.5-3.8q.8 0 .8.5l-.2.5q-.7 0-.7-.5zm3.2 12.8c-.4.6-1.2.9-1.5.7l-1.7-1.7v-.5c.3-1.1 1.4-1.5 2.1-.8l.5.4.8.9zm13.5 4.5h-.5q-.1-.6.3-.8h.5q.2.6-.3.8m15.2 13q-.8 0-.8-.4l.2-.6q.7 0 .8.5zm-95.5 46.2-.5-.3q-.2-.3.3-.8l.4.3q.2.3-.2.8m4.1 9.8h-.5q-.4-.1-.3-.8h.6q.4 0 .2.8m8.2-27.2q-.3.2-.8-.2l.3-.5q.3-.2.8.3zm3.5 25.5q-1.2.9-2-.3l-.6-1q-.5-.6-.2-1.2t1-.1l1.7.5c.7.3.7 1.6.1 2.1m.1-16h-.5q-.7-.1-.6-.5 0-.3.3-.5l.5-.1q1.1-.3 1.1.5-.1.6-.8.6m4.2 7.6q0 .5-.8.3v-.5q.1-.4.8-.3zm2.4 14.2q-.3.3-.8-.2l-.1-.5q-.3-.6.2-1 .5-.3.9.8v.5q0 .3-.2.4m6.7-18.4h-.6q-.2-.6.3-.8h.5q.2.6-.2.8m14.1 35.3h-.5q-.4-.1-.3-.8h.6q.5 0 .2.8m9.3-30.6q-.3.4-1 0l.2-.5q.2-.4.9 0zm12-3.7-.5-.2q-.4-.3 0-1l.5.2q.4.3 0 1m6.8 22.4-.3.2c-.6-.2-.9-1.3-.4-1.8l.3-.1c.6.1.9 1.3.4 1.8Zm3.7-4q-.3 0-.8-.3l.3-.4q.4-.3.7.2zm1.2-26q-.3.3-.8-.2l.2-.4q.4-.3.8.2zm4.3 32.5q-.7.1-.9-.3v-.5q.8-.1.9.2zm4-16.5q0 .3-.2.5-.1.3-.4.4-.5.3-1 .2c-.3 0 0-1 .6-1.4l1-.3zm5.8-11.2-1.1.5-1.2-.3q-.8-.1-1.1-.4-.1-.5.2-1.1 0-.7.3-1.2.5-.9 1.5-.8.7 0 .9.7l.3.5q0 .3.3.5.6 1.1-.1 1.6M518 524q-.6 0-.5-.6l.3-.4q.6.2.5.6zm.9-60.1q-.2 1-1.1 1.1-.6.2-1-.3l-.4-.4-.9-.9c-.2-.2 0-1 .6-1.4.3-.2.9-.4 1-.3q1 .7 1.7 1.6zm5.1 30.7h-.6v-2.3q.2-.5.9-.2c.5.2 1 1 .8 1.3q-.2.9-1 1.2m165.7-94c-1.2-2.8-4.4-5.2-6.5-7.8-1.3-1.8-3-2-4-1.1q.5-2-1-3.2c-4.3-3.6-8.2-7.9-12.9-11-4.8-6-12.2-9-17-14.9-2-2.3-5.1-7-8.5-5.7-.2 0 1-1.3.7-1.7-.5-.2-1.2.2-1.8.3s-.7-.6-1-1c-1.4-1.3-1.5-.9-1.6 1-.5-.6-1.6-2.2-2.9-1.9-5.2.5-10.6 0-16 .1h-36.5v.4q.2.5-.6.6l-.3-.5.1-.4h-7.9c-6.3.9-12.7.8-19 .6l.2.3q-.7.4-1 0-.2 0-.3-.4c-7.9-.3-15.8-1-23.7-.6a3 3 0 0 0-2.1 1c-.7 1-.4 1-.9.2-1-2.8-4.7.8-5.6 1.1-.9.5-1.3 2.8-1.4 4.2.2.7 1.8.9 1.7.9s-2 .8-1.7 1.9c-.2 4.3.2 9 .1 13.3-.9 4.4 1.6 8.4.3 12.8-.5 2.3-1.5 6 1.3 6.8 0 0-1.8.6-1.7 1.6l.3.9c1 1.6 1.7 4 3.3 4.3 1 0 2.2.9 3 .4.9-.5.4-2.5 1-1.1.6 1.2 2.3 1.4 3.6 1.2 7.3-.2 14.8.2 22 .2 5.1 0 10.7-1.1 15.9 0 2.2 0 4-.4 4.6 1.3 1.8 8 1.2 16.6.3 24.8 0 16.1-.6 32.6.3 48.8-.4 9.2-.8 18.4.6 27.4.3 9.8-2.1 19.9-.7 29.6q.6.8 1.5 1.2c.2 0-1.6.5-1.7 1.5.3 1.9-.6 5 .9 5.3 1.9.5 6.2 1.4 6.4-1.2 0 0 .2 1.3.4 1.6q1.2.3 2.5 0h.5c.6.4 1.2-.6 1.8-.7 1.7 1 1.8 1.4 2-1 1 3.7 5.3 1.2 6.9.4.4-.3 1.3-5-.1-5.6-.8-.5-1.9 0-.6-.7 2.3-2 .4-5.9 1.1-8.6.6-8.5-.8-16.7.2-25q0-7.8-1-15.3c-.3-6.6 1.3-13.3 1-19.8-.4-16.4.2-33-.4-49.2-1-3.7-.5-7.5-.5-11.3q0-3.5 3.6-3.5c11-.5 22.4.4 33.4-.6 9.5 1.5 19-.8 28.5-.3a58 58 0 0 0 15 .7c1.2-.4 1.6-1.9 1.6-1.7 1.5 3.4 6 1.5 8.8 1.2l5.2-1.4q.4-.1.3-.6zm-168.2-6.3q-.7.3-1.5-.5-.5-.8.2-1.5.8-.8 1.5-.3c1 .7.9 1.8-.2 2.3m11 2.6q-.3 1-1.4.9-1.6-.4-1.1-1.8.3-1.2 1.4-1 1.6.5 1.2 1.9m2.1-11.2c-.6.5-2 0-2-.8l.1-.4.6-.2q.6 0 1.2.4l.3.6zm10.3.5-.4 1.2c-.2.4-1.4.5-1.8.2-1-.7-1.2-1.8-1.6-2.8-.1-.3.1-1 .4-1.2q.5-.3 1.2-.3l1.3.4c1.4.6 1.5.8 1 2.5Zm10.1-12.2-.6.3q-2.1.1-1.7-1.9l.2-.6q.1-.7.5-1.2t1.2-.3c.7 0 1.4.8 1.3 1.2zm17.3 20.6-.5.3q-.5-.7-.2-1l.6-.3q.5.6.1 1m0-33-1.3.6c-1 .6-1 .6-2.4 0-1.7-.5-1.7-.8-1.4-2.2.3-1.9 1.9-2.2 3.2-2.8.3-.1 1 .1 1.2.4l1.2 2.4c.2.4-.2 1.4-.6 1.6m3 4.8-1 .7-.3-1.2q0-.4.2-.6l1-.8.3 1.2zm2.6-9.5-.3-.6q0-.5.7-.7l.3.6q0 .5-.7.7m4.2 130.5q0 .3-.3.4-.6-.2-.5-.6t.3-.4q.6 0 .5.6m1.5-68.6-.2-.5q.6-.5 1-.2l.2.6q-.6.5-1 .1m2.3-59.3-1.2-.2q-.9-.5-.6-1.6.1-.7.8-1 .5 0 .8.7l.8 1.8zm4.5 58.6-.5.2q-.5-.6-.2-1l.6-.2q.5.6.1 1m2.3 67.3-.4-.2q-.4-.3.2-.8l.4.3q.3.4-.2.7m15.3-115q.7 0 .8.4l-.1.6q-.8 0-.8-.4zm0 3.2.5-.2q.6.6.1 1l-.5.2q-.5-.6-.2-1m1.6 18.4q-.2.5-.9.1v-.5q.4-.5 1-.2zm23.5-23.8h.6q0 .8-.5.9l-.5-.1q0-.8.4-.8m0 13.5q-.4-.4-.3-.6.6-.5 1-.1l.2.5q-.6.5-1 .2m4.7 4.4-.5-.1q-.5-.3-.2-1l.6.1q.4.3.1 1m4.8 3.2q-.5 0-.7-.7l.6-.3q.5 0 .7.7zm17.4 12-.3-.5q0-.6.7-.7l.3.5q0 .6-.7.7m13.7-7-1.1.1v-.6l.4-.5.5-.3h1.1c.3 0-.3 1-1 1.3m-427.3-1.5.2-7.2c-.8-3.5.4-7-.3-10.4v-.2c-1.7-5 1.2-10.3.2-15.4-.2-1.3-1.1-2.5-1.7-3.6-.5-.7-.7-1.2-1.5-1.5-1.5-.4-3-1.1-5.3-.9-4.1.7-8.5 0-12.8.2h-8.6l-.1.3q-.4.4-1.2.1l-.7-.3-3.9.3a79 79 0 0 0-20.7.5c-7.4 0-15-1.3-22.3-1-9 .5-18.7-.4-27.7.4-2.8.5-5.7-.4-8.6-.4l-8 .2-5.2.6q0 .5-.2.7-1 .7-2.2 1-.5 0-1-.5l-.4-1q-4 .1-7.7-.5c-4-.7-8.6-.4-12.6-.6-1.8-.2-2.3.2-3.2 1.6-.5.7-1.1-.2-1.8 0-.4.1-1.1-.3-2 .9-1.9 2.3-5.3 4.7-7.7 7q-3.5 2.9-6.4 6a48 48 0 0 0-10.6 10l-2.7 2.5q.4 0 .4.4l-.2.6q-.8 0-.8-.6l-6.1 4.2a52 52 0 0 0-13.8 15q-.4.5 1.7 1.1c5.2.9 12.3 1.7 18 .8l22.9.3c5.3-.1 10.8-1.1 16 0l14.2-.2q1.6-.1 2.2.8c.5 3-.2 6 .2 9 0 2.6-.7 5.1-.8 7.8-.3 5.7 0 11.3-.3 17 1.1 12.6-.8 24.7.7 37 .3 2.3-.5 4.5-.6 6.8l.2 10.3c-.4 3.7.6 7.4.8 11.2q.4 0 .7.4l-.4.5h-.2c-.2 5.4 0 10.6-1 15.9-.2 5.1 0 10.6-.2 15.7-.4 2.3-.1 6.4.6 7.5.3.6 2.5-.1 3.2 0 1.1.2 3 1.1 3.8.6q.3-.2.5 0l.2-.8c.1.1.1.7.3.9h1.5c1.5-.4 4.7 0 5.5-.5 1-.5-.3-2.7 0-3.9q.9-2.5.5-5.4c-.7-8.3.6-17-.4-25.3a20 20 0 0 1 .2-6.4c.4-3.5 0-6.5 0-9.6q0-1.3.2-2.4h.3-.3q.1-.6.5-1c5.7-5.3 13.8-7.6 20.6-11.1q4.4-1.6 8.6-3.6c6.7-2 13.7-2.8 20.5-4 3.2-1 6.5 0 9.7 0 3.3-.4 6.5 0 9.7-.4 4-1 8-.5 12-.6 4.9.5 10 1.2 14.9.9h4.3c2.4 0 4.1-1.6 5.2-2.1 1.6-.9 1.4-2.8 2-4.6 0-1.7-.5-3.4-.2-5.1q.2-3.3-.2-6.9c.4-3.3.1-6.1-.6-9.4 0-4 2.2-8.3.2-12.3l-1.6-2.6c-.4-.9-1.4-1-3-1.4a11 11 0 0 0-5.4-.2c-4.7.5-9-.2-13.7 0q-9-.3-17.2.5a56 56 0 0 0-24 1.8c-6.1 1.4-12.6 2.5-18.5 4.3a83 83 0 0 0-18.5 9.5c-6.5 3.5-5 2.7-5.4-3.5 0-3.7-1-6.8-.2-10.2.7-5.3 0-10 0-15.2-.1-3.1-1.5-6.7-.2-9.5 1.5-2 4.6-.2 6.9-.4 12.5.5 25-.3 37.7.2 5.3.2 10.5-1 15.7-.2l.3-.6q.3-.2.9.4l-.3.4h.2c6-.2 11.5.2 17.3-.9 3.3-.3 6.8.2 10.2 0q9 1.1 18.6.9 4.6.7 7.8-1.8c1-.6 1.7-1 2-2.6q.8-2.8.2-6.2M45 400.3q-1 .7-2.3 1.2l-.6-.2q-.8-.5-.8-1.5 0-.8.7-1l.6-.2 1.2-.6c.4-.2 1.2.5 1.3 1.1q.2.8-.1 1.2m28.3-9.3q-.1.4-.3.5-.7-.3-.6-.8l.4-.5q.6.3.5.8m9.9 10.3-.3-.6q0-.4.7-.6l.3.5q0 .5-.8.7m4.6-32.7q-.3.5-1.1.5-.7 0-1-.6t-.6-1.1c-.7-1.4-.5-1.6 1-2.4l1.1-.6c.4-.1 1.3.6 1.4 1.1.2 1.2-.4 2-.8 3Zm3.5 31.6q-.5.9-1.6.6-1.1-.5-1-1.4c.3-1.3 1.5-1.8 2.5-1q.5.8 0 1.8Zm2.6-26q-.2.3-.4.3-.4 0-.6-.3l-.6-1.1.2-.6.4-.2c.8.1 1.5 1.4 1 2m1.6-17.4-.8 1q-.7.6-1.7.2-.6-.3-.5-1l-.1-.7-.1-.6q-.2-1.1.7-1.5h1.2l1 .8q.6.2 1 .8zm2.5 9.7q-.6-.6-.2-1.8.5-.9 1.6-.6 1.1.5 1 1.4c-.2 1.3-1.4 1.8-2.4 1m5.2 2q-1.1.4-1.6-.4-1-1.4.4-2.1 1.1-.4 1.6.3 1 1.5-.4 2.1m2.3-3.9-.3-.5q0-.5.7-.7l.3.5q0 .6-.7.7m9.3 72.6-.3.5q-.7-.3-.6-.8l.4-.5q.8.3.6.8Zm1.4-8.1c-1.1.7-2.2.2-2.4-1q0-.9 1.2-1.4.9-.3 1.5.7t-.3 1.7m2.5-66.4-.5-.4q-.3-.4.4-.9l.4.4q.3.5-.3.9m4.4 174.4q-.1.4-.3.5-.7-.3-.6-.8l.4-.5q.8.3.5.8m112-82.3q.4.2.4.4-.2.8-.7.6l-.5-.4q.3-.7.8-.6m-45.3 3.5.5.3q-.3.8-.8.6l-.5-.4q.3-.8.8-.5m-5.2-24.3.3-.5q.7.3.6.8l-.4.4q-.7-.2-.6-.8ZM139 472.9c.2-.2.9.8.8 1.5q-.1.6-.5 1l-.5-.3-.2-.5-.1-.7q.1-.6.5-1m-10.7-13 .4.4q-.2.8-.7.5-.4-.1-.5-.3.3-.7.8-.6m3.9-96.7q-.5.3-.9-.3l.4-.5q.3-.2.8.4zm5 13.3-.6-.2q.2-.8.6-.8l.6.2q0 1-.6.8m6.4 11.8q-.3.4-1 0l.2-.6q.2-.5 1 0zm27.8-15.8q-.4.4-1-.2t-1.4-1.2c-.5-.5 0-1.9.7-2q1.6-.5 1.8 1l.1 1.3q.3.6-.2 1.1m34.6-11.3-.5-.3q.3-.7.8-.6t.5.4q-.3.7-.8.5m7.3 3.2-.4 1.3q-.2.6-.6 1-.5.6-1.2.2-.7-.1-.9-.8a5 5 0 0 1 1-3l.5-.3q1.7.2 1.6 1.6m15.4 27.6q-.4-.4-.3-.6.6-.5 1-.2l.2.6q-.6.5-1 .2Zm8.4-29.4h-.6q-.3 0-.5-.4t.3-.9h.7q.7-.4 1 .2.5.9-.9 1Zm4.7 22.5-.6-.2-.7-1 1.1-.3q.4 0 .6.2l.8 1zm146 155c.5-1.8 1.1-3.1-1.2-3.3q-.2 0 .3-.2.7-.3 1.2-1.2.3-5.1.2-10.4c-.8-3.6.5-7.4-.2-11v-.2c-1.2-3.4-.5-6.7.2-10.3 0-2 .5-4.3-1.8-5-.1 0 1-.2 1.5-1q.4-.9 0-1.9c-.7-1.3-1.7-3.2-2.3-3.8s-2.8-.6-4-.7c-1.1-.2-1.5 1.3-1.5 1.8q0 .3-.3-.2-.5-1-2-1.1-6.3.9-12.5 1.5-7.8.6-15.2 2.3c-5.7 0-11.9.8-17.4 2-8 2.6-16.6 1.7-24.8 3-13.2 1.7-31 2.6-34.4-13.9-1.1-4.7-2.8-9.5-2.2-14.4 0-2.8 3.2-1.5 5-1.6 16.3 0 32.2-.4 48.4 0 7.8 0 15.2-1.8 23-.4 4.1.5 9 .6 13 .3 1.5-.4 1.7-2.4 2-1.5.9 3.2 4.7-.2 5.9-.9.7-.5 1.2-2.7 1.2-4-.2-.8-1.9-1-1.7-1 0 0 1.9-.7 1.7-1.6q.2-3.6 0-7.2-.4.4-2 .4c-.9 0-.8 0-.9-.8a3 3 0 0 1 1.2-3l.4-.4.8-.9h.5V447c0-1.6-.7-3-.8-4.6-.2-2.6 1.4-5 .9-7.7-.3-1-1.8-1.3-1.8-1.4 3.6-1 0-4.8-.7-6.2-.5-.5-4.3-2.1-4.7-.3-.3 1 0 1.2-.5.4q-1.1-1.6-3.1-1.2c-10.6-.3-21.3.5-31.8-.2-7 0-13.7 1.2-20.7 1q-11.9-1.6-23.8-.7c-3-.5-5.9.5-8.2-.8a22 22 0 0 1-.9-10.4c.7-4 0-7.5.1-11.1 0-3 10.1-1 12.2-1q21 1 41.7-.2c9.3 1.5 18.5-.8 27.8-.3 5 .6 11 1.6 15.8.5 1-.6 1.2-1.7 1.2-1.5.6 2.5 2 1.8 3.6.5 1.2-1 2.2-.9 2.7-2.2l.7-1.3c.5-.7-1.3-1.5-1.5-1.5 0 0 1.4-.1 1.8-1 1.5-6 2.5-12.5 3.7-18.6V375q-.3 0-.6-.4l.5-1.8.2-.5h.2a12 12 0 0 1 1-3.2c1-2 2.6-5.9 0-7 .1-.2 1.8-.2 2-1.3a9 9 0 0 0-1.5-6c-.6-.7-2.8-.9-4.4-1.2-1-.2-1.5 1.3-1.6 1.8-1.3-2.7-5-1.6-7.5-1.6-15-.8-30.2.7-45.2-.3-11.8 0-23.3 1.2-35 1q-8.5-1.1-17.2-1h-5.8c-1.2-.2-3 1.3-3.2 1.9l-.2-.4q-.2-.7-1-1.2c-.8-.3-1.8.4-2.6.8-1.6 1-2.6 1.2-3 2.5-.5 2.1-1.3 3.6 1.2 3.9 0 0-1.2.5-1.6 1.5q-.2.7-.2 1.7c.5 5.3-.2 10.8 0 16-.4 8.4.7 17.2-.3 25.6-.3 8.8.8 17 .1 25.7-.6 7-1.9 13.7-1.7 20.6q-.3 2.3 1.6 3.3c.2.2-1.6.6-1.8 2v.5c0 5.9-.7 12.3-.5 18a69 69 0 0 0 1.6 17q-.2 6 1.3 11.8.4.1 1 .7.8.4 1.2 1.3c.2.4 0 1.6-.5 1.6l-.7.1c2.5 8.8 7.2 17.3 11.8 25.2h.4q.4.1.5.4t-.3.4c3.3 4.2 9.1 8.6 14.4 7.4q.2 0 .8.8c2 1.8 5 1 7.5 1.9 10 1.6 18.2 2.6 27.8 1.8 8 .5 16.2 1 24.2-.4 10.8-1.8 21.8.2 32.6-1.6 1.2 0 2.4-1.6 2.4-2l.1.3c.3.3.7 1.2 1.3 1.2q1-.1 2-1c1.5-1.3 2.5-1.4 2.9-2.8Zm-29.2-91.5q.3-.1.5-.4l.5-.5q1-.8 1.7-.3l.7 1v1.4c0 .3.1 1-.1 1.2h-2.5q-1-.2-1.3-1.2-.2-.8.5-1.1Zm-14.1-8 .5.1q0 .8-.4.8l-.6-.2q0-.8.5-.7m-1.7 27.5.6.1q0 .9-.5.8l-.6-.1q0-.8.5-.8m-5-3.3q.8 0 .8.5l-.2.6q-.8 0-.8-.5zm-20-12.5h.7q.1.8-.4 1h-.6q-.1-.9.3-1m-10.8 9.4.6.2q.4.2 0 .9l-.5-.1q-.4-.3 0-1Zm-6.5-31.7q1-.7 2.2-1.2c.2-.1.7.3 1 .4l.4 1.1-.3 1.2q0 .8-.3 1.2c-.3.4-.8-.2-1.2-.3q-.9-.1-1.6-.7c-.3-.4-.5-1.5-.2-1.7m-2 14.4 1 .5.4.5v1.2l-1-.5-.4-.6zm-20.9-8.7.6.1q.8.6.8 1.5l-.1.6c-.3.2-1.1-.4-1.3-1zm106.5-72.3q.3-.4 1 0l-.2.5q-.2.4-.9 0zm-6.2-2.6.5-.3q.4-.1.6.2.3.2 0 1l-.6.2q-.5.5-1 .2c-.5-.3-.2-1 .4-1.3Zm-10 22q1-.9 2.1-1.3l.6.1q.8.5.9 1.5 0 .7-.7 1l-.6.2-1 .6c-.4.2-1.2-.3-1.4-1zm-10.8-19 3.1-1.8h.6l.4.3-.5 1.8q-.4 1.3-1.8 1.1l-1.7-.5q-.3 0-.3-.3 0-.4.2-.6m-1.7 37.8q-.8 0-.8-.5l.2-.6q.8 0 .8.5zm-2.6-34q.6-.4 1.1 0l1.4 2q.4.8-.6 1.5-1.1.4-1.6-.3l-.6-1-.4-1.2q0-.6.7-1m-6.4-11q.6-.6 1.1-.2 1.2 1 1.5 2.6l-.1.6c-.5.7-1.7.7-2.1.1l-.7-1-.4-1.2q0-.6.7-1m-6.7-2.4.3.5q-.6.6-1 .2l-.3-.6q.6-.5 1-.1m-18.3 7.1.6-.3c.4.1.5 1.2.1 1.8l-.9.8-.3-.6q-.2-1 .5-1.7m-7.5 5 .5-.3h1.2q-.2.6-.6 1.1-.1.2-.5.3h-1.1zM299.4 379l-.3-.6q.6-.5 1-.2l.3.6q-.6.5-1 .2m-1.3-20c1-.8 2.1-.4 2.3.8q.1.9-1 1.4-.9.3-1.4-.7c-.6-1-.4-1.2.1-1.5m-2.5 32q.5-.2.7.6l-.5.3q-.6.1-.7-.7zm-21.4 8.4q.3-.4 1 0l-.2.5q-.3.4-1 0zm-2 54.3.6.1q0 .8-.5.8l-.6-.2q0-.8.5-.7M261 504q-.2.5-1 .2v-.6q.2-.5 1-.2zm.3-75.7-.5-.3q-.3-.4.3-1l.5.4q.2.4-.4 1Zm2-70.9q-.7-.2-.7-1v-.6q.2-.7.7-.6.3 0 .5.4l.1.6q.1 1.4-.7 1.2m3.1 118-.4-.3q-.4-.4.3-.9l.4.4q.3.4-.3.9Zm1.4 19.9-.8-1v-.5q.1-.6.5-1.1l.7.9.1.6zm3.4-94c-.2.7-1.6 1-2.1.3l-.1-.4c.2-.7 1.6-1 2.1-.3zm13.2 110.3-.5-.4q-.6-.7-.2-1.7 0-.2.3-.5c.4 0 1 .9.9 1.6q-.1.5-.5 1m9.1 30.8q-.7.2-.9-.3v-.6q.8-.2 1 .3zm11.2-25.8h-.6q-.2-.8.3-1h.6q.2 1-.3 1m5.6-1h-.5q0-1 .5-.8l.5.1q0 .8-.5.8m6.2 16.7c-.3 1-.3.8-1 .7q-2-.2-2.8-2.1l-.3-.6-.6-1c-.2-.4.4-1.3.9-1.4 1-.3 2.8.3 3.2 1q1 1.6.6 3.4m5.3-5.5q-1.1 1.2-2.2.2-.8-1-.1-1.7 1-1.4 2.1-.2 1 .8.2 1.7m7.9-23.4-.6-.1q-.4-.3 0-1l.5.2q.4.2 0 .9m.7 27.2-.3-.3c0-.7 1.1-1.4 1.8-1l.3.3c0 .7-1.1 1.4-1.8 1m6 2.9h-.6q-.6 0-.3-1h.6q.4.3.3 1m.2-18.8h-.5q-.4-.1-.3-.8h.5q.5 0 .3.8M346 498l-.4.4q-.7.2-.8-.2v-.6q0-.3.3-.4 1-1 1.3-.2c.3.8 0 .7-.4 1m12.6-2.2-.6-.1q-.4-.3 0-1l.5.2q.4.3 0 1m4.2 3q-.3 0-.3-.3c0-.7 1.1-1.4 1.8-1l.3.3c0 .7-1.2 1.4-1.8 1m2.5 15q-.2.3-.9.2-.3-.1-.4-.4-.6-.3-.4-1 .3-.6 1.2.1l.4.4zm16.3 22.7q-.8.2-.8-.3v-.5q.6-.2.8.2zm176.5-387a5 5 0 0 0-3.6-3.1l-.2-.1q-1.9-.6-3.8-.8c-2.6-.3-3.4-.6-4 1.1-.3 2-1 5.4-1 7.9.2 2.3.7 5.2.5 8 0 6.8-.4 14 .3 20.7.7 3.3-.3 6.5-.3 9.8.4 4.9 0 9.3 1 14 .4 3 0 6 .2 9-1.5 11.8-.3 23.8-.5 35.7q-.2 8 .6 15.9c-.5 7-.8 14.3.5 21.3.9 10.2-1.6 21-.3 31a16 16 0 0 0 2.7 4.4c1 .6 3.5 1.2 4.3 1.1l.3-.1c0-.2.1.1.2 0 0-.3.1 0 .2 0l.2-.9.2 1h1.1c1.6-.2 4.3.5 5.7-.3.8-.4 0-3.2.3-4.5 1-2.7.3-4.6 0-8.2 0-9.7.2-19.7-.8-29 .7-4 .4-8.3.2-12.2-.1-6.5-1.5-12.6-1-19.4.1-1.7 1-1.5 2.4-1q5.7 2.4 11.3 4.4c7.2 2.1 13.8 5.4 21 8 1.5.6 3.5.8 3.9 2.5.2 1.4-.4 3.1-.5 4.7-.1 3.2.3 6.5.2 9.6-.3 2.8.6 6 .8 9-.2 4 .2 8-.4 11.8-.9 5.8-.6 12.8-.6 18.3.2 1-.2 4.8.3 5.6 1.2 1.8 2.1-.2 3.7 0 1 .3 2.5 1 3.5.6.2-.3.3.1.4 0q.2-.3.3 0l.3-.9q0 .4.3 1c1.3.3 3-.5 4-1.2 2-1.1 2.8-1.4 3-3.2 1.2-2.9.2-5.9.3-8.9.2-6.7.5-13.5-.3-20.2q1.2-9.5-.4-19.1V269l-.2-.1-.3-.6.6-.3c.3-4.3 1-8.7.8-13-.3-10.1.4-20.5-.5-30.7 1.4-8.5-.8-16.9-.3-25.5.8-4.1 1-9 .8-13.1.1-1.8.5-3-.7-4.2l-.7-.8c-.8-.7-.3-1.6-.8-2.2-.5-.5-1-1.5-1.7-1.7-.4.1-.2 0-.4-.1q-.3.1-.4-.2l-.6.6v-.4q.2-.4 0-.7c-1.8-1.4-6-2.2-7.8-2.2-2.2-.4-2.3 1.5-2.6 3.1-.2 2-1 4.4-.7 6.8l.4 4.5q-.5 12.5.2 24.6c-1 3.7.1 7.5-.6 10.7l-.1-.2.1.2v.2q-.6.5-2 0c-6.8-2.6-13.7-7-20.4-9.4-3.8-1.5-8.1-2.7-11.8-4.5-1.2-.7-2.7-.8-3.4-2-.7-2.5-.6-6-1-8.7a83 83 0 0 0-.2-16.8c-1.3-5.8-.6-11.8 0-17.7.2-3.3-.1-7.3 0-10.3q.2-1.4-.7-2.3-1.2-1-1.4-1.8zM549.8 304l-.2-.6q0-.5.7-.7l.3.6q0 .5-.7.7m61.5-116q.3 0 .5.3.7.1.7 1c0 .8-.8.5-1.4 0l-.6-.3q-.2-.3 0-.6 0-.5.8-.4m-.8-6.5q.4 0 .4.8l-.6.2q-.5 0-.4-.9zm-6.4 17.5 1.8-.4.3.3q.2.5-.2 1.1-.4.9-1 .7-.6 0-1-.5-.5-.7-.5-1zm-1.5 83.3.2.5q.2.5-.7.7l-.3-.6q0-.5.8-.6m-.3 1.5c1.3-.5 2.3.3 2.1 1.6q-.2.9-1.4 1-1 .2-1.4-1-.2-1.2.7-1.6m-5.6-36q.4-.4.6-.3.5.6.1 1l-.6.2q-.5-.7-.1-1m-40-89.1.4-.6q.8.3.7.8l-.3.5q-.9-.3-.7-.7m1.8 152 .6 1.2-.2.5c-.8.2-1.5 1-2.4.8l-.9-1.8-.2-.6 2.4-1.1zm-22.4 9.1c.4-1.2-.2-2.2-.2-3.7l.1-7c-.8-3.2.7-7-.5-10.2v-.2c-1-2.6.2-5.4.6-8.2-.1-1.9.3-3.6-.2-5.8-.4-1.4-1.4-2.7-2-4-.6-1-2-1-3.9-1.4-2.8-.7-5.2.6-8.6.4-6.6.2-13.7 0-20.2 1a10 10 0 0 1-3.4-.2c-3.3-1-6.5-.6-9.7-1.5-2.1-.7-4.4-.7-6.6-1.3q-3-1.5-5.6-3.4a42 42 0 0 1-9.9-21.2c-1-6.3-1-13.2-1.8-19.6a73 73 0 0 0 0-17.6c-.7-6.1 1-12.2 2.1-18.3v-.2l.3-1.1c1-6.2 1.6-11.9 4.6-17.4 1.9-3.7 5-6.6 9-7.7 2-.3 4.1.5 6.2.6 7.3 1.2 14.9 2.3 21.2 6.4q4 2.6 8.6 4.6c4.3 2.1 7.8 4.3 12.7 3.4 1.6-.4 1.7-4.4 2.3-6.1.5-3-.4-5.8-.2-9.4l.1-6.5c0-6.8.4-13.4-.7-20-.4-2.6.4-5.3.3-7.8-.2-4-3.9-6.7-6.6-9-2.3-2.4-5.5-3.7-8.5-5.1q-3.6-2.4-7.7-4.1c-3-1-5.4-3-8.6-3.6q-8.2-2-16.4-.4c-5.9 2.2-12.1 4.2-16.6 9-4.9 5-6.8 11-8.2 17.6-2.7 5.5-3.2 11.5-4.4 17.3.1 9.4-2.3 18.5-3.6 27.7-.5 5.9-1 11.3-1 17.2-.7 9.7-1.3 19.3-.4 29-1 6.2-.5 12.4-.5 18.5 1.2 5.5.8 10.8 1.2 16.3a62 62 0 0 0 13.9 44.8q4.4 4.4 10 6.9c4 3.5 9.3 4.9 14.5 6 3 1.1 6.6.8 9.8.8 3.4.5 7.3.8 10.9.8 5.8 1.2 11.8.9 17.7.3q2.3 0 4.3-.3c1.7-.4 2.6-1.9 4-2.7 1-.4 1.1-2.2 1.6-3.6m-39-172.8q.2.2.1.4 0 .4-.3.5l-1.3.4q-.3 0-.6-.4v-.4c.3-.8 1.7-1.1 2.2-.5m-5.8-11.5q1.6-.6 2 1 .3 1-.7 1.4-1.5.6-2-.9-.2-1.1.7-1.5m-4.1 14.8c1.1 0 2 .9 2.8 1.5.3.1.4.8.3 1.2q-.2.5-.8.9l-1.3.3c-1.5.4-1.7.2-2.1-1.5l-.4-1.3c0-.5 1-1.1 1.5-1m-2.6 17.3c1-.8 2.2-.5 2.5.6l.1.7q.3.7.3 1.3-.2.6-.8.8c-.7.4-1.7.2-1.8-.2l-.6-2.6zm-4.2-47.8q.5-.8 1.2-1.4c.5-.2 1.7 0 1.8.3q.4 1.3.5 2.5-.1.5-.7 1-.7.2-1.2 0t-1.2-.6q-1-.4-1-.7.1-.5.6-1M460 160.7l-.3.6q-.9-.3-.7-.8l.3-.5q.9.2.7.7m2.7 86.7-.5.3-.7.1q-.6 0-1.1-.4c-.2-.2.7-1 1.5-1l1.1.4q0 .3-.3.5m29.3 41.1q-.5 0-.5-.3.2-.7.7-.6t.5.3q-.2.8-.7.6m3 28.5q-.3 0-.5-.3-.2-.4.8-2l.4-.6.9.9q.7 1.9-1.6 2m22.3-21.5.4-.6q.8.3.6.8-.1.4-.3.5-.7-.2-.7-.8m-.5 31.2-1.2-.5q-.6-.2-1.1-.6-.5-.6-.1-1.2c.4-.6.3-1 .8-1a5 5 0 0 1 3 1.1q.3.2.3.6c0 .9-.9 1.8-1.7 1.6m13.8-4.1-1.8.8-.4-.1-.3-.6 1.3-3.7q.1-.3.5-.3h.5l.9 1.7c.3.8 0 1.8-.7 2.2m1.2-19.8q-.5.4-1.2 0-.8-.1-.9-.8t.2-1.2 1-.7l.3.6.8 1.7zm-224 16.6c2.2-3.7 4.8-6.8 6.7-10.5 2-5 3.6-10 3.7-15.5 1-5.8 2.1-10.8 3.3-16.7 1.1-10.7.8-21 1.3-31.8v-.3c.1-3.5-.4-7.1-.6-10.7.3-3.7.7-7.8.3-11.3 0-6.4-1.4-13-.9-19.4 1.6-11.5.3-23.2.5-34.6a92 92 0 0 0-.6-11.9q-.5 1.2-1.4 1c-1.3-.3-1.8-1.4-1-2.4q.7-.6 1.9-.2l.5.6-.3-2.4a69 69 0 0 0-2.4-22.6c-1.5-7.7-1.4-16-4.3-23.5-3.1-9-8.3-18.3-17.2-22.6q-3-1.4-6.3-1.4h.1c.4.3.6 1.3.2 1.9-.2.3-.7.8-1 .7l-2.4-.8q-.3-.2-.4-.6 0-.6.2-1-2.2 0-4.3.3c-6.5.5-12.6 3.8-17.5 8h-.2.1l.6.2q.8 0 .9.8 0 1-1.4.5l-.6-.2-.3-.6V92c-8.8 6.3-18.2 12.7-23 22.9-4 7.5-8.1 15.8-9.3 24.2-.2 3.5-2 6.7-2.4 10.2-1.4 8.1-.7 16.4-1.7 24.6a94 94 0 0 0-1 24.3c-.2 7.7-.7 15.8.2 23.3.3 3.6-.8 7.2-.4 10.9 0 7 1.4 14.1 1.4 21.1a121 121 0 0 0 3.3 34.7 52 52 0 0 0 6 16.4q2.2 6.5 7 11.4c2.3 3 5.7 4.7 9.2 6.6 6 3.4 12.2 6.3 19 7 12.1 1.4 26.4-.4 34.5-10.5ZM232 220.7q-.6 0-.7-.7l.5-.3q.5 0 .7.7zm45.3 87.8-.3-.5q.6-.5 1-.2l.3.5q-.6.6-1 .2m22.5-18.3-.3-.5q.6-.6 1-.2l.2.5q-.6.6-1 .2m1.6 6-.6.2q-.5-.6-.1-1 .4-.1.5-.3.5.6.2 1m13.3-105.7-.3-.5q.6-.6 1-.2l.3.5q-.6.6-1 .2m-.2-51.6q.4 0 .6.2l.7 1-1.1.2-.7-.2-.7-1zM310 258.4l.2.6q.1.4-.6.6l-.3-.5q0-.5.7-.7m-.8-5c-.5.6-1.8.2-2-.6v-.4c.5-.6 2-.2 2.1.6zM307.3 142l.5.3q.4.4-.2 1l-.5-.3q-.4-.3.2-1m-18.7-37q.3-.8 1.5-.5c1.2.3 1.1.8 1 1.5l-.5 1.2-.6 1.1q-.5.5-1.2.1-.9-.2-.9-.8.2-1.3.6-2.5Zm-4 12.4q.1-.2.5-.3c.9 0 1.8.9 1.5 1.6q0 .7-.4 1.3-.2.6-.6 1.1-.5.5-1.2.1-.8-.1-.9-.8a5 5 0 0 1 1-3Zm-5.9-12 1.7-.8q1.4-.5 2.2.6l.8 1.8-.1.4-.6.3-3.6-1.3q-.3-.1-.4-.5zm-17.7-.7 1.7-.8.4.2q.4.5 0 1.2-.2.9-.8.9t-1.2-.3q-.4-.3-.7-.9zm-15.4 54.4q.5-.2.6.7l-.5.3q-.5 0-.7-.7.1-.2.5-.3Zm-12-5.5-.3-.5q0-.5.7-.7l.3.5q0 .5-.7.7m4.7 148.2q-.5 0-.7-.7l.6-.3q.5 0 .7.7zm2.1 2q-.5.2-.6-.6l.5-.3q.5 0 .7.7zm.3-7.2q-.2-.5.6-.8t1.7-.9l.3.6-.2 1.2q-.4.9-1.5.6-.7 0-1-.7Zm5.8 15.7c-.5 1.7-.7 1.7-2.1 1.5-1.9-.3-2.3-1.8-2.9-3.1 0-.3.1-1 .4-1.2l2.3-1.3c.4-.2 1.4.2 1.6.6l.6 1.1c.6 1.1.6 1.1.1 2.4m3.4-5.3-.6-.2-.7-1 1.1-.2.6.1.8 1zm2.5-30.4c-2.4-3.9-4-8.8-5.6-12.9-.9-3.8-2.5-7.7-3.5-11.4l-1-8.6c.2-7.8 0-16 .1-23.7-.9-8.9-.2-18.3-.1-26.7 0-3.7-.4-7.3 0-10.9 1.2-4.7 1.5-9.8 2.9-14.3 1.2-3 1.5-6.3 3-9.1 2-2.7 4.2-5.7 6.7-7.8q12.4-8 26-13.7c7.8-3 16.9-2 21.3 6 1.3 3.9 2.8 8.1 3.7 11.9.7 2.8 1 5.8 2 8.6a56 56 0 0 1 1 19.2v.3c0 13.5.7 28-.4 41.5l-.2 11.2c-1.2 5-1.9 10.5-3 15.4-1 2.9-1.3 6.1-2.2 9q-1.5 3.3-3.6 6.4a14 14 0 0 1-3.7 4.4 61 61 0 0 1-13 9.1c-10.6 6.2-22.2 5.9-30.4-3.9m84.5-216.3c0 .9-.7 1-1.1 1.4q-.5.4-.8 1.3-.4.5-.4 2c.3 2.4.6 6.4.4 9.2 0 6.8-.4 14.5.5 21 .5 3-.5 5.8-.4 8.8 0 8.3 1.4 16.9 1.2 25-1.4 9.9-.7 19.5-.5 29.3l.1.1.1.6-.1.4v5.5q-.3 8.5.6 16.5-1 10.4.3 20.8.9 8.7-.3 17.2c-.6 10.2.4 20 .2 30.1q-.1 8.6.6 16.4a93 93 0 0 0-.2 9.9l-.2.4.2 3.5c.2 6.7 1.5 13.5.8 20.2-1 5.8-.5 12.2-.7 18 0 2.2 1.3 4 2 5q.6 1.5 1.9 1.9c1.2.1 2.8 1 3.7.6.3-.3.3 0 .5 0q.4-.4.6 0c.1-.1.3-1.1.4-.8.6 2.6 6.4.6 7.4-.1 1.6-2.4 1-7.7.5-10.8-.3-10.7.6-21.2-.6-31.8 1-8.6.5-17.3-.5-25.8 0-11.4 1.7-22.4.9-33.9-.2-1.7 1-2.3 2.6-2.3l8-.8 8.1-.7q1.1 0 .8 1.4-2.8 11.6-2.5 23.4c-.5 3.3-.6 7.2-1 10.5q-1 4.8-1 9.9v1c.4-.2.4 0 .8.5q1.3 1.8.3 3.6l-.2.7-.4 1.2-.3.3q.6 6.2 1.6 12.6a54 54 0 0 0 8.8 24.4c1.8 2 2.7 4.6 4.2 6.7 2.8 3.2 6.6 5.8 10.3 8.1 2.4 1.6 6 1.9 8.8 2.9q4.6 1.6 9.5 1.9c6.8 2 15 .6 21.5-.6 1.7-.1 3-1.7 3.7-2.7q.3-.5.7-.6c.9-.4 1.2-1.6 1.5-2.7.6-1.2 0-2.8-.1-4.3.3-4.4-.7-8.7-.2-13.1.1-2.8-1-5-1-7.7.3-3.4 1.2-6.7.6-10.3-.2-1.7-2-4.3-2.5-5s-1.8-.8-3.5-1c-2.2-.6-4.3.1-6.5.4l-7.4.4q-9.8.3-19.3-1.2c-7.9-1.9-12.2-9.4-14.2-16.6q-1.2-7.9.7-15.6l3.1-21.6c1.1-3 .7-7 2.8-9.3 1.8-1 4-1 5.9-1.7q6.3-2.3 12.7-4c3.8-1.7 7.4-4.2 10.6-6.6 3.5-3.5 6.5-7.8 9.4-12 3-5.5 6.3-10.4 7.3-16.7 2.3-9.5 2.6-19.5 3.1-29.3v-.3c.3-4-.3-8-.8-11.8q.4-8.3-1.4-16.1c-.3-3.5-2.1-6.7-3.1-10-2-6.7-3.6-13.6-6.8-19.9a64 64 0 0 0-34.2-30c-8-4.3-17-5.6-26-4.9-9-.1-18.4-.4-26.9 3.5-2.3 1-5 1.4-5.2 4.2Zm1 130.3q0 .4-.3.5-.8-.2-.7-.7l.4-.5q.8.2.6.7m84.3 110 .5.2q-.2.9-.7.7l-.5-.3q.2-.8.7-.7m-5.9-16.3.6.2q.5.2 0 1l-.5-.2q-.4-.3 0-1m-23 4.3.3-.5q.8.2.7.7l-.4.5q-.7-.2-.6-.7M342 204.4q-.1-.5.7-.6l.6.1q.8 0 .9.8-.1.9-1.4.5l-.6-.2q-.3-.2-.2-.6m1-102.4.4-1.2.6-.3.4.1c.5.7 0 2-.7 2.2l-.4-.2zm27.2 109q-.5 1.3-1.2.9-.6-.6 0-1.2l.1-.6q.6-.6 1-.3l.3.6zm.7-21.2q-.5.1-.7-.7l.5-.2q.6-.2.7.6zm10.4 23.3-.2-.5q-.1-.5.6-.7l.3.5q0 .6-.7.7m1.4-9.5-.6-.3q-.3-.3.3-1l.5.4q.3.3-.2 1Zm21.3.1q-.3.4-1-.2l.4-.5q.4-.4 1 .2zm11.1 1.5-.5-.4q.3-.7.8-.6t.5.3q-.2.7-.8.7m21.3-58.7.5.3q-.2.9-.8.7l-.5-.3q.3-.8.8-.7m-4.3 4.5-.3.6q-.9-.3-.7-.8.1-.4.3-.5.9.2.7.7m-18.3-39.3.3.5q-.6.5-1 .2l-.3-.6q.7-.5 1-.1m-18-33.7.2.5q0 .6-.7.7l-.3-.5q0-.6.7-.7m-2.9 25.5.4-.5q.8.3.6.7l-.3.6q-.8-.3-.7-.8m-5.5-7.3 1-.8.2 1.2-.2.6-1 .8-.2-1.2q0-.4.2-.6m-33.6 8.6q-.2-.4 0-1 .3-1.6 1.7-1 1.1.3 1 1.4l-.1.1h.2q7.6-.2 15.4 1l-.2-.8q.2-.6.6-1.1.5-.4 1.1-.6.7-.5 1.2-.5.8-.6 2-.8l.6-.1 1.3-.3c.4-.1 1.2.7 1.2 1.3 0 1-1.2 2.7-2 3q-1.6.6-2.2.3l-.1.1 13 1.8c2.4.2 4.6 1.5 6.8 2.4q4.2 1.3 7.8 2.7c3.5 1.8 7.8 3.2 11.2 5.1 2.2 1.7 4.9 4 7 6 1.7 2.2 2.6 4.6 4.2 7.2 1.8 3.2 2.9 6.8 4.1 9.9.7 1 2 1.2 2 1.2q-.4.2-1.2 1l-.1.2c-.6 1-.2 2.1-.1 3.2.4 4.6-.6 8.4-1.7 12.7-1.6 5-4.9 9.3-8.1 12.8-1.6 1.9-4 2.6-6.1 3.4a46 46 0 0 1-12.4 4.2c-5.2 2.1-10.3 2.1-15.9 2.5a160 160 0 0 0-21.2-.8c-1.4.2-1.9 1.8-2 1.7-.4-1.1-1.4-2-2.8-1.8-2.6.1-6 .7-6.7-.7-.3-7.3.4-15-.7-22.4q1-6.9.5-13.8c0-3.5.2-7-.6-10.3-.6-4.3.1-8.8-.2-13.1q1.2-7 1-14.3 0-1.5.5-1.8m-.7-41.3.2.5q-.6.6-1 .2l-.2-.6q.6-.5 1-.1m-2.3 161.8q.7 0 1.3-.3.8-.4 1.2.1t-.1 1l-1 1.7c-.6.6-2 .2-2.3-.5q-.6-1.6 1-2Zm-2 55-.3.6q-.4.3-1-.2l.4-.6q.4-.3 1 .3Zm-1.3-14 .6.2q.3.4-.3 1l-.5-.3q-.4-.4.2-1m-.7 41.1q0 .7-1 .7l-.6.2-.6.2q-1.3.3-1.6-.6-.3-.6-.2-1.2l.7-1.2q.4-.9.7-1 .5 0 1 .5l1.2.7q.7.7.4 1.7M345 90.5l1.2.4c.4.2.5 1.4.2 1.8-.7 1-1.8 1.2-2.7 1.6-.3.1-1-.1-1.2-.4q-.3-.5-.3-1.2l.4-1.2c.5-1.4.8-1.5 2.4-1m-232.3 230q-.4.6 0 1l.6.1.2-.4q.2 2.2 1.2 3.4a19 19 0 0 0 6.2.8h.3q0-.2.3 0c0-.1 0-.7.2-.8 0 .1 0 .8.3.9 1.8.2 5.4.6 7-.4 1.4-.6.3-5.2.6-7.1-.6-6.5-.2-14-.2-20.7.4-2.2-1-5.9 1-7.2 6.6-2 14-5.5 20-9 5.9-2.8 11.8-4.1 17.7-6.7 7.7-3.4 14.5-7.2 21.4-11.8q7.5-4.9 12.4-12 7.7-8.2 9.3-19.5c2.3-10.3 5.2-20.4 4.9-31v-.2c-.6-9.3.6-18.9-.9-28-.4-2.7 0-5.4 0-8.2-.5-5.3-.8-10.7-2.8-15.7-1.3-5.2-2.5-10.5-6.9-13.8-6.4-3.5-16.2 4.8-21.9 7.7q-11.6 5.7-22.4 12.5-5.3 2-10 5c-5.7 3-10.8 7.3-16.8 10-5.8 2.1-12.5 5.5-17.7 8.7-.9.8-.9 2.8-1.7 3-2.9 2-1 6.2-1.3 9.3-.2 6.6-.5 13 .2 19.5a66 66 0 0 0 .2 16.8c1.1 6.6-1 13.2-.7 19.8.3 6.2 0 12.5 0 18.7l.5.2q0 .6-.4.8 0 5.4.4 10.8-1 9.7.5 19.3c0 6.9-1.3 15-1 21.6v2.8h-.1zM204 186.8l.3.6q-.7.6-1 .2l-.3-.6q.7-.6 1-.2m-70.1 101.7q-.4-.4-.3-.6.6-.5 1-.2l.2.6q-.6.5-1 .2Zm20.2-17.9-.6.3q-.5-.6-.1-1l.5-.2q.6.6.2 1Zm28.8-33h-1q-.5-.1-1-.5t-.8-.7l.6-.8.6-1q.6-.4 1.4-.2.6.3.6.9v.5l.1.6q.2 1-.5 1.2m14.7-16.8q-.3.4-.5.3-.6-.6-.2-1l.6-.2q.5.6.1 1m3.1-87.3.4.3q-.2.6-.6.5l-.4-.3q.2-.6.6-.5m-.4 114.8q-.7.5-1 .1l-.3-.5q.7-.6 1-.2zM190.9 143l.4.3q.2.3-.3.8l-.4-.3q-.1-.3.3-.8m-9 29.2.3-.4q.6.3.5.7l-.3.4q-.6-.3-.5-.7m-3.2-12.8.5-.3q.6.7.2 1l-.5.3q-.6-.7-.2-1m-16.6 8.1.3-.4q.6.3.5.7l-.3.4q-.6-.2-.5-.7m-13.9 5.4q1-.1 1.3.6.4 1.5-1 1.6-1 .2-1.1-.7-.4-1.3.8-1.5m-11.7 7.8q.3-.2.7.3l-.3.4q-.3.2-.7-.3zm-7.4 52.9c.3-4.4 0-9.2.2-13.4 0-1.6-.6-3 .3-4.3 1.4-1.6 3.8-2.9 5.8-4.2 6.3-3.2 11.7-7.9 18-9.8q7.7-3.7 15-8c6-2.9 12.3-4.2 18.7-5.5 3.3-.9 7-1.3 10.2-.4 3 1.5 2.4 6.4 2.4 9.3v.3l-.8 8 .1-.1q.6.2.5.6l-.3.4-.4-.3q-.4 2-1.2 3.7c-2.2 3.6-3.4 7.4-6.1 10.6-1.5 2-2.2 4-4 6-4.8 5.1-11.5 8-17.5 11.7q-8.5 5-17.7 8.5c-4.7 1.8-9.6 3.3-14 5.6-2.1 1.2-5.3 1.2-7.3 2.1q-1.6.8-1.8.3a60 60 0 0 1-.1-21.1m-1.3 24.4.5-.3q.5 0 1.3 1.8l.3.5q-.6.3-1.1.3-2-.4-1-2.3m-8.4-18.7q.2.2.2.5-.5.6-1 .2l-.2-.6q.6-.5 1-.1m-3.8-15.2q.3-.3.8.2l1.3 1c.5.4 0 1.5-.6 1.7q-1.3.4-1.5-.8l-.2-1.1q-.2-.6.2-1" style="fill:#fdf4ac"/></svg>