<svg xmlns="http://www.w3.org/2000/svg" id="Layer_2" viewBox="0 0 163.5 125.8"><defs><filter id="luminosity-noclip" width="163.5" height="125.8" x="0" y="0" color-interpolation-filters="sRGB" filterUnits="userSpaceOnUse"><feFlood flood-color="#fff" result="bg"/><feBlend in="SourceGraphic" in2="bg"/></filter><style>.cls-3{fill:#ebc434}.cls-4{fill:#fff}.cls-5{fill:#e8bc16}</style><mask id="mask" width="163.5" height="125.8" x="0" y="0" maskUnits="userSpaceOnUse"><g style="filter:url(#luminosity-noclip)"><path d="M60.5 94.8c-.3-7 3-13.8 3.8-20.8l12.6.2Q74.8 85 74.2 96M39.6 60.2l-1 .9v.1h.4a48 48 0 0 0 6.5-4.6l.6-.5.2-.2.2-.2 1.2-1 .2-.2v-.3l-.2-.7L46 55l-2.2 1.9-2 1.4-.7.5-.4.3-.4.6zm-10.4-4.5-1.8.8v.1h.5l7.3-2q2.3-.4 4.4-1.2l1.1-.2.5-.1q.2 0 .3-.2l2.5-.5h.3l.2-.3.4-.7-3.4.6-4.3 1-3.7 1.1-1.3.4-.7.3-.8.5zM14.4 44.1a10 10 0 0 0-3.6.8l1-.1q1.5-.3 3.2-.1l1.6.1 1.6.4 6.5 1.3 7.9 1.4 2 .3H36l5.4.5 1-.6-6-.7a113 113 0 0 1-14-2.4l-2.4-.4-3-.3c-.4 0-2.2-.3-2.7-.2Zm2.2-6.1-3.3-.6h-.2v.1l.9.3 19.7 5.4q1 0 1.9.4l.9.2.5.1 4 1 .7.2.4-.1 1-.4-5.5-1.5-7.2-1.8-6.2-1.6-2.2-.6-1.2-.2-1.7-.3zm7.7-8-2.8-1.2h-.2q.2.3.7.5L32 35l6 3.7 1.5 1 .7.4.4.2 3.1 2.2.5.3h1.4l-4.2-3-5.7-3.7-5-3-1.9-1q-.5-.5-1-.6l-1.4-.5zM35 24.6 32.5 23l.6.5a40 40 0 0 1 7 7.4l3.6 5 1 1.3.3.6.3.3 2.5 3 .4.2h1q-1.5-1.5-3-3.5L42.8 33l-3.2-4.2-1.2-1.4-1.8-1.5zm16.3-1.5-1-2-.1-.1v.7q1.5 4 2.5 8.2l1 5.1.3 1.3v.6l.2.4.3 3.2.2.3.6.5q.1-1.9-.2-3.9l-.9-5-1-4.3-.4-1.5-.3-.8-.5-1c-.2-.2-.5-1.4-.7-1.6ZM64.5 22l1-2.2v-.2q-.3.1-.5.5l-2.3 4.2q-1.1 2.2-1.4 4.7-.7 3-.9 5.8l-.1 1.4v1.1l-.3 3.2v.4q0 .3.2.3l.6.7q.3-2 .3-4.2a63 63 0 0 1 1.5-10.2l.5-1.6.2-.9.3-1.1c0-.3.8-1.4 1-1.7Zm12.3 2.1c.6-.9 1-1.2 1.6-2.2v-.1l-.5.5Q76 24 74.4 26l-.8 1.2-.7 1-1.6 2a22 22 0 0 0-4 5l-.7 1.4-.4.6v.5a20 20 0 0 0-1.3 3.8v.3l.6.9 1.3-4.4q1.1-2.7 3-5 1.6-2 3.5-4l1-1.6.5-.9.6-1.1zm9 6.9 1.8-1.6v-.1l-.6.2A107 107 0 0 0 74.3 40l-.5.4q0 .2-.2.3L71 43.2v1.3l3-3a107 107 0 0 1 7.5-6.7l1.3-1 .7-.7.8-.9zm17.9 3 3.4-1.1.3-.1h-1q-3.6.7-6.9 2a110 110 0 0 0-16 7.5l-1 .4-.4.4-4.6 2.8-.2.4-.4 1.1a115 115 0 0 1 19-10.1l2.2-1 1.3-.5 1.6-.9zm15.9 8.2c1.9-.4 2.7-.5 4.7-.7l.3-.1h-1.4A171 171 0 0 0 94.3 46l-2.7.6-1.2.2-.8.3-5.9 1.3-.8.2-.5.3-1.1 1 8-1.8a455 455 0 0 1 19.4-4l3.2-.6 1.7-.3 2.3-.6c.6-.2 3-.4 3.7-.5Zm18.1 13.5c2.7-.1 3.8-.1 6.5-.4l.5-.1h-14.4l-6.2-.2-3.1-.1q-.8 0-1.5-.2l-1.6-.2q-7.5-1.2-15-1.4h-6.6l-10.3.3-1.7.7h11.2a163 163 0 0 1 23.8 1.6q1.7.3 3.2.2l4.5.1a38 38 0 0 0 5.6-.2zm6.1 13.1 7.4 1.3-1.9-.6a1584 1584 0 0 0-42.7-8.9l-4-.7-2-.4-1.1-.1-11-1.6-2 .4 12 2a643 643 0 0 1 33.9 6.5l2.5.5 3.5.5c.9.1 4.4 1 5.4 1.1m-20.2 8.5 4.5 1.8.3.1-1.2-.7-16.5-8.3-10-5-2.7-1.1-1.2-.5-.7-.2-7.2-2.4-1.5.2 7.8 2.8 5 2 4.8 2.4 8.4 4.2 3 1.5 1.6.8 2.2.8zm-26.8-2 1.1 1.3h.1V76a54 54 0 0 0-6-8l-.6-.8-.3-.3-.2-.1-1.8-1.8-.8.1q.8 1.2 1.8 2.1a47 47 0 0 1 4.2 5.2l.7 1 .4.4.6.5c.2.1.6.9.7 1Zm-46.5-11 .3.8h.1l.1-.2.2-3 .1-1.6.1-.4v-.3l.3-1-.2-.2-.5-.4q-.4.5-.5 1.3l-.2 1.7-.1 1.5v.9l.2.4zM54 47.9c-1 1-1.3 3-.6 4.4q1 2.2 3.5 3 2.1.6 3.9-.4c1.4-.9 1.8-2.9 1.2-4.4-1-2.4-5.8-4.7-8-2.6M72.3 59a5.5 5.5 0 0 0-.5 7.5c1.8 2 5.3 2.3 7.4.5a7 7 0 0 0 2-5.5c-.2-4-6.4-4.8-9-2.5M8.6 23.7l.2-.4v-.1h-.2q-.8.7-1.3 1.6-.5.4-.6 1l-.2.3v.2l-.3.6v.2l.3.3.3-.4.2-.4 1-1.8.2-.3.1-.2v-.2zm3.4-2.6.1-.4v-.1h-.2q-.7.7-1.2 1.5l-.5 1v.5l-.2.7.1.1.3.2.3-.7.8-1.8.1-.2.1-.2v-.3zm3.8-2.1.1-.5h-.1L14.6 20l-.5 1-.1.3v.2l-.3.6v.1l.1.1.3.2.4-.7.9-1.8.1-.2.1-.2v-.3zm3.4-1.2.1-.5H19l-1 1.4-.5 1v.3h-.1v.2l-.2.6.1.1.3.2q.3-.3.3-.7l.4-1 .5-.7.1-.2v-.4zm3.5-1.3.3-.5h-.2q-.9.5-1.5 1.4-.4.5-.5 1.1v.3l-.1.1v.9l.4.2.2-.8.3-1 .5-.8.2-.2.1-.2v-.2zm3.3-.9v-.4l-1 1.3-.4.9v.4l-.2.5v.1l.5.2.3-.6.2-.8.4-.7v-.2l.1-.2V16zm4-1.1V14l-1.1 1.5-.4 1v.4l-.2.6v.1l.3.2q.3-.3.3-.7l.8-1.6.1-.3v-.4zm2.8-.5v-.4h-.1l-1 1.4-.5 1v.4l-.2.5v.2l.4.2q.3-.3.3-.7l.4-.8q0-.5.4-.8v-.2l.2-.2v-.5Zm3.4-.7.1-.4h-.1q-.7.5-1.2 1.3l-.3 1v.4l-.1.7v.1l.4.2.2-.8.3-.9.3-.7.2-.2v-.4zm3.6-.6V12h-.1l-1.3 1.7-.6 1.1-.2.4v.2l-.2.7v.1l.1.1.4.2.3-.8.5-1q.2-.6.6-1l.2-.2V13zm3.2.8.1-.5h-.2l-1 1.3-.5.8-.1.2v.2l-.3.5.1.2.4.3.4-.6.8-1.5.1-.3.1-.1v-.2zM4.4 30.2l.1.3h.1l.2-1.4-.1-.9V28l-.1-.1v-.5H4v-.1 1.4l.1.7v.4l.2.1zM2 32.5l.2.4v-.1l.4-2.3v-.3l.1-.6-.2-.3q-.4.3-.4.7l-.1.8-.2.8v.4l.2.2zM.6 35.4l.2.3H1v-3.1l-.2-.3-.4.6v2l.2.2zM46 13.1l.2-.4H46q-.6.4-1.1 1.2l-.5.9v.2l-.1.1v.1l-.2.5.1.2.5.2.3-.6.7-1.5.2-.2v-.4zm2.8-1.1.3-.5h-.2q-.8.7-1.5 1.7-.4.6-.4 1.2l-.1.3v.2l-.2.8v.1h.2q0 .2.3.3l.3-1 .8-2 .2-.2v-.5zm3.5 0v-.6h-.1l-1.1 2-.8 1.1-.1.3-.1.2v.1l-.2.9v.1h.6v-.3l.1-.4.7-1q.2-.6.6-1 0-.3.2-.4v-.6zm1.7.2.1-.6h-.2q-.6.9-1 1.9l-.4 1.3v.3l-.1.1v.9l.1.1.4.2.1-1 .6-2 .1-.4v-.4zm2.8.3.1-.5v-.1h-.2l-1.2 1.8-.4 1.2-.1.3v.2l-.3.8v.2h.6v-.2l.2-.4.4-1.2.5-1 .1-.2.1-.2v-.3zm1.7.6v-.4h-.1l-1 2.6-.1.3v.2l-.2.5v.1l.3.3q.3-.3.4-.7l.6-1.8v-.3l.1-.1zm2.9 0 .2-.4v-.1h-.2l-1.3 1.5-.4 1v.6l-.1.6v.2l.4.2.2-.8.8-1.8.1-.3.1-.1v-.3zm2 1.3.1-.4h-.1l-1 1.2-.3.8v.3H62v.1l-.1.5v.1l.2.2.3-.6.4-.7q0-.4.3-.7l.2-.2v-.3zm4.2-1.2.1-.6h-.2l-1.3 2.1-.7 1.2-.2.3v.2l-.5 1 .2.4q.6-.3.8-.8l.8-1.3.6-1 .2-.4.1-.3v-.3zm2.3 1.8.1-.4h-.1q-.8.6-1.3 1.3l-.5 1-.1.3v.2l-.2.6v.1l.4.3.4-.7.9-1.7.1-.2v-.5zm2.6.5V15h-.1l-1 1.5-.5 1-.1.2v.2l-.3.5v.2l.4.3q.2 0 .3-.3l.2-.3.8-1.8.2-.2v-.5zm2.8.2v-.5L74 16.7l-.5 1-.1.3-.1.1v.1l-.2.6v.1l.4.3q.3-.2.4-.7l1-1.8.1-.2.1-.2V16zm3.3.7.1-.5h-.2l-1.8 2.7-.1.3v.2l-.4.6v.2l.3.2.5-.7 1.1-1.8.2-.3V17l.1-.3zm2.6 1.1.1-.5h-.1q-.8.6-1.3 1.3l-.6 1-.1.2v.2l-.4.5.1.2.3.3.5-.7 1-1.6.2-.2.1-.1v-.3zm3 1.3.1-.4h-.1l-1.3 1q-.4.3-.6.7l-.2.2v.2l-.4.4v.2l.3.3q.4 0 .6-.4l.6-.8.5-.5.2-.2v-.2l.1-.2zm3.4.2.2-.6h-.2l-2.3 2.3-.2.2-.1.2-.5.4v.2l.1.4q.6-.1.8-.5l.9-.9.7-.7.2-.3.1-.1v-.3zm2.6 1.2.3-.4v-.1h-.2l-1.5 1.1-.7.9-.1.2v.2l-.4.5v.2l.2.3.5-.6.7-.8.6-.6.3-.2v-.2l.1-.2zm3.1.5.3-.5h-.2q-.9.5-1.6 1.2l-.7 1-.2.3v.2l-.4.6v.2l.4.3q.4-.2.6-.6.2-.6.6-1l.6-.7.3-.3v-.1l.1-.3zm2.7.7.2-.5H96l-2 2.4-.1.2-.1.1v.1l-.4.6v.2l.4.3q.4-.2.5-.6l.6-1 .6-.8.2-.2.1-.2v-.3zm2.2.6.2-.5v-.1h-.2a9 9 0 0 0-2 3l-.2.3v.2l-.3.7v.2l.4.3.5-.9 1-2 .3-.3v-.5zm3 1.2.3-.5h-.2L99.6 24l-.8 1-.2.4v.2l-.4.7.1.2.3.3.5-.8 1.3-1.8.3-.3.1-.2v-.2zm3.5 2.3.2-.4h-.2l-1.5.9-.7.6-.2.2h-.1v.1l-.5.3v.2l.2.5.7-.4.7-.6.7-.5.3-.2V26l.2-.2zm3.7.7.3-.5h-.2l-1.7 1-.8.8-.2.2-.1.1-.5.5v.2l.2.5q.4-.1.7-.5l.8-.8.8-.6.3-.2v-.2l.2-.2zm2.1 1.6.2-.4v-.1h-.1q-1 .3-1.6.9l-.8.8q0 .2-.2.2v.2l-.4.5v.3q.3 0 .3.3.5-.2.6-.6l1.3-1.3q0-.2.2-.2l.1-.1V28zm3.4 1q0-.3.2-.5h-.2l-2.4 2-.2.1v.2l-.5.5v.2l.2.4q.4-.1.6-.5l.8-.9.7-.6q.2 0 .3-.2l.1-.2V29zm3.1 1 .5-.4h-.2q-1.1.2-2.1.7l-1.2.8-.2.2-.2.1v.1l-.5.5v.6l.8-.6a6 6 0 0 1 2-1.3l.3-.1.2-.1.2-.3zm1.7 1.8.4-.4h-.2l-1.8.6-1 .6-.2.2h-.1v.1l-.6.4v.2l.1.4q.4-.1.7-.4l1-.6.8-.5.3-.1h.1q0-.2.2-.3zm3.1 1.4.5-.3v-.1h-.2q-1 0-2.1.4l-1.2.5-.3.2h-.1v.1l-.7.3v.2l-.2.3q.6.1 1-.2l1.1-.5 1-.4h.4l.2-.2.2-.2zm1.9.9.3-.3-.1-.1q-1 .1-1.8.6-.6.2-1 .6l-.2.2-.1.1v.1l-.5.3v.2l-.2.3h.6l.4-.2 1.7-1.1.2-.2h.2l.1-.3zm3 .8.4-.4h-.1l-2 .7-1 .7-.3.2v.1l-.1.1-.5.4v.6q.3.2.6-.1l.3-.3 1.8-1.2.3-.2.1-.1.2-.3zm3.2 1.7.4-.5h-.2l-2.2.7-1.3.6-.3.1-.1.1-.1.1-.7.4v.7l1-.5 2.2-1 .4-.1.2-.1.2-.3zm1.8 1.6q.2-.1.3-.4h-.2l-1.7.8-1 .6-.2.1h-.2v.2l-.6.3v.6q.5 0 .9-.2l1-.6.8-.5q.2 0 .3-.2l.2-.1v-.3zm2.3 1.2.3-.4v-.1h-.1l-1.7 1-1 .7-.1.1-.1.1v.1l-.6.4v.1q0 .3-.2.2l.2.2h.5l.4-.3.9-.7.8-.5.2-.2.2-.2v-.2zm3.4 1.8.4-.5h-.2l-1.9.6-1 .7-.2.1v.1l-.1.1-.6.5v.1l.2.4.5-.1.3-.3 1.7-1q0-.2.3-.2l.1-.1.2-.3zm2.1 1.7.3-.3v-.1h-.1l-1.7.8q-.5.1-.8.6l-.2.2h-.1v.1l-.6.5v.1l.2.4q.4-.1.7-.4l.8-.7.7-.5.3-.1.1-.1.1-.3zm2.2.9.4-.3-.2-.1q-.9.2-1.8.7-.6.2-1 .6l-.2.2-.2.1v.1l-.5.5v.2l.2.3q.4 0 .7-.4l1.7-1.2.3-.1.1-.1.2-.3zm1.7 2.4.3-.3h-.1q-.8 0-1.7.3l-1 .3-.1.1h-.1v.1l-.6.2v.6h.4l.3-.1 1-.4.7-.2.3-.1.1-.1.2-.2zm1.9 1.5.4-.3-.2-.1-2.4.8-.2.1h-.1v.1l-.5.2v.1q0 .3-.3.4h.9l.9-.5.7-.3.3-.1h.1l.2-.3zm4.3 1.1.6-.2v-.1h-.1q-1.5 0-2.6.3-.8.1-1.6.5l-.3.1-.2.1v.1l-1 .4v.6q.6 0 1.1-.4l1.4-.5 1.2-.3.5-.2h.2l.3-.2zm-.3 2.6.3-.3v-.1h-.2l-1.4.2-.8.4h-.2l-.1.1-.5.3v.6h.7l.8-.4.6-.3h.3l.1-.2.1-.2zm2 .8.4-.3q0-.2-.2 0-1 0-1.7.4l-1 .5-.2.2h-.1v.2q-.3 0-.5.3v.5l.2.1h.3q.2 0 .4-.3l1.6-.9.3-.1.1-.1.1-.3zm1.6 1.3.2-.4h-.2l-1.6.8-.8.7-.2.2h-.1v.1l-.5.5v.1l.1.4q.5 0 .7-.4l.9-.6.7-.5.3-.2.1-.1.1-.3zm2 1.6.2-.5h-.2l-1.6 1.3-1 .7-.2.2h-.1v.1l-.6.4v.6l.9-.3 1-.8.8-.6.3-.3.1-.2.1-.2zm.5 2.4.2-.5h-.2l-1.4 1.1-.8.7-.2.1v.1h-.1l-.5.4v.6q.6 0 .8-.3l.9-.7.7-.6q0-.2.2-.2l.1-.2v-.3zm.9 1.5.2-.5h-.2l-1.4 1.2q-.4.4-.6.9l-.2.2v.1l-.4.4v.2l-.2.3q.7 0 1-.4l.6-.8.7-.7.2-.2v-.1l.1-.3zm1.1 1.6.1-.5h-.2l-1 1.7-.6.9-.2.2v.1l-.5.3v.2l-.1.4q.5 0 1-.3l.7-1 .5-.9.2-.3v-.4zm.8 3.1V63h-.1l-1.2 1-.7.7-.2.1v.2q-.2 0-.5.3v.5q.6 0 .8-.3.4-.2.7-.6l.7-.5.2-.2v-.4zm.5 2.6.1-.3h-.2l-1 1-.4.4h-.1v.1h-.1l-.3.1-.1.2-.2.3q.3.3.8.1l.7-.5.5-.6.1-.2.1-.1v-.2zm1 1.9.2-.3v-.1h-.2l-1.2.8-.8.5h-.2v.1h-.1l-.4.3h-.1v.4l.6-.2 1.6-.8.2-.1.1-.1.1-.2zm-1.1 2 .1-.2q0-.1-.1 0l-1 .5-.5.4-.2.2v.1l-.2.1v.2l-.1.4h.4l.3-.2.5-.5.4-.3.2-.2v-.2zM13.4 32.2l-3-.5h-.2l.8.4q5.4 1.6 10.7 3.4l6.4 2.2 1.6.6.8.3h.4l3.5 1.4.5.2h.4l1-.3q-2.3-1.1-4.7-2l-6.2-2.2L20 34l-2-.6-1-.3-1.4-.2c-.4 0-1.8-.5-2.2-.6ZM19.2 50l-2 .5H17q.2.3.6.1 3.9 0 7.8.4a42 42 0 0 0 6 .2h.9q1.4 0 2.7-.3h.4l.2-.2.4-.8-3.4.3A43 43 0 0 1 24 50l-1.4-.1h-.8q-.6 0-1 .2h-1.6ZM5.4 39.5H3.8l-.1.1q.1.3.4.2l9.7 1.5 1 .1h.6l2 .3h.3l.2-.2.5-.5q-1.3-.4-2.7-.4l-3.5-.4-3-.4-1.2-.2H5.4M40 21.7l-1.4-1.3-.2-.1q0 .3.3.5 2.3 3 4.3 6l2.6 3.8.6 1 .2.4.2.2 1.2 2.2.3.3.2.1.8.2q-.6-1.5-1.6-3L43 25l-.8-1-.5-.6-.7-.6c-.3-.2-.8-1-1-1.2Zm-13.5 2.1-2-1.1.5.3a49 49 0 0 1 6.8 4.8q2 1.6 3.7 3.4l1 1 .3.4.3.2 1.8 2q0 .3.3.4l.2.1.6.3q-1-1.5-2.4-2.9L34 29.3l-3.3-2.7-1.2-.9-.7-.4-1-.6zm-16.3 4.6-1-.2H9l.3.2 4 1.2 2.4.8.6.3h.2l.2.1 1.5.6h.4q-.7-.5-1.7-.8l-4.2-1.7q-.4 0-.7-.2l-.4-.1H11zm9.2-3.9-1.3-.3.2.1a72 72 0 0 1 7.7 3.3l.8.4.3.2h.2l1.5.8.3.1h.5l-1-.6-1-.5-2.7-1.4-2.5-1-.8-.4-.5-.2-.7-.1zm39-3q.2-.6 0-1.2v.3q-.2 1-.8 2-.3 1.4-.1 2.4v1.3l-.3 1.3-.2.7v.6l.1 1.7.1.1.2.3v-2q.1-1.2.6-2.5v-4.1zm-11.9 1.9-.6-.5v.2q.8 1 1.5 2.4l.8 1.5.2.4v.1l.1.1.4.9.2.1.3.1-.3-1.2-.8-1.5-.7-1.2-.3-.5-.2-.2-.3-.2zm24.8-1.2L72 21v-.1l-.3.3-3.1 4.9-1.8 3-.4.8-.2.3-.1.2-1 1.7v.9l1.4-2.2 1.6-2.9 1.6-2.5.5-.9.3-.5.2-.6c0-.2.5-.9.6-1m13.2 2.8 1.5-1.1-.5.1q-3 1.7-5.4 4.2c-1 1-2 2-2.8 3.1l-.6.9-.3.3-.2.3-1.3 1.8-.2.3v.2l-.1.6 2-2.4a62 62 0 0 1 4.8-5.6l1-.8.4-.4.6-.6zm12.1 4.9 1.8-1h.1l-.6.1a40 40 0 0 0-12 6.9l-.4.3q0 .2-.2.3L83 39l-.2.5 2.7-2.3a46 46 0 0 1 7-4.8l1.2-.7.6-.3.9-.6zm17.4 6.3 2.3-.4h.2-.7a40 40 0 0 0-15.8 4l-.6.3-.3.2-2.8 1.3-.4.2-.2.2-.6.4 4-1.5a102 102 0 0 1 9.4-3.3l1.6-.4.9-.3 1-.3zm13.4 9.1h3.5v-.1l-1-.1a74 74 0 0 0-20.2 1.7l-1.9.4-.8.1-.6.2-4 .8-1 .4-.8.4 5.6-1a161 161 0 0 1 13.5-2.2l2.3-.2h1.2l1.6-.3zm8.9 5.6h2.7l-.7-.1a156 156 0 0 0-15.6-.6l-2.1.2h-.4l-3.2.4-.5.1-.3.1-.6.5 4.3-.5a65 65 0 0 1 10.5-.2h3.9zm7.5 12.4 4.9 1.1h.3l-1.3-.4a129 129 0 0 0-19-3.9l-11.4-1.5-3-.4-1.3-.1-.8-.1-7.3-.7h-.6l-1.3.3a525 525 0 0 1 29.3 3.6l3.4.5 1.8.4c.7 0 1.8.3 2.5.4.6 0 3.1.6 3.8.8m3.2-2.8 1.5.2h.1l-.4-.2a47 47 0 0 0-8.7-1.8h-1.4l-1.9-.2h-.4l-.4.3 2.5.2 5.9 1 1 .1.5.1h.7zm.3 12.4 1.3.4h.1l-.3-.3a87 87 0 0 0-9.3-2.8h-.2l-1.7-.4h-.4l-.4.2 2.3.6 5.5 1.5 1 .3h.4l.7.2zm-13.2 3.1c1.5.6 2 1 3.5 1.7h.3l-1-.5-6.6-3.4a184 184 0 0 0-17.5-7.2l-1-.4-.5-.2-4.6-1.8-.7-.3h-.5l-1-.2q2.9 1.4 6.2 2.6l4 1.5 4.1 1.6 7 2.9 2.5 1 1.3.6 1.8.8zm9.6 1.2 2 1 .2.1-.5-.4-3.9-2.4-4-2.2-5-2.4-1.2-.6-.6-.2-.4-.1-4.2-1.4 3.7 1.8 4.9 2.2 4 2 1.5.8.8.4 1 .5zm-9.9 2.4 1.3.7h.1l-.3-.2a40 40 0 0 0-8.8-5.3l-.4-.2h-.2l-1.8-.8h-.9l2.4 1a50 50 0 0 1 5.6 3l.9.5.4.3.7.3c.2 0 .8.5 1 .6Zm-20-2.4 2 1.2-.4-.4a90 90 0 0 0-11.8-7.6l-1.1-.7-.6-.3-.3-.1-3-1.5h-1l3.4 2a96 96 0 0 1 8.3 4.7l1.3.8.7.4 1 .5zm-9.3-1.3.9.3-.2-.2-2.7-2.1-2.3-1.9h-.1l-1-.7h-.6q.5.6 1.2 1l1.6 1.3 1.3 1.2.5.4.3.2.5.1z"/><path d="M62.7 51H64l.1-.1-.4-.2a40 40 0 0 0-8.2-.2l-.8.1h-.3l-.2.1-2 .5-.4.3q1.1.1 2.3-.2a36 36 0 0 1 5.5-.2H61l.6-.1z" class="cls-4"/><path d="m58.6 56 .7 1.2V57l-1.2-4.7-.7-2.9-.2-.7-.1-.3-.1-.2-.6-1.6v-.2h-.2l-.5-.3.6 2.1.7 2.8.6 2.4.2.8.1.5.4.6zm16.1 12.2.3 1.4.2-.3q0-2.7.3-5.3 0-1.6.3-3.2V60l.2-.4v-.2l.3-1.8v-.4l-.2-.4-.7 2.3-.6 3q0 1.5-.3 2.8v1.5l.2.7z" class="cls-4"/><path d="m83 63.6 1.9.1h.1l-.5-.2a65 65 0 0 0-11-1.5H69l-.5.4q1.5.3 3.1.3l7.4.6 1.3.1h1.6z" class="cls-4"/></g></mask></defs><g id="Layer_1_copy" style="mask:url(#mask)"><path d="M46.9.3a48 48 0 0 0-30.7 11.3A57 57 0 0 0 2.8 27.2a19 19 0 0 0-2.8 8c-.2 2.8.8 5.9 3.1 7.5l1.9 1c33.8 15.8 71.7 20 107.7 30.2 6.5 1.8 13.2 4 20 4.2h6.8c6.5-.3 13.6-1 18.2-5.6 3.8-4 4.7-9.8 5.5-15.2.3-2.6.6-5.2-.1-7.6a51 51 0 0 0-12-20C137.3 15.4 117 9.4 98.4 5.3 85.6 2.5 72.7.3 59.6 0Q53.2 0 47 .3" class="cls-5"/><path d="M146.2 51.9q-6.3-5.7-13.9-9.6a218 218 0 0 0-47.2-20c-20-5.8-41.3-8.6-61.4-3.4-8.7 2.4-17.6 6.7-22 14.6-1.4 2.4-2.3 5.5-.9 8l1 1.2c3.5 4 8.2 6.9 12.8 9.4A275 275 0 0 0 101 78.9q12 2 24.3 3a69 69 0 0 0 21.3-1.7c3.4-1 6.8-2.5 8.8-5.4 4.7-6.8-4.5-18.4-9.2-23" class="cls-5"/><path d="m17.2 119.9-3.3 1.4c-1 .4-2.4 1-2.5 2.2 0 1.2 1.4 2 2.6 2.2 3.7.6 7-1.2 10.3-2.4a76 76 0 0 1 13.8-3.3c1.2.3 1.7 1.6 2.6 2.4 1.2 1.2 3.2 1.2 4.8.6s3-1.7 4.5-2.5a16 16 0 0 1 14.8-.2q1.2.8 2.3.6l1.2-.9c2-1.8 5.2-2.3 7.7-1.3 1.4.6 3 1.6 4.3 1l1.3-.9c2.2-1.7 5.2-2 8-1.3 2.6.6 5 2 7.6 3q5.4 2.5 11.3 4 1 .3 2 0 1.2-.5 1-1.5c-.2-.7-1.3-1.1-1.1-1.9.1-.6 1-.7 1.6-.6l7.5 1q.8 0 1.3-.2c.6-.6 0-1.5-.5-2-4.2-4.2-10.2-5.4-15.5-7.5-2.3-.9-5.7-2.1-7.1-4.3s-2.4-5.2-3-7.8c-1.5-5.9-1.9-12-3-18L88 61.8a22 22 0 0 0-9.8-14.4c-3.7-2.4-8-3.5-12.4-4.4a36 36 0 0 0-19.4 0 8 8 0 0 0-3.7 2.4c-2.7 3.8 3.3 6 5.3 8.3a22 22 0 0 1 5.8 11.7c.8 5.9-1.1 11.8-3.5 17.3a60 60 0 0 1-16 22.7c-1.6 1.3-2.9 2.2-4.2 3.9a36 36 0 0 1-13 10.6Z" class="cls-5"/><path d="M57.6 102q-.7-.3-1.6-.4l-3.6-.3h-7.7l-1.6-.1h-1.6L40 101h-3.8q-2.3 0-4.4.2l-3.2.1H26l-3.5.5c-.7.1-2 0-2.2 1.2 0 .9 1 .7 1.3.7l1.4.2 2.9.1q6.8 0 13.7-.6h5.7l5.5-.3 3.5-.2q1 0 1.7-.4zm-37.6.8.3-.8.5-1.7.3-1.6.4-2.2.2-.8.1-.8.2-.6q0-1 .3-2l.3-2.1.2-1.6.2-1.3v-1.8c0-.3.2-1-.3-1.1s-.4.4-.4.5l-.2.7-.4 1.4-.9 6.8q-.1 1.5-.4 2.9l-.3 2.7q0 1-.3 1.7v1zm2.7-18.7q.8.4 1.4.3l3 .3h9.3l1.2.2 3.2-.1 3.7-.1 2.8-.1h2.2l3-.5c.5-.1 1.6-.2 1.8-.8 0-.5-.8-.5-1-.5l-1.3-.2-2.4-.1c-3.9-.2-7.8.2-11.7.4h-4.8q-2.4 0-4.6.3l-3 .2-1.5.2zm50 19.1q.7.3 1.6.3l3.4.3h7.2l1.4.2H88l1.3.2H97l3-.1h2.6l3.3-.6c.6-.2 2 0 2-1.4 0-.8-1-.6-1.3-.6h-1.3l-2.7-.1q-6.5 0-12.9.4l-5.4-.1-5.2.3-3.3.2q-.8 0-1.7.3-.7.5-1.3.7Z" class="cls-3"/><path d="m107.4 102 .1-.6.2-1.4v-1.3l.2-2.4v-.6l.2-.6.1-1.5.3-1.7.2-1.3.2-1v-1.4c.1-.2.3-.7-.2-1q-.5.1-.5.5l-.2.5-.4 1.1q-.6 2.8-.7 5.5l-.2 2.4.1 2.2v1.4l.3.7z" class="cls-3"/><path d="M109 87.7q-.7-.5-1.4-.6-1.5-.5-2.8-.7l-2.6-.4-3.7-.6-1.2-.3-1.4-.2-1-.3-3.2-.4-3.6-.4-2.6-.2-2.1-.3h-3c-.5 0-1.6 0-1.8.6-.2.4.7.5 1 .6l1 .3 2.4.5a51 51 0 0 0 11.2 1.4q2.2.2 4.6.7l4.5.3 2.9.3h1.4c.5 0 1-.4 1.3-.3M28 102l.2-.8q0-.9.3-1.7V98l.2-2.1.1-.8v-.7l.2-.7V92l.2-2v-1.6l.1-1.2-.1-1.7c0-.3.1-1-.5-1-.4-.1-.4.4-.4.5l-.1.7L28 87q-.3 3.3-.2 6.5l-.2 2.8v4.2l.1.8zm7.2-.5.3-.7.3-1.7.2-1.5.3-2.1.1-.8.1-.8.2-.6.1-1.8.2-2.1.1-1.5.2-1.3V85c0-.3.1-.9-.5-1q-.5 0-.4.5l-.2.7-.2 1.3q-.5 3.3-.5 6.5 0 1.5-.3 2.8l-.1 2.6-.2 1.6.1.9zm7.8.9q.3-.4.2-.9l.2-1.8V98l.4-3v-.9l.2-.7.2-2 .1-2.1.1-1.7.1-1.3v-1.8l-.1-.8-.6-1.3-.1 1q0 .3.2.5h.4l-.7-.3v.3l-.2.8-.2 1.4q-.4 3.5-.3 7 0 1.5-.3 2.9v4.6l.2 1 .3.7Zm5.1 1.2.1-1 .3-1.9.2-1.7.5-2.4.2-.8.2-.9.3-.7.7-4.6v-3.3l-.1-1.8c0-.4.3-.9-.2-1.2-.3-.3-.6.3-.6.5l-.3.8v1.7a30 30 0 0 1-.6 7.4l-.8 3q-.3 1.5-.3 3.1l-.1 2 .2 1zm5.6-1.8.3-.9.5-1.8.3-1.5.3-2.4.2-.7.2-.9.2-.7.2-2 .3-2.2.3-1.6.2-1.3V84c0-.4.2-1-.4-1.2-.4-.2-.4.4-.4.5l-.2.8-.3 1.4q-.7 3.5-.9 7-.1 1.5-.5 3l-.2 2.7-.3 1.8v1z" class="cls-3"/><path d="M77.5 104.7q.3-.4.2-1l.4-2 .1-1.7q0-1.3.3-2.6l.2-.8.2-1 .2-.7.3-2.2.2-2.5v-3.4q0-1-.3-2c-.1-.4-.2-1.2-.8-1.1q-.5.2-.2.7v2.4q0 3.7-.4 7.6-.1 1.7-.5 3.3l-.1 1.5v1.6l-.1 2v1zm5.8-2.8.3-.7.5-1.6.2-1.4.4-2 .1-.7.2-.7.1-.6.2-1.8.2-2 .2-1.4.1-1.2v-1.6c-.1-.3 0-.9-.6-1q-.5.2-.4.5l-.1.7-.2 1.3q-.4 3-.5 6.1l-.4 2.6-.3 2.4-.2 1.6v.8l.1.7Zm5.3 2.2.2-.9.4-1.7.1-1.6.3-2.3.1-.7.1-.8.2-.7.2-2 .3-2 .1-1.7.3-1.3v-1.7c0-.4.2-1-.4-1.2-.4-.1-.4.4-.5.5l-.1.7-.4 1.4q-.5 3.4-.7 7l-.3 2.8-.1 2.7-.1 1.8v.9zm6.2-.8.3-.7.3-1.8.2-1.4.3-2.2.1-.7.2-.8.1-.7.3-1.8.2-2 .2-1.6.3-1.2v-1.7c0-.3.3-1-.3-1.1-.4-.2-.5.3-.5.5l-.2.7-.3 1.3q-.7 3.3-.8 6.6l-.4 2.7-.2 2.6-.1 1.7v.9zm6.1 1.9.3-.9.4-1.8.2-1.5.3-2.4.2-.7.1-.9.2-.7.2-2 .2-2.2.2-1.6.2-1.3v-1.8c0-.4.2-1-.4-1.2-.5-.1-.5.4-.5.6l-.2.7-.2 1.4q-.5 3.6-.7 7 0 1.5-.4 3l-.2 2.7-.1 1.8v1zm-70 5.6-.4-.5-1-1-1-.6-1.3-1-.5-.4-.4-.4-.4-.4-1.2-.8-1.2-1-1-.7-.7-.7-1.2-.6c-.2-.2-.5-.6-1-.1q-.3.5.2.6l.3.4a18 18 0 0 0 5 3.8l1.7 1.3 1.7 1 1.1.7.6.3zm65 2.1.6-.4 1.3-.8 1-1q.8-.5 1.5-1.2l.6-.4.5-.4.5-.3 1.3-1.2 1.3-1.2 1-1 1-.6 1-1.2c0-.2.6-.5.2-1-.2-.4-.5 0-.6 0l-.5.4-1 .7q-2.4 1.8-4.3 4l-1.9 1.6-1.6 1.7-1.1 1-.5.6zM71 102.7l-.6-.3-1.3-.3-1-.1-1.7-.1H66l-.6-.1-.5-.1h-1.3l-1.5-.3-1.3-.1h-.6l-.6.5a2 2 0 0 0-.6 1.4v.6q.1.4.5.3t.3-.4l.2-.4.3-.3.2-.2.2-.2h4l2 .3 1.9.1h1.9zm-1 3.6-.7-.3-1.3-.4-1.2-.2-1.7-.2h-.6l-.7-.1-.5-.2h-1.5l-1.6-.2h-1.8l-.2-.1h-.4q-.6 0-1 .5l-.2.6v.4c0 .3-.3.8.4 1l.5-.1v-.3l.3-.5q0-.3.1-.1h.5l.7.1 1.3.1H63l2.2.3 2.1.1 1.4.1.6-.1zm-.8 3.2-.7-.3-1.6-.6-1.4-.1-2.7-.4h-.7l-.6-.2h-6.3l-.5.2-.4.7v.5l-.2.9c0 .3-.2.9.5 1h.4l.1-.4.7-1.3h.8l1.5.1h3l2.6.4h4.7l.7-.5Zm-1.9 4.1-.8-.4-1.8-.5-1.5-.2-2.2-.3-.8-.2-.8-.1-.7-.2h-1.9l-2.1-.1-1.6-.1h-.9l-.3-.1-.4.1-.5.5q-.3.8-.2 1.2v.8c0 .4-.2 1 .6 1.3.4.1.5-.4.6-.5l.3-.7.2-.7.2-.5-.1-.2h.3l.4.1 5 .5 2.9.5 2.7.1 1.7.1h.9q.3-.4.8-.4" class="cls-3"/></g></svg>