<?xml version="1.0" encoding="UTF-8"?><svg id="Layer_2" xmlns="http://www.w3.org/2000/svg" xmlns:xlink="http://www.w3.org/1999/xlink" viewBox="0 0 163.52 125.81"><defs><style>.cls-1{mask:url(#mask);}.cls-2{filter:url(#luminosity-noclip);}.cls-3{fill:#ebc434;}.cls-4{fill:#fff;}.cls-5{fill:#e8bc16;}</style><filter id="luminosity-noclip" x="0" y="0" width="163.52" height="125.81" color-interpolation-filters="sRGB" filterUnits="userSpaceOnUse"><feFlood flood-color="#fff" result="bg"/><feBlend in="SourceGraphic" in2="bg"/></filter><mask id="mask" x="0" y="0" width="163.52" height="125.81" maskUnits="userSpaceOnUse"><g class="cls-2"><path d="M60.5,94.79c-.28-7.07,2.92-13.79,3.84-20.8,4.44.07,8.12.14,12.56.21-1.38,7.21-2.29,14.51-2.72,21.84"/><path d="M39.55,60.19c-.38.37-.52.5-.92.9-.03.03-.06.06-.05.09,0,.02.02.03.04.04.11.03.24-.03.36-.1,1.44-.8,2.82-1.7,4.18-2.65.81-.57,1.61-1.16,2.33-1.85.18-.17.36-.35.57-.49.1-.07.2-.12.27-.22.05-.07.04-.12.12-.18.43-.34.84-.69,1.25-1.06.06-.06.13-.12.16-.19.03-.08.01-.16,0-.23l-.19-.7c-.61.36-1.14.89-1.69,1.38-.7.64-1.44,1.24-2.18,1.83-.65.51-1.3,1.03-1.99,1.47-.33.21-.38.31-.71.52-.13.09-.27.18-.36.3-.12.14-.31.38-.39.53-.09.15-.67.47-.79.6Z"/><path d="M29.24,55.73c-.74.33-1.03.46-1.81.81-.05.03-.11.06-.12.09,0,.02.02.03.04.04.13.05.36,0,.56-.05,2.45-.62,4.89-1.29,7.32-1.98,1.46-.39,2.93-.76,4.38-1.2.36-.11.74-.22,1.12-.28.18-.03.34-.05.52-.11.12-.04.14-.1.29-.13.82-.16,1.63-.32,2.44-.48.12-.02.26-.05.35-.1.11-.06.15-.13.19-.21l.41-.72c-1.11.03-2.26.3-3.38.58-1.43.35-2.87.7-4.3,1.09-1.23.35-2.45.69-3.71,1.04-.59.16-.72.25-1.3.41-.24.07-.48.14-.69.24-.25.12-.66.34-.87.48-.21.14-1.21.38-1.46.49Z"/><path d="M14.44,44.1c-1.42.11-2.07.17-3.43.67-.1.04-.21.09-.23.12-.01.02.02.03.06.04.2.02.59-.08.94-.14,1.07-.2,2.16-.21,3.24-.13.54.04,1.08.11,1.62.18l1.61.33c2.15.43,4.3.84,6.47,1.31,2.6.54,5.21,1.11,7.85,1.41.66.08,1.35.16,2.01.27.32.06.6.11.92.13.23.01.28-.03.55,0,1.44.2,2.89.37,4.34.51.22.02.45.04.64.03.21-.02.32-.07.42-.13l.99-.55c-1.87-.33-3.9-.5-5.87-.72-2.54-.29-5.07-.65-7.58-1.11-2.19-.42-4.37-.84-6.54-1.31-1.04-.21-1.31-.21-2.35-.42-.42-.08-.85-.16-1.26-.2-.48-.04-1.28-.1-1.71-.1-.42-.04-2.21-.25-2.7-.21Z"/><path d="M16.61,38.05c-1.33-.25-1.89-.35-3.26-.6-.1-.02-.21-.03-.25-.01-.02.01,0,.04.03.06.15.13.53.24.86.34,4.07,1.18,8.16,2.33,12.27,3.44,2.46.67,4.95,1.32,7.44,1.87.63.14,1.27.27,1.89.46.3.09.56.17.87.22.22.04.28,0,.53.07l4.07,1.04c.21.05.43.1.61.12.2.01.31-.03.42-.07l1.03-.4c-1.74-.61-3.66-1.04-5.53-1.48-2.4-.59-4.8-1.18-7.19-1.76-2.08-.52-4.17-1.04-6.23-1.63-.97-.28-1.24-.3-2.21-.57-.39-.11-.8-.22-1.19-.28-.46-.07-1.22-.18-1.64-.22-.42-.03-2.05-.53-2.5-.61Z"/><path d="M24.33,29.98c-1.14-.49-1.63-.71-2.8-1.18-.08-.03-.18-.07-.22-.05-.02,0-.01.04,0,.06.11.15.42.33.69.48,3.39,1.86,6.74,3.81,10.04,5.84,1.98,1.22,3.96,2.47,5.95,3.66.5.3,1.02.61,1.49.95.23.17.43.32.67.46.18.1.24.08.44.21l3.15,2.18c.16.11.33.23.48.3.17.07.28.07.38.07l1.04-.05c-1.27-1.11-2.78-2.1-4.25-3.06-1.9-1.23-3.8-2.45-5.73-3.64-1.68-1.02-3.35-2.03-5.04-3.06-.79-.48-1.02-.56-1.82-1.03-.32-.19-.66-.38-.99-.52-.39-.16-1.04-.43-1.41-.54-.36-.12-1.71-.92-2.1-1.08Z"/><path d="M35,24.55c-.9-.64-1.3-.91-2.27-1.47-.07-.04-.15-.08-.19-.07-.02,0-.02.03,0,.06.07.16.31.36.53.53,2.68,2.12,4.93,4.7,6.99,7.43,1.22,1.66,2.43,3.31,3.65,4.98.31.41.64.84.91,1.28.13.21.24.41.41.6.12.14.18.14.3.32.64.94,1.32,1.88,2.12,2.73.12.13.26.26.38.35.14.09.25.1.35.1.33.01.65.01.96,0-.99-1.03-1.98-2.2-2.89-3.45-1.16-1.63-2.32-3.26-3.48-4.88-1.03-1.41-2.1-2.8-3.18-4.17-.51-.65-.69-.77-1.23-1.41-.22-.25-.46-.5-.7-.71-.28-.25-.8-.62-1.08-.81-.29-.19-1.26-1.18-1.58-1.39Z"/><path d="M51.33,23.14c-.42-.83-.59-1.2-1.05-2.02-.03-.06-.07-.13-.11-.13-.02,0-.03.02-.04.05-.03.15.05.4.13.62.97,2.71,1.77,5.48,2.42,8.28.39,1.68.71,3.38,1.07,5.07.08.42.18.86.22,1.3.01.21.02.4.07.6.04.14.09.17.11.35.1.94.19,1.88.27,2.83,0,.14.02.3.06.41.05.13.12.19.18.25l.68.57c.09-1.26-.07-2.61-.26-3.92-.24-1.68-.52-3.35-.87-5.01-.3-1.44-.66-2.88-1-4.3-.17-.67-.25-.84-.44-1.5-.08-.27-.16-.55-.27-.79-.14-.29-.38-.76-.54-1-.16-.24-.48-1.37-.63-1.65Z"/><path d="M64.51,22.09c.41-.93.62-1.34.94-2.33.02-.07.04-.16.02-.19-.01-.02-.04,0-.06,0-.13.09-.26.35-.38.58-.73,1.4-1.7,2.66-2.37,4.16-.64,1.53-1.04,3.06-1.41,4.64-.43,1.89-.72,3.82-.84,5.74-.03.48-.05.98-.12,1.46-.03.23-.07.44-.06.67,0,.17.05.21.03.4-.09,1.05-.17,2.1-.23,3.15,0,.16-.02.33,0,.47.03.15.09.23.15.3l.6.71c.24-1.36.28-2.84.36-4.27.1-1.84.27-3.68.53-5.49.22-1.58.51-3.16.95-4.68.22-.72.22-.91.46-1.63.09-.29.19-.57.25-.84.07-.32.23-.86.3-1.16.06-.31.75-1.38.89-1.7Z"/><path d="M76.78,24.14c.66-.89.99-1.26,1.62-2.19.05-.07.1-.15.09-.18,0-.02-.03-.02-.06,0-.16.06-.38.29-.57.5-1.17,1.26-2.45,2.45-3.5,3.88-.26.36-.51.73-.74,1.11-.22.37-.44.71-.7,1.05-.5.68-1.07,1.31-1.67,1.93-1.44,1.47-2.94,3.1-3.93,4.99-.26.47-.5.97-.76,1.44-.12.23-.24.43-.33.67-.06.17-.03.23-.12.43-.48,1.07-.85,2.18-1.13,3.31-.05.17-.08.36-.08.51,0,.17.05.26.09.35l.49.84c.41-1.42.79-2.94,1.35-4.37.71-1.84,1.73-3.56,2.96-5.1,1.07-1.34,2.36-2.55,3.5-3.94.54-.67.63-.88,1.08-1.62.17-.28.34-.55.48-.83.16-.31.42-.83.6-1.17.14-.31,1.1-1.31,1.33-1.61Z"/><path d="M85.77,31.05c.74-.68,1.04-.95,1.8-1.65.05-.05.11-.11.11-.15,0-.02-.03-.03-.06-.03-.16,0-.4.17-.61.31-2.57,1.76-5.08,3.65-7.5,5.64-1.45,1.2-2.88,2.44-4.2,3.78-.33.34-.67.69-1.03,1-.17.15-.33.28-.48.45-.1.12-.09.19-.24.32-.75.71-1.49,1.43-2.22,2.16-.11.11-.23.23-.29.35-.08.13-.08.23-.08.32v.92c1.05-.85,2.03-1.9,3.02-2.9,1.27-1.28,2.59-2.52,3.93-3.74,1.17-1.06,2.36-2.09,3.59-3.06.59-.45.7-.61,1.29-1.06.24-.18.48-.37.68-.58.23-.24.62-.66.81-.9.19-.25,1.22-.96,1.47-1.19Z"/><path d="M103.66,33.96c.69-.28,1.2-.46,1.71-.61.26-.08.51-.16.79-.25.29-.07.6-.14.96-.22.11-.03.23-.06.26-.09.02-.02-.01-.04-.05-.05-.2-.05-.64,0-1.02.05-2.33.41-4.56,1.2-6.78,2-2.22.81-4.4,1.72-6.56,2.67-2.6,1.14-5.17,2.38-7.64,3.77-.62.35-1.26.71-1.9,1.04-.31.16-.58.29-.87.47-.2.13-.23.2-.48.35-1.36.77-2.71,1.54-4.01,2.43-.2.13-.41.28-.55.42-.16.15-.21.29-.25.39-.14.38-.27.74-.39,1.1,1.63-1.1,3.47-2.26,5.28-3.34,2.34-1.38,4.76-2.65,7.2-3.86,2.13-1.04,4.28-2.07,6.46-2.96,1.03-.43,1.28-.57,2.32-.98.42-.17.85-.34,1.24-.53.45-.22,1.21-.61,1.61-.84.4-.22,2.2-.8,2.67-.96Z"/><path d="M119.57,42.18c1.91-.33,2.75-.46,4.69-.71.14-.02.3-.04.34-.08.02-.02-.01-.04-.06-.05-.26-.07-.82-.04-1.32-.02-6.07.43-12.1,1.44-18.11,2.52-3.61.66-7.22,1.38-10.78,2.22-.9.21-1.82.44-2.72.61-.44.08-.83.15-1.26.27-.3.09-.36.15-.73.23-1.96.43-3.93.87-5.88,1.33-.3.07-.61.14-.86.24-.27.1-.39.2-.5.29l-1.1.92c2.59-.46,5.33-1.14,8-1.77,3.44-.81,6.9-1.56,10.36-2.29,3.01-.62,6.04-1.23,9.06-1.73,1.43-.25,1.79-.32,3.22-.57.58-.09,1.17-.18,1.72-.31.64-.15,1.71-.41,2.29-.57.57-.17,3-.44,3.65-.55Z"/><path d="M137.72,55.74c2.65-.15,3.82-.16,6.5-.44.2-.03.42-.07.47-.1.03-.02-.02-.04-.09-.04-.36-.03-1.12,0-1.8.02-4.14.09-8.31.04-12.47-.01l-6.25-.14c-1.04-.04-2.08-.07-3.11-.14-.54-.04-.97-.07-1.5-.17l-1.55-.27c-4.97-.8-10.03-1.23-15.05-1.31-1.26-.02-2.55-.05-3.82-.07-.61-.02-1.15-.05-1.76-.03-.43.02-.52.07-1.04.06-2.75-.02-5.51,0-8.26.05-.42,0-.86.02-1.21.06-.39.04-.58.11-.75.18l-1.75.67c3.6.1,7.46-.02,11.21-.05,4.83-.03,9.67.08,14.48.48,2.09.17,4.19.39,6.26.68,1.04.14,2.07.31,3.1.49,1.09.19,2.16.2,3.2.26,1.99.08,2.5.04,4.49.09.8.02,1.63.03,2.4,0,.9-.04,2.41-.12,3.22-.19.81-.07,4.16-.02,5.06-.07Z"/><path d="M143.78,68.82c2.85.5,4.08.72,6.97,1.24.21.04.45.07.51.06.04-.01,0-.04-.07-.07-.35-.16-1.17-.36-1.89-.52-8.82-2-17.69-3.96-26.6-5.82-5.35-1.11-10.73-2.19-16.1-3.11-1.35-.24-2.75-.46-4.09-.73-.65-.13-1.22-.26-1.88-.34-.46-.06-.57-.03-1.13-.13-2.95-.53-5.9-1.03-8.87-1.46-.45-.07-.93-.14-1.31-.16-.42-.02-.65.02-.84.06l-1.98.38c3.92.63,8.02,1.29,12.05,1.94,5.19.86,10.38,1.83,15.56,2.82,4.51.87,9.02,1.76,13.48,2.73,2.12.44,2.65.55,4.78.98.85.18,1.73.37,2.56.51.97.16,2.59.41,3.47.52.88.11,4.43.93,5.4,1.1Z"/><path d="M123.61,77.31c1.82.75,2.61,1.11,4.48,1.82.14.05.29.11.34.1.03,0,0-.04-.03-.07-.2-.19-.72-.43-1.17-.65-5.53-2.69-11.02-5.53-16.55-8.33-3.33-1.67-6.61-3.41-10.01-4.96-.86-.37-1.75-.75-2.62-1.12-.42-.18-.78-.35-1.21-.5-.3-.1-.39-.08-.75-.22-1.91-.75-3.83-1.43-5.77-2.08-.29-.1-.61-.2-.86-.25-.28-.06-.44-.04-.59-.02l-1.44.19c2.48,1,5.2,1.86,7.81,2.82,1.68.61,3.33,1.28,4.96,2.02,1.62.74,3.21,1.58,4.82,2.37,2.8,1.4,5.61,2.78,8.37,4.21,1.31.67,1.67.8,2.98,1.47.53.27,1.08.54,1.61.76.62.25,1.66.67,2.23.87.57.2,2.78,1.34,3.4,1.6Z"/><path d="M96.83,75.33c.44.5.61.69,1.07,1.22.03.04.07.08.11.07.02,0,.03-.02.03-.05.02-.12-.06-.29-.15-.44-1.01-1.81-2.15-3.56-3.37-5.25-.73-1.02-1.5-2.02-2.37-2.92-.22-.23-.45-.46-.63-.71-.09-.12-.16-.24-.28-.33-.08-.07-.14-.05-.22-.15-.44-.52-.9-1.04-1.37-1.54-.07-.08-.15-.16-.23-.2-.09-.04-.18-.03-.25-.02l-.76.13c.5.75,1.17,1.42,1.81,2.09.82.87,1.6,1.78,2.35,2.71.66.81,1.31,1.63,1.88,2.49.27.41.38.48.65.89.11.17.22.33.37.47.17.15.44.41.62.53.18.12.58.85.73,1.01Z"/><path d="M50.29,64.34c.13.3.17.44.33.73.01.02.03.04.06.05.02,0,.04,0,.05-.02.08-.06.08-.15.08-.23-.01-.98.05-1.94.16-2.88.07-.57.16-1.12.18-1.69,0-.14,0-.29.06-.43.03-.07.06-.12.05-.19,0-.05-.05-.07-.04-.13.09-.31.17-.6.26-.9.01-.05.03-.09,0-.14-.02-.05-.08-.09-.13-.13l-.54-.4c-.29.36-.38.83-.46,1.28-.1.58-.19,1.16-.25,1.75-.05.51-.08,1.02-.14,1.53-.03.24.01.3,0,.55,0,.1,0,.2.03.29.05.11.14.28.22.37.08.09.04.5.08.6Z"/><path d="M54.05,47.88c-1.13,1.11-1.33,2.97-.67,4.41.66,1.44,2.04,2.47,3.55,2.94,1.27.4,2.73.42,3.84-.31,1.39-.91,1.87-2.9,1.25-4.44-.98-2.43-5.81-4.73-7.97-2.6Z"/><path d="M72.29,59.04c-2.03,1.85-2.28,5.33-.5,7.42,1.78,2.09,5.31,2.38,7.36.57,1.53-1.34,2.12-3.51,2.02-5.54-.2-4.05-6.37-4.74-8.88-2.45Z"/><path d="M8.59,23.74c.08-.2.13-.28.21-.48,0-.01.01-.03,0-.05,0,0-.02-.01-.03-.01-.05,0-.1.03-.14.07-.51.44-.97.94-1.37,1.49-.24.33-.46.68-.6,1.06-.03.1-.07.2-.13.28-.03.04-.06.08-.06.13,0,.04.02.06,0,.09-.1.2-.18.41-.26.61-.01.03-.02.07-.01.1.01.04.04.07.07.09.1.09.23.19.24.24.23-.06.22-.22.31-.34.06-.13.11-.27.17-.41.14-.35.3-.69.48-1.02.16-.29.33-.57.54-.82.1-.12.1-.17.2-.28.04-.05.08-.1.09-.16.02-.07.05-.2.05-.27,0-.08.2-.26.22-.33Z"/><path d="M11.94,21.12c.06-.19.1-.27.18-.46,0-.01.01-.03,0-.05,0,0-.02-.02-.03-.02-.06-.02-.11.02-.15.05-.51.38-.94.87-1.28,1.42-.2.33-.38.69-.43,1.08-.01.1-.03.2-.07.29-.02.04-.04.08-.04.13,0,.04.03.05.02.09-.06.2-.08.41-.1.62,0,.03,0,.07.01.1.02.03.05.05.08.07.11.06.21.12.28.17.18-.24.22-.5.29-.76.07-.33.2-.66.33-.97.12-.27.25-.54.44-.77.09-.11.08-.16.17-.26.04-.04.07-.09.08-.15,0-.07.02-.19.01-.27-.01-.08.18-.23.2-.3Z"/><path d="M15.8,18.99c.05-.2.08-.28.14-.48,0-.01,0-.03,0-.05,0,0-.02-.01-.03-.01-.06,0-.1.03-.14.07-.46.44-.86.94-1.21,1.48-.21.32-.4.67-.49,1.04-.02.09-.04.19-.1.28-.03.04-.05.07-.05.12,0,.04.03.05.01.09-.09.19-.14.39-.2.6,0,.03-.02.06,0,.1.01.04.04.06.07.09l.29.23c.18-.22.3-.48.38-.74.11-.34.26-.66.42-.98.13-.28.27-.56.46-.8.09-.12.08-.16.17-.28.04-.05.07-.1.08-.16,0-.07.02-.19,0-.27-.01-.08.17-.26.18-.33Z"/><path d="M19.16,17.77c.05-.19.09-.26.15-.46,0-.01,0-.03,0-.05,0,0-.02-.01-.03-.02-.06-.01-.1.02-.14.06-.45.4-.85.87-1.18,1.39-.2.31-.36.65-.44,1.01-.02.09-.04.19-.08.27-.02.04-.05.07-.05.12,0,.03.03.05.02.09-.07.19-.12.38-.17.58,0,.03-.01.06,0,.09.01.03.05.06.08.08l.31.21c.17-.21.24-.47.32-.72.1-.32.23-.63.37-.93.13-.26.26-.52.44-.75.09-.11.07-.15.16-.26.03-.04.07-.09.07-.15,0-.07.01-.19,0-.26-.01-.08.16-.24.18-.3Z"/><path d="M22.71,16.47c.09-.19.15-.26.26-.44,0-.01.02-.03,0-.05,0-.01-.02-.02-.03-.02-.06-.03-.11,0-.16.03-.58.32-1.1.8-1.5,1.37-.24.34-.43.73-.49,1.14-.01.1-.03.21-.07.31-.02.05-.04.09-.04.14,0,.04.04.05.03.09-.05.22-.07.44-.09.67,0,.03,0,.07.02.1.02.03.06.05.1.07l.36.16c.12-.26.16-.54.21-.81.06-.35.18-.69.33-1.01.13-.28.27-.56.48-.78.1-.1.09-.16.19-.26.04-.04.08-.08.09-.15.02-.07.04-.19.04-.27,0-.08.21-.22.25-.28Z"/><path d="M26.01,15.64c.03-.17.03-.21.06-.41,0-.01,0-.03-.01-.04,0,0-.02-.01-.03-.01-.06,0-.09.03-.12.06-.33.39-.65.81-.92,1.26-.16.27-.3.55-.36.86-.01.08-.02.16-.07.23-.02.03-.05.06-.04.1,0,.03.04.05.02.08-.07.16-.12.32-.15.49,0,.03,0,.05,0,.08.02.03.06.06.1.08l.37.22c.21-.16.26-.39.31-.61.07-.28.16-.55.27-.82.09-.23.18-.47.32-.68.07-.1.05-.14.11-.24.03-.04.05-.08.05-.14,0-.06-.01-.17-.04-.23-.02-.07.11-.22.12-.28Z"/><path d="M29.99,14.5c.03-.19.06-.26.1-.45,0-.01,0-.03,0-.04,0,0-.02-.01-.03-.01-.06-.01-.1.03-.13.06-.41.41-.77.89-1.05,1.4-.17.31-.32.63-.36.99-.01.09-.02.18-.06.26-.02.04-.04.07-.04.12,0,.03.03.05.02.08-.06.18-.1.37-.12.56,0,.03,0,.06,0,.09.01.03.04.05.07.07l.25.18c.14-.22.25-.45.31-.69.09-.31.21-.61.34-.9.11-.26.22-.51.39-.74.08-.11.07-.15.14-.26.03-.04.06-.09.06-.15,0-.07,0-.18-.02-.25-.02-.07.15-.24.15-.3Z"/><path d="M32.76,14.08c.03-.19.06-.26.1-.45,0-.01,0-.03,0-.04,0,0-.02-.01-.03-.01-.06,0-.1.03-.13.06-.4.41-.78.86-1.06,1.36-.18.3-.33.61-.4.96-.02.09-.03.18-.08.25-.02.04-.04.07-.04.11,0,.03.04.05.02.08-.06.18-.11.36-.16.54,0,.03-.01.06,0,.09.02.03.06.06.1.08l.34.21c.21-.19.25-.44.32-.67.09-.3.19-.6.32-.89.11-.25.22-.51.39-.73.08-.1.06-.15.14-.26.03-.04.06-.09.06-.15,0-.07,0-.18-.03-.25-.02-.07.13-.24.14-.3Z"/><path d="M36.22,13.33c.04-.18.07-.26.13-.44,0-.01,0-.03,0-.04,0,0-.02-.01-.03-.02-.06-.02-.1.01-.14.04-.47.35-.85.82-1.14,1.34-.17.31-.31.65-.35,1.01,0,.09-.01.18-.04.27-.02.04-.03.08-.03.12,0,.03.04.05.03.08-.04.19-.06.38-.06.58,0,.03,0,.06.02.09.02.03.05.05.08.06l.29.14c.12-.23.19-.47.22-.71.06-.31.15-.61.26-.9.1-.25.21-.5.38-.72.08-.1.07-.15.15-.24.03-.04.07-.08.07-.14,0-.06,0-.18-.01-.25-.02-.07.16-.22.18-.28Z"/><path d="M39.76,12.67c.04-.24.05-.3.1-.57,0-.02,0-.04,0-.05,0,0-.02,0-.03,0-.06,0-.1.05-.14.1-.44.55-.89,1.07-1.31,1.64-.25.35-.48.72-.61,1.15-.03.11-.06.22-.12.32-.03.05-.06.09-.06.15,0,.04.03.06.02.1-.08.23-.14.47-.18.71,0,.04,0,.08.01.11.02.04.06.06.1.08l.4.2c.15-.26.2-.54.29-.83.11-.36.27-.71.46-1.05.17-.3.35-.59.57-.86.11-.13.1-.18.2-.31.04-.05.08-.11.09-.18.01-.08.03-.22.01-.31-.02-.09.18-.3.19-.39Z"/><path d="M43.01,13.47c.04-.18.05-.23.09-.43,0-.01,0-.03,0-.04,0,0-.02,0-.03-.01-.05,0-.09.03-.12.06-.4.37-.76.78-1.1,1.21-.19.26-.37.54-.47.85-.02.08-.04.16-.1.22-.03.03-.06.05-.06.1,0,.03.03.05.02.08-.09.15-.16.32-.23.48-.01.02-.02.05,0,.08.02.03.06.07.1.1l.39.3c.25-.13.3-.37.4-.59.1-.29.24-.56.38-.83.12-.24.26-.46.42-.67.08-.1.06-.14.14-.24.03-.04.06-.08.06-.14,0-.07,0-.18-.02-.25-.02-.07.14-.22.15-.28Z"/><path d="M4.36,30.2c.08.14.09.18.18.34,0,.01.01.02.03.02.01,0,.02,0,.03,0,.05-.02.06-.07.06-.11.06-.46.1-.93.1-1.39,0-.28-.01-.55-.1-.82-.02-.07-.05-.14-.04-.21,0-.03.01-.06,0-.1-.01-.02-.05-.02-.05-.05-.01-.15-.02-.3-.06-.45,0-.01,0,0-.02-.02-.02,0-.06-.02-.09-.03-.06-.02-.08-.03-.14-.03-.03,0-.07,0-.1,0-.01,0-.08,0,.06.03.02,0,0,.01-.01.01h0c.08,0-.24-.05-.17-.05,0-.01-.01-.03,0-.03-.02-.02-.01-.03-.03-.02,0,.01-.05.06-.05.11,0,.09-.02.15-.02.2,0,.1.03.21.04.31.05.26.08.52.1.79.02.23.05.46.04.69,0,.11.03.13.02.24,0,.04,0,.09.03.13.03.05.1.12.15.16.05.04.02.23.05.27Z"/><path d="M1.99,32.51c.08.16.09.2.18.38,0,.01.01.02.03.02.01,0,.02,0,.03,0,.05-.03.06-.07.06-.11.07-.5.15-.98.24-1.45.05-.28.09-.56.09-.85,0-.07,0-.15.03-.22.01-.03.03-.06.02-.1,0-.03-.04-.04-.03-.07.03-.16.06-.31.08-.47,0-.02,0-.05,0-.07-.01-.03-.04-.05-.06-.06-.09-.06-.14-.11-.18-.17-.23.15-.28.39-.34.61-.07.29-.12.58-.17.87-.04.26-.07.51-.13.77-.02.12,0,.15-.02.28,0,.05-.01.1.01.15.03.06.08.15.13.19.05.05,0,.25.03.31Z"/><path d="M.56,35.37c.11.13.15.18.27.3,0,0,.02.02.04.01.01,0,.02,0,.03-.02.04-.04.04-.08.04-.12-.06-.47-.04-.92-.03-1.35.01-.26.04-.51.01-.77,0-.07-.02-.14,0-.2.01-.03.03-.06.02-.09,0-.02-.04-.03-.04-.06.02-.14.07-.28.08-.42,0-.02,0-.05,0-.07-.02-.03-.05-.05-.08-.07-.1-.07-.18-.13-.24-.19-.24.14-.28.38-.32.59-.06.28-.09.57-.1.86,0,.25,0,.5-.02.76,0,.12.02.15.03.27,0,.05,0,.1.04.14.04.05.12.12.18.15.06.03.06.24.1.28Z"/><path d="M46.06,13.11c.03-.18.06-.25.1-.43,0-.01,0-.03,0-.04,0,0-.02-.01-.03-.01-.05-.01-.1.02-.13.05-.44.34-.81.75-1.13,1.2-.19.27-.36.56-.44.89-.02.08-.03.17-.09.24-.02.03-.05.06-.05.11,0,.03.04.05.02.08-.07.17-.13.34-.18.51,0,.03-.01.05,0,.08.02.03.07.06.11.09l.43.24c.22-.17.24-.4.31-.62.08-.29.19-.56.32-.83.11-.23.23-.46.4-.66.08-.09.06-.14.15-.23.03-.04.06-.08.06-.13,0-.06,0-.18-.02-.25-.02-.07.15-.21.16-.27Z"/><path d="M48.83,12.05c.08-.21.13-.3.23-.51,0-.02.01-.03,0-.05,0,0-.02-.01-.03-.02-.06-.01-.11.03-.16.07-.56.45-1.04,1.01-1.43,1.64-.22.38-.41.8-.48,1.23-.02.11-.03.22-.08.33-.02.05-.05.09-.04.15,0,.04.04.06.02.1-.06.23-.09.47-.12.71,0,.04,0,.08.02.11.02.04.07.06.1.08.13.07.25.13.33.18.24-.27.22-.58.29-.88.06-.39.18-.76.32-1.13.13-.32.27-.63.47-.9.1-.13.08-.18.18-.31.04-.05.08-.1.09-.17.01-.08.04-.21.03-.29,0-.08.2-.27.23-.35Z"/><path d="M52.25,11.97c.02-.25.03-.36.04-.61,0-.02,0-.04-.01-.05,0,0-.02,0-.03,0-.05.02-.08.08-.1.14-.31.69-.69,1.34-1.09,1.94-.24.37-.5.7-.72,1.13-.05.11-.1.22-.18.32-.04.05-.07.09-.08.15,0,.04.02.07,0,.11-.12.26-.22.5-.22.85,0,.06.02.12.06.17.04.05.1.07.14.07.17,0,.3-.05.4-.16-.02-.06.05-.05.06-.19.03-.14.06-.28.11-.42.13-.37.38-.71.63-1.08.2-.32.38-.6.63-1,.1-.16.09-.22.18-.38.04-.07.07-.14.08-.21,0-.09,0-.24-.01-.33-.01-.08.13-.36.13-.45Z"/><path d="M53.95,12.17c.05-.22.09-.31.15-.53,0-.02,0-.04,0-.05,0,0-.02,0-.03,0-.05,0-.1.05-.13.09-.47.53-.86,1.15-1.13,1.82-.17.4-.3.82-.33,1.26,0,.11-.01.22-.05.33-.02.05-.03.1-.03.15,0,.04.04.05.03.09-.03.23-.05.47-.05.71,0,.04,0,.07.02.11.02.03.06.05.1.07l.36.15c.11-.29.12-.6.15-.9.03-.39.1-.78.2-1.15.09-.33.19-.66.35-.95.08-.14.06-.19.15-.33.03-.06.06-.11.07-.18,0-.08.01-.21,0-.29-.01-.08.16-.3.17-.38Z"/><path d="M56.76,12.49c.06-.23.07-.29.14-.54,0-.02,0-.04,0-.05,0,0-.02-.01-.03-.01-.06,0-.11.05-.14.09-.45.55-.86,1.14-1.19,1.77-.21.37-.39.77-.47,1.19-.02.11-.04.22-.09.31-.03.05-.05.09-.05.14,0,.04.03.06.02.1-.08.24-.16.4-.21.71,0,.05,0,.11.02.16.03.05.08.08.12.09.14.04.3.02.4-.05,0-.05.06-.05.11-.19.05-.15.09-.3.13-.45.11-.38.25-.76.4-1.13.13-.32.26-.64.45-.94.09-.14.08-.19.16-.33.03-.06.07-.11.07-.18,0-.08.01-.21,0-.3-.02-.08.16-.3.18-.38Z"/><path d="M58.52,13.14c0-.2,0-.25-.01-.48,0-.01,0-.03-.01-.04,0,0-.02,0-.03,0-.05,0-.07.06-.1.1-.29.51-.54,1.03-.75,1.58-.13.32-.26.65-.3,1-.01.09-.02.18-.06.26-.02.04-.04.07-.04.12,0,.03.03.05.02.08-.07.18-.11.36-.14.55,0,.03-.01.06,0,.09.01.03.05.05.08.07.1.07.2.13.25.19.25-.19.3-.45.37-.7.08-.32.18-.64.28-.95.08-.28.17-.55.29-.81.06-.12.04-.17.1-.29.02-.05.04-.1.04-.16,0-.07-.03-.18-.06-.25-.03-.07.08-.27.08-.34Z"/><path d="M61.44,13.13c.06-.2.1-.27.18-.47,0-.01.01-.03,0-.05,0,0-.02-.01-.03-.02-.05-.01-.1.02-.14.05-.51.39-.95.89-1.3,1.45-.2.34-.37.71-.42,1.1-.01.1-.02.2-.06.29-.02.04-.04.08-.03.13,0,.04.03.05.03.09-.04.21-.07.42-.09.63,0,.03,0,.07.01.1.02.03.05.05.08.07l.3.17c.14-.25.19-.52.26-.78.07-.34.19-.67.33-.99.11-.28.25-.55.43-.79.09-.11.07-.16.16-.27.04-.04.07-.09.08-.15,0-.07.02-.19.01-.27-.01-.08.18-.24.2-.31Z"/><path d="M63.44,14.4c.03-.17.04-.2.08-.39,0-.01,0-.03-.01-.04,0,0-.02-.01-.03-.01-.06-.01-.09.02-.12.05-.35.36-.66.76-.92,1.19-.16.26-.28.53-.34.83-.01.08-.03.15-.07.22-.02.03-.04.06-.04.1,0,.03.03.04.01.07-.07.15-.09.32-.14.47,0,.02-.01.05,0,.07,0,.03.04.05.06.07l.23.18c.14-.17.22-.38.3-.58.09-.26.2-.52.33-.77.11-.22.21-.44.36-.63.07-.09.06-.13.13-.22.03-.04.05-.08.06-.12,0-.06,0-.16-.02-.22-.02-.06.13-.2.14-.26Z"/><path d="M67.63,13.22c.03-.27.05-.38.07-.66,0-.02,0-.04,0-.05,0,0-.02,0-.03,0-.05.02-.09.08-.13.14-.4.71-.87,1.38-1.29,2.05-.26.4-.53.8-.72,1.23-.05.11-.1.22-.19.31-.04.04-.08.08-.1.14-.01.04.02.07-.01.11-.16.22-.31.42-.47.63-.02.03-.04.07-.04.11,0,.05.03.1.06.14.09.15.18.29.24.41.39-.14.57-.5.78-.81.26-.41.53-.81.77-1.22.21-.36.41-.73.65-1.08.11-.17.1-.23.2-.4.04-.07.08-.14.08-.23,0-.1,0-.26-.02-.36-.02-.09.15-.38.16-.47Z"/><path d="M69.87,15.04c.05-.19.09-.27.16-.46,0-.01,0-.03,0-.04,0,0-.02-.01-.03-.01-.05-.01-.1.02-.14.05-.47.39-.92.82-1.27,1.33-.21.3-.41.63-.5.99-.02.09-.04.19-.09.27-.03.04-.05.07-.05.12,0,.03.03.06.02.09-.08.18-.14.38-.19.57,0,.03-.01.06,0,.09.02.04.05.06.09.09l.33.24c.23-.19.3-.44.39-.69.11-.31.25-.62.4-.92.13-.26.27-.52.46-.74.09-.1.07-.16.16-.26.03-.04.07-.09.07-.15,0-.07.01-.19,0-.27-.01-.08.17-.23.18-.3Z"/><path d="M72.52,15.5c.02-.21.03-.26.05-.49,0-.01,0-.03-.01-.04,0,0-.02-.01-.03-.01-.06,0-.1.04-.13.08-.37.47-.72.95-1.03,1.46-.19.3-.36.62-.46.96-.02.09-.05.18-.11.25-.03.04-.06.06-.06.11,0,.03.03.06.02.09-.09.17-.17.35-.25.53-.01.03-.02.06-.01.09.02.04.06.07.09.1.12.1.24.2.27.25.26-.03.26-.17.35-.27.06-.12.11-.24.16-.36.13-.31.27-.62.42-.93.13-.27.26-.53.43-.78.08-.11.07-.16.14-.28.03-.05.06-.1.06-.16,0-.07-.01-.19-.03-.27-.02-.08.13-.26.14-.33Z"/><path d="M75.26,15.68c.05-.21.07-.26.13-.5,0-.02,0-.03,0-.05,0,0-.02-.01-.03-.01-.06,0-.11.03-.15.07-.45.46-.88.95-1.23,1.5-.22.32-.41.66-.51,1.04-.02.1-.05.19-.11.27-.03.04-.06.07-.06.12,0,.04.03.06.01.09-.09.19-.17.39-.22.59,0,.03-.01.07,0,.1.01.04.05.07.08.09l.29.26c.23-.2.37-.45.45-.72.13-.34.29-.66.46-.98.14-.28.29-.56.48-.81.09-.12.08-.17.17-.29.04-.05.07-.1.08-.16,0-.07.01-.2,0-.28-.02-.08.16-.27.18-.34Z"/><path d="M78.57,16.43c.06-.22.07-.28.14-.52,0-.02,0-.03,0-.05,0,0-.02,0-.03,0-.05,0-.1.05-.13.09-.43.51-.84,1.04-1.21,1.6-.22.33-.44.68-.6,1.05-.04.09-.08.19-.14.27-.03.04-.06.07-.07.12,0,.03.02.06,0,.09-.11.2-.22.39-.32.58-.02.03-.03.06-.03.09,0,.04.03.07.05.1l.24.29c.23-.2.37-.47.52-.73.18-.34.37-.67.57-1,.17-.29.34-.58.55-.84.1-.13.09-.18.19-.3.04-.05.08-.11.09-.17.01-.08.02-.21.02-.29,0-.08.17-.28.19-.36Z"/><path d="M81.19,17.48c.06-.19.08-.24.15-.46,0-.01,0-.03,0-.05,0,0-.02-.02-.03-.02-.06-.02-.11.02-.15.05-.45.4-.88.83-1.26,1.3-.23.28-.44.57-.58.91-.04.08-.06.18-.12.25-.03.03-.06.06-.06.11,0,.03.02.06,0,.09-.1.17-.2.34-.29.52-.01.03-.03.06-.02.09,0,.04.04.07.07.1l.28.3c.22-.17.35-.4.48-.64.17-.29.35-.58.54-.87.16-.25.33-.5.53-.71.1-.1.09-.15.19-.25.04-.04.07-.09.08-.15,0-.07.02-.19.01-.27-.01-.08.18-.23.2-.3Z"/><path d="M84.19,18.82c.06-.18.08-.22.15-.42,0-.01,0-.03,0-.04,0-.01-.02-.02-.03-.02-.06-.02-.11,0-.14.03-.43.33-.86.66-1.26,1.02-.24.21-.46.45-.62.73-.04.07-.08.15-.15.19-.03.02-.07.04-.08.08,0,.03.02.06,0,.08-.12.13-.24.26-.34.4-.01.02-.02.05-.01.09,0,.04.04.08.06.12.09.12.17.24.21.32.34-.01.46-.24.6-.43.18-.25.38-.48.58-.72.18-.2.34-.41.55-.58.1-.08.09-.13.19-.22.04-.03.08-.07.08-.13.01-.07.03-.18.02-.25,0-.07.17-.2.19-.26Z"/><path d="M87.61,18.93c.07-.22.09-.28.17-.53,0-.02,0-.04,0-.05,0-.01-.02-.01-.04-.02-.07-.01-.12.03-.16.07-.56.52-1.04.97-1.46,1.38-.29.27-.57.55-.81.87-.06.08-.12.17-.2.22-.04.03-.08.05-.1.1-.01.03,0,.07-.02.09-.16.16-.32.3-.47.45-.02.02-.05.05-.05.09,0,.04.01.08.03.12.04.12.12.28.11.34.38-.01.56-.29.8-.48.29-.27.57-.56.85-.84.24-.25.47-.51.74-.74.12-.11.13-.16.24-.28.05-.05.1-.09.11-.16.02-.08.05-.22.04-.3,0-.09.21-.26.24-.34Z"/><path d="M90.24,20.2c.09-.18.12-.23.22-.43,0-.01.01-.03,0-.05,0-.01-.02-.02-.03-.02-.06-.02-.11,0-.15.03-.51.33-1.01.69-1.44,1.11-.26.25-.52.52-.69.84-.04.08-.09.17-.15.23-.03.03-.06.05-.08.1,0,.03.01.06,0,.09-.12.15-.23.32-.34.49-.02.03-.03.05-.03.09,0,.04.02.07.04.1l.2.3c.23-.15.41-.35.56-.57.2-.27.43-.53.65-.79.19-.22.39-.45.63-.63.11-.09.11-.14.22-.22.04-.04.08-.08.1-.14.02-.07.05-.19.05-.26,0-.08.21-.21.24-.27Z"/><path d="M93.34,20.67c.1-.2.12-.26.23-.49,0-.01.01-.03,0-.05,0-.01-.02-.02-.03-.02-.06-.02-.11.01-.16.04-.56.37-1.09.8-1.56,1.29-.29.29-.56.6-.72.98-.04.09-.08.19-.16.27-.04.04-.07.06-.08.12,0,.04.02.07,0,.1-.13.18-.24.37-.34.57-.02.03-.03.06-.02.1.01.04.05.08.08.12.11.12.21.23.29.33.32-.14.43-.41.58-.67.18-.33.41-.63.63-.93.19-.26.39-.52.64-.74.12-.1.11-.16.23-.26.05-.04.09-.09.11-.15.02-.07.05-.21.05-.29,0-.09.22-.24.25-.3Z"/><path d="M96.05,21.4c.06-.21.09-.3.16-.51,0-.02,0-.03,0-.05,0,0-.02-.01-.03-.01-.06,0-.1.03-.14.07-.47.45-.92.93-1.34,1.43-.25.3-.49.61-.66.96-.04.09-.09.18-.16.25-.04.03-.07.06-.08.11,0,.03.02.06,0,.09-.13.17-.25.35-.37.53-.02.03-.04.06-.03.09,0,.04.04.08.07.11l.3.35c.3-.14.42-.41.57-.66.19-.32.4-.63.61-.94.18-.27.37-.54.59-.77.11-.11.1-.17.2-.28.04-.05.08-.1.09-.16.01-.08.03-.2.02-.29,0-.08.19-.26.2-.33Z"/><path d="M98.21,22c.08-.23.1-.29.2-.55,0-.02.01-.04,0-.05,0,0-.02-.01-.03-.02-.06-.01-.12.03-.16.08-.54.5-1.03,1.07-1.44,1.7-.25.37-.47.77-.61,1.19-.03.11-.07.22-.13.32-.03.05-.06.09-.06.14,0,.04.03.06,0,.1-.1.22-.19.45-.27.68-.01.04-.02.07,0,.11.01.04.05.07.08.1l.32.28c.23-.25.33-.56.45-.86.15-.38.33-.76.52-1.13.17-.32.35-.64.57-.92.11-.13.1-.19.21-.32.04-.05.08-.11.1-.18.01-.08.04-.22.03-.31,0-.09.21-.29.23-.37Z"/><path d="M101.21,23.15c.13-.2.19-.27.33-.47.01-.01.02-.03.01-.05,0-.01-.02-.02-.03-.02-.06-.03-.12,0-.17.03-.66.33-1.26.78-1.79,1.31-.31.32-.59.69-.78,1.1-.04.11-.09.21-.16.3-.03.04-.07.08-.08.14,0,.04.02.07,0,.11-.12.21-.22.44-.31.67-.01.04-.02.07-.01.11.01.04.05.08.08.1l.32.29c.24-.23.35-.52.48-.81.18-.36.38-.71.62-1.03.2-.28.42-.56.69-.78.13-.1.13-.16.26-.26.05-.04.1-.09.13-.15.03-.07.08-.2.09-.29.01-.09.26-.23.31-.29Z"/><path d="M104.67,25.53c.08-.18.1-.23.19-.44,0-.01,0-.03,0-.05,0-.01-.02-.02-.03-.02-.06-.02-.11,0-.15.03-.49.31-.97.61-1.43.92-.28.19-.55.38-.78.63-.06.06-.11.13-.19.16-.04.02-.08.02-.1.06-.01.03,0,.07-.02.08-.16.1-.3.21-.45.32-.02.02-.05.04-.05.07,0,.04.01.09.03.14l.18.48c.28-.03.49-.2.69-.37.25-.22.52-.43.78-.64.23-.18.45-.37.7-.53.12-.07.12-.12.24-.2.05-.03.09-.07.11-.13.02-.07.05-.19.06-.26,0-.08.21-.19.24-.25Z"/><path d="M108.44,26.17c.11-.19.13-.24.25-.46,0-.01.01-.03,0-.05,0-.01-.02-.02-.03-.02-.06-.02-.12,0-.17.03-.57.33-1.13.67-1.65,1.05-.31.23-.61.47-.86.78-.06.08-.12.16-.21.21-.04.02-.08.04-.1.09-.02.03,0,.07-.02.09-.16.13-.33.27-.47.42-.02.02-.05.05-.05.09,0,.05.02.1.04.14.07.16.13.3.18.43.34-.03.53-.27.74-.48.26-.27.55-.52.83-.77.24-.22.5-.43.77-.62.13-.09.14-.14.26-.23.05-.04.1-.08.13-.14.03-.07.07-.2.08-.28,0-.08.24-.22.27-.28Z"/><path d="M110.45,27.77c.1-.18.16-.24.27-.41,0-.01.02-.03.01-.05,0-.01-.01-.02-.02-.03-.05-.03-.11-.01-.15,0-.58.2-1.12.53-1.61.92-.29.23-.57.5-.75.82-.05.08-.09.17-.17.23-.04.03-.07.05-.08.1,0,.03.02.06,0,.09-.12.16-.24.32-.34.5-.01.03-.02.06-.02.1.01.04.05.08.08.11.13.13.19.22.24.3.4-.05.43-.33.6-.53.18-.28.39-.54.61-.78.19-.21.4-.42.65-.57.12-.07.12-.12.24-.19.05-.03.09-.06.11-.12.02-.07.06-.18.07-.26,0-.08.24-.17.27-.23Z"/><path d="M113.86,28.75c.1-.2.13-.25.24-.47,0-.01.01-.03,0-.05,0-.01-.02-.02-.03-.02-.06-.02-.11.01-.16.04-.54.36-1.07.74-1.56,1.16-.3.25-.59.51-.82.82-.06.08-.11.16-.2.22-.04.03-.08.05-.1.09-.01.03,0,.06-.02.09-.16.14-.3.29-.45.45-.02.02-.04.05-.05.09,0,.04.02.09.05.13l.21.4c.31-.08.49-.32.68-.54.24-.28.51-.55.77-.81.23-.23.46-.46.72-.65.12-.09.13-.14.25-.24.05-.04.1-.08.12-.14.03-.07.07-.19.07-.28,0-.08.23-.23.26-.29Z"/><path d="M117,29.82c.19-.16.24-.2.46-.38.01-.01.03-.03.02-.05,0-.01-.01-.02-.02-.03-.05-.04-.12-.03-.18-.01-.72.19-1.43.43-2.11.76-.41.2-.81.44-1.14.76-.08.08-.17.17-.27.23-.05.03-.09.05-.12.1-.02.04,0,.06-.04.1-.19.17-.36.35-.53.54-.02.03-.05.06-.06.1,0,.04,0,.08.02.11l.15.33c.27-.17.49-.41.73-.62.3-.28.63-.52.99-.74.31-.19.63-.37.97-.49.16-.06.19-.11.35-.17.07-.02.13-.05.18-.1.06-.06.15-.16.2-.24.04-.08.34-.14.4-.2Z"/><path d="M118.68,31.59c.16-.14.2-.18.37-.34.01-.01.02-.03.02-.04,0-.01-.01-.02-.02-.03-.05-.04-.11-.03-.16-.02-.62.16-1.22.38-1.79.65-.35.16-.69.35-.98.6-.07.06-.15.13-.24.17-.04.02-.08.03-.11.07-.02.03,0,.06-.04.08-.17.12-.34.24-.5.38-.02.02-.05.04-.06.08,0,.04,0,.08.02.12l.12.38c.28-.07.5-.24.73-.41.28-.22.58-.42.89-.6.27-.16.53-.32.83-.43.14-.05.16-.1.29-.15.06-.02.11-.05.15-.09.05-.06.12-.15.15-.23.03-.07.28-.13.33-.18Z"/><path d="M121.79,32.97c.2-.13.26-.16.48-.31.01,0,.03-.02.03-.04,0-.01,0-.02-.02-.03-.04-.05-.11-.04-.17-.03-.72.08-1.43.22-2.12.44-.41.13-.83.28-1.19.52-.09.06-.18.13-.29.16-.05.02-.1.03-.14.07-.03.03-.02.06-.06.08-.22.1-.43.22-.61.31-.03.02-.05.05-.07.08-.02.04-.02.08-.02.12-.01.12-.04.22-.07.3.36.08.73-.1.98-.25.36-.19.74-.35,1.11-.51.33-.14.66-.27,1-.34.16-.04.19-.08.36-.12.07-.02.13-.03.18-.08.06-.05.16-.15.21-.22.05-.07.33-.11.4-.15Z"/><path d="M123.66,33.9c.15-.14.22-.19.38-.32.01,0,.02-.02.02-.04,0-.01,0-.02-.02-.03-.04-.04-.1-.03-.15-.02-.62.13-1.24.33-1.83.6-.35.16-.69.37-.96.65-.07.07-.13.15-.22.19-.04.02-.08.03-.1.08-.02.03,0,.06-.03.09-.16.12-.31.18-.42.28-.02.02-.03.04-.05.08-.01.04-.02.08-.02.12-.02.12-.06.23-.12.32.15.03.39.15.56.07.18-.05.31-.17.43-.27.3-.26.55-.45.84-.66.25-.17.51-.34.79-.46.13-.06.15-.1.28-.16.05-.02.11-.05.14-.1.04-.06.11-.16.14-.23.03-.07.27-.13.32-.18Z"/><path d="M126.74,34.71c.16-.16.24-.21.4-.37.01-.01.03-.03.02-.04,0-.01-.01-.02-.02-.03-.05-.04-.11-.03-.17-.01-.66.19-1.34.4-1.96.73-.37.2-.73.42-1.03.72-.07.08-.15.16-.24.21-.05.02-.09.04-.12.09-.02.03,0,.07-.03.09-.18.12-.38.31-.49.41-.02.02-.03.03-.04.06,0,.03,0,.08.02.13.04.17,0,.29-.05.36.26.2.49,0,.62-.07.14-.1.24-.2.35-.3.28-.26.59-.5.91-.71.27-.19.56-.37.87-.5.15-.06.16-.11.31-.18.06-.03.12-.06.15-.11.04-.07.12-.18.15-.26.03-.08.3-.15.35-.21Z"/><path d="M129.85,36.35c.18-.19.26-.26.43-.47.01-.01.02-.03.02-.05,0-.01-.02-.02-.03-.02-.06-.02-.13,0-.18.03-.68.35-1.43.52-2.16.77-.44.14-.89.3-1.3.55-.1.06-.21.14-.32.17-.06.02-.11.03-.15.08-.03.03-.02.07-.07.09-.24.12-.46.26-.68.42-.03.03-.06.05-.08.09-.02.04,0,.09,0,.14l.11.42c.34-.08.6-.27.9-.44.38-.21.78-.39,1.19-.56.36-.15.72-.29,1.11-.4.18-.06.21-.1.39-.17.07-.03.14-.06.2-.12.06-.07.16-.19.21-.28.04-.08.35-.19.41-.26Z"/><path d="M131.72,38.05c.13-.18.16-.23.3-.44,0-.01.02-.03.01-.05,0-.01-.02-.02-.03-.02-.05-.02-.11,0-.16.03-.58.31-1.18.55-1.75.84-.34.17-.69.33-.99.57-.08.06-.15.13-.25.15-.05.01-.09.02-.12.06-.02.03,0,.07-.05.09-.2.09-.38.18-.57.27-.03.01-.06.03-.07.06-.01.04,0,.1,0,.15.03.17.05.34.05.45.36.11.6-.12.86-.25.33-.19.68-.36,1.01-.56.29-.17.57-.35.88-.49.14-.07.16-.12.29-.2.06-.03.11-.07.14-.13.04-.07.1-.19.12-.28.02-.08.26-.2.3-.26Z"/><path d="M134.06,39.2c.11-.19.14-.23.27-.44,0-.01.02-.03,0-.05,0-.01-.02-.02-.03-.02-.05-.02-.11,0-.15.03-.56.31-1.13.61-1.66.96-.32.2-.64.41-.9.68-.07.07-.14.14-.23.18-.04.02-.08.03-.11.07-.02.03,0,.06-.04.09-.17.12-.34.23-.5.37-.03.02,0,.02-.01.04,0,.03.02.08.02.12.03.14-.09.29-.26.17.02.11.17.22.26.24.09.02.17.03.23,0,.16-.06.17-.07.25-.11.13-.07.24-.16.36-.25.32-.24.6-.45.9-.67.26-.19.52-.39.81-.54.13-.08.14-.13.27-.21.05-.03.11-.07.13-.13.03-.07.08-.19.09-.28.01-.08.25-.2.28-.27Z"/><path d="M137.37,40.93c.16-.15.2-.19.37-.36.01-.01.02-.03.02-.05,0-.01-.01-.02-.02-.03-.05-.04-.11-.03-.16-.02-.63.14-1.27.34-1.85.63-.35.17-.7.37-.98.65-.07.07-.14.15-.23.19-.04.02-.09.03-.11.08-.02.03,0,.07-.03.09-.17.12-.34.26-.5.4-.02.02-.05.05-.05.08,0,.04.02.09.04.14.07.15.16.33.18.41.22.04.3-.07.43-.14.11-.08.22-.18.32-.27.27-.24.56-.45.86-.65.26-.17.53-.34.82-.45.14-.05.15-.1.29-.15.06-.02.11-.04.15-.1.04-.06.11-.18.13-.26.03-.08.28-.14.33-.19Z"/><path d="M139.54,42.74c.13-.15.16-.19.31-.37,0-.01.02-.03.01-.04,0-.01-.01-.02-.02-.03-.05-.04-.11-.02-.15,0-.57.21-1.12.47-1.64.76-.32.18-.63.37-.88.63-.06.07-.12.14-.21.18-.04.02-.08.03-.1.08-.02.03,0,.06-.03.08-.16.12-.32.24-.46.37-.02.02-.04.04-.05.08,0,.04.02.08.03.12l.18.4c.28-.06.47-.25.67-.43.25-.23.53-.43.8-.64.24-.18.48-.35.74-.49.13-.06.14-.11.26-.17.05-.03.1-.05.13-.11.04-.06.09-.16.12-.24.02-.07.25-.15.29-.2Z"/><path d="M141.71,43.62c.15-.15.23-.2.39-.34.01-.01.02-.02.02-.04,0-.01,0-.02-.02-.03-.04-.04-.11-.03-.16-.01-.65.13-1.28.36-1.88.66-.36.18-.7.4-.98.69-.07.07-.14.15-.23.2-.04.02-.08.04-.11.09-.02.03,0,.06-.03.09-.17.14-.32.29-.47.45-.02.03-.04.05-.05.09,0,.04.01.08.03.12l.15.35c.29-.09.5-.29.71-.48.27-.24.56-.47.86-.67.26-.18.53-.36.82-.47.14-.05.15-.11.3-.16.06-.02.11-.05.15-.1.05-.06.12-.17.15-.24.03-.08.29-.13.33-.19Z"/><path d="M143.36,46.03c.15-.13.18-.16.35-.3.01,0,.02-.02.02-.04,0-.01,0-.02-.02-.03-.04-.05-.09-.05-.14-.04-.55.09-1.11.18-1.65.33-.33.08-.65.19-.93.37-.07.05-.14.09-.23.11-.04,0-.08,0-.11.04-.02.02-.01.06-.04.07-.17.06-.35.12-.51.21-.02.01-.05.03-.06.06-.01.04,0,.09,0,.13.04.18.02.24.03.33.04.01.06,0,.11.03.07.07.09.06.13.06.06,0,.13-.02.19-.03.12-.03.23-.09.34-.14.29-.14.58-.25.88-.36.26-.1.51-.2.79-.26.13-.02.15-.07.27-.1.05-.01.1-.03.14-.08.04-.05.11-.15.15-.22.03-.07.26-.09.3-.14Z"/><path d="M145.34,47.47c.14-.12.17-.15.33-.29,0,0,.02-.02.02-.04,0-.01,0-.02-.02-.03-.04-.03-.09-.03-.13-.02-.53.13-1.06.26-1.57.43-.31.1-.61.21-.88.39-.07.04-.14.09-.22.11-.04,0-.08.01-.1.04-.02.02-.01.06-.04.07-.17.07-.33.15-.42.18-.01,0-.02.01-.03.04,0,.02-.02.06-.03.1-.04.13-.11.23-.22.31.15.14.4.17.54.12.16-.04.26-.1.37-.16.27-.15.55-.28.84-.41.25-.11.49-.23.75-.3.12-.04.14-.08.26-.12.05-.02.1-.03.13-.08.04-.05.11-.14.13-.2.03-.06.24-.11.29-.15Z"/><path d="M149.6,48.64c.26-.11.34-.15.63-.27.02,0,.04-.02.04-.04,0-.01,0-.02-.01-.03-.05-.05-.13-.05-.2-.05-.87.03-1.75.13-2.61.33-.51.12-1.03.26-1.5.51-.12.06-.24.13-.37.16-.06.02-.12.03-.17.07-.04.03-.03.07-.08.09-.27.1-.53.22-.79.36-.04.02-.08.04-.1.08-.03.04-.03.09-.03.13,0,.15,0,.29,0,.41.4-.02.75-.2,1.1-.36.45-.21.92-.37,1.38-.53.41-.14.82-.27,1.24-.34.2-.03.24-.08.44-.11.08-.01.16-.03.23-.07.08-.05.22-.14.29-.21.07-.07.42-.09.5-.13Z"/><path d="M149.29,51.17c.12-.13.15-.16.28-.3,0,0,.02-.02.01-.04,0-.01-.01-.02-.02-.03-.04-.05-.09-.05-.13-.04-.49.07-.98.16-1.46.28-.29.07-.56.17-.81.34-.06.04-.12.09-.2.1-.04,0-.07,0-.1.03-.02.02,0,.06-.03.08-.15.06-.3.12-.44.2-.02.01-.04.03-.05.06,0,.04,0,.09.01.14l.08.45c.27.1.46-.03.66-.13.25-.13.51-.25.77-.35.23-.09.45-.19.69-.25.11-.03.13-.07.24-.1.05-.01.09-.03.12-.07.03-.05.09-.14.11-.22.02-.07.22-.09.26-.13Z"/><path d="M151.33,52.04c.14-.15.2-.2.34-.34.01-.01.02-.02.02-.04,0-.01-.01-.02-.02-.03-.05-.04-.1-.04-.15-.02-.59.12-1.18.27-1.74.5-.33.14-.66.3-.94.54-.07.06-.14.13-.23.16-.04.01-.08.02-.11.06-.02.03,0,.07-.03.09-.17.1-.34.2-.49.33-.02.02-.05.04-.05.08,0,.05.02.1.04.15.07.17.11.31.08.33.05,0,.13.08.19.1.04,0,.09.01.11,0,.06-.02.12-.05.18-.08.12-.06.21-.15.32-.23.26-.21.55-.39.84-.56.25-.15.51-.29.79-.38.13-.04.14-.09.28-.14.05-.02.11-.04.14-.09.04-.06.1-.16.13-.24.03-.07.26-.13.3-.18Z"/><path d="M152.88,53.34c.1-.18.13-.22.25-.43,0-.01.01-.03,0-.05,0-.01-.02-.02-.03-.03-.06-.03-.12-.01-.16.01-.56.26-1.1.54-1.61.86-.3.19-.6.39-.83.67-.06.07-.12.15-.2.19-.04.02-.08.03-.1.08-.02.03,0,.07-.03.09-.16.12-.31.24-.46.37-.02.02-.04.05-.05.08,0,.04.02.09.03.14.05.15.11.29.12.39.35.05.52-.21.73-.37.26-.23.55-.43.83-.65.24-.19.48-.38.76-.52.13-.07.13-.12.26-.19.05-.03.1-.06.13-.12.03-.07.07-.19.08-.27,0-.08.24-.18.27-.24Z"/><path d="M154.85,54.9c.09-.22.14-.3.22-.52,0-.02.01-.04,0-.05,0,0-.02-.01-.03-.02-.06-.01-.12.03-.16.07-.51.47-1.06.88-1.59,1.28-.32.24-.65.47-.94.74-.07.07-.15.14-.24.18-.05.02-.09.03-.12.07-.02.03,0,.07-.04.09-.2.12-.38.22-.57.33-.03.02-.06.04-.07.07-.01.04,0,.09,0,.14.03.16.05.3.06.44.35,0,.62-.19.89-.36.34-.24.68-.47,1.01-.72.29-.22.56-.45.85-.67.14-.1.15-.15.28-.26.05-.04.1-.09.13-.16.03-.08.07-.22.07-.3,0-.09.23-.26.26-.34Z"/><path d="M155.39,57.26c.09-.19.11-.23.2-.44,0-.01.01-.03,0-.05,0,0-.02-.01-.03-.02-.06-.02-.1.02-.14.05-.55.43-1.01.79-1.41,1.11-.28.22-.56.42-.79.67-.06.06-.12.13-.2.17-.04.02-.08.02-.1.06-.02.03,0,.06-.03.08-.16.1-.33.18-.48.29-.02.02-.05.03-.06.07-.01.04,0,.09,0,.13.03.15.06.3.07.42.33.06.57-.14.8-.31.29-.22.58-.44.84-.69.23-.21.45-.43.7-.62.12-.09.12-.14.23-.23.05-.04.09-.08.11-.14.02-.07.05-.19.05-.27,0-.08.2-.22.23-.28Z"/><path d="M156.31,58.78c.07-.2.08-.25.16-.47,0-.01,0-.03,0-.05,0-.01-.02-.02-.03-.02-.07-.02-.11.01-.15.04-.48.38-.94.79-1.35,1.23-.26.26-.49.54-.66.87-.04.08-.09.17-.16.23-.03.03-.07.05-.08.09,0,.03.01.06,0,.08-.11.14-.23.26-.34.33-.02.01-.03.02-.04.05-.01.03-.01.07-.02.1-.01.12-.06.23-.12.32.39.16.76-.13.94-.34.24-.3.45-.55.68-.82.2-.23.39-.47.62-.67.11-.1.11-.15.21-.24.04-.04.09-.08.1-.14.02-.07.03-.19.03-.28,0-.08.19-.23.22-.3Z"/><path d="M157.4,60.43c.02-.21.05-.29.1-.5,0-.01,0-.03,0-.05,0,0-.02-.01-.03-.01-.06,0-.1.03-.14.07-.47.47-.78,1.09-1.09,1.61-.19.32-.37.6-.54.9-.04.07-.09.15-.16.2-.04.02-.07.03-.09.07-.01.03,0,.06-.02.08-.14.11-.29.21-.44.27-.02,0-.05.02-.06.05-.02.03-.01.08-.01.13,0,.15-.01.31-.04.44.36.11.7-.11.95-.31.33-.28.58-.61.79-.95.19-.3.32-.61.49-.89.08-.13.06-.18.14-.31.03-.05.06-.11.06-.17,0-.07-.01-.2-.04-.28-.03-.08.13-.28.14-.34Z"/><path d="M158.16,63.5c.04-.18.07-.25.1-.44,0-.01,0-.03-.01-.04,0,0-.02-.01-.03-.02-.06-.01-.1.02-.14.05-.39.37-.8.69-1.21,1-.25.18-.47.38-.67.61-.05.06-.1.12-.17.15-.04.01-.07.02-.09.06-.01.03,0,.06-.02.08-.13.1-.27.19-.4.31-.02.02-.04.04-.04.07,0,.04,0,.08.02.12.04.13.07.26.09.37.28,0,.5-.12.7-.28.26-.19.5-.4.75-.6.21-.18.41-.38.63-.56.1-.08.1-.13.2-.22.04-.04.08-.08.09-.13.01-.07.03-.18.01-.26-.01-.08.17-.21.18-.28Z"/><path d="M158.71,66.12c.03-.15.05-.2.09-.35,0-.01,0-.02,0-.04,0,0-.02-.02-.03-.02-.05-.02-.09,0-.12.02-.38.29-.68.68-.96.99-.18.18-.25.26-.47.48-.04.04-.08.08-.13.09-.03,0-.05,0-.07.03-.01.02,0,.05-.02.06-.11.03-.21.05-.31.04-.01,0-.03,0-.05.02-.02.02-.03.07-.05.11-.05.14-.12.27-.19.34.18.29.54.19.77.11.31-.12.56-.31.77-.53.19-.19.32-.4.48-.58.08-.08.06-.12.13-.21.03-.03.05-.07.05-.12,0-.06,0-.15-.03-.21-.02-.06.12-.18.13-.23Z"/><path d="M159.72,68.03c.08-.16.12-.22.19-.38,0-.01,0-.03,0-.04,0,0-.02-.02-.03-.02-.06-.02-.1,0-.13.02-.43.28-.87.52-1.29.77-.25.15-.51.3-.74.48-.06.05-.12.09-.19.12-.04.01-.07.02-.09.04-.02.02-.01.05-.04.06-.16.07-.3.13-.45.2-.02,0-.05.02-.06.04-.02.02-.02.06-.02.09v.3c.23,0,.46-.09.67-.19.28-.13.55-.26.82-.4.21-.11.38-.2.71-.38.11-.06.13-.1.24-.16.04-.03.09-.05.11-.1.03-.06.07-.16.08-.22,0-.07.2-.17.23-.22Z"/><path d="M158.61,70.08c.05-.13.06-.16.12-.3,0,0,0-.02,0-.04,0,0-.02-.02-.03-.02-.05-.03-.08-.02-.11,0-.35.18-.7.36-1.03.57-.2.12-.38.26-.51.46-.03.05-.06.1-.12.13-.03.01-.05.02-.06.05,0,.02.02.05,0,.07-.11.1-.16.15-.17.15,0,0,0,0,0,.02,0,.02,0,.07,0,.11-.01.13-.05.26-.11.38.09.13.3.14.44.06.14-.06.23-.17.28-.21.15-.16.31-.31.48-.46.15-.13.28-.26.45-.36.08-.05.07-.09.15-.14.03-.02.06-.04.07-.09,0-.05.02-.14.02-.2,0-.06.14-.12.16-.17Z"/><path d="M13.36,32.22c-1.18-.23-1.69-.34-2.89-.54-.09-.01-.19-.03-.22,0-.02.01,0,.04.02.06.13.12.46.23.75.32,3.58,1.09,7.14,2.25,10.69,3.47,2.13.73,4.26,1.5,6.4,2.19.54.18,1.09.35,1.61.57.25.11.47.21.74.28.19.05.24.02.46.1l3.45,1.36c.17.07.36.14.52.17.17.03.28,0,.38-.03l.98-.29c-1.44-.77-3.08-1.37-4.68-1.94-2.05-.74-4.11-1.48-6.18-2.19-1.8-.61-3.59-1.21-5.4-1.83-.85-.29-1.08-.32-1.93-.6-.34-.11-.7-.23-1.04-.29-.4-.07-1.08-.19-1.45-.22-.37-.03-1.8-.52-2.2-.6Z"/><path d="M19.16,50.09c-.84.13-1.21.18-2.05.38-.06.01-.13.03-.14.06,0,.02,0,.04.03.05.12.08.37.07.58.06,2.62-.11,5.24.13,7.87.35,1.58.13,3.18.26,4.79.21.4-.02.82-.04,1.22-.01.2,0,.37.02.56,0,.14-.02.17-.07.33-.07.88-.01,1.77-.08,2.65-.18.13-.02.27-.04.38-.09.12-.05.17-.13.22-.2l.45-.71c-1.13.02-2.31.19-3.49.28-1.51.1-3.04.06-4.56,0-1.33-.06-2.67-.14-4-.27-.63-.05-.79-.03-1.43-.07-.26-.02-.52-.03-.76,0-.29.04-.77.11-1.03.18-.26.07-1.33,0-1.62.06Z"/><path d="M5.41,39.54c-.65.01-.94,0-1.6.03-.05,0-.1,0-.12.03-.01.02,0,.04.01.06.08.1.26.14.42.17,2,.39,4.01.75,6.02,1.06,1.21.19,2.43.36,3.65.43.31.02.62.03.93.09.15.03.27.06.42.06.11,0,.14-.05.26-.04.67.08,1.33.17,2,.25.1.01.21.02.3,0,.1-.03.16-.09.21-.14l.51-.58c-.85-.27-1.8-.33-2.71-.41-1.18-.1-2.36-.24-3.54-.37-1.02-.12-2.05-.24-3.06-.42-.48-.09-.61-.06-1.09-.14-.19-.03-.39-.06-.58-.05-.22.02-.6.05-.8.1-.2.05-1.01-.13-1.23-.13Z"/><path d="M39.99,21.71c-.58-.55-.83-.8-1.44-1.34-.04-.04-.1-.08-.13-.07-.02,0-.03.03-.03.05,0,.14.14.32.27.49,1.53,1.97,2.98,3.99,4.38,6.05.84,1.24,1.65,2.5,2.51,3.71.21.31.44.62.61.96.08.16.15.31.26.45.08.1.14.1.22.23.41.71.81,1.43,1.21,2.14.06.11.12.22.2.3.09.08.17.1.25.12l.82.16c-.37-1.03-.98-2.03-1.59-2.99-.78-1.24-1.56-2.47-2.38-3.68-.72-1.04-1.43-2.07-2.16-3.14-.34-.49-.46-.59-.81-1.08-.14-.2-.29-.4-.46-.56-.2-.19-.55-.49-.76-.64-.21-.15-.79-.97-.98-1.16Z"/><path d="M26.54,23.76c-.77-.44-1.12-.62-1.93-1.03-.06-.03-.13-.06-.15-.06-.01,0,0,.01.01.03.09.09.31.22.5.33,2.4,1.41,4.73,2.97,6.87,4.78,1.3,1.06,2.47,2.28,3.69,3.43.3.3.61.6.89.91.13.15.25.29.4.43.1.1.14.1.26.23.62.68,1.21,1.38,1.81,2.08.09.11.19.22.28.3.1.09.16.12.22.15.2.09.39.2.57.31-.65-1.03-1.5-2.02-2.37-2.95-1.11-1.19-2.27-2.35-3.51-3.41-1.09-.91-2.18-1.83-3.3-2.68-.54-.4-.67-.51-1.22-.89-.22-.16-.44-.32-.66-.46-.24-.14-.64-.39-.93-.56-.23-.14-1.17-.77-1.43-.92Z"/><path d="M10.2,28.36c-.45-.05-.6-.07-1.09-.12-.03,0-.07,0-.08,0,0,0,0,.01,0,.02.05.05.17.09.28.12,1.33.41,2.66.82,3.98,1.26.81.27,1.54.52,2.38.8.2.07.4.13.6.22.09.04.17.08.27.11.07.02.09.01.17.04.43.18.85.36,1.27.54.06.03.13.06.19.07.06.02.1.01.13.01l.34-.03c-.52-.3-1.12-.57-1.7-.82-.75-.32-1.5-.62-2.27-.91-.66-.24-1.29-.47-2-.73-.31-.11-.4-.12-.72-.23-.13-.04-.26-.09-.39-.11-.15-.02-.41-.05-.55-.05-.14,0-.68-.18-.83-.2Z"/><path d="M19.43,24.53c-.54-.15-.77-.22-1.32-.36-.04-.01-.09-.02-.1-.01,0,0,0,.01,0,.02.06.05.21.11.34.16,1.63.61,3.25,1.25,4.84,1.98.96.44,1.87.86,2.85,1.32.24.11.49.22.72.35.11.06.21.12.33.17.08.03.11.02.21.07.51.26,1.01.56,1.53.79.08.04.16.08.23.1.08.03.12.03.17.03.14,0,.27.01.41.03-.31-.22-.63-.45-.97-.66-.34-.21-.7-.38-1.05-.56-.91-.46-1.83-.9-2.75-1.32-.8-.35-1.59-.7-2.43-1.07-.41-.16-.47-.19-.87-.35-.16-.07-.32-.13-.47-.18-.18-.05-.49-.14-.66-.17-.17-.04-.82-.31-1-.36Z"/><path d="M58.4,21.52c.1-.48.18-.75-.02-1.22-.02-.03-.04-.07-.05-.07,0,0-.01,0-.01.02,0,.07.04.2.04.32.03.75-.51,1.34-.75,2.11-.25.78-.17,1.59-.15,2.33.02.45.02.89-.03,1.31-.06.42-.17.85-.26,1.31-.04.24-.08.45-.13.71-.02.11-.05.21-.04.33,0,.08.03.1.02.2-.02.52.01,1.03.07,1.53,0,.08.02.16.04.22.02.07.05.1.07.13.09.1.16.2.24.3.02-.66-.03-1.36.02-2.02.03-.85.37-1.64.51-2.57.11-.81-.01-1.6,0-2.35,0-.35-.02-.44.02-.78.02-.13.04-.27.04-.4,0-.15.03-.41.05-.56.01-.15.29-.69.33-.86Z"/><path d="M46.47,23.41c-.22-.22-.28-.28-.52-.53-.02-.02-.04-.03-.05-.03,0,0,0,0,0,.02,0,.05.05.12.09.19.53.77,1,1.58,1.42,2.42.25.5.48,1.01.75,1.5.07.12.14.25.19.38.02.07.03.12.07.18.03.04.06.04.09.09.12.29.25.56.37.84.02.04.04.09.07.12.03.03.08.04.11.05l.38.07c-.05-.42-.22-.83-.39-1.22-.23-.5-.49-1-.76-1.48-.23-.4-.45-.77-.73-1.25-.12-.2-.16-.23-.28-.43-.05-.08-.1-.16-.16-.22-.08-.07-.2-.19-.28-.25-.08-.06-.28-.38-.35-.45Z"/><path d="M71.29,22.22c.27-.56.37-.77.66-1.36.02-.04.04-.09.04-.1,0-.01-.01,0-.03,0-.07.05-.17.2-.25.33-1.06,1.61-2.14,3.21-3.14,4.88-.61.99-1.21,1.99-1.75,3.02-.14.26-.28.53-.43.77-.08.12-.15.22-.2.35-.04.09-.03.12-.09.23-.32.55-.65,1.1-.94,1.66-.04.09-.09.18-.11.26-.03.09-.02.14-.02.19.02.17.03.33.03.49.53-.66.98-1.43,1.4-2.19.57-.98,1.12-1.94,1.68-2.91.49-.84.99-1.69,1.51-2.51.25-.39.28-.5.53-.89.1-.16.2-.32.27-.49.08-.19.21-.52.27-.7.06-.18.48-.84.56-1.03Z"/><path d="M84.5,25.22c.57-.45.82-.64,1.42-1.07.04-.03.09-.07.1-.09,0-.01-.01-.01-.03-.01-.1.01-.29.11-.46.2-2.03,1.07-3.84,2.55-5.48,4.17-.98.98-1.91,2.02-2.74,3.12-.21.28-.42.56-.65.83-.11.13-.21.24-.3.38-.06.1-.06.14-.14.25-.46.6-.93,1.19-1.36,1.81-.07.09-.14.19-.18.28-.05.1-.05.16-.05.22-.01.19-.03.38-.05.57.68-.72,1.32-1.56,1.94-2.39.81-1.05,1.63-2.09,2.5-3.08.76-.87,1.55-1.71,2.4-2.47.41-.35.48-.48.9-.82.17-.14.34-.28.48-.43.17-.18.46-.47.61-.64.14-.18.91-.67,1.1-.82Z"/><path d="M96.57,30.12c.75-.38,1.04-.53,1.82-.93.05-.03.12-.06.13-.08,0-.01-.01-.02-.03-.02-.12,0-.35.07-.55.14-2.47.86-4.85,2.01-7.13,3.35-1.36.81-2.69,1.71-3.9,2.72-.3.26-.62.52-.93.76-.15.12-.29.22-.43.36-.1.1-.1.14-.22.25-.65.57-1.29,1.17-1.9,1.78-.09.09-.19.2-.26.29-.07.1-.1.16-.12.22-.07.19-.15.37-.23.55,1.01-.86,1.8-1.53,2.67-2.28,1.16-.97,2.35-1.91,3.6-2.76,1.08-.75,2.2-1.46,3.35-2.08.55-.28.67-.4,1.23-.67.22-.11.45-.23.65-.36.24-.15.64-.41.84-.56.2-.16,1.18-.55,1.43-.68Z"/><path d="M113.93,36.44c.96-.2,1.39-.26,2.37-.43.07-.01.15-.03.17-.05.01-.01,0-.02-.03-.03-.13-.04-.42-.03-.67-.02-3.09.17-6.16.82-9.15,1.7-1.79.53-3.56,1.18-5.27,1.92-.43.19-.87.38-1.31.55-.21.08-.4.15-.6.25-.14.07-.16.11-.34.19-.94.41-1.88.8-2.8,1.25-.14.07-.29.14-.4.21-.12.07-.18.13-.23.18-.17.16-.34.31-.52.45,1.27-.43,2.6-.95,3.89-1.5,1.66-.69,3.32-1.36,5.01-1.96,1.47-.52,2.95-1.01,4.45-1.39.71-.17.88-.26,1.6-.41.29-.06.58-.13.85-.22.32-.1.85-.26,1.13-.37.28-.11,1.51-.26,1.84-.33Z"/><path d="M127.35,45.53c1.34-.06,1.93-.06,3.29-.08.1,0,.21,0,.24-.02.02,0,0-.02-.04-.03-.17-.05-.56-.08-.91-.1-4.2-.24-8.45-.02-12.66.47-2.53.3-5.05.71-7.54,1.23-.62.13-1.27.27-1.9.38-.3.05-.57.1-.87.17-.21.05-.25.09-.51.14-1.37.26-2.73.56-4.09.86-.21.04-.43.1-.59.16-.19.07-.28.12-.36.17-.27.17-.54.32-.82.45,1.82-.21,3.72-.64,5.59-1.02,2.4-.5,4.8-.96,7.22-1.35,2.1-.34,4.22-.63,6.32-.82,1-.08,1.25-.15,2.25-.21.4-.03.82-.05,1.2-.11.45-.06,1.21-.14,1.61-.21.41-.07,2.1-.07,2.55-.09Z"/><path d="M136.3,51.13c1.04,0,1.46,0,2.52,0,.08,0,.16,0,.18-.02.01,0,0-.02-.03-.03-.13-.05-.43-.09-.69-.11-3.21-.3-6.44-.54-9.69-.64-1.95-.06-3.91-.05-5.86.1-.49.04-.99.08-1.48.1-.24.01-.45.02-.68.05-.17.02-.2.06-.4.07-1.07.09-2.13.21-3.19.36-.16.03-.33.06-.46.1-.15.05-.21.1-.28.14-.21.15-.41.34-.63.41,1.41-.01,2.86-.31,4.31-.44,1.86-.19,3.73-.28,5.6-.31,1.63-.02,3.27-.01,4.89.07.77.04.96.02,1.73.06.31.02.63.04.93.03.35,0,.93-.03,1.25-.06.32-.03,1.61.09,1.96.09Z"/><path d="M143.79,63.5c2,.42,2.87.63,4.89,1.1.15.03.31.07.36.07.03,0,0-.02-.05-.04-.25-.11-.82-.27-1.33-.41-3.09-.85-6.22-1.56-9.38-2.18-3.16-.61-6.33-1.19-9.51-1.71-3.82-.64-7.68-1.16-11.51-1.57-.96-.11-1.96-.21-2.92-.34-.47-.06-.88-.12-1.34-.16-.33-.03-.41,0-.8-.06-2.1-.26-4.21-.51-6.34-.65-.32-.02-.66-.04-.94-.03-.3,0-.45.04-.59.06-.46.08-.92.15-1.37.2,2.76.27,5.71.56,8.59.89,3.71.42,7.42.86,11.12,1.34,3.22.4,6.45.84,9.64,1.35,1.51.23,1.9.28,3.41.57.61.12,1.23.24,1.81.33.67.11,1.79.3,2.45.41.62.1,3.13.68,3.81.84Z"/><path d="M147.07,60.68c.59.09.8.12,1.43.22.04,0,.09.01.11,0,0,0,0-.02-.01-.03-.07-.05-.23-.11-.37-.15-1.76-.55-3.57-.99-5.39-1.33-1.1-.21-2.21-.38-3.32-.46-.28-.02-.57-.03-.85-.07-.13-.02-.25-.04-.39-.03-.1,0-.12.02-.23.01-.61-.05-1.22-.09-1.83-.12-.09,0-.19,0-.27,0-.09.01-.13.03-.17.05l-.4.21c.79.12,1.64.19,2.47.27,1.06.11,2.13.24,3.19.39.92.13,1.84.28,2.75.49.43.1.54.09.97.19.17.04.35.08.52.09.2.02.53.05.72.04.18,0,.9.2,1.09.23Z"/><path d="M147.3,73.13c.56.13.76.18,1.34.32.04,0,.09.02.1,0,.01,0,0-.02,0-.03-.06-.06-.21-.13-.34-.18-1.65-.63-3.33-1.2-5.02-1.73-1.02-.32-2.05-.61-3.09-.83-.26-.05-.53-.11-.79-.19-.12-.04-.23-.07-.36-.09-.09-.01-.12,0-.22-.02-.57-.15-1.14-.26-1.71-.38-.09-.02-.18-.04-.26-.04-.08,0-.13.02-.17.04l-.42.17c.73.24,1.52.44,2.3.62,1,.23,1.99.48,2.98.75.86.23,1.73.47,2.57.75.43.13.49.15.91.27.16.05.33.11.49.13.19.03.5.09.68.1.17.01.84.27,1.03.31Z"/><path d="M134.11,76.19c1.45.66,2.07.98,3.52,1.68.11.05.23.11.26.11.02,0,0-.02-.03-.04-.16-.14-.56-.38-.92-.57-2.18-1.22-4.4-2.36-6.69-3.39-2.27-1.06-4.55-2.1-6.87-3.07-2.78-1.16-5.61-2.23-8.42-3.29-.71-.27-1.43-.55-2.13-.85-.34-.14-.63-.27-.98-.39-.24-.09-.3-.08-.59-.2-1.54-.6-3.06-1.23-4.61-1.81-.24-.09-.49-.18-.69-.23-.23-.06-.35-.07-.46-.08-.37-.03-.73-.07-1.09-.13,1.96.93,4.13,1.74,6.25,2.53l4.08,1.53,4.06,1.6c2.34.95,4.69,1.91,7,2.91,1.09.48,1.38.57,2.47,1.06.44.19.87.38,1.32.57.48.2,1.29.54,1.78.74.46.17,2.24,1.1,2.73,1.33Z"/><path d="M143.67,77.4c.87.44,1.22.62,2.11,1.08.06.03.14.07.16.06.02,0,0-.02,0-.04-.09-.11-.32-.26-.53-.4-1.28-.81-2.57-1.62-3.9-2.36-1.34-.74-2.68-1.48-4.01-2.21-1.61-.88-3.25-1.73-4.93-2.44-.42-.18-.86-.36-1.28-.56-.2-.1-.38-.18-.59-.26-.15-.05-.19-.03-.37-.11-.92-.4-1.86-.76-2.81-1.09-.14-.05-.3-.1-.43-.13-.14-.03-.22-.04-.28-.04-.23,0-.45-.04-.66-.08,1.17.61,2.43,1.23,3.69,1.78,1.61.71,3.23,1.42,4.82,2.18,1.39.65,2.78,1.32,4.13,2.03.63.35.81.41,1.44.77.26.14.51.3.76.42.29.15.79.38,1.07.49.28.1,1.32.75,1.61.9Z"/><path d="M133.83,79.75c.54.3.77.45,1.31.77.04.02.08.05.1.05.01,0,0-.01,0-.03-.05-.07-.19-.19-.31-.28-1.52-1.22-3.16-2.3-4.85-3.29-1.02-.59-2.06-1.16-3.15-1.61-.27-.11-.55-.23-.82-.36-.13-.06-.24-.12-.38-.17-.1-.03-.13-.02-.24-.07-.59-.25-1.19-.49-1.8-.72-.09-.03-.19-.07-.27-.09-.09-.02-.14-.01-.19,0l-.46.05c.76.37,1.59.71,2.39,1.07,1.03.45,2.05.94,3.05,1.46.87.45,1.74.92,2.56,1.44.39.25.51.29.89.54.16.1.32.21.48.28.19.09.5.25.68.32.18.07.8.54.99.64Z"/><path d="M113.76,77.43c.8.48,1.13.67,1.96,1.17.06.04.13.07.15.08.02,0,0-.02,0-.04-.08-.1-.29-.27-.48-.42-2.3-1.79-4.72-3.43-7.2-5-1.49-.93-3.01-1.85-4.56-2.66-.39-.2-.8-.41-1.18-.64-.18-.11-.34-.21-.54-.3-.14-.06-.18-.05-.34-.13-.85-.46-1.7-.91-2.56-1.34-.13-.07-.27-.13-.39-.16-.13-.04-.22-.02-.29-.01-.24.03-.5.09-.72.06,1.03.76,2.28,1.27,3.44,1.88,1.51.76,2.99,1.58,4.46,2.42,1.28.73,2.54,1.5,3.76,2.31.57.39.74.45,1.32.85.23.16.47.32.71.44.28.15.74.4,1.01.51.26.12,1.2.82,1.47.98Z"/><path d="M104.5,76.1c.35.14.51.2.88.32.03,0,.06.02.07,0,0,0,0-.02,0-.03-.03-.06-.12-.12-.2-.17-.98-.63-1.86-1.39-2.74-2.16-.52-.47-1.06-.93-1.64-1.34-.15-.1-.3-.21-.43-.33-.06-.06-.12-.11-.2-.15-.06-.03-.08-.01-.14-.06-.31-.24-.63-.47-.95-.69-.05-.03-.1-.07-.16-.08-.06-.02-.1,0-.14,0l-.37.11c.37.35.8.67,1.21.99.53.42,1.05.85,1.57,1.3.45.39.92.76,1.36,1.17.21.19.28.21.51.39.09.07.18.15.28.19.12.05.33.13.45.16.12.03.5.32.62.37Z"/><path class="cls-4" d="M62.67,50.99c.54-.04.78-.03,1.33-.08.04,0,.09-.01.1-.03,0-.01,0-.02-.01-.03-.07-.06-.22-.1-.36-.12-1.68-.24-3.4-.37-5.11-.39-1.03,0-2.07.05-3.09.2-.26.04-.52.08-.78.09-.13,0-.24,0-.36.04-.09.02-.1.06-.21.07-.56.06-1.12.13-1.68.23-.08.01-.17.03-.24.06-.07.04-.11.09-.14.13-.1.14-.2.26-.31.33.76.13,1.52-.07,2.28-.15.97-.12,1.96-.2,2.94-.24.85-.04,1.71-.06,2.56-.02.4.02.5-.01.91.01.16,0,.33.02.48,0,.18-.03.49-.07.66-.12.17-.05.84.04,1.03.03Z"/><path class="cls-4" d="M58.61,56.08c.25.47.35.68.65,1.12.02.03.05.07.08.07.01,0,.02-.01.03-.03.03-.09,0-.24-.04-.36-.49-1.55-.82-3.13-1.19-4.72-.22-.95-.44-1.92-.76-2.85-.08-.23-.17-.48-.22-.72-.03-.12-.04-.22-.09-.33-.04-.08-.08-.08-.1-.18-.16-.52-.3-1.04-.52-1.54-.03-.08-.07-.16-.12-.21-.05-.06-.1-.08-.15-.1-.16-.06-.31-.13-.44-.2.08.72.33,1.41.56,2.11.28.89.51,1.81.74,2.73.19.8.39,1.61.54,2.42.08.39.13.47.22.86.04.15.07.31.14.45.09.16.24.43.34.56.1.13.25.78.33.94Z"/><path class="cls-4" d="M74.7,68.2c.11.57.14.82.29,1.39.01.04.03.09.05.1.01,0,.03,0,.04-.02.06-.08.08-.25.08-.39.02-1.78.14-3.56.3-5.32.11-1.07.22-2.08.33-3.18.03-.27.04-.54.1-.81.03-.13.06-.24.06-.37,0-.09-.03-.12,0-.23.11-.58.22-1.15.33-1.73.02-.09.04-.18.04-.26,0-.09-.02-.13-.04-.18-.07-.15-.13-.3-.18-.44-.31.72-.55,1.53-.71,2.32-.23,1.02-.41,2.06-.54,3.1-.1.9-.21,1.78-.31,2.73-.04.43-.02.54-.05.97-.01.17-.02.35,0,.52.04.2.11.52.17.7.06.17,0,.9.04,1.09Z"/><path class="cls-4" d="M83.07,63.62c.74.03,1.02.04,1.8.08.05,0,.12,0,.14-.02.01-.01,0-.03-.01-.04-.08-.08-.29-.14-.47-.18-2.24-.52-4.51-.9-6.81-1.18-1.38-.17-2.77-.3-4.15-.31-.35,0-.71,0-1.05-.04-.17-.02-.32-.04-.48-.02-.12,0-.15.05-.29.04-.76-.04-1.52-.04-2.28-.04-.12,0-.24.01-.34.04-.11.03-.16.07-.21.12-.16.14-.33.26-.49.37.99.19,2.04.22,3.08.24,1.33.03,2.66.12,3.98.22,1.15.09,2.31.2,3.45.38.54.09.68.06,1.22.15.22.04.44.07.65.06.25,0,.67-.02.9-.05.23-.03,1.13.17,1.38.18Z"/></g></mask></defs><g id="Layer_1_copy"><g class="cls-1"><path class="cls-5" d="M46.87.29c-7.83.57-15.59,2.11-22.53,5.74-2.92,1.53-5.65,3.41-8.19,5.51-5.32,4.39-9.84,9.76-13.26,15.76C1.48,29.75.24,32.39.03,35.2c-.21,2.82.78,5.86,3.1,7.48.58.4,1.22.71,1.86,1.01,33.81,15.83,71.75,19.93,107.66,30.16,6.6,1.88,13.23,3.99,20.08,4.28,2.24.1,4.49,0,6.73-.1,6.5-.28,13.68-.86,18.22-5.52,3.84-3.94,4.75-9.8,5.48-15.26.34-2.52.67-5.14-.1-7.57-2.37-7.48-6.5-14.4-11.97-20.03-13.81-14.22-33.91-20.28-52.73-24.39C85.62,2.47,72.68.32,59.62.04c-4.19-.09-8.48-.07-12.75.24Z"/><path class="cls-5" d="M146.16,51.9c-4.11-3.86-8.93-6.86-13.83-9.65-14.88-8.47-30.76-15.18-47.21-19.94-19.93-5.77-41.33-8.65-61.4-3.36-8.75,2.31-17.64,6.64-22.07,14.53-1.37,2.43-2.22,5.53-.84,7.95.27.48.62.91.99,1.32,3.5,4.01,8.16,6.81,12.85,9.33,26.66,14.34,56.47,21.88,86.35,26.78,8.06,1.32,16.16,2.46,24.32,2.95,7.15.43,14.43.34,21.31-1.63,3.37-.97,6.79-2.52,8.79-5.4,4.73-6.8-4.47-18.39-9.26-22.89Z"/><path class="cls-5" d="M17.18,119.87c-1.06.52-2.15.99-3.26,1.41-1.11.41-2.44,1.02-2.51,2.2-.07,1.25,1.35,2.02,2.58,2.22,3.66.58,6.98-1.18,10.31-2.39,3.95-1.44,8.02-2.55,12.16-3.32.55-.1,1.13-.2,1.67-.04,1.15.35,1.65,1.67,2.54,2.48,1.26,1.15,3.23,1.14,4.83.55,1.6-.58,2.98-1.65,4.47-2.46,4.53-2.47,10.27-2.56,14.87-.22.71.36,1.49.78,2.25.56.48-.14.85-.52,1.24-.85,2.06-1.77,5.13-2.28,7.65-1.27,1.43.57,2.95,1.59,4.36.98.47-.21.85-.58,1.25-.9,2.17-1.71,5.22-1.94,7.92-1.33,2.7.6,5.17,1.93,7.69,3.08,3.64,1.65,7.44,2.96,11.33,3.88.67.16,1.38.3,2.03.09.65-.22,1.18-.94.95-1.58-.26-.7-1.29-1.11-1.14-1.84.14-.63,1-.7,1.64-.61,2.5.32,5.01.65,7.51.97.44.06.94.09,1.26-.21.57-.53.06-1.46-.49-2.01-4.18-4.14-10.21-5.34-15.5-7.44-2.28-.9-5.72-2.14-7.11-4.29s-2.41-5.23-3.05-7.81c-1.46-5.91-1.82-12.09-2.94-18.08-1.24-6.57-2.48-13.14-3.71-19.71-1.11-5.88-4.74-11.23-9.79-14.43-3.72-2.36-8.06-3.53-12.37-4.45-6.41-1.37-13.24-2.2-19.41.03-1.4.51-2.81,1.22-3.69,2.43-2.69,3.69,3.2,5.88,5.29,8.15,2.98,3.25,5.13,7.31,5.74,11.71.82,5.91-1.08,11.85-3.45,17.33-3.68,8.51-8.73,16.71-15.95,22.67-1.65,1.36-2.94,2.23-4.24,3.93-1.38,1.8-2.94,3.47-4.63,4.98-2.5,2.24-5.3,4.13-8.31,5.61Z"/><path class="cls-3" d="M57.64,101.92c-.58-.27-1.06-.24-1.66-.3-1.2-.14-2.42-.29-3.62-.33-1.03-.02-2.06,0-3.1,0-1.52,0-3.03,0-4.55,0-.5,0-1.05-.05-1.57-.11-.57-.07-1.09,0-1.65-.02-.46-.02-.92-.16-1.37-.16-1.28,0-2.56.06-3.84.09-1.45.03-2.91,0-4.37.1-1.07.07-2.15.09-3.22.11-.86.01-1.74-.09-2.6,0-1.18.12-2.35.32-3.53.52-.65.11-1.99-.07-2.13,1.2-.1.85.92.7,1.23.72l1.46.11c.95.07,1.89.13,2.84.15,4.58.13,9.14-.26,13.71-.58,1.91-.13,3.83,0,5.75-.01,1.82,0,3.63-.21,5.44-.35,1.17-.09,2.34-.06,3.51-.18.59-.06,1.18-.15,1.76-.34.48-.16,1-.59,1.49-.6Z"/><path class="cls-3" d="M20,102.81c.2-.26.23-.5.32-.79.18-.58.36-1.16.48-1.75.1-.51.18-1.02.27-1.53l.39-2.24c.04-.25.11-.51.19-.76.08-.27.09-.54.15-.81.05-.22.15-.44.19-.67.09-.64.18-1.27.26-1.9.1-.72.23-1.44.31-2.16.06-.53.13-1.06.21-1.59.06-.43.19-.85.22-1.28.04-.59.06-1.18.06-1.78,0-.33.19-.97-.35-1.15-.36-.12-.39.39-.43.54-.06.24-.12.47-.19.71-.12.46-.23.92-.33,1.39-.47,2.25-.68,4.53-.91,6.81-.1.95-.32,1.89-.48,2.84-.15.9-.2,1.8-.29,2.71-.06.58-.18,1.16-.22,1.74-.02.3-.03.6,0,.9.03.25.19.54.15.79Z"/><path class="cls-3" d="M22.71,84.11c.49.3.9.25,1.41.32,1.02.13,2.05.27,3.07.3.88.02,1.75,0,2.63,0,1.29,0,2.57-.01,3.86-.02.43,0,.89.03,1.33.08.48.05.92,0,1.4,0,.39.01.78.12,1.17.12,1.09-.02,2.17-.08,3.26-.11,1.23-.04,2.47-.04,3.7-.12.91-.06,1.82-.09,2.73-.11.73-.02,1.47.05,2.2-.03,1-.13,2-.22,2.99-.47.55-.11,1.67-.13,1.83-.81.1-.45-.77-.42-1.03-.45l-1.24-.17c-.81-.1-1.61-.13-2.42-.17-3.9-.16-7.77.19-11.65.45-1.62.11-3.25.02-4.88.02-1.54,0-3.07.18-4.61.29-.99.07-1.98.04-2.97.13-.5.05-1,.13-1.49.27-.41.11-.85.51-1.27.48Z"/><path class="cls-3" d="M72.67,103.2c.57.27,1.02.22,1.59.27,1.14.12,2.28.26,3.41.3.98,0,1.94.01,2.91.02,1.43.02,2.86.05,4.28.07.47,0,.99.07,1.48.14.53.08,1.03.02,1.55.05.43.03.86.18,1.29.18,1.21.02,2.42-.02,3.63-.03,1.37-.01,2.76.03,4.13-.04,1.01-.05,2.04-.08,3.05-.09.82-.02,1.65.09,2.47,0,1.12-.14,2.24-.36,3.35-.61.61-.13,1.93-.05,1.94-1.33,0-.85-.92-.64-1.21-.64-.45,0-.9-.02-1.36-.04-.88-.03-1.77-.08-2.65-.09-4.28-.08-8.58.21-12.9.44-1.81.09-3.62-.07-5.43-.1-1.72-.03-3.43.15-5.15.28-1.11.08-2.22.05-3.33.18-.57.07-1.13.17-1.67.39-.46.18-.93.62-1.39.65Z"/><path class="cls-3" d="M107.36,102.09c.15-.24.13-.43.16-.67.06-.48.14-.97.17-1.45.01-.43.02-.82.03-1.23.02-.6.05-1.2.09-1.81.01-.2.05-.41.1-.62.05-.22.04-.43.07-.65.03-.18.12-.35.13-.53.05-.51.09-1.01.14-1.51.06-.57.17-1.14.22-1.71.05-.42.11-.84.19-1.26.06-.34.19-.66.23-1,.05-.47.08-.93.1-1.41.02-.26.24-.75-.32-.97-.37-.15-.42.27-.47.39-.07.19-.15.37-.22.55-.13.36-.26.73-.36,1.1-.5,1.8-.62,3.67-.67,5.53-.02.78-.15,1.55-.2,2.32-.05.74.03,1.47.07,2.21.04.47,0,.95.07,1.42.03.24.08.48.17.71.08.19.29.39.3.59Z"/><path class="cls-3" d="M108.94,87.67c-.43-.38-.82-.39-1.3-.54-.95-.29-1.92-.59-2.89-.77-.84-.16-1.68-.27-2.52-.39l-3.7-.56c-.41-.06-.85-.17-1.26-.29-.45-.13-.88-.13-1.34-.22-.37-.07-.73-.25-1.1-.3-1.04-.15-2.09-.25-3.14-.36-1.19-.13-2.37-.32-3.56-.41-.88-.06-1.76-.18-2.63-.26-.71-.07-1.4-.24-2.11-.26-.98-.02-1.96.04-2.93.07-.54,0-1.62-.17-1.87.5-.16.42.67.55.92.6l1.17.29c.76.19,1.52.4,2.28.57,1.85.39,3.71.68,5.58.86,1.87.19,3.75.34,5.62.48,1.57.12,3.12.46,4.68.69,1.48.22,2.97.26,4.46.37.96.07,1.91.25,2.87.3.49.02.98.02,1.47-.06.41-.06.9-.4,1.29-.31Z"/><path class="cls-3" d="M27.94,101.95c.17-.26.17-.49.23-.77.12-.56.24-1.13.3-1.7.05-.49.08-.98.11-1.46.05-.72.1-1.43.15-2.15.02-.24.06-.49.1-.74.05-.27.03-.51.06-.78.02-.22.11-.43.12-.64.04-.61.05-1.21.07-1.82.03-.69.09-1.38.09-2.06,0-.51.03-1.02.05-1.52.02-.41.11-.82.09-1.22-.02-.56-.07-1.12-.13-1.68-.03-.31.12-.93-.51-1.05-.42-.08-.38.41-.41.55-.04.23-.07.46-.11.68-.07.45-.13.89-.18,1.34-.23,2.16-.17,4.33-.16,6.5,0,.91-.11,1.81-.17,2.72-.06.86-.01,1.72,0,2.58,0,.55-.05,1.11-.04,1.66,0,.28.03.56.1.84.05.23.25.5.23.73Z"/><path class="cls-3" d="M35.19,101.53c.18-.26.2-.49.27-.77.14-.56.29-1.13.38-1.69.07-.49.12-.98.18-1.47l.25-2.15c.03-.24.08-.49.14-.74.06-.26.06-.52.1-.78.03-.22.13-.43.15-.64.05-.61.11-1.22.16-1.82.06-.69.15-1.38.19-2.07.03-.51.07-1.02.13-1.53.04-.41.14-.82.15-1.23,0-.56-.02-1.13-.05-1.7-.02-.32.16-.93-.46-1.09-.42-.1-.4.39-.43.53-.05.23-.1.46-.14.68-.09.44-.18.89-.24,1.34-.33,2.17-.38,4.36-.47,6.54-.04.91-.2,1.82-.3,2.73-.1.86-.09,1.73-.13,2.59-.02.56-.11,1.11-.12,1.67,0,.28,0,.57.06.85.04.24.22.51.2.74Z"/><path class="cls-3" d="M43.09,102.36c.14-.3.11-.55.14-.85.06-.61.14-1.22.18-1.83.03-.53.05-1.04.08-1.56.05-.77.11-1.53.18-2.3.02-.25.07-.53.13-.79.06-.28.05-.55.09-.83.03-.23.12-.46.14-.69.04-.65.09-1.3.13-1.95.05-.74.13-1.48.15-2.21.02-.54.06-1.09.1-1.63.03-.44.13-.87.13-1.31,0-.6-.04-1.2-.08-1.81-.01-.22.05-.59-.08-.85l-.61-1.22-.09.97c-.01.15.03.31.19.46.17.17.33.1.45-.01l-.71-.25c-.03.13-.04.27-.05.34-.04.24-.09.49-.13.73-.08.48-.16.95-.22,1.43-.29,2.32-.31,4.65-.36,6.98-.02.97-.17,1.94-.25,2.92-.08.93-.04,1.86-.02,2.79.02.6-.02,1.21.04,1.81.03.31.08.61.17.91.08.25.3.51.32.76Z"/><path class="cls-3" d="M48.12,103.62c.13-.34.1-.6.12-.93.06-.66.16-1.32.23-1.97.07-.56.13-1.12.22-1.67.13-.82.31-1.63.49-2.44.06-.27.16-.56.25-.83.1-.3.14-.58.22-.88.07-.24.2-.48.25-.72.16-.69.29-1.4.41-2.11.15-.8.28-1.62.33-2.45.02-.61.07-1.23.05-1.84.01-.5.03-1-.02-1.46-.08-.64-.18-1.24-.17-1.83,0-.35.31-.85-.19-1.24-.34-.28-.56.33-.61.52-.11.28-.19.57-.25.85-.11.56-.14,1.12-.14,1.66.04,1.29.04,2.44-.07,3.68-.1,1.22-.27,2.46-.47,3.7-.17,1.04-.49,2.06-.72,3.1-.22.99-.31,2.02-.38,3.04-.04.66-.12,1.33-.08,1.99.03.34.06.68.17,1.01.09.27.32.55.34.83Z"/><path class="cls-3" d="M53.71,101.75c.2-.27.23-.52.31-.82.18-.6.36-1.2.48-1.81.1-.52.18-1.05.26-1.57l.38-2.31c.04-.26.11-.53.18-.79.08-.28.09-.55.15-.84.05-.23.15-.45.19-.69.09-.66.18-1.31.27-1.96.1-.74.23-1.48.31-2.23.06-.55.14-1.1.22-1.64.07-.44.19-.87.22-1.31.04-.61.05-1.22.05-1.83,0-.34.22-1-.4-1.19-.41-.13-.43.4-.47.56-.06.24-.12.49-.18.73-.12.48-.23.95-.32,1.43-.46,2.32-.64,4.68-.86,7.03-.09.98-.31,1.95-.47,2.93-.15.92-.2,1.86-.28,2.79-.05.6-.17,1.19-.22,1.79-.02.31-.03.61,0,.92.03.26.19.56.15.81Z"/><path class="cls-3" d="M77.49,104.7c.18-.32.19-.6.25-.93.13-.68.27-1.36.34-2.03.06-.58.1-1.16.14-1.75.05-.86.21-1.7.33-2.55.04-.28.11-.58.19-.87.08-.31.1-.61.16-.92.05-.26.16-.5.2-.76.11-.72.19-1.45.28-2.18.09-.83.21-1.66.24-2.5.02-.63.04-1.24.06-1.87,0-.5.07-1.01,0-1.51-.07-.69-.22-1.37-.4-2.04-.09-.37-.14-1.16-.77-1.13-.43.02-.26.56-.25.74.03.27.03.54.04.81.03.52.02,1.05.03,1.57,0,2.53-.14,5.08-.39,7.67-.1,1.08-.34,2.15-.5,3.24-.08.51-.12,1.03-.16,1.55,0,.52-.01,1.05-.02,1.57,0,.67-.08,1.34-.08,2.01,0,.34.02.68.08,1.02.05.28.24.59.22.87Z"/><path class="cls-3" d="M83.25,101.98c.2-.23.23-.44.32-.7.18-.52.37-1.04.49-1.57.1-.46.18-.92.26-1.38l.35-2.03c.04-.22.1-.47.17-.69.07-.25.08-.49.12-.74.04-.2.14-.4.17-.61.08-.58.13-1.15.2-1.73.07-.66.17-1.31.21-1.97.03-.49.08-.97.12-1.45.04-.39.14-.78.14-1.17,0-.54-.04-1.08-.08-1.61-.02-.3.14-.89-.49-1.02-.42-.09-.39.38-.42.52-.04.22-.08.43-.13.65-.08.42-.16.84-.22,1.27-.3,2.04-.36,4.1-.5,6.16-.06.86-.25,1.71-.39,2.56-.13.81-.17,1.62-.25,2.44-.05.52-.17,1.04-.22,1.56-.02.27-.03.54,0,.81.03.23.19.5.14.72Z"/><path class="cls-3" d="M88.57,104.15c.18-.28.19-.52.25-.81.13-.59.27-1.19.35-1.79.06-.53.11-1.03.17-1.54l.25-2.26c.03-.25.08-.52.15-.77.07-.28.06-.54.11-.82.04-.23.14-.45.16-.67.07-.64.13-1.27.2-1.91.08-.72.19-1.44.25-2.17.05-.53.11-1.07.19-1.6.06-.43.18-.85.21-1.28.04-.59.04-1.18.05-1.78,0-.33.22-.97-.4-1.16-.41-.13-.43.39-.47.54-.06.24-.12.48-.18.71-.12.46-.23.93-.32,1.4-.44,2.27-.57,4.57-.7,6.87-.06.96-.23,1.91-.34,2.87-.1.91-.1,1.82-.12,2.73-.02.59-.1,1.17-.1,1.76,0,.3.02.6.07.9.05.25.23.53.21.78Z"/><path class="cls-3" d="M94.79,103.43c.18-.26.19-.49.26-.78.14-.57.28-1.14.37-1.71.07-.49.12-.98.18-1.48l.28-2.17c.03-.24.09-.5.15-.74.07-.26.07-.52.12-.78.04-.22.14-.43.17-.64.08-.61.15-1.22.23-1.83.09-.69.21-1.38.28-2.07.05-.51.13-1.02.21-1.53.07-.41.19-.81.23-1.22.05-.57.06-1.13.07-1.7,0-.32.23-.92-.38-1.12-.41-.13-.43.36-.47.51-.07.23-.13.45-.2.68-.12.44-.24.89-.34,1.33-.48,2.17-.64,4.38-.8,6.58-.07.92-.25,1.83-.37,2.75-.11.87-.12,1.75-.16,2.62-.02.56-.11,1.12-.12,1.69,0,.29,0,.58.06.86.05.24.23.51.21.75Z"/><path class="cls-3" d="M100.89,105.25c.19-.27.21-.52.29-.82.16-.6.32-1.2.42-1.81.09-.52.15-1.05.22-1.57l.31-2.31c.03-.25.09-.53.16-.79.07-.28.07-.55.12-.84.04-.23.14-.46.17-.69.07-.66.14-1.3.21-1.95.08-.74.19-1.48.24-2.22.04-.55.1-1.09.17-1.64.05-.44.17-.87.18-1.31.02-.61.01-1.21,0-1.82,0-.34.19-1-.43-1.17-.41-.11-.41.41-.45.57-.05.24-.11.49-.16.73-.1.48-.2.95-.28,1.43-.39,2.32-.49,4.66-.64,7-.06.98-.25,1.95-.38,2.92-.12.92-.14,1.85-.2,2.78-.04.6-.14,1.19-.16,1.79-.01.3,0,.61.04.92.04.26.21.55.18.8Z"/><path class="cls-3" d="M30.86,110.9c-.09-.25-.25-.34-.41-.5-.32-.32-.65-.65-1-.93-.3-.24-.62-.46-.93-.68l-1.36-1.01c-.15-.11-.3-.25-.43-.4-.15-.16-.32-.25-.48-.38-.13-.11-.22-.27-.36-.38-.39-.28-.77-.56-1.15-.84-.43-.32-.85-.67-1.29-.98-.33-.23-.64-.47-.95-.73-.25-.2-.46-.45-.73-.63-.37-.24-.75-.46-1.14-.67-.22-.12-.52-.53-.98-.09-.31.29.02.49.1.58l.37.41c.24.26.49.52.75.77,1.26,1.19,2.71,2.12,4.16,3.04.61.39,1.14.87,1.72,1.3.55.41,1.15.73,1.74,1.07.38.22.72.49,1.11.7.2.11.4.2.63.25.19.05.47-.02.62.09Z"/><path class="cls-3" d="M95.88,112.95c.29-.05.44-.19.66-.33.44-.28.89-.55,1.3-.87.35-.27.68-.57,1.02-.86.5-.42.99-.84,1.49-1.26.16-.14.36-.27.55-.4.21-.13.35-.3.54-.45.16-.12.35-.2.5-.32.42-.36.81-.74,1.22-1.11.46-.42.95-.81,1.39-1.25.33-.32.67-.63,1.02-.93.28-.24.6-.44.85-.71.35-.37.67-.77.99-1.16.18-.22.68-.51.32-1.04-.24-.35-.53-.02-.64.06-.17.12-.35.24-.52.36-.34.23-.67.47-.99.72-1.55,1.22-2.91,2.64-4.29,4.03-.58.58-1.25,1.07-1.87,1.61-.59.51-1.11,1.09-1.66,1.64-.35.36-.75.67-1.09,1.03-.18.19-.34.38-.47.61-.11.19-.15.49-.31.63Z"/><path class="cls-3" d="M70.92,102.65c-.2-.13-.36-.17-.57-.22-.41-.14-.83-.28-1.25-.35-.36-.04-.72-.05-1.09-.08l-1.59-.11c-.18-.01-.37-.04-.55-.08-.2-.04-.38-.02-.58-.04-.16-.02-.32-.08-.48-.09-.46,0-.9-.01-1.35-.02-.47.01-.96-.22-1.49-.28-.39-.05-.8-.11-1.27-.08-.19.01-.39.03-.6.08-.28.08-.48.23-.64.39-.43.43-.54.96-.55,1.47,0,.14-.05.36.02.56.06.2.23.36.48.3.32-.09.26-.29.3-.39.04-.13.11-.26.19-.37.08-.12.17-.22.26-.31.07-.1.15-.19.23-.27.1-.1.14-.12.21-.14.11-.04.26-.06.42-.08.33-.03.7,0,1.09,0,.39.02.8,0,1.24.06l1.21.05c.67.03,1.34.16,2.02.25.64.09,1.28.06,1.92.11.41.03.82.1,1.23.08.21,0,.42-.06.63-.15.18-.09.37-.27.55-.3Z"/><path class="cls-3" d="M69.96,106.31c-.2-.24-.39-.25-.61-.33-.45-.16-.91-.35-1.36-.42-.39-.07-.79-.1-1.19-.14l-1.74-.17c-.19-.02-.4-.07-.6-.12-.21-.06-.42-.03-.63-.06-.17-.03-.34-.12-.52-.14-.49-.04-.99-.03-1.48-.06-.56-.04-1.12-.11-1.68-.12-.41,0-.83-.04-1.24-.07-.17-.01-.33-.05-.5-.07-.09-.01-.17-.02-.25-.03h-.12c-.08-.01-.16-.01-.24-.02-.44,0-.85.2-1.02.56-.09.17-.12.39-.14.6-.04.25-.03.28-.04.42-.02.25-.28.72.44.94.17.06.33,0,.44-.08.07-.1.07-.23.09-.28.06-.18.12-.36.18-.53.02-.2.12-.15.17-.1-.07,0,.28.05.47.07.22.02.44.04.66.07.44.04.88.06,1.32.07.87.02,1.76.03,2.64.05.74.02,1.47.19,2.2.3.69.1,1.39.07,2.09.07.45,0,.89.1,1.35.08.23-.01.46-.05.69-.14.19-.08.42-.35.61-.33Z"/><path class="cls-3" d="M69.16,109.54c-.23-.28-.44-.3-.7-.39-.52-.2-1.04-.41-1.57-.51-.45-.09-.91-.13-1.37-.18-.67-.08-1.34-.15-2.02-.22-.22-.02-.46-.08-.69-.15-.25-.08-.48-.04-.73-.07-.2-.02-.4-.15-.61-.15-.57-.02-1.14,0-1.72.01-.65,0-1.3-.02-1.95.02-.48.03-.96.04-1.44.04-.22,0-.33-.03-.63-.05-.19-.02-.37,0-.55.04-.17.04-.36.07-.48.21-.18.16-.28.4-.36.65-.1.29-.09.35-.13.51-.05.28-.08.57-.1.86-.03.31-.17.94.49,1.09.18.05.31-.04.41-.14.07-.11.09-.25.11-.31.08-.19.16-.38.24-.56.14-.31.4-.87.4-.74.04,0,.03.02.09.03.25,0,.51.01.76.04.51.04,1.01.06,1.52.07,1,.02,2.02.03,3.03.05.85.02,1.69.2,2.53.3.8.1,1.6.04,2.4.02.52,0,1.03.09,1.55.07.26-.01.53-.05.8-.15.22-.09.49-.4.71-.38Z"/><path class="cls-3" d="M67.26,113.58c-.25-.25-.49-.27-.78-.37-.57-.2-1.15-.41-1.74-.51-.51-.09-1.02-.15-1.52-.21l-2.24-.3c-.25-.03-.51-.1-.76-.18-.27-.08-.54-.08-.81-.11-.23-.03-.44-.15-.67-.16-.64-.04-1.27-.04-1.91-.06-.72-.03-1.45-.05-2.17-.1-.53-.02-1.06-.07-1.59-.12-.22-.02-.38-.07-.82-.05-.11-.03-.25-.04-.39-.02-.13.04-.25.09-.36.16-.22.14-.4.31-.46.49-.21.49-.19.85-.2,1.12,0,.29,0,.59-.01.89-.02.33-.23.95.52,1.21.48.17.58-.33.63-.48.1-.22.18-.45.27-.68.08-.23.17-.45.25-.67.08-.24.15-.42.21-.5.02-.02.03-.04.04-.04-.04-.02-.18-.13-.2-.16-.04-.04-.05-.07-.04-.05-.02-.06.01.04.02.08,0-.03,0,0,.01-.01l.33.04.42.05c.56.06,1.13.12,1.69.16,1.12.14,2.25.26,3.37.35.94.1,1.87.31,2.81.44.89.12,1.79.09,2.69.11.58.02,1.15.13,1.73.13.3,0,.59-.02.89-.12.25-.08.55-.36.8-.34Z"/></g></g></svg>