<svg xmlns="http://www.w3.org/2000/svg" id="Layer_2" viewBox="0 0 142.3 132.1"><defs><filter id="luminosity-noclip" width="142.3" height="132.1" x="0" y="0" color-interpolation-filters="sRGB" filterUnits="userSpaceOnUse"><feFlood flood-color="#fff" result="bg"/><feBlend in="SourceGraphic" in2="bg"/></filter><style>.cls-3{fill:#ebc434}.cls-4{fill:#e8bc16}.cls-5{fill:#202020}</style><mask id="mask" width="142.3" height="132.1" x="0" y="0" maskUnits="userSpaceOnUse"><g style="filter:url(#luminosity-noclip)"><path d="m66.7 45.8-1.2.7q-1.2 1-1.8 2.6l-.7 2.6-.4 3.8-.2 1.3-.2 1.4-.8 4.3-.9 3.6-.6 2.7-.6 2.1-.5 3v1.9c.1.1.4-.7.4-1l.3-1.2.6-2.3 1.4-5.7.7-2.8.5-2.9.6-4.9q.2-2.3.6-4.5a9 9 0 0 1 1.9-3.8q.3-.5.9-.9m32 9.4.5.6 1 1.5.9 1.2a9 9 0 0 1 1 2.9v.8l.2.7.3 1.8.5 2.2.3 1.5.2 1.3.5 1.7c.1.3.3 1 .5 1v-1.3l-.2-1.4-1.4-6.8-.6-2.8q-.4-1.3-1.3-2.5l-1.7-2zM75.4 44.8l.9.2q1 0 2 .4l4.8 1.3.8.3.7.3 1.9.8 2.1 1 1.5.9 1.2.7 1.7 1c.3.2.9.6 1 .5.2 0-.2-.4-.3-.5l-.6-.5-1.3-1q-3-2.2-6.7-3.5l-3-1-3-.6-1.9-.3zm35.1 51.7q0-.4-.3-.8l-.5-1.8-.5-1.5-.6-2.3-.2-.8-.2-.8-.1-.7-.5-2-.6-2.2-.4-1.6-.3-1.3-.6-1.8c-.1-.3-.3-1-.6-1s-.1.5 0 .6v.8l.4 1.4q.6 3.6 1.7 7l.7 3 1 2.7.6 1.7.5.8zM88 97.6v-3.7l-.1-8q0-3.6-.3-7a9 9 0 0 0-13.3-7.2q-1.5.7-2.6 2a9 9 0 0 0-2 4q-.5 2-.5 4.3l-.7 9.7-.4 6.7h7.3q3.9-.3 7.9-.3c1.4-.1 4.4 0 4.8-.5s-2-.3-2.6-.3H69.2l.7-11 .4-5.8q0-1.5.3-2.9.3-1.2 1.1-2.5a8 8 0 0 1 10.8-2.6 8 8 0 0 1 4.4 6.9l.2 3 .3 7.9.3 3.9zM69.1 111h1l2 .1h1.7l2.5-.1H78l.7.1H85l1.4.2.1.3.2.7.2.9.6-.1-.4-.2q-.3 0-.2.4l.6-.2V112l-.2-1.7h-.6l-2-.1h-8.9l-3 .2-2 .2-1 .2z" class="cls-5"/><path d="m85.3 112.8-.8-.1-1.8-.1h-6l-2 .1-2.1.2-1.6.2h-1.3l-1 .2-.3 1.4c0 .3-.4.9 0 1.1s.5-.3.5-.5l.3-.6.1-.4v-.1h.4q3.3-.2 6.7-.7h2.9l2.7-.3 2.6-.2zM71 116.2h.7l1.8.2 1.5-.1h3l.8-.1h.7l1.9-.1 2-.1 1.6-.1h.7l.1.5.3.9c.1.3.4 1 .8.8.3 0 .1-.5 0-.6l-.2-1.3v-.9q-.1-.3-.5-.5h-1.5l-1.7.2-3.3.3-2.8.1-2.7.2-1.7.2-.9.1z" class="cls-5"/><path d="m83.2 117.6-.8-.1h-6.1l-.8.1H73l-2 .2-1.6.1h-1.3l-.2.3q-.4.7-.3 1v1q-.1.8.5 1c.3 0 .1-.4.2-.5v-.7l.2-.6v-.2l.1-.2h1.2l1.6-.2 3.3-.3 2.7-.1q1.4 0 2.6-.3l1.7-.1.8-.2zm-13.6 4h4.7l2.5-.3h2.5l2.1-.2 2.4-.3 1.8-.1h1.3q.8-.2 1 .7v.8q.4.5.7.3V121q0-.5-.5-1t-1-.4h-2l-1.8.2-3.8.4-3.2.2-3 .4-1.9.2-1 .2z" class="cls-5"/><path d="M83.1 82q.3-1 0-2l-.5-1-.5-1-.2-.6-.6-.5q-.7-.9-1.9-1.3-1.1-.2-2.2.2-1.1.6-1.8 1.5c-.7 1-.7 1.5-.7 2.3q.1 1.3 1 2.4t2 1.4l.6.3 1.8.4q.9.2 1.8-.3T83 82m.8 7.7.6-.3.3-.3.3-.2v-.2l.2-.2.1-.8-.3-.6-.7-.4-.8.1-.6.6-.2.8v.2l.1.6.3.5q.4.3.7.2"/><path d="m25.5 68.5-.2-.2-.4-.3h-.3l-.6-.3-.2-.1-.2-.1-.4-.2-.5-.1-.4-.1-.3-.1h-.4q-.2-.1-.4.4v.3l.2.1.3.2 1.7.3.6.2.7.1.4.1h.2zM24 64.6q0-.2-.2-.3l-.4-.3-.3-.3-.8-.4-.2-.1V63l-.5-.3-.6-.3-.3-.2-.3-.3-.5-.1s-.2-.2-.5.2v.3l.1.2.3.3 1.7 1q.4 0 .7.4l.8.2.4.2zm.7-5.2-.2-.2-.4-.4-.4-.1-.6-.3-.1-.2-.2-.1-.2-.2-.4-.3q-.2 0-.5-.3l-.3-.2-.3-.3-.4-.2q0-.2-.6.1v.5l.3.4q.8.7 1.7 1l.8.5.7.3.5.1h.3zM16 64q0-.2-.2-.3l-.5-.3-.4-.2-.8-.4-.2-.1-.1-.2-.5-.2-.6-.3-.4-.3-.3-.2-.5-.2q0-.2-.5.1-.2.3 0 .4l.1.2.3.3q.8.7 2 1l.7.4.9.3zm0-5-.1-.3-.5-.4-.5-.2-.6-.3-.2-.1-.2-.2-.2-.1-.5-.3-.6-.3q-.3 0-.5-.2l-.3-.2-.6-.1q-.1-.1-.5.1v.3l.2.2.3.4 2 1 .9.4.8.3.6.1h.3zm-3.5-5.3v-.2l-.2-.2-.2-.2-.3-.2-.2-.2-.3-.2-.3-.2-.1-.1-.2-.1-.3-.1h-.2v.2l.2.3q.3.4.8.6l.4.3.4.2.2.1zM9 58v-.3q-.3 0-.4-.3l-.3-.2q-.3 0-.4-.3l-.2-.1-.1-.1-.1-.2-.4-.3-.4-.3-.3-.2-.2-.2-.3-.2q-.1-.1-.4 0v.3l.2.4q.4.8 1.3 1.2.3.1.5.4l.7.3.4.2h.2zm-.2 4-.2-.2-.1-.2-.3-.1v-.1H8v-.1l-.3-.1-.2-.2h-.1l-.2-.1H7l-.2.1v.2l.1.2.7.4.3.2h.3l.2.1h.3Zm2.4 4.5H11l-.4-.3-.3-.2-.5-.2-.1-.1-.2-.1-.1-.2-.4-.2-.4-.3-.4-.2-.2-.2-.5-.1-.3.1v.2l.2.1.2.3L9 66l.6.3.7.2.4.1h.3zm4.8.2-.2-.3h-.1l-.3-.2h-.1V66H15l-.2-.1-.1-.1h-.4q0-.2-.2.1v.2l.1.2.8.4.3.1h.7m3.3 3-.2-.1-.5-.2-.4-.1-.5-.2h-.2l-.2-.1-.2-.1-.5-.1-.5-.1h-.4l-.3-.2h-.5l-.3.2v.2l.2.1.4.2 1.7.4.7.2H19zm7.1.7-.4-.2h-.2l-.4-.1h-.2l-.2-.1h-.3l-.3-.1h-.8l-.2.2v.2h.2l.2.2 1.1.1h1.4zm4.1-4-.2-.1-.4-.2h-.3l-.4-.2H29l-.2-.1-.1-.1-.4-.1-.4-.1-.3-.1-.2-.1-.4-.1-.3.1v.2l.1.1.3.2q.6.4 1.3.5l.6.2h1.3Zm8.5 4.2-.4-.2-.9-.2H37l-1.1-.2-.4-.1H35l-.3-.2-1-.1-1-.1-.8-.1-.6-.2h-.8q-.4-.1-.6.2 0 .3.2.3l.4.1.6.3q1.6.4 3.4.5l1.4.2h2.6zm-1.7-2.9H37l-.2-.2h-.2l-.2-.1-.2-.1-.2-.1h-.3l-.1-.1-.2-.1h-.2l-.2.3v.2l.2.2.8.1.3.1h.6zm-3.7-4.2-.2-.2h-.1l-.3-.2h-.1l-.3-.1h-.2l-.1-.1H32l-.2.1v.2l.2.1q.3.3.7.2h.3l.3.1h.3M28.2 62v-.1l-.1-.2H28l-.2-.1v-.1l-.2-.1h-.2v-.1H27l-.2.1v.2l.1.2.5.1.2.2h.5zm7.6-1h-.2l-.5-.3h-.4l-.7-.3-.2-.1-.2-.1-.5-.2-.9-.4-.3-.2-.4-.2h-.4l.1.2.1.2.3.3q.8.5 1.7.8l.8.3.7.2h.8zm5 4.7v-.2l-.2-.1h-.2l-.2-.2H40V65h-.4l-.2-.1H39l-.2.3v.2h.1l.1.1q.4.2.8.1l.3.1h.5zm2.7 3.2-.1-.1-.3-.2h-.6l-.2-.1-.4-.1h-.3l-.2-.1-.2-.1H41l-.2.3v.2h.1l.2.2q.5.3 1.1.2h1.2zm1.3 2.7-.1-.1h-.9v-.1h-1.3l-.2.2-.2.3q0 .2.1.1h.2l.2.1 1-.1h.4l.3-.1h.3l.1-.2zm5.8.5H48l-.3.1h-.2l-.4.2-.2.3h.3l.3.1q.8 0 1.4-.2h.5l.6-.2h.3l.2-.1zm4.2.9h-.9v-.1h-.5l-.2.1h-.1l-.2.2v.3h.1l.2.1.7-.1h.3l.3-.2h.2v-.1zm2.2-4.6h-1.3l-.7.1h-.7l-.6.2-.7.1h-.5l-.4.1-.5.2q-.2-.1-.3.4.1.3.2.2h.7q1.1 0 2.2-.4l.9-.1.8-.2.6-.2.2-.2.2-.2Zm-9.3.8-.2-.2h-.3v-.1h-.7v.6l.1.1h.7l.2-.1.1-.1zm6.2-4h-1.6l-.9.1h-1.6l-.8.2h-1l-.6.2q-.3 0-.4.3.1.3.2.2h.3l.5.1q1.4.1 2.7-.2h1l1-.3.7-.1.3-.2zm-10.4-1.4-.2-.2h-.1l-.2-.1h-.1l-.1-.1H42l-.1-.1h-.2l-.1.2v.1l.2.1.7.2h.7zm1.4-2.3-.3-.1-.7-.1h-.5l-.8-.1-.3-.1H42l-.2-.2H41l-.8-.1h-1.7q-.2 0-.4.3 0 .3.2.2l.2.1.5.2q1.3.3 2.5.3l1 .1h1.8l.3-.2zm6.2 1h-.9l-.1-.1h-1.4l-.2.2v.1h.2l.2.1h1.4l.4-.1h.3zm10.8-.2-.1.2h-1.3l-.7.1h-1.3l-.7.2h-.9l-.6.3-.3.3q.1.3.2.2h.2l.5.2q1.1.1 2.3-.2l.9-.1.9-.3.5-.1.3-.2.1-.2zm-2.2 3.5h-1.9l-.2.1-.2.1v.5h.3l.9-.2h.4l.3-.2h.2l.1-.1zm0 5.2-.1-.2H59v-.1h-.8v.2q-.2 0-.1.3v.2h.1l.2.1.5-.1h.3l.2-.2h.1zm46.8-8.7h-.9l-.4.1h-.5l-.3.1h-.5l-.3.1h-.2l-.4.2-.2.2.1.2h.2l.3.1q.8 0 1.4-.2h.7l.5-.3.3-.2.2-.1zm.6 3.4h-.9l-.4.1h-.4l-.4.2h-.4l-.3.1h-.2l-.3.2-.2.2.1.2h.5q.7 0 1.3-.2l.6-.1.5-.3h.3l.1-.2zm3.6 1h.2l.7.1h.5l.7-.2h.8l.6-.3.6-.2.5-.2q.3 0 .4-.2.3 0 .5-.3.2 0 .3-.3t-.3-.1h-.7l-2 .8-1 .1q-.4 0-.8.3l-.6.2-.2.1zm.6-3h.6v.1h.4l.1-.1h.1l.1-.1v-.3l-.1-.2h-.2l-.5.1h-.2l-.2.2h-.1zm12.3-1.7h-.7l-.3.1-.5.2h-.6l-.4.1-.4.2-.4.1h-.3l-.3.3-.2.3q.1.3.2.2h.5q.7 0 1.5-.5l.7-.1q.3 0 .5-.3l.4-.2.1-.2zm-2.9-1.5h2l.4-.1.5-.1h.3l.3-.1.4-.2.1-.3-.1-.2h-.5q-.8 0-1.5.3l-.6.1-.6.2-.4.1-.2.1zm-6 1.2.1.1h.7l.1.1h.7l.2-.2v-.4h-.3l-.6.1h-.3l-.3.1h-.2zm-1.3-1.5h-1.3l-.1.1h-.2l-.3.1-.3.1-.3.1h-.2l-.3.3q-.2 0 0 .2v.2h.5l1-.4h.6l.4-.3h.3l.1-.2zm10.9 4.1h.8l.5-.2.6-.3h.2l.3-.1h.2l.5-.3.6-.3.4-.3.4-.1.4-.4q.2 0 .2-.3h-.5l-.4.2-1.8.9-.8.2-.8.4-.4.2-.3.1zm-1.8 1.3-.3-.1h-1.6l-.2.1-.2.3.1.2h1.6l.4-.2h.2v-.1zm12.9-4.6h-.2l-.2.2-.2.1-.3.2h-.2v.1q-.2 0-.3.2l-.2.2-.2.1-.2.1v.2q-.2-.1 0 .4 0 .2.2.1h.3l.8-.7.3-.3.3-.3.1-.2zm2.6-2.9h.4v-.3h.1v-.1l.1-.1V57l-.1-.2h-.2q0-.2-.2 0v.9l-.1.1-.1.1zm-2.7-4.6-.2-.3-.1-.2-.3-.2v-.2h-.2v-.2l-.2-.2-.3-.2-.2-.1-.2-.2h-.6v.3l.2.3.8.7q.2 0 .4.3l.3.2.3.1zm-7.6-4.7v.1l.1.3.2.1.1.2v.1l.1.1.3.2q0 .2.2.2l.1.2h.1l.3.1.2-.1q.2-.2 0-.2v-.2q-.3-.4-.7-.5l-.3-.3-.2-.2h-.2l-.1-.1zm4.8 6.9q.3-.2.2-.3v-.2l.1-.2v-.8l-.1-.2v-.2l-.3-.1h-.3v.4l.2.6v.9zm-2.5 3.2h.4l.2-.1.3-.3h.2v-.2h.2l.1-.3.2-.3v-.3l.2-.1V57q0-.2-.2-.3h-.3l-.2.2-.4 1-.3.2-.2.3-.2.1zm-1-3.9-.2.2-.1.3v.2l-.2.4-.1.2-.2.2-.1.3-.2.3-.1.2-.2.2-.1.3q-.2 0 0 .3t.3 0l.3-.1q.6-.5.8-1.2l.2-.6v-1zm3.4 4.9h.2l.3-.1.2-.2.4-.2h.1l.1-.1h.2l.2-.3.3-.2q0-.2.2-.2l.1-.2.1-.3v-.3h-.3l-.2.2q-.5.3-.9.8l-.3.2q-.2.1-.3.4l-.3.2zm-6.4 1.5.2.1h.8l.2-.1.2-.2V61h-.2l-.6.1h-.3l-.2.2zm.7-6.7-.2.1-.2.2-.1.2-.3.2v.1l-.2.1-.3.3-.2.2-.2.1-.1.1-.2.3q-.2 0 0 .3h.5q.5-.3.9-.8l.3-.4.2-.4.2-.2v-.2zm-1.2-4.7v1.3l.1.2.1.3.1.2.1.2.2.2h.3v-.5q0-.4-.3-.8l-.1-.4-.2-.3v-.2h-.1zm-2.7 1.5.1-.1.1-.2v-.8l-.1-.2-.2-.3-.1-.1-.1-.2h-.2q0-.2-.3 0v.4l.4.6v.3l.2.3v.2zm-1.8 4.2h.3l.1-.2.2-.1h.1v-.1h.2l.1-.2.2-.1.1-.2h.1v-.3q.2 0 0-.2h-.4l-.5.6-.2.2-.2.3-.1.1zm-1.6 1.3h-1.2l-.1.2v.4h.7l.3-.1.2-.1zm-4.5 1.9h1l.3-.2.2-.1.2-.1h.2l.1-.2V58h-.4l-.7.3-.3.1-.3.2h-.2v.1zm-9.5 1.4h-1.5l-.3.2h-.4l-.2.2-.1.2v.2h.4l1-.2h.4l.3-.2.3-.1v-.1zm5.5-1.9-.3-.1h-.7l-.2.1-.3.1h-.2l-.1.1-.2.2v.4h.3q.5 0 .8-.3h.4l.3-.2.2-.1zM114 57v-.2h-.1v-.1l-.1-.1v.5zm4.5-4.5-.2.1-.2.3-.2.2-.2.4-.1.1-.1.2h-.1l-.2.4-.3.3-.2.2-.2.1-.1.3q-.2-.1 0 .4 0 .2.2 0h.1l.3-.1q.5-.5.8-1.2l.4-.5.2-.5.1-.3zm.9-5.5-.1.2-.2.4v.3l-.1.5v.1l-.1.2v.1l-.1.4v.8l-.1.2v.4l.3.3h.2v-.2l.2-.3q.3-.7.2-1.5l.1-.6v-.9l-.2-.2zm5.5-1.8-.1.1v1.3l.2.3v.6l.1.3.2.2.3.2q.2 0 .1-.2v-.3l-.2-1.2V46l-.2-.4-.1-.3h-.2zm-2.7-3.2v.6l.2.2v.1l.1.1v.1l.2.2.2.2.1.1.2.2h.2l.3-.1v-.3l-.1-.2-.6-.5-.2-.3-.2-.2-.2-.1zm-.6 2.5v-.7l-.1-.4v-.2l-.2-.3-.2-.2-.2-.2v-.2l-.3-.1h-.3v.2l.1.2.5.8.2.4q0 .2.2.3v.2l.2.1zm6.3 2v-.7l-.2-.3V45l-.2-.3-.2-.3-.2-.3-.2-.1-.3-.1h-.3v.2h.2v.2l.6.9v.4l.3.4.2.3h.1zm-5.1.6v-.8l-.1-.2-.1-.2v-.1l-.1-.1-.2-.1h-.4v.3q0 .5.2.6v.3l.3.2v.1zM117.7 37v.2l.2.3.2.3.3.4v.1l.2.2v.1l.3.3.4.3.2.2.2.2.4.2.4-.1v-.2l-.1-.2-.2-.2-1-1q-.3-.1-.4-.4l-.4-.4-.3-.2-.2-.1zm-2.6.8v-.4l-.2-.2-.2-.2-.1-.1v-.1l-.2-.2-.3-.1-.1-.1-.1-.1h-.3q0-.2-.2 0v.3l.1.2.7.4.2.3.3.2h.1zm1.9 3.6V41l-.2-.2v-.1l-.1-.2-.1-.1-.1-.1v-.1h-.5v.4q0 .3.3.4l.2.2.1.1.1.1zm1.6 3.8V45l-.1-.2-.1-.2v-.1l-.2-.2V44l-.2-.1v-.1l-.1-.2h-.3v.4l.3.6v.3l.3.2v.1zm-8.4-12.7v.1l.1.3.2.2.3.3v.2h.2v.2l.3.2.3.2.2.1.2.2h.3q0 .2.3 0v-.3l-.2-.2-1-.7-.3-.4-.4-.2-.2-.2h-.4Zm-8.7-4.1.2.2.2.2.3.1.4.2.2.2h.1l.4.2.3.1.3.1.2.1h.4q0 .2.3-.2v-.2h-.2l-.2-.2q-.6-.4-1.2-.4-.2 0-.5-.3h-.5l-.3-.2h-.2zm6.5 4.1v-.4l-.2-.1-.2-.2v-.1h-.2v-.2l-.2-.1-.2-.2h-.2V31h-.3l-.3.1v.5l.8.5.2.2.3.2zm7.8 2.5v-.1l-.2-.3-.1-.1-.3-.3-.1-.2-.2-.1-.3-.2-.1-.2h-.2l-.2-.2-.3.1v.3l.1.2q.3.4.8.6l.3.3.3.2zm-11-7 .2.2.2.2.3.2.3.2.1.1.1.2h.1l.3.3.3.2.2.2.2.2.3.2.4-.1v-.4l-.2-.2-1.1-.8q-.2 0-.5-.3l-.5-.2-.3-.1zm-6.5-3.4v.2q.2 0 .3.2l.2.1.3.2.1.1h.1l.1.2h.3l.3.2.3.1.2.2h.3l.2-.3v-.3l-.2-.2-1-.4-.5-.2-.4-.1zm-4.9-1.3v.1l.2.2.1.1.2.1.1.1.1.1h.2l.3.1h.2v.1h.3l.1-.3v-.2l-.2-.2-.6-.1-.3-.1zm-6-1.4v.1l.2.2h.4v.1h.1l.1.1h.2l.2.1h.5l.1-.2v-.2L89 22h-.7l-.3-.1zm-7-.8h.2l.3.2h.3l.4.2h.3l.2.1h.3l.4.1h.3l.3.1h.3l.3-.2-.1-.2h-.1l-.3-.2-1.3-.1-.6-.1zm-8.1-.3h.2l.6.2h.5l.7.2h.5l.3.1h.6l.7.1h.5l.4.1h.6q.2 0 .4-.3 0-.3-.2-.3H78l-.5-.2q-1.1-.2-2.2-.1h-2.7zm-8.3-.9-.3-.2h-.4v-.1h-.2v-.1h-.7l-.2-.1H62l-.2.2v.2h.2l.1.1q.4.2.9.1l.3.1h.6zm6.3 1.7-.1-.1-.2-.2h-.3l-.3-.1h-.1l-.1-.1-.1-.1h-.3l-.3-.1h-.7l-.2.2v.2l.1.1.2.1 1 .1.5.1zM52 19.4l.2.2.6.1h.5l1 .1h2.4l.4-.1.6-.2q.3 0 .3-.3t-.3-.2h-.6l-2.2.2h-2.4l-.3.1zm-8.3 1h.1l.2.1h.5l.2.1h.6l.3-.1V20h-.1l-.2-.1-.7.1h-.3l-.2.1h-.2l-.1.1zm-5.3.9-.2-.2h-.3V21h-.6v.5l.1.2h.8l.1-.1zm-.4.9.2.1.3.1h1.7l.3-.1h.2l.2-.2q.2 0 .2-.3l-.1-.2h-.4q-.6-.1-1.1.1H39l-.5.2h-.3v.2zm-4.5 1.3-.2-.2h-.7v.6h.7l.2-.1zm-2.2-1.3h.7v.1h1l.1-.2v-.5h-1l-.3.1-.2.1h-.2v.2zM23 25h.5l.2-.1.5-.2h.4l.3-.2.4-.1.3-.1.2-.1.3-.2q.1.1.1-.4 0-.2-.2-.2h-.4q-.7.2-1.2.6l-.6.2-.4.3q-.2 0-.3.2l-.1.1zm-1.7 1.3h-.5l-.2.2-.4.2h-.4l-.3.3q-.2 0-.3.2l-.2.1.4.4v-.2l.2-.3V27h-.2l-.2.2-.3.2-1.6.7 2-.3q.4-.1.8-.5l.4-.2q.3 0 .4-.3l.3-.2v-.1zm2.8.7h.3l.2-.2h.2l.1-.1h.1l.1-.1v-.4l-.2-.1h-.2l-.3.3-.2.1v.2l-.1.1zm-3.2 3h-.2l-.2.2-.2.1-.3.2-.2.1-.3.3-.2.2-.2.1-.1.1-.1.2v.3q0 .2.2.1h.3l.8-.7.3-.3.2-.3.2-.2v-.3Zm-6.1 2 .2-.1.2-.1.2-.1.3-.2.2-.2.3-.2.2-.2.1-.2.2-.1V30h-.5l-.7.8-.3.3-.2.3-.2.2zm-2.3.7v.3h.5v-.3l-.1-.1zl.2.2zm2.2-2.7-.2.2-.2.1-.2.2-.2.2-.2.2-.2.2-.1.2h-.1l-.1.3v.2h.1l.2-.1.6-.7.3-.3.2-.2.1-.2zm-6.4 8.8h.2l.2-.3.2-.2.3-.4.2-.1.2-.3.2-.2.2-.2.1-.1.2-.3v-.3h-.6q-.5.4-.8 1l-.3.4-.2.4-.2.3v.2zm-.6 1.6-.3.2-.2.2-.2.3h-.2v.2h-.1l-.2.3-.2.3-.2.2-.1.2-.1.2v.3q.2.2.3 0l.2-.2.7-.9.3-.3.3-.4.1-.3zm4.1-3.4.2-.1v-.2l.2-.2h.1v-.1h.1l.1-.3.1-.2.1-.1v-.2l.1-.2-.2-.2h-.2l-.1.1-.4.7-.1.3-.1.3-.1.2v.2Zm3.5-2-.3.2-.2.2-.2.2v.1l-.2.1-.2.3-.2.3-.1.2-.2.2v.2l.1.3h.3l.2-.2q.4-.3.6-.8l.2-.4.2-.4.1-.2zm.1-1.4h.3l.1-.1.2-.1.2-.1v-.1l.2-.2h.1l.1-.1v-.4l-.2-.1h-.2l-.4.5-.2.2-.2.2zM5.3 46.5l.2-.3v-.1l.2-.3v-.2H6v-1.1l-.3-.1h-.2l-.1.2-.1.8-.1.4v.6zm4.3.8.2-.2v-.4l.1-.1v-.8l-.3-.1h-.2v1.6zm-2.3.7-.2.5V51l.2.4v.3l.2.3q0 .3.3.2l.2-.1v-.5L7.7 50v-.7l-.2-.5V48zm-2.8 6.6v-.2l.2-.5v-2.1l-.1-.6v-.7l-.2-.4v-.3H4l-.2.3-.1.4q-.2.9 0 1.8v.8l.2.7.1.4.1.2zm.2 4.6v-.1l-.1-.4-.2-.2-.2-.3V58l-.1-.2-.2-.3-.2-.3-.2-.2v-.2q-.2 0-.3-.2h-.4v.6l.7 1 .3.4.3.4.2.2z" class="cls-5"/><path d="M4.6 58.3v.4l.1.3v.2l.2.2.1.1.2.2.3.1.2-.1.1-.2v-.3l-.5-.4-.1-.2-.2-.2-.1-.1zm5.1-15.6v-.1l.2-.2v-.2l.2-.2v-.1l.1-.1v-.2l.2-.3v-.1l.1-.1v-.3l-.1-.2H10l-.2.1-.3.8-.1.4v.6zm1.9.9-.1.2-.1.6v1.9l.2.5q0 .4.2.7l.1.5.1.3.4.5q-.1.2.4.2.3 0 .2-.3v-.2l-.1-.4q-.1-1-.5-2l-.1-.8-.2-.8-.1-.5-.2-.2zm2.8.3v-.2l.2-.4v-.7l.1-.1v-.2h.1v-1.1l.1-.2v-.4l-.4-.2h-.3v.2l-.2.2q-.2.8 0 1.4l-.1.5v.6l.1.3.1.2zm3.4 9.7V53l-.2-.2-.3-.2v-.2l-.1-.2-.2-.2-.2-.2-.2-.2-.1-.2-.3-.1H16l-.1.3v.3q.3.6.8.8l.3.4.4.2.2.2h.3m8.6 1.1-.3-.2-.6-.4-.5-.3-.8-.4-.2-.2-.3-.1-.2-.2-.7-.3-.7-.5-.6-.3-.4-.3-.6-.3h-.5q-.2.2 0 .3l.3.2.4.4q1 .9 2.3 1.4l1 .6 1 .4q.4 0 .7.3zm.8-2.2v.2l.3.4.3.3.4.3v.2l.2.1.1.1.4.3.5.2.4.2.2.1h.5l.3-.3v-.3h-.2l-.2-.3-1.4-.6q-.2 0-.5-.3t-.5-.3l-.3-.2zM19.5 49v-.2l-.3-.4-.2-.4-.3-.5v-.6l-.2-.4-.2-.4V45l-.3-.3h-.2l-.1.3-.2.3q-.1 1 .4 1.9l.3.7.4.6q.2 0 .4.3h.5Zm8.9 9-.2-.2-.1-.1-.3-.2h-.1l-.1-.2h-.2l-.3-.1h-.2l-.1-.2h-.2l-.2.2v.2l.2.2.8.3.3.1h.3l.2.1zM21 54.2v.4l.2.2.2.2h.1v.1l.1.1.2.1.3.2h.2l.1.2h.3l.2-.2v-.3l-.2-.1-.7-.4-.3-.2-.3-.2h-.1l-.2-.1zm18.1 4-.2-.1-.4-.2-.3-.1-.6-.2-.1-.1h-.2l-.2-.2-.4-.1-.5-.2h-.4l-.3-.2h-.4q0-.2-.4.1v.3l.2.1.3.2q.8.5 1.7.6l.7.2h.7l.4.1h.2zm2.6-.4.1.1.3.2.3.1.4.2h.1l.2.1v.1h.4l.5.2h.3l.2.1h.3q.2.1.3-.4v-.2l-.2-.1-.2-.2q-.6-.3-1.3-.2l-.5-.1h-1zm9.8 1.9-.2-.1-.4-.2h-.5l-.6-.2h-.4l-.2-.2h-1l-.5-.1H47l-.3.3.1.2.2.1.4.1q.9.3 1.8.2l.8.1h1.4zm2.9-.1.3.2h.8v.1h1l.2-.2.2-.1q0-.2-.1-.1h-.1l-.2-.1h-2zm3.1-3-.2-.1-.4-.2h-.3l-.5-.1h-.3l-.1-.1h-1.8l-.2.3v.3h.2l.3.1h3.1zm1.2.4q0 .3.2.2l.4.2h.7l.2.1h2.1V57v.4l.9.2-.8-.6h-.2l-.3-.1h-1.3l-.6-.1h-1l-.2.1zm-19.4-2.6-.1-.1-.3-.2-.3-.1-.4-.1-.2-.1-.2-.2h-.3l-.4-.2h-.3l-.3-.1h-.3l-.3.2v.2l.1.1.3.2 1.3.3.6.2zm5.1-.1.1.1.3.2.2.1.3.2h.3v.2h.3l.4.1h.2l.2.1h.3l.3-.4v-.3H47l-.2-.2q-.5-.2-1-.1l-.5-.2h-.9zm10.4-.7-.4-.2-.8-.1H53l-1.3-.2-.4-.1-.2-.1-.9-.1-.9-.2h-.6l-.6-.2h-.7q-.3-.2-.6 0 .1.4.2.3l.3.2.6.2q1.5.5 3 .6l1.2.2h2l.4-.2zM27 48.1l-.1-.2-.2-.2-.2-.2-.3-.2v-.1L26 47v-.2l-.3-.1-.2-.3-.2-.1-.1-.2-.3-.2h-.3v.6q.3.5.9.8l.3.4.4.2.3.1h.3m1.5-1.4v.4l.1.2.2.3v.2l.1.1.2.2.2.2.2.1.1.1h.3q0 .2.3 0V48l-.1-.2-.7-.5-.2-.3-.3-.2-.1-.1zM21 43.8l.1-.1.2-.4v-.2l.1-.5v-.2l.2-.2v-1l.1-.3-.1-.3q-.2-.3-.2 0h-.1l-.2.3a2 2 0 0 0-.3 1.3v1.5zm-2.8-6.5v-.1l.2-.2.1-.2.1-.3v-.1l.1-.1.1-.1.1-.2.1-.3.1-.2h.1l.1-.3v-.3q-.2-.2-.3 0h-.3q-.4.5-.5 1l-.2.4v.9zm-.2.7-.2.2-.3.2-.1.3-.2.5v.2l-.1.1v1.1l.2.3.2.3.3.3q.1.2.4 0v-.7l-.3-1v-.6l.1-.4.1-.4zm3.5-2 .2-.1.2-.2v-.2l.3-.2V35h.2l.1-.3.1-.2.1-.2.2-.1V34l-.1-.2-.2-.1h-.1l-.2.2q-.4.3-.5.8l-.2.3-.2.4v.3zm3.5-.1-.1.1-.2.3v.3l-.1.4v.3l-.1.2v.3l.2.5.1.3.1.2.3.3h.4l.1-.3v-.4l-.4-1v-1.2l-.1-.2zm1 9.1v-.5l-.2-.2-.2-.4v-.2l-.1-.2-.2-.3-.2-.3-.2-.2v-.2q-.2 0-.3-.2t-.4 0v.6l.7 1q.2 0 .3.4l.3.3.2.3h.3Zm-2.2 5.1-.1-.2-.3-.5-.2-.3-.4-.5v-.2l-.2-.2V48l-.3-.4-.4-.5-.2-.3-.1-.3-.4-.4q0-.2-.3-.2t-.1.3v.1l.1.5q.3.9 1 1.6l.5.7.5.5.4.4.2.1zm2.6-20.7h-.2l-.3.1-.2.2-.3.3v.1l-.2.1-.1.1-.2.3-.2.4v.3l-.2.3.1.3.3.2h.3v-.2l.1-.2.4-1 .3-.3.2-.4.2-.3zm1.8-.6h.2l.3-.2.1-.2.3-.2h.1l.1-.1h.1l.2-.2.3-.2.2-.1h.1q0-.2.2-.3.2.1 0-.4 0-.2-.1-.1h-.4q-.6.1-1 .7l-.4.3-.2.4-.1.3zm2.7 2.2h-.3l-.4.2-.3.3-.5.5-.1.1-.2.2v.2l-.3.5-.2.5v.5l-.2.3.1.5q-.1.2.4.3.3 0 .2-.2v-.1l.2-.4.4-1.5q0-.4.3-.6l.4-.6.3-.3v-.2zm3.1-2h.2l.4-.2.3-.2.5-.3h.2l.1-.1.4-.2.3-.2h.3l.3-.1.3-.2.2-.3-.1-.2h-.5q-.8 0-1.5.6l-.5.3-.5.4-.3.3zm5.3-4.3h-1.6l-.1.1h-.2l-.4.1-.4.2h-.4l-.3.2-.3.4q-.2 0 .1.4h.6l1.3-.6.6-.1.5-.3h.3l.2-.2zm6.7-.3h.1l.4.2H49l.4-.1.2-.3q0-.3-.1-.2l-.2-.1H47l-.5.1h-.4l-.1.2zm-15.1-.2h-.8l-.4.2h-.4l-.4.2-.3.1-.3.1-.2.1-.3.2q-.1-.1 0 .4 0 .2.1.1h.4q.6-.1 1.2-.5l.5-.2.4-.2.3-.1.1-.1zM53 21.6l-.4-.2-.7-.1h-2l-.3-.2H49l-.8.1H47l-.7.3q-.2 0-.4.3 0 .4.3.3h.3l.5.1q1.3.1 2.6-.1h2l.7-.1.4-.2zm3.5-.1.1.1.4.2h.7l.2.1h.1l.2.1h1.1l.2.1h.4q.1.1.2-.4v-.2h-.2l-.3-.2-1.3-.1-.6-.1H57l-.3.1-.2.1zm-13.4 3h-1.5v.7h.3l.6-.2h.2l.2-.1h.1v-.2zm12.4-.7h-.1l-.2-.2h-1.4l-.1.1-.1.3v.1h.1l.2.1h1l.3-.2h.2zm8.7-1.1.1.1.3.2h.3l.4.2h.3v.2h.8l.3.1h.6l.2-.3V23h-.2l-.2-.2-1.2-.2h-1.1l-.3-.1h-.2zm-.4 1.7h-.2l-.4-.2H63l-.5-.1H62V24h-2l-.2.3v.2h.2l.3.1h3.3zm8.8.4.1.2.3.2h.2l.4.2h.1l.1.1h.1l.3.1h1.2l.1-.3v-.2h-.2l-.2-.2h-1l-.5-.2h-.8zm5.9-1.4-.2-.1-.4-.2h-.4l-.5-.2h-.4l-.1-.1H76l-.5-.1h-1.2l-.2.3v.2h.3a4 4 0 0 0 2 .3l.6.1h1.3zm4.3.2.2.2.4.3h.3l.5.2.2.1h.2l.1.1.4.1.6.1h.3l.3.1h.5l.3-.2-.2-.1h-.1l-.3-.3-1.6-.4-.6-.2h-.7l-.4-.2H83zm1.4 3.4-.3-.2h-.3l-.3-.2H83l-.1-.1h-.3l-.4-.1H82l-.2-.1h-.3l-.2.3v.3h.1l.3.1 1 .2.5.1h.9zm6.5-.6v.2l.2.2.2.1.2.2.1.1.1.2h.3l.2.2h.2l.2.2h.2l.3-.3q.2-.2 0-.2v-.1l-.1-.2-.9-.3-.3-.3h-.4l-.2-.1h-.1zm6.8 0-.2-.2-.7-.4-.6-.3-1-.3-.3-.2h-.4l-.2-.2-.9-.2-1-.1-.6-.1-.6-.1h-.8q-.3 0-.4.3 0 .2.2.2h.3l.6.2 2.9.5 1.2.4 1 .3.8.2zM96 27.7v.1l.2.2.2.1.3.2h.2v.2h.3l.3.1.2.1h.4q0 .2.3-.1v-.3h-.1L98 28l-.9-.2-.3-.2h-.4l-.2-.2H96zm.4 2.9-.5-.2-.9-.5-.8-.2-1.1-.4-.4-.2-.5-.1-.3-.2-1-.3-1.2-.3-.8-.2-.7-.2-1-.1h-.6q0 .3.3.3l.3.2a22 22 0 0 0 4.4 1.3l1.4.5 1.5.4 1 .3zm6.1 1.7v-.1l-.2-.2h-.1l-.2-.1-.1-.1h-.6v-.1l-.2.1v.6l.1.1h1.2zm1.2 0v.1l.2.3.2.2.3.3v.1l.1.1.1.1.2.2.3.3q.2 0 .2.2l.2.1.3.1q0 .2.3 0l.1-.3V34l-.2-.2-1-.7-.3-.4-.4-.2-.3-.2zm-1.7-2v-.1l-.1-.2-.2-.1v-.1l-.1-.1h-.2v-.1h-.2l-.2.3v.4h.4l.1.2h.4zm7.6 6.9V37l-.2-.1-.2-.2-.1-.2-.2-.2-.2-.1-.2-.1v-.2h-.3l-.3.2v.5l.7.4.2.3.3.1.2.1h.3Zm2.6 4.8.1-.3v-1.1h-.1l-.1-.2h-.5v.3l.1.6v.2l.2.3v.1zm-1.2 4.4v-.1l.1-.1.1-.2.1-.1.1-.2v-.2h.1v-.3l-.3-.2h-.3l-.2.6-.1.2v.6l.2.1zm2.7-2.1-.2.2-.3.2-.2.3-.3.5-.2.1v.1l-.2.2-.2.3-.3.5-.2.3-.1.2-.2.4q-.1.1.2.4.2.2.2 0h.1l.3-.3.8-1.4.3-.6.3-.6.2-.3zM115 46l.2-.3.1-.2.1-.3V45l.1-.1v-1.1l-.2-.2-.2-.1-.2.1v1.6l-.1.3v.5Zm-4.6 6.3h.5l.3-.2.4-.2h.1l.2-.1.4-.2.4-.3.2-.1.2-.1.3-.3v-.3l-.2-.1h-.2l-.2.1-1.1.7-.5.2-.4.3-.2.2-.1.2zm-1.2.6h-.6l-.3.2-.5.1h-.5l-.4.2-.5.1-.3.1h-.3l-.4.2-.2.2q0 .2.2.1h.5l1.5-.3.6-.1.6-.3.3-.1.2-.1zm6.5-2h.4v-.1l.3-.2.1-.1.2-.2.1-.3.1-.2v-.2l-.2-.2h-.2v.1l-.2.2-.2.6-.1.2-.2.2v.4Zm-4.6 4.2V55h-.2v-.1h-.2v.5l.1.1h.3zm.4.1.2.2h.7l.1-.1h.3v-.5l-.2-.2-.2-.1-.4.2h-.2l-.2.2-.1.1zm-8 3h1.2l.3-.1.3-.1.3-.1h.2l.2-.3v-.3l-.1-.2h-.4q-.4 0-1 .4h-.4l-.4.2-.2.1zm5.3-2.9h-.7l-.4.1h-.4l-.3.1-.3.1h-.3l-.2.1-.3.2-.1.3q0 .2.1.1h.4l1.2-.2.4-.1.5-.2.2-.2.1-.1zM59 55l.3.2h.2l.3.1h.2v.1h1.3v-.5h-.1l-.2-.1h-.9l-.3-.1H59zm-20.4-4.4v.3l.4.4.3.2.5.3.2.1.2.1.1.1.5.2.5.1h.4l.3.2h.5l.3-.4-.1-.2h-.2l-.3-.2-1.6-.4-.6-.3-.6-.2-.3-.2h-.5Zm-4-3.7v-.4l-.1-.1-.1-.2V46l-.2-.2-.1-.1v-.2l-.1-.1-.2-.1h-.3v.3q0 .4.4.6l.1.3.2.2.2.2zm-3.7-1.2v.3l.3.4q0 .3.3.4l.4.5.1.1.2.2v.2l.5.4.4.4.4.2.3.3.4.2q.1.1.4 0v-.2l-.1-.2-.3-.3-1.4-1.3-.5-.6-.6-.5-.3-.3-.2-.1zm-2.2-3.1v-1.2l-.2-.5v-1l-.1-.5v-.6l.1-.4q.1-.1 0-.4-.3-.2-.4 0H28l-.3.4q-.5 1-.1 2 0 .5.2.8 0 .4.3.7l.2.4.1.2zm3.4-2.2h.1v-.6h.1v-.5l-.1-.1v-.1L32 39h-.3l-.2.1v.2q0 .3.2.5v.3l.1.2.2.1zm.7 0h-.2v.2l-.1.1v1.1h.2q0 .2.3 0h.2v-.3l-.1-.5v-.4l-.1-.1zM32 36l.2-.3.4-.8.3-.6.5-1 .2-.2.2-.3.3-.2.5-.6.7-.6.6-.4.5-.3.6-.5q.3 0 .4-.4-.1-.2-.4-.1h-.3l-.7.2q-1.5.7-2.6 2.1l-.8 1.1-.5 1.3-.2.8zm5.2-2.2h-.4v.2l-.3.2v.1h-.2v.3l-.2.2v.1l-.2.2v.2l.2.2h.3l.2-.1.3-.7.2-.2v-.3l.1-.2zm5.8-4.2h-1.2l-.3.1-.2.1-.2.1h-.2l-.2.2v.3q0 .2.1.1h.3q.5 0 .8-.3l.4-.1.3-.2.2-.1v-.1zm.8-2 .2.1.5.1h1.3l.2.1h.4l.5-.1h.7l.5-.2.2-.3q0-.2-.1-.1H48l-.4-.1-1.6.1h-.7l-.7.1h-.4l-.2.2zm1.2-1.1h-1l-.4.1-1 .2h-.4l-.5.3-.6.2-.5.1-.3.2-.5.2q-.2 0-.2.4.1.1.2 0h.7q1 0 2-.6l.7-.2q.4 0 .8-.3l.5-.1.2-.2zm12.7-.1-.4-.1-.7-.1h-3.3l-1 .2h-.6l-.5.1-.7.2q-.3-.1-.4.4 0 .2.3.1h.8q1.5 0 2.8-.3h1.2l1-.2h.8l.4-.1zM43.5 32h.3l.6-.1.4-.2 1-.3h.5l.6-.3.7-.1.5-.2h.4l.6-.3q.1.1.3-.4 0-.2-.3-.1h-.7q-1.1 0-2.3.5l-1 .3-.8.4-.5.3-.2.3zm-3.6 6.9v-.2l.2-.5v-.8l.1-.2v-.3l.1-.5V36l.1-.3.2-.3v-.3q.1 0 0-.4h-.2l-.2.1-.3.3q-.5.8-.3 1.7v1.7l.1.2zm-.6 5.3v-.4l-.3-.6-.3-.5-.4-.6v-.3l-.2-.2v-.3l-.4-.6-.3-.6-.1-.6v-.3l-.1-.5v-.4q-.4-.3-.4 0l-.2.2q-.2.3-.2.7 0 .7.2 1.3l.6 1.1.5 1 .6.8.4.4.3.2zm-.9 1.3v-.1l-.2-.3-.2-.2-.4-.4-.1-.2-.3-.2-.2-.2-.2-.2-.1-.1-.2-.1q.1-.2-.4 0-.2 0-.1.1v.2l.1.2q.4.7 1 .8l.3.3.4.3.2.1h.3m5.3 4.3-.1-.1-.2-.2H43l-.3-.2v-.1h-.2V49H42l-.3-.2-.2-.1-.2-.2H41v.2l.1.1.2.2 1 .5.4.2h.4l.3.2h.2zm2.4-.4.3.2.2.1h.3l.2.1.2.1h1l.3-.1.1-.3-.1-.2h-2l-.3-.1h-.1zm-.2-2.6-.2-.1-.5-.3h-.4L44 46l-.2-.1-.2-.1-.4-.2-.6-.2-.3-.2-.3-.2-.4-.1q-.1-.2-.5.1v.3l.2.1.3.3q.8.6 1.7.7l.8.3.7.1zM34.2 52l-.2-.1-.3-.2-.3-.1-.4-.2-.1-.1h-.1l-.1-.2-.4-.1-.4-.2-.2-.2h-.2l-.3-.2H31l-.1.2v.2l.2.3q.6.5 1.3.7l.6.2.6.1h.7Zm20-.6H54l-.3-.2h-.3L53 51l-.1-.1-.1-.1-.4-.1-.4-.2h-.2l-.3-.2h-.3q0-.2-.3 0v.3h.1l.2.3q.6.4 1.3.6l.5.2h1l.2-.1zm2.8-.7v.2l.5.2.4.2.6.2h.2l.2.1.2.1h.5l.6.1h.8l.5-.1.3-.2-.2-.2h-.2L61 51l-1.7-.2q-.4 0-.7-.2h-.7l-.5-.1h-.5m6.3-1.6-.2-.1-.5-.2-.4-.1-.6-.1h-.2l-.2-.1-.2-.1h-.5l-.6-.1h-.4l-.3-.2h-.4l-.4.1v.3l.2.2.3.2q1 .5 2 .3l.7.1H63zm-9.1-1.3-.1-.2-.4-.1-.2-.1-.5-.1V47h-.2l-.1-.2h-.4l-.4-.2-.2-.1-.2-.1h-.3q0-.2-.3 0-.2 0 0 .2v.1l.2.3q.7.4 1.3.5l.6.1h.5l.3.1h.2zm-7.9-5v.6l.1.3.3.4.1.2.1.1.1.1q.1.2.4.3l.4.3.3.1.2.1h.4q.2.1.3-.2v-.2h-.2l-.2-.2-1.1-.6-.4-.4q0-.3-.3-.4l-.2-.3h-.1zm-.9-5.2.1-.1.3-.2.1-.2.3-.2.1-.1h.1l.2-.1.2-.2.3-.2.2-.1h.2l.2-.3v-.4H47q-.6.1-1 .7l-.5.3-.3.4-.1.3v.4ZM42.1 39H42l-.3.2-.1.3-.1.3v.3l-.1.2v.3l.2.4.2.2.2.2.3.1s0 .2.3-.2v-.5l-.4-.6V39m7.8 1.2V40l-.1-.2-.1-.2-.2-.2v-1.1l-.2-.3H49l-.3.2q-.2.7.1 1.2l.2.4.4.3.2.1zm3.7 1.2v.6l.2.3.4.3.1.1.1.1.1.1.4.2.4.1.4.1h.6l.3-.2-.1-.3h-.1l-.3-.2-1.2-.4-.4-.3-.4-.2-.1-.1-.2-.1zm7.7 3.3-.1-.2-.4-.2-.2-.1-.4-.2-.1-.1H60v-.2q-.2 0-.3-.2l-.4-.2-.2-.1-.2-.2-.3-.2h-.3v.3l.2.2q.5.7 1.1 1 .3 0 .5.3l.6.2h.5zM53.8 36h-.1l-.3.4v.4l.2.5v.4l.1.1.2.3.3.4.2.3.1.2.3.2q0 .2.4 0 .3-.2.1-.2v-.5l-.9-1-.2-.5-.2-.4v-.4zm9.7 7.9v-.2l.2-.2v-.2l.1-.3.1-.2.2-.2v-.2l.2-.1h.1l.1-.2.1-.3v-.1h-.4q-.7.1-.8.8l-.2.5v.6l.1.1zm-3.3-2.5.1-.2.2-.3.1-.2.2-.3h.1l.1-.2h.1l.2-.2h.3l.2-.2h.4l.2-.2v-.2l-.1-.1-.3-.2q-.9 0-1.4.6l-.4.4-.2.6v.5zm-2.3-5.1h.5l.2-.2h.4l.1-.1h1.2l.3-.2.1-.3v-.2h-.2l-.2-.1-1.2.1-.5.2-.4.2-.3.3zM52 32.5l.2-.2.6-.3.5-.1.7-.3h.8l.7-.2.7-.1.5-.1h.5l.6-.2.3-.3q0-.2-.2-.2h-.7q-1.3-.1-2.5.3l-1 .3q-.4 0-.9.4l-.6.3-.2.4zm-1.7 2.7.2-.2.1-.1v-.2h.2v-.1l.1-.2.1-.1v-.1h.2v-.3l-.2-.2-.2-.2-.2.1q-.4.2-.4.7l-.1.2v.6zm15-5.9-.4-.2h-.2l-.4-.1H64l-.2-.1h-1.2l-.4.1-.1.3.1.3h.1l.3.1h1.7l.5-.1h.3l.2-.1zM63.5 27h.2l.5.2h3l.4.1h.4q.2 0 .4-.3 0-.2-.2-.2l-.1-.1-.4-.2q-.9-.2-1.9 0h-1.5l-.4.2-.2.1zm-6.2 1.7h-.1l-.2-.2h-.3l-.1-.1H56l-.2.1v.5h1.3v-.3m20 .2-.2-.2-.6-.1-.5-.1-1-.2h-.3l-.2-.1h-.7L73 28h-1.6q-.1-.1-.4.2l.2.2h.2l.5.2q1.2.3 2.3.2l1 .2zm2.2-.8.2.2.3.2.3.1.4.1.2.1h.1l.2.1.4.1.4.1h.3l.3.2h.3q.2.1.3-.4v-.2h-.2l-.3-.2-1.3-.3-.6-.1h-.5q-.3-.2-.4-.1h-.2zm-5.3 4-.3-.2h-.3l-.1-.1h-.4l-.2-.1h-.5l-.1.2v.2h.1l.1.1h1.6Zm-10.7.4h.2l.5.1h.4l.6-.1h1.2l.5-.2h.8l.4-.2q.2 0 .3-.3t-.2-.2h-.6l-1.8.2-.8.1-.7.2-.4.1-.3.1zm5.7 2.8h-2l-.4.2h-.3l-.2.1-.3.2-.1.3h.6l1.2-.3h.5l.5-.2h.3l.2-.1zm10.8-.7-.1-.1-.4-.1H79l-.4-.1-.1-.1h-.3l-.4-.1h-1.3l-.2.2.1.2h.2l.2.2h1.3l.6.1h1zm8.6 2.4-.1-.2-.3-.3-.2-.1-.4-.3h-.2l-.1-.1-.1-.1-.4-.2-.4-.1h-.3l-.3-.2h-.4l-.3.3.1.2.1.1.3.2 1.3.3.5.3.5.1.3.1zm-3.3-4.6-.2-.1-.5-.2-.4-.1-.6-.2H83l-.2-.2h-1.5q0-.2-.3-.1h-.5q-.1-.1-.3.4l.1.2h.2l.4.2q.9.3 1.8.2l.8.1h1.4zm2.3-1.2q0 .2.2.2l.4.4.4.2.8.4.2.1.1.1.6.2.6.2h.4l.4.2h.5q.2 0 .4-.3l-.1-.3-.2-.1-.4-.2q-.9-.4-1.8-.5-.4 0-.7-.3l-.8-.2-.4-.2h-.3zm1.9-1.2-.3-.2h-.2l-.3-.1h-.1l-.2-.1h-.4l-.3-.1h-.7l-.2.2v.1h.2l.2.2h1l.5.2h.8zm12.7 4.8-.2-.2q0-.2-.3-.5l-.4-.2-.6-.4-.1-.1-.3-.1-.1-.1-.5-.2-.6-.3h-.5l-.3-.2h-.5q-.2-.2-.4.1v.3h.3l.3.3 1.8.6q.4 0 .7.4l.7.3.4.2h.5Zm3.6 2.5v.2l.3.4.3.3.4.5v.2l.2.2v.1l.4.4.3.4.3.3.1.3.3.4q-.1.1.4.1v-.8q-.5-.9-1.1-1.5l-.5-.7-.5-.4-.4-.3-.2-.1zm-9.9 14v-.1h-.1Zm-25-8.7-.3-.1H69l-.4.1h-.3l-.2.1-.3.2v.4h.4q.7.1 1.2-.2h.5l.4-.2h.3zM81 43l-.2-.2-.4-.1-.3-.1-.4-.1h-.2l-.2-.1-.5-.1h-.4l-.3-.1h-.7q-.1-.1-.2.2v.2h.2l.2.2 1.5.3.6.1h1.1zm8.3 2.1V45l-.3-.3h-.2l-.3-.2-.1-.1h-.2v-.2h-.3l-.4-.2h-.2l-.2-.1h-.3l-.2.3v.3l.3.2 1 .3.4.2zm.9 2.1.1.2q.3 0 .4.3l.4.2.7.3.1.1.2.2.4.1.6.2.4.2.3.1.4.1q.1.1.4-.2v-.2l-.2-.1-.3-.2-1.7-.7-.6-.3-.7-.3-.4-.1zm-16.8-7.3-.2-.1-.4-.1h-1.6l-.5.1-.3.1h-.2l-.3.3q-.1-.1-.1.4 0 .2.2.1h.4q.7 0 1.3-.4h.5l.5-.1.4-.1.1-.1zM87.3 41l-.4-.2h-.3l-.4-.1-.2-.1h-.1l-.1-.1-.4-.1H85l-.3-.1-.2-.1H84l-.3.2v.2l.2.1.2.2 1.4.3.6.1h1zm4.7 1.6-.1-.2h-.3v-.1h-.1l-.2-.1h-.1l-.2-.1h-.2v.4l.6.1h.4v.1zm-6.6-3.5.2.2.5.3.4.1.7.3h.2l.2.2h.1l.6.2.6.2.4.2.3.1.6.1q0 .2.4-.2l-.1-.3-.2-.1-.4-.2q-.9-.4-1.9-.6-.4 0-.8-.3l-.8-.2zm-9.2-1.3.1.1.2.1h.1l.2.1h.2v.1h.6l.2.1h.1l.2-.3v-.2H78l-.2-.2h-1.4zm-8.9.3.3.2H69l.2-.1h.2l.2-.2v-.5h-.1l-.2-.1-1 .2H68l-.4.2h-.2zm25.7.7v-.2l-.3-.2-.3-.1-.3-.1-.2-.1h-.1l-.1-.2h-.3l-.4-.2h-.3l-.2-.1h-.3q-.2-.1-.3.2v.2h.2l.2.2 1.2.4.4.2h.5l.3.1zm7.1-.1v.4h.2v.2h.2l.2-.2v-.3h-.2v-.2h-.4Zm-2.4-2.9-.1-.2-.4-.3-.3-.2-.5-.2h-.2l-.1-.1-.2-.1-.4-.2H95l-.4-.1-.3-.1h-.4q-.2 0-.3.3v.2h.2l.3.2 1.6.3.6.3.6.1.4.1zm2.1.9v.2l.3.3.2.2.3.2.1.1.2.1v.2l.3.1.4.2.2.2.2.1h.4q0 .2.3-.1.1-.3 0-.2v-.1l-.2-.2q-.5-.5-1.1-.7-.2 0-.5-.3l-.4-.2-.3-.1zm-.4 3.3v-.2l-.4-.3-.2-.2-.4-.3-.2-.1-.1-.1-.1-.2-.4-.2-.4-.3-.3-.2-.2-.1-.3-.2q-.1-.2-.4 0v.2l.1.2.2.2 1.3 1q.3 0 .5.4l.5.3.4.1zm-3 7.5v-.2l-.2-.2-.2-.1-.2-.2-.1-.1v-.1l-.3-.1-.2-.1-.2-.1v-.1h-.6v.3l.1.2.8.5.2.2.4.1.2.1h.1zm12.6-2.6.3-.2v-.5h.1V43l-.2-.1h-.3l-.2.1v1.6h.1zm-2.3 5.1h.5l.2-.2.3-.3.2-.2h.1l.2-.3.2-.3.1-.2.2-.2v-.6h-.3l-.2.2-.7 1-.3.3-.3.3-.1.2zm-5.7 4.1h.6l.2-.1.4-.2h.3l.4-.3.3-.2.2-.2.2-.1.2-.3q.2 0 0-.3h-.5l-1 .7-.5.2-.4.3-.2.1-.1.2zm3.2 1.6h-.9l-.2.1h-.3l-.2.2h-.4l-.1.2q-.2 0 0 .3v.2h.3q.5 0 .8-.4h.4l.3-.2.1-.1.1-.1zm7.2-6.5h-.4l-.1.1-.3.2h-.2l-.2.1-.2.1h-.2l-.1.1-.2.2v.3l.1.2h.3q.5 0 .8-.4l.3-.2.2-.2.2-.2zm-7.6.3h.2l.3-.2.2-.1.3-.3.2-.2.3-.3.2-.3.2-.2v-.2l.2-.3-.1-.2h-.2q-.2 0-.3.2l-.6.9-.4.3-.2.3-.2.3v.1zm-3.9 1.9h-.3l-.1.2-.2.1h-.1l-.2.1-.1.1-.2.2h-.2v.1l-.2.2v.3h.4q.4 0 .7-.4l.2-.2.2-.3.2-.1zM98.8 44v.2l.2.4.2.2.3.4q0 .3.2.2v.2l.3.2.3.3.3.3.1.2.3.1q.1.2.3 0v-.3l-.2-.2q-.3-.6-.9-1l-.4-.5-.4-.3-.2-.3h-.4Zm-1.8.5v-.1l-.1-.2-.2-.2-.2-.1v-.1l-.1-.2h-.2l-.3-.2h-.5l-.2.2v.2l.2.1.6.3.3.2h.2l.2.2zm3.2 4.5v-.4l-.1-.2v-.2l-.2-.1-.1-.1-.1-.1-.1-.1h-.2l-.2.1-.1.2v.2l.5.3v.2l.3.1v.1zm-4.7.2v.1l.1.3.2.1.2.2h.1l.1.1v.1l.3.1.2.2h.2l.2.2h.2l.3-.1v-.3l-.2-.2-.8-.4-.3-.2-.3-.2zm8.5-4.8-.1-.3-.2-.1-.2-.2-.1-.2-.2-.2-.3-.1h-.2l-.1-.2h-.2l-.3.2v.3l.2.2.7.3.2.2.3.2zm-.3-3.4v.1l.3.3.2.1.4.2v.2h.1v.2q.3 0 .3.2l.3.2.2.2.1.2.3.1q0 .2.3 0 .2 0 0-.1v-.4a2 2 0 0 0-1-1l-.4-.4-.4-.2h-.5zm-4.3 1-.1-.2-.4-.3-.3-.2-.5-.2-.2-.1-.2-.1-.1-.1-.5-.2-.5-.2-.4-.1-.3-.1h-.7v.3l.2.1.3.2q.7.5 1.5.7.4 0 .7.3l.6.2.4.1zM81 37.3l.1.2.2.1.2.1h.1l.1.2h.9v-.5l-.2-.1h-.6l-.2-.2H81z" class="cls-5"/><path d="M62 85.7h.4l.1.6.1.5h.1q.4-.6.3-1l.2-1q.2-.6.2-1.5l.1-1q.2-.5.1-1.3c-.4.8-.8 1-1.1 1.7l-.7 1.5c-.2.6-.4.7-.5 1.3v.5l.1.6zm4.7-14.1h.3l.3.9v-.1q.3-.3.3-.7l.1-.8q.2-.6 0-1.1V68l-.9 1.3-.4 1.2-.4.9v.8zm-.2-13.1h.3l.1 1q.4-.4.4-.8l.3-1q.3-.7.3-1.2l.3-2.1-1 1.5q-.5.6-.7 1.3-.5.4-.6 1l-.2.9zm3.2-6.2h.3l.5.9V53c.3-.5 0-1 .2-1.5q.2-.6 0-1l-.1-.8-.3-1-.7 1.4-.3 1-.3 1 .1.7zm10.8 5.9h.2l.6.3c.1-.4-.2-.5-.1-.8L81 57l-.2-.4-.3-.6-.5.9-.1.7q-.2.2 0 .6l.1.4zm-4.7 7q0-.3.3 0l.7.9v-.2q0-.6-.2-1l-.3-1q-.2-1-.6-1.7 0-.5-.3-1 0-.7-.5-1.4l-.1 2.3v1.8c.2.6 0 .9.3 1.4l.5 1.1zm1.9-9.8h.4l.5.9v-.1q.3-.5.1-.8v-.8q0-.7-.2-1.2l-.2-.7q0-.4-.5-1l-.4 1.5-.2 1.2-.2.9.1.7zm13.2 3.4q0-.3.3-.1l.8.5V59q0-.4-.2-.7l-.2-.7q-.2-.7-.6-1l-.3-.7q-.1-.4-.7-.9l-.2 1.6.1 1.3.2 1 .4.7zm-6.3 8.5h.3l.6.5v-.1c.2-.4-.1-.8 0-1.2l-.5-.9-.2-.6q0-.4-.5-.7l-.3 1.3v1q-.2.4 0 .8l.2.6zm7.6 4.7q0-.3.3-.1l.6.6v-.1c.2-.5-.2-.8-.1-1.3q-.1-.6-.4-1l-.3-.5-.6-.7-.2 1.3V72l.2.6zm5.7-5.8h.3l.7.7v-.2c.1-.5-.3-1-.3-1.6q-.2-.7-.5-1l-1-1.7L97 64v1.3l.1 1 .4.8q0-.5.4-.9m3.8 17.8q.1-.2.3-.2l.7.5v-.1q0-.6-.2-1.1t-.5-.8l-.3-.5q-.1-.3-.7-.6V84l.3.5zm-8.2 2.1h.3l.6.7v-.1q.2-.5 0-.8l-.1-.8q-.1-.7-.4-1.2l-.2-.7q0-.5-.4-1l-.4 1.6-.1 1.3v1l.3.8zm7-9.1.4-.2.8.3c0-.5-.5-.7-.5-1q-.2-.5-.5-.7l-.3-.5-.7-.5-.1 1.2.1.9.1.7.3.5zm-6.3 3q0-.2.3-.1l.7.4-.1-.7-.2-.6q-.1-.5-.4-.9l-.2-.6q0-.4-.4-1-.5.9-.5 1.5v1.2q-.2.5 0 1l.6.6zm5.8 13.4q.3-.3.4 0l.6.6c.3-.6 0-1 0-1.5q0-.7-.4-1 0-.3-.3-.7 0-.4-.6-.8 0 1-.3 1.4v1.1q-.2.5-.1.8l.2.7zm-12.1 9.7h.3l.6.3q.2-.4 0-.6l-.1-.5-.5-.7-.2-.5q0-.4-.5-.7l-.3 1.2v1.7l.4.5zm-20.6 1.6q.2-.1.4 0l.7.7v-.1l-.1-1.5-.2-1v-.8q0-.5-.3-1-.6.6-.8 1.4l-.3 1.3-.2 1 .3.8zM59 98.1l.3.1q0 .5.3.8l.3-.6.3-.6q.2-.4.2-.9l.2-.6q.2-.4.1-1l-1.1.8-.8 1-.5.7v.7zm-4.5-1.7q.2-.1.3.1l.5 1 .3-1 .2-.8.4-1.4.4-.8.6-1.3q-1.2.6-1.8 1.2l-1 1.4c-.3.6-.6.7-.7 1.3v1.2zm-6.2 17.4q.2-.1.4 0l.6.4v-.6l-.1-.6-.2-.9v-.6l-.2-1q-.6.6-.9 1.2l-.2 1.2q-.2.5 0 1l.3.7zm10.1-2.4q.2-.3.4 0l.7.4c.2-.4-.2-.7 0-1.1l-.2-1v-1.5q-.7.6-1 1.1l-.5 1-.2 1 .2.8zm6.6.4h.3l.5.7v-.1q.2-.3.1-.6v-.6l-.2-.9v-.5l-.4-.8-.6 1.1-.3.9-.2.7.2.6zM54.5 119q.3 0 .3.3v.7q.3 0 .4-.2l.1-.3.4-.6q.3-.5.2-1l.1-.7-.2-1q-.3.8-.7 1.1l-.6.8-.5.5-.1.3v.3zM52 106.2q0-.2.3 0l.4 1v-.2q.4-.4.3-.8l.1-.7.1-1.2.3-.7q.1-.4.7-.7h-1q-.5.1-.8.6l-.5.7-.3.6c-.2.5-.4.6-.5 1.1l.2 1q.2-.4.6-.7m6.1-.8h.4l.6.4c.2-.3-.2-.5 0-.7l-.2-.6-.2-.4-.4-.5-.5.7-.2.6-.2.5.1.3zm5.7-12.1h.3l.5.6v-.1q.3-.3.2-.6v-.6q-.1-.5-.4-.9l-.2-.5q0-.3-.5-.7 0 .7-.3 1.2l-.1.8-.2.7.2.5zm-4.6-15.6.3.1q0 .3.3.5c.2-.1 0-.4.3-.6v-1.5l-.8.4-.4.4q0 .2-.3.4v.3zM57.5 87h.3l.6.7v-.1c.3-.3 0-.7.2-1q.1-.6-.1-1v-.5l-.3-.8-.8 1-.4.8-.3.7v.6zm10.3-6.6h.3l.5.5v-1.3l-.2-.9-.1-.6-.3-.8-.6 1.2-.2 1-.1 1 .3.6q0-.4.4-.7M63.9 68h.3l.4.9v-.1q.3-.8.3-1.4.2-.5 0-1v-1.7l-.9 1.2-.5 1-.3 1v.7zm8.6-2.7h.8c.2-.3-.2-.4-.1-.6q-.1-.3-.5-.4l-.2-.2h-.6l-.1.6v.8l.3.2zm-.7-9 .3.1q.3.5.3 1v-.2q.3-.1.3-.4v-.3l.2-.9v-1.3l.1-.8-.1-1.2-.9 1.5-.5 1.3-.4 1v1zm1.8-7.2h.3l.4.8.1-.1.2-.7v-.6q-.1-.6-.4-1l-.3-.6-.5-.7-.2 1.2-.2 1-.2.7.2.6zm-8.2 1.1h.2l.5.4.1-.7v-1.6l-.8.5q-.3.3-.4.7-.2.2-.2.6v.5zm19.3 4.1.2-.1.5.1-.4-.7q-.1-.4-.4-.5l-.7-.8v1l.2.6q0 .4.2.6l.3.3zm3.4 8.9.3-.1.7.3-.4-1q-.1-.4-.4-.6l-.4-.3q-.1-.3-.6-.4v1l.2.7v.5l.2.4zm8.3-4.3q0-.3.3-.2.5.1 1 .5V59l-.4-.8-.5-.7q-.4-.7-1-1l-.6-.6-1-.7q.5 1 .6 1.7l.5 1.3c.2.4 0 .6.3 1l.7.6zm6.5 13.3h.3q.5 0 .7.4v-.1c.2-.5-.2-.7-.2-1.1s-.5-.5-.6-.7l-.5-.3-.7-.3.1 1 .1.8v.5l.3.3zM92.5 94.8q.2-.1.4 0l.7.9v-.1c.4-.6 0-1.2 0-1.8q.1-.8-.2-1.3l-.6-2.1-.6 1.7-.4 1.5-.2 1 .2 1zm12.9-.5.3-.2q.6 0 .8-.2c0-.4-.5-.3-.6-.7l-.5-.5-.3-.5-.5-.7-.4 1.3.2 1.2q0 .5.4.8l.6.5zm-7.6 9.1q.1-.3.4-.1l.6.5v-.7l-.1-.6q-.1-.5-.4-.8l-.3-.6q0-.3-.5-.8l-.4 1.3-.1 1q-.2.5 0 .9l.4.6q0-.4.4-.7m-17 2.6h.4l.6.5q.2-.6 0-1 0-.4-.2-.7l-.1-.5q0-.2-.2-.3t0-.3q-.3-.1-.4.2l-.1.2-.3.5-.2.8q-.2.2-.2.6l.2.5zm-8.8.6q0-.3.3-.1l.7.5v-.8l-.2-.6q0-.5-.2-.9v-.6l-.2-1-1 1.2-.2 1.3v1.1l.2.4.3.3q0-.4.3-.8m21.3 1.6h.3q.3.1.5.4.2-.3.1-.5v-.5q-.1-.4-.4-.6l-.3-.4-.6-.3-.2.9v.6q-.2.2-.1.5l.3.3zm.8-41.2q0-.3.2-.2h.7l-.7-.9q-.2-.4-.6-.6l-.4-.4-.6-.5.1 1.2.4 1 .4.7.5.3zm-5.9 7.4q0-.2.2-.1l.7.4v-.1l-.5-1.2-.7-.8-.5-.5-.7-.5.3 1.3.3 1q0 .4.3.8l.4.5zm-6.9-9.1q0-.2.2-.1l.8.3v-.1c0-.4-.5-.6-.5-1l-.3-.9-.2-.6-.2-.9q-.5.8-.6 1.4v1.2l.1 1 .5.6zM89.2 54q0-.2.3-.1.3 0 .5.3l.1-.4v-.2q-.3-.2-.3-.5-.2-.4-.6-.6l-.4-.4q-.1-.3-.6-.4l.1 1q0 .5.2.8v.6l.4.4zM71.1 70.6h.3l.4.4.1-.4v-.9l.2-.3v-.7l-.9.4-.2.4-.2.3-.3.7.3.5zM68 63.8h.3l.5 1v-.2L69 63l.1-1.2.2-.9.2-1.2-1.2 1.5-.6 1.3-.4 1.2v1zM63.6 78h.3l.4.6v-.1q.3-.3.2-.5v-.6q.2-.5 0-.8V76l-.2-.9-.8 1-.4 1-.2.8.2.6zm2.2 10.7q.2-.2.4 0l.4.6v-.1l.2-.6-.1-.6q0-.6-.3-1l-.3-.5q0-.4-.5-.7l-.2 1.2-.2 1q-.2.3 0 .7l.2.5zm-2.5 14h.3l.4.6v-.1q.3-.1.2-.3v-.9l-.1-1-.1-.6-.2-.8-.7 1.1-.3 1-.2.9v.3l.2.4zm12.9.3q.1-.3.3 0l.5.4v-.1c.2-.4-.1-.7 0-1q-.1-.5-.4-.8l-.3-.4q0-.3-.4-.6l-.2 1v.9q-.2.2 0 .6l.1.5z"/><path d="m99.5 110 .3-.8.5-1.7.3-1.5.5-2.2.2-.8.2-.8.2-.6.4-1.9.2-1.3.1-.5h-1.3l-1.6-.1-1.2-.2h-1.8c-.3-.1-1-.2-1 0-.2.2.3.4.4.4l.7.2 3.2.5h1.5l-.1.8-.3 1.7-.6 2.7-.5 2.7q0 .9-.3 1.7zm8.8.2.2-.7.4-1.6.2-1.4.3-2 .1-.7.2-.8.2-.6.2-1.7.2-1 .2-.8v-.2h-.3l-.5-.1-.8-.1h-.8l-1.1-.2h-1.6c-.3 0-1 0-1 .2l.1.2h.4l.6.2 3.9.6-.2 1-.2 1.6-.4 2.6-.3 2.4-.1 1.6v.8zm7.1.3.2-.7.2-1.4V107l.1-1.9.1-.6v-.7l.2-.5.1-1.6.2-.8.2-1.3v-.2l-.2-.1h-.7l-.7-.1-1-.2h-1.5q-.6 0-1 .3.2.3.5.3l.6.2 1.2.2 1.4.1h.3v.2l-.1.6v.7l-.2 1.4-.2 2.4v3.7l.1.7zm7.3-.1.2-.8.4-1.6.3-1.3.3-2 .2-.8v-.7l.2-.6.3-1.7.2-1.4v-.2H122l-1.2-.1-1.6.2c-.3 0-.9 0-1 .3q.2.3.6.3h.6l2.9.2h1.4l-.2 2-.4 2.6-.3 2.5-.2 1.5v1.5Zm7.7-2.3.3-.6.5-1.4.3-1.3.5-1.8.2-.7.1-.6.2-.6.3-1.5.2-.7v-.4l.1-.2V98h-1.3l-.2.1-1.4.3-1 .1-1.4.4q-.6 0-1 .3c0 .2.5.2.6.2h1.8l1.5-.1 1.2-.2v.2l-.2 1.4-.6 2.3-.4 2.2q0 .8-.3 1.4zm5.8-1.6.2-.6.4-1.1.3-1 .2-1.6.1-.5.1-.6.2-.4.1-1.3.1-.8.2-1v-.8h-.1l-1 .3-1 .5-1 .6q-.5.1-.5.6.1.2.4 0h.5l1-.3.5-.2v1l-.1 1.1q0 1-.3 2l-.2 1.7-.2 1.1v1.3Zm-14.7 5.7h-4.4l-2.6.2-3.9.1h-3.8l-3.2-.1q-2 0-3.7-.3l-2.7-.2-2.2-.3-3-.1c-.5 0-1.6-.2-1.8.2l.3.2.7.1 1.2.2 2.3.4q5.8.8 11.6.8h5l4.5-.4 3-.3 1.4-.2z" class="cls-5"/></g></mask></defs><g id="Layer_1_copy" style="mask:url(#mask)"><path d="M46 .7A71 71 0 0 0 31.3 4 48 48 0 0 0 3.1 29.5a29 29 0 0 0-2.9 16A91 91 0 0 0 5 63.2q1 2 2.6 3.7c1.8 2.1 4.6 3 7.4 3.6A92 92 0 0 0 35.6 73l9.8-.3c16.4-.8 32.7-1.7 49-3.8q10.9-1.7 21.8-2.9c7.2-.7 14.6-1 21.3-3.5a8 8 0 0 0 3.6-2.3c1.5-1.8 1.5-4.4.9-6.6l-.5-1.9-1.1-5q-.7-2.7-2-5c-2.9-5.8-8-10-12.6-14.4-3.7-3.4-7.2-7-11.3-10l-5.4-3.5a78 78 0 0 0-21.3-10A115 115 0 0 0 46 .8" class="cls-4"/><path d="M64.1 19.8q-15.7-.9-31.1 2a37 37 0 0 0-12.3 4 43 43 0 0 0-10.6 10.1 31 31 0 0 0-6.7 18.4q0 2 .3 3.7.5 1.2 1.2 2.3c1.8 2.9 3.7 5.9 6.5 8 3.7 2.7 8.5 3.5 13 4a356 356 0 0 0 23.9 2.3q8.2.5 16.4.5c16.9-.6 33.4-5.4 50.2-6.4q9-.6 17.7-4c2.9-1.1 5.8-2.7 7.4-5.3l.5-1.4c.4-1.7-.7-3.4-2-4.4s-3-1.7-4.4-2.7a13 13 0 0 1-5.2-6.2q-.3-.8-.7-1.3-8.3-6.5-17.4-11.7a64 64 0 0 0-22.3-9.2c-8.3-1.2-17.2.4-25-2.6" class="cls-4"/><path d="m104 69.1-2-6.8c-.9-2.9-1.8-6-4.3-7.7l-1.7-.9a77 77 0 0 0-28.8-9.2q-.9 0-1.6.3-.5.6-.8 1.4c-2.7 10.1-2.8 20.9-5.7 31a59 59 0 0 1-5 12.2q-2.6 4.3-4.8 8.7l-7.7 17c-1.1 2.5-2 5-.9 7.7.7 1.5 1.5 3.3.7 4.8-.5.9-1.4 1.5-1.5 2.5 0 1 1 2 2 2s2.2-.3 3.2-.8l5.2-2.4q1.3-.8 2.6-.5.9.6 1.6 1.4 2 1.8 4.6 1c1.6-.7 3-2.3 4.7-1.8 1 .3 1.7 1.3 2.7 1.3q.8-.1 1.6-.7c4.5-2.5 10.2 2 15.3.8 2.5-.5 4.5-2.4 7-3 3.4-.9 6.9.8 10.2 1.9 1.3.4 2.8.7 3.9 0l1.4-1.4a6 6 0 0 1 4.8-1.5c1.2.2 2.3.9 3.5 1.1s2.7-.1 3.2-1.3c.3-.9-.1-1.9.1-2.8.4-1.2 1.7-1.8 2.9-2s2.5.1 3.7-.1 2.4-1.2 2.4-2.4q-.2-1.5-1.6-2.5c-2.9-2.7-6.4-5.3-9-8.3q-1-1.6-1.8-3.5l-2.5-5.2q-4.3-10.6-6.9-22c-.4-1.9-.9-3.8-.7-5.8 0-1.1.3-2.4-.4-3.2" class="cls-4"/><path d="m92.2 112 .3-.7.5-1.5.5-3.2.1-.6.1-.7.2-.6.3-4.8v-1.1l-.1-1.5c0-.3 0-.9-.5-1q-.4.2-.3.6v.6l-.1 1.2-.2 5.7-.3 2.4-.3 2.3-.2 1.4z" class="cls-3"/><path d="m104.3 96.7 1.1.2 4.8.3 6 .2 7.9.1q3 0 6-.4l4-.5q1.9-.2 3.2-1.4.6-.7.8-1.5 0-.7-.3-1.4t-.8-1.2a8 8 0 0 0-2.4-2l-3.4-1.2c-.9-.3-.8-.5-1.7-.7a30 30 0 0 0-7.7-1.1l-5.6-.2H107c-.6 0-1-.6-.6-.9.8-.4-1.3-.4.6-.5l5.8-.2h3.7c1.2 0 4.6 0 5.8.3 1.7.2.7 0 2.3.4l2.8.5 2 .4 3.3.8q2.5.8 4.5 2.6 1 .9 1.5 2.2a4 4 0 0 1-1 5q-1.1 1-2.5 1.4l-2.7.4q-3.7.3-7.5.4l-2.2.2q-4.5.1-9-.1l-8-.5A86 86 0 0 1 96 97c-.4 0-2.2-.2-2.1-.3 0-.1-.3-.9 0-1 1.4-.3 1 0 2.6.1l6.6.6z" class="cls-3"/><path d="m103.5 97-.4.7-.4 1.5-.3 1.3-.2 2-.1.7v.7l-.2.6v1.7l-.4 3.2-.2 1.1-.2 1.5c0 .3-.3.8.2 1 .2.2.3-.2.4-.4l.2-.6.4-1.2q.6-3 .5-6l.2-2.5.2-2.3.2-1.5.1-.8zm6 18.7q.2-.3.2-.7l.4-1.7.1-1.4.3-2.2v-.7l.2-.8.1-.6.2-1.8.1-2 .2-1.5.1-1.2v-1.7c0-.3.2-1-.3-1q-.3 0-.4.5v.6l-.3 1.4q-.4 3.1-.5 6.4l-.3 2.7-.1 2.5-.2 1.7v.8zm7-5.4.2-.5.3-1.1.1-1 .2-1.5v-.5l.1-.5.2-.4v-1.2l.2-1.4v-1l.2-.8v-1.2q0-.4-.5-.7-.4.1-.3.4v.4l-.2.9q-.4 2.2-.3 4.4l-.2 1.8-.1 1.7v1.7zm8.2.9.2-.6.2-1.3.1-1.1.2-1.7v-.5l.1-.6.1-.5.2-1.4.1-1.5.2-1.2.1-.9v-1.2c0-.3.2-.7-.3-.9q-.4.1-.3.4l-.1.5-.3 1q-.4 2.4-.4 5l-.3 2v3.9zm6.6-1.8.2-.6.2-1.1.1-1 .3-1.5.1-.5.1-.5.2-.4.3-1.2q0-.8.3-1.4l.3-1 .3-.8.2-1.2q.2-.4-.2-.8-.4 0-.4.3l-.2.5-.4.8a25 25 0 0 0-1 4.4l-.5 1.9-.1 1.8v1.8zm5.8-3.8q.3-.2.2-.5l.4-1.1.2-1 .3-1.4.2-.5.1-.5.2-.4.2-1.2.3-1.4.2-1 .2-.9v-1.1c0-.2.2-.6-.3-.8q-.4.1-.3.4l-.2.4-.2.9-.8 4.3q-.1 1-.4 1.9l-.3 1.7-.1 1.1v1.1Zm-8.6-2.2.1-.7.3-1.6.3-1.4.8-2.6.2-.7.3-.6.4-1.7.5-2 .2-1.4v-1.3l-.2-1.6c-.1-.3-.2-1-.6-1-.4.1-.2.5-.2.7v1.8q-.1 3-1 6l-.7 2.5-.5 2.5-.2 1.6v.8zm-8.6-2.7.3-.7.4-1.4.3-1.3.4-1.8.2-.6.1-.7.2-.6.3-1.5.3-1.8.3-1.3.2-1 .1-1.5c0-.3.3-.8-.2-1q-.3 0-.4.4l-.2.6-.3 1.2-1 5.6q-.1 1.2-.4 2.3l-.4 2.2-.2 1.5zm-6 .3.1-.8.2-1.5v-4.8l.1-.6v-1.7l.1-1.9v-1.3l.2-1.2v-1.5c0-.3.2-.8-.2-1q-.4 0-.4.5l-.2.6-.2 1.2q-.4 3-.2 6v2.6l.1 2.4v1.5l.1.8z" class="cls-3"/><path d="m108.4 85.5-.7 8" class="cls-4"/><path d="m107.6 93.4.1-.3.4-1.4.2-1.3V90l.2-.3V89l.2-1v-.6l.1-.5V86q.1-.3-.4-.5-.4 0-.4.2v.3l-.2.6q-.3 1.5-.2 3l-.2 1.2V93zm27.4 10 .2-.5q.4-.6.6-1.3l.3-1 .4-2.2.2-.6v-.5l.3-1.4.1-1.6V93l.2-1v-1q.1-.5-.4-.9-.4.2-.4.5v.5l-.2 1q-.4 2.5-.4 5 0 1-.3 2l-.3 2-.3 1.2z" class="cls-3"/><path d="M111.3 97.7c7.5-.4 15.2-.8 22.4 2.1q1.6.6 2.7 1.7 1.3 1.3 1.2 3.3c-.3 1.9-2 2.9-3.6 3.5a58 58 0 0 1-21.4 4.1q-6.6-.1-13.2-1l-7.2-.8z" class="cls-4"/></g></svg>