<svg xmlns="http://www.w3.org/2000/svg" id="Layer_2" viewBox="0 0 277.4 226.7"><defs><filter id="luminosity-noclip" width="277.4" height="226.7" x="0" y="0" color-interpolation-filters="sRGB" filterUnits="userSpaceOnUse"><feFlood flood-color="#fff" result="bg"/><feBlend in="SourceGraphic" in2="bg"/></filter><style>.cls-6{fill:#202020}</style><mask id="mask" width="277.4" height="226.7" x="0" y="0" maskUnits="userSpaceOnUse"><g style="filter:url(#luminosity-noclip)"><rect width="36.9" height="57" x="127.8" y="109.8" rx="18.4" ry="18.4" transform="rotate(-5.8 146.2 138.3)"/><path d="M163 156.8a18 18 0 0 1-8.4 8l-2 .8-1 .4-.7.1-.6.1-1.2.3h.2c1 0 3-.2 4.6-.8a18 18 0 0 0 11.1-11.3q1.5-3.8 1-8l-.7-8-.7-8.1-.4-4-.3-2-.6-2.1a19.2 19.2 0 0 0-33.8-5.2l-1.3 2.1-.6 1.2-.5 1.1a20 20 0 0 0-1 10q.7 4.8 1 9.7l.5 4.5.4 2.7q.1 2.6.8 5.3a19 19 0 0 0 10.6 12.2l1.6.6 1.5.4q1.4.2 2 0 1.2 0 2.3-.3l1.2-.2.5-.2h.3l.1-.1h.1c0 .2 0-.7.1.6v-.6h-1.7l-1.7-.1q-1 0-1.7-.3l-1.7-.4q-3.3-1-6-3.2a18 18 0 0 1-6.6-12l-2-18.5-.2-2.3v-2.3l.4-2.2.6-2.1.3-1.1.5-1 1.1-2q1.3-1.9 3-3.3a17.6 17.6 0 0 1 26.9 4.1l.7 1.5.6 1.3.7 2.3.4 2.4 1 9.4c.2 2.3.8 6.1 1.1 8.2.1 1 .6 3.7.2 6.3a20 20 0 0 1-2 6Z"/><rect width="33.1" height="22.1" x="85.3" y="95.5" rx="11.1" ry="11.1" transform="rotate(-89.7 102 106.5)"/><path d="M110.4 118.2a11 11 0 0 1-7.9 4.7h-.7l.2.2c.5.1 1.7.1 2.7-.2a11 11 0 0 0 8.7-10.4l.1-4.7.1-4.8v-3.6l-.2-1.3A11.8 11.8 0 0 0 95.6 91a12 12 0 0 0-5.5 10.3v10q0 1.6.3 3.3a12 12 0 0 0 3 5.8l2.7 2 1.8.8H99l1.4-.2.7-.2.3-.2h.3v.6-.7h-.9l-1-.2-1.8-.6q-1.8-.9-3.3-2.2a10 10 0 0 1-3.1-7v-11a10.3 10.3 0 0 1 13-10.5 10 10 0 0 1 7.4 8.4l.2 1.4v1.9a73 73 0 0 0 .2 8.5 10 10 0 0 1-2 6.9Z"/><rect width="22.1" height="24.1" x="131.9" y="73.1" rx="9.5" ry="9.5" transform="rotate(-86.5 143 85.2)"/><path d="M134.5 93.5a9 9 0 0 1-3.5-6.9V86l-.1.1q-.3 1 0 2.3a10 10 0 0 0 8 8l4 .3 2 .2h2a10 10 0 0 0 8.6-8.2l.2-1.3v-1.2l.2-2.4q0-2.6-1.2-4.9a10 10 0 0 0-8.2-5.3l-4.8-.3h-2.3c-.6 0-.7.2-1.4.3a10 10 0 0 0-7.5 9.2q0 .6.2 1l.7 2.2.4-3.4q.2-1.5.9-3.1a9 9 0 0 1 9-4.9l4.6.3q2.2.1 4 1.3a9 9 0 0 1 4.2 8.4l-.1 2-.1 1-.1.8-.6 1.8a9 9 0 0 1-6.7 5.3h-8l-.9-.2-.9-.3a10 10 0 0 1-2.6-1.5m-20.9 9.2 3.4-.4h.3v-.2h-1a125 125 0 0 0-23 2l-.9.2-.5.2-5.2 1.3-.8.7q3-.2 5.8-1a135 135 0 0 1 14-1.9l2.4-.2 1.2-.1 1.7-.4zm-1.6-2.1 2.8-.5h.2v-.1l-.9-.1a179 179 0 0 0-17.7 1.3l-1.7.2H94q-.2.2-.5.2l-3.6.5-.5.1-.3.2-.7.7q2.4-.1 5-.5a171 171 0 0 1 11.9-1.3l2-.2h1l1.4-.4zm-17.8-2.3-.4 1.2v.1l.3-.2q1.3-2.2 2.7-4l1.7-2.5.4-.6.2-.3.1-.2 1-1.2.1-.2v-.7l-1.6 1.6-1.7 2.3-1.4 2-.5.8-.2.4-.2.6zm4.9-.8-.5 1v.2l.3-.3q1.5-1.6 2.9-3.6l1.5-2.3.4-.6.2-.2v-.2l.9-1.3v-.4l-.2-.5-1.2 1.6-1.5 2.3-1.4 1.8-.4.7-.3.4-.2.6zm2.7.2-.6 1.1v.1l.3-.2 4.7-5.8.4-.6.2-.3.1-.2 1-1.2v-.4l-.2-.6q-.7.7-1.3 1.7l-1.6 2.2-1.5 1.8-.5.7-.2.4-.3.6zm4 .5-.4.9h.3l3.6-5 .3-.5.1-.2v-.1l.7-1 .1-.3-.3-.5q-.6.5-1 1.3l-1.2 1.9-1.1 1.6-.4.5-.2.3-.1.5zm2.7.5-.2.8h.2l2.7-4.3.2-.4.1-.1v-.2l.6-.8v-.3l-.2-.4-.8 1.1-1 1.6-.8 1.3-.3.5-.1.3v.4z"/><path d="m153.6 86 3-.4h.3v-.1l-1-.1a151 151 0 0 0-20.6 1.7l-.8.1-.5.2-3.9.6-.5.1-.3.3-.8.6 5.3-.6a172 172 0 0 1 12.7-1.5l2-.2 1.2-.1 1.5-.3c.4-.2 2-.2 2.4-.2Zm2-3.9 3.4-.3.3-.1-1-.2a97 97 0 0 0-23.1 2.7l-1 .2-.5.2L129 86l-.4.2-.8.6q3-.4 5.8-1.3a107 107 0 0 1 14.2-2.5l2.3-.2 1.3-.1 1.6-.4zm-21.3-1.6-.2.8.2-.1 2.3-4.6.2-.4.1-.2v-.2l.4-1v-.2l-.2-.3-.7 1.2-.8 1.7-.7 1.4-.2.6-.1.2v.5zm2.7.2-.4.8v.1l.2-.1q1.3-1.2 2.2-2.8l1.2-2.4.1-.3.6-1v-.3l-.3-.5-.9 1.4-.9 1.8-.8 1.5-.3.6-.2.3-.1.4q-.1.4-.4.6Zm4.8-1.8-.2.7h.2l2.6-3.7.2-.4.1-.2v-.1l.5-.8V74l-.2-.4-.8 1-.8 1.5-.8 1.1-.3.5-.1.2v.4zm3 .7-.2.8h.2l3-5 .1-.1.5-1V74l-.3-.5-.8 1.2-1.7 3-.3.5-.1.3-.1.4zm2.8.9-.1.8.2-.1 1.5-2.5 1-1.5.2-.4v-.1l.1-.2.6-.7v-.3l-.1-.4-1 1-1 1.4-.8 1.3-.2.4-.1.3v.4zm2.5-.2q0 .3-.2.5v.1h.3q1-.5 1.7-1.3l.7-1.1.1-.3.1-.1V78l.3-.7v-.2l-.5-.4q-.4.3-.6.8l-.6 1-.6.7-.3.3v.5z"/><path d="M134.2 172a322 322 0 0 0 31-.8q.4.3.5.8l1 3.3" style="stroke:#000;stroke-miterlimit:10;stroke-width:.65px"/><path d="M170.5 179.4h.9l.2-.1h.3v.2l.3 1 .5 1.5v-1.3l-.2-1.1v-.9l-.1-.2h-16.2l-10.7.2h-12q-.7.4-1.3.5 4 .5 8 .6l10.4.1h9c1.5.1 1.8 0 3.2 0h1.8c.6 0 1.7-.2 2.2-.4zm2.7 5.1h1.5q.5-.2.5.4l.2 2.8.1.4q.3-.6.3-1.6V185l-.1-.8-.6-.5h-2.8l-5.5-.2h-11l-13 .1h-4.9l-1 .2h-6l-.1.5-.3.6-.3.8-.3 1v.8l.2 1.7 1-2.2.5-1.1.2-.6v-.1l4.5-.1 12.7-.2h15l2-.1 2.8-.3z"/><path d="M84 74q-3.8-1-6.7-3.8" style="fill:#fff"/><path d="m84 73.6-1.5-.6-.8-.2-1.7-1-1-.5-1-.6-.2-.2-.5-.3.2.3.4.3c.3.3 1.1.9 1.1 1.1l.6.5.4.2c.5.4 1.3.7 1.2.8l.5.3.4.2.9.3q.3.2.7.2l.3-.3.1-.5Zm3.9-1.1-.9-1-.5-.5-1-1.1-1-.5-.6-.5-.1-.2v-.3l-.2.1.1.5c.2.4.9.7.8 1l.4.4.3.2c.2.3.8.8.6.9l.3.3.2.2.5.6q0 .2.3.4l.4-.1zm3.6-1q-.1-.5-.5-1l-.3-.5-.5-1.2-.5-.8-.4-.6-.1-.2-.2-.3v.2l.1.3c.1.3.4 1 .3 1.1q0 .3.2.5v.3q.5.7.3 1l.2.3v.2l.4.6.1.4h.5zm4.6-.7-.5-1.2q-.2 0-.4-.6t-.5-1.4l-.5-.9-.3-.8-.1-.2-.2-.4v.6q.3.8.3 1.3l.1.6.1.3c.1.5.5 1 .3 1.1l.2.5v.3l.4.6q0 .3.3.6l.4-.1zm4.1-.8v-.2l-.5-.8-.3-.5v-1.2q-.2-.3 0-.7v-1l.1-.3-.1.1-.2.4c-.1.2-.2.9-.4 1v.5l-.1.3v1.7l.4.6s0 .4.2.4l.4-.1zm3.6-.2q-.2-.2-.3-.9v-4.8l-.2.2v.4c-.1.4-.1 1.2-.3 1.3l-.1.6v.4c-.1.4-.1 1.1-.3 1v1.8l.2.4.3.3.4-.3zm3.6.2v-1.8l.2-1.3v-.8l.3-.8v-.2l.1-.3h-.1l-.2.4c-.2.3-.4 1-.6 1l-.1.5-.2.4c0 .3 0 1-.2 1l-.1.4v1.4l.5.1zm3.9.3.2-1.3v-.7l.2-1.5.1-1 .2-.8v-.3l.1-.4-.1.2-.2.4c-.1.3-.3 1-.5 1.1l-.2.6-.1.4c-.2.4-.2 1.2-.4 1.1v.5l-.1.3v1.4l.3.1zm3.7-.5.1-1.5v-.8q0-.9.3-1.7v-1.2l.2-1v-.3l.1-.5-.1.2-.2.5c-.1.4-.3 1.3-.5 1.4l-.2.7v.4c-.2.5-.2 1.3-.4 1.3l-.1.5V69s-.3.5-.2.6l.5.2zm3.9.8v-1l-.1-.5.1-1.1v-1.9l-.2.1v.4c-.1.2-.2.8-.4.8v.5l-.1.3q0 .6-.2.8v1q-.2.3 0 .4l.4.1zm3.6 0v-.2q.2-.6.2-1.3v-.7q0-.8.3-1.5v-1l.2-1v-.7.2l-.2.4c-.2.4-.3 1.2-.5 1.3l-.2.6v.4c-.2.4-.3 1.1-.4 1l-.1.6v1.1l-.2.6.5.1s.4.1.4 0Zm3.5.7.2-.7v-.4q0-.4.3-.8v-.5l.2-.5V68q-.3.1-.2.3c-.1.1-.3.6-.5.6l-.1.3-.1.2q-.2.5-.4.5v.3l-.1.1v.5q-.2 0-.2.3l.4.2zm3.4 0 .7-1.6.2-.9.8-1.8.5-2.4.1-.4v-.6.3l-.3.5c-.1.5-.4 1.5-.6 1.5l-.3.8-.2.4c-.3.5-.5 1.4-.7 1.3l-.2.6-.2.3-.3 1-.4.6.4.3q.1.2.4.2m3.8 1.3.5-1.2.1-.7.6-1.5q0-.6.2-1l.2-1.2v-.4l-.1.2-.2.4c-.1.4-.3 1.1-.5 1.2l-.2.5-.2.4q-.2.8-.5 1l-.2.4v.3l-.3.7q-.2.1-.3.5l.4.3zm4-.5.5-1.2.2-.7.6-1.5q0-.6.2-1l.3-.9v-.2l.2-.5-.2.2-.2.4c-.2.3-.4 1.1-.6 1.1l-.3.6-.2.4-.5 1-.2.4-.2.3-.2.7-.2.5.3.3zm4.2.3.5-1 .1-.5q.2-.6.6-1 0-.6.2-.9l.2-.7.1-.2.1-.3-.2.1-.1.3c-.2.2-.4.8-.7.8q0 .3-.2.5l-.2.2c-.2.3-.3.9-.5.8l-.2.3v.2l-.3.6q-.2.1-.2.4l.3.3zm3.9-.4.4-1 .2-.6q.2-.6.6-1 0-.6.3-.9l.4-.6.1-.2.2-.3h-.2l-.3.3c-.2.2-.5.8-.7.8l-.3.4-.2.3c-.3.3-.5.9-.6.8l-.2.4-.1.2-.2.6-.2.5.3.2zm3.6 1v-.2q0-.4.3-1v-.3l.2-.3.7-1.2q0-.5.3-.8l.5-1 .2-.2h-.2l-.2.3c-.3.3-.6 1-.9.9l-.3.4-.2.3c-.2.4-.4 1-.6.9l-.1.2-.1.1-.1.3-.3.7-.1.6.4.2zm2.9.7.4-1.1.1-.6.7-1.1c.1-.5.2-.5.4-.8l.6-.8.2-.3h-.2l-.3.3c-.2.2-.6.8-.9.7l-.3.5-.3.2c-.2.3-.4 1-.6.8l-.2.4-.1.3-.2.7-.2.5.4.2zm3.1.7q.2-.5.6-.9 0-.2.3-.5l1-.8q.1-.5.5-.6l.6-.5.2-.1.3-.2h-.2l-.4.1c-.3 0-.8.5-1 .4l-.5.3-.3.2c-.3.2-.7.7-.8.6l-.3.3-.2.2-.3.6s-.4.3-.3.4l.3.3zm2.8 1.5.8-.7.4-.4 1.1-.5.7-.4.6-.3h.2l.3-.3h-.5q-.7.3-1 .2l-.5.2-.3.1c-.3.1-.8.5-.9.3l-.3.2-.3.1-.5.4s-.4.1-.3.3l.1.4zm2.6 1.8.9-.5.3-.3 1-.5.5-.4.5-.4.2-.1.2-.2h-.2l-.2.1c-.3 0-.7.4-1 .3l-.3.1-.3.1q-.4.3-.7.3l-.3.1-.2.1-.4.3q-.3 0-.4.2l.1.4zm1.7 2.8h-.2v.1h-.2zl.4-.1.7-.3.8-.3q.8-.4 1.7-.5.5-.5 1.1-.6l.9-.5.3-.2.4-.3h-.3l-.5.3c-.3.1-1.2.6-1.4.4l-.6.2-.5.1-1.2.3h-.6q0 .2-.3.2-.4 0-.8.3h-.4l.1.5zm7.5 10.2-.3-.4-3-2.7q-.6-.2-1.8-1.3a22 22 0 0 1-3.3-3.5 8 8 0 0 1-1.7-2.5l-1-2.6-.7-.7-.5-.4-.7-.1.7.3q.5.3.9 1t.8 2l.6 1.6 1 1.7.8 1c.8 1 2.5 2.5 2.3 2.5 1 1 1 1 1.2 1l.7.7 1.8 1.6c.3.2 1 1.1 1.3 1.2h.6c0-.2.4-.3.3-.4"/><path d="m6 29.4.1-.2.2-.3v-.1l-.2-.3q-.2 0-.2-.3L6 28q-.2.2-.1 0-.1-.1 0-.2H5l.2-.3c.5-.6 0-.4.2-.7H5l.2-.4-.1-.1L5 26h-.6l.1-.3h-.1v-.3q.2 0 0 0h-.6l.2-.2V25l.3-.2h-.5q-.2 0 0 0v-.2c.2 0-.1 0 0 0 0-.3.4-.4-.1-.3h-.4V24h-.1q-.1 0 0-.2v-.2h-.7l-.4.1H2v.3l-.1.1v.9l.1.2.3.2v.2l.3.2v.5h.2v.3l.3.1q-.1.3 0 .2t0 .2h.3v.1q.3 0 .2.3v.2H4v.8l.2.2.4.3q.3 0 .5.2v.1l.2.1h.2q0 .2.2.3h.1l.2-.1Zm1.9-5 .1-.2.2-.3.1-.1-.1-.2q-.2 0 0-.2v-.1q-.1.1-.1 0v-.1h-.3l-.3.2.2-.3c.5-.6 0-.3.3-.6h-.1q-.3.3-.2 0l.2-.2q0-.1-.1 0V22l-.3.2-.3.1.2-.2h-.2l.1-.2q0-.1-.1 0L7 22l-.2.2V22l.2-.2.1-.2H7l-.2.2q-.3.2-.1 0v-.1c0-.1.3-.4-.1-.1l-.3.2v-.2h-.1q-.2 0 0 0l-.1-.1h-.2l-.3.4-.3.2-.1.1-.1.2v.4h.2l.1.1h.3v.3h.1v.1h.3s-.2.3 0 .1v.1h.4l-.1.2h.2v.5l.3.1h.3v.2h.6zm4.2-2.4.1-.2.2-.2.1-.2-.3-.3q-.2 0-.2-.3l.1-.2q-.2.1-.1 0-.1-.1 0-.2h-1l.2-.3c.4-.6-.1-.4 0-.8h-.1q-.3.2-.2 0l.1-.3q0-.2-.2-.2l-.1-.1h-.3l-.3.1v-.3H10v-.3q0-.1-.2 0h-.2l-.2.2v-.5l.1-.3h-.1l-.3.1q-.2.2-.1 0v-.2c0-.2.3-.5-.2-.2l-.3.1-.1-.2V17l-.2.1q0 .1 0 0l-.2-.2h-.2q0 .3-.3.3l-.4.3v.1l-.1.1v.4l.1.1h.3v.2q0 .2.2.2l.3.1.1.1.3.2v.2l.2.2h.1l.1.2H9v.2l.1.1h.3v.1q.2 0 .3.3v.1h.3v.8l.3.1.4.3.5.1v.2h.1l.3.1q0 .2.2.3l.2-.1zm9.7 7.5.1-.3.2-.3-.3-.4q-.3 0-.2-.3V28q-.1.1-.1 0-.2-.1 0-.2l-.3-.1h-.6l.1-.3c.4-.6 0-.4 0-.8q-.4.2-.3 0l.2-.3q0-.2-.3-.2v-.2l-.3.1h-.4v-.3l-.1-.1v-.2q0-.2-.2-.1h-.2l-.3.2.1-.3V25l.2-.3h-.4q-.3.2-.2 0l.1-.1-.2-.1c0-.2.4-.5-.1-.3l-.3.1-.2-.2v-.2q-.3.1-.2 0v-.2h-.3l-.4.2-.4.2-.1.1v.7h.3v.3l.1.2.3.2.2.1.3.2v.3l.2.2h.1l.1.2.3.2q-.1.2.1.2h.3l.1.2q.2 0 .3.3v.1h.2v.3l.2.6.2.2.6.3.4.1v.2l.3.1h.2q0 .2.3.3zm-4.3 5 .3-.1.2-.2h.2l-.1-.4q-.3 0 0-.3v-.1c.1 0-.2 0 0 0q-.1-.1 0-.2l-.2-.2h-.5l.2-.2c.6-.5 0-.3.3-.6h-.3l.2-.4-.1-.1-.1-.2h-.3l-.3.1.2-.2-.2-.1V31q.2-.2 0 0h-.3l-.2.2V31l.1-.2.1-.3q-.2 0-.3.2h-.1v-.2h-.1c0-.2.3-.5-.1-.2l-.3.2v-.1h-.1v-.2h-.1q-.1.1-.1 0l-.1-.1h-.2l-.3.3-.3.3-.1.2-.1.2v.2h.2v.2h.2l.2.2h.1l.2.1v.3h.2v.2h.3s-.3.3 0 .2h.2v.1q.2 0 .2.2v.1h.2v.2l-.2.4v.2q.3 0 .4.2.2 0 .3.2v.2h.2v.3h.3zm1.1 5.2v-.3l.2-.3V39l-.3-.3q-.2 0-.3-.3v-.2c0-.1-.2.2-.1 0q0-.2 0 0v-.3h-.7l-.3.1.1-.3c.3-.8-.1-.4 0-.9H17q-.4.4-.3 0l.1-.3q0-.2-.3-.1l-.1-.2-.3.1-.3.1v-.3l-.3-.1v-.2q0-.2-.2 0h-.2l-.2.3v-.9h-.2l-.2.2q-.2.2-.2 0v-.2h-.2c0-.3.2-.6-.2-.3l-.3.2-.2-.1v-.2h-.1q-.2.1-.2 0l-.1-.2-.2.1-.3.3-.3.3-.1.1v.3l.1.2.1.2h.3v.2l.3.1.3.1.2.1.3.1.2.3.1.1h.2l.1.2h.1l.3.1v.2h.4l.2.1.2.3v.1h.3l.1.2q0 .4.3.6l.2.1.6.3h.4v.2l.3.1h.3q0 .2.3.3zm9.2 3.5v-.7h-.3l-.3-.2v-.2.2q0-.2-.1 0V42h-.3v.3q-.2 0-.2.2v-.3c0-.8-.2-.3-.3-.7v.1q-.2.4-.2.1v-.3q0-.1-.2 0 0-.1-.1 0l-.1.1h-.1l-.2.3v-.3h-.1v-.2h-.2l-.1.3-.2.2v-.7h-.1l-.2.3q0 .2 0 0v-.2h-.2s.1-.4-.1 0l-.2.3-.2-.1v-.2l-.1.2q0 .2 0 0l-.2-.1-.1.1-.3.4-.2.3v.5h.1v.2h.3l.2.1h.6l.2.2h.6s0 .3.1.1h.6v.1h.1l.1-.1v.1l.4.4h.6l.3-.2.1.1h.2l.1-.2h.3zm9.7-4.8-.1-.2-.1-.4h-.5l-.3-.1-.1-.2v.1h-.1l-.2-.1H36l-.1.3-.2.2-.1-.3c-.1-.8-.3-.2-.4-.6H35q0 .5-.1.2l-.1-.4h-.3q0-.1-.1 0l-.2.2-.2.2-.1-.3h-.2l-.1-.1q0-.2-.2 0l-.1.2q0 .2-.2.2v-.5l-.1-.3h-.1l-.2.3q-.1.4-.1 0v-.1h-.2q.1-.5-.2-.1l-.2.2h-.1l-.1-.1v-.2l-.2.1q0 .2-.1 0l-.1-.1h-.2l-.3.4-.3.3v.5l.1.1.2.2h.2l.1.1.2.1h.4l.2.1h.3l.2.3h.4l.1.1h.4s0 .3.1 0l.1.2.2-.2h.2l.4.1v.1h.1l.2-.1.1.1.5.4h.3l.6-.1.4-.3.1.1h.2l.3-.2h.3zm2-3.9v-.3l.1-.3v-.1l-.3-.2-.2-.2v-.2l-.1.1-.1-.2h-.3l-.2.2-.2.2v-.3c.1-.8-.2-.3-.2-.7h-.1q-.2.5-.2.2v-.4q0-.2-.3 0 0-.1-.1 0l-.2.1-.2.3-.1-.3h-.2v-.2h-.2l-.1.3-.2.2v-.2l-.1-.2-.1-.3h-.1l-.1.3q-.1.4-.1 0v-.1h-.2c-.1-.1 0-.5-.2 0l-.2.3h-.2v-.2l-.1.2q0 .1-.1 0l-.2-.1v.2l-.2.4-.1.4v.4h.2l.2.2.1-.1h.1l.2.1h.4l.2-.1.2.1h.3v.1h.3s0 .3.2 0v.1l.2-.2h.1l.3.1v.2h.1l.1-.2.1.2.3.4h.6q.3-.2.4 0h.5q0 .2.2 0z" class="cls-6"/><path d="M41.8 34.2v-.3l-.1-.3v-.2h-.3q-.2 0-.3-.2V33l-.1.2q0-.2 0 0l-.2-.2h-.2l-.1.2-.2.3V33c0-.8-.2-.3-.3-.7v.1q-.2.3-.2.1v-.3q-.1-.2-.2 0c-.1 0-.1-.3-.2-.1l-.1.2h-.1l-.2.2v-.3h-.2v-.1q0-.2-.2 0l-.1.2-.2.2V32H38l-.1.3q-.1.2-.1 0V32h-.2c0-.1.2-.5-.1 0l-.3.2-.1-.1v-.2l-.1.1q-.2.2-.1 0l-.2-.1-.1.1-.3.4-.2.3v.1l-.1.2v.2h.2v.2h.2l.1.1.2.1h.7l.2.2.1.1h.6v.1h.7v.2h.2V34l.2.2.3.4h.7l.4-.2v.2h.3l.2-.2h.2zm16.7 7.2v-.7H58l-.3-.2v-.2s-.1.3-.1 0q-.1.1-.1-.1h-.3l-.2.2-.2.2v-.3c0-.8-.2-.3-.3-.7v.1q-.2.3-.2.1v-.3q-.2-.2-.3 0 0-.2-.2-.1l-.1.2h-.1l-.2.2v-.3h-.3v-.2h-.2l-.1.3-.2.2v-.3l-.1-.2V39h-.2l-.1.3q-.1.3-.1.1v-.2H54c0-.1 0-.5-.2 0l-.2.2h-.2v-.2h-.1c-.1.3-.1 0-.1 0H53l-.1.1-.3.4-.2.3v.5l.2.1.1.1h.4l.1.2h.8l.2.2h.7s0 .4.2.1v.1l.2-.1h.5v.2h.1l.1-.2.1.2.4.4h.8l.3-.1.1.1h.2l.3-.1h.2zm-5.8 4V45l.1-.3v-.2h-.1q-.2 0-.2-.2v-.2.1q0-.2-.1 0V44h-.2l-.2.2-.1.2v-.3c.2-.7 0-.2 0-.7v.1h-.1q-.1.4-.1.1v-.3q0-.1-.2 0 0-.2 0 0l-.2.1-.2.3v-.3h-.2v-.2l-.2.3-.1.2V43h-.1l-.2.3q0 .3 0 0v-.1h-.1c0-.1 0-.5-.2 0l-.1.2h-.2v-.2.2q-.1.1-.1 0l-.1-.1-.1.1-.2.4-.2.4v.5l.1.1h.8v.2h.5s0 .3.1 0v.1l.2-.1h.2v.2h.1l.1-.1v.1l.2.4h.5l.2-.1v.1h.2l.2-.1.1.1zm-5 6.8v-.3l.2-.3-.2-.4q-.3 0-.3-.3v-.2q-.1.2 0 .1h-.1v-.2h-.6l-.3.1.1-.3c.3-.7-.1-.3 0-.8h-.2q-.3.3-.2.1v-.4q0-.1-.2 0 0-.2-.2-.2l-.2.2h-.1l-.2.1v-.3h-.3v-.2q0-.2-.2 0l-.2.1-.2.3v-.6l-.1-.3H44l-.2.3q-.2.2-.1 0v-.2h-.3c0-.1.1-.5-.2 0l-.2.2-.2-.1v-.2l-.2.2q0 .2 0 0l-.3-.2v.2l-.3.4-.2.3v.5l.2.1.1.1h.3l.2.2h.7l.2.2.1.1h.2l.1.1h.3q0 .2.1.1v.1h.4l.3.1v.2l.2-.1.1.1q0 .4.2.6h.2l.5.2h.4v.2h.5q0 .2.2.3zm-2 6v-.3l.1-.3v-.1l-.4-.2q-.2 0-.3-.3v-.2s-.2.3-.1 0h-.1v-.2h-.4l-.2.1-.3.2v-.4c.2-.7-.1-.3-.1-.8l-.1.1q-.4.2-.3 0v-.3q0-.2-.2-.1 0-.2-.2-.2l-.2.2h-.1l-.2.1v-.3h-.3v-.3q0-.2-.2 0l-.2.1-.2.2v-.9h-.2l-.2.3q-.2.1-.1 0v-.2H41q.2-.6-.2-.3l-.3.2-.2-.2v-.2l-.1.1q-.2.1-.1 0l-.2-.2h-.2q0 .3-.3.4-.2 0-.3.2l-.1.1v.4l.1.2.1.1h.2l.2.3.1.1.4.1.2.1.3.1.2.3.1.1h.2v.2h.5v.2c.2 0 0 .2.2.1h.4l.3.2v.2h.3v.1l.4.6.3.1.6.2q.3-.2.5 0v.1h.6l.3.2zm9.3 4.7v-.3l-.1-.3v-.1h-.4l-.3-.2v-.2l-.2.2q0-.2 0 0l-.1-.2h-.3l-.1.3-.2.2V62c-.1-.8-.3-.3-.4-.7v.1l-.2.2-.1-.4q0-.1-.2 0 0-.1-.2 0l-.1.2H52l-.1.2-.1-.3q-.2.2-.2 0l-.1-.1q0-.2-.2 0v.2l-.2.3-.1-.3v-.2l-.2-.3v.1l-.2.3q0 .2 0 0v-.2h-.3s0-.4-.2 0l-.2.3h-.2v-.2h-.1c-.1.3 0 0-.1 0h-.2v.1l-.3.4-.2.4v.4l.2.1.1.2.2-.1.1.1.2.1h.8l.2.1h.3l.1.1h.3s0 .3.2 0v.1l.2-.1h.5v.2h.1l.1-.2.2.1q.1.3.4.4h.2l.5-.1.4-.2.1.1h.2l.2-.2q.2.2.3 0zm9.7-1.8-.1-.2-.1-.3v-.2h-.3q0 .3-.2 0l-.1-.1v.1q0-.1 0 0l-.2-.1v.1l-.1.2v.3l-.2-.3c-.2-.7-.2-.2-.4-.5v.2l-.2-.3-.1.1q0-.1-.1 0v.3l-.1.3-.1-.3q0 .1-.1 0h-.1q0-.2-.1 0v.6l-.2-.3v-.2l-.2-.2v.4q0 .4 0 0l-.1-.1-.1.1c0-.1-.1-.5-.2 0v.3h-.1v-.1.2q0 .1-.2 0v.6l-.1.4v.3l.2.1.2.1v-.1h.3l.2-.1.2-.2.2.1h.3V62c.1 0 .2.3.2 0v.1l.1-.2h.4v-.2l.2.1.3.3h.1l.3-.3.2-.2h.2v-.2h.3zm5.7-7.6-.1-.2-.2-.3v-.2l-.4.1h-.3v-.2c-.1 0 0 .4-.1.2q0-.1 0 0l-.2-.1-.1.1-.1.2-.1.3-.2-.3c-.2-.7-.2-.2-.4-.5v.1q0 .4-.2.1l-.1-.3q-.1-.1-.2 0h-.2v.3h-.1v.3l-.2-.2H67v-.1q-.2-.2-.2 0v.3l-.1.3-.2-.3v-.2l-.1-.2h-.1v.3q-.1.4-.2.1V53l-.2.1c0-.1 0-.5-.2 0v.3h-.3V53v.1q-.2.2-.2 0h-.1l-.1.1-.2.5-.1.3v.5h.3v.2l.3-.1h.7l.3-.1.2.1h.5l.2-.1s.1.3.2 0l.2-.1h.6v-.2l.2.2.5.2h.2l.4-.3.3-.3.1.1h.2l.1-.3h.3v-.4Zm2.2-5.6-.1-.3-.1-.3v-.1h-.8l-.1-.2v.2q0-.2-.1 0l-.2-.1-.2.1v.2l-.2.3-.1-.3c-.3-.7-.3-.2-.5-.6v.1q-.2.5-.2.2l-.2-.3q0-.1-.2 0 0-.2-.2 0v.3h-.1l-.1.3-.2-.3q0 .1-.2 0-.2-.2-.2 0v.2l-.2.3-.1-.2-.1-.2-.1-.3-.1.1v.3q-.2.3-.2 0v-.1h-.2c-.1 0 0-.5-.2 0l-.2.3H67v-.2l-.1.2q0 .1-.1 0h-.2l-.1.1-.1.4-.2.4v.3l.2.2h.1l.2.1h1l.3-.2.3.2h.5l.2-.2q0 .2.2.1.2 0 .2-.2h.5v.1h.2v-.2l.2.1.5.3h.2l.5-.3.4-.2h.3q0-.2.2-.2h.3v-.4Zm3.6-3.2V44l-.3-.1q-.2.1-.3-.2v-.2l-.1.2q0-.2 0 0l-.1-.2h-.2l-.2.2-.2.2v-.3c0-.8-.2-.3-.2-.7h-.1v.1q-.3.3-.2.1v-.3H74l-.1-.1-.1.2h-.1l-.2.3v-.3h-.2v-.2h-.2l-.1.3-.2.3V43l-.1-.2v-.3h-.1l-.2.4q0 .2 0 0v-.2h-.2c-.1 0 0-.4-.2 0l-.2.3h-.2v-.2.1q-.2.2-.2 0h-.1l-.1.1-.2.4-.1.4v.5h.2v.1h.3l.2.1h.4l.2-.1.2.2h.6s0 .3.2 0h.2q0-.1.1 0h.2v.1h.2v-.1l.2.1q0 .3.3.4h.6l.3-.1.1.1h.2l.2-.1h.2zm-13.4 6.8v-.7h-.3l-.2-.2v-.2s-.1.3-.1.1q0-.2 0 0l-.1-.2-.2.1-.2.2-.1.2v-.3c0-.8-.2-.3-.2-.7l-.1.1q-.3.4-.2.1v-.3q0-.2-.2 0 0-.2-.1 0l-.1.1h-.1l-.2.3v-.3h-.2v-.2h-.1q0 .2-.2.2l-.1.3v-.5l-.1-.3-.1.1-.1.3q-.1.2-.1 0v-.2h-.2s0-.4-.2 0l-.2.3h-.1v-.2h-.1c-.1.3 0 0-.1 0h-.1l-.2.2-.1.4-.2.3v.5h.1l.1.1h.2q.1.2.2.1h.6l.2.1h.2v.1h.3s0 .3.1 0l.1.1.2-.1h.3v.2h.1l.1-.2.1.2.3.4h.6l.3-.2.1.2h.2l.2-.2h.2zM58 58v-.3l.1-.3v-.1l-.2-.1q-.2 0-.3-.2v-.2s-.1.3 0 0q-.1.1-.1-.1h-.2l-.2.2-.2.2v-.3c.2-.8-.1-.3 0-.7h-.2l-.1.2v-.4q-.1-.1-.2 0l-.2-.1-.1.2H56l-.2.2V56h-.1v-.1q0-.2-.2 0l-.2.2-.1.2v-.7H55l-.1.3q-.1.2-.1 0v-.2l-.2.1q.1-.5-.1-.1l-.2.3H54v-.2c-.1.3 0 0 0 0h-.2l-.1.1-.2.4-.2.4v.5l.2.1h.2q0 .2.1.1h.6l.2.2h.5q0 .2.1.1h.6v.2l.2-.2v.2l.3.4h.9v.1h.2l.2-.1.2.1zm-22-5.7v-.7l-.3-.2-.2-.2V51l-.1.1-.1-.2H35l-.2.2-.2.2V51c.1-.8-.2-.3-.2-.7h-.1q-.1.3-.2.2V50q0-.1-.2 0s0-.3-.1-.1l-.2.2-.2.2V50h-.3v-.2q0-.1-.2 0l-.1.2-.2.3v-.8h-.2l-.1.3q-.1.2-.1 0v-.2l-.2.1q0-.5-.2-.1l-.2.3-.1-.1v-.2l-.2.1q0 .1 0 0H31l-.2.5-.2.3v.5l.2.2h.2l.2.1h.7l.1.2h.2l.2.1h.3s0 .3 0 0l.1.1.2-.1h.1l.3.1v.2l.2-.2v.2l.3.4h.7v.1q.2-.2.3 0h.5q0 .2.2 0l.1-.1v-.1Zm-8.7-2.7V49l-.3-.1-.3-.2v-.2s-.1.3-.1.1q0-.1 0 0l-.1-.2h-.3l-.2.2-.2.2v-.3c0-.8-.2-.3-.2-.7h-.1q-.2.5-.2.2v-.4H25q0-.2-.2 0l-.1.1h-.1l-.2.3v-.3h-.2l-.1-.2q0-.1-.2 0v.2l-.2.3-.1-.3v-.2l-.2-.3-.2.4q0 .2 0 0v-.2h-.3c0-.1 0-.5-.2 0l-.2.3-.2-.1v-.2.2q-.2.1-.2 0l-.2-.1v.1l-.3.5-.1.3v.5h.2v.2l.3-.1h.1l.2.2h.4l.3-.1.2.2h.6s0 .3.2.1h.2q.1-.1.2 0h.2v.2h.2v-.2l.2.2.3.4h.7q.2-.1.4 0h.7l.2-.2Zm12.8-4.1v-.2l-.1-.4v-.1h-.3q0 .2-.2 0v-.3l-.1.2q0-.1 0 0l-.1-.2-.2.1v.3l-.1.2-.1-.3c-.1-.8-.2-.2-.3-.6v.1q-.1.4-.2.1v-.3q0-.1-.2 0 0-.1-.1 0v.3H38l-.1.3v-.3h-.2v-.1q-.1-.2-.2 0v.3l-.1.3-.1-.3v-.2l-.1-.3v.1l-.2.3q0 .4 0 0v-.1h-.2s0-.4-.1 0l-.1.4h-.1v-.2l-.1.1q0 .1-.1 0h-.1l-.1.1-.1.5-.1.4v.4h.2v.2l.2-.2v.1h.5l.2-.1h.2v.1h.3l.2-.1s0 .3 0 0l.1.1.2-.2h.3v.1l.1-.2.1.1.3.4h.2l.3-.2q.1-.2.3-.2h.2l.1-.2q0 .2.2 0zm3.4-5.4V40l-.1-.3v-.2H43l-.3-.1V39q0 .2-.1.1l-.2-.1-.2.1v.2q-.2 0-.2.3l-.1-.4c-.1-.7-.3-.2-.4-.6v.1q-.2.5-.2.2l-.1-.4h-.4v.3h-.2v.3l-.2-.3q0 .2-.2 0t-.2 0v.2l-.1.3-.2-.3-.2-.3-.1.4q0 .4 0 0l-.2-.1h-.1c-.1 0-.1-.4-.2 0l-.1.4h-.2v-.2l-.1.2q0 .2-.1 0h-.2v.1l-.1.5v.7l.2.1.1.1.2-.1h.7l.2-.2.2.2h.1l.1-.1h.4q0 .2.2 0 0-.2 0 0l.2-.2h.3l.1.2.2-.2v.1l.5.3h.2l.4-.1q.1-.2.3-.2h.3l.1-.1h.3v-.3m-16.2-5.6v-.8H27l-.2-.1v-.2c0-.1 0 .3 0 0h-.1q0 .2 0 0h-.2l-.2.2-.1.2v-.3c0-.8-.2-.3-.2-.7v.1h-.1l-.1.2v-.4q0-.2-.2 0 0-.2-.1 0l-.1.2h-.1l-.2.2V33H25v-.1q0-.2-.2 0v.2l-.2.3v-.8h-.2l-.1.4q-.2.2 0 0v-.2h-.2c0-.1.1-.5-.1 0l-.2.2h-.2v-.2.1q-.2.2-.1 0H23l-.2.5-.2.3v.5l.1.2.2-.1v.1h.8l.1.2h.3v.1h.3s0 .3.1 0v.1l.2-.1h.3v.2h.2v-.2l.1.2.3.3h.6q.1-.2.3-.2v.1h.2l.2-.2.2.1zm4.6-4.8v-.7l-.5-.1-.3-.2v-.2s-.2.3-.2.1q0-.1 0 0l-.1-.2-.3.1-.2.2-.2.2v-.4c0-.7-.3-.2-.4-.7v.1h-.1l-.2.2-.1-.4h-.3q0-.2-.2 0l-.1.1h-.1l-.2.3v-.3H28v-.2h-.3v.3l-.2.2-.2-.3v-.2l-.1-.2H27l-.2.3q0 .4 0 0l-.1-.1h-.2c-.1-.1 0-.5-.3 0l-.2.2h-.2v-.2l-.1.2q-.1.2-.2 0l-.1-.1-.2.2-.1.4-.2.4v.2l.2.2.1.1.2.1h1.3l.3.1h.3l.1.1h.3s0 .3.2 0v.1l.3-.2h.1l.3.1v.2h.2l.1-.2.1.2q.3.1.5.4h.8l.4-.2v.2h.3l.2-.2.3.1zm-15.5-8.3v-.3l.1-.3v-.2h-.1l-.1-.2v-.2.2q0-.2-.1 0v-.2h-.2l-.1.2-.2.2v-.3c.2-.7 0-.2 0-.6q-.2.5-.2.2v-.4q0-.1 0 0 0-.1-.2 0v.2H15l-.2.2v-.4h-.2v.3l-.2.3v-.8.1l-.2.3q0 .2 0 0v-.2l-.2.1c0-.1.1-.5 0 0l-.2.2h-.1v-.2l-.1.2q0 .1 0 0h-.1l-.1.1-.2.4-.2.4v.4l.1.2.1-.1.2.1h.2l.2-.1v.1h.2l.1.1h.2q0 .2 0 0l.2-.1h.2v.2l.2-.2v.1l.1.4h.4l.2-.2v.1h.2l.1-.1q0 .2.2 0zm-4.1 8.1.1-.2.2-.2.1-.2-.1-.1q-.3 0-.1-.2v-.2q-.2.1 0 0-.2 0 0-.1H12l-.2.2q-.2 0 .1-.3c.5-.6 0-.3.3-.6H12q-.4.3-.2 0l.2-.2q0-.1-.2 0v-.2l-.2.2h-.1l-.2.1v-.5h-.1l-.2.2-.2.2v-.3l.2-.2v-.2l-.3.2q-.2.2 0 0 .2-.5-.2-.2l-.2.2h-.1v-.2l-.1.1q-.1 0 0 0l-.1-.1h-.2q0 .3-.3.4l-.3.2v.1h-.1v.2l-.1.1v.2h.2v.2h.3l.2.1v.2h.2v.2h.2q0 .2 0 0 .1.1 0 .1h.3l.2.1v.1h.1v.6l.4.1h.3v.1h.3v.2h.1l.2-.2Zm1.8-3.5.2-.2.2-.3q0-.2-.2-.2t0-.2V25q-.1.2-.1 0v-.1h-.2l-.2.2-.2.1V25c.4-.7 0-.3 0-.7v.1q-.2.4-.2.1v-.3q0-.1 0 0l-.2-.1-.1.2h-.1l-.1.2v-.2h-.2V24h-.1l-.1.3-.1.2-.1-.2v-.5l-.1.1-.1.3q0 .3-.1 0v-.1h-.1s0-.5-.2 0v.3h-.2v-.2.2q-.1.2-.2 0l-.1.2v1.2l.1.2v-.2l.2.1h.2l.2-.2v.2h.4q0 .1 0 0l.2-.1h.2v.2l.1-.2v.5h.9l.1.1.2-.2Zm-.1 12.7v-.2l.2-.3V38l-.3-.3q-.2 0-.2-.3v-.2q-.1.2-.1 0l-.1-.2h-.8v-.3c.4-.7 0-.3 0-.8h-.1q-.2.4-.2 0v-.3q.1-.2-.1-.2l-.2-.1h-.3l-.3.2v-.4h-.2v-.3q0-.1-.1 0h-.3l-.2.2v-.6l.1-.3h-.1l-.3.2q-.2.1-.1 0v-.2l-.1-.1c0-.2.3-.5-.2-.2h-.3l-.2-.1v-.2c-.3.2-.1 0-.2 0v-.2h-.3l-.4.3-.4.2v.1L8 34v.4l.2.2h.2v.2l.2.2.3.2.2.1.3.2v.3l.2.1h.2v.2l.2.1h.2q-.1.4.1.3h.3l.2.2.2.2v.2h.3v.2l.2.6.3.1q.3 0 .5.3l.5.1v.2h.5q0 .2.3.3zm6.5 6.9v-.8h-.2l-.2-.2v-.2.1h-.1v-.1h-.2l-.2.2-.1.2v-.3c.2-.8 0-.3 0-.7h-.1l-.2.2.1-.4q0-.2-.1 0 0-.1-.1 0l-.2.1-.2.2v-.3h-.1v-.1q0-.2-.1 0l-.2.1-.2.3v-.3l.1-.2v-.3l-.2.3q-.3.2-.1 0v-.2s.2-.4-.2 0l-.2.2-.1-.1v-.2l-.1.1q-.1.2 0 0l-.1-.1h-.2l-.4.4-.3.2v.1l-.1.2v.4h.2v.1l.2.1h.2l.2.1h.2v.2l.2.1.1.1h.3v.1l.1.1.2-.1h.1l.2.1v.1h.2l.2.5h.6q.2-.2.3 0h.6zm8.2-7.1v-.5l.1-.2h-.3l-.2-.2v-.2s-.1.3 0 0h-.1v-.1h-.3l-.1.2-.2.2v-.3c.1-.7-.1-.2-.1-.7l-.1.1-.2.2v-.4q0-.2-.2 0 0-.2-.1 0l-.1.2h-.1l-.2.2v-.3h-.2v-.1q0-.2-.1 0l-.1.2-.2.3v-.5l-.1-.3v.1l-.2.3q-.2.3 0 0v-.1h-.2c0-.1 0-.5-.2 0l-.2.2h-.1v-.2l-.1.2q0 .1-.1 0l-.1-.1-.1.2-.2.4-.1.4v.5h.4q0 .2.1.1h.8v.1h.5s0 .3 0 0l.1.1.2-.1h.3v.2h.1l.1-.2v.1l.3.4h.6l.3-.1v.1h.2l.2-.1q0 .2.2 0v-.2zM7.2 18.9v-.6L7 18h-.3q-.2 0-.3-.2v-.2.2q0-.2-.1 0l-.1-.2H6l-.2.2-.1.3v-.4c0-.8-.2-.3-.3-.7v.1l-.2.2V17q0-.1-.2 0 0-.2-.2 0l-.1.1-.2.3V17h-.2v-.2q0-.2-.2 0L4 17l-.2.3v-.8h-.1l-.2.3q-.1.3-.1 0v-.1h-.1q0-.5-.2-.1l-.2.2h-.2v-.3.2q-.2.1-.2 0v-.1h-.2l-.3.5-.2.3-.1.2v.2l.1.1.1.2h.2l.2.2H3l.2.2h.2l.2.1h.2s0 .3.2 0v.1l.2-.1h.4v.2h.1l.1-.1.1.1.3.4H6l.3-.1H7zm62.5 21.8V40h-.3q-.2 0-.3-.2v-.2q0 .2-.1.1 0-.2 0 0l-.1-.2-.2.1-.2.2-.1.3-.1-.4c0-.7-.2-.2-.3-.6q-.2.5-.2.2v-.4h-.3q0-.2-.1 0l-.1.2h-.1l-.1.3-.1-.3q-.1.2-.2 0l-.1-.1q0-.2-.1 0l-.1.3-.1.2-.1-.2-.1-.2v-.3H66v.4q-.1.2-.1 0V39l-.2.1c-.1-.1 0-.5-.2 0l-.1.3h-.2v-.2l-.1.1q-.1.2-.1 0h-.2v.2l-.2.4-.1.4v.2l.1.2h.1l.1.2.2-.1h1.1v.1h.6q0 .1 0 0h.2l.1-.1h.4v.2h.1v-.2l.2.1.3.4h.6l.3-.2h.3l.2-.1q0 .2.2 0zM63 46.4l.2-.3.2-.2v-.2h-.1q-.2 0 0-.2v-.2s-.2.3-.1 0q0 .2 0 0h-.1l-.2.1-.2.2.1-.3c.3-.7 0-.2 0-.6l-.1.2v-.4q0-.2 0 0 0-.2-.2 0l-.1.2-.2.2v-.2l-.1-.2v.1l-.2.2v.3l-.1-.3v-.4l-.2.3q0 .4 0 0v-.1h-.1s0-.4-.1 0l-.1.4h-.1v-.2.1c-.1.3-.1 0-.1 0H61v.2l-.1.4v.9h.3l.2-.2v.2h.1l.2-.1s-.1.3 0 0v.1l.1-.2h.2v.2-.2.5h.3l.2-.2v.2l.2-.2.1.1zm-7.5 4.9v-.7h-.2q-.2 0-.2-.2v-.2s-.2.3-.1 0l-.1-.1h-.2l-.1.2-.2.3v-.4c.2-.7-.1-.2 0-.7l-.2.1q-.1.4-.1.1v-.3q0-.1-.2 0 0-.1 0 0l-.2.1-.2.2v-.2h-.2v-.2q0-.2-.1 0l-.1.2-.2.3V49l-.2.3q-.2.4-.1 0v-.1h-.2c0-.1.2-.5 0-.1l-.3.3-.1-.1V49l-.1.2v-.1h-.3l-.3.4-.2.3v.2l-.1.1v.2l.1.2h.2l.2.2h.6l.1.2h.5s0 .4.1.1v.1l.2-.1h.4v.2l.2-.1v.1l.2.4h.6l.3-.1v.1h.2l.2-.1q0 .1.2 0l.1-.2ZM51 39.2v-.8h-.3q-.1.1-.2-.1V38s-.1.3 0 0h-.1q0 .2-.1 0h-.2l-.1.2-.1.2v-.3c0-.8-.2-.2-.3-.6q-.2.5-.2.2v-.3q0-.1-.2 0 0-.2-.1 0l-.1.2h-.1l-.1.3v-.3h-.2v-.1q0-.2-.2 0v.2l-.2.3v-.5l-.2-.2-.1.3v.1-.2l-.2.1c0-.1 0-.5-.2 0l-.1.3h-.2v-.3.2q-.1.2-.1 0h-.2v.1l-.2.5v.7l.1.2h.8l.2-.1.1.1h.5s0 .3.2 0l.1-.1h.3v.2h.2v-.2l.1.1.3.4h.1l.4-.1.3-.2v.2l.2-.1.1-.1h.2zm1.6-4v-.8h-.3l-.2-.2V34q0 .2-.1.1 0-.2 0 0l-.1-.2-.2.1-.2.2-.1.2v-.3c0-.8-.2-.3-.3-.7v.1H51q0 .5-.1.2l-.1-.4q0-.1-.2 0 0-.2-.1 0l-.1.2h-.1l-.1.3-.1-.3q-.1.2-.2 0t-.2 0v.2l-.2.3v-.3l-.1-.1-.1-.3h-.1v.4q-.1.3-.1 0l-.1-.1h-.1c-.1 0-.1-.4-.2 0l-.1.4h-.2v-.2l-.1.1c0 .3 0 0 0 0H48v.2l-.1.5v.7l.2.1h.7l.3-.2.1.2h.4l.2-.1s0 .3 0 0h.1l.2-.1h.3v.2l.2-.2v.1l.3.4h.2l.4-.1.2-.2.1.2h.2l.1-.2.2.1zm34 10v-.7h-.3l-.2-.2V44s-.1.3-.1.1q0-.2 0 0l-.1-.2-.2.1-.1.2-.1.3v-.4c0-.7-.2-.2-.2-.6h-.1l-.1.2v-.4h-.2q0-.1-.1 0l-.2.2-.2.3v-.3h-.1v-.2h-.2l-.1.3-.1.3v-.3l-.1-.2v-.3h-.1l-.1.4q-.1.2-.1 0v-.2h-.1s0-.4-.2 0l-.2.3h-.1v-.3l-.1.2q0 .2 0 0h-.3l-.2.5-.2.3v.5l.2.2.1-.1h.1l.1.2.3-.1h.3l.2.1h.2v.1h.3s0 .3 0 0h.3q0-.2.1 0h.2v.1h.1v-.2l.2.2.2.4h.2l.4-.1.2-.2.1.1h.2l.1-.1h.2zm-1.4 8v-.8h-.4l-.4-.2V52s-.1.3-.1 0c-.1.2-.1-.1-.2-.1H84l-.2.2-.2.2-.1-.3c0-.8-.2-.3-.3-.7H83q-.2.5-.2.2V51q-.1-.2-.3 0-.1-.2-.2 0l-.2.1H82l-.2.2V51h-.3q0-.2-.2 0l-.2.2-.1.2-.1-.3-.1-.2v-.3h-.2l-.1.4q-.1.1-.1 0v-.2h-.2c-.1-.1 0-.5-.3-.1l-.2.3-.2-.1v-.2l-.1.2q-.2.1-.2 0l-.1-.2-.2.2-.2.3-.2.4v.5h.2l.1.2h.4q0 .2.2.2h.8l.2.2h.3l.2.1h.3s0 .3.2 0v.2l.2-.2h.2l.3.1v.2h.2l.1-.2.2.2q0 .3.4.4h.8q.2-.1.4 0h.9zm-4.1 5.1V58l.2-.3v-.1l-.3-.2q-.1.1-.2-.2V57s-.1.3 0 .1h-.1V57h-.2l-.2.2-.2.2V57c.2-.8 0-.3 0-.7H80q-.3.3-.2.1v-.3q0-.1-.1 0c-.1 0 0-.3-.2-.1l-.1.2h-.1l-.2.2V56H79v-.2q0-.1-.2 0l-.1.2-.2.2v-.7h-.1l-.2.3q-.1.2 0 0v-.2H78s.1-.5-.2 0l-.2.2h-.1v-.2l-.1.1q-.2.2-.1 0H77l-.2.4-.2.4v.5l.1.1h.2l.2.2h.6l.1.1h.2l.1.1h.2s0 .3.1.1h.6v.2l.2-.1v.1q0 .3.2.5h.9q0 .1.2 0h.2l.2.1zM78 64.2l.1-.3.1-.3v-.1l-.2-.2q-.2 0-.2-.2v-.2l-.1.1q0-.1 0 0v-.2h-.3l-.2.1-.3.2v-.3c.3-.8 0-.3 0-.7h-.1q-.2.3-.2.1v-.4h-.1l-.2-.1-.2.2-.3.2v-.4h-.1v-.2h-.2l-.2.2-.2.3v-.8l-.3.3q0 .2 0 0v-.2h-.2c0-.1.1-.5-.2-.1l-.2.3-.2-.1v-.2l-.1.1q0 .1-.1 0l-.1-.1-.2.1-.2.4-.3.3v.5h.1v.2h.3l.2.1h.7l.1.3h.2l.1.1h.3q0 .2.1.1v.1h.3q0-.2 0 0h.3v.2h.2l.3.6h.6v.1q.2-.2.4 0l.2.1h.5zm-2.2-5.4-.2-.3-.1-.3-.1-.1H75q-.3.3-.4 0l-.1-.1v.1h-.6v.3q-.2 0-.2.3l-.2-.3c-.2-.8-.3-.2-.5-.6l-.1.1q0 .3-.2.2l-.1-.4h-.5l-.1.3h-.1l-.1.3-.2-.3h-.2l-.1-.1q0-.2-.2 0v.2l-.2.3-.2-.2V58l-.2-.3-.2.4q0 .2-.1 0V58l-.3.1c0-.2 0-.5-.2 0l-.2.2h-.2V58l-.1-.1v.1q-.2.2-.2 0h-.2l-.1.1-.2.4-.2.4v.2l.1.2.2.1.2.1h.4l.2.1h1.2l.2.1h.4l.3-.1s.1.3.2 0l.1.1.2-.2h.5l.1.1h.1l.1-.2.2.1.6.3h.3l.6-.3.3-.2h.4l.2-.3h.4zm-.3-2.8v-.2l.1-.3v-.1l-.2-.1-.2-.2v-.2.1q0-.1-.1 0v-.2h-.2l-.2.3-.2.2v-.4c.2-.7 0-.2 0-.7v.1h-.1q-.2.4-.2.1v-.3q0-.1-.1 0L74 54l-.2.2-.2.3v-.3h-.1V54h-.2l-.1.2-.2.3v-.7l-.2.3q-.1.3 0 0V54h-.2c0-.1 0-.5-.2 0l-.1.2H72V54v.1q-.2.2-.1 0h-.2v.1l-.3.4-.1.4v.4l.1.2.2-.1v.1h.7l.1.2h.5s0 .3.1 0v.1l.2-.1h.3v.2l.2-.1v.1l.2.4h1.3l.2-.2zm13.7 7.5v-.7H89v-.1l-.1-.2v.1q0-.1 0 0l-.1-.1h-.1l-.1.3-.1.2v-.3c0-.8-.1-.2-.2-.6q0 .5-.1.2V62q0-.1-.2 0 0-.1 0 0v.2h-.1v.3l-.1-.3q0 .1-.1 0 0-.2-.1 0v.2l-.1.3-.1-.2V62l-.1.1v.3q-.1.4-.1 0v-.1h-.1s0-.4-.1 0v.4h-.1l-.1-.1v-.1.2q0 .2-.1 0l-.1.1-.1.5v.8l.1.1.1-.1h.3l.2-.2v.2h.3v-.2c.1 0 .1.4.2.1h.3v-.1l.1.1.2.4h.1l.2-.2.2-.2v.1h.1l.1-.2h.2zm-4 4-.1-.3-.1-.3-.1-.1h-.2q0 .2-.2 0v-.2.1h-.1c0 .2 0-.1-.1 0h-.1v.3l-.1.2-.1-.3c-.1-.7-.2-.2-.3-.6v.3l-.1-.4q0-.2-.1 0h-.1v.3h-.1l-.1.3v-.3H83v-.1q0-.2 0 0l-.2.2v.3-.7h-.1l-.2.4q0 .2 0 0v-.2l-.1.1c0-.1.1-.5-.1 0l-.2.2H82v-.2.1q-.2.2-.1 0h-.2l-.3.5-.2.3-.1.2v.3l.1.1h.2l.2.2h.4l.2-.1.1.1h.5s0 .3.1 0l.1.1.1-.2h.3v.2h.1l.1-.2.1.1.3.3h.2l.3-.2.2-.3.2.1.2-.2h.2zm6.5-11v-.8h-.4q-.1.1-.2 0l-.1-.2c0-.1 0 .3 0 0q-.2.1-.2 0h-.2v.3l-.2.2v-.3c-.2-.8-.3-.2-.4-.6v.1q-.1.3-.2.2V55h-.4v.3h-.2v.3l-.1-.3q-.1.1-.2 0-.2-.2-.2 0v.5l-.2-.2-.1-.2-.1-.3v.1l-.1.3v.1l-.1-.2-.2.1c0-.1 0-.5-.1 0l-.1.3h-.2v-.1.1c-.1.3-.1 0-.2 0h-.1v.2l-.1.4v.9h.9l.2-.1.1-.1.2.1h.4l.1-.1s.1.3.2 0l.1-.1h.5l.2.1.3.3h.2l.3-.2.3-.2v.1h.2l.2-.2h.2zm5.9-6v-.3l-.1-.3v-.1H97l-.3-.2v-.2l-.1.2q0-.1 0 0l-.2-.2-.2.1-.1.2-.1.3-.1-.3c-.2-.8-.3-.3-.4-.6h-.1q0 .5-.2.2V49h-.3q0-.1-.2 0v.2h-.1l-.1.3-.1-.2h-.2l-.1-.1q0-.2-.2 0v.3l-.1.2-.2-.2v-.2l-.2-.3v.1l-.1.3q0 .4-.1.1v-.2l-.2.1c-.1-.1-.1-.5-.2 0l-.1.3h-.2l-.1-.2v.2q-.1.2-.2 0h-.1l-.1.2v.4l-.1.4v.3l.1.1h.2v.1h.8l.2-.1.2-.1.2.1h.4l.2-.1s.1.3.2 0l.2-.1h.4v.1h.1v-.2l.2.1.4.4h.2l.4-.2.4-.2v.1h.2l.2-.2h.3zm-.1-3.8v-.8H97l-.3-.2v-.2.1q0-.2-.1 0l-.1-.2h-.3l-.1.3-.2.2v-.4c0-.7-.3-.2-.4-.6q-.2.5-.2.2l-.1-.4q-.1-.2-.2 0-.1-.2-.2 0l-.2.2-.2.2v-.3h-.3v-.1h-.2l-.1.2-.1.3-.2-.3v-.2l-.1-.2h-.1l-.1.3q-.1.4-.1 0v-.1h-.2c-.1-.1 0-.5-.3 0l-.1.3h-.2v-.2l-.1.1q-.1.1-.2 0l-.1.1-.2.4-.1.4v.5h.2l.1.1h.4l.1.1h.5l.2-.1.2.2h.7s0 .3.2 0h.2q0-.2.1 0h.3v.1h.1l.2-.1v.1l.4.4h.7l.4-.1h.7zm6.5 14-.1-.3-.2-.2V60l-.4.2q-.1.1-.4 0l-.1-.1c0-.1 0 .3 0 0v.1l-.3-.1-.1.2-.1.2-.1.3-.2-.3c-.3-.7-.3-.2-.6-.5v.1q0 .3-.1.2l-.2-.3q0-.1-.2 0-.1-.1-.2 0v.3h-.2v.3l-.2-.3q0 .2-.2 0h-.1q0-.3-.1 0l-.1.2-.1.3-.2-.3v-.2l-.2-.2-.2.4q0 .2 0 0l-.1-.2-.2.1c0-.1 0-.5-.2 0l-.2.2h-.2v-.2l-.1.2q0 .1-.1 0l-.2-.1-.1.2-.2.4-.2.3v.4l.1.1h.2q0 .2.2.2h2.5q0 .1.2 0 .2 0 .2-.2h.7v-.1h.3l.5.3h.3l.5-.4.3-.3h.3l.2-.3h.3v-.4Zm5.3-6.6V54l-.1-.3v-.2h-.4q0 .1-.2 0v-.2l-.1.1q0-.2 0 0l-.2-.1h-.1l-.1.3-.1.3-.1-.3c-.2-.8-.3-.2-.4-.6v.1q0 .4-.2.1l-.1-.3h-.3v.3h-.1v.3l-.2-.2h-.2v-.1h-.2v.6l-.2-.2v-.2l-.2-.3v.4q0 .4-.1.1l-.1-.2-.1.1c-.1 0-.2-.5-.2 0v.3h-.2l-.1-.1v.2q0 .2-.1 0h-.1v.6l-.1.4v.3l.2.1h.1l.1.1.1-.1h.5l.1-.1.2-.2.2.1h.3l.2-.2s.1.4.1.1q.2 0 .2-.2h.3v.1h.1v-.2l.2.1.4.3h.1l.4-.2q0-.2.2-.2h.2l.2-.2q0 .1.2 0zm2.2-3.8V50l-.1-.3v-.1h-.4l-.2-.1v-.2l-.1.2q0-.2 0 0l-.2-.2-.1.1v.3q-.2 0-.2.2v-.3c-.3-.7-.3-.2-.5-.6v.1q0 .5-.1.2l-.1-.3q-.1-.1-.2 0h-.1v.3h-.1v.3l-.2-.3-.2.1v-.1q-.2-.2-.2 0v.6l-.2-.3v-.1l-.2-.3v.4q0 .4-.1 0v-.1l-.2.1c0-.1-.1-.5-.2 0v.3h-.2v-.1.2q0 .1-.2 0l-.1.2v1.1l.1.1h.2v.1l.2-.1h.4l.2-.1.1-.2.2.1h.3l.2-.2s.1.3.1 0l.1.1V51h.4v.1h.1v-.2l.2.1.3.3h.2l.3-.2.2-.2h.3l.1-.2h.2zm-3-2.1-.1-.2-.1-.3v-.2h-.5q-.2.2-.4 0l-.1-.2v.1h-.1c0 .2-.1-.1-.2-.1l-.3.1-.1.2-.2.3-.1-.3c-.2-.8-.3-.3-.5-.6h-.1q-.1.5-.2.2l-.2-.3q0-.2-.2 0-.2-.1-.2 0l-.2.2-.2.3-.2-.3q0 .2-.2 0h-.1q0-.2-.2 0l-.1.2-.1.3-.2-.3-.1-.2-.1-.3-.1.1-.1.3q0 .4-.1 0l-.1-.1h-.2c-.1-.1 0-.5-.3 0l-.1.3h-.3v-.2l-.1.2q-.1.1-.2 0l-.2-.1-.1.2-.2.4-.1.4v.3l.2.1h.2l.1.2.2-.1h.2l.2.1h.6l.3-.1.3.1h.9s0 .3.2 0l.2-.1h.6v.1h.2v-.2l.2.2.6.3h.2l.6-.2h.1q.1-.2.4-.2h.3l.3-.2h.3zm-5.7 8.4V56l-.6-.2q-.3 0-.5-.2l-.1-.2-.1.1q0-.1-.1 0l-.2-.2h-.4l-.2.2q-.2 0-.3.2l-.2-.4q0-.5-.2-.5h-.2l-.2-.2h-.1q-.2.5-.2.2l-.2-.4q0-.2-.3 0s0-.3-.2-.1l-.2.1H98l-.2.2-.1-.3h-.3q0-.2-.2-.3 0-.2-.2 0l-.2.1-.2.3-.2-.4v-.2l-.2-.4h-.1l-.2.3q-.3.3-.2 0v-.2h-.3c-.2-.2 0-.6-.4-.2l-.3.3h-.1l-.2-.1-.1-.1v-.1l-.1.1q-.2.2-.2 0l-.3-.1-.2.2-.1.4-.1.4v.3l.2.1.2.1.1.1h.3l.1.1.3.1h.4l.3.1h.4l.3.3.2.1h.2l.2.2h.5s0 .4.2.2h.6l.5.2.1.2h.2l.2-.2.2.2.4.3.2.2h1.2c.2.1.4-.2.5 0l.2.1h1.1l.1-.2Z" class="cls-6"/><path d="m98 61.5-.1-.3-.2-.3v-.1h-.3q0 .1-.2 0v-.1c-.1 0 0 .3 0 0H97q0 .1-.1 0l-.2.1v.5l-.2-.3c-.2-.7-.2-.2-.3-.6v.2q0 .4-.1.1l-.2-.3q0-.1 0 0h-.2v.3l-.1.3-.1-.3-.1.1-.1-.1q0-.2-.1 0v.6L95 61v-.2l-.2-.2v.4q0 .2 0 0l-.1-.2-.1.2c0-.2 0-.6-.2-.1v.3h-.2V61v.1c-.1.3-.1 0-.1 0H94v.2l-.1.4v.8h.1l.1.2.1-.2.2.1h.4l.2-.2.2.1h.3l.2-.2s0 .3.1 0v.1l.2-.2h.4v-.1h.2q0 .4.3.4h.2l.3-.3.2-.3.1.1.1-.1v-.2h.3v-.3Zm-9-11.7v-.3l.1-.3v-.1l-.3-.1q-.2 0-.2-.2v-.2l-.1.1h-.1v-.2l-.3.1-.1.2-.2.2v-.3c0-.8-.2-.3-.2-.7l-.1.1q-.2.4-.2.1V48q0-.2-.2 0 0-.2-.2 0l-.1.1-.2.3-.1-.3h-.2V48q0-.2-.2 0v.2l-.2.3V48l-.1-.2v-.3h-.2v.4q-.2.2-.2 0v-.2l-.1.1c0-.2 0-.5-.2 0l-.2.2h-.1v-.2l-.2.2q0 .2 0 0l-.2-.1v.2l-.2.4-.2.4v.3l.2.2h.3q.1.2.2.1h.8l.1.1h.5s0 .3 0 0l.2.1.1-.1h.4v.2l.2-.2v.1q.2.4.4.4h.6l.3-.1v.1h.2l.2-.1h.2zm28 8.7-.1-.2-.1-.4v-.1h-.3q0 .2-.1 0l-.1-.2v.1q0-.2 0 0l-.1-.1-.1.1v.2l-.1.3-.1-.3c-.2-.8-.2-.2-.3-.6v.2l-.1-.3q0-.1-.1 0h-.1v.3h-.1v.3l-.1-.3-.1.1v-.2l-.1.1v.2l-.1.3v-.2l-.1-.2-.1-.3v.4q-.1.4-.1.1v-.2l-.1.1c0-.1 0-.5-.2 0v.3h-.1v-.2.2q-.1.1-.1 0h-.1v.2l-.1.4-.1.4v.4h.1l.1.2.1-.2.1.1h.3v-.1l.2-.1.1.1h.3l.1-.1s0 .3 0 0h.1l.1-.1h.3V59l.2.2.2.3h.1l.3-.3.1-.2.1.1h.1v-.2h.2zm-2.2 3-.1-.3-.1-.3-.1-.1h-.3q0 .2-.3 0v-.2.2q-.1-.2-.1 0l-.1-.2-.2.2v.2l-.1.3-.2-.3c-.2-.8-.2-.2-.4-.6v.1q0 .4-.1.2l-.2-.4-.1.1q0-.2-.2 0v.3l-.1.3-.2-.3q0 .2-.1 0h-.1q0-.2-.1 0v.5l-.2-.2-.1-.2-.2-.2v.4q0 .2 0 0l-.2-.2v.2c-.2-.2-.2-.6-.3 0v.2h-.2V61l-.1.2q0 .2 0 0h-.2v.1l-.1.5-.1.4v.2l.1.2h.2l.1.1.1-.1h.7l.2-.2.2.1h.4l.1-.2s.1.3.2 0v.1l.1-.2h.5v-.1h.2l.4.4h.2q.1-.2.4-.3l.2-.3.1.1h.1l.2-.2h.2zm13.9-1-.2-.2-.2-.2-.1-.2-.3.2q0 .2-.3 0l-.1-.1v.1q0-.1 0 0h-.2l-.2.1v.5l-.2-.2c-.4-.7-.3-.2-.6-.5v.3l-.3-.3h-.1l-.2.1v.6l-.3-.2h-.2q-.2-.2-.2 0v.5l-.2-.2-.1-.2-.1-.2-.1.1v.3q0 .4 0 0l-.1-.1-.2.1c0-.1-.1-.5-.2 0v.3h-.3V61v.2q0 .2-.2 0h-.1v.1l-.1.5v.7l.3.1h.6l.3-.1h.1l.3-.2.2.1h.1l.1-.1h.2l.2-.2s.2.3.2 0v.1l.2-.2q.3-.2.4-.1h.1v-.2l.2.1.5.2.2-.1.4-.3c.2 0 .1-.4.2-.3h.2l.1-.1.1-.2.3-.1v-.3zm-8.3-6.5v-.3l-.1-.3V53h-.4q0 .1-.2 0l-.1-.2v.1q0-.2-.1 0l-.1-.1-.2.1v.2l-.2.3V53c-.2-.7-.3-.2-.4-.6v.1q-.1.5-.2.2v-.3q-.1-.2-.3 0 0-.2-.1 0v.2h-.1l-.1.3-.1-.3q0 .2-.2 0 0-.2-.2 0v.2l-.1.3-.1-.3-.1-.1v-.3h-.1l-.1.4q0 .3 0 0l-.1-.1h-.2c0-.1 0-.5-.1 0l-.1.3h-.2v-.2l-.1.2q0 .1-.1 0h-.1l-.1.1-.1.4-.2.4v.3l.1.2h.2v.1l.2-.1h.1q0 .2.2.1h.4l.2-.2.2.2h.4l.2-.1s0 .3 0 0h.2v-.1h.4v.1h.2v-.2l.1.1.4.4h.2l.4-.2.3-.3v.1h.2l.2-.2h.2zm-1.5-3.7V50l-.1-.3v-.2h-.3q-.1.2-.3 0V49l-.1.2q0-.2 0 0l-.2-.2-.1.1-.1.2-.1.3-.1-.3c-.1-.8-.2-.2-.4-.6v.1q0 .4-.1.1l-.1-.3q-.2-.1-.2 0h-.2v.2l-.1.1v.3l-.2-.3h-.2v.1h-.2v.6l-.2-.3v-.1l-.2-.3v.4q-.1.4-.1 0l-.1-.1-.1.1c-.1-.1-.1-.5-.2 0v.3h-.3v-.2.2q0 .2-.1 0h-.2v.6l-.1.4v.3l.1.1h.1q0 .2.2.1h.3l.2-.1h.2l.2-.1h.1q0 .1.2 0h.4q0 .1 0 0 .1-.2.2 0v-.2h.4v.1h.1v-.2l.2.2.3.3h.2l.4-.2q0-.2.2-.2l.1.1h.1l.2-.2h.2zm10.5 1.7v-1q-.1.1-.2-.1v-.2.1-.1h-.1l-.1.3-.1.2v-.9h-.1v.2-.3q0-.1-.2 0 0-.2 0 0v.2h-.1l-.1.3v-.4q0-.1-.2 0v.3l-.1.2v-.7.1l-.1.3q0 .4 0 0v-.1h-.1s0-.4-.1 0l-.1.4-.1-.1v-.1.1c0 .3 0 0 0 0h-.1l-.1.2-.1.4-.1.4v.5h.4l.2-.2v.2h.2V52s0 .4.1.1l.1-.1h.2v.1-.2l.1.2.1.3.3-.1.1-.2v.1h.1l.1-.2q0 .2.1 0zm.9 4.3V56l.1-.3v-.1h-.2l-.1-.2V55v.1q0-.2-.1 0V55l-.2.1-.1.2-.2.2v-.3c.2-.8 0-.2 0-.6q-.2.5-.2.2v-.4h-.1q0-.2-.1 0l-.1.2-.2.3v-.3h-.1v-.1q0-.2-.2 0v.2l-.2.3v-.7l-.2.3q0 .4 0 0v-.1h-.2s.1-.4 0 0l-.2.3h-.1v-.2.2q-.2.2-.2 0v-.1l-.1.2-.2.4-.1.4v.4l.1.2.1-.1h.7v.1h.4s0 .3 0 0h.1l.1-.1h.3v.2l.1-.2v.1l.2.4h.4q.1-.2.3-.2v.1h.1l.2-.1h.1z" class="cls-6"/><path d="m128 59.3-.1-.3-.1-.5h-.3q0 .2-.2 0v-.2.1h-.1v-.1l-.2.1-.1.2-.1.3v-.4c-.1-.7-.2-.2-.3-.6v.1l-.1.2v-.4q0-.2-.2 0 0-.2 0 0l-.2.2-.2.3V58h-.1v-.2h-.1l-.1.3-.2.3v-.8l-.2.3q-.1.4 0 0v-.1h-.2c0-.1.2-.5 0 0l-.3.2h-.1v-.2.1q-.2.2-.1 0l-.1-.1-.2.1-.3.4-.2.3-.1.1v.4l.1.1h.2v.1l.2.1h.6l.2.2h.5q0 .2.1.1l.2-.1h.3v.2h.2v-.2l.1.1.3.4h.2l.4-.2.3-.2v.1h.2l.1-.2h.3v-.4Zm10.4 1.9v-.7h-.3l-.3-.2V60s-.1.3-.1.1q0-.2 0 0l-.2-.2-.2.1-.1.2-.2.2v-.3c0-.8-.2-.3-.3-.7v.1h-.1q-.1.3-.2.2v-.4q0-.2-.3 0 0-.2-.1 0l-.1.2h-.1l-.2.3v-.3h-.2l-.1-.2-.1.1-.1.2-.1.3-.2-.3v-.2l-.1-.2h-.1l-.1.3q0 .4 0 0l-.1-.1h-.2s0-.5-.2 0l-.1.3h-.2v-.2l-.1.2q-.1.1-.1 0h-.2l-.2.5-.1.4v.4l.2.1.1.1.2-.1h.1q0 .2.2.1h.4l.2-.1.2.1h.7s0 .3.1 0v.1q.2 0 .2-.2h.4v.2h.1l.1-.2.1.2.4.4h.2l.4-.1.3-.2.1.1h.2l.2-.1h.3zm-1.2 3.3v-.7h-.2l-.2-.2v-.2q0 .2-.1.1 0-.2 0 0l-.1-.2-.2.1-.1.2-.2.2v-.3c0-.8-.1-.3-.2-.7v.1q-.1.3-.2.1v-.3q0-.2-.2 0 0-.2 0 0l-.2.2-.2.2v-.3q-.1.2-.2 0v-.1q0-.2-.2 0v.3l-.2.2v-.4l-.1-.3h-.1l-.1.4q0 .2 0 0v-.2l-.2.1c0-.1 0-.5-.2 0l-.1.2h-.2v-.2.2q-.1.1-.1 0h-.2v.1l-.2.4-.1.4v.4l.1.1h.3l.2.1h.3l.2-.1.2.1h.5s0 .3 0 0l.1.1.1-.1h.4v.2l.1-.2.1.1.2.4h.6l.2-.2.1.1h.1l.2-.2.2.1zm5.3-7.9-.1-.2V56l-.1-.2h-.2q0 .1-.2 0v-.2q0 .2-.1.1 0-.2 0 0l-.1-.1h-.1l-.1.3-.1.3v-.4c-.2-.7-.2-.2-.3-.6v.1l-.1.2-.1-.4q0-.1-.1 0h-.1l-.1.3-.1.2-.1-.2h-.1v-.2l-.1.1-.1.2-.1.3v-.3l-.1-.2v-.2l-.2.3v.1-.2h-.2s.1-.4 0 0l-.2.3h-.2v-.2.2q-.1.2-.1 0l-.1-.1-.1.2-.2.4-.2.3v.5h.1l.1.1h.2l.2.1h.3l.2-.1.1.1h.5s0 .3.1 0v.1l.2-.2h.3v.2l.1-.2h.1l.3.4h.2l.3-.1.2-.3.1.1h.1l.1-.2h.2zm-3.2-4.2V52l-.2-.3v-.1h-.3l-.2-.1v-.2q0 .2-.1.1 0-.2 0 0l-.2-.1h-.1l-.1.3-.2.2v-.3c0-.7-.2-.2-.3-.6v.1q-.1.3-.2.1V51q0-.2-.2 0 0-.2 0 0l-.2.2-.2.3V51h-.2v-.2h-.1l-.1.3-.2.3v-.8h-.1l-.2.4q0 .2 0 0h-.2s.1-.4-.1 0l-.2.3-.1-.1V51l-.1.2q-.1.2-.1 0l-.1-.1-.2.1-.2.4-.2.3v.2l-.1.1v.2h.1l.1.2h.3l.1.1h.7l.2.2h.5s0 .3.2 0v.1l.2-.1h.3v.1h.2v-.1l.2.1.3.4h.2l.4-.2q.1-.2.3-.2l.1.1h.2l.1-.2h.3v-.4ZM63.1 35v-.7h-.4q-.1.1-.2-.2V34l-.1.2q0-.1 0 0l-.2-.2H62l-.1.3-.2.2v-.3c0-.8-.3-.3-.4-.7v.1q-.2.5-.2.2v-.4q-.2-.2-.3 0 0-.2-.1 0l-.1.2h-.1l-.1.3-.2-.3q0 .2-.1 0l-.1-.1h-.2v.3l-.1.3-.2-.3v-.2l-.1-.3-.1.1v.3q-.3.4-.2 0v-.1h-.2s0-.5-.2 0l-.1.3h-.2v-.2l-.1.2q0 .2-.1 0H58v.1l-.2.4v.9h.2l.1.1h.8l.3-.1h.2v.1h.6q0 .2.1 0l.2-.1h.4v.2h.1l.1-.2.1.1q.1.3.4.4h.1l.5-.1.3-.2.1.1h.2l.1-.1h.3zm-18.7-4.3v-.8h-.2l-.3-.2v-.2.1l-.1-.2-.2.1-.2.2-.2.2v-.3c0-.8-.1-.3-.2-.7v.1q-.2.4-.2.1v-.3q-.1-.2-.2 0 0-.2-.2 0v.1h-.2l-.1.3v-.3h-.2v-.1q0-.2-.2 0l-.1.2-.1.3-.1-.3v-.5l-.2.1v.3q-.3.2-.2 0v-.2l-.1.1c0-.1 0-.5-.2 0l-.1.2h-.2v-.2l-.1.2q0 .2 0 0h-.4l-.2.5-.1.4v.4h.1l.1.2.2-.1v.1h.8l.2.1h.5s0 .3.1 0v.1l.2-.1h.3v.2h.2v-.2l.1.1.3.5h.6q0-.2.3-.2v.1h.2l.2-.1h.2v-.2zm-12.5-4.9v-.2l.1-.3V25h-.2l-.1-.2v-.2s-.1.3 0 .1q0-.2-.1 0v-.2l-.2.1-.1.2-.2.2v-.3c.2-.8 0-.3 0-.7v.1q-.2.4-.2.1V24q0-.2-.1 0 0-.2-.1 0l-.1.1h-.1l-.1.3V24h-.2v-.2l-.2.3-.1.2v-.7h-.1l-.1.4q-.1.2-.1 0h-.1s.1-.4-.1 0l-.2.3-.1-.1V24v.1q-.2.1-.1 0h-.1l-.1.1-.2.4-.2.4v.5l.1.1h.7l.1.1h.2v.1h.2q0 .1.1 0h.2q0-.1 0 0h.2v.1l.2-.2v.2l.1.4h.5l.2-.2v.1h.5l.1-.2zM21.6 22l.1-.3.2-.3v-.1l-.2-.1-.1-.2v-.2q0 .1 0 0-.2 0 0-.1h-.3l-.1.2-.2.2v-.4c.3-.7 0-.2 0-.6q-.2.4-.2.1V20q0-.1-.1 0 0-.1-.1 0l-.2.1-.2.3V20h-.1v-.2h-.2v.3l-.2.2v-.7h-.2v.4q-.2.2-.2 0v-.2.1c-.1-.2 0-.5-.2 0l-.2.2h-.1v-.2.2q-.2.1-.2 0l-.1.1-.2.4v1h.6l.2-.1v.1h.2v.1h.3q0 .1 0 0h.2q0-.2 0 0h.2v.1l.2-.1v.5h1.2zM14 17.6l.1-.2.2-.3V17l-.1-.2-.1-.2v-.2s-.1.3 0 .1q-.1-.1 0-.2h-.2l-.2.1-.2.2v-.3c.5-.7 0-.3.3-.7l-.1.1q-.3.2-.2 0l.1-.3h-.1q0-.1-.1 0h-.2l-.3.2.1-.2v-.2q0-.2 0 0l-.2.1-.3.2.1-.2V15l.2-.3h-.1l-.2.3q-.3.2-.1 0s.2-.4-.2 0l-.2.2-.1-.1v-.2l-.1.1q-.1.2 0 0l-.1-.1-.2.1-.3.4-.3.2v.2l-.1.1v.4h.2l.1.1h.5v.2l.1.1h.1l.1.1h.2s-.2.3 0 0v.2l.2-.1h.1l.1.1v.1h.2v.5h.1l.4.1h.2v.1h.3l.2.1zm-5-2.1v-.7h-.2l-.2-.2v-.2.1l-.1-.1h-.2l-.1.2-.2.3v-1h-.1q-.3.5-.2.2v-.4h-.1q0-.1-.1 0l-.2.2-.2.2v-.3q0 .2-.1 0v-.1q0-.1-.1 0l-.2.2-.1.3v-.8.1l-.2.3q-.1.2-.1 0v-.2h-.1s.1-.4-.1 0l-.2.3-.1-.1v-.2l-.1.2-.2-.1-.1.1-.3.4-.2.3v.6h.3l.1.2h.6l.1.1h.2v.1h.3s0 .3.1 0v.1l.2-.1h.3v.2l.2-.2v.2l.3.4h.5q.1-.2.3-.2h.5zm71.5 24.1V39l-.4-.1q-.2.1-.4-.2v-.2.2q0-.2-.1 0l-.2-.2h-.2l-.2.2-.2.2v-.3c0-.8-.3-.3-.4-.7v.1h-.1q-.2.3-.2.1l-.1-.3q0-.2-.3 0 0-.2-.2-.1l-.1.2h-.1l-.2.3v-.3h-.3l-.1-.2h-.2v.3l-.2.3-.2-.3v-.2l-.1-.3h-.1l-.1.4q-.1.2-.1 0v-.2h-.3s0-.4-.2 0l-.2.3h-.2v-.1l-.1-.1v.2q-.2.1-.2 0l-.2-.1v.2l-.2.4-.2.4v.2l.1.2h.2l.2.2.1-.1h.2l.2.2.3-.1h.7l.2.1h.6s0 .3.1 0l.1.1.2-.1h.5v.2h.1l.1-.2.2.1q.1.4.4.4h.8l.3-.1.2.1h.1l.3-.1h.3l.1-.2zm9.8 2.4v-.5l-.1-.1-.3-.1q-.2.1-.3-.1V41l-.2.1-.1-.2-.2.1-.2.2-.1.3-.1-.4c0-.7-.2-.2-.3-.6l-.1.1q0 .4-.1.1l-.1-.3q-.1-.1-.2 0-.1-.2-.2 0l-.1.2h-.1l-.1.3-.1-.3h-.2l-.1-.1q0-.2-.1 0l-.1.2-.1.3-.1-.2-.1-.2-.1-.3h-.1v.4q-.1.2-.2 0v-.2l-.2.1c0-.1 0-.5-.2 0v.3h-.2l-.1-.1v-.1l-.1.2q0 .1-.1 0H85v.1l-.2.4v.9h.2l.1.1.2-.1h.1q0 .2.2.1h.4l.2-.2.3.2h.3l.3-.1s0 .3.1 0v.1q.2 0 .2-.2h.4v.2h.1l.1-.2.2.2.3.3h.7q0-.2.3-.2h.2l.2-.1h.3V42Zm18.9 3.9v-.3l-.1-.3V45h-.5l-.3-.2v-.2l-.2.2q0-.2 0 0l-.2-.2h-.2l-.2.3-.2.2-.1-.3c0-.8-.3-.3-.5-.7v.1q-.2.4-.2.1l-.2-.3q0-.2-.2 0-.1-.1-.2 0l-.2.2-.2.2-.2-.3q0 .1-.2 0h-.1q0-.3-.2 0v.2l-.2.3-.2-.3v-.2l-.2-.3v.1l-.2.3q0 .4 0 0l-.1-.1h-.2c-.1-.1-.1-.5-.3 0l-.1.3h-.3v-.2l-.1.1q-.1.2-.2 0h-.2v.2l-.2.4-.1.4v.2l.2.2h.1l.2.2.2-.1h.2l.2.1h.5l.3-.2.2.2h.8s.1.3.2 0l.3-.1h.5v.2h.1l.1-.2.2.1q.3.4.5.4h.8l.4-.2.1.1h.2l.2-.2.3.1h.1zm16.8 4v-.7h-.3q-.2 0-.3-.2v-.2.1l-.2-.1h-.2v.3q-.2 0-.2.2V49c0-.8-.2-.3-.3-.7v.1l-.2.2v-.4q-.2-.2-.2 0h-.2v.2h-.1l-.1.3-.1-.3q0 .1-.2 0 0-.2-.2 0v.2l-.1.3-.1-.3v-.2l-.2-.2-.1.4q0 .2 0 0l-.1-.2-.1.1c-.1-.1 0-.5-.2 0l-.1.3h-.2v-.2.2q-.1.1-.2 0t-.2.1v.4l-.2.4v.3l.1.2h.1l.1.1.2-.1.2.1h.2l.1-.1h.9s0 .3.1 0v.1l.2-.2h.3v.2h.1l.1-.2.1.1.3.4h.1l.4-.1q.1-.2.3-.2v.1h.2l.1-.2q.2.2.2 0l.1-.2Zm28.2 3.9-.1-.2-.1-.4h-.5q-.2.1-.4-.1l-.1-.2v.1q-.1-.2-.1 0l-.2-.1-.3.1-.1.2-.2.3-.2-.4c-.1-.7-.3-.2-.5-.6v.1q-.2.5-.2.2l-.2-.3h-.3q0-.2-.2 0l-.1.2h-.1l-.1.3-.2-.3h-.2l-.2-.1q0-.2-.1 0 0 .2-.2.3v.2l-.2-.2-.1-.2-.2-.3-.2.4q0 .2-.1 0v-.2l-.3.1c0-.1 0-.5-.3 0l-.1.3h-.3v-.2l-.1.1q-.1.1-.2 0h-.2v.1l-.2.4-.2.4v.3l.2.2h.2l.2.2.2-.1h.2q0 .2.2.1h.6l.3-.1.3.1h.8c.1 0 .2.3.2 0h.1l.2-.1h.6v.1h.2v-.2l.2.2.6.3h.3l.6-.2.4-.2h.4l.2-.2h.3l.1-.2zm11.5.4-.1-.3-.1-.3-.1-.1h-.6l-.1-.2v.1h-.1q0 .2-.1 0h-.2l-.1.3-.1.2q0 .2-.2-.3c-.2-.7-.2-.2-.4-.5v.1q0 .4-.2.1l-.1-.3q0-.2-.2 0h-.2v.3h-.1v.3l-.2-.3-.2.1-.1-.1q0-.2-.1 0v.3l-.2.2-.1-.2v-.2l-.2-.3v.1l-.1.3q0 .4-.1.1v-.2l-.2.1c-.1-.1-.1-.5-.2 0l-.1.3h-.2v-.2l-.1.2q0 .1-.1 0h-.2v.1l-.2.4v.9h.2l.1.1.2-.1h.1l.2.1h.3l.2-.1.2-.1.2.1h.4l.2-.1c.1 0 .2.3.2 0l.2-.1h.5l.1-.2.2.1.4.3h.2l.5-.2.3-.3v.1h.2l.2-.2h.3zm12.7.9v-.3l-.1-.3v-.1h-.4q-.3 0-.4-.2v-.1c0-.1-.1.3-.1 0q-.2.1-.2 0h-.3l-.1.2-.2.3v-.4c-.2-.7-.4-.2-.5-.6v.1h-.1q0 .4-.2.2l-.1-.4h-.5v.3h-.2v.3l-.2-.3h-.2l-.1-.1q0-.2-.2 0v.3l-.2.3-.1-.3-.2-.2v-.2h-.2v.3q0 .3-.1.1v-.2l-.3.1c0-.1 0-.5-.2 0l-.1.3h-.3V54l-.1.2q0 .2-.1 0h-.2v.1l-.2.5v.6l.1.2h.2l.1.1h.9l.1-.1h1.3q0 .1.1 0h.1l.2-.2h.4l.1.2.2-.2.1.1.5.4h.2l.5-.2.4-.2.1.2.2-.1.2-.2q.1.2.3 0zm13.1 1.1-.1-.3v-.4h-.5q-.3 0-.4-.2l-.1-.2v.2q-.1-.2-.2 0l-.1-.2h-.3l-.1.3-.2.2-.2-.3c0-.8-.3-.2-.5-.6q-.2.5-.2.2l-.2-.3h-.3q0-.1-.2 0v.2h-.2l-.1.3-.2-.3h-.2l-.2-.1q0-.2-.1 0l-.1.3-.1.3-.2-.3-.1-.2-.2-.3v.1l-.2.3q0 .4 0 0l-.1-.1h-.3s0-.5-.2 0l-.2.3h-.2l-.1-.2v.2q-.2.1-.2 0h-.2l-.1.2-.1.4-.1.4v.2l.2.2h.2q0 .2.1.1h1.2l.3-.2.2.2h.6l.3-.1s0 .3.1 0l.1.1.2-.2h.5l.1.2h.1l.1-.2.2.1.5.4h.2l.6-.2h.1l.3-.2.2.2h.2l.2-.2h.4zm6.6 1.4v-.7h-.1l-.2-.2v-.1c0-.1 0 .3 0 0q0 .1 0 0h-.2v.2l-.1.3v-.3c0-.8-.1-.3-.2-.7v.3l-.1-.4h-.1l-.2.3v.3l-.1-.3-.1-.1q0-.2 0 0l-.1.3-.1.3v-.5l-.1-.2-.1.3v.1-.2l-.1.1c0-.1 0-.5-.1 0l-.1.3h-.1v-.2.2q-.1.2-.1 0l-.2.1v.4l-.1.4v.5h.6V58l.2.1h.2V58c.1 0 0 .3.1 0v.1l.2-.2h.1v.1l.1-.2v.2l.2.3h.1l.3-.1.1-.2v.1h.1l.1-.2h.2zm11.8 2.4v-.7h-.4l-.2-.2v-.2c0-.1-.2.3-.2 0v-.1h-.3l-.2.2-.2.2V59c0-.8-.2-.3-.3-.7q-.2.5-.2.2V58q-.2-.2-.3 0 0-.2-.2 0l-.1.1h-.1l-.2.3V58h-.2l-.1-.2h-.2v.3l-.2.2-.1-.2V58l-.1-.3h-.1l-.2.3q0 .4 0 0h-.2c-.1-.1 0-.5-.3 0l-.1.2h-.2V58l-.1.2q-.1.2-.2 0l-.1-.1-.1.1-.2.4-.2.4v.3l.1.1.2.1v.1h.3l.2.1h.9l.2.1h.5q0 .2.1.1h.7v.1h.1l.1-.1.1.1.3.5h.7l.4-.1h.7l.1-.2Zm-2.7 6.2v.7l.4.1q.1-.1.4.1l.1.2V67q.1.2.1 0l.2.1.3-.2v-.5l.4.2c.5.6.4 0 .8.2v-.1q-.2-.5 0-.3h.4q.3 0 .2-.2.2 0 .2-.3l-.2-.2v-.2l-.1-.2h.3V65l.2-.2v-.2l-.3-.1h-.3q0-.2.3-.3l.1-.2.3-.2h-.1l-.3-.1h-.1l.1-.2-.2-.2c.1-.2.5-.4 0-.3h-.4v-.4l-.2.1q-.2.1 0-.1l-.2-.2-.2.1-.3.3q-.2 0-.3.3h-.1v.1l-.1.1v.3h.1v.2l.2.1v.1l.1.1v.6s-.3 0 0 0h-.1l.1.2v.3h-.2v.1l-.5-.1-.3.3s0 .3-.2.2h-.2l-.1.1h-.2zm-53.7-2.5v-.2l-.1-.4V63h-.4q-.2.1-.4-.1v-.2.1q0-.2-.1 0l-.2-.2-.2.1-.1.2-.2.3-.1-.4c0-.7-.2-.2-.4-.6v.1q-.2.4-.2.1v-.3h-.3q0-.1-.2 0l-.1.1h-.1l-.2.3v-.3h-.3v-.1q0-.2-.2 0l-.1.2-.1.3-.2-.3v-.2l-.1-.3-.2.4q-.1.2-.1 0V62h-.2c-.1 0 0-.4-.3 0l-.1.3h-.2V62l-.2.1q0 .1 0 0l-.2-.1-.2.2-.2.4-.1.3v.5h.2l.1.2.2-.1.2.1h.9l.3.2h.7s0 .3.1 0l.1.1.2-.2h.5v.2h.1l.1-.2.2.2.4.4h.2l.6-.1q.1-.2.3-.2l.1.1h.2l.2-.2h.3zm-5.9 1.7v-.7h-.1l-.1-.1v-.2.1q0-.1 0 0l-.1-.1-.1.3-.1.2V64h-.1v.2-.3q0-.1-.2 0 0-.2 0 0v.2h-.1v.3-.2h-.1v-.1q0-.2-.1 0v.3l-.1.2V64v.1l-.1.3v.1-.2l-.1.1c0-.1 0-.5-.1 0v.3h-.1v-.2.2q0 .1-.1 0v.2l-.2.4v.9h.3l.1-.1V66l.1.1h.1l.2-.1s0 .3 0 0v-.1h.2v.1l.1-.2v.1l.1.4h.1l.2-.2.1-.2v.1l.2-.2q0 .2 0 0zm16.7 1.3v-.2l-.2-.4V66h-.5q-.2.1-.5-.1v-.2l-.2.1q0-.2 0 0l-.2-.1h-.3l-.2.3q-.2 0-.2.2-.2 0-.2-.3c-.2-.8-.4-.2-.6-.6h-.1q-.2.5-.2.2l-.2-.3q-.1-.2-.3 0-.2-.2-.3 0l-.1.2h-.2l-.1.3-.2-.3h-.4q-.2-.2-.3 0v.2l-.2.3-.2-.3-.1-.1-.2-.3-.1.1-.1.3q0 .4-.1 0l-.1-.1h-.3c-.1 0-.1-.4-.3 0l-.1.4h-.3l-.1-.1-.1-.1v.2q-.1.1-.2 0h-.2l-.1.1-.1.5-.1.4v.3h.2l.3.1.2.1.2-.1h.2l.2.1.4-.1h.3l.3-.1h.4l.2.1h.5l.2-.1s.1.3.2 0h.1l.2-.1h.6l.1.1h.2V67l.3.1.6.4h.3l.6-.2h.1l.4-.2.2.1h.2l.3-.2q.2.1.4 0zm-5-7.9v-.3l-.1-.3V58h-.5q0 .2-.3 0v-.3l-.1.2q0-.2-.1 0l-.1-.2-.3.1-.1.2-.2.3-.1-.3c-.1-.8-.3-.3-.5-.7v.1q0 .5-.2.2l-.1-.3h-.3q0-.2-.2 0v.2h-.2v.3l-.2-.3q-.2.1-.2 0h-.2q0-.2-.1 0l-.1.2v.3l-.2-.2-.2-.2-.1-.3v.1l-.2.3q0 .4 0 0l-.1-.1h-.2c-.1 0-.1-.4-.3 0v.4h-.3v-.2l-.1.2q0 .1-.1 0h-.2l-.1.1v.5l-.2.4v.1l.1.2h.1l.2.1.2.1.1-.1h.2l.2.1.3-.1h.2l.2-.1h.3l.1.1h.3l.3-.2s0 .4.1.1h.1l.2-.1h.5l.2-.1.1.1.5.4h.2l.5-.2.4-.2.1.1h.2l.2-.2h.3zm9.1.2v-.8h-.3q-.1.1-.3-.1v-.2s0 .3 0 0q-.1.1-.2 0h-.1l-.2.2-.1.2V58c0-.8-.2-.2-.3-.6q-.1.5-.2.2v-.3q0-.2-.2 0 0-.2-.1 0l-.1.2h-.1l-.1.3-.1-.3h-.1l-.1-.1q0-.2-.1 0l-.1.2v.3l-.2-.3v-.2l-.1-.2-.2.3v.1-.2l-.2.1c0-.1 0-.5-.2 0v.3h-.2v-.3l-.1.2q0 .1-.1 0h-.1l-.1.1-.1.5-.1.4v.3l.2.2h.8l.2-.1.1.1h.5s0 .3.1 0l.2-.1h.3v.2h.1l.1-.2.1.1.3.4h.1l.4-.1q.1-.2.3-.2v.2l.2-.1.2-.1h.2zm0 4.3v-.8l-.4-.1q-.3 0-.4-.2V62s-.2.3-.2.1q0-.1 0 0l-.2-.2h-.2l-.3.2-.2.2V62c0-.8-.3-.3-.4-.8l-.1.1q-.2.4-.3.1v-.3q-.1-.2-.3 0 0-.2-.3-.2l-.2.2h-.2l-.2.3-.3-.2-.3.1-.2-.1-.2.1v.6l-.3-.2h-.2l-.2-.3-.1.2v.3q0 .3 0 0h-.2l-.1.1c-.2 0-.3-.4-.3 0v.4h-.3v.1c0 .3-.1 0-.2 0h-.1l-.1.3v.4l-.2.4v.1h.1l.1.2.2.1h.6l.2-.2h.5l.3-.3.1-.1.3-.2h.4l.1-.2h.2l.1-.1c.1 0 .1.3.1 0l.1-.1h.5v.2h.1l.2-.2.1.2.4.5h2.3zM151 58.5v-.7h-.2l-.3-.2v-.2.1h-.1v-.1h-.2l-.2.3-.1.2v-.3c0-.8-.2-.3-.3-.7v.1l-.2.2v-.4q0-.1-.2 0 0-.1-.1 0l-.1.2h-.1l-.1.3-.1-.3q0 .1-.1 0l-.1-.1h-.1l-.1.3-.1.3v-.3l-.1-.2-.1-.3v.1l-.2.3q0 .4 0 0V57h-.2s0-.5-.2 0v.3h-.2V57l-.1.2q0 .2-.1 0h-.2l-.1.5-.1.4v.4l.2.1h.2l.2.1h.2l.2-.1h.5l.1.1.2-.1s0 .3.1 0v.1l.2-.1h.3v.1h.1l.1-.2.1.2.3.4h.1l.4-.1q.1-.2.3-.2v.1h.2l.1-.2q.2.2.2 0zm29 3.4v-.3l-.2-.5h-.1q0 .1-.2 0v-.2.1q0-.1 0 0l-.1-.1h-.1l-.1.3v.2l-.1-.3c0-.7-.1-.2-.2-.6v.3l-.1-.4h-.2v.3h-.1v.3l-.1-.3h-.1v-.1h-.1v.3l-.1.3v-.3l-.1-.2v-.2l-.1.4q0 .2 0 0v-.2l-.2.1c0-.1 0-.5 0 0l-.2.3-.1-.1v-.1.2q-.1.2-.1 0h-.2v.5l-.2.4v.5h.6l.2-.1v.1h.4q0 .2.1 0 0-.2 0 0l.2-.2h.2v.2l.1-.2v.1l.3.3h.1l.3-.1.1-.2h.2l.1-.2q0 .1.1 0zm-1.7 5.3v-.7l-.3-.1-.2-.2V66v.2q0-.2-.1 0l-.1-.2h-.2l-.1.2-.2.3V66c0-.7-.2-.2-.2-.6h-.1q-.1.5-.2.2v-.4q0-.2-.2 0 0-.2-.1 0l-.1.2h-.1l-.1.2-.1-.2h-.1l-.1-.2h-.1l-.1.3-.1.3-.1-.3v-.2l-.1-.3-.1.1-.1.3q-.1.2-.1 0v-.2l-.2.1c0-.1 0-.5-.1 0l-.2.3h-.1v-.2l-.1.1q-.1.1-.1 0h-.2v.1l-.2.4-.2.4v.3l.1.1.1.1.1.1h1.2v.1h.5s0 .3.1 0v.1q.2 0 .2-.2h.1l.3.1v.1l.2-.2v.2l.3.4h.6q.1-.2.3-.2v.1h.2l.2-.1h.2zm-3.1 5.3v-.3l.2-.3v-.1l-.1-.1-.1-.2v-.2.1-.2h-.2l-.2.2-.2.2.1-.3c.4-.7 0-.3.2-.6h-.1q-.2.4-.2.1l.1-.3q0-.1 0 0l-.2-.1-.1.2h-.1l-.2.2.1-.3h-.1v-.2h-.1q0 .3-.2.2l-.1.3v-.5l.1-.2-.2.3q-.3.2-.1 0v-.2s.1-.4-.2 0l-.2.2v-.2l-.2.1q0 .2 0 0h-.2l-.3.4-.2.4-.1.1v.5l.2-.1v.2h.5v.1h.2v.1h.2q0 .2 0 0 .2 0 0 .1l.3-.1h.2v.2l.1-.1v.5h.7v.1h.4zm-.4 3.9V76l.1-.3v-.1l-.2-.2q-.2.1-.2-.2v-.1c0-.1-.2.2-.1 0v-.2h-.3l-.2.2-.2.2V75c.3-.8 0-.3 0-.7h-.1q-.2.3-.2.1v-.3q.1-.2-.1 0s0-.3-.1-.1l-.2.1-.2.3v-.3h-.2V74q0-.2-.2 0l-.1.2-.2.2v-.8.1q-.2 0-.2.3-.2.2-.1 0v-.2h-.2c0-.1.2-.5-.1 0l-.2.2h-.2v-.2c-.2.3-.1 0-.2 0l-.2.1-.2.4-.3.4v.4h.1v.2h.3l.1.1h.6l.2.2h.2v.1h.3s0 .3 0 0l.1.1h.2q0-.2.1 0h.2v.2l.2-.2v.2l.2.5h.6q.2-.2.3 0h.4l.2.1zm9.5-2.1v-.2l-.1-.3v-.2h-.3q-.1.2-.3 0v-.2c0-.1 0 .3 0 0h-.1q0 .2-.1 0h-.2v.3l-.2.2v-.3c-.1-.8-.2-.2-.4-.6v.1q0 .4-.1.1V73q-.1-.2-.3 0 0-.1 0 0l-.2.2-.1.3-.1-.3q0 .1-.2 0 0-.3-.1 0l-.1.2v.3l-.2-.3v-.5l-.2.1v.3q-.1.4-.1 0v-.1h-.2s0-.5-.1 0l-.2.3h-.1v-.2.2q-.2.2-.2 0l-.2.1-.1.4-.2.4v.4l.2.1h.3l.2.1h.4l.2-.1.2.1h.5q0 .2.1 0l.2-.1h.3v.1h.1l.1-.2.1.1q.1.3.4.4h.1l.4-.2q.1-.2.3-.2v.1h.2l.1-.2h.3v-.3Zm8.4-3.7-.1-.2-.2-.3v-.2l-.4.1q-.2.2-.4 0l-.1-.2v.2q-.1-.2-.1 0l-.2-.1-.2.1-.1.3-.2.2-.1-.3c-.3-.7-.4-.1-.6-.5v.1q-.2.4-.2.2l-.2-.3q-.1-.2-.3 0h-.2v.3h-.1l-.1.3-.2-.3-.2.1-.2-.1h-.1l-.1.3v.3l-.3-.2-.1-.2-.2-.3v.1l-.1.3q0 .4 0 0l-.2-.1-.2.1c0-.1-.1-.5-.2 0l-.1.3h-.3v-.2l-.1.2q0 .1-.1 0h-.2l-.1.1-.1.5-.1.4v.2q0 .3.2.2h.2l.1.2.2-.2.2.1h.6l.2-.1.2-.1h.9l.2-.1s.2.3.2 0h.1l.2-.2h.7v-.1h.2l.6.3h.2l.6-.3.3-.3.2.1.2-.1.2-.2h.3zm0-2.6v-.3l-.1-.3v-.1h-.4q0 .2-.2 0l-.1-.3v.2q0-.2 0 0l-.2-.2-.1.2-.1.2-.1.2-.1-.3c-.2-.7-.3-.2-.4-.5q0 .5-.2.2l-.1-.3q0-.1-.2 0h-.1v.3h-.1v.3l-.2-.2h-.2V67h-.2v.6l-.2-.2v-.2l-.2-.2v.4q0 .2-.1 0l-.1-.1-.1.1c-.1-.1-.2-.5-.2 0v.3h-.2l-.1-.1v.2q0 .2-.1 0h-.1v1.3l.1.1h.1l.2.1v-.1h.3l.2-.1h.2l.1-.2.2.1h.4l.1-.2s.1.3.2 0v.1l.1-.2h.4l.1-.1h.1l.4.4h.2l.3-.3.2-.2.1.1h.2l.1-.2h.2zM171 71.7V71h-.2l-.2-.2v-.2s-.1.3 0 0h-.1q0 .1 0 0h-.2l-.1.2-.2.2v-1l-.1.1q-.2.3-.2.1V70q0-.2-.1 0 0-.2-.1 0l-.1.1h-.1l-.1.3V70h-.2v-.2h-.1l-.1.3-.2.2v-.7l-.2.3q0 .4 0 0v-.1h-.2c0-.1.2-.5 0 0l-.3.2q-.2 0 0-.1v-.1l-.2.1q0 .1 0 0h-.2l-.3.5-.2.3v.6h.2v.1h.7l.1.2h.5s0 .3.1.1h.5v.1l.2-.1v.1l.2.4h.6l.2-.2.1.2h.1l.2-.2q0 .2.2 0zm6-11.1v-.7h-.3l-.2-.1v-.2q0 .2-.1.1 0-.1 0 0l-.1-.1h-.2v.3q-.2 0-.2.2v-.3c-.2-.8-.3-.2-.4-.6v.1q0 .4-.1.1l-.1-.3q0-.2-.2 0h-.1v.3h-.1l-.1.3-.1-.3h-.2v-.1h-.1v.3l-.1.3-.2-.3v-.1l-.1-.3-.1.4q0 .3 0 0l-.1-.1h-.2s0-.4-.1 0v.4h-.2v-.1l-.1-.1v.2q0 .1-.1 0h-.1v.1l-.1.5v.8h.2v.1l.2-.1h.5l.2-.2.2.1h.3l.1-.1s.1.3.1 0l.1.1.1-.2h.3v.1h.1v-.2l.2.1.3.4h.1l.4-.2q0-.2.2-.2v.1h.2l.1-.2h.2zm14.2-1.2V59l-.2-.3v-.1h-.6v-.2.1q-.1-.2-.1 0l-.1-.1-.2.1v.2l-.2.3-.1-.3c-.2-.8-.2-.2-.4-.6v.1q0 .3-.1.2l-.1-.4q-.2-.2-.2 0h-.2v.3l-.2.3v-.3h-.2l-.1-.1h-.1v.3l-.1.3-.2-.3v-.2l-.1-.2-.2.4q0 .2 0 0v-.2l-.2.1c0-.1 0-.5-.2 0v.3h-.2v-.1l-.1-.1v.2q-.1.2-.1 0h-.2l-.2.5v.8l.1.1.1.1.2-.1h.1l.2.1h.2l.2-.1h1q0 .1.1 0 0-.1 0 0 .2 0 .2-.2h.4v.1h.1v-.2l.2.1q.1.2.4.3h.2l.4-.2q0-.2.2-.2l.1.1h.2l.1-.3h.2zm-.2 6.3V65h-.4l-.3-.2v-.2.1q0-.1-.1 0l-.1-.2-.3.1-.1.2-.2.2v-.3c0-.8-.3-.3-.4-.7v.1l-.2.2v-.4h-.3q0-.1-.2 0v.2h-.2v.3l-.2-.3q0-.1-.2 0v-.2h-.2l-.1.3-.1.3-.1-.3-.1-.2-.1-.3v.1l-.2.3q0 .4 0 0l-.1-.1h-.2s0-.5-.2 0l-.1.3h-.2V64l-.1.2q-.1.2-.2 0l-.1-.1-.1.2-.1.4-.1.4v.4l.2.1h.4q0 .2.2.1h.4l.3-.1.2.1h.6s0 .3.1 0l.1.1.2-.2h.4v.2h.1l.1-.2.1.2.4.4h.1l.5-.1.4-.2v.2h.2l.2-.2q.2.2.3 0zm11-1.9v-.3l-.1-.3V63h-.4l-.3-.2v-.1c0-.1-.1.3-.1 0q-.1.2-.2 0h-.2l-.1.3-.2.2V63c-.2-.8-.3-.2-.5-.6q0 .5-.2.2l-.1-.3q0-.1-.2 0 0-.1-.2 0v.2h-.2v.3l-.2-.3-.2.1v-.2q-.2-.1-.2.1l-.1.2v.3l-.2-.2-.1-.2-.2-.3v.4q-.1.3-.2.1v-.2l-.2.1c0-.1-.1-.5-.2 0l-.1.3h-.2l-.1-.2v.2q0 .1-.1 0h-.2v.2l-.1.4-.1.4v.2l.1.2h.2l.1.1h.7l.2-.1.2-.1.2.1h.5l.2-.1s0 .3.1 0l.2-.1h.4l.1.1.2-.2v.1l.5.4h.2l.4-.2.4-.2v.1h.2l.2-.2q.1.2.3 0zm2.3-2.8v-.8h-.2l-.1-.1v-.2.1q0-.1-.1 0v-.2l-.2.1-.1.2-.1.3V60c0-.7-.1-.2-.1-.6v.1q-.2.4-.2.1v-.3q0-.2 0 0-.1-.1-.2 0v.2h-.1l-.1.3v-.3h-.1v-.1h-.2v.3l-.1.2v-.7l-.1.1-.1.3q0 .4 0 0v-.1h-.2s0-.5 0 0l-.2.3h-.1v-.2.2q-.1.2-.1 0h-.1v.1l-.2.5v.4h-.1v.3l.1.1v.1h.5l.2-.2.1.2h.2l.2-.1s0 .3 0 0v.1l.2-.1h.2v.1l.1-.2v.2l.2.3h.4l.2-.3v.2h.1l.2-.2h.1zm-3.7 8.4v-.7l-.4-.1q-.2.1-.3-.2v-.2l-.2.2q0-.2 0 0l-.1-.2h-.3l-.2.2-.2.2v-.3c0-.8-.3-.3-.4-.7v.1h-.1q-.2.3-.2.1v-.3q-.1-.2-.3 0-.1-.2-.2 0l-.2.1-.2.3-.1-.3h-.2l-.1-.1q0-.2-.2 0l-.1.2-.1.3-.2-.3v-.2l-.1-.3-.1.1-.1.3q-.1.2-.2 0v-.2l-.2.1c0-.1 0-.5-.2 0l-.2.2h-.2l-.1-.2v.2q-.1.2-.2 0h-.2l-.2.5-.2.4v.3l.2.1.1.1.2.1h1.3l.2.1h.7s0 .3.2 0v.1l.2-.1h.5v.2h.2v-.2l.2.2.4.4h.8l.3-.2.2.1h.2l.2-.1h.3zm-8.2 6.3V75h-.2l-.2-.2v-.2.2q0-.2 0 0v-.2l-.2.1v.2l-.2.2v-.9.1q-.2.4-.2.1v-.3q0-.2 0 0 0-.1 0 0l-.2.1-.2.3v-.4q0-.1-.1 0l-.1.2-.2.3v-.3l.1-.2V74l-.2.3q0 .2 0 0v-.1c0-.1.1-.4-.2 0l-.2.2V74l-.1.1q-.1.2 0 0h-.3l-.2.4-.3.3-.1.2v.4h.2v.1h.6v.2h.5v.1l.2-.1h.3v.2l.1-.2v.2l.3.3h.4l.2-.3v.2h.2l.1-.2h.2zm-9.8 4.1V79h-.2l-.2-.2v-.2s-.1.3 0 0h-.1v-.1h-.2l-.2.2-.2.2v-.3c.2-.8 0-.3 0-.7h-.1q-.2.5-.2.2v-.4q0-.2-.2 0 0-.2-.1 0l-.1.2h-.1l-.2.2v-.3h-.1v-.2h-.2l-.1.3-.2.2v-.7h-.1l-.2.3q0 .3 0 0v-.1h-.2c0-.1 0-.5-.2 0l-.1.2h-.2v-.2.1q-.2.1-.2 0l-.2.1-.2.4-.2.4v.4h.1l.1.2h.9l.2.2h.5v.1h.3q0-.2 0 0h.3v.1l.2-.1v.1l.3.5h.5l.3-.2v.2h.2l.2-.1h.2zm-8.1 2.2v-.6l-.3-.1-.3-.2V81v.1h-.1V81h-.3l-.2.2-.2.2V81c.1-.8-.1-.3-.1-.7h-.1q-.2.5-.2.2V80q0-.2-.2 0 0-.2-.1 0l-.2.1-.2.3v-.3h-.2V80q0-.2-.2 0l-.1.2-.2.2v-.7h-.1l-.2.3q-.1.2-.1 0v-.2h-.1c0-.1 0-.5-.2 0l-.2.2h-.2v-.2h-.1c-.1.3 0 0 0 0h-.3l-.3.5-.2.3-.1.2v.2l.1.1.1.2h.3l.2.1h.7l.1.3h.6s0 .4.2.1v.1l.2-.1h.4v.2l.2-.1v.1l.4.5h.6l.4-.2v.2h.2l.3-.2.2.1.1-.2zm-112-15.4v.3l.1.3v.2h.6q.3 0 .5.2l.1.3.1-.2q0 .2.1 0l.2.2h.3l.3-.2.2-.2.2.4c0 .8.3.3.5.7h.1v-.1q.3-.4.3 0l.2.3q0 .2.3 0 .1.2.3.1l.2-.2h.1l.2-.2.2.3h.3l.1.2h.3l.1-.2.2-.3.2.3.1.3.2.3h.1l.2-.4q0-.2.1 0v.2h.4c0 .2 0 .5.3.1l.2-.3.2.1h.2v.3l.2-.2q0-.2.1 0l.3.2.1-.2.3-.4.2-.3V68l-.2-.1-.2-.2H71l-.2-.2H70l-.2-.1h-.4l-.4-.2-.2-.1h-.4l-.1-.1H68c-.1 0-.1-.3-.3 0l-.1-.2-.3.2h-.2l-.4-.1-.1-.2h-.2l-.1.2-.2-.2-.6-.5h-1.2l-.5.1-.2-.1h-1.1zm3.5-3v.7l.2.1.3.2v.2-.1q0 .1 0 0l.1.2.2-.1.2-.2.2-.2v.3c-.1.8.1.3.1.7h.1l.1-.2v.4q.1.2.2 0 0 .2.2 0l.1-.2.2-.2v.2h.2v.2h.2l.1-.3.1-.2.1.2v.5h.1l.2-.3v-.1.2h.2s0 .5.2 0l.1-.3h.2v.2-.1q.2-.2.2 0l.2-.1.2-.4.1-.4v-.4l-.1-.1-.1-.1h-1l-.1-.1H69l-.1-.1h-.2q0-.2-.1 0l-.2.1H68v-.2l-.2.2v-.2l-.3-.4H67l-.3.2v-.2h-.2l-.2.2-.2-.1zM39.9 59v-.7l-.4-.1-.3-.2v-.2s-.1.3 0 0H39v-.1h-.3l-.2.2-.3.2v-.4c.2-.7-.1-.3-.1-.7H38v.1q-.3.4-.2 0v-.3q0-.2-.3 0 0-.2-.1-.1l-.2.1h-.1l-.2.2v-.3h-.2v-.2q0-.1-.2 0l-.2.2-.2.2v-.8H36l-.2.3q-.2.2-.1 0v-.2h-.2c0-.1.1-.5-.2-.1l-.2.2H35V56h-.1q-.2.2-.1 0l-.2-.1-.1.1-.3.3-.3.3v.6l.2.2h.2l.1.1.2.1h.3l.2.1h.2l.2.3h.3l.1.2h.3s0 .3.2 0v.2l.2-.2h.2l.2.2v.2h.2l.1-.2.1.2.3.5h.8v.1l.4-.1v.1h.8zm-9-5v-.5l.1-.2-.3-.1q-.2 0-.3-.3v-.2l-.1.1-.1-.2h-.3l-.2.2-.2.1v-.3c.2-.7-.1-.3-.2-.7q-.3.4-.3.1v-.3q0-.2-.2-.1 0-.2-.2 0l-.1.1h-.1l-.2.2v-.3h-.3v-.2q0-.1-.2 0l-.1.2-.2.2v-.3l-.1-.2V51h-.1l-.2.3q-.1.4-.1 0v-.1h-.2q0-.5-.2-.1l-.2.2H26V51l-.1.2q-.2.1-.1 0l-.2-.1-.1.1-.3.4q0 .2-.2.3v.5l.2.1v.1h.3l.2.2h.8l.1.2h.2l.2.2h.3s0 .3.1 0l.1.2.2-.2h.1l.3.2v.1h.3l.3.6h.7v.1q.4-.2.4 0h.5l.2.1h.1l.1-.2" class="cls-6"/><path d="M84.8 85.5q.3-.5.3-1v-3.4l-.5-1-.3-.1-.3.2v.2l-.2.6h-.1l-.1.4-.3.9.1.9v.4l.1.4.3.8h.1l.1.1.1.1c.2.1.5.5.7.4Zm1.8 37.9v-1l-.2-.9-.1-2.4-.3-1-.2-.2-.3.1-.2.1v.2q0 .3-.3.5l-.2.4-.3 1 .2 1.6.2.5q0 .3.3.5l.2.2.1.1h.1l.2.1q.3.3.8.2m6.5 23.7-.1-1-.4-1.2q-.7-1.5-1.7-2.7l-1-.8-.4.1v.7l.3.6v.5l.4 1 .5.9.3.4q0 .3.3.4l.6.7.1.1h.1l.2.1c.2 0 .6.4.8.2m1.5 25.3.5-.9v-1q.1-1.6-.4-2.8-.2-.6-.7-1h-.3l-.2.3v.9l-.1.1v.3l-.1 1 .1.8v.4l.2.3v.6l.2.2v.1h.2v.2c.2.1.4.6.7.6ZM87 105.9q.3-.6.3-1l.1-1.2.3-2.8-.1-1.3-.3-.2-.3.2h-.1v.3l-.4.6-.3.4-.4 1v2.2q0 .4.2.7v.3l.2.1.2.2c0 .1.4.6.7.5ZM92.5 85l.4-.8.3-.9V81l-.7-.9h-.3l-.2.2-.1.1v.6h-.2v.3l-.3.7v1.4l.2.5v.2h.1l.1.1v.2l.6.5ZM87 95.7v-.9l-.2-.8-.4-2.3-.4-.9-.3-.1-.3.2v.2l-.2.6H85v.4l-.3 1 .2.8.2.5.2.3q0 .3.3.5 0 .2.2.2h.2l.1.2zM102.3 80l.5-.8.2-1a5 5 0 0 0-.5-2.5q-.2-.5-.8-.8h-.3l-.2.4v.1l.1.1v.9l-.2.7.1.7v.4l.1.3.1.4.1.2v.1h.2v.2c.1.1.3.6.6.6M96 92.8v-1.3l-.6-1.5-.7-.5h-.3l-.2.2v.6h-.1v.3l-.1.7.2.5.1.3.2.2.3.3.1.1h.3zm17-7.1.6-.7.4-1q.3-1.3-.2-2.6l-.8-.8h-.3l-.2.4v1l-.2.7V84l.1.7.1.1v.2c.2.1.3.6.5.6Zm-7 2.1.1-.7-.1-.8-.6-1.8-.6-.6h-.3l-.2.2h-.1v.6l-.1.1v.3l-.1.7.2.7.1.3.2.3.3.3.1.2h.4q.3.3.7.2M121.5 99l.4-.9.1-1v-2.4q-.2-.6-.6-1l-.3-.1-.2.2-.1.1v.2l-.1.5h-.1l-.1.4-.2.8v1.7l.2.5.1.2.1.1.2.2q.2.3.6.5m10.5 5 .2-.9v-.8l-.2-2.3q-.1-.5-.5-.9h-.3l-.2.1-.2.2v.6h-.2v.3q-.2.4-.2.9l.1 1.2.1.3.2.5.2.2.1.1.2.1q.2.3.7.3Zm-13.2 11.5.3-1.1V113q-.2-1.5-.7-3.2-.3-.6-.9-1 0-.3-.3-.1l-.1.3-.1.2v.2q.2.3 0 .6v1.5l.2 1.2.1.5.2.4.3 1 .2.1v.2c.2.1.5.6.8.5Zm7.2-2.7.4-.6.1-.7.2-1.8-.3-.7-.3-.2-.3.1-.1.1v.1l-.2.4h-.1l-.2.2-.3.6v1.3l.1.4.1.2h.1l.2.2c.1 0 .4.4.6.3Zm-5.9 14.4q.3-.3.3-.7v-.8l-.1-2q-.1-.5-.5-.8l-.3-.1-.2.2h-.2v.6h-.2v.3l-.3.8v.7l.1.4.1.3.2.4.2.3h.1l.1.1q.3.3.7.3m2.6 13 .2-1 .2-1 .5-2.7v-1.2l-.3-.3-.3.1-.2.1v.2l-.4.5h-.1l-.2.4-.5 1-.2 1.2v1l.3 1 .1.1.1.2c.2.1.5.5.7.4m-26.9-11.6v-1l-.2-1-1-2.3q-.1-.5-.7-1h-.3q0 .2-.2.3v2.3l.3.9.2.4.2.3.3.5.2.2h.2v.1l.2.1q.3.2.8.2m8.6 17.7.2-.6v-2.1l-.4-.7h-.7v.1q0 .3-.2.4h-.1l-.1.2-.3.7v.9l.2.3.2.3.1.2h.2l.1.1zm12.8-1.3q.3-.4.3-.8l-.1-.7q-.2-1-.9-1.8-.2-.4-.8-.4h-.2l-.2.4v.1l.1.5v.9l.2.5.1.2.2.2.2.4h.2v.1h.1l.2.1q.1.2.7.3m5.1 5.8.3-.9.1-1q0-1.4-.3-2.7 0-.5-.6-1h-.3l-.2.2-.1.2v.7h-.1v.4l-.2.9v.8l.1.5v.3l.2.6.2.2v.1h.1l.1.2q.2.3.7.5m-16.4 8.4.1-.9v-1l-.5-2.5q-.2-.6-.6-1l-.3-.1-.2.2-.1.2v.7h-.2v.4l-.1 1q0 .5.2.9v.4l.2.4.3.6.1.2h.1l.1.1.1.1q.4.3.8.3m11.4-2.1.2-.6v-.6l-.4-1.5-.6-.6h-.3l-.2.2h-.1v.1l-.1.4-.1.3-.2.6.2.8.2.2.2.4h.2v.1h.2q.4.3.8.2m11.4 6 .1-.7v-.7q0-1-.4-1.7-.1-.4-.5-.7h-.3l-.3.2v.2q0 .3-.2.4v.3q-.2.3-.2.7l.1.6.1.3.2.3.2.3.1.2h.2l.2.1zm-33.5-5v-.9l-.3-.9q-.3-1.1-.9-2.2-.2-.4-.7-.8H93l-.2.3v2.2l.3.7.2.4.2.3.4.5.2.1.2.1h.1q.4.3.8.2m19.5 10.7.2-.6v-.7l.2-1.8-.1-.8-.2-.2h-.5v.1l-.4.4-.3.3-.4.7v1.6l.3.5.1.2h.2l.2.2zm7.9 3.2-.1-.9-.4-.7-.9-2q-.2-.4-.6-.7h-.4l-.2.2v2.1q0 .4.4.8l.2.3.3.3q0 .3.4.4l.2.1h.2l.1.1zm1.4-86 .3-1v-1q0-1.5-.7-2.7-.2-.5-.8-.9h-.3l-.2.3v2.2l.2.8.1.4.1.4.2.5.1.2.1.1h.1l.1.2zm-9-9.6q.3-.2.3-.6v-2.5l-.5-.8h-.3l-.3.1h-.1v.2l-.1.4h-.1l-.1.3-.3.6v.7l.1.3.1.3.3.6h.2l.1.2q.3.2.7.2m13.4-6.1q-.4.4-.5.8-.3.5-.3 1-.3 1.3-.2 2.7 0 .5.4 1l.3.1.3-.2.1-.1v-.2l.2-.5.2-.4.3-.8v-2.5h-.1l-.1-.2q-.3-.5-.6-.6Zm16.8 34.5v-1.6l-.7-2-.6-.8h-.3l-.2.2-.1.2v.6h-.1v.4q-.1.3 0 .8l.1.7.2.3.1.3.3.5.2.1.2.1h.1q.3.2.8.2m7.7-10.2q-.3.3-.3.7v.8q0 1.2.6 2 .4.5.8.6l.3-.1.2-.3v-.2q-.2-.2 0-.4v-1l-.2-.5v-.3l-.2-.2-.2-.4v-.1l-.2-.1-.1-.1zm7.8-.6v-.8l-.4-.8-1-2-.8-.6h-.3l-.1.3-.1.2v.1q.2.2.1.5v1.2l.5.7.2.4.2.2.4.4.1.2h.4q.4.1.8 0m5.9 1.2.2 1 .5.9 1.6 2q.5.4 1 .5h.3l.1-.4V99h-.1l-.2-.6-.1-.4-.4-.8-.5-.7-.3-.4-.3-.2-.4-.4-.2-.1h-.2l-.2-.1q-.5-.1-.8 0Zm-5.4 10.5.2-.5-.1-.5-.4-1.2-.6-.3h-.3l-.2.2v.1l-.1.3-.1.1v.2l-.2.5.2.4v.2l.2.2.2.2.2.1zm-6.8 7v-1l-.2-1.2-.8-2.8-.8-1h-.3l-.2.2v2.5l.4 1.6.2.4.6.8.1.1h.1l.1.2c.2 0 .6.4.8.2m-16.4-.4v-.6l-.2-.5-.4-1.2q0-.3-.4-.6l-.2-.2-.3.1h-.2v.2l-.2.4-.1.3-.2.7.2.7.2.3.2.3.4.3h.5q.4 0 .7-.2m36.9 8.1v-.8l-.1-1q-.4-1-1.1-2l-1-.5-.2.1-.1.3v.3l.1.4v.4q0 .4.2.7 0 .4.3.7l.2.3.2.2.2.4.2.2h.1l.2.1q.3.2.8.2m6.7-9.1q0-.5-.3-.9l-.5-1-1.5-2q-.3-.5-1-.8l-.3.1v.3l-.1.2.1.1.2.6v.4l.3 1 .9 1.1q0 .2.3.3l.5.5h.2l.1.1h.3q.5.2.8 0m-10.4-.7-.2-1-.5-.7-1.2-2.2-.8-.8h-.3l-.2.3v1.3l.2 1 .5.8.3.4.3.3.8.6h.3q.5.2.8 0m-3.6 15.1-.2-.9-.4-.9-1.1-2.2-.8-.8h-.3l-.2.3v1.3l.2 1 .4.8.3.4.2.3.7.6h.2l.2.1q.3.2.8 0m21.1 2.8-.1-1-.4-1-1.2-2.6-.9-.9h-.3l-.2.3v.4q.2.3.1.6v.5l.2 1 .5 1 .2.4.3.3.7.7.2.1h.1q.4.3.9.2Zm7 1.9v-.9l-.1-.9-.4-2.3q-.1-.6-.4-1l-.3-.1-.3.1-.1.2v.2l-.2.5-.1.4q-.2.4-.2 1l.2 1v.4l.3.4.3.5.2.2h.2l.1.2c.2 0 .6.3.8.1m-13 5.6-.3-1-.5-1-1.7-2.4-1-.8h-.3l-.1.4v.3l.2.6v.1l.1.4.4 1 .6 1 .3.3.3.4.5.4.3.2h.2l.2.1q.5.1.8 0m-8 10.4-.1-1-.3-1.1-.6-2.8-.5-1.1-.3-.1-.3.2-.1.2v.8h-.2v1.6q0 .6.2 1.1l.2.6.2.4.4.6.2.2h.1l.1.1.2.1c.1 0 .6.4.8.2m14.3 1.8v-1l-.4-1-1.5-2.4q-.3-.4-1-.6h-.2l-.2.3v.2l.1.2.2.5v.5l.3.9.5.8.2.4.3.3.4.5.2.1h.1l.1.1h.2q.3.3.8.2Zm8.3-4v-.7l-.4-.7-1.2-1.4-.9-.2-.2.2-.1.3v.1l.2.4v.4l.2.6.4.4.2.2.2.2.3.2zm7.2 2.3-.1-1-.4-1q-.7-1.3-1.6-2.4l-1-.6-.4.1v.6h.1l.2.6v.1l.1.3.3 1 .5.7.3.4.2.3.4.4.2.2h.2l.1.2zm-4.3 7.5v-.8l-.3-.7-1-1.7q-.3-.4-.8-.5h-.3l-.2.3v1q0 .5.2.8l.3.6.2.3.3.2.3.3.2.1h.4q.3.2.7 0Zm-17.8 2-.1-.8-.4-1-1.2-2.2-.9-.7h-.3l-.2.3v.2l.1.1v1q0 .5.3 1l.4.8.3.3q0 .2.2.3l.4.5.2.1h.2l.2.1q.5.1.8 0m-10.1 6.7-.2-1.2-.2-1.2-.4-3.3q-.1-.8-.4-1.4l-.3-.2-.2.2-.2.2v.2q0 .4-.2.7v.1l-.2.5-.2 1.3.2 1.4.2.6.2.5.6 1 .1.2h.1l.2.1c.1.1.6.5.8.3Zm21.5 2.4q.2-.5.1-1l-.2-1.2q-.5-1.4-1.4-2.6l-1.1-.6h-.3v.7l.2.5v.2l.1.3.3.9.4.8.2.4.2.4.5.7h.2v.2c.2 0 .6.4.8.3M211 164l-.1-.6-.4-.7-1.2-1.6-.8-.4h-.3l-.2.3v.2h.1v.6l.1.3.2.7.4.6.3.3.2.2q.3 0 .4.3h1.3Zm2.3-7.5q0-.6-.4-1l-.6-1-1.8-2.5q-.5-.6-1-.8h-.4v.7l.3.6v.5l.5 1 .6 1 .4.4.3.4.8.6h.4c.2.1.8.3.9.1m10.2 12.5-.2-.8q0-.4-.3-.8l-1.2-2q-.2-.4-.8-.6h-.3l-.1.3-.1.2.1.1v.9l.2.9.4.7.3.3.2.3.6.5h.4q.3.1.8 0m-6.7 4.4-.2-1.5-.7-1.9-.7-.6h-.3l-.2.2v.7h-.2v1.2l.3.7.2.3.2.3q0 .3.3.4l.2.1h.2l.1.1q.4.2.8 0m-13.4-1.7-.1-.6-.3-.6-1-1.4-.8-.3-.2.1-.2.3v.9q0 .4.2.6 0 .3.3.5l.2.3.3.1.5.3h.3zm-14.9-.2-.2-.8-.4-.8-.7-2.2q-.1-.4-.5-.9l-.3-.1-.2.2-.2.1v.7l-.2.1v1.4q0 .6.3 1l.2.4.3.4.5.4.2.2zm-12.6 1.1q.3-.2.4-.6l.2-.8-.2-2.1q0-.4-.6-.7h-.3l-.2.2h-.1v.6h-.1l-.1.3-.2.7v.9l.1.3.1.4.1.2h.1l.2.2s.3.5.6.5Zm-11.5-6.2.3-.4.1-.4.2-1.1-.3-.6-.2-.2h-.4v.1l-.3.2h-.1l-.2.2q-.2 0-.3.4l-.1.5v.5l.2.3.1.1h.2v.2zm-28.2 3.9-.2-1-.4-.9-1-2.3-.8-1h-.3l-.2.3v2.4l.5 1 .2.4.3.3.5.5.2.2h.4q.5.3.8.1m35.4-35.5v-.8l-.3-.6-1-1.7-.8-.4h-.3l-.2.3v1l.2.8q0 .3.4.5l.2.3.2.2.3.3.2.1zm11.4-17.1v-.6l-.3-.5-.7-1.2-.7-.3-.3.1-.1.3h-.1v1.4l.3.4.1.2.2.1.3.2zm-95.4 56.6a168 168 0 0 0 .8-15.9 560 560 0 0 0-.2-21.7v-1.2l-.2-1-.1-.5h-2.1l-1.1.1-5.4.7 1.6.3h6v3.6l-.2 7.7v20l.1 2 .1.7v.5l.1 1c.2 1 .4 4.2.6 3.7m11.5-.4.6-7.5.4-8.3.5-10.9q0-1.5-.2-2.8l-.5-2.7-1-5.3-.5-2.4-.2-1h-2.3l-5.4.8 1.6.2h5.1v.1l.1.2v.9l.1.5.2 1 .2 1.9q.4 1.8.6 3.8l.4 3.7-.2 7.8-.1 3.8-.1 3.4v7.6l.1.5v1.1c.2 1 .4 4.2.6 3.6m9.9 1 .4-7.9.1-4.3q0-2.3.3-4.4l1-11.3q.4-5.7 1.1-11.3l.1-.6.2-.8.3-2-2.8.6-6.2 1q.7.3 1.6.3h1.9l.9-.1 3.1-.3-.3.8-.2 1q0 1-.3 2l-1.1 8-.7 8.3-.4 4v10.8l.2 1.3.1 1.1c.1 1 .4 4.4.7 3.8"/><path d="M104.7 175.8c.7-.3.9-.8 1.6-.6 1.1.3 1.7-.8 2.3-.6l1.6.7q1.9.2 3.9 0h1.4l1.4-.5.6.2h1.9l1.8.3c.4 0 3.8-.5 4.3-.4s.8 1.6.3 3.2c-.6 0-1.8.5-2.3.4-1-.3-1.5-.1-2.4 0-.7 0-1.5-.3-2.2-.1l-3 .8-1-.4-4.6.3h-3.8l-2 .3c-.3.1-1 .6-1.3.5q-1.2-.6-2.4-.8c-1.2 0-.5.7-1.7.7h-1.4c-.8 0-.9-.2-1.7-.3l-2 .1h-1.8c-.4 0-1-.5-1.3-.3-1.4.6-3.6.3-5 .2q-.4.2-.4 0c-.2-.2 0-1-.2-1.4.2-1.1 0-1.3.2-1.4 1.3-.4 4-.3 5-.2s1.6.2 2.6 0c.7 0 1.3-.5 2-.6q.9-.2 1.8 0c.9 0 1-.4 2-.4.7 0 5.2 1 5.9.3Zm110.1-34.3-3.8-.3h-2l-.9-.1h-1.9v.1l-.2 1-.2 1.2-.3 2-.4 4.3c-.7 7.3-.4 14.6-.9 21.8l-.3 4.5-.1 4.5c0 .5.2 1.3.3 1l.3-1.6.2-1 .1-1.6.6-4.2.2-.6.1-1 .2-1.8q.4-3.9.5-7.8l.3-8 .2-3.8.2-3.4.2-2.4.2-1.9h1.5l.7-.2h.5l1.1-.1c1-.1 4.2-.4 3.6-.6"/><path d="M220.2 184.6c-1.2 0-1.6.4-2.7 0-2-.6-3.2.3-4.2-.1l-2.4-1.1q-3.4-.8-6.7-1.1l-2.5-.4-2.4.1-1.1-.3-3.1-.6-3.1-.8c-.8-.1-6.7-.8-7.6-1.3l-.5-.5-.2-.5q0-.3.2-.5l.4-.2.5-.7.2-.3v-.2l.2-.2 1.8.3q1.2 0 2 .2 1.8.7 3.9.8c1.2.1 2.4.7 3.7.8h5.2c.6 0 1.1.6 1.7.6l8 1.1 6.6 1 3.4.5c.6 0 2-.2 2.4 0q2 1 4 1.7c2 .4 1-.5 3-.2l2.3.7c1.4.2 1.5.4 2.9.8l3.3.6 3.1.7c.8.2 1.5.8 2.3.8 2.4 0 6.2 1 8.5 1.6h.7c.2.4-.2 1.2-.2 1.6-.5 1-.2 1.3-.7 1.3a52 52 0 0 1-8.4-1.6c-1.7-.5-2.8-.8-4.5-1l-3.5-.1-3-.7c-1.6-.4-2 0-3.5-.4-1.3-.3-8.6-2.9-10-2.4"/><path d="M189 179.4c0-2 .8-5.5 1.3-7.5q1-4.2 1.8-8.6l.2-5.6V152l.2-5.6.2-2.7.1-2.5h.9a46 46 0 0 0 8-.4l-1.6-.3h-2.7l-5.2-.8h-.6v.1l-.1.3v.7l-.3 2-.6 8-.1 8.1a61 61 0 0 1-.6 7.3l-.9 5-.3 2v1.2l-.2 1.2v2.4q.3 1.5.4 1.2Zm25 3 1-6.2 1-7 2.6-18q.6-3.7.8-7.5v-.9q-.4.6-.6 1.3l-.3.8v.6l-.2.7-1.1 4.9-.3 1.5-1.3 6.4-1 6.6-.3 3.1-.3 3-.4 6.7v1c0 .7.2 3.5.4 3m12.6 2.2.1-.8.2-1.2.4-2.2.7-4.9 1.6-12.6.4-5.3q0-.6-.2-.6l-.4.9-.2.6v.4l-.1.5-.6 2.5-.1.3-.4 1.6-.9 4.5-.6 4.6-.2 2.3-.2 2-.2 4v.8l.1.6.2 1.5q0 .3.2.5l-.2.2.3-.1Z"/></g></mask></defs><g id="Layer_1_copy" style="mask:url(#mask)"><path d="M276.2 144v-2c0-.4-1.7-.4-2-.7a27 27 0 0 0-10.5-2q-4.1.5-8.2-.4-4.5-.8-9.2-1c-.8 0-1.7.7-2.4.6l-7.6-1.5q-2.7-.3-5.5-.2c-.8 0-1.7.5-2.4.4l-10.2-1.8q-1.7 0-3.5.3c-1 .2-.9.3-2 0-.7-.2-2.3 0-2.9-.2-1.6-1-.5-.8-2.4-1.1l-.5-.1c-3-3.8-6.7-7.2-9.7-11-2.8-3.2-5-7-7.7-10.2-9-11-21.7-17.7-28.8-30.1a139 139 0 0 0 13.7-2 66 66 0 0 0 31.8-14.5 21 21 0 0 0 4.8-1.4c3.4-1.5 6.3-4.4 7-8s-1-7.3-3.4-10a35 35 0 0 0-9-6.2c-18.4-10-36.7-20.1-56-28.4S109 2.5 88.2 1A238 238 0 0 0 46 .9 100 100 0 0 0 5.5 12.2c-2.8 1.3-5 4.6-5.4 8.1-.6 5 1.6 9.8 4.4 14A73 73 0 0 0 32.6 58c11 5.7 23 9.3 35 12.7q6.9 1.9 13.9 3.6-.7 1.2-.8 2.8c-2.4 17 0 34.5 1.7 51.7l-1 .1-2-.2h-7.2c-1.8 0-3.6.5-5.4.4-2.3-.1-4.6-.7-6.9-.8-1.8 0-3.6.7-5.4.8-1.5 0-2.8.4-4.3.3-.3 0-.7-.6-1-.7q-.5-.3-1.1-.3c-.8 0-5.2 0-6 .2-1.3.6-1-1.2-2.3 1v2.5q-.5.7-.5 1.3l-.4 2q-.3 1.8-.4 3.7c-.4 6 .7 12 1.6 17.9l.6 7.4 1 7 .2 4.4.3 1.3q-1.1.3-1.3.5c-1.6 1.1.2.2-.4 1.3l-.1.4q0 .8.9 1.3c.6.4 4.8.1 5.5 0q1.5-.2 3-.1 2.7 0 5.3-.8l7.2-1c.9-.1 1 .3 1.7.3 1 0 2.7-.3 3.6-.5l6.3-1h2l2.7-.1.1.3.2-.3h.3v.3-.4l4.2-.3q3-.5 5.7-.7c-1.8 4.2-5.1 7.8-8 11.7-4.3 6-11.3 10.7-17 15.6-1.5 1.2-3.1 3.2-2 5l26.1-13.2q2.5-1.4 5.3-1.6c2.8-.2 3.8 1.2 4 3v2.3c.7 2.5 4.5 1.8 6.7.4 3.5-2 7-4.1 10.8-5.3 3.9-1.1 8.3-1.1 11.7 1 2.6 1.6 4.4 4.3 7.2 5.8 4.9 2.6 11 .3 15.8-2.4 5-2.7 10-6 15.6-5.3 6 .7 10.5 6 16.1 8.3a6 6 0 0 0 3.6.5q1.7-.6 3-1.7c5-3.3 12.3-2.5 16.4 1.9 1.6 1.7 3.4 4.2 5.7 3.5q1.4-.6 2.6-2c3-2.4 7.6-2 11 0 5.7 3 9.2 8.9 14.6 12.5q2.2 1.5 4.6 2c4.6.9 9.4-2.3 13.9-1 2.6.9 4.4 3.1 6.5 4.9a20 20 0 0 0 9.9 4.3q1 .1 2-.2c.9-.5 1.2-1.7 1-2.7q-.6-1.4-1.6-2.5c-6-7-13-12.7-19.6-19.1l-9-9.4-5-5.5q1.5.1 3-.1c1-.1.8-.2 2 .1.6.2 2.2 0 2.8.4 1.6.9.5.7 2.3 1 1.1.3 4.7.3 5.8.4.9.1 2.9.5 3.8.5l6.4.3c.4.7 1.2 1.2 1.5 1.8v-1.4q0 .5.4 1l3.8-24.7.4-2.2 1.3-5.5 1-4 1-3.2.6-4.5c.1-.8 1-2.3-.8-3.2ZM49.6 176c-.7.1-2.6.2-3.4.5l-2 .3a23 23 0 0 0 .3-7.6l-.3-8-.1-2.1v-1.8l-.5-5-.4-5.5-.3-4.1v-3.3l-.5-4.5v-.5l1.8.4q2.4.5 4.4.4v.2l-.3 3.7a95 95 0 0 0 1.2 17.4q.4 3.6.4 7.3.5 3.5 1.2 6.8l.7 4.5.2.5zm15-1.7q-1.5.1-3.1.7c-1 .3-.8.3-1.8.3-.6 0-2 .4-2.6.3-1.6-.4-.6-.4-2.2-.4l-.8.1v-3.1l-.3-3.9-.4-7.7v-2l.1-1.8-.3-4.8q0-2.7-.3-5.5l-.2-4v-3.3L52 135q3-.5 5.7 0l4.9.2v.1l-.3 3.5c-.4 5.7.3 11.3.9 16.9q.3 3.5.2 7 .1 3.4.7 6.7l.4 4.3zm11.4-1-2.2.7-7 .1.3-3-.1-3.9-.1-5.6v-1.9q.2-1 0-2l.3-1.7-.2-4.7-.2-5.4-.1-3.9q.2-1.5 0-3.2l-.6-3.8q.7-.6 1.6-.8c2.2.2 4.4.8 6.6 1h.5l-.1.6-.5 3.5a83 83 0 0 0 .8 16.8l.2 7q.3 3.4 1 6.7l.5 3.4zm11.8-.5h-8.5v-1.5l-.3-3.7-.2-7.4v-2l.2-1.7-.2-4.6-.1-5.3-.1-3.9.1-3.1q-.1-2.2-.6-4.3v-.2l.8-.1c.7 0 1.4-.7 2.1-.6l2 .2q.7 7.5 2.3 15 .9 3.8 2.4 7.6l.1 5.4q.1 3.1.7 6.3l.1 3.6zM227 145a67 67 0 0 0-1.8 18 71 71 0 0 0-4.8-6.7l-3.1-3.7v-.8l.5-3.9.6-3v-2.5h9.5zm4.6 30.7q-1.5-3.8-3.4-7.6l.1-1.4q0-.9.4-1.8l.2-1.8q.3-.7.4-1.5l.5-4.3.6-4.9q0-1.8.4-3.5.5-1.5.6-2.9l.1-3 6.8.5h2.7q-.7 1.5-1.2 3.1a64 64 0 0 0-2.8 16.3l-1 6.9q-.3 3.3-.1 6.5v4l-1.4-.1a15 15 0 0 1-2.9-4.5M211 141.2q2 0 3.7.2a34 34 0 0 0-1.4 5.8q-1.1-2-1.7-4.3zm27.7 37.2.2-3.2 1-7.2.1-.4.3-2 .6-1.5.6-4.4 1-5 .7-3.7.9-3 .4-4.1v-.2h.1c2.7.3 5.3 1.1 8 1.4h1.8v.3l-1 3.4c-1.1 5.4-1.4 11-1.8 16.4q-.3 3.4-1 6.9-.5 3.2-.6 6.5l-.4 4-1.6-.2q-2-.1-3.8-.5c-1-.2-.8-.7-1.7-1-1-.3-3-.3-4-.3h-.2zm28.5-3.1q-.6 3.6-.6 7.2l-.2 3.1-5-1.2q-1.6-.2-3.1-.9c-2-.8-4-.6-6-.8h-.3l.6-1.9.6-3.6 1-5.4q0-1 .4-1.9l.4-2 .5-1.6.6-4.5q.5-2.7.7-5.3l.5-3.8.6-3-.1-4.4v-.4h1.1l5 .1c.3 0 .8.7 1 .8l1.4.4c.8 0 6 .6 6.9.5h.5l-1.5 3.5a78 78 0 0 0-3.7 17.7q-.6 3.8-1.4 7.4Z" style="fill:#4e9ef4"/></g></svg>